<svg width="48" height="48" viewBox="0 0 48 48" fill="none" xmlns="http://www.w3.org/2000/svg">
<path d="M21.8437 47.3149C21.6101 47.0113 21.3454 46.6455 21.2598 46.5053C20.9329 45.976 20.4346 45.3844 20.3101 45.3844C20.24 45.3844 19.952 45.5401 19.6562 45.7347C19.3604 45.9293 19.0879 46.085 19.049 46.085C19.0023 46.085 18.94 46.1317 18.9089 46.1862C18.8232 46.3185 18.2394 46.7077 18.1226 46.7077C18.0681 46.7077 18.0292 46.7389 18.0292 46.7856C18.0292 46.8245 17.8969 46.9491 17.7412 47.0581C17.1729 47.4395 16.3789 47.2215 16.1998 46.6299C16.1687 46.5209 16.0986 46.3341 16.0441 46.2017C15.9896 46.0772 15.8495 45.7035 15.7249 45.3844C15.6082 45.0652 15.4603 44.7227 15.398 44.6293C15.3357 44.5281 15.3124 44.4502 15.3435 44.4502C15.3746 44.4502 15.3591 44.3957 15.3046 44.3334C15.2501 44.2712 15.2345 44.2167 15.2657 44.2167C15.3046 44.2167 15.2734 44.1544 15.2112 44.0843C15.1411 44.0065 15.0633 43.8664 15.0321 43.7652C14.9932 43.6328 14.9387 43.5939 14.8531 43.6328C14.5261 43.7652 12.9925 44.2322 12.8213 44.2556C12.6033 44.2867 12.3542 44.3879 12.035 44.567C11.6536 44.7849 11.1398 44.6915 10.8596 44.3412C10.6182 44.0532 10.4003 42.7454 10.4003 41.6322C10.4003 41.3052 10.3613 40.9393 10.3224 40.8226L10.2368 40.6124L8.39961 40.6669L6.55465 40.7292L6.25105 40.3866C5.95524 40.0597 5.94745 40.0441 5.99416 39.5848C6.0253 39.3279 6.06422 38.8375 6.09536 38.495C6.11872 38.1524 6.17321 37.8566 6.20435 37.8333C6.25884 37.7944 6.4301 36.9147 6.4301 36.7045C6.42232 36.4865 6.16542 36.3386 5.48816 36.1674C4.83425 36.0039 4.44502 35.926 3.46416 35.7704C2.90367 35.6847 2.53779 35.2021 2.53779 34.5715C2.53779 34.2835 2.66234 33.8787 2.77911 33.7853C2.80247 33.7619 2.9893 33.3649 3.19948 32.89C3.40188 32.423 3.61985 31.917 3.68991 31.7768C3.86117 31.4187 3.77554 31.3175 3.036 30.9439C2.70127 30.7726 2.40545 30.6169 2.3821 30.5936C2.35874 30.5702 2.15634 30.469 1.93837 30.3678C1.71262 30.2588 1.52579 30.1499 1.52579 30.1109C1.52579 30.0798 1.44794 30.0487 1.35452 30.0487C1.25332 30.0487 1.01979 29.9085 0.82517 29.7373C0.482647 29.4415 0.474862 29.4259 0.474862 28.9744C0.482647 28.5306 0.506001 28.4762 0.864093 28.0091C1.3156 27.433 1.8216 26.8258 2.28868 26.312C2.46773 26.1096 2.61563 25.9072 2.61563 25.8683C2.61563 25.7982 1.82939 25.0431 1.06649 24.3892C0.871878 24.2258 0.560493 23.9455 0.358093 23.7665L0 23.4395L0.0311385 22.8712C0.0467078 22.5598 0.1012 22.2562 0.147908 22.2017C0.225754 22.1083 0.537139 21.8826 1.59585 21.182C1.75154 21.0808 1.9228 20.9329 1.97729 20.8472C2.03179 20.7694 2.1252 20.7071 2.17191 20.7071C2.2264 20.6993 2.39766 20.5825 2.56893 20.4424L2.86474 20.1855L2.70127 19.8586C2.53779 19.5472 1.82939 18.4729 1.30782 17.7567C1.09763 17.4687 1.05871 17.3441 1.05871 16.9705C1.05871 16.2465 1.29225 16.0519 2.69348 15.5692C3.51865 15.2812 4.52287 14.8453 4.58514 14.7441C4.63964 14.6507 4.43724 13.8644 4.31268 13.7243C4.26597 13.662 4.21927 13.553 4.21148 13.483C4.2037 13.3351 3.91567 12.4554 3.68991 11.8949C3.46416 11.3188 3.62764 10.7895 4.11028 10.5404C4.25819 10.4625 4.68634 10.3847 5.18456 10.3458C6.7337 10.229 7.55109 10.12 7.62115 10.0188C7.65229 9.9721 7.66786 9.57509 7.6445 9.14693C7.62115 8.71878 7.57444 7.93253 7.55109 7.39539L7.50438 6.42232L7.77684 6.1265C8.03373 5.85404 8.08044 5.83847 8.53973 5.8229C9.19364 5.80733 9.55952 5.83847 9.66072 5.90853C9.73857 5.97081 9.95654 6.00973 11.1009 6.14985C11.6692 6.21991 11.6925 6.21213 11.8638 6.0253C11.9883 5.88518 12.035 5.72948 12.035 5.48816C12.035 5.30133 12.0662 5.13007 12.1051 5.10671C12.144 5.07558 12.1985 4.9121 12.2296 4.72527C12.5021 3.05157 12.7279 2.41323 13.047 2.41323C13.1171 2.41323 13.2416 2.36653 13.3195 2.30425C13.4363 2.21862 13.4908 2.21862 13.662 2.30425C13.771 2.36653 13.9111 2.41323 13.9656 2.41323C14.0201 2.41323 14.3626 2.55336 14.7285 2.72462C15.0944 2.89588 15.4758 3.05936 15.577 3.08271C15.686 3.10607 15.7717 3.16056 15.7717 3.1917C15.7717 3.23062 16.0052 3.33182 16.2854 3.42523C16.7681 3.58871 16.7992 3.58871 16.9471 3.45637C17.025 3.38631 17.095 3.2929 17.095 3.25397C17.095 3.21505 17.1962 3.036 17.3208 2.85696C17.4376 2.67791 17.5699 2.44437 17.601 2.33539C17.6322 2.2264 17.7723 1.9228 17.9202 1.65813C18.0681 1.39345 18.1849 1.12877 18.1849 1.06649C18.1849 1.00422 18.3328 0.794032 18.5196 0.591631C18.8388 0.256893 18.8855 0.233539 19.2514 0.233539C19.5238 0.233539 19.7029 0.280246 19.843 0.389231C19.952 0.474862 20.0532 0.544924 20.0765 0.544924C20.0999 0.544924 20.3412 0.755109 20.6137 1.012C20.8862 1.26889 21.1275 1.47908 21.1508 1.47908C21.182 1.47908 21.4778 1.68926 21.8125 1.95394L22.4275 2.4288L22.7389 2.07849C22.9102 1.88388 23.2293 1.51022 23.4395 1.25332C23.6575 0.988647 23.9844 0.599416 24.1713 0.381447L24.5138 0H25.2455C26.0551 0 26.1174 0.0311385 26.5767 0.708401C27.2228 1.65034 27.7755 2.39766 27.939 2.55336L28.1336 2.7324L28.663 2.34317C28.9588 2.13299 29.3947 1.84496 29.6283 1.70483C29.8618 1.56471 30.2199 1.32339 30.4223 1.15991C30.7493 0.887447 30.8271 0.856309 31.2397 0.856309C31.6679 0.856309 31.7146 0.879663 31.987 1.15212C32.2673 1.44016 32.532 2.03957 33.1314 3.75997C33.2404 4.05579 33.3805 4.32825 33.4583 4.36717C33.5517 4.42167 33.7308 4.39053 34.0422 4.27376C34.2913 4.18813 34.6338 4.07136 34.8051 4.01687C34.9763 3.97016 35.1865 3.88453 35.2721 3.83782C35.3578 3.79111 35.568 3.72105 35.7392 3.68991C35.9105 3.65877 36.1596 3.58871 36.2997 3.52643C37.047 3.22283 37.7788 3.62764 37.8489 4.39831C37.8566 4.53065 37.8956 4.84204 37.9189 5.09893C37.9501 5.35582 37.9968 5.97081 38.0279 6.46124C38.0746 7.30976 38.0824 7.35647 38.2692 7.45767C38.4638 7.55887 38.8609 7.55109 39.7483 7.43432C39.9818 7.40318 40.5579 7.37204 41.025 7.37204L41.8813 7.37982L42.1382 7.66007C42.3795 7.92475 42.3951 7.96367 42.3951 8.53973C42.3951 8.87447 42.325 9.53617 42.2394 10.0032C41.9591 11.5602 41.9591 11.4045 42.2394 11.6614C42.4184 11.8326 42.5975 11.9027 42.8855 11.9338C43.1113 11.965 43.4693 12.0195 43.6795 12.0584C43.8975 12.1051 44.2478 12.1596 44.458 12.1907C45.2987 12.2919 45.8982 12.759 45.8982 13.3039C45.8982 13.5764 45.47 14.7441 45.291 14.962C45.2442 15.0165 45.1586 15.2034 45.0963 15.3746C45.0341 15.5459 44.9017 15.9118 44.8005 16.1842L44.6137 16.6747L44.8628 16.8849C45.0029 17.0016 45.3999 17.2118 45.7425 17.3519C46.085 17.4998 46.3652 17.6322 46.3652 17.6633C46.3652 17.6945 46.5988 17.819 46.8868 17.9436C47.1748 18.0681 47.5485 18.2939 47.7042 18.434C47.9611 18.6675 48 18.7454 48 19.049C48 19.4382 47.7976 19.8819 47.4706 20.2089C47.2371 20.4502 46.4664 21.3844 46.1006 21.8748C45.976 22.0383 45.8982 22.2251 45.9215 22.2874C45.9604 22.3964 47.2916 23.6108 47.7587 23.9611L48 24.1479V25.0665V25.9929L47.5718 26.312C47.3383 26.4833 47.1203 26.6234 47.0814 26.6234C47.0425 26.6234 46.9491 26.6935 46.8712 26.7791C46.7934 26.8647 46.6922 26.9348 46.6455 26.9348C46.5988 26.9348 46.5131 27.0049 46.4586 27.0983C46.4042 27.1839 46.2407 27.3085 46.0928 27.3707C45.579 27.5809 45.5089 28.0013 45.8826 28.554C45.9682 28.6708 46.2407 29.0834 46.4976 29.4648C46.7545 29.854 47.0581 30.3055 47.167 30.469C47.4239 30.8349 47.4473 31.302 47.2293 31.6523C47.0581 31.9403 46.5754 32.1816 45.0963 32.7343C44.5436 32.9445 44.0221 33.1703 43.9286 33.2403L43.7729 33.3727L43.9364 33.8709C44.0298 34.1434 44.2167 34.7194 44.349 35.1476C44.4891 35.5757 44.6293 35.965 44.6604 36.0039C44.7616 36.144 44.8239 36.5877 44.7694 36.8135C44.746 36.938 44.5981 37.1794 44.4424 37.3428C44.17 37.6309 44.1388 37.6387 43.4538 37.6932C43.0645 37.7321 42.3951 37.7866 41.9669 37.8177C41.5388 37.8566 41.0873 37.9267 40.9627 37.9734L40.7447 38.0668L40.7914 39.8417C40.8459 41.7256 40.8148 41.9669 40.4878 42.0214C40.4022 42.037 40.2932 42.107 40.2387 42.1693C40.122 42.3172 39.3357 42.2783 38.2692 42.0759C36.6189 41.7567 36.4476 41.8034 36.3698 42.543C36.3464 42.8154 36.2686 43.1346 36.2063 43.2592C36.144 43.3759 36.0895 43.6017 36.0895 43.7496C36.0895 44.1855 35.8093 45.1275 35.6147 45.3766C35.5135 45.5011 35.35 45.6413 35.2488 45.688C34.8596 45.8748 34.7039 45.8281 32.9368 44.9951C32.6799 44.8784 32.2595 44.6993 32.0104 44.5981L31.5511 44.4269L31.3643 44.6526C31.2708 44.7772 31.1852 44.9329 31.1852 45.0029C31.1852 45.073 31.1151 45.1897 31.0295 45.2676C30.9439 45.3454 30.8738 45.4389 30.8738 45.4778C30.8738 45.5478 30.6091 46.1706 30.469 46.4275C30.1421 47.0347 29.9864 47.2916 29.9241 47.3149C29.893 47.3305 29.8618 47.385 29.8618 47.4395C29.8618 47.7042 29.2858 47.9299 28.8654 47.8365C28.7408 47.8132 28.5384 47.6886 28.3983 47.5718C28.266 47.4473 28.0402 47.2682 27.9001 47.167C27.76 47.0658 27.4097 46.77 27.1216 46.5131C26.4522 45.9059 26.1641 45.6957 26.024 45.6957C25.9617 45.6957 25.806 45.8125 25.6893 45.9604C25.5647 46.1005 25.3078 46.4041 25.1132 46.6299C24.9186 46.8634 24.5761 47.2371 24.3503 47.4629L23.9455 47.8754H23.1048H22.2718L21.8437 47.3149ZM22.9413 34.626C23.276 34.5326 24.0467 33.9176 24.0701 33.7308C24.0856 33.6685 24.1557 33.5362 24.2413 33.4427C24.327 33.3571 24.5138 33.0535 24.6539 32.7733C24.794 32.493 24.9575 32.2206 25.012 32.1661C25.0665 32.1038 25.0976 32.0259 25.0743 31.987C25.0431 31.9481 25.0587 31.917 25.0976 31.917C25.1366 31.917 25.2066 31.8235 25.2611 31.7068C25.3156 31.5822 25.4791 31.2708 25.627 31.0062C25.7749 30.7337 25.8917 30.4924 25.8917 30.469C25.8839 30.4379 25.915 30.3912 25.9539 30.3678C26.0006 30.3445 26.1641 30.0798 26.3198 29.784C26.4755 29.4882 26.6623 29.1612 26.7324 29.0522C26.8025 28.9432 26.8647 28.8187 26.8725 28.772C26.8959 28.6396 27.4019 27.8378 27.5109 27.7678C27.5654 27.7288 27.5887 27.6743 27.5654 27.6276C27.5342 27.5887 27.5576 27.5576 27.6043 27.5576C27.651 27.5576 27.6666 27.5264 27.6432 27.4797C27.6199 27.4408 27.6354 27.4019 27.6743 27.4019C27.7211 27.4019 27.7522 27.3785 27.7444 27.3474C27.7288 27.3085 27.83 27.1294 27.9624 26.9348C28.0947 26.7402 28.2271 26.5144 28.2582 26.421C28.2815 26.3354 28.4139 26.1408 28.5384 26.0006C28.663 25.8605 28.7486 25.7204 28.7331 25.6893C28.7097 25.6503 28.8343 25.4557 29.0133 25.2533C29.1846 25.0431 29.4025 24.7318 29.4882 24.5605C29.5738 24.3892 29.7373 24.1557 29.8463 24.0389C29.9552 23.9144 30.0175 23.821 29.9864 23.821C29.9552 23.821 30.0409 23.673 30.1888 23.494C30.3289 23.315 30.4846 23.1048 30.5235 23.0347C30.687 22.7622 30.9205 22.4431 31.2008 22.1005C31.3643 21.9059 31.4732 21.7269 31.4577 21.7035C31.4343 21.688 31.6289 21.4233 31.8858 21.1275C32.1427 20.8317 32.3451 20.5514 32.3529 20.4969C32.3529 20.4424 32.423 20.3646 32.5164 20.3179C32.602 20.2634 32.6643 20.2089 32.6409 20.1933C32.6176 20.17 32.7499 19.9909 32.929 19.7963C33.1002 19.6017 33.2481 19.4149 33.2481 19.3759C33.2481 19.337 33.3883 19.158 33.5595 18.9789C33.7308 18.7921 34.05 18.434 34.2601 18.1771C34.4781 17.9202 34.7039 17.6711 34.7661 17.6166C34.8284 17.5621 34.8518 17.5154 34.8206 17.5154C34.7817 17.5154 34.8051 17.4687 34.8596 17.4064C35.6925 16.4956 36.3308 15.8184 37.3428 14.783C38.3081 13.7866 38.5339 13.5141 38.4716 13.4207C38.3938 13.3195 38.3393 13.3195 38.0357 13.4207C37.1327 13.7087 35.638 14.456 34.626 15.1177C34.3068 15.3201 34.0266 15.4914 33.9877 15.4914C33.9565 15.4914 33.6841 15.6782 33.396 15.904C33.1002 16.122 32.7655 16.3711 32.6487 16.4411C32.532 16.519 32.3529 16.6669 32.2439 16.7759C32.1349 16.8849 32.0104 16.9705 31.9637 16.9705C31.9247 16.9705 31.8858 17.0094 31.8858 17.0483C31.8858 17.095 31.8235 17.1573 31.7535 17.1807C31.5822 17.2507 31.4343 17.3753 30.866 17.928C30.6091 18.1693 30.3678 18.3717 30.3289 18.3717C30.2199 18.3717 26.6779 21.9371 26.5144 22.2017C26.4444 22.3185 26.1953 22.6221 25.9617 22.8712C25.7282 23.1281 25.4713 23.4317 25.3857 23.5563C25.3 23.6808 25.1288 23.891 25.0042 24.0156C24.8797 24.1479 24.7785 24.2569 24.7862 24.2725C24.794 24.2802 24.7162 24.3814 24.615 24.506C24.506 24.6228 24.327 24.8563 24.2102 25.0276C23.5718 25.9773 23.1281 26.5845 23.0736 26.6078C23.0347 26.6234 22.9413 26.7635 22.8634 26.9192C22.7778 27.0827 22.6377 27.2851 22.5443 27.3863C22.4586 27.4797 22.4119 27.5576 22.4431 27.5576C22.4742 27.5576 22.4275 27.6121 22.3419 27.6743C22.0616 27.8845 21.8982 27.8067 21.3766 27.1917C20.855 26.5845 18.9166 24.7006 18.6753 24.5761C18.5975 24.5371 18.4496 24.4204 18.3406 24.327C18.1148 24.1168 16.6435 23.1203 16.4723 23.0581C16.41 23.0347 16.2154 22.9179 16.0441 22.8012C15.0633 22.1473 12.074 20.8784 11.1398 20.7305C11.0152 20.7149 10.8518 20.676 10.7895 20.6526C10.7272 20.6293 10.6104 20.6137 10.5326 20.6215C10.4548 20.6293 10.3458 20.6059 10.2991 20.567C10.1278 20.4346 9.39604 20.3023 9.08466 20.3568C8.89783 20.3879 8.76549 20.3724 8.72657 20.3257C8.66429 20.2167 8.06487 20.2167 7.78463 20.3179C7.58223 20.3957 7.58223 20.4035 7.71456 20.5592C7.79241 20.6448 8.22835 20.9562 8.67986 21.252C9.13137 21.5478 9.78527 21.9993 10.1278 22.2407C10.4625 22.4898 10.7973 22.7311 10.8673 22.77C12.4476 23.7353 15.0944 25.8761 16.0753 26.9815C16.2621 27.1917 16.5112 27.4719 16.628 27.5965C17.1807 28.2115 18.5819 30.1654 19.446 31.5277C20.2556 32.8122 20.5514 33.2248 21.0808 33.8086C21.8904 34.6961 22.2251 34.844 22.9413 34.626Z" fill="#7C3AED"/>
</svg>
