<svg width="41" height="41" viewBox="0 0 41 41" fill="none" xmlns="http://www.w3.org/2000/svg">
<path d="M34.8883 22.1078C35.3053 18.3181 34.3764 14.8513 32.0809 11.8024C29.7644 8.7208 26.6679 6.82983 22.8616 6.21715C18.9414 5.58254 15.3293 6.42264 12.0712 8.708C11.6555 8.99922 11.2753 9.33989 10.8758 9.65801C10.796 9.72195 10.7112 9.78013 10.6292 9.84091L9.37666 11.1545C9.05877 11.5975 8.72237 12.027 8.42352 12.4829C6.56972 15.2985 5.78949 18.3959 6.06778 21.7502C6.30962 24.655 7.35781 27.2502 9.16162 29.5408C9.38179 29.8207 9.61248 30.093 9.83681 30.3675L11.1508 31.6205C11.594 31.9385 12.0236 32.2751 12.4796 32.5741C15.2797 34.4196 18.3609 35.204 21.6978 34.9386C24.6246 34.7064 27.2596 33.6796 29.5427 31.8335C32.6397 29.3246 34.452 26.0734 34.8883 22.1078ZM24.4861 26.7985L20.5702 23.0645L16.8245 26.9926L14.1965 24.4866L17.9307 20.5705L14.005 16.8271L16.5101 14.2L20.426 17.934L24.167 14.0108L26.795 16.5169L23.0634 20.4302L26.9913 24.1757L24.4861 26.7985Z" fill="#DF5A43"/>
</svg>
