<svg xmlns="http://www.w3.org/2000/svg" width="24.667" height="30" viewBox="0 0 24.667 30">
  <g id="Group_310" data-name="Group 310" transform="translate(3208.832 -2253.953)">
    <path id="Path_361" data-name="Path 361" d="M368.311,254.8c.367-1.027,1.149-3.416.9-4.508a1.526,1.526,0,0,0-.715-.937,1.067,1.067,0,0,0-.332-.112V240.8H357.5v10.667l3.873-.008a7.747,7.747,0,0,0,1.1,2.023l1.012,1.318h-.99v3.333h7V254.8Zm-10.145-13.333H367.5v7.4a1.224,1.224,0,0,0-.126-.05,1.307,1.307,0,0,0-.917.044,1.355,1.355,0,0,0-.916-.265l-.028,0c-.005-.28-.009-.669-.013-1.1a2.526,2.526,0,1,0-2.358-.011v1.867l-.4-.782a1.107,1.107,0,0,0-2.039.841l.44,1.374-2.978.006Zm4.975,3.961V246.7a1.865,1.865,0,1,1,2.353.024c0-.457-.005-.913-.006-1.3a1.173,1.173,0,0,0-2.347,0Zm-.135,7.649a7.091,7.091,0,0,1-1.118-2.143l-.55-1.718a.44.44,0,0,1,.81-.334l.934,1.829a.384.384,0,0,0,.726-.174v-5.109a.507.507,0,1,1,1.013,0c.012,3.893.012,3.893.273,3.978a.3.3,0,0,0,.352-.1s.317-.2.758.2a.332.332,0,0,0,.443.007.581.581,0,0,1,.526-.067.385.385,0,0,1,.278.234.333.333,0,0,0,.441.229.331.331,0,0,1,.29.024.863.863,0,0,1,.38.5c.2.9-.563,3.277-.962,4.362h-3.271Zm5.826,4.39h-5.667v-2h5.667Z" transform="translate(-3553.665 2025.82)" fill="#fff"/>
    <path id="Path_362" data-name="Path 362" d="M144.7,38.667h10.667V28H144.7Zm.667-10H154.7V38h-9.333Z" transform="translate(-3353.531 2225.953)" fill="#fff"/>
    <path id="Path_363" data-name="Path 363" d="M368.167,28H357.5V38.667h10.667ZM367.5,38h-9.333V28.667H367.5Z" transform="translate(-3553.665 2225.953)" fill="#fff"/>
    <path id="Path_364" data-name="Path 364" d="M144.7,251.467h10.667V240.8H144.7Zm.667-10H154.7V250.8h-9.333Z" transform="translate(-3353.531 2025.82)" fill="#fff"/>
  </g>
</svg>
