<svg xmlns="http://www.w3.org/2000/svg" width="49.333" height="60" viewBox="0 0 49.333 60">
  <g id="Group_297" data-name="Group 297" transform="translate(3208.832 -2253.953)">
    <path id="Path_361" data-name="Path 361" d="M379.123,268.8c.734-2.054,2.3-6.833,1.806-9.017a3.053,3.053,0,0,0-1.431-1.875,2.133,2.133,0,0,0-.665-.225V240.8H357.5v21.335l7.746-.017a15.5,15.5,0,0,0,2.21,4.045l2.025,2.637H367.5v6.667h14V268.8Zm-20.289-26.667H377.5v14.8a2.447,2.447,0,0,0-.252-.1,2.614,2.614,0,0,0-1.834.089,2.71,2.71,0,0,0-1.833-.529l-.056.007c-.01-.561-.018-1.339-.025-2.194a5.052,5.052,0,1,0-4.716-.023v3.734l-.8-1.565a2.213,2.213,0,0,0-4.078,1.682l.881,2.749-5.955.013Zm9.951,7.922V252.6a3.73,3.73,0,1,1,4.705.048c-.005-.914-.01-1.826-.012-2.593a2.347,2.347,0,0,0-4.693,0Zm-.269,15.3a14.181,14.181,0,0,1-2.236-4.285l-1.1-3.437a.88.88,0,0,1,1.621-.669l1.868,3.659a.768.768,0,0,0,1.452-.349V250.055a1.013,1.013,0,1,1,2.027,0c.025,7.786.025,7.786.547,7.957a.593.593,0,0,0,.7-.194c.006,0,.633-.4,1.516.409a.664.664,0,0,0,.887.014,1.161,1.161,0,0,1,1.052-.135.769.769,0,0,1,.555.468.667.667,0,0,0,.883.458.662.662,0,0,1,.581.049,1.726,1.726,0,0,1,.761.993c.4,1.793-1.127,6.555-1.924,8.724h-6.542Zm11.652,8.781H368.833v-4h11.333Z" transform="translate(-3540.998 2038.487)" fill="#f7c951"/>
    <path id="Path_362" data-name="Path 362" d="M144.7,49.333h21.333V28H144.7Zm1.333-20H164.7V48H146.033Z" transform="translate(-3353.531 2225.953)" fill="#f7c951"/>
    <path id="Path_363" data-name="Path 363" d="M378.833,28H357.5V49.333h21.333ZM377.5,48H358.833V29.333H377.5Z" transform="translate(-3540.998 2225.953)" fill="#f7c951"/>
    <path id="Path_364" data-name="Path 364" d="M144.7,262.133h21.333V240.8H144.7Zm1.333-20H164.7V260.8H146.033Z" transform="translate(-3353.531 2038.486)" fill="#f7c951"/>
  </g>
</svg>
