<svg xmlns="http://www.w3.org/2000/svg" viewBox="0 0 246.61 45.87"><defs><style>.cls-1{font-size:38.76px;font-family:Inter-ExtraBold, Inter;font-weight:800;}.cls-2{letter-spacing:0.01em;}.cls-3{fill:#f7c951;}.cls-4{fill:#083dc1;}</style></defs><g id="Layer_2" data-name="Layer 2"><g id="Layer_1-2" data-name="Layer 1"><text class="cls-1" transform="translate(52.81 33.48)">un<tspan class="cls-2" x="49.23" y="0">t</tspan><tspan x="65.04" y="0">hink.ai</tspan></text><path class="cls-3" d="M1,19.22,24.59,4.93a2,2,0,0,1,3,1.68l.55,27.6a2,2,0,0,1-3,1.79L1,22.68A2,2,0,0,1,1,19.22Z"/><path class="cls-4" d="M19.52,19.22,43.15,4.93a2,2,0,0,1,3,1.68l.56,27.6a2,2,0,0,1-3,1.79L19.59,22.68A2,2,0,0,1,19.52,19.22Z"/><circle class="cls-3" cx="36.01" cy="38.75" r="3.1"/><circle class="cls-4" cx="16.53" cy="38.75" r="3.1"/></g></g></svg>