<svg xmlns="http://www.w3.org/2000/svg" width="54.736" height="60" viewBox="0 0 54.736 60">
  <g id="Group_296" data-name="Group 296" transform="translate(-533.588 -3887)">
    <path id="Path_373" data-name="Path 373" d="M120.142,6.372a2.723,2.723,0,0,0-.745-1.863c-1.124-1.181-3.379-3.183-5.753-3.259-3.158-.108-6.044,1.351-7,3.549a5.153,5.153,0,0,0,.429,4.629,4.093,4.093,0,0,0-4.017.537,6.327,6.327,0,0,0-1.629,7.06c.108.215.221.442.341.676a4.42,4.42,0,0,0-3.789,2.526,5.683,5.683,0,0,0-.455,4.572c-2.343,1.351-3.158,4.332-1.857,7.3a5.2,5.2,0,0,0,2.223,2.482,2.919,2.919,0,0,0-1.32.758,7.5,7.5,0,0,0-1.977,6.075A7.282,7.282,0,0,0,97.439,46.7a2.07,2.07,0,0,0,1.781.208,4.322,4.322,0,0,0-.5,3.158c.5,1.951,2.652,3.574,6.58,4.957,1.478,5.311,5.545,6.031,7.25,6.088h.632c2.88-.108,5.52-1.617,6.163-3.612.36-1.13.581-6.353.7-13.1h0a.653.653,0,0,0,0-.146c.24-13.387.126-32.624.095-37.884Zm-2.084,50.7c-.366,1.13-1.989,2.286-4.067,2.6.322-2,.531-5.842.177-7.067-.429-1.5-2.816-3.549-3.088-3.789h0a.67.67,0,1,0-.865,1.023,10.268,10.268,0,0,1,2.665,3.12,26.5,26.5,0,0,1-.259,6.782c-4.326-.152-5.684-3.846-6.088-5.425a.669.669,0,0,0-.436-.474c-3.631-1.263-5.684-2.627-6.056-4.136-.442-1.737,1.333-3.676,2.9-5.387.493-.543.96-1.048,1.358-1.547h0a.672.672,0,1,0-1.048-.84c-.17.215-.347.423-.531.631V42.6c-1.692,1.895-3.745,3.467-4.484,2.975a5.848,5.848,0,0,1-2.305-4.3,6.171,6.171,0,0,1,1.6-5c.632-.631,1.825-.631,3.682-.6h.821a.669.669,0,0,0,.379-1.225,2.052,2.052,0,0,0-.947-.234c-1.263-.145-3.581-.417-4.566-2.665-.859-1.958-.676-4.421,1.2-5.564h0a7.763,7.763,0,0,0,2.728,2.526.67.67,0,1,0,.67-1.112c-3.335-1.964-3.353-4.749-2.356-6.536.726-1.307,2.154-2.267,3.48-1.6,1.895,3.239,4.553,7,6.4,7.818a.632.632,0,0,0-.341.316,30.579,30.579,0,0,0-1.895,4.686.669.669,0,0,0,.549.77h.113a.669.669,0,0,0,.632-.562,28.12,28.12,0,0,1,1.762-4.32.633.633,0,0,0,0-.631,6.572,6.572,0,0,0,4.1-.3.671.671,0,0,0-.562-1.219,5.1,5.1,0,0,1-3.852,0c-1.73-.77-5.052-5.583-6.947-9.422a5.06,5.06,0,0,1,1.263-5.406c1.692-1.314,3.909,0,5.469,1.345h0a.67.67,0,1,0,.909-.985c-2.286-2.3-3.114-4.421-2.393-6.056s3.158-2.829,5.728-2.741c1.983.063,4.035,2.015,4.825,2.848h0a1.383,1.383,0,0,1,.372.947c0,4.231.051,9.214.057,14.368a7.106,7.106,0,0,0-2.336-1.522,10.939,10.939,0,0,0-3.789-.834.669.669,0,0,0,0,1.339c1.351,0,5.273.8,5.981,3.36h0a.635.635,0,0,0,.114.221c0,3.556,0,7.142-.038,10.6-1.086.3-4.13-.511-4.774-.871h0a.669.669,0,0,0-.632,1.175,13.974,13.974,0,0,0,4.755,1.1,4.721,4.721,0,0,0,.67-.051c0,3-.057,5.873-.1,8.494-1.307.24-4.629.455-6.214-.379h-.057c-1.585-.631-3.316-3.789-3.833-5.343h0a.669.669,0,0,0-1.263.423c.511,1.541,2.374,5.216,4.566,6.145h0a9.586,9.586,0,0,0,4.155.752,18.409,18.409,0,0,0,2.684-.2c-.158,6.353-.335,10.994-.644,11.949Z" transform="translate(439.055 3885.888)" fill="#f7c951"/>
    <path id="Path_374" data-name="Path 374" d="M453.915,76.738a1.719,1.719,0,1,0-1.522,3.082v5.93a1.724,1.724,0,1,0,1.339-.082V79.9a1.686,1.686,0,0,0,1.061-2.135l3.341-2.924h0a1.655,1.655,0,0,0,1.15.145l3.644,4.263a1.762,1.762,0,1,0,1.017-.871l-3.568-4.187a1.73,1.73,0,1,0-3.107-.385Z" transform="translate(120.401 3823.125)" fill="#f7c951"/>
    <path id="Path_375" data-name="Path 375" d="M420.071,310.332l-1.667-2.115a1.762,1.762,0,1,0-1.124.739l2.141,2.716h4.206v2.438a1.724,1.724,0,1,0,1.339,0V311.67h2.614l5.722,4.162-1.932,4.654h-6.454a1.724,1.724,0,1,0-.082,1.339h7.439l2.671-6.461L428,310.313Z" transform="translate(152.755 3614.262)" fill="#f7c951"/>
    <path id="Path_376" data-name="Path 376" d="M496.976,168.355a1.691,1.691,0,0,0,0-.2,1.743,1.743,0,1,0-.682,1.37l7.2,3.372v2.343l-5.456-.038L494.98,178.4a1.716,1.716,0,1,0,1.067.859l2.589-2.709,4.888.031v4.838l-1.756,1.895h0a1.762,1.762,0,1,0,.891,1.01l2.2-2.349v-9.927Z" transform="translate(83.46 3738.424)" fill="#f7c951"/>
    <path id="Path_377" data-name="Path 377" d="M367.249,312.08a1.724,1.724,0,0,0-1.433,2.677l-3.221,4.421h-4.749V313.1a1.724,1.724,0,1,0-1.339,0v6.075h-1.819L350,314.221l.088-9.365h3.341a1.724,1.724,0,1,0,0-1.339H350.1l.076-8.279a1.724,1.724,0,1,0-1.345.076l-.183,19.438,5.463,5.772h9.164l3.656-5.014h0a1.724,1.724,0,1,0,.309-3.417Z" transform="translate(213.016 3626.312)" fill="#f7c951"/>
    <path id="Path_378" data-name="Path 378" d="M348.828,5.223V28.59h6.625a1.724,1.724,0,1,0,.082-1.339h-5.362v-8.21H354.2a1.724,1.724,0,1,0-.089-1.352h-3.934V5.3a1.719,1.719,0,0,0,1.15-1.617V3.6l5.684-1.989L359.779,5.6a1.7,1.7,0,0,0,0,.2,1.717,1.717,0,0,0,.133.631l-3.158,3.158h0a1.706,1.706,0,0,0-.789-.2,1.753,1.753,0,1,0,1.655,1.263l3.511-3.233h0a1.724,1.724,0,1,0-.587-3.069L357.524.007l-6.8,2.381a1.718,1.718,0,1,0-1.895,2.836Z" transform="translate(212.845 3886.993)" fill="#f7c951"/>
  </g>
</svg>
