<svg xmlns="http://www.w3.org/2000/svg" width="30.05" height="30" viewBox="0 0 30.05 30">
  <g id="Group_311" data-name="Group 311" transform="translate(2092.839 -3887)">
    <path id="Path_365" data-name="Path 365" d="M186.75,176.439h20.618a3.04,3.04,0,0,0,2.165-.876,2.886,2.886,0,0,0,.928-2.165V162.573a.464.464,0,0,0-.516-.516.516.516,0,0,0-.516.515V173.4a2.01,2.01,0,0,1-2.062,2.01H186.75a2.01,2.01,0,0,1-1.443-.618,1.855,1.855,0,0,1-.619-1.443V152.779a2.027,2.027,0,0,1,2.113-2.062h10.773a.516.516,0,0,0,.516-.516.464.464,0,0,0-.516-.516H186.8a3.246,3.246,0,0,0-2.216.876,3.092,3.092,0,0,0-.876,2.216v20.566a3.093,3.093,0,0,0,.928,2.165,2.885,2.885,0,0,0,2.113.928Z" transform="translate(-2276.547 3740.561)" fill="#fff"/>
    <path id="Path_366" data-name="Path 366" d="M336.016,125.205a.567.567,0,0,0,.515-.515V114.226c0-.1-.051-.155-.051-.206l-.1-.155-.155-.155H325.5a.516.516,0,0,0-.516.516.567.567,0,0,0,.516.516h9.278L318.8,130.669h0a.516.516,0,0,0,0,.722.466.466,0,0,0,.361.155.568.568,0,0,0,.361-.155L335.5,115.463v9.227a.516.516,0,0,0,.516.516Z" transform="translate(-2399.32 3773.29)" fill="#fff"/>
  </g>
</svg>
