<svg width="554" height="320" viewBox="0 0 554 320" fill="none" xmlns="http://www.w3.org/2000/svg">
<g filter="url(#filter0_b_2772_10282)">
<rect width="553.586" height="320" rx="32" fill="url(#paint0_linear_2772_10282)" fill-opacity="0.7"/>
<rect x="1.75997" y="1.75997" width="550.067" height="316.48" rx="30.24" stroke="url(#paint1_radial_2772_10282)" stroke-width="3.51994"/>
<rect x="1.75997" y="1.75997" width="550.067" height="316.48" rx="30.24" stroke="url(#paint2_radial_2772_10282)" stroke-opacity="0.7" stroke-width="3.51994"/>
<rect x="1.75997" y="1.75997" width="550.067" height="316.48" rx="30.24" stroke="url(#paint3_radial_2772_10282)" stroke-width="3.51994"/>
<rect x="1.75997" y="1.75997" width="550.067" height="316.48" rx="30.24" stroke="url(#paint4_radial_2772_10282)" stroke-opacity="0.7" stroke-width="3.51994"/>
<rect x="1.75997" y="1.75997" width="550.067" height="316.48" rx="30.24" stroke="url(#paint5_radial_2772_10282)" stroke-width="3.51994"/>
</g>
<g style="mix-blend-mode:soft-light">
<path d="M133.757 81.5385C133.598 81.0059 133.598 65.2781 133.74 64.5503L133.864 64H138.799C141.639 64 143.751 64.071 143.751 64.1598C143.751 64.2485 144.16 64.3728 144.639 64.4438C145.136 64.5148 145.527 64.6391 145.527 64.7278C145.527 64.8166 145.633 64.8876 145.775 64.8876C146.095 64.8876 147.657 66.432 147.657 66.7515C147.657 66.8935 147.746 67.0178 147.834 67.0178C147.941 67.0178 148.012 67.1775 148.012 67.355C148.012 67.5503 148.136 67.8166 148.278 67.9763C148.491 68.1716 148.544 68.7041 148.544 70.284C148.544 71.9882 148.491 72.3432 148.278 72.3432C148.118 72.3432 148.012 72.503 148.012 72.787C148.012 73.071 147.746 73.5325 147.355 73.9763C146.645 74.7396 146.592 74.7929 145.899 75.3609C145.527 75.6805 145.509 75.7337 145.722 76.2485C145.864 76.5325 146.024 76.7811 146.095 76.7811C146.237 76.7811 146.947 78.2367 146.947 78.5207C146.947 78.645 147.035 78.7337 147.142 78.7337C147.231 78.7337 147.408 78.9822 147.497 79.2663C147.604 79.568 147.763 79.7988 147.852 79.7988C147.941 79.7988 148.012 80.2426 148.012 80.7929V81.787L147.035 81.716C146.503 81.6627 146.059 81.6982 146.059 81.787C146.059 81.858 145.775 81.929 145.438 81.929C144.692 81.929 144.32 81.5917 143.734 80.4024C143.503 79.9231 143.201 79.4615 143.095 79.3905C142.97 79.3195 142.864 79.142 142.864 79C142.864 78.8757 142.704 78.574 142.509 78.3432C142.314 78.1302 141.976 77.5799 141.746 77.1361L141.355 76.3373L139.367 76.284L137.361 76.2308V78.7692C137.361 80.1716 137.29 81.4142 137.201 81.5385C137.112 81.6805 136.722 81.7692 136.189 81.7692C135.71 81.7515 135 81.8047 134.592 81.858C133.935 81.9467 133.846 81.9112 133.757 81.5385ZM143.538 72.1834C143.751 72.0059 143.929 71.7751 143.929 71.6509C143.929 71.5444 144.053 71.4556 144.195 71.4556C144.337 71.4556 144.462 71.3314 144.462 71.1893C144.462 71.0296 144.586 70.8698 144.728 70.8166C145.03 70.6923 145.101 69.503 144.817 69.503C144.728 69.503 144.639 69.3964 144.639 69.2722C144.639 68.9172 143.734 68.1183 143.183 67.9941C142.899 67.9231 142.686 67.7988 142.686 67.7101C142.686 67.6213 141.497 67.5503 140.024 67.5503H137.361V70.0355V72.5207H140.254C142.846 72.5207 143.201 72.4852 143.538 72.1834Z" fill="white" fill-opacity="0.6"/>
<path d="M36.3195 81.503C36.0178 81.2899 36 80.6686 36 73.1065C36 65.1006 36 64.9231 36.3728 64.4615L36.7278 64H42.213C45.2308 64 47.8047 64.0533 47.9645 64.1065C48.1953 64.1953 48.2485 64.5325 48.2485 65.8817V67.5503H44.3077C41.2899 67.568 40.2781 67.6213 40.0473 67.7988C39.7633 67.9941 39.7278 68.3491 39.7278 70.284V72.5207H43.9882H48.2663L48.213 74.3491L48.1598 76.1598L43.9527 76.213L39.7456 76.2485L39.6923 78.9645L39.6391 81.6627L38.1302 81.6982C37.1006 81.7337 36.5148 81.6627 36.3195 81.503Z" fill="white" fill-opacity="0.6"/>
<path d="M73.4023 81.645C73.2425 81.4852 73.2425 64.6746 73.3845 64.284C73.4733 64.0355 74.0946 64 78.4437 64C81.1597 64 83.3964 64.071 83.3964 64.1598C83.3964 64.2485 83.8047 64.355 84.2839 64.426C84.781 64.497 85.1715 64.6213 85.1715 64.7101C85.1715 64.8166 85.278 64.8876 85.4023 64.8876C85.7928 64.8876 87.4615 66.6095 87.5857 67.142C87.6567 67.4083 87.8342 67.7456 87.9585 67.8876C88.1538 68.0828 88.207 68.6154 88.1538 70.3373C88.1183 71.5621 88.0118 72.5917 87.923 72.6627C87.8165 72.7337 87.639 72.9822 87.5147 73.2308C87.1597 73.9763 86.8757 74.3669 86.5206 74.6331C86.3254 74.7751 86.0236 75.0414 85.8461 75.2189C85.6686 75.3965 85.3845 75.5385 85.2248 75.5385C85.0118 75.5385 84.9763 75.5917 85.1183 75.6805C85.2248 75.7515 85.42 76.0178 85.5266 76.2485C85.6153 76.497 85.8638 76.9408 86.0591 77.2249C86.2366 77.5266 86.6094 78.1657 86.8579 78.645C87.1064 79.142 87.426 79.7278 87.568 79.9763C87.71 80.2249 87.8342 80.7219 87.8342 81.0769V81.7337H85.9703C84.5325 81.7337 84.1064 81.6805 84.1064 81.503C84.1064 81.3609 83.9822 81.1657 83.8402 81.0414C83.6981 80.9172 83.3964 80.4556 83.1834 79.9941C82.9526 79.5503 82.7041 79.1243 82.6331 79.071C82.4378 78.929 81.9763 78.0237 81.9763 77.7751C81.9763 77.6686 81.8165 77.4379 81.6212 77.2604C81.426 77.1006 81.2662 76.7988 81.2662 76.6036C81.2662 76.2663 81.1597 76.2485 79.136 76.2485C77.9644 76.2485 76.9881 76.2663 76.9703 76.3018C76.9703 76.3195 76.8993 77.5444 76.8461 79L76.7396 81.6627L75.1419 81.716C74.2544 81.7337 73.4733 81.716 73.4023 81.645ZM83.3609 72.1657C83.6626 71.9704 83.9289 71.6864 83.9289 71.5444C83.9289 71.4024 84.0354 71.2781 84.1774 71.2781C84.3017 71.2781 84.4615 71.0296 84.5147 70.6923C84.6212 70 84.4792 69.1479 84.2662 69.1479C84.1774 69.1479 84.1064 69.0592 84.1064 68.9527C84.1064 68.6686 83.3786 68.1183 82.8283 67.9941C82.5443 67.9231 82.3313 67.7988 82.3313 67.7101C82.3313 67.6213 81.1774 67.5503 79.6863 67.5503H77.0413L76.9526 68.0296C76.8993 68.2959 76.8993 69.4142 76.9526 70.5148L77.0591 72.5207H79.9171C82.4555 72.5207 82.8461 72.4852 83.3609 72.1657Z" fill="white" fill-opacity="0.6"/>
<path d="M91.7396 81.0059C91.7396 80.3846 92.2189 79.2663 92.503 79.2663C92.574 79.2663 92.6272 79.1775 92.6272 79.071C92.6272 78.9645 92.858 78.574 93.1243 78.2189C93.4083 77.8639 93.6923 77.4379 93.7456 77.2781C93.8166 77.1006 93.9408 76.9586 94.0473 76.9586C94.1361 76.9586 94.2249 76.7988 94.2249 76.6036C94.2249 76.4083 94.3491 76.2485 94.4911 76.2485C94.6331 76.2485 94.7574 76.1598 94.7574 76.0533C94.7574 75.929 95.0414 75.4497 95.3787 74.9882C95.716 74.5089 96 74.0473 96 73.9586C96 73.8876 96.1775 73.6213 96.4083 73.3728C97.0118 72.6982 97.5976 71.8462 97.5976 71.6331C97.5976 71.5444 97.6686 71.4556 97.7574 71.4556C97.8462 71.4556 98.0059 71.2249 98.1124 70.9231C98.2012 70.6391 98.3609 70.3905 98.432 70.3905C98.5207 70.3905 98.7337 70.1243 98.929 69.8225C99.1065 69.503 99.355 69.1657 99.497 69.0947C99.6213 69.0237 99.7278 68.8284 99.7278 68.7041C99.7278 68.5621 99.9053 68.2604 100.136 68.0473L100.527 67.6391L95.9112 67.5503C93.3728 67.497 91.2781 67.426 91.2604 67.4083C91.0828 67.284 91.2426 64.3905 91.4201 64.213C91.5799 64.0533 93.497 64 98.9645 64H106.296V64.6036C106.296 65.2959 105.976 66.3077 105.746 66.3077C105.675 66.3077 105.373 66.6805 105.107 67.1598C104.84 67.6213 104.556 68.0296 104.485 68.0473C104.414 68.0828 104.343 68.2249 104.343 68.3669C104.343 68.5089 104.254 68.6154 104.166 68.6154C104.059 68.6154 103.882 68.8284 103.757 69.1124C103.651 69.3787 103.367 69.787 103.154 70.0355C102.923 70.284 102.746 70.568 102.746 70.6746C102.746 70.7811 102.515 71.1538 102.213 71.4734C101.929 71.8107 101.627 72.2367 101.574 72.4142C101.503 72.6095 101.272 72.9645 101.041 73.213C100.811 73.4615 100.615 73.7633 100.615 73.8698C100.615 73.9763 100.42 74.2959 100.172 74.5799C99.9231 74.8639 99.3905 75.574 99.0178 76.1598C97.9882 77.7219 97.8817 77.8639 97.6331 78.1302C97.4379 78.3432 98.0947 78.3787 102.036 78.3787H106.669L106.615 79.9941L106.562 81.6095L99.1598 81.645L91.7396 81.6627V81.0059Z" fill="white" fill-opacity="0.6"/>
<path d="M109.899 81.6272L109.491 81.5562V72.9822C109.491 66.574 109.544 64.3728 109.704 64.213C109.828 64.0888 110.485 64 111.39 64H112.846L112.953 64.5858C113.006 64.8876 113.024 68.8639 113.006 73.4083L112.953 81.6627L111.621 81.6805C110.893 81.6982 110.112 81.6805 109.899 81.6272Z" fill="white" fill-opacity="0.6"/>
<path d="M117.479 72.9467C117.479 65.1538 117.515 64.1953 117.763 64.1065C118.118 63.9645 128.556 63.9645 128.911 64.1065C129.142 64.1953 129.195 64.5325 129.195 65.8817V67.5503H125.219H121.243L121.03 68.0828C120.888 68.4379 120.834 69.0059 120.905 69.6627C121.101 71.4201 120.71 71.2781 125.219 71.2781H129.195V72.9467V74.6331L126.408 74.5266C124.864 74.4734 123.071 74.4734 122.432 74.5444C121.402 74.6509 121.225 74.7396 121.047 75.1124C120.799 75.6627 120.781 77.8462 121.03 77.8462C121.136 77.8462 121.207 77.9704 121.207 78.1124C121.207 78.3432 121.775 78.3787 125.201 78.3787H129.195V80.0296V81.6627H123.337H117.479V72.9467Z" fill="white" fill-opacity="0.6"/>
<path d="M152.627 73.0178V64.213L153.035 64.1065C153.675 63.9467 155.29 63.9823 155.663 64.1775C155.982 64.355 156 64.6391 156 72.9645V81.574H155.521C155.237 81.574 154.491 81.6272 153.834 81.6982L152.627 81.8047V73.0178Z" fill="white" fill-opacity="0.6"/>
<path d="M56.9113 81.3432C56.787 81.2012 56.4497 81.0414 56.1835 80.9704C55.9172 80.9172 55.7042 80.7752 55.7042 80.6864C55.7042 80.5799 55.5977 80.5089 55.4556 80.5089C55.1006 80.5089 52.8817 78.219 52.7574 77.7219C52.7042 77.5089 52.5444 77.2959 52.4024 77.2426C52.2604 77.1894 52.1539 76.9053 52.1539 76.5326C52.1539 76.1953 52.0474 75.8935 51.9409 75.858C51.7633 75.787 51.7101 75.0414 51.7101 72.8758C51.7101 70.7101 51.7633 69.9645 51.9409 69.8935C52.0474 69.858 52.1539 69.6805 52.1539 69.4852C52.1539 69.0769 52.6332 68.1716 53.219 67.4793C53.8225 66.7515 54.6923 65.9527 54.8521 65.9527C54.9409 65.9527 54.9941 65.8284 54.9941 65.6864C54.9941 65.5444 55.1539 65.4201 55.3491 65.4201C55.5444 65.4201 55.7042 65.3491 55.7042 65.2426C55.7042 65.1539 55.9172 65.0119 56.2012 64.9586C56.4675 64.8876 56.716 64.7633 56.7693 64.6923C56.929 64.4438 59.1125 64.1065 60.4083 64.1243C61.8107 64.142 64.0474 64.5148 64.0474 64.7456C64.0474 64.8166 64.1539 64.8876 64.2959 64.8876C64.4201 64.8876 64.7397 65.0474 64.9882 65.2426C65.2367 65.4379 65.5207 65.5976 65.6272 65.5976C65.8935 65.5976 67.7752 67.5858 67.7752 67.8521C67.7752 67.9763 67.8462 68.0829 67.9527 68.0829C68.1835 68.0829 68.8403 69.5562 68.8403 70.1065C68.8403 70.355 68.929 70.6036 69.0178 70.6568C69.1243 70.7278 69.1953 71.7574 69.1953 73.1598C69.1953 74.6332 69.1243 75.5385 69.0178 75.5385C68.929 75.5385 68.8403 75.7337 68.8403 76C68.8403 76.4438 68.2545 77.6864 67.8284 78.1657C67.7042 78.29 67.5977 78.4852 67.5977 78.574C67.5977 78.6627 67.4734 78.7337 67.3314 78.7337C67.1894 78.7337 67.0651 78.8225 67.0651 78.9113C67.0651 79.142 66.4083 79.7988 66.1775 79.7988C66.0888 79.7988 66 79.9231 66 80.0651C66 80.2071 65.8935 80.3314 65.7515 80.3314C65.6095 80.3314 65.3787 80.4556 65.2367 80.5977C65.0947 80.7397 64.5622 81.0237 64.0651 81.219C63.2663 81.5207 62.7338 81.574 60.142 81.574C57.8876 81.574 57.0888 81.5207 56.9113 81.3432ZM61.1006 78.219C61.1539 78.1302 61.4911 78.0059 61.8284 77.9527C62.1657 77.8817 62.4497 77.7574 62.4497 77.6687C62.4497 77.5621 62.5562 77.4911 62.6982 77.4911C62.8403 77.4911 63.2485 77.2071 63.5858 76.8698C63.9409 76.5326 64.3136 76.2485 64.4024 76.2485C64.5089 76.2485 64.5799 76.142 64.5799 76C64.5799 75.8758 64.7042 75.6627 64.8462 75.5385C64.9882 75.4142 65.1124 75.1657 65.1124 74.9882C65.1124 74.8284 65.2367 74.5621 65.3787 74.4024C65.6805 74.1184 65.7693 71.6332 65.4852 71.6332C65.3965 71.6332 65.2722 71.4024 65.2012 71.1006C65.1302 70.7988 65.0059 70.5681 64.9172 70.5681C64.8284 70.5681 64.7574 70.4793 64.7574 70.355C64.7574 70.0178 63.1243 68.4379 62.7693 68.4379C62.5917 68.4379 62.4497 68.3669 62.4497 68.2781C62.4497 68.1716 62.0947 68.0474 61.6509 67.9763C61.2071 67.9231 60.8521 67.7988 60.8521 67.7101C60.8521 67.6213 60.7278 67.5503 60.5858 67.5503C60.4438 67.5503 60.3196 67.6213 60.3196 67.7101C60.3196 67.7811 59.8758 67.9053 59.3255 67.9763C58.7929 68.0296 58.2426 68.1716 58.1361 68.2604C57.3551 68.8817 56.9468 69.3077 56.9468 69.4852C56.9468 69.5917 56.858 69.6805 56.7693 69.6805C56.4675 69.6805 55.7042 70.5858 55.7042 70.9408C55.7042 71.1361 55.6332 71.2781 55.5444 71.2781C55.3136 71.2781 55.1716 72.6805 55.2959 73.8166C55.3669 74.4911 55.4734 74.8284 55.6332 74.8284C55.7752 74.8284 55.8817 74.9527 55.8817 75.1124C55.8817 75.4852 56.8048 76.7811 57.0888 76.7811C57.1953 76.7811 57.3018 76.8698 57.3018 76.9586C57.3018 77.0651 57.4971 77.2249 57.7456 77.3136C57.9941 77.4024 58.1894 77.5621 58.1894 77.6509C58.1894 77.7397 58.5089 77.8639 58.8994 77.9349C59.29 78.0059 59.6095 78.1302 59.6095 78.219C59.6095 78.432 60.9764 78.432 61.1006 78.219Z" fill="white" fill-opacity="0.6"/>
</g>
<g style="mix-blend-mode:soft-light" clip-path="url(#clip0_2772_10282)">
<path d="M235.084 196.91C234.879 196.884 234.481 196.807 234.224 196.743L233.736 196.602V195.138C233.736 194.33 233.775 193.662 233.839 193.662C233.89 193.662 234.211 193.752 234.558 193.855C236.124 194.33 237.459 193.855 238.281 192.507C238.718 191.813 239.937 188.566 239.86 188.309C239.834 188.18 238.088 183.777 235.983 178.513C233.89 173.25 232.068 168.68 231.926 168.333L231.682 167.717L233.57 167.755L235.457 167.794L238.499 176.331C240.168 181.03 241.58 184.868 241.632 184.868C241.683 184.868 243.044 181.03 244.649 176.331L247.576 167.794L249.334 167.755C250.721 167.73 251.08 167.755 251.029 167.884C251.003 167.974 248.936 173.366 246.459 179.861C243.968 186.357 241.593 192.378 241.182 193.226C240.335 194.984 239.59 195.857 238.525 196.409C237.601 196.872 236.317 197.064 235.084 196.91Z" fill="white"/>
<path d="M93.9967 189.169C90.4919 188.771 88.2068 186.858 87.398 183.649C87.2696 183.109 87.1156 181.903 87.0642 180.927L86.9744 179.155H88.8359H90.6973L90.7872 180.606C90.9541 183.264 91.4034 184.496 92.5331 185.318C93.3933 185.934 94.2663 186.126 95.8582 186.062C97.0264 186.011 97.3473 185.947 97.9507 185.651C99.1703 185.061 99.8379 183.97 100.082 182.198C100.172 181.556 100.223 177.358 100.223 170.477V159.77H102.085H103.959L103.92 171.35C103.869 184.226 103.92 183.482 102.983 185.382C102.136 187.141 100.249 188.527 98.1048 188.976C96.9494 189.22 95.1264 189.31 93.9967 189.169Z" fill="white"/>
<path d="M117.503 189.169C110.352 188.347 106 182.724 106 174.277C106 168.577 108.144 163.866 111.905 161.311C114.165 159.783 116.527 159.116 119.672 159.128C123.524 159.128 126.425 160.258 128.684 162.646C130.02 164.045 130.995 165.984 131.342 167.897L131.432 168.372H129.583H127.734L127.401 167.345C126.977 166.086 126.412 165.175 125.501 164.315C124.05 162.954 122.42 162.338 120.045 162.235C118.029 162.158 116.758 162.402 115.128 163.198C111.726 164.841 109.723 168.821 109.723 173.956C109.723 180.182 112.136 184.355 116.527 185.728C117.361 185.985 117.759 186.024 119.48 186.024C121.239 186.024 121.585 185.985 122.42 185.716C123.652 185.305 125.103 184.342 125.847 183.418C126.887 182.134 127.709 180.182 127.901 178.526L127.991 177.743H129.827C131.958 177.743 131.791 177.589 131.47 179.284C130.482 184.534 127.247 187.949 122.291 188.964C121.059 189.207 118.786 189.31 117.503 189.169Z" fill="white"/>
<path d="M162.204 188.912C158.263 188.193 155.708 185.728 154.655 181.62C154.078 179.361 154.065 176.87 154.604 174.726C154.899 173.571 155.965 171.491 156.722 170.618C158.687 168.346 161.01 167.293 164.027 167.293C166.492 167.293 168.251 167.948 169.894 169.45C171.922 171.311 173.116 174.187 173.347 177.782L173.437 179.155H165.58H157.737V179.861C157.737 182.224 159.007 184.393 160.959 185.369C162.153 185.972 163.039 186.126 164.669 186.062C166.505 185.972 167.301 185.664 168.341 184.624C169.047 183.905 169.342 183.405 169.727 182.211C169.791 182.005 169.984 181.98 171.409 181.98H173.039L172.949 182.403C172.898 182.622 172.705 183.225 172.513 183.726C171.576 186.152 169.624 187.936 167.108 188.655C166.03 188.963 163.27 189.105 162.204 188.912ZM169.804 175.843C169.804 175.651 169.714 175.15 169.612 174.752C168.418 170.182 162.692 168.603 159.482 171.953C158.52 172.968 157.749 174.713 157.737 175.856V176.203H163.77H169.804V175.843Z" fill="white"/>
<path d="M221.001 188.797C217.676 188.065 215.301 185.805 214.236 182.365C213.748 180.786 213.645 180.016 213.658 177.936C213.658 176.228 213.709 175.702 213.941 174.855C214.775 171.825 216.585 169.501 219.037 168.295C220.642 167.511 221.553 167.293 223.338 167.293C226.881 167.293 229.423 168.782 231.156 171.863C232.055 173.455 232.709 176.113 232.709 178.167V179.155H224.878H217.047V179.707C217.047 180.568 217.394 181.98 217.818 182.827C218.87 184.984 220.834 186.088 223.607 186.088C225.751 186.088 227.241 185.433 228.216 184.059C228.499 183.674 228.832 183.045 228.948 182.66L229.166 181.98H230.797H232.44L232.234 182.647C231.695 184.483 230.835 185.947 229.718 186.922C228.948 187.603 227.343 188.424 226.226 188.732C225.007 189.053 222.362 189.092 221.001 188.797ZM229.166 175.599C228.524 171.299 224.275 168.962 220.385 170.785C218.729 171.568 217.445 173.468 217.112 175.663L217.022 176.203H223.145H229.256L229.166 175.599Z" fill="white"/>
<path d="M133.473 174.136V159.757L140.893 159.796C147.466 159.834 148.391 159.873 149.071 160.066C152.011 160.926 153.924 162.838 154.617 165.65C154.912 166.831 154.912 169.655 154.617 170.836C154.078 173.032 152.717 174.791 150.881 175.689C148.955 176.639 148.955 176.639 142.755 176.691L137.196 176.729V182.634V188.527H135.335H133.473V174.136ZM147.428 173.34C149.674 172.672 150.778 171.427 151.099 169.193C151.459 166.728 150.47 164.482 148.686 163.634C147.287 162.98 146.927 162.941 141.92 162.877L137.196 162.826V168.243V173.661L141.985 173.597C145.81 173.558 146.889 173.507 147.428 173.34Z" fill="white"/>
<path d="M175.068 178.128V167.73H176.608H178.149V169.399C178.149 170.323 178.187 171.068 178.251 171.068C178.303 171.068 178.495 170.811 178.688 170.516C179.137 169.797 180.357 168.641 181.101 168.218C182.193 167.588 183.451 167.293 185.081 167.293C188.984 167.293 190.999 168.68 191.975 172.03C192.168 172.711 192.193 173.674 192.245 180.67L192.283 188.527H190.614H188.945L188.907 180.863L188.868 173.186L188.573 172.544C188.188 171.697 187.379 170.888 186.57 170.541C185.158 169.938 182.629 170.156 181.178 171.003C179.933 171.735 178.893 173.276 178.547 174.893C178.457 175.343 178.405 177.756 178.405 182.044V188.527H176.737H175.068V178.128Z" fill="white"/>
<path d="M194.581 178.128V167.73H196.186H197.778L197.816 169.424L197.855 171.132L198.471 170.259C199.203 169.232 200.127 168.461 201.193 167.986C202.374 167.447 203.234 167.28 204.851 167.293C207.111 167.306 208.69 167.82 209.845 168.924C210.59 169.643 210.949 170.233 211.373 171.414L211.72 172.416L211.758 180.478L211.797 188.527H210.179H208.574V181.505C208.574 177.281 208.523 174.149 208.446 173.648C208.048 171.234 206.353 170.015 203.645 170.207C200.448 170.439 198.522 172.287 198.047 175.586C197.983 176.023 197.919 179.13 197.919 182.468V188.527H196.25H194.581V178.128Z" fill="white"/>
</g>
<g style="mix-blend-mode:soft-light">
<path d="M429.549 183.413C429.478 183.321 429.457 183.257 429.447 183.106C429.432 182.869 429.469 182.793 429.752 182.495C429.945 182.292 430.363 181.926 430.4 181.926C430.409 181.926 430.486 181.862 430.572 181.782C430.658 181.699 430.812 181.557 430.913 181.465C431.015 181.373 431.097 181.284 431.101 181.268C431.101 181.253 431.193 181.146 431.31 181.029C431.537 180.798 431.623 180.7 431.989 180.264C432.127 180.101 432.238 179.953 432.238 179.935C432.238 179.919 432.259 179.898 432.284 179.886C432.311 179.876 432.342 179.843 432.354 179.812C432.367 179.778 432.413 179.707 432.459 179.649C432.655 179.4 432.821 179.163 432.821 179.136C432.821 179.12 432.855 179.074 432.898 179.034C432.938 178.994 432.975 178.948 432.975 178.933C432.975 178.918 433.03 178.825 433.098 178.727C433.166 178.629 433.221 178.537 433.221 178.521C433.221 178.509 433.27 178.426 433.328 178.34C433.387 178.254 433.457 178.125 433.485 178.057C433.513 177.987 433.544 177.931 433.556 177.931C433.568 177.931 433.611 177.858 433.654 177.771C433.694 177.682 433.737 177.602 433.746 177.593C433.756 177.584 433.805 177.489 433.854 177.378C433.9 177.268 433.949 177.172 433.961 177.163C433.989 177.142 434.112 176.856 434.112 176.807C434.112 176.785 434.13 176.748 434.155 176.727C434.177 176.702 434.232 176.585 434.275 176.469C434.318 176.352 434.379 176.201 434.413 176.134C434.444 176.066 434.49 175.946 434.511 175.866C434.533 175.783 434.561 175.719 434.576 175.719C434.591 175.719 434.594 175.697 434.585 175.673C434.573 175.648 434.579 175.627 434.594 175.627C434.61 175.627 434.656 175.504 434.696 175.35C434.736 175.199 434.782 175.073 434.797 175.073C434.813 175.073 434.819 175.046 434.81 175.012C434.8 174.978 434.803 174.944 434.819 174.935C434.831 174.926 434.874 174.785 434.911 174.622C434.951 174.456 434.991 174.308 435.003 174.29C435.031 174.256 435.188 173.46 435.188 173.359C435.188 173.325 435.2 173.291 435.212 173.285C435.246 173.273 435.366 172.308 435.39 171.841C435.403 171.641 435.424 171.478 435.44 171.478C435.473 171.478 435.473 169.521 435.44 169.499C435.424 169.49 435.403 169.309 435.39 169.094C435.363 168.528 435.249 167.502 435.215 167.489C435.2 167.483 435.188 167.446 435.188 167.41C435.188 167.287 435.034 166.399 435.006 166.365C434.982 166.337 434.926 166.094 434.859 165.723C434.85 165.676 434.831 165.64 434.816 165.64C434.8 165.64 434.797 165.618 434.806 165.593C434.819 165.569 434.813 165.529 434.794 165.507C434.779 165.489 434.733 165.354 434.696 165.209C434.659 165.068 434.616 164.933 434.598 164.911C434.579 164.89 434.576 164.871 434.588 164.871C434.601 164.871 434.598 164.853 434.579 164.831C434.564 164.813 434.518 164.684 434.481 164.549C434.444 164.417 434.395 164.278 434.373 164.241C434.352 164.208 434.299 164.085 434.263 163.965C434.223 163.848 434.173 163.731 434.152 163.71C434.13 163.688 434.112 163.651 434.112 163.63C434.112 163.528 433.411 162.109 433.325 162.029C433.307 162.014 433.258 161.931 433.218 161.845C433.178 161.762 433.132 161.685 433.119 161.682C433.107 161.676 433.061 161.602 433.021 161.519C432.978 161.436 432.929 161.368 432.914 161.368C432.895 161.368 432.883 161.353 432.883 161.338C432.883 161.301 432.738 161.07 432.659 160.984C432.628 160.95 432.582 160.877 432.554 160.821C432.526 160.766 432.48 160.708 432.45 160.689C432.416 160.674 432.391 160.643 432.391 160.625C432.391 160.594 432.253 160.409 432.044 160.167C432.007 160.121 431.927 160.025 431.869 159.952C431.81 159.878 431.724 159.78 431.678 159.737C431.629 159.69 431.592 159.638 431.592 159.623C431.592 159.607 431.546 159.552 431.494 159.503C431.439 159.454 431.331 159.343 431.257 159.254C431.187 159.165 430.916 158.901 430.658 158.664C430.403 158.431 430.151 158.194 430.096 158.142C430.043 158.093 429.988 158.049 429.973 158.049C429.96 158.049 429.838 157.933 429.699 157.788C429.509 157.589 429.441 157.496 429.41 157.386C429.284 156.94 429.653 156.762 430.277 156.965C430.418 157.011 430.538 157.057 430.547 157.069C430.563 157.088 430.809 157.152 431.147 157.223C431.248 157.244 431.337 157.272 431.346 157.281C431.368 157.309 431.648 157.364 431.961 157.404C432.105 157.423 432.25 157.45 432.284 157.466C432.354 157.496 433.073 157.57 433.823 157.625C434.109 157.644 434.349 157.668 434.358 157.681C434.367 157.69 434.699 157.724 435.098 157.751C435.907 157.813 436.392 157.865 436.417 157.896C436.426 157.908 436.509 157.927 436.601 157.939C436.93 157.979 437.492 158.093 437.492 158.117C437.492 158.129 437.511 158.142 437.535 158.142C437.606 158.142 438.119 158.298 438.138 158.323C438.147 158.335 438.224 158.372 438.31 158.4C438.396 158.427 438.54 158.498 438.632 158.557C438.724 158.615 438.81 158.664 438.826 158.664C438.854 158.664 439.01 158.784 439.155 158.919C439.207 158.965 439.259 159.002 439.271 159.002C439.302 159.002 439.613 159.322 439.613 159.355C439.613 159.374 439.64 159.405 439.674 159.423C439.708 159.445 439.757 159.506 439.785 159.561C439.812 159.617 439.855 159.675 439.877 159.687C439.901 159.7 439.92 159.724 439.92 159.74C439.92 159.755 439.978 159.863 440.052 159.976C440.187 160.197 440.338 160.492 440.43 160.723C440.461 160.8 440.494 160.867 440.507 160.877C440.519 160.886 440.559 160.99 440.599 161.107C440.639 161.227 440.682 161.331 440.697 161.341C440.71 161.35 440.719 161.371 440.716 161.387C440.71 161.402 440.728 161.463 440.756 161.522C440.78 161.58 440.82 161.703 440.842 161.792C440.866 161.878 440.894 161.952 440.906 161.952C440.919 161.952 440.937 161.998 440.949 162.05C440.986 162.226 441.094 162.61 441.134 162.705C441.155 162.757 441.204 162.935 441.244 163.104C441.284 163.273 441.324 163.418 441.333 163.427C441.343 163.436 441.392 163.608 441.438 163.811C441.487 164.014 441.536 164.195 441.548 164.211C441.561 164.229 441.607 164.401 441.653 164.595C441.696 164.788 441.748 164.976 441.764 165.01C441.797 165.08 441.948 165.707 441.948 165.778C441.948 165.802 441.96 165.824 441.973 165.824C441.985 165.824 442.031 165.999 442.071 166.217C442.111 166.432 442.157 166.617 442.172 166.626C442.191 166.638 442.194 166.669 442.185 166.694C442.175 166.718 442.178 166.749 442.194 166.764C442.206 166.78 442.249 166.992 442.289 167.238C442.326 167.483 442.369 167.689 442.381 167.698C442.424 167.732 442.563 169.063 442.563 169.475C442.563 169.656 442.575 169.727 442.602 169.727C442.627 169.727 442.624 169.739 442.593 169.757C442.563 169.776 442.559 169.788 442.587 169.788C442.615 169.788 442.624 169.893 442.624 170.203C442.624 170.513 442.615 170.618 442.587 170.618C442.559 170.618 442.563 170.63 442.593 170.648C442.624 170.667 442.627 170.679 442.602 170.679C442.575 170.679 442.563 170.747 442.563 170.919C442.563 171.297 442.421 172.71 442.381 172.738C442.369 172.747 442.329 172.959 442.289 173.214C442.252 173.466 442.209 173.688 442.2 173.706C442.188 173.721 442.185 173.761 442.191 173.795C442.194 173.826 442.188 173.863 442.172 173.872C442.157 173.881 442.111 174.069 442.074 174.29C442.037 174.508 441.994 174.695 441.982 174.705C441.969 174.714 441.92 174.914 441.874 175.15C441.828 175.387 441.779 175.593 441.764 175.611C441.751 175.627 441.73 175.691 441.717 175.749C441.659 176.044 441.567 176.413 441.548 176.441C441.536 176.459 441.515 176.521 441.502 176.579C441.45 176.847 441.358 177.209 441.34 177.224C441.327 177.234 441.278 177.406 441.229 177.609C441.177 177.811 441.127 177.983 441.115 177.993C441.103 178.002 441.063 178.119 441.026 178.254C440.989 178.389 440.94 178.534 440.915 178.577C440.891 178.62 440.836 178.764 440.793 178.899C440.75 179.034 440.7 179.16 440.688 179.176C440.673 179.194 440.633 179.286 440.596 179.385C440.559 179.48 440.516 179.56 440.501 179.56C440.485 179.56 440.473 179.581 440.473 179.606C440.473 179.671 440.329 179.99 440.298 179.99C440.282 179.99 440.246 180.058 440.215 180.141C440.187 180.221 440.138 180.316 440.11 180.35C440.043 180.423 439.951 180.574 439.929 180.645C439.92 180.672 439.901 180.697 439.889 180.697C439.877 180.697 439.828 180.755 439.782 180.829C439.677 180.986 439.652 181.013 439.342 181.327C439.075 181.597 438.927 181.723 438.792 181.794C438.746 181.818 438.685 181.855 438.66 181.88C438.509 182.012 437.744 182.295 437.532 182.295C437.492 182.295 437.461 182.307 437.461 182.319C437.461 182.356 436.832 182.442 436.263 182.485C436.002 182.504 435.781 182.531 435.771 182.541C435.762 182.553 435.605 182.571 435.418 182.584C434.865 182.617 433.854 182.725 433.789 182.756C433.756 182.771 433.562 182.805 433.359 182.833C432.714 182.912 432.468 182.949 432.453 182.971C432.443 182.98 432.238 183.02 431.992 183.06C431.746 183.1 431.534 183.143 431.515 183.155C431.5 183.168 431.285 183.217 431.039 183.263C430.793 183.312 430.587 183.361 430.578 183.37C430.55 183.41 430.108 183.502 429.868 183.515L429.635 183.527L429.549 183.413Z" fill="white"/>
<path d="M456.852 183.512C456.842 183.502 456.723 183.472 456.59 183.444C456.455 183.413 456.338 183.38 456.329 183.37C456.32 183.358 456.114 183.309 455.868 183.263C455.622 183.217 455.407 183.164 455.389 183.149C455.37 183.137 455.161 183.094 454.928 183.057C454.694 183.02 454.495 182.98 454.485 182.971C454.476 182.959 454.181 182.912 453.825 182.866C453.471 182.817 453.152 182.768 453.118 182.756C453.035 182.719 452.602 182.679 451.658 182.614C451.228 182.587 450.869 182.553 450.859 182.541C450.85 182.528 450.706 182.51 450.537 182.498C450.171 182.473 449.434 182.356 449.421 182.319C449.415 182.307 449.384 182.295 449.354 182.295C449.283 182.295 448.822 182.144 448.801 182.113C448.791 182.101 448.708 182.052 448.616 182.006C448.361 181.88 448.251 181.815 448.128 181.72C447.962 181.591 447.264 180.89 447.264 180.854C447.264 180.835 447.236 180.789 447.2 180.752C447.107 180.651 446.926 180.368 446.877 180.248C446.852 180.19 446.822 180.144 446.806 180.144C446.794 180.144 446.742 180.048 446.696 179.929C446.65 179.812 446.6 179.714 446.588 179.714C446.576 179.714 446.533 179.628 446.496 179.523C446.456 179.415 446.388 179.246 446.342 179.145C446.296 179.044 446.247 178.915 446.235 178.856C446.222 178.798 446.195 178.733 446.176 178.712C446.155 178.693 446.106 178.561 446.069 178.42C446.029 178.278 445.989 178.149 445.973 178.131C445.961 178.116 445.912 177.94 445.863 177.747C445.814 177.553 445.761 177.384 445.746 177.375C445.731 177.363 445.728 177.332 445.737 177.307C445.746 177.283 445.74 177.249 445.728 177.237C445.712 177.221 445.669 177.065 445.632 176.886C445.596 176.708 445.552 176.558 445.543 176.548C445.531 176.539 445.482 176.339 445.436 176.103C445.39 175.866 445.34 175.66 445.328 175.642C445.301 175.608 445.144 174.861 445.144 174.766C445.144 174.735 445.131 174.705 445.119 174.699C445.104 174.695 445.055 174.462 445.009 174.182C444.962 173.903 444.913 173.648 444.898 173.614C444.867 173.546 444.79 172.959 444.76 172.584C444.747 172.458 444.732 172.332 444.723 172.308C444.714 172.283 444.707 172.203 444.711 172.13C444.717 172.056 444.704 171.982 444.689 171.961C444.591 171.835 444.581 168.694 444.68 168.482C444.695 168.448 444.717 168.298 444.729 168.144C444.757 167.705 444.867 166.86 444.904 166.786C444.923 166.749 444.929 166.691 444.919 166.657C444.91 166.623 444.913 166.592 444.926 166.586C444.938 166.58 444.978 166.389 445.015 166.162C445.055 165.935 445.098 165.719 445.113 165.686C445.128 165.652 445.178 165.431 445.224 165.194C445.267 164.957 445.316 164.758 445.325 164.748C445.337 164.739 445.387 164.561 445.436 164.349C445.482 164.137 445.534 163.943 445.546 163.919C445.562 163.894 445.608 163.713 445.654 163.519C445.7 163.326 445.746 163.154 445.761 163.135C445.774 163.12 445.814 162.982 445.851 162.828C445.887 162.677 445.93 162.536 445.946 162.517C445.961 162.499 445.964 162.474 445.952 162.462C445.94 162.45 445.943 162.431 445.961 162.419C445.977 162.407 446.023 162.287 446.063 162.152C446.103 162.017 446.146 161.891 446.164 161.869C446.179 161.848 446.186 161.82 446.176 161.802C446.167 161.786 446.167 161.768 446.182 161.762C446.195 161.758 446.238 161.651 446.278 161.531C446.318 161.408 446.358 161.307 446.37 161.307C446.382 161.307 446.41 161.242 446.431 161.162C446.456 161.079 446.511 160.938 446.557 160.846C446.788 160.376 446.981 160.013 447.034 159.955C447.055 159.93 447.101 159.856 447.138 159.795C447.203 159.678 447.233 159.635 447.39 159.463C447.439 159.411 447.479 159.355 447.479 159.343C447.479 159.319 447.959 158.852 448.143 158.704C448.207 158.649 448.278 158.603 448.3 158.603C448.321 158.603 448.349 158.584 448.361 158.563C448.373 158.544 448.469 158.486 448.57 158.434C448.671 158.384 448.761 158.335 448.77 158.326C448.794 158.301 448.982 158.234 449.169 158.179C449.261 158.151 449.348 158.117 449.357 158.105C449.375 158.077 450.233 157.927 450.371 157.927C450.42 157.927 450.46 157.914 450.46 157.899C450.46 157.874 450.586 157.862 451.744 157.788C452.814 157.721 452.98 157.705 452.98 157.678C452.98 157.662 453.023 157.65 453.072 157.65C453.226 157.65 454.28 157.496 454.347 157.466C454.381 157.45 454.578 157.407 454.787 157.373C454.996 157.34 455.189 157.297 455.217 157.284C455.266 157.257 455.715 157.158 456.007 157.109C456.074 157.097 456.136 157.078 456.145 157.066C456.154 157.057 456.332 157.011 456.544 156.965C456.971 156.873 457.604 156.848 457.675 156.919C457.718 156.962 457.727 157.558 457.684 157.558C457.669 157.558 457.638 157.607 457.617 157.665C457.595 157.724 457.568 157.773 457.558 157.773C457.537 157.773 457.273 157.973 456.975 158.212C456.916 158.262 456.815 158.344 456.747 158.397C456.683 158.452 456.378 158.747 456.071 159.051C455.506 159.617 455.374 159.764 455.063 160.145C455.017 160.201 454.916 160.323 454.839 160.419C454.762 160.514 454.701 160.606 454.701 160.625C454.701 160.643 454.661 160.695 454.608 160.744C454.559 160.791 454.516 160.846 454.516 160.864C454.516 160.883 454.485 160.932 454.449 160.975C454.375 161.055 454.32 161.144 454.246 161.282C454.224 161.331 454.194 161.368 454.178 161.368C454.166 161.368 454.129 161.42 454.101 161.485C454.071 161.546 454.009 161.654 453.963 161.722C453.917 161.789 453.871 161.872 453.859 161.909C453.849 161.943 453.816 161.998 453.785 162.032C453.757 162.063 453.693 162.173 453.643 162.275C453.594 162.376 453.545 162.465 453.533 162.474C453.524 162.484 453.481 162.57 453.441 162.668C453.401 162.763 453.358 162.843 453.348 162.843C453.336 162.843 453.287 162.945 453.238 163.064C453.192 163.187 453.143 163.295 453.133 163.304C453.112 163.323 453.02 163.541 452.995 163.633C452.983 163.673 452.958 163.722 452.94 163.741C452.918 163.762 452.86 163.906 452.811 164.057C452.758 164.211 452.709 164.34 452.697 164.352C452.685 164.361 452.636 164.5 452.589 164.659C452.546 164.816 452.497 164.954 452.488 164.964C452.476 164.973 452.427 165.133 452.381 165.317C452.334 165.504 452.288 165.661 452.276 165.67C452.264 165.68 452.218 165.873 452.172 166.101C452.122 166.328 452.073 166.543 452.058 166.577C452.027 166.644 451.904 167.357 451.904 167.471C451.904 167.511 451.892 167.545 451.88 167.545C451.846 167.545 451.757 168.421 451.717 169.173C451.677 169.868 451.698 171.097 451.766 171.862C451.824 172.547 451.849 172.75 451.873 172.769C451.883 172.778 451.926 173.005 451.963 173.276C452.003 173.546 452.042 173.774 452.055 173.783C452.067 173.792 452.113 173.998 452.162 174.244C452.208 174.49 452.258 174.705 452.273 174.72C452.285 174.738 452.334 174.904 452.381 175.089C452.427 175.276 452.476 175.433 452.485 175.442C452.497 175.451 452.546 175.596 452.596 175.765C452.645 175.934 452.694 176.078 452.706 176.087C452.719 176.097 452.765 176.213 452.811 176.346C452.857 176.481 452.909 176.616 452.931 176.653C452.952 176.69 453.004 176.807 453.041 176.917C453.081 177.028 453.124 177.123 453.136 177.132C453.149 177.142 453.195 177.237 453.241 177.347C453.287 177.458 453.336 177.553 453.348 177.562C453.361 177.572 453.404 177.655 453.444 177.747C453.484 177.839 453.533 177.934 453.551 177.956C453.573 177.974 453.6 178.023 453.613 178.063C453.625 178.1 453.68 178.205 453.736 178.291C453.794 178.38 453.862 178.5 453.886 178.552C453.938 178.663 454.117 178.955 454.194 179.053C454.249 179.124 454.485 179.477 454.532 179.557C454.55 179.584 454.599 179.649 454.648 179.698C454.694 179.75 454.731 179.806 454.731 179.827C454.731 179.849 454.759 179.883 454.793 179.904C454.827 179.926 454.854 179.956 454.854 179.969C454.854 179.999 455.211 180.442 455.438 180.7C455.884 181.201 456.492 181.834 456.526 181.834C456.541 181.834 456.63 181.917 456.729 182.018C456.827 182.12 456.919 182.203 456.935 182.203C456.95 182.203 457.005 182.249 457.057 182.304C457.147 182.399 457.211 182.455 457.552 182.731L457.718 182.863L457.706 183.131C457.694 183.499 457.684 183.506 457.226 183.518C457.03 183.524 456.858 183.521 456.852 183.512Z" fill="white"/>
<path d="M413.769 183.146C413.769 183.124 413.797 183.032 413.834 182.94C413.871 182.848 413.905 182.74 413.914 182.703C413.923 182.664 413.941 182.633 413.954 182.633C413.966 182.633 414.015 182.528 414.061 182.402C414.107 182.276 414.16 182.172 414.172 182.172C414.187 182.172 414.2 182.153 414.2 182.129C414.2 182.083 414.283 181.88 414.399 181.634C414.439 181.551 414.513 181.391 414.562 181.281C414.611 181.17 414.682 181.013 414.722 180.927C414.762 180.844 414.793 180.764 414.79 180.752C414.787 180.737 414.799 180.728 414.814 180.728C414.83 180.728 414.845 180.706 414.845 180.682C414.845 180.626 414.971 180.353 415.011 180.325C415.026 180.313 415.026 180.288 415.017 180.27C415.005 180.251 415.008 180.236 415.02 180.236C415.035 180.236 415.078 180.15 415.121 180.045C415.161 179.938 415.204 179.846 415.214 179.836C415.223 179.827 415.263 179.744 415.303 179.652C415.383 179.465 415.512 179.182 415.736 178.715C415.93 178.306 416.04 178.057 416.04 178.033C416.037 178.023 416.053 178.005 416.071 177.996C416.096 177.98 416.086 177.934 416.046 177.851C416.016 177.787 415.967 177.658 415.933 177.572C415.902 177.483 415.865 177.409 415.853 177.409C415.841 177.409 415.828 177.387 415.828 177.363C415.828 177.317 415.782 177.2 415.641 176.899C415.595 176.797 415.533 176.647 415.502 176.561C415.475 176.478 415.441 176.404 415.429 176.395C415.416 176.386 415.367 176.272 415.321 176.143C415.275 176.011 415.223 175.903 415.211 175.903C415.195 175.903 415.183 175.888 415.183 175.866C415.183 175.82 415.032 175.439 414.995 175.393C414.98 175.375 414.946 175.301 414.922 175.227C414.894 175.153 414.842 175.021 414.802 174.935C414.762 174.852 414.704 174.72 414.673 174.643C414.642 174.566 414.608 174.499 414.596 174.49C414.587 174.48 414.541 174.367 414.492 174.238C414.445 174.105 414.393 173.998 414.381 173.998C414.366 173.998 414.353 173.983 414.353 173.961C414.353 173.915 414.203 173.543 414.153 173.46C414.132 173.426 414.083 173.307 414.046 173.193C414.006 173.076 413.966 172.984 413.954 172.984C413.941 172.984 413.902 172.898 413.862 172.793C413.825 172.686 413.763 172.532 413.723 172.446C413.514 172.004 413.437 171.819 413.401 171.709C413.379 171.641 413.351 171.58 413.339 171.57C413.312 171.552 413.155 171.165 413.155 171.116C413.155 171.094 413.142 171.079 413.127 171.079C413.115 171.079 413.063 170.971 413.013 170.842C412.967 170.71 412.903 170.562 412.875 170.51C412.844 170.461 412.798 170.35 412.768 170.264C412.74 170.181 412.706 170.105 412.694 170.095C412.682 170.086 412.632 169.972 412.586 169.843C412.54 169.711 412.488 169.604 412.476 169.604C412.46 169.604 412.448 169.582 412.448 169.558C412.448 169.515 412.396 169.389 412.245 169.066C412.205 168.98 412.171 168.9 412.171 168.888C412.171 168.872 412.132 168.777 412.082 168.673C411.941 168.371 411.895 168.252 411.895 168.205C411.895 168.181 411.883 168.159 411.867 168.159C411.855 168.159 411.803 168.052 411.754 167.923C411.707 167.791 411.646 167.643 411.615 167.591C411.588 167.542 411.538 167.422 411.508 167.33C411.477 167.238 411.44 167.151 411.425 167.142C411.403 167.127 411.296 166.863 411.259 166.73C411.247 166.697 411.228 166.663 411.213 166.651C411.2 166.641 411.151 166.531 411.108 166.405C411.065 166.282 411.016 166.165 411.004 166.147C410.988 166.131 410.942 166.021 410.899 165.904C410.853 165.787 410.807 165.676 410.792 165.658C410.776 165.64 410.733 165.535 410.693 165.424C410.657 165.314 410.617 165.219 410.601 165.209C410.589 165.2 410.549 165.105 410.509 164.994C410.472 164.884 410.426 164.767 410.411 164.733C410.392 164.699 410.374 164.665 410.374 164.656C410.371 164.647 410.352 164.601 410.331 164.549C410.309 164.5 410.272 164.41 410.248 164.355C410.223 164.3 410.205 164.235 410.205 164.211C410.205 164.186 410.192 164.165 410.177 164.165C410.153 164.165 410.094 164.017 410.017 163.774C410.002 163.719 409.974 163.673 409.959 163.673C409.941 163.673 409.928 163.658 409.928 163.642C409.928 163.621 410.647 163.615 412.067 163.618L414.206 163.627L414.283 163.842C414.326 163.962 414.372 164.063 414.381 164.072C414.393 164.082 414.433 164.177 414.473 164.288C414.513 164.398 414.574 164.558 414.614 164.641C414.731 164.899 414.783 165.025 414.783 165.059C414.783 165.077 414.802 165.108 414.823 165.133C414.848 165.154 414.897 165.268 414.937 165.385C414.974 165.498 415.017 165.6 415.029 165.609C415.042 165.618 415.082 165.707 415.118 165.806C415.155 165.907 415.195 166.002 415.207 166.021C415.22 166.039 415.229 166.061 415.232 166.07C415.232 166.088 415.306 166.248 415.429 166.515C415.478 166.617 415.539 166.77 415.57 166.853C415.601 166.939 415.644 167.025 415.665 167.047C415.687 167.068 415.705 167.105 415.705 167.127C415.705 167.167 415.779 167.351 415.89 167.591C416.059 167.957 416.139 168.138 416.2 168.301C416.237 168.399 416.277 168.488 416.292 168.497C416.314 168.513 416.387 168.7 416.446 168.891C416.464 168.943 416.486 168.989 416.498 168.989C416.513 168.989 416.547 169.063 416.578 169.152C416.612 169.238 416.652 169.339 416.67 169.373C416.686 169.407 416.704 169.441 416.704 169.45C416.71 169.468 416.796 169.662 416.907 169.896C416.953 169.997 417.014 170.154 417.045 170.243C417.073 170.329 417.107 170.403 417.122 170.403C417.134 170.403 417.159 170.449 417.177 170.504C417.233 170.685 417.303 170.867 417.346 170.934C417.371 170.971 417.42 171.091 417.46 171.202C417.5 171.312 417.54 171.407 417.552 171.417C417.564 171.426 417.611 171.537 417.654 171.659C417.697 171.785 417.743 171.896 417.758 171.905C417.783 171.924 417.829 172.047 417.912 172.292C417.939 172.378 417.979 172.461 417.998 172.483C418.019 172.504 418.059 172.6 418.09 172.698C418.121 172.796 418.164 172.895 418.185 172.916C418.207 172.938 418.225 172.981 418.225 173.012C418.225 173.039 418.244 173.088 418.265 173.119C418.308 173.177 418.296 173.196 419.181 171.447C419.294 171.22 419.402 171.02 419.414 171.002C419.43 170.986 419.467 170.91 419.497 170.833C419.528 170.756 419.715 170.369 419.912 169.972C420.106 169.576 420.269 169.244 420.269 169.235C420.269 169.226 420.355 169.044 420.462 168.829C420.567 168.617 420.653 168.421 420.653 168.393C420.653 168.365 420.668 168.344 420.687 168.344C420.702 168.344 420.711 168.331 420.702 168.316C420.69 168.301 420.693 168.282 420.705 168.276C420.72 168.273 420.763 168.19 420.806 168.098C420.849 168.006 420.892 167.923 420.905 167.914C420.917 167.904 420.963 167.8 421.006 167.683C421.052 167.563 421.098 167.462 421.107 167.453C421.141 167.428 421.267 167.148 421.267 167.099C421.267 167.078 421.286 167.038 421.307 167.016C421.329 166.995 421.387 166.884 421.433 166.77C421.482 166.654 421.535 166.561 421.55 166.561C421.562 166.561 421.575 166.54 421.575 166.512C421.575 166.457 421.611 166.374 422.143 165.255C422.198 165.139 422.269 164.979 422.3 164.902C422.331 164.825 422.367 164.758 422.377 164.748C422.389 164.739 422.435 164.638 422.481 164.518C422.524 164.401 422.57 164.297 422.586 164.288C422.598 164.278 422.647 164.171 422.693 164.051C422.739 163.928 422.788 163.827 422.801 163.827C422.813 163.827 422.841 163.777 422.862 163.719L422.899 163.611H425.019C426.184 163.611 427.137 163.618 427.137 163.627C427.137 163.658 427.026 163.876 426.992 163.913C426.971 163.934 426.952 163.971 426.952 163.993C426.952 164.048 426.826 164.327 426.795 164.349C426.78 164.358 426.734 164.463 426.691 164.579C426.651 164.696 426.605 164.798 426.59 164.807C426.574 164.816 426.531 164.905 426.491 165.003C426.451 165.099 426.408 165.179 426.393 165.179C426.381 165.179 426.368 165.197 426.368 165.222C426.368 165.271 426.218 165.618 426.187 165.64C426.175 165.649 426.147 165.704 426.126 165.763C426.086 165.87 426 166.054 425.683 166.715C425.591 166.909 425.477 167.158 425.428 167.268C425.379 167.379 425.333 167.474 425.32 167.483C425.308 167.493 425.262 167.594 425.216 167.714C425.173 167.831 425.127 167.935 425.112 167.944C425.099 167.953 425.056 168.043 425.013 168.144C424.973 168.245 424.93 168.335 424.921 168.344C424.909 168.353 424.863 168.448 424.817 168.556C424.773 168.663 424.715 168.771 424.691 168.795C424.666 168.82 424.647 168.857 424.647 168.882C424.647 168.931 424.531 169.213 424.5 169.235C424.488 169.244 424.451 169.312 424.42 169.389C424.362 169.527 424.15 169.985 423.895 170.51C423.821 170.664 423.744 170.839 423.723 170.903C423.701 170.965 423.673 171.017 423.661 171.017C423.652 171.017 423.603 171.109 423.557 171.226C423.507 171.34 423.461 171.438 423.449 171.447C423.44 171.457 423.391 171.564 423.345 171.687C423.295 171.807 423.243 171.908 423.231 171.908C423.219 171.908 423.179 171.997 423.142 172.108C423.105 172.219 423.059 172.326 423.037 172.348C423.019 172.366 422.96 172.483 422.911 172.6C422.862 172.72 422.81 172.821 422.798 172.824C422.782 172.83 422.773 172.849 422.773 172.867C422.773 172.895 422.708 173.036 422.389 173.706C422.097 174.318 421.919 174.699 421.848 174.858C421.808 174.951 421.765 175.033 421.756 175.043C421.728 175.067 421.605 175.353 421.605 175.399C421.605 175.421 421.587 175.458 421.562 175.482C421.538 175.507 421.479 175.614 421.436 175.722C421.39 175.829 421.344 175.925 421.332 175.934C421.32 175.943 421.273 176.051 421.224 176.174C421.178 176.293 421.129 176.395 421.12 176.395C421.107 176.395 421.074 176.459 421.04 176.542C420.957 176.748 420.739 177.206 420.714 177.224C420.702 177.234 420.668 177.307 420.64 177.39C420.613 177.473 420.548 177.618 420.499 177.713C420.342 178.008 419.986 178.77 419.931 178.924C419.9 179.004 419.866 179.068 419.854 179.068C419.841 179.068 419.792 179.17 419.743 179.293C419.697 179.412 419.648 179.52 419.639 179.529C419.626 179.538 419.58 179.637 419.531 179.753C419.485 179.867 419.436 179.959 419.424 179.959C419.411 179.959 419.377 180.036 419.347 180.128C419.319 180.224 419.279 180.316 419.258 180.337C419.236 180.359 419.181 180.466 419.135 180.583C419.086 180.697 419.033 180.789 419.018 180.789C419.006 180.789 418.993 180.808 418.993 180.832C418.993 180.881 418.843 181.228 418.812 181.25C418.803 181.259 418.766 181.327 418.735 181.404C418.704 181.48 418.6 181.708 418.502 181.911C418.406 182.113 418.293 182.356 418.253 182.448C418.213 182.541 418.17 182.624 418.161 182.633C418.13 182.657 418.01 182.943 418.01 182.989C418.01 183.014 417.998 183.032 417.979 183.032C417.964 183.032 417.942 183.066 417.93 183.109L417.912 183.186H415.841C414.19 183.186 413.769 183.177 413.769 183.146Z" fill="white"/>
<path d="M402.046 179.48C401.979 179.474 401.748 179.452 401.533 179.434C401.315 179.415 401.14 179.388 401.14 179.372C401.14 179.357 401.103 179.345 401.057 179.345C400.918 179.345 400.126 179.185 400.126 179.154C400.126 179.142 400.104 179.13 400.076 179.13C399.996 179.13 399.496 178.979 399.36 178.915C399.293 178.881 399.222 178.853 399.204 178.853C399.182 178.853 399.084 178.813 398.979 178.764C398.875 178.715 398.727 178.65 398.651 178.62C398.574 178.589 398.5 178.552 398.482 178.537C398.466 178.524 398.389 178.481 398.313 178.441C398.027 178.294 397.815 178.171 397.67 178.07C397.587 178.011 397.507 177.962 397.489 177.962C397.471 177.962 397.443 177.944 397.431 177.922C397.418 177.901 397.348 177.845 397.277 177.799C397.203 177.753 397.145 177.701 397.145 177.685C397.145 177.667 397.126 177.655 397.105 177.655C397.086 177.655 396.979 177.578 396.868 177.483C396.65 177.298 396.008 176.674 396.008 176.65C396.008 176.641 395.931 176.548 395.839 176.447C395.747 176.343 395.67 176.241 395.67 176.226C395.67 176.207 395.645 176.18 395.615 176.158C395.581 176.14 395.532 176.075 395.504 176.014C395.476 175.952 395.439 175.903 395.424 175.903C395.406 175.903 395.393 175.888 395.393 175.872C395.393 175.854 395.332 175.749 395.258 175.642C395.101 175.415 394.711 174.631 394.653 174.428C394.631 174.351 394.597 174.274 394.579 174.256C394.56 174.238 394.514 174.093 394.474 173.933C394.431 173.774 394.388 173.638 394.379 173.629C394.352 173.611 394.238 173.042 394.207 172.784C394.195 172.683 394.176 172.594 394.164 172.584C394.127 172.56 394.072 171.785 394.072 171.288C394.072 170.802 394.124 170.101 394.164 170.049C394.176 170.034 394.195 169.936 394.207 169.834C394.235 169.594 394.348 169.044 394.379 169.004C394.391 168.989 394.441 168.842 394.487 168.682C394.533 168.522 394.579 168.378 394.594 168.359C394.607 168.344 394.656 168.224 394.699 168.101C394.742 167.975 394.791 167.864 394.803 167.855C394.819 167.843 394.868 167.745 394.917 167.631C394.963 167.514 395.012 167.422 395.021 167.422C395.031 167.422 395.074 167.345 395.117 167.253C395.16 167.161 395.203 167.084 395.215 167.084C395.227 167.084 395.264 167.032 395.298 166.97C395.332 166.906 395.378 166.826 395.406 166.792C395.618 166.515 395.762 166.313 395.762 166.288C395.762 166.273 395.805 166.23 395.854 166.193C395.906 166.156 395.946 166.11 395.946 166.091C395.946 166.054 396.748 165.259 396.933 165.111C397.206 164.893 397.538 164.656 397.569 164.656C397.587 164.656 397.606 164.641 397.612 164.619C397.624 164.586 397.741 164.515 398.082 164.331C398.168 164.284 398.242 164.238 398.251 164.229C398.26 164.217 398.356 164.168 398.466 164.122C398.577 164.072 398.672 164.023 398.681 164.014C398.7 163.989 399.025 163.857 399.065 163.857C399.084 163.857 399.145 163.833 399.207 163.799C399.265 163.768 399.425 163.71 399.557 163.673C399.692 163.636 399.818 163.593 399.834 163.581C399.877 163.55 400.215 163.47 400.51 163.424C400.645 163.402 400.762 163.375 400.771 163.363C400.802 163.316 401.628 163.24 402.246 163.221C403.033 163.2 404.428 163.295 404.428 163.372C404.428 163.384 404.465 163.396 404.508 163.396C404.64 163.396 405.34 163.547 405.432 163.596C405.479 163.621 405.54 163.642 405.568 163.642C405.638 163.642 406.038 163.768 406.056 163.796C406.065 163.808 406.173 163.848 406.296 163.885C406.419 163.925 406.536 163.971 406.557 163.992C406.579 164.014 406.665 164.054 406.748 164.085C406.834 164.112 406.963 164.177 407.037 164.226C407.11 164.278 407.19 164.318 407.212 164.318C407.233 164.318 407.289 164.349 407.338 164.389C407.384 164.426 407.473 164.484 407.531 164.515C407.59 164.549 407.688 164.61 407.746 164.653C407.805 164.699 407.891 164.755 407.94 164.776C407.986 164.801 408.023 164.831 408.023 164.844C408.023 164.859 408.057 164.887 408.097 164.908C408.192 164.96 408.662 165.366 408.853 165.563C409.003 165.716 409.221 165.965 409.39 166.174C409.443 166.236 409.519 166.331 409.566 166.386C409.612 166.442 409.652 166.5 409.652 166.518C409.652 166.537 409.682 166.586 409.722 166.629C409.759 166.672 409.824 166.77 409.867 166.847C409.907 166.927 409.953 166.992 409.962 166.992C409.974 166.992 409.999 167.038 410.02 167.093C410.042 167.145 410.097 167.253 410.146 167.33C410.192 167.407 410.263 167.551 410.3 167.652C410.337 167.754 410.38 167.843 410.392 167.852C410.408 167.861 410.451 167.972 410.494 168.098C410.534 168.224 410.589 168.368 410.616 168.417C410.641 168.467 410.693 168.642 410.733 168.802C410.77 168.964 410.81 169.103 410.822 169.112C410.847 169.13 410.973 169.757 410.973 169.862C410.973 169.902 410.985 169.942 411.001 169.948C411.074 169.972 411.203 172.145 411.145 172.378L411.127 172.461H404.618H398.11L398.122 172.584C398.128 172.652 398.15 172.707 398.165 172.707C398.183 172.707 398.19 172.741 398.183 172.784C398.174 172.827 398.177 172.867 398.19 172.876C398.202 172.882 398.23 172.978 398.251 173.082C398.273 173.19 398.319 173.337 398.356 173.414C398.392 173.491 398.457 173.638 398.497 173.746C398.54 173.85 398.583 173.936 398.595 173.936C398.608 173.936 398.647 173.995 398.684 174.069C398.869 174.431 399.532 175.095 399.904 175.285C399.972 175.319 400.033 175.359 400.04 175.375C400.043 175.387 400.141 175.439 400.258 175.488C400.371 175.534 400.464 175.584 400.464 175.596C400.464 175.605 400.543 175.639 400.642 175.67C400.737 175.7 400.872 175.749 400.943 175.783C401.072 175.842 401.631 175.965 401.763 175.965C401.806 175.965 401.846 175.983 401.856 176.005C401.871 176.054 403.506 176.06 403.57 176.008C403.595 175.989 403.724 175.955 403.859 175.937C404.145 175.894 404.492 175.814 404.535 175.78C404.554 175.768 404.649 175.731 404.75 175.7C404.852 175.67 405.015 175.605 405.11 175.559C405.205 175.513 405.297 175.473 405.31 175.473C405.325 175.473 405.383 175.436 405.439 175.39C405.558 175.292 406.139 174.788 406.213 174.72C406.256 174.68 406.566 174.674 408.515 174.674H410.764L410.749 174.745C410.721 174.858 410.632 175.086 410.607 175.104C410.595 175.113 410.558 175.187 410.524 175.267C410.494 175.347 410.444 175.439 410.42 175.467C410.392 175.494 410.34 175.587 410.3 175.667C410.26 175.749 410.195 175.851 410.156 175.894C410.116 175.937 410.082 175.989 410.082 176.011C410.082 176.032 410.048 176.084 410.005 176.131C409.962 176.177 409.928 176.223 409.928 176.232C409.928 176.312 408.896 177.443 408.727 177.547C408.699 177.566 408.567 177.667 408.435 177.771C408.3 177.879 408.14 177.996 408.078 178.027C408.014 178.06 407.961 178.097 407.961 178.113C407.961 178.128 407.937 178.146 407.909 178.156C407.842 178.177 407.62 178.303 407.574 178.346C407.556 178.365 407.467 178.411 407.375 178.454C407.282 178.497 407.206 178.54 407.199 178.552C407.193 178.564 407.089 178.61 406.969 178.656C406.846 178.703 406.742 178.749 406.732 178.761C406.723 178.773 406.622 178.813 406.502 178.853C406.385 178.893 406.281 178.933 406.271 178.945C406.253 178.967 405.804 179.099 405.743 179.099C405.721 179.099 405.666 179.12 405.62 179.142C405.537 179.188 405.042 179.293 404.75 179.329C404.667 179.342 404.569 179.36 404.535 179.376C404.409 179.431 403.835 179.471 403.014 179.483C402.55 179.486 402.114 179.486 402.046 179.48ZM407.083 169.306C407.07 169.241 407.037 169.13 407.006 169.06C406.972 168.989 406.947 168.918 406.947 168.903C406.947 168.854 406.818 168.577 406.775 168.534C406.754 168.513 406.711 168.442 406.68 168.381C406.612 168.233 405.921 167.545 405.774 167.474C405.709 167.443 405.657 167.407 405.657 167.391C405.657 167.376 405.626 167.354 405.589 167.345C405.555 167.333 405.454 167.281 405.368 167.228C405.282 167.179 405.116 167.102 404.996 167.062C404.879 167.019 404.775 166.976 404.766 166.961C404.75 166.936 404.489 166.869 404.16 166.804C404.053 166.783 403.967 166.755 403.967 166.743C403.967 166.697 403.297 166.638 402.722 166.638C402.111 166.638 401.471 166.694 401.453 166.749C401.447 166.764 401.419 166.777 401.395 166.777C401.318 166.777 400.694 166.936 400.679 166.958C400.669 166.97 400.562 167.013 400.436 167.056C400.31 167.096 400.193 167.142 400.175 167.161C400.156 167.176 400.055 167.234 399.95 167.284C399.843 167.336 399.757 167.385 399.757 167.397C399.757 167.41 399.711 167.443 399.658 167.471C399.603 167.499 399.493 167.576 399.413 167.64C399.333 167.708 399.262 167.76 399.256 167.76C399.201 167.76 398.758 168.288 398.675 168.445C398.641 168.516 398.601 168.58 398.589 168.59C398.577 168.599 398.531 168.703 398.485 168.82C398.439 168.94 398.383 169.078 398.362 169.127C398.337 169.18 398.313 169.266 398.303 169.321L398.285 169.419H402.695H407.104L407.083 169.306Z" fill="white"/>
<path d="M370.134 179.434C369.94 179.419 369.753 179.394 369.719 179.379C369.685 179.363 369.575 179.339 369.473 179.329C369.23 179.302 368.665 179.194 368.6 179.16C368.573 179.148 368.413 179.096 368.244 179.05C368.075 179.004 367.931 178.958 367.921 178.945C367.912 178.936 367.811 178.896 367.691 178.856C367.574 178.816 367.47 178.776 367.46 178.764C367.451 178.752 367.356 178.706 367.245 178.656C367.135 178.61 367.039 178.561 367.03 178.552C367.021 178.54 366.935 178.491 366.84 178.444C366.741 178.398 366.661 178.346 366.661 178.331C366.661 178.315 366.64 178.3 366.615 178.294C366.471 178.263 365.776 177.661 365.531 177.357C365.349 177.129 365.19 176.899 365.186 176.865C365.186 176.843 365.168 176.816 365.146 176.803C365.122 176.791 365.064 176.696 365.014 176.595C364.965 176.493 364.91 176.395 364.891 176.373C364.873 176.355 364.827 176.25 364.787 176.143C364.747 176.035 364.704 175.943 364.689 175.934C364.676 175.925 364.627 175.793 364.581 175.642C364.535 175.488 364.489 175.359 364.477 175.35C364.455 175.335 364.366 174.981 364.311 174.705C364.298 174.646 364.277 174.582 364.261 174.563C364.246 174.545 364.203 174.33 364.166 174.087C364.126 173.844 364.089 173.641 364.077 173.635C364.068 173.632 364.065 173.592 364.074 173.549C364.08 173.506 364.074 173.442 364.056 173.405C364.013 173.322 363.933 172.483 363.908 171.825C363.896 171.549 363.874 171.324 363.859 171.324C363.844 171.324 363.837 171.023 363.84 170.648C363.847 170.277 363.84 169.972 363.828 169.972C363.801 169.972 363.794 168.7 363.819 168.676C363.828 168.666 363.837 168.043 363.834 167.29C363.834 166.389 363.844 165.913 363.865 165.901C363.908 165.876 363.908 164.331 363.865 164.303C363.847 164.294 363.834 164.146 363.834 163.965C363.834 163.704 363.844 163.645 363.884 163.63C363.911 163.621 364.851 163.611 365.976 163.611H368.023L368.004 167.969C367.989 172.08 368.001 173.119 368.072 173.168C368.084 173.177 368.112 173.3 368.133 173.445C368.183 173.771 368.238 173.976 368.318 174.142C368.355 174.213 368.382 174.29 368.382 174.311C368.385 174.357 368.582 174.671 368.711 174.825C368.935 175.101 369.326 175.405 369.596 175.516C369.661 175.544 369.725 175.577 369.734 175.593C369.753 175.617 370.036 175.71 370.195 175.737C370.254 175.749 370.318 175.771 370.337 175.786C370.478 175.894 371.633 175.894 371.87 175.783C371.904 175.765 372.014 175.731 372.116 175.703C372.346 175.642 372.709 175.464 372.921 175.313C373.01 175.249 373.087 175.196 373.093 175.196C373.118 175.196 373.345 174.96 373.465 174.812C373.603 174.646 373.809 174.256 373.874 174.044C373.898 173.961 373.932 173.875 373.95 173.853C373.966 173.832 373.972 173.804 373.963 173.786C373.953 173.771 373.957 173.752 373.972 173.746C374.009 173.734 374.129 172.941 374.129 172.717C374.129 172.627 374.144 172.554 374.159 172.554C374.178 172.554 374.19 172.148 374.19 171.401C374.19 170.655 374.178 170.249 374.159 170.249C374.138 170.249 374.129 169.121 374.129 166.93V163.611H376.181H378.234L378.222 164.235C378.213 164.576 378.225 165.99 378.243 167.376C378.271 169.269 378.271 170.178 378.246 171.033C378.228 171.656 378.2 172.176 378.188 172.185C378.176 172.194 378.148 172.422 378.13 172.692C378.083 173.319 378.001 173.949 377.967 173.961C377.951 173.967 377.939 174.007 377.939 174.047C377.939 174.148 377.782 174.901 377.758 174.92C377.749 174.929 377.709 175.058 377.669 175.209C377.629 175.362 377.57 175.541 377.54 175.611C377.509 175.679 377.45 175.826 377.414 175.934C377.377 176.044 377.337 176.14 377.324 176.149C377.315 176.158 377.275 176.241 377.235 176.333C377.195 176.426 377.149 176.518 377.128 176.533C377.109 176.552 377.06 176.625 377.02 176.702C376.98 176.779 376.91 176.89 376.867 176.948C376.821 177.006 376.771 177.08 376.762 177.111C376.75 177.138 376.728 177.163 376.713 177.163C376.695 177.163 376.661 177.203 376.633 177.252C376.581 177.357 376.098 177.87 376.055 177.87C376.04 177.87 376 177.904 375.966 177.947C375.932 177.99 375.886 178.023 375.865 178.023C375.84 178.023 375.803 178.048 375.782 178.079C375.736 178.14 375.496 178.3 375.45 178.3C375.435 178.3 375.419 178.312 375.419 178.328C375.419 178.343 375.358 178.386 375.281 178.423C375.204 178.46 375.124 178.506 375.103 178.527C375.081 178.549 374.971 178.604 374.851 178.653C374.734 178.703 374.596 178.767 374.543 178.798C374.494 178.829 374.436 178.853 374.414 178.853C374.393 178.853 374.304 178.887 374.215 178.927C374.126 178.967 373.929 179.031 373.775 179.071C373.625 179.108 373.493 179.151 373.483 179.16C373.462 179.188 373.038 179.271 372.684 179.317C372.525 179.339 372.386 179.366 372.377 179.379C372.325 179.449 370.847 179.486 370.134 179.434Z" fill="white"/>
<path d="M346.718 168.636V158.172H348.854H350.99V162.106V166.039H354.631H358.272L358.279 165.895C358.282 165.812 358.285 164.232 358.285 162.382C358.288 160.532 358.3 158.827 358.315 158.593L358.343 158.172H360.43H362.513V168.636V179.099H360.393H358.272V174.52V169.942H354.631H350.99V174.52V179.099H348.854H346.718V168.636Z" fill="white"/>
<path d="M379.107 171.355V163.611H380.904H382.702L382.705 164.466C382.705 165.074 382.714 165.292 382.739 165.234C382.754 165.185 382.782 165.148 382.794 165.148C382.81 165.148 382.843 165.102 382.871 165.043C382.948 164.881 383.286 164.506 383.572 164.263C383.713 164.14 383.845 164.042 383.864 164.042C383.882 164.042 383.901 164.026 383.907 164.005C383.937 163.913 384.933 163.43 385.099 163.427C385.124 163.427 385.185 163.406 385.234 163.381C385.548 163.218 386.86 163.2 387.204 163.35C387.256 163.375 387.398 163.424 387.52 163.461C387.643 163.495 387.763 163.547 387.788 163.572C387.828 163.608 387.834 163.894 387.834 165.55V167.483H387.766C387.659 167.483 387.465 167.422 387.465 167.391C387.465 167.373 387.45 167.36 387.428 167.36C387.41 167.36 387.348 167.327 387.293 167.284C387.238 167.241 387.186 167.207 387.176 167.207C387.167 167.207 387.133 167.185 387.106 167.158C386.964 167.029 386.617 166.841 386.451 166.804C386.35 166.783 386.267 166.755 386.267 166.743C386.267 166.709 385.824 166.654 385.56 166.654C385.296 166.654 385.007 166.703 385.007 166.749C385.007 166.764 384.988 166.777 384.964 166.777C384.893 166.777 384.577 166.927 384.577 166.961C384.577 166.976 384.561 166.992 384.54 166.992C384.491 166.992 384.146 167.333 384.146 167.379C384.146 167.4 384.113 167.446 384.07 167.486C384.03 167.526 383.993 167.569 383.993 167.582C383.993 167.594 383.947 167.683 383.888 167.781C383.83 167.88 383.759 168.036 383.732 168.129C383.701 168.221 383.664 168.304 383.652 168.313C383.624 168.331 383.47 168.977 383.47 169.078C383.47 169.109 383.458 169.143 383.443 169.149C383.4 169.164 383.289 170.098 383.264 170.624C383.255 170.873 383.234 171.079 383.218 171.079C383.185 171.079 383.188 173.402 383.221 173.469C383.274 173.562 383.323 177.077 383.286 178.054C383.268 178.537 383.24 178.942 383.221 178.958C383.206 178.976 383.194 179.013 383.194 179.044C383.194 179.096 383.099 179.099 381.15 179.099H379.107V171.355Z" fill="white"/>
<path d="M388.879 171.825C388.879 167.821 388.863 163.138 388.845 161.414C388.83 159.693 388.823 158.249 388.833 158.212C388.842 158.172 388.869 158.142 388.894 158.142C388.919 158.142 388.94 158.129 388.94 158.111C388.94 158.089 389.613 158.08 390.895 158.08C392.486 158.08 392.855 158.086 392.889 158.12C392.969 158.2 393.003 163.673 392.978 171.764L392.956 179.099H390.919H388.879V171.825Z" fill="white"/>
<path d="M392.975 171.125C392.975 171.057 392.981 171.033 392.987 171.072C392.993 171.109 392.993 171.165 392.987 171.195C392.978 171.223 392.972 171.192 392.975 171.125Z" fill="white"/>
</g>
<g style="mix-blend-mode:soft-light">
<path fill-rule="evenodd" clip-rule="evenodd" d="M255.444 79.6193C257.157 80.7677 259.449 81.4191 262.339 81.588C263.01 81.6266 265.635 81.5687 266.393 81.5011C268.231 81.3322 269.568 81.0717 270.976 80.6036C272.689 80.0391 273.934 79.3491 275.126 78.3165C276.424 77.1874 277.22 75.817 277.519 74.2102C277.635 73.5733 277.626 72.4683 277.5 71.8604C277.148 70.2294 276.183 68.9073 274.499 67.7734C272.472 66.4127 269.741 65.6262 266.253 65.3994C265.114 65.327 262.696 65.3656 261.809 65.4718C259.246 65.7806 257.355 66.3886 255.656 67.4549C255.381 67.6286 255.135 67.7686 255.106 67.7686C255.068 67.7686 255.053 66.7263 255.053 64.1256L255.053 63.7783V63.7783C255.054 60.6557 255.054 60.2543 254.868 60.1289C254.84 60.1104 254.809 60.0979 254.773 60.0836L254.745 60.0724C254.605 60.0145 254.281 60 253.065 60C252.153 60 251.483 60.0193 251.372 60.0531C251.246 60.0869 251.159 60.1544 251.097 60.2557C251 60.4053 251 60.5935 251 70.6058L251 72.252C250.999 80.5578 250.999 81.0696 251.175 81.1398C251.187 81.1444 251.199 81.1471 251.212 81.15L251.212 81.15C251.223 81.1523 251.234 81.1548 251.246 81.1585C251.304 81.1778 252.057 81.1923 252.916 81.1923C254.339 81.1923 254.489 81.1875 254.571 81.1103C254.72 80.9752 254.764 80.7243 254.764 79.9667C254.764 79.3877 254.778 79.2526 254.831 79.2526C254.87 79.2526 255.145 79.4166 255.444 79.6193ZM271.218 77.5734C269.92 78.5529 268.105 79.1464 265.789 79.3442C265.128 79.4021 263.131 79.4021 262.412 79.3442C260.651 79.2043 258.749 78.7218 257.524 78.0993C256.361 77.5107 255.502 76.6663 255.106 75.7157C254.614 74.5239 254.764 72.589 255.468 71.1897C256.293 69.5394 257.91 68.4779 260.385 67.9664C262.436 67.5418 265.64 67.5418 267.84 67.9664C270.841 68.5454 272.574 69.8627 273.129 71.9906C273.297 72.6324 273.341 73.7518 273.225 74.4081C273.085 75.2187 272.743 75.9859 272.26 76.5746C271.879 77.0426 271.72 77.1922 271.218 77.5734ZM316.912 79.5372C318.611 80.7098 320.811 81.3756 323.643 81.5638C325.014 81.6555 327.031 81.6073 328.541 81.4432C332.411 81.0282 335.335 79.8026 337.255 77.7953C338.042 76.9702 338.539 76.1596 338.862 75.1704C339.128 74.3501 339.181 74.0027 339.176 73.028C339.176 72.3139 339.157 72.1112 339.065 71.7252C338.949 71.2572 338.693 70.5768 338.52 70.2777C337.125 67.9085 334.201 66.2824 330.182 65.6503C328.768 65.4235 328.078 65.3801 326.056 65.3801C323.981 65.3801 323.412 65.4235 322.027 65.6744C320.092 66.0267 318.374 66.6877 317.047 67.5852C316.898 67.6865 316.739 67.7686 316.7 67.7686C316.632 67.7686 316.623 67.3825 316.623 64.058C316.623 60.3908 316.623 60.3474 316.521 60.2268C316.357 60.0096 316.184 59.9952 314.514 60.0096C313.028 60.0241 312.956 60.0289 312.825 60.1254C312.753 60.1785 312.666 60.2991 312.632 60.3908C312.56 60.5935 312.546 80.5119 312.618 80.8159C312.642 80.9172 312.7 81.0475 312.753 81.1006C312.845 81.1923 312.922 81.1971 314.476 81.1971C316.073 81.1971 316.102 81.1923 316.203 81.091C316.304 80.9945 316.309 80.9317 316.324 80.1211C316.338 79.3442 316.348 79.2526 316.42 79.2526C316.464 79.2526 316.686 79.378 316.912 79.5372ZM331.702 78.2393C330.655 78.7604 329.55 79.0837 328.107 79.2815C327.455 79.3684 324.734 79.4166 324.005 79.3491C320.666 79.0402 318.133 77.9642 317.062 76.3912C316.608 75.7253 316.425 75.0691 316.425 74.0992C316.43 72.6517 316.797 71.3923 317.491 70.4659C318.572 69.0231 320.406 68.1353 323.007 67.7975C324.985 67.537 327.706 67.619 329.53 67.9857C332.035 68.4923 333.608 69.4912 334.38 71.0738C334.669 71.6673 334.799 72.1499 334.872 72.9122C335.094 75.2525 333.994 77.1005 331.702 78.2393ZM292.907 81.4432C289.607 81.2454 287.291 80.7387 285.235 79.764C283.098 78.7507 281.689 77.3659 281.114 75.7205C280.873 75.0305 280.801 74.5431 280.801 73.7036C280.806 72.8881 280.883 72.3091 281.09 71.6384C282.022 68.5599 285.206 66.4609 290.195 65.6213C293.332 65.1002 297.448 65.0857 300.483 65.5972C304.497 66.2727 307.455 67.894 308.806 70.1619C309.298 70.9966 309.462 71.5612 309.385 72.1836C309.279 73.0329 308.676 73.7615 307.841 74.051L307.528 74.162L296.372 74.1764L285.211 74.1861V74.4563C285.211 75.098 285.481 75.9183 285.882 76.4877C287.127 78.2489 289.92 79.1367 294.548 79.2381C297.636 79.3008 300.42 79.0016 302.268 78.3985C302.775 78.2344 303.648 77.8243 304.034 77.5637C304.425 77.2983 304.975 76.8641 305.134 76.6855C305.351 76.4443 305.482 76.4539 306.76 76.8351C307.759 77.1343 307.933 77.197 308.049 77.3225C308.213 77.5058 308.232 77.8243 308.082 78.0125C307.856 78.302 306.669 79.1126 305.921 79.489C303.793 80.5602 301.472 81.1103 297.901 81.3805C297.255 81.4287 293.462 81.477 292.907 81.4432ZM305.091 72.0244C305.091 71.9713 305.047 71.7687 304.999 71.5708C304.444 69.3995 302.302 68.1256 298.398 67.6528C296.927 67.4694 294.307 67.4356 293.004 67.5756C289.607 67.9374 286.659 69.2306 285.592 70.8229C285.385 71.1366 285.211 71.6336 285.211 71.9231V72.1112H295.151C304.772 72.1112 305.091 72.1064 305.091 72.0244ZM343.33 76.9607C345.01 79.4891 348.942 81.1103 354.144 81.4191C355.065 81.477 357.478 81.477 358.578 81.424C362.014 81.2551 364.33 80.8305 366.376 80.0005C368.026 79.3298 369.691 78.2442 369.777 77.7858C369.816 77.5735 369.695 77.2984 369.522 77.2116C369.449 77.173 368.89 76.9944 368.286 76.8159C367.037 76.4492 366.94 76.4444 366.689 76.729C366.511 76.9269 365.797 77.4721 365.377 77.723C364.257 78.3937 362.54 78.8618 360.388 79.0789C358.617 79.2623 355.818 79.2961 354.259 79.1561C349.994 78.7749 347.673 77.6024 346.983 75.489C346.877 75.1705 346.785 74.6301 346.78 74.3454V74.1862H357.724C364.47 74.1862 368.803 74.1669 369.02 74.1379C370.337 73.9642 371.225 72.6952 370.95 71.3779C370.882 71.0594 370.501 70.2874 370.173 69.8049C369.845 69.3272 368.875 68.3525 368.349 67.9761C366.665 66.7746 364.335 65.9206 361.642 65.5249C359.9 65.2644 357.801 65.1679 355.794 65.2499C353.893 65.3319 352.855 65.4332 351.485 65.6745C347.282 66.4176 344.295 68.1836 343.094 70.6396C342.621 71.5998 342.452 72.285 342.404 73.3997C342.346 74.8376 342.621 75.8943 343.33 76.9607ZM366.308 70.7844C366.424 71.0112 366.636 71.6722 366.675 71.9328L366.704 72.1113H356.735H346.766L346.8 71.8604C346.944 70.7699 347.847 69.8193 349.531 68.9749C351.195 68.145 352.986 67.6914 355.297 67.5226C356.238 67.455 358.448 67.4936 359.519 67.5998C363.176 67.9616 365.411 69.0087 366.308 70.7844Z" fill="white"/>
</g>
<g style="mix-blend-mode:soft-light">
<path fill-rule="evenodd" clip-rule="evenodd" d="M95.8199 265.976H89V280.348H91.0969V274.688H95.5553C97.1273 274.688 98.1769 274.47 99.2265 273.597C100.276 272.727 100.799 271.64 100.799 270.333C100.801 268.154 99.2288 265.976 95.8199 265.976ZM97.9168 272.508C97.392 272.943 96.6048 273.163 95.5553 273.163H91.0969V267.501H95.8176C97.9145 267.501 98.9641 269.028 98.9641 270.333C98.9664 271.202 98.4416 271.858 97.9168 272.508ZM129.913 278.823V273.597H137.257V271.858H129.913V267.717H138.83V265.976H128.076V280.348H138.83V278.823H129.913ZM319.004 278.823V273.597H326.347V271.858H319.004V267.717H327.921V265.976H317.168V280.348H328.184V278.823H319.004ZM356.771 278.823V265.976H354.936V280.348H365.163V278.823H356.771ZM394.277 278.823V265.976H392.436V280.348H402.669V278.823H394.277ZM429.419 280.348H431.514V265.976H429.419V280.348ZM178.693 280.348L175.021 274.033C175.544 273.815 176.069 273.597 176.594 273.163C177.381 272.29 178.166 271.202 177.906 270.115C177.906 267.937 175.809 265.976 172.922 265.976H166.105V280.348H167.941V274.468H173.187L176.596 280.348H178.693ZM167.941 272.945V267.501H172.925C175.286 267.501 176.071 269.028 176.071 270.115C176.071 270.985 175.809 271.64 175.284 272.072C174.759 272.508 173.972 272.945 172.662 272.945H167.941ZM219.083 280.348L215.412 274.033C215.934 273.815 216.459 273.597 216.984 273.163C217.771 272.29 218.296 271.202 218.296 270.115C218.296 267.937 216.199 265.976 213.313 265.976H206.495V280.348H208.332V274.468H213.577L216.986 280.348H219.083ZM208.329 272.945V267.501H213.313C215.674 267.501 216.459 269.028 216.459 270.115C216.459 270.985 216.197 271.64 215.672 272.072C215.147 272.508 214.36 272.945 213.05 272.945H208.329ZM471.639 270.115C471.382 267.501 468.493 265.76 465.084 265.76C461.938 265.76 458.791 267.067 458.791 269.679C458.791 271.422 460.363 272.727 462.727 273.165C462.727 273.165 466.658 274.035 467.71 274.252C468.419 274.328 469.071 274.61 469.551 275.049C470.031 275.488 470.307 276.054 470.33 276.647C470.33 278.39 467.973 279.477 465.346 279.477C462.727 279.477 460.363 277.952 460.101 276.213H458.002C458.527 278.825 461.673 281 465.346 281C467.708 281 469.545 280.348 470.854 279.257C471.639 278.606 472.164 277.736 472.164 276.645C472.164 275.12 470.854 273.163 468.228 272.727L462.983 271.64C461.935 271.422 460.626 270.767 460.626 269.679C460.626 269.244 460.888 268.592 461.411 268.374C462.2 267.719 463.51 267.287 465.082 267.287C467.443 267.287 469.28 268.374 469.805 269.899L471.639 270.115ZM259.208 265.976H257.112L252.128 272.945L247.145 265.976H245.046L251.079 274.688V280.348H252.913V274.688L259.208 265.976ZM484.23 254C481.346 254 478.726 255.959 478.726 258.573C478.726 261.185 481.346 263.146 484.23 263.146C487.381 263.146 490 261.185 490 258.573C490 255.961 487.381 254 484.23 254ZM484.23 254.871H484.492C486.854 254.871 488.69 256.394 488.69 258.573C488.69 260.75 486.854 262.274 484.23 262.274C481.873 262.274 479.774 260.75 479.774 258.573C479.774 256.396 481.608 254.871 484.23 254.871ZM482.135 255.961V261.187H483.182V259.011H484.23L486.066 261.187H487.118L485.281 258.793C486.329 258.793 486.854 258.139 486.854 257.486C486.854 256.396 486.064 255.961 484.754 255.961H482.135ZM483.182 258.137V256.614H484.492C485.544 256.614 485.802 256.832 485.802 257.484C485.802 257.919 485.544 258.137 484.754 258.137H483.182Z" fill="white"/>
</g>
<defs>
<filter id="filter0_b_2772_10282" x="-27.7058" y="-27.7058" width="608.998" height="375.412" filterUnits="userSpaceOnUse" color-interpolation-filters="sRGB">
<feFlood flood-opacity="0" result="BackgroundImageFix"/>
<feGaussianBlur in="BackgroundImage" stdDeviation="13.8529"/>
<feComposite in2="SourceAlpha" operator="in" result="effect1_backgroundBlur_2772_10282"/>
<feBlend mode="normal" in="SourceGraphic" in2="effect1_backgroundBlur_2772_10282" result="shape"/>
</filter>
<linearGradient id="paint0_linear_2772_10282" x1="-18.1216" y1="72" x2="545.121" y2="337.931" gradientUnits="userSpaceOnUse">
<stop stop-color="white" stop-opacity="0.15"/>
<stop offset="0.478482" stop-color="#9A9A9A" stop-opacity="0.05"/>
<stop offset="0.596382" stop-color="#C9C9C9" stop-opacity="0.1"/>
<stop offset="0.677177" stop-color="white" stop-opacity="0.06"/>
<stop offset="0.836879" stop-color="#818FA1" stop-opacity="0.0606355"/>
<stop offset="1" stop-color="#001C41" stop-opacity="0"/>
</linearGradient>
<radialGradient id="paint1_radial_2772_10282" cx="0" cy="0" r="1" gradientUnits="userSpaceOnUse" gradientTransform="translate(130.07 65.2602) rotate(33.1332) scale(558.69 966.51)">
<stop offset="0.54167" stop-color="white" stop-opacity="0"/>
<stop offset="0.965051" stop-color="white" stop-opacity="0.4"/>
</radialGradient>
<radialGradient id="paint2_radial_2772_10282" cx="0" cy="0" r="1" gradientUnits="userSpaceOnUse" gradientTransform="translate(529.958 267.567) rotate(165.793) scale(366.773 168.845)">
<stop offset="0.0968932" stop-color="#219653" stop-opacity="0.8"/>
<stop offset="0.986243" stop-color="#001C41"/>
</radialGradient>
<radialGradient id="paint3_radial_2772_10282" cx="0" cy="0" r="1" gradientUnits="userSpaceOnUse" gradientTransform="translate(276.793 22.7286) rotate(90) scale(297.271 484.74)">
<stop stop-color="white" stop-opacity="0.41"/>
<stop offset="1" stop-color="white" stop-opacity="0.11"/>
</radialGradient>
<radialGradient id="paint4_radial_2772_10282" cx="0" cy="0" r="1" gradientUnits="userSpaceOnUse" gradientTransform="translate(542.56 293.896) rotate(-151.848) scale(686.821 1188.17)">
<stop offset="0.611484" stop-color="#EB5757" stop-opacity="0"/>
<stop offset="0.959865" stop-color="#ED7D7D"/>
</radialGradient>
<radialGradient id="paint5_radial_2772_10282" cx="0" cy="0" r="1" gradientUnits="userSpaceOnUse" gradientTransform="translate(377.159 75.6118) rotate(-34.6943) scale(377.394 171.412)">
<stop stop-color="#F2C94C"/>
<stop offset="0.0947279" stop-color="#D9B74B" stop-opacity="0.895326"/>
<stop offset="0.19534" stop-color="#BEA44A" stop-opacity="0.78415"/>
<stop offset="0.904978" stop-color="#001C41" stop-opacity="0"/>
</radialGradient>
<clipPath id="clip0_2772_10282">
<rect width="164.324" height="38" fill="white" transform="translate(87 159)"/>
</clipPath>
</defs>
</svg>
