<?xml version="1.0" encoding="UTF-8"?>
<svg version="1.1" xmlns="http://www.w3.org/2000/svg" width="512" height="512">
<path d="M0 0 C4.28816371 3.36632065 8.16893418 7.1251148 12 11 C12.60328125 11.60199219 13.2065625 12.20398438 13.828125 12.82421875 C14.21484375 13.21222656 14.6015625 13.60023438 15 14 C18.04844675 12.63021335 20.20226664 11.03870982 22.625 8.75 C36.35520933 -3.4153693 54.20849168 -8.7244175 72.375 -7.875 C92.35765169 -6.51310646 109.56704396 1.6832816 123.25 16.375 C137.39805712 33.11354646 140.31639776 52.68759378 139 74 C136.44967184 94.91093813 122.7068402 110.07429187 107.68066406 123.49267578 C104.96891435 125.92474184 102.29809569 128.40062464 99.625 130.875 C99.09422852 131.36476318 98.56345703 131.85452637 98.01660156 132.35913086 C93.18817688 136.81597175 88.38690349 141.30167709 83.58642578 145.78857422 C79.04615199 150.02997682 74.48627185 154.24942588 69.91625977 158.45874023 C65.73989081 162.30880049 61.58641328 166.18288738 57.4375 170.0625 C52.02184946 175.12591311 46.57426274 180.15094194 41.09765625 185.1484375 C38.8163603 187.23882069 36.55854112 189.35248226 34.30859375 191.4765625 C28.60000953 196.86491083 22.87779333 202.24181174 16.9375 207.375 C16.12152344 208.08398438 15.30554688 208.79296875 14.46484375 209.5234375 C11.17914432 211.49173288 9.77926042 211.78638222 6 211 C0.20998474 207.0356385 -4.52065885 201.51465218 -9.25 196.375 C-9.89622314 195.67914795 -10.54244629 194.9832959 -11.20825195 194.26635742 C-13.14284786 192.18124266 -15.07192995 190.09114821 -17 188 C-18.07139156 186.84224149 -19.1429911 185.68467539 -20.21484375 184.52734375 C-23.14859523 181.35649259 -26.0747402 178.17868332 -29 175 C-30.95752572 172.87425455 -32.91587266 170.74926945 -34.875 168.625 C-35.36436035 168.09438965 -35.8537207 167.5637793 -36.35791016 167.01708984 C-40.24345789 162.80890175 -44.15080995 158.62138158 -48.0625 154.4375 C-53.12896384 149.0184907 -58.15491 143.56548025 -63.16015625 138.08984375 C-66.39646758 134.55942674 -69.66716962 131.06137556 -72.9375 127.5625 C-73.52813232 126.92916748 -74.11876465 126.29583496 -74.72729492 125.64331055 C-77.55515174 122.61149751 -80.38934602 119.58644896 -83.2421875 116.578125 C-100.18442673 98.63255178 -111.60124274 80.56262824 -111.41992188 55.16259766 C-110.8651386 37.363301 -103.22314789 21.8079875 -91 9 C-65.71507907 -14.43390182 -29.25552873 -20.12767577 0 0 Z M-82 24 C-84.66252908 27.51533169 -86.90653966 31.12195051 -89 35 C-89.40992188 35.75023437 -89.81984375 36.50046875 -90.2421875 37.2734375 C-95.95632116 48.82683183 -96.42782988 62.40401035 -92.375 74.5625 C-88.94941602 83.03370949 -84.66430638 91.06749258 -77.84350586 97.25195312 C-76.02029675 98.98075424 -74.39814595 100.77882637 -72.765625 102.6875 C-69.04008539 106.98604809 -65.16547147 111.12478815 -61.25 115.25 C-55.7052989 121.11554258 -50.20994682 127.0180343 -44.76953125 132.98046875 C-41.55971881 136.49028557 -38.31099242 139.9635157 -35.0625 143.4375 C-29.17079146 149.73906653 -23.30851851 156.06686355 -17.46337891 162.41162109 C-14.99761009 165.08801281 -12.53032879 167.76300773 -10.0625 170.4375 C-9.33667725 171.22411011 -9.33667725 171.22411011 -8.59619141 172.02661133 C-2.74501413 178.36426284 3.12739323 184.68221175 9 191 C16.8881652 184.26219223 24.66096421 177.45413624 32.1875 170.3125 C38.89880842 163.97029889 45.6505677 157.67616366 52.44824219 151.42675781 C55.09274565 148.99527917 57.73435641 146.56066944 60.375 144.125 C60.90641602 143.63483398 61.43783203 143.14466797 61.98535156 142.63964844 C66.81236425 138.18238896 71.61364495 133.69781029 76.41357422 129.21142578 C79.90442355 125.95036751 83.4023953 122.69749596 86.91552734 119.46044922 C87.96908233 118.48936048 89.02149868 117.51703491 90.07275391 116.54345703 C92.99550522 113.83773727 95.93629679 111.15476955 98.8984375 108.4921875 C111.60717185 96.99210512 122.11155308 84.64228868 123.203125 66.65234375 C123.41403022 49.93810508 119.21587585 36.67057199 107.546875 24.35546875 C93.88197781 11.7175347 79.09528707 8.26069923 61.11132812 8.86816406 C56.72036307 9.14234551 52.99279034 10.20564139 49 12 C47.70255859 12.56847656 47.70255859 12.56847656 46.37890625 13.1484375 C39.46849081 16.53993217 34.30953108 21.12346666 28.7890625 26.359375 C26.4658347 28.55895762 24.15328578 30.7126326 21.6875 32.75 C21.13449219 33.21921875 20.58148438 33.6884375 20.01171875 34.171875 C16.69419676 35.53753454 14.41384069 34.91330366 11 34 C8.0859375 31.671875 8.0859375 31.671875 5.375 28.75 C4.47523438 27.79609375 3.57546875 26.8421875 2.6484375 25.859375 C1.77445312 24.91578125 0.90046875 23.9721875 0 23 C-11.41984327 11.30331205 -23.80342319 4.25729634 -40.375 3.6875 C-56.81899964 4.10321909 -71.03689688 11.98443898 -82 24 Z " fill="#000000" transform="translate(313,170)"/>
<path d="M0 0 C2.45407097 1.73719398 4.76251997 3.53476042 7.02734375 5.51171875 C9.148281 7.11187141 10.34718045 7.84062518 13 8 C15.19932878 6.91593498 15.19932878 6.91593498 17.3125 5.25 C27.20590118 -1.75173384 37.71278015 -3.57455739 49.71875 -1.5390625 C59.96490787 1.21702427 70.41243959 7.41939047 76.00585938 16.66210938 C82.36778992 28.1431175 85.11871403 39.14495304 82.31640625 52.1796875 C77.83487922 65.30814427 68.40644705 74.45474612 58.1640625 83.3515625 C53.91894179 87.04109689 49.82889264 90.87854064 45.75 94.75 C39.84934623 100.32725996 33.93399336 105.88047512 27.90234375 111.31640625 C25.77187551 113.28630084 23.72409596 115.27415009 21.69140625 117.33984375 C12.2893837 126.77309324 12.2893837 126.77309324 7.4375 127.5 C-0.05327535 126.39638669 -5.9598082 117.49295799 -10.67211914 112.07885742 C-14.75031116 107.39615085 -18.92241725 102.82542168 -23.1875 98.3125 C-24.50950061 96.90791531 -25.83111016 95.50296246 -27.15234375 94.09765625 C-27.80187012 93.40687988 -28.45139648 92.71610352 -29.12060547 92.00439453 C-32.33676904 88.57432141 -35.53229683 85.12529589 -38.70825195 81.65795898 C-41.10118127 79.04597867 -43.51230125 76.45901337 -45.9765625 73.9140625 C-55.58527668 63.90685234 -62.7651672 52.78025134 -63.375 38.5 C-62.84407249 25.00961475 -56.67730847 14.05541247 -47 5 C-43.81630827 2.61971637 -40.5736239 0.73249286 -37 -1 C-36.32839844 -1.33902344 -35.65679687 -1.67804688 -34.96484375 -2.02734375 C-24.4858406 -6.40873813 -9.85507805 -5.47328572 0 0 Z M-37.88671875 19.72265625 C-43.39500596 25.53118553 -45.56116124 31.05045119 -46.4375 38.9375 C-45.80640405 49.99256011 -38.97802763 56.84498339 -31.62011719 64.33544922 C-29.06360983 66.96207176 -26.59870656 69.67069016 -24.125 72.375 C-19.16573348 77.75714972 -14.17014042 83.105023 -9.171875 88.45092773 C-3.74167774 94.26454916 1.63790695 100.12358374 7 106 C10.05941832 104.62648686 12.23633583 103.04308962 14.65234375 100.7265625 C15.3395752 100.07284668 16.02680664 99.41913086 16.73486328 98.74560547 C17.82516846 97.69590576 17.82516846 97.69590576 18.9375 96.625 C20.47477284 95.1609462 22.01253743 93.69740858 23.55078125 92.234375 C24.3082666 91.51185547 25.06575195 90.78933594 25.84619141 90.04492188 C28.74563746 87.29205856 31.68010286 84.57905226 34.625 81.875 C35.66286912 80.91808664 36.70062851 79.96105424 37.73828125 79.00390625 C39.45159761 77.42469848 41.16654364 75.84735298 42.88427734 74.27294922 C58.35132634 61.78615756 58.35132634 61.78615756 66.3359375 44.73046875 C66.41580012 37.48692896 66.23962955 32.00857843 62 26 C61.38125 25.0925 60.7625 24.185 60.125 23.25 C54.44840399 17.23948658 48.35640513 14.94605114 40.25 14.5625 C33.06693482 14.70491517 27.3326652 16.8562308 22.0703125 21.8203125 C20.92676417 23.03501495 19.78598358 24.25233099 18.6484375 25.47265625 C15.96351624 27.96034396 13.58619203 28.60877905 10 29 C5.64537767 27.72990182 3.51851071 25.54035901 0.75 22.125 C-3.90952412 16.53974262 -9.94763495 13.3033804 -17.125 12.0625 C-25.09617708 11.93393263 -31.9401809 14.29320865 -37.88671875 19.72265625 Z " fill="#000000" transform="translate(96,354)"/>
<path d="M0 0 C1.6484375 1.37109375 1.6484375 1.37109375 3.8359375 3.62109375 C4.403125 3.33363281 4.9703125 3.04617188 5.5546875 2.75 C7.7971659 1.64028038 10.05463085 0.58596301 12.3359375 -0.44140625 C13.08875 -0.78300781 13.8415625 -1.12460937 14.6171875 -1.4765625 C22.81294359 -4.8096957 32.24818047 -4.25595754 40.5234375 -1.41796875 C49.74671355 2.72627353 56.32334153 10.24393893 60.08984375 19.49609375 C63.4984388 29.20434351 62.0029357 38.37604308 57.98046875 47.578125 C52.72356219 57.1452921 43.04084335 64.73973542 34.90014648 71.79760742 C32.08220999 74.28692353 29.36541252 76.87469309 26.64599609 79.47070312 C21.08627275 84.77590957 15.50527645 90.07208471 9.7109375 95.12109375 C8.92460937 95.81203125 8.13828125 96.50296875 7.328125 97.21484375 C3.9851931 99.10113761 1.61457056 99.0050657 -2.1640625 98.62109375 C-5.86775436 96.15196584 -8.4821228 93.30191189 -11.37109375 89.9453125 C-15.09159544 85.67058973 -18.95164705 81.54430252 -22.8515625 77.43359375 C-24.26078707 75.94045366 -25.66963763 74.44696051 -27.078125 72.953125 C-28.11308105 71.85605225 -28.11308105 71.85605225 -29.16894531 70.73681641 C-54.07136163 44.3290411 -54.07136163 44.3290411 -54.6640625 29.68359375 C-54.22283108 19.3480819 -51.04207225 11.26139848 -43.8046875 3.8203125 C-31.29581921 -6.59757633 -14.13327477 -9.00549818 0 0 Z M-34.0390625 18.68359375 C-36.64851221 22.29077423 -37.36120308 24.95103808 -37.5390625 29.30859375 C-37.58804687 30.11683594 -37.63703125 30.92507813 -37.6875 31.7578125 C-36.26364765 39.54649735 -29.92163864 45.34096738 -24.6015625 50.80859375 C-23.1765902 52.29770535 -21.75211604 53.78729378 -20.328125 55.27734375 C-19.6259082 56.00824219 -18.92369141 56.73914063 -18.20019531 57.4921875 C-15.25914201 60.56724563 -12.36235506 63.68174122 -9.4765625 66.80859375 C-9.00855225 67.31221436 -8.54054199 67.81583496 -8.05834961 68.3347168 C-4.97406176 71.67345979 -2.04967383 75.11156645 0.8359375 78.62109375 C3.6723469 77.32394357 5.79520866 75.93302377 8.05078125 73.78515625 C8.64818115 73.22127197 9.24558105 72.6573877 9.86108398 72.07641602 C10.80769897 71.17040649 10.80769897 71.17040649 11.7734375 70.24609375 C13.1168892 68.97624684 14.4606448 67.70672137 15.8046875 66.4375 C16.47886719 65.79828613 17.15304687 65.15907227 17.84765625 64.50048828 C20.80322825 61.70677595 23.78562379 58.94273468 26.7734375 56.18359375 C27.30759277 55.68714355 27.84174805 55.19069336 28.39208984 54.67919922 C31.31776169 51.97132841 34.31267478 49.39322084 37.3984375 46.87109375 C41.72940266 43.08035469 44.26257001 39.07921643 45.2109375 33.359375 C45.50857488 27.88098695 44.30815575 23.87667831 40.8359375 19.62109375 C36.61718483 15.46691382 33.52363461 13.46843305 27.5859375 13.37109375 C20.91017695 13.45801772 17.25472668 15.28645512 12.3984375 19.74609375 C9.02245872 22.75609253 6.43568112 23.53430613 1.8359375 23.62109375 C-0.4765625 23.43359375 -0.4765625 23.43359375 -2.1640625 22.62109375 C-2.83072917 21.28776042 -3.49739583 19.95442708 -4.1640625 18.62109375 C-9.82476667 13.33776985 -14.19570872 11.1040777 -21.890625 11.30859375 C-27.09651251 12.02417966 -30.65317279 14.80433154 -34.0390625 18.68359375 Z " fill="#000000" transform="translate(417.1640625,356.37890625)"/>
<path d="M0 0 C1.13810643 0.75134732 2.26508596 1.52009868 3.375 2.3125 C5.74777312 4.23437985 5.74777312 4.23437985 7.8671875 3.765625 C10.32044152 2.88496971 12.46144327 1.68483449 14.75 0.4375 C23.24636017 -3.47514779 33.51472421 -3.57638909 42.375 -0.5625 C52.58313001 4.3263852 59.13987302 12.51498685 63.1015625 22.8828125 C65.44064533 30.99841294 64.64875908 39.60501777 61.4609375 47.37109375 C58.73899346 52.26913744 54.95502714 56.07860404 51 60 C50.38640625 60.63808594 49.7728125 61.27617187 49.140625 61.93359375 C46.31661275 64.8418082 43.37934635 67.56941189 40.30859375 70.21484375 C35.97335032 73.99143976 31.79359932 77.91633357 27.625 81.875 C8.80952168 99.6553292 8.80952168 99.6553292 4.375 100.5 C-3.41464676 99.34597826 -9.59524233 90.4442877 -14.75 84.875 C-15.44174316 84.13362793 -16.13348633 83.39225586 -16.84619141 82.62841797 C-18.90174841 80.42288266 -20.95162481 78.2122045 -23 76 C-23.86093262 75.0728418 -23.86093262 75.0728418 -24.73925781 74.12695312 C-27.25263187 71.4202426 -29.75837183 68.70721275 -32.25 65.98046875 C-34.05382275 64.01040386 -35.88517014 62.09094032 -37.75 60.17578125 C-46.44013271 51.11062793 -52.39837602 41.47940683 -52.2109375 28.71484375 C-51.49269604 19.47081021 -47.60582855 11.46465373 -40.9609375 5.0234375 C-28.95907973 -4.94276948 -14.07431664 -7.71231004 0 0 Z M-30 17 C-33.35035672 21.32019683 -35.1367247 24.84696669 -35.25 30.3125 C-35.27578125 31.05113281 -35.3015625 31.78976563 -35.328125 32.55078125 C-34.62901337 37.7691502 -31.75509063 41.61178255 -28.25 45.375 C-27.45851563 46.2309375 -26.66703125 47.086875 -25.8515625 47.96875 C-24.90158871 48.97968101 -23.95101608 49.99004946 -23 51 C-21.82008071 52.26019968 -20.64040883 53.52063104 -19.4609375 54.78125 C-17.53650653 56.83698226 -15.61015287 58.89073692 -13.67773438 60.93896484 C-10.64380179 64.15735196 -7.63311836 67.38871444 -4.6953125 70.6953125 C-4.19435059 71.25621582 -3.69338867 71.81711914 -3.17724609 72.39501953 C-1.83576725 73.90355219 -0.5034963 75.42025876 0.828125 76.9375 C2.86337251 79.34430617 2.86337251 79.34430617 6 79 C7.62577039 77.70221282 7.62577039 77.70221282 9.1875 75.9375 C11.56904766 73.38211675 14.0586718 71.04800016 16.6953125 68.76171875 C21.13437449 64.91145435 25.41812801 60.91163589 29.6875 56.875 C30.42033203 56.18535156 31.15316406 55.49570313 31.90820312 54.78515625 C42.88286419 45.48203006 42.88286419 45.48203006 47.5625 32.625 C47.33266282 26.99398919 45.85349282 23.12596201 42 19 C37.65884126 15.37534318 32.64403103 13.75083932 27 14 C21.93715671 14.93756357 18.62022162 17.16458611 14.875 20.625 C12.38968133 22.92063682 11.06367524 23.97752639 7.8125 25.125 C2.58096545 24.89248735 -0.02429584 22.03331489 -3.5 18.4375 C-4.0465625 17.83808594 -4.593125 17.23867187 -5.15625 16.62109375 C-9.64715757 12.67252036 -14.55101202 12.56418734 -20.27734375 12.6875 C-24.52782578 13.1753602 -26.60390948 14.36629715 -30 17 Z " fill="#000000" transform="translate(106,200)"/>
<path d="M0 0 C1.98046875 1.16015625 1.98046875 1.16015625 4.85546875 3.47265625 C5.55671875 4.02953125 6.25796875 4.58640625 6.98046875 5.16015625 C10.22691797 4.74324382 12.61973478 3.28341508 15.41796875 1.66015625 C23.74944754 -2.53001563 31.8720324 -2.73473131 40.79296875 -0.27734375 C51.58851958 3.55501184 57.94433706 10.14514297 63.08203125 20.34765625 C66.33995264 28.62947512 66.31885525 38.75577114 63.0859375 47.04296875 C58.6703731 55.49963273 51.41285863 62.22806014 44.26953125 68.390625 C40.00870528 72.10531682 35.89450237 75.95885481 31.79296875 79.84765625 C31.05828369 80.53738525 30.32359863 81.22711426 29.56665039 81.93774414 C26.094688 85.1980061 22.64748943 88.47430037 19.26953125 91.83203125 C18.70000732 92.38673096 18.1304834 92.94143066 17.54370117 93.51293945 C16.49622958 94.53398437 15.46134414 95.56818437 14.44262695 96.61791992 C10.40131419 100.51070051 7.42122888 101.13817338 1.98046875 101.16015625 C-0.1640625 100.1484375 -0.1640625 100.1484375 -1.83203125 98.47265625 C-2.49332031 97.82167969 -3.15460938 97.17070312 -3.8359375 96.5 C-4.55652344 95.72785156 -5.27710938 94.95570313 -6.01953125 94.16015625 C-6.85355469 93.27457031 -7.68757813 92.38898438 -8.546875 91.4765625 C-10.91296673 88.93396101 -13.23993858 86.3576721 -15.56201172 83.77490234 C-17.9645127 81.11323711 -20.39878662 78.48118617 -22.83203125 75.84765625 C-23.32106934 75.315354 -23.81010742 74.78305176 -24.31396484 74.23461914 C-27.06931209 71.24158877 -29.85492037 68.28315662 -32.6796875 65.35546875 C-42.28440178 55.35469674 -50.6960044 46.31200949 -51.33203125 31.78515625 C-51.04465917 21.94688853 -47.0912755 13.50572707 -40.35546875 6.40625 C-29.38803945 -3.58462738 -13.55305194 -6.33383834 0 0 Z M-31.01953125 20.72265625 C-34.06580244 25.95843485 -34.82123395 30.20604721 -34.01953125 36.16015625 C-31.27671985 43.69518307 -24.17398969 49.63026096 -18.74462891 55.34228516 C-15.73449296 58.51430217 -12.75352332 61.7135673 -9.76953125 64.91015625 C-9.17970459 65.54066895 -8.58987793 66.17118164 -7.98217773 66.82080078 C-3.58248516 71.53170772 0.74209528 76.3031382 4.98046875 81.16015625 C9.81808695 77.08239268 14.49993712 72.87244016 19.10546875 68.53515625 C22.9164168 64.95572329 26.72697686 61.3782075 30.59765625 57.86328125 C42.37491142 48.31260658 42.37491142 48.31260658 48.953125 35.30078125 C49.01945017 30.1084676 47.75332833 25.27713354 44.390625 21.26171875 C40.16327354 17.46912772 36.35404723 15.42886325 30.66796875 14.78515625 C24.35416065 15.42723843 20.01087748 18.06508243 15.48046875 22.41015625 C12.94410036 24.69172964 11.28857472 25.61800128 7.85546875 25.78515625 C2.38874302 24.90342629 0.28606924 22.60690274 -3.33203125 18.59765625 C-7.24036295 15.05289029 -11.31135451 13.64623925 -16.45703125 12.72265625 C-22.34590464 13.72807366 -27.43609538 15.80584889 -31.01953125 20.72265625 Z " fill="#000000" transform="translate(243.01953125,34.83984375)"/>
<path d="M0 0 C6.31826718 7.15127255 7.91586534 14.40091373 7.76953125 23.6875 C7.14801596 33.32708021 2.676219 39.37396609 -4.4296875 45.77734375 C-11.45097647 50.53329706 -19.08216522 51.62789187 -27.4296875 50.77734375 C-36.14851349 48.59434961 -42.36071546 43.73470243 -47.8046875 36.71484375 C-52.1621679 28.83785996 -52.9474182 19.89370761 -50.77734375 11.1484375 C-47.24114266 2.42176098 -41.30920392 -3.50635343 -32.76953125 -7.3203125 C-21.3293663 -11.73212903 -8.85430885 -8.09242646 0 0 Z M-32.6796875 12.96484375 C-34.92899331 16.57979952 -35.76911764 19.5183036 -35.4296875 23.77734375 C-34.18171622 27.46987053 -32.16931357 30.12224638 -29.2421875 32.71484375 C-24.25058303 34.600561 -19.49341884 34.62975452 -14.5546875 32.58984375 C-11.41455542 29.9114958 -9.91356835 27.2289863 -8.6171875 23.33984375 C-8.28819015 18.84354665 -9.80125277 15.73083093 -12.2421875 12.02734375 C-15.42865379 8.74983556 -17.93268367 7.93328165 -22.4296875 7.46484375 C-27.040161 7.94510141 -29.40901315 9.78502147 -32.6796875 12.96484375 Z " fill="#000000" transform="translate(441.4296875,94.22265625)"/>
<path d="M0 0 C7.39975944 4.50310147 12.35454878 11.05460451 14.8671875 19.30078125 C16.34305053 26.68009641 15.92580205 34.72950649 12.28515625 41.390625 C7.02941183 48.4822083 1.2277931 54.63089324 -7.71484375 56.390625 C-17.59777289 57.20750668 -25.0220661 55.88392037 -33.46484375 50.703125 C-40.15435874 43.82779015 -43.69269935 36.65338369 -44.02734375 27.015625 C-43.84818109 18.84132862 -41.48840688 11.34951238 -35.71484375 5.390625 C-25.25634252 -2.99937414 -12.55262166 -5.79665781 0 0 Z M-25.02734375 18.640625 C-27.13544621 22.07605124 -27.64532334 24.3584414 -27.71484375 28.390625 C-26.1492554 33.5222757 -24.40289826 36.68197128 -19.71484375 39.390625 C-15.55444465 40.63702556 -12.58867481 40.69310498 -8.46484375 39.265625 C-4.51463919 36.57230371 -2.29905122 34.1432474 -0.77734375 29.578125 C-0.67031787 24.11980502 -2.26094411 20.0106846 -5.90234375 15.953125 C-13.09983101 11.95452097 -19.0552103 12.82990057 -25.02734375 18.640625 Z " fill="#000000" transform="translate(237.71484375,348.609375)"/>
</svg>
