<svg xmlns="http://www.w3.org/2000/svg" xmlns:xlink="http://www.w3.org/1999/xlink" width="100" zoomAndPan="magnify" viewBox="0 0 75 74.999997" height="100" preserveAspectRatio="xMidYMid meet" version="1.0"><defs><g/></defs><g fill="#ffffff" fill-opacity="1"><g transform="translate(18.010487, 29.623318)"><g><path d="M 24.703125 -13.28125 C 24.234375 -13.28125 23.640625 -13.117188 22.921875 -12.796875 C 22.210938 -12.472656 21.441406 -12.015625 20.609375 -11.421875 C 19.785156 -10.835938 18.957031 -10.140625 18.125 -9.328125 C 17.300781 -8.523438 16.523438 -7.632812 15.796875 -6.65625 C 16.734375 -6.851562 17.644531 -7.144531 18.53125 -7.53125 C 19.425781 -7.925781 20.257812 -8.367188 21.03125 -8.859375 C 21.8125 -9.347656 22.5 -9.851562 23.09375 -10.375 C 23.6875 -10.894531 24.144531 -11.390625 24.46875 -11.859375 C 24.800781 -12.328125 24.96875 -12.71875 24.96875 -13.03125 C 24.96875 -13.195312 24.878906 -13.28125 24.703125 -13.28125 Z M 5.125 -0.15625 C 5.71875 -0.15625 6.269531 -0.203125 6.78125 -0.296875 C 7.300781 -0.398438 7.800781 -0.550781 8.28125 -0.75 C 7.65625 -0.976562 7 -1.191406 6.3125 -1.390625 C 5.632812 -1.585938 4.921875 -1.6875 4.171875 -1.6875 C 3.546875 -1.6875 3.003906 -1.617188 2.546875 -1.484375 C 2.097656 -1.347656 1.875 -1.191406 1.875 -1.015625 C 1.875 -0.859375 2.019531 -0.710938 2.3125 -0.578125 C 2.601562 -0.441406 2.992188 -0.335938 3.484375 -0.265625 C 3.972656 -0.191406 4.519531 -0.15625 5.125 -0.15625 Z M 16.71875 -1.34375 C 15.789062 -0.90625 14.945312 -0.5625 14.1875 -0.3125 C 13.425781 -0.0625 12.585938 0.0625 11.671875 0.0625 C 11.191406 0.0625 10.707031 0 10.21875 -0.125 C 9.738281 -0.257812 9.25 -0.410156 8.75 -0.578125 C 8.21875 -0.378906 7.644531 -0.226562 7.03125 -0.125 C 6.414062 -0.0195312 5.765625 0.03125 5.078125 0.03125 C 4.441406 0.03125 3.851562 -0.015625 3.3125 -0.109375 C 2.78125 -0.203125 2.359375 -0.328125 2.046875 -0.484375 C 1.742188 -0.640625 1.59375 -0.816406 1.59375 -1.015625 C 1.59375 -1.296875 1.84375 -1.53125 2.34375 -1.71875 C 2.851562 -1.90625 3.46875 -2 4.1875 -2 C 4.570312 -2 5.007812 -1.945312 5.5 -1.84375 C 6 -1.738281 6.519531 -1.601562 7.0625 -1.4375 C 7.613281 -1.269531 8.148438 -1.097656 8.671875 -0.921875 C 9.703125 -1.398438 10.679688 -2.097656 11.609375 -3.015625 C 12.546875 -3.929688 13.554688 -5.015625 14.640625 -6.265625 C 14.296875 -6.222656 13.945312 -6.203125 13.59375 -6.203125 C 12.820312 -6.203125 12.050781 -6.253906 11.28125 -6.359375 C 10.519531 -6.472656 9.757812 -6.582031 9 -6.6875 C 8.25 -6.800781 7.507812 -6.859375 6.78125 -6.859375 C 5.550781 -6.859375 4.359375 -6.644531 3.203125 -6.21875 C 2.054688 -5.800781 1.09375 -5.1875 0.3125 -4.375 L 0.1875 -4.484375 C 0.976562 -5.316406 1.945312 -5.953125 3.09375 -6.390625 C 4.25 -6.828125 5.476562 -7.046875 6.78125 -7.046875 C 7.53125 -7.046875 8.285156 -6.988281 9.046875 -6.875 C 9.804688 -6.769531 10.566406 -6.664062 11.328125 -6.5625 C 12.097656 -6.457031 12.863281 -6.40625 13.625 -6.40625 C 13.832031 -6.40625 14.03125 -6.410156 14.21875 -6.421875 C 14.414062 -6.429688 14.617188 -6.453125 14.828125 -6.484375 C 15.398438 -7.203125 16.035156 -7.90625 16.734375 -8.59375 C 17.441406 -9.28125 18.171875 -9.914062 18.921875 -10.5 C 19.671875 -11.09375 20.40625 -11.613281 21.125 -12.0625 C 21.84375 -12.507812 22.507812 -12.851562 23.125 -13.09375 C 23.75 -13.34375 24.273438 -13.46875 24.703125 -13.46875 C 25.015625 -13.46875 25.171875 -13.316406 25.171875 -13.015625 C 25.171875 -12.640625 25 -12.203125 24.65625 -11.703125 C 24.3125 -11.210938 23.828125 -10.695312 23.203125 -10.15625 C 22.585938 -9.613281 21.878906 -9.085938 21.078125 -8.578125 C 20.273438 -8.078125 19.40625 -7.632812 18.46875 -7.25 C 17.539062 -6.863281 16.585938 -6.582031 15.609375 -6.40625 C 14.972656 -5.601562 14.328125 -4.835938 13.671875 -4.109375 C 13.023438 -3.390625 12.335938 -2.738281 11.609375 -2.15625 C 10.890625 -1.582031 10.085938 -1.113281 9.203125 -0.75 C 9.742188 -0.582031 10.226562 -0.4375 10.65625 -0.3125 C 11.09375 -0.195312 11.429688 -0.140625 11.671875 -0.140625 C 12.578125 -0.140625 13.410156 -0.257812 14.171875 -0.5 C 14.941406 -0.75 15.789062 -1.09375 16.71875 -1.53125 C 16.78125 -1.53125 16.8125 -1.503906 16.8125 -1.453125 C 16.8125 -1.410156 16.78125 -1.375 16.71875 -1.34375 Z M 16.71875 -1.34375 "/></g></g></g><g fill="#ffffff" fill-opacity="1"><g transform="translate(34.717648, 29.623318)"><g><path d="M 1.125 -0.515625 C 1.125 -0.453125 1.148438 -0.394531 1.203125 -0.34375 C 1.265625 -0.289062 1.378906 -0.265625 1.546875 -0.265625 C 1.816406 -0.265625 2.113281 -0.335938 2.4375 -0.484375 C 2.757812 -0.628906 3.066406 -0.820312 3.359375 -1.0625 C 3.648438 -1.300781 3.890625 -1.554688 4.078125 -1.828125 C 4.273438 -2.097656 4.375 -2.351562 4.375 -2.59375 C 4.375 -2.84375 4.257812 -2.96875 4.03125 -2.96875 C 3.84375 -2.96875 3.582031 -2.875 3.25 -2.6875 C 2.925781 -2.5 2.601562 -2.269531 2.28125 -2 C 1.957031 -1.738281 1.679688 -1.46875 1.453125 -1.1875 C 1.234375 -0.914062 1.125 -0.691406 1.125 -0.515625 Z M 0 -1.53125 C 0.332031 -1.695312 0.628906 -1.835938 0.890625 -1.953125 C 1.160156 -2.066406 1.4375 -2.179688 1.71875 -2.296875 C 2.007812 -2.421875 2.347656 -2.550781 2.734375 -2.6875 C 3.242188 -3 3.671875 -3.15625 4.015625 -3.15625 C 4.367188 -3.15625 4.546875 -2.960938 4.546875 -2.578125 C 4.546875 -2.390625 4.488281 -2.1875 4.375 -1.96875 C 4.257812 -1.757812 4.109375 -1.554688 3.921875 -1.359375 C 3.992188 -1.265625 4.101562 -1.21875 4.25 -1.21875 C 4.476562 -1.21875 4.8125 -1.320312 5.25 -1.53125 C 5.3125 -1.53125 5.34375 -1.503906 5.34375 -1.453125 C 5.34375 -1.410156 5.3125 -1.375 5.25 -1.34375 C 5.039062 -1.238281 4.847656 -1.160156 4.671875 -1.109375 C 4.503906 -1.066406 4.347656 -1.046875 4.203125 -1.046875 C 4.015625 -1.046875 3.875 -1.097656 3.78125 -1.203125 C 3.46875 -0.878906 3.101562 -0.609375 2.6875 -0.390625 C 2.269531 -0.179688 1.894531 -0.078125 1.5625 -0.078125 C 1.144531 -0.078125 0.9375 -0.234375 0.9375 -0.546875 C 0.9375 -0.816406 1.046875 -1.101562 1.265625 -1.40625 C 1.484375 -1.707031 1.738281 -1.976562 2.03125 -2.21875 L 2 -2.25 C 1.726562 -2.132812 1.453125 -2.015625 1.171875 -1.890625 C 0.898438 -1.765625 0.507812 -1.582031 0 -1.34375 C -0.0625 -1.34375 -0.09375 -1.367188 -0.09375 -1.421875 C -0.09375 -1.460938 -0.0625 -1.5 0 -1.53125 Z M 0 -1.53125 "/></g></g></g><g fill="#ffffff" fill-opacity="1"><g transform="translate(39.968465, 29.623318)"><g><path d="M 6.6875 -1.53125 C 6.75 -1.53125 6.78125 -1.503906 6.78125 -1.453125 C 6.78125 -1.410156 6.75 -1.375 6.6875 -1.34375 C 6.050781 -1.0625 5.46875 -0.921875 4.9375 -0.921875 C 4.675781 -0.921875 4.507812 -1.003906 4.4375 -1.171875 C 4.113281 -1.003906 3.769531 -0.835938 3.40625 -0.671875 C 3.039062 -0.515625 2.695312 -0.378906 2.375 -0.265625 C 2.050781 -0.160156 1.789062 -0.109375 1.59375 -0.109375 C 1.351562 -0.109375 1.234375 -0.1875 1.234375 -0.34375 C 1.234375 -0.59375 1.359375 -0.835938 1.609375 -1.078125 C 1.859375 -1.328125 2.140625 -1.5625 2.453125 -1.78125 C 2.773438 -2.007812 3.0625 -2.203125 3.3125 -2.359375 C 3.5625 -2.515625 3.6875 -2.632812 3.6875 -2.71875 C 3.6875 -2.78125 3.632812 -2.8125 3.53125 -2.8125 C 3.414062 -2.8125 3.210938 -2.753906 2.921875 -2.640625 C 2.628906 -2.535156 2.300781 -2.398438 1.9375 -2.234375 C 1.570312 -2.078125 1.21875 -1.914062 0.875 -1.75 C 0.53125 -1.59375 0.238281 -1.457031 0 -1.34375 C -0.0625 -1.34375 -0.09375 -1.367188 -0.09375 -1.421875 C -0.09375 -1.460938 -0.0625 -1.5 0 -1.53125 C 0.238281 -1.644531 0.53125 -1.785156 0.875 -1.953125 C 1.21875 -2.117188 1.566406 -2.28125 1.921875 -2.4375 C 2.285156 -2.59375 2.617188 -2.722656 2.921875 -2.828125 C 3.222656 -2.941406 3.457031 -3 3.625 -3 C 3.832031 -3 3.9375 -2.921875 3.9375 -2.765625 C 3.9375 -2.679688 3.851562 -2.554688 3.6875 -2.390625 C 3.519531 -2.234375 3.316406 -2.0625 3.078125 -1.875 C 2.835938 -1.6875 2.59375 -1.5 2.34375 -1.3125 C 2.101562 -1.125 1.898438 -0.945312 1.734375 -0.78125 C 1.566406 -0.625 1.484375 -0.5 1.484375 -0.40625 C 1.484375 -0.34375 1.550781 -0.3125 1.6875 -0.3125 C 1.832031 -0.3125 2.054688 -0.359375 2.359375 -0.453125 C 2.671875 -0.554688 3.007812 -0.6875 3.375 -0.84375 C 3.75 -1.007812 4.097656 -1.175781 4.421875 -1.34375 C 4.910156 -1.925781 5.296875 -2.347656 5.578125 -2.609375 C 5.859375 -2.867188 6.0625 -3 6.1875 -3 C 6.269531 -3 6.3125 -2.945312 6.3125 -2.84375 C 6.3125 -2.695312 6.140625 -2.488281 5.796875 -2.21875 C 5.453125 -1.957031 5.066406 -1.664062 4.640625 -1.34375 C 4.640625 -1.1875 4.75 -1.109375 4.96875 -1.109375 C 5.46875 -1.109375 6.039062 -1.25 6.6875 -1.53125 Z M 6.6875 -1.53125 "/></g></g></g><g fill="#ffffff" fill-opacity="1"><g transform="translate(46.65133, 29.623318)"><g><path d="M 3.953125 -2.90625 C 3.785156 -2.90625 3.554688 -2.820312 3.265625 -2.65625 C 2.972656 -2.488281 2.675781 -2.28125 2.375 -2.03125 C 2.082031 -1.78125 1.828125 -1.53125 1.609375 -1.28125 C 2.066406 -1.40625 2.488281 -1.546875 2.875 -1.703125 C 3.257812 -1.867188 3.570312 -2.039062 3.8125 -2.21875 C 4.050781 -2.394531 4.171875 -2.570312 4.171875 -2.75 C 4.171875 -2.851562 4.097656 -2.90625 3.953125 -2.90625 Z M 0 -1.53125 C 0.363281 -1.695312 0.691406 -1.835938 0.984375 -1.953125 C 1.273438 -2.078125 1.570312 -2.195312 1.875 -2.3125 C 2.175781 -2.4375 2.523438 -2.578125 2.921875 -2.734375 C 3.109375 -2.835938 3.296875 -2.914062 3.484375 -2.96875 C 3.671875 -3.03125 3.832031 -3.0625 3.96875 -3.0625 C 4.21875 -3.0625 4.34375 -2.976562 4.34375 -2.8125 C 4.34375 -2.570312 4.195312 -2.34375 3.90625 -2.125 C 3.625 -1.90625 3.257812 -1.707031 2.8125 -1.53125 C 2.375 -1.351562 1.914062 -1.195312 1.4375 -1.0625 C 1.269531 -0.832031 1.1875 -0.65625 1.1875 -0.53125 C 1.1875 -0.445312 1.210938 -0.378906 1.265625 -0.328125 C 1.316406 -0.285156 1.441406 -0.265625 1.640625 -0.265625 C 1.898438 -0.265625 2.234375 -0.335938 2.640625 -0.484375 C 3.054688 -0.628906 3.484375 -0.800781 3.921875 -1 C 4.367188 -1.195312 4.75 -1.375 5.0625 -1.53125 C 5.125 -1.53125 5.15625 -1.503906 5.15625 -1.453125 C 5.15625 -1.410156 5.125 -1.375 5.0625 -1.34375 C 4.75 -1.1875 4.367188 -1.007812 3.921875 -0.8125 C 3.484375 -0.613281 3.046875 -0.441406 2.609375 -0.296875 C 2.179688 -0.148438 1.828125 -0.078125 1.546875 -0.078125 C 1.316406 -0.078125 1.15625 -0.109375 1.0625 -0.171875 C 0.976562 -0.242188 0.9375 -0.347656 0.9375 -0.484375 C 0.9375 -0.753906 1.050781 -1.046875 1.28125 -1.359375 C 1.507812 -1.671875 1.789062 -1.957031 2.125 -2.21875 L 2.078125 -2.25 C 1.816406 -2.132812 1.519531 -2.003906 1.1875 -1.859375 C 0.863281 -1.722656 0.46875 -1.550781 0 -1.34375 C -0.0625 -1.34375 -0.09375 -1.367188 -0.09375 -1.421875 C -0.09375 -1.460938 -0.0625 -1.5 0 -1.53125 Z M 0 -1.53125 "/></g></g></g><g fill="#ffffff" fill-opacity="1"><g transform="translate(51.711219, 29.623318)"><g><path d="M 0 -1.34375 C -0.0625 -1.34375 -0.09375 -1.367188 -0.09375 -1.421875 C -0.09375 -1.460938 -0.0625 -1.5 0 -1.53125 C 0.476562 -1.726562 1.023438 -1.976562 1.640625 -2.28125 C 2.265625 -2.582031 2.867188 -2.878906 3.453125 -3.171875 C 3.617188 -3.453125 3.800781 -3.65625 4 -3.78125 C 4.195312 -3.90625 4.359375 -3.96875 4.484375 -3.96875 C 4.566406 -3.96875 4.609375 -3.925781 4.609375 -3.84375 C 4.609375 -3.75 4.53125 -3.628906 4.375 -3.484375 C 4.21875 -3.347656 3.960938 -3.210938 3.609375 -3.078125 C 3.773438 -2.890625 3.960938 -2.75 4.171875 -2.65625 C 4.234375 -2.675781 4.289062 -2.695312 4.34375 -2.71875 C 4.394531 -2.75 4.429688 -2.765625 4.453125 -2.765625 C 4.515625 -2.765625 4.546875 -2.738281 4.546875 -2.6875 C 4.546875 -2.644531 4.507812 -2.613281 4.4375 -2.59375 C 4.375 -2.570312 4.273438 -2.53125 4.140625 -2.46875 C 3.335938 -2.039062 2.726562 -1.628906 2.3125 -1.234375 C 1.90625 -0.847656 1.703125 -0.578125 1.703125 -0.421875 C 1.703125 -0.347656 1.757812 -0.3125 1.875 -0.3125 C 1.988281 -0.3125 2.179688 -0.347656 2.453125 -0.421875 C 2.722656 -0.503906 3.03125 -0.609375 3.375 -0.734375 C 3.71875 -0.867188 4.054688 -1.003906 4.390625 -1.140625 C 4.722656 -1.285156 5.007812 -1.414062 5.25 -1.53125 C 5.3125 -1.53125 5.34375 -1.503906 5.34375 -1.453125 C 5.34375 -1.410156 5.3125 -1.375 5.25 -1.34375 C 4.9375 -1.195312 4.546875 -1.023438 4.078125 -0.828125 C 3.609375 -0.628906 3.160156 -0.457031 2.734375 -0.3125 C 2.316406 -0.175781 2 -0.109375 1.78125 -0.109375 C 1.570312 -0.109375 1.46875 -0.191406 1.46875 -0.359375 C 1.46875 -0.535156 1.535156 -0.738281 1.671875 -0.96875 C 1.816406 -1.195312 2.070312 -1.445312 2.4375 -1.71875 C 2.800781 -1.988281 3.328125 -2.269531 4.015625 -2.5625 C 3.910156 -2.625 3.804688 -2.691406 3.703125 -2.765625 C 3.597656 -2.847656 3.507812 -2.921875 3.4375 -2.984375 C 2.894531 -2.722656 2.316406 -2.441406 1.703125 -2.140625 C 1.085938 -1.835938 0.519531 -1.570312 0 -1.34375 Z M 0 -1.34375 "/></g></g></g><g fill="#ffffff" fill-opacity="1"><g transform="translate(19.346709, 55.50384)"><g><path d="M 17.703125 -14 L 17.640625 -13.859375 C 16.941406 -13.859375 16.164062 -13.675781 15.3125 -13.3125 C 14.457031 -12.957031 13.5625 -12.460938 12.625 -11.828125 C 11.695312 -11.203125 10.757812 -10.472656 9.8125 -9.640625 C 8.875 -8.816406 7.957031 -7.929688 7.0625 -6.984375 C 6.175781 -6.046875 5.347656 -5.082031 4.578125 -4.09375 C 3.816406 -3.113281 3.144531 -2.144531 2.5625 -1.1875 C 1.976562 -0.226562 1.519531 0.664062 1.1875 1.5 C 0.863281 2.34375 0.703125 3.082031 0.703125 3.71875 C 0.703125 4.394531 0.890625 4.921875 1.265625 5.296875 L 1.125 5.453125 C 0.65625 4.972656 0.421875 4.320312 0.421875 3.5 C 0.421875 2.707031 0.625 1.804688 1.03125 0.796875 C 1.4375 -0.210938 2.003906 -1.273438 2.734375 -2.390625 C 3.460938 -3.515625 4.289062 -4.625 5.21875 -5.71875 C 6.15625 -6.820312 7.160156 -7.867188 8.234375 -8.859375 C 9.304688 -9.859375 10.394531 -10.742188 11.5 -11.515625 C 12.613281 -12.285156 13.695312 -12.890625 14.75 -13.328125 C 15.8125 -13.773438 16.796875 -14 17.703125 -14 Z M 17.703125 -14 "/></g></g></g><g fill="#ffffff" fill-opacity="1"><g transform="translate(26.029574, 55.50384)"><g><path d="M 4.625 -1.125 L 4.703125 -1.015625 C 4.347656 -0.753906 3.960938 -0.503906 3.546875 -0.265625 C 3.140625 -0.0234375 2.679688 0.09375 2.171875 0.09375 C 1.929688 0.09375 1.691406 0.046875 1.453125 -0.046875 C 1.222656 -0.140625 0.976562 -0.234375 0.71875 -0.328125 C 0.570312 -0.273438 0.351562 -0.207031 0.0625 -0.125 C -0.21875 -0.0390625 -0.445312 0 -0.625 0 C -0.71875 0 -0.796875 -0.015625 -0.859375 -0.046875 C -0.921875 -0.0859375 -0.953125 -0.132812 -0.953125 -0.1875 C -0.953125 -0.300781 -0.867188 -0.398438 -0.703125 -0.484375 C -0.535156 -0.578125 -0.347656 -0.625 -0.140625 -0.625 C 0.128906 -0.625 0.414062 -0.585938 0.71875 -0.515625 C 1.601562 -0.847656 2.375 -1.21875 3.03125 -1.625 C 3.695312 -2.039062 4.210938 -2.460938 4.578125 -2.890625 C 4.941406 -3.328125 5.125 -3.734375 5.125 -4.109375 C 5.125 -4.222656 5.085938 -4.320312 5.015625 -4.40625 C 4.941406 -4.488281 4.859375 -4.53125 4.765625 -4.53125 C 4.460938 -4.53125 4.148438 -4.445312 3.828125 -4.28125 C 3.503906 -4.113281 3.203125 -3.910156 2.921875 -3.671875 C 2.640625 -3.429688 2.410156 -3.1875 2.234375 -2.9375 C 2.054688 -2.6875 1.96875 -2.472656 1.96875 -2.296875 C 1.96875 -2.140625 2.023438 -2.0625 2.140625 -2.0625 C 2.273438 -2.0625 2.476562 -2.128906 2.75 -2.265625 C 3.03125 -2.410156 3.328125 -2.625 3.640625 -2.90625 C 3.960938 -3.1875 4.242188 -3.523438 4.484375 -3.921875 L 4.609375 -3.859375 C 4.378906 -3.453125 4.09375 -3.101562 3.75 -2.8125 C 3.414062 -2.519531 3.09375 -2.296875 2.78125 -2.140625 C 2.476562 -1.984375 2.253906 -1.90625 2.109375 -1.90625 C 2.003906 -1.90625 1.925781 -1.941406 1.875 -2.015625 C 1.832031 -2.097656 1.8125 -2.1875 1.8125 -2.28125 C 1.8125 -2.46875 1.894531 -2.691406 2.0625 -2.953125 C 2.226562 -3.222656 2.453125 -3.488281 2.734375 -3.75 C 3.015625 -4.007812 3.332031 -4.226562 3.6875 -4.40625 C 4.039062 -4.59375 4.40625 -4.6875 4.78125 -4.6875 C 4.96875 -4.6875 5.128906 -4.613281 5.265625 -4.46875 C 5.398438 -4.332031 5.46875 -4.160156 5.46875 -3.953125 C 5.46875 -3.410156 5.269531 -2.914062 4.875 -2.46875 C 4.476562 -2.019531 3.945312 -1.625 3.28125 -1.28125 C 2.613281 -0.945312 1.859375 -0.65625 1.015625 -0.40625 C 1.210938 -0.3125 1.414062 -0.234375 1.625 -0.171875 C 1.832031 -0.109375 2.050781 -0.078125 2.28125 -0.078125 C 2.707031 -0.078125 3.113281 -0.1875 3.5 -0.40625 C 3.894531 -0.632812 4.269531 -0.875 4.625 -1.125 Z M 4.625 -1.125 "/></g></g></g><g fill="#ffffff" fill-opacity="1"><g transform="translate(31.757746, 55.50384)"><g><path d="M 0.28125 -0.671875 C 0.28125 -1.296875 0.460938 -1.867188 0.828125 -2.390625 C 1.203125 -2.910156 1.695312 -3.359375 2.3125 -3.734375 C 2.925781 -4.109375 3.601562 -4.398438 4.34375 -4.609375 C 5.082031 -4.828125 5.816406 -4.9375 6.546875 -4.9375 L 6.578125 -4.8125 C 5.898438 -4.8125 5.207031 -4.675781 4.5 -4.40625 C 3.789062 -4.144531 3.132812 -3.800781 2.53125 -3.375 C 1.925781 -2.945312 1.4375 -2.488281 1.0625 -2 C 0.6875 -1.519531 0.5 -1.0625 0.5 -0.625 C 0.5 -0.445312 0.554688 -0.304688 0.671875 -0.203125 C 0.785156 -0.109375 0.925781 -0.0625 1.09375 -0.0625 C 1.6875 -0.0625 2.285156 -0.242188 2.890625 -0.609375 C 3.492188 -0.984375 4.035156 -1.46875 4.515625 -2.0625 C 5.003906 -2.664062 5.351562 -3.3125 5.5625 -4 L 5.671875 -3.953125 C 5.484375 -3.242188 5.148438 -2.578125 4.671875 -1.953125 C 4.191406 -1.335938 3.632812 -0.84375 3 -0.46875 C 2.375 -0.09375 1.738281 0.09375 1.09375 0.09375 C 0.550781 0.09375 0.28125 -0.160156 0.28125 -0.671875 Z M 0.28125 -0.671875 "/></g></g></g><g fill="#ffffff" fill-opacity="1"><g transform="translate(37.485918, 55.50384)"><g><path d="M -0.0625 -1.171875 L -0.09375 -1.296875 C 0.78125 -1.554688 1.757812 -1.945312 2.84375 -2.46875 C 3.925781 -3 5.015625 -3.6875 6.109375 -4.53125 L 6.234375 -4.390625 C 5.546875 -3.796875 4.953125 -3.269531 4.453125 -2.8125 C 3.953125 -2.351562 3.492188 -1.90625 3.078125 -1.46875 C 2.671875 -1.039062 2.238281 -0.550781 1.78125 0 L 1.109375 0 L 1.0625 -0.09375 C 1.570312 -0.53125 2.003906 -0.910156 2.359375 -1.234375 C 2.710938 -1.566406 3.054688 -1.890625 3.390625 -2.203125 C 3.722656 -2.523438 4.125 -2.875 4.59375 -3.25 C 3.75 -2.738281 2.925781 -2.304688 2.125 -1.953125 C 1.320312 -1.609375 0.59375 -1.347656 -0.0625 -1.171875 Z M -0.0625 -1.171875 "/></g></g></g><g fill="#ffffff" fill-opacity="1"><g transform="translate(43.21409, 55.50384)"><g><path d="M 6.53125 -4.53125 L 6.65625 -4.390625 C 5.625 -3.484375 4.546875 -2.523438 3.421875 -1.515625 C 2.296875 -0.515625 1.15625 0.625 0 1.90625 L -0.671875 1.90625 L -0.703125 1.8125 L 3.40625 -1.875 C 2.863281 -1.582031 2.335938 -1.4375 1.828125 -1.4375 C 1.578125 -1.4375 1.390625 -1.5 1.265625 -1.625 C 1.148438 -1.75 1.09375 -1.898438 1.09375 -2.078125 C 1.09375 -2.335938 1.203125 -2.609375 1.421875 -2.890625 C 1.648438 -3.179688 1.953125 -3.457031 2.328125 -3.71875 C 2.703125 -3.976562 3.117188 -4.191406 3.578125 -4.359375 C 4.035156 -4.523438 4.492188 -4.609375 4.953125 -4.609375 C 5.171875 -4.609375 5.351562 -4.570312 5.5 -4.5 C 5.644531 -4.425781 5.71875 -4.304688 5.71875 -4.140625 C 5.71875 -4.078125 5.710938 -4.015625 5.703125 -3.953125 C 5.691406 -3.898438 5.679688 -3.847656 5.671875 -3.796875 Z M 4.9375 -4.453125 C 4.550781 -4.453125 4.15625 -4.375 3.75 -4.21875 C 3.34375 -4.070312 2.957031 -3.875 2.59375 -3.625 C 2.238281 -3.382812 1.953125 -3.132812 1.734375 -2.875 C 1.523438 -2.613281 1.421875 -2.367188 1.421875 -2.140625 C 1.421875 -2.003906 1.460938 -1.882812 1.546875 -1.78125 C 1.640625 -1.675781 1.769531 -1.625 1.9375 -1.625 C 2.207031 -1.625 2.539062 -1.707031 2.9375 -1.875 C 3.332031 -2.050781 3.71875 -2.269531 4.09375 -2.53125 C 4.46875 -2.789062 4.78125 -3.054688 5.03125 -3.328125 C 5.28125 -3.609375 5.40625 -3.859375 5.40625 -4.078125 C 5.40625 -4.191406 5.367188 -4.28125 5.296875 -4.34375 C 5.234375 -4.414062 5.113281 -4.453125 4.9375 -4.453125 Z M 4.9375 -4.453125 "/></g></g></g><g fill="#ffffff" fill-opacity="1"><g transform="translate(48.942262, 55.50384)"><g><path d="M -4.359375 5.453125 L -4.296875 5.296875 C -3.597656 5.296875 -2.820312 5.113281 -1.96875 4.75 C -1.113281 4.394531 -0.222656 3.898438 0.703125 3.265625 C 1.640625 2.640625 2.578125 1.910156 3.515625 1.078125 C 4.460938 0.253906 5.378906 -0.625 6.265625 -1.5625 C 7.160156 -2.507812 7.988281 -3.472656 8.75 -4.453125 C 9.519531 -5.441406 10.195312 -6.414062 10.78125 -7.375 C 11.363281 -8.332031 11.816406 -9.226562 12.140625 -10.0625 C 12.460938 -10.90625 12.625 -11.644531 12.625 -12.28125 C 12.625 -12.957031 12.441406 -13.484375 12.078125 -13.859375 L 12.21875 -14 C 12.6875 -13.53125 12.921875 -12.882812 12.921875 -12.0625 C 12.921875 -11.269531 12.710938 -10.363281 12.296875 -9.34375 C 11.890625 -8.332031 11.320312 -7.269531 10.59375 -6.15625 C 9.875 -5.039062 9.046875 -3.929688 8.109375 -2.828125 C 7.171875 -1.734375 6.164062 -0.691406 5.09375 0.296875 C 4.03125 1.296875 2.941406 2.179688 1.828125 2.953125 C 0.722656 3.722656 -0.351562 4.332031 -1.40625 4.78125 C -2.46875 5.226562 -3.453125 5.453125 -4.359375 5.453125 Z M -4.359375 5.453125 "/></g></g></g></svg>