<?xml version="1.0" encoding="UTF-8"?>
<svg version="1.1" xmlns="http://www.w3.org/2000/svg" width="512" height="512">
<path d="M0 0 C3.53696478 3.15817995 6.78657788 6.5167943 10 10 C10.99663743 11.0033513 11.99597986 12.00403637 13 13 C13.5261792 12.78907715 14.0523584 12.5781543 14.59448242 12.36083984 C43.5276201 0.8450699 82.44254242 -14.14768022 113.13671875 -1.37109375 C126.73179607 4.78977857 136.21739463 14.48913461 145.4375 26.05859375 C145.87118896 26.59564941 146.30487793 27.13270508 146.75170898 27.68603516 C148.00185299 29.23724756 149.23764147 30.79999674 150.47265625 32.36328125 C153.62474161 35.65177834 156.62184007 37.69218852 161.203125 38.28515625 C166.83432462 37.67260209 170.4104395 35.69050566 175.1171875 32.62890625 C188.15633106 25.26126009 204.54451109 22.89363178 219.1875 25.8125 C225.21045296 27.68850174 225.21045296 27.68850174 227 30 C227.89594149 33.04737995 228.2348423 35.829629 228 39 C226.19433162 42.12519527 224.40590735 43.70571717 221.5 45.8125 C217.66113562 49.17150634 215.35454128 53.14889719 214.71875 58.26171875 C214.64724905 60.67218821 214.64724905 60.67218821 215 64 C216.11337592 65.3382651 216.11337592 65.3382651 218.95703125 65.1328125 C224.86023286 65.12085059 230.68426272 65.10157399 236.5625 64.5 C257.52131881 62.59723461 276.43254559 63.51458832 293.4375 77.375 C328.92182095 110.77200795 351.97320713 172.314295 356 220 C356.11824444 224.30548887 355.75998202 227.10590351 352.875 230.5 C349.13106513 232.45335732 347.17735533 232.72023368 343 232 C336.72459963 227.8968536 332.53656008 221.80001541 328.0234375 215.9140625 C324.92621103 211.87852873 321.72173051 207.9364001 318.5 204 C314.44947874 199.03826015 310.44199117 194.0484012 306.5 189 C301.42428348 182.50084562 296.23025622 176.10207038 291.01953125 169.7109375 C287.91289581 165.89917438 284.83953638 162.06159808 281.78125 158.2109375 C281.1934375 157.48132813 280.605625 156.75171875 280 156 C279.22785156 155.01386719 278.45570313 154.02773437 277.66015625 153.01171875 C275.09303763 149.94976889 272.22991254 147.71811785 268.9375 145.4375 C267.91527344 144.71433594 266.89304687 143.99117187 265.83984375 143.24609375 C255.16493864 136.62098982 242.33441063 133.26213726 230.515625 129.26904297 C227.47762592 128.24243933 224.4417984 127.20960621 221.40625 126.17578125 C219.4688721 125.51786951 217.53137634 124.86030471 215.59375 124.203125 C214.68959351 123.89586487 213.78543701 123.58860474 212.85388184 123.27203369 C212.01200317 122.9879364 211.17012451 122.70383911 210.30273438 122.41113281 C209.56615601 122.16196106 208.82957764 121.91278931 208.07067871 121.65606689 C200.09724529 119.129791 193.91942505 119.43951305 186.265625 122.80859375 C181.11665261 125.51624302 178.22795835 129.22246793 176.43359375 134.65625 C175.32882832 140.627955 176.67929946 146.74312979 177.5234375 152.68359375 C180.03083475 170.43523951 180.03083475 170.43523951 179 176 C174.47815016 181.9654451 166.00856391 183.71636115 158.875 184.75 C157.59625 184.8325 156.3175 184.915 155 185 C154.2678125 185.0515625 153.535625 185.103125 152.78125 185.15625 C137.07364666 185.76823455 121.42650687 180.0314254 109.71142578 169.60742188 C107.41282145 167.45951091 105.19415244 165.25489022 103 163 C102.34 162.34 101.68 161.68 101 161 C99.50154393 163.72994349 98.69297615 165.98312805 98.32983398 169.0715332 C98.23310898 169.86368729 98.13638397 170.65584137 98.03672791 171.47200012 C97.94081863 172.32299789 97.84490936 173.17399567 97.74609375 174.05078125 C97.64031509 174.94178024 97.53453644 175.83277924 97.42555237 176.7507782 C97.20274539 178.64080849 96.98359309 180.53127267 96.76782227 182.42211914 C96.44293922 185.26490585 96.10630126 188.10609855 95.76757812 190.94726562 C95.1373099 196.29408498 94.55403373 201.64477673 94 207 C93.87591766 208.16906891 93.87591766 208.16906891 93.74932861 209.36175537 C93.53363441 211.46260654 93.34173041 213.56392911 93.16015625 215.66796875 C93.00172241 217.41049927 93.00172241 217.41049927 92.84008789 219.18823242 C92.74942214 221.99156058 92.74942214 221.99156058 94.30249023 223.83325195 C98.35286584 226.61719342 102.76218205 226.15139893 107.46484375 226.17578125 C109.16863222 226.19897379 110.87240832 226.2230909 112.57617188 226.24804688 C115.26009483 226.2831967 117.94356011 226.31253025 120.62768555 226.32592773 C123.2197992 226.34139523 125.81058159 226.38158679 128.40234375 226.42578125 C129.60406471 226.42291862 129.60406471 226.42291862 130.83006287 226.41999817 C134.38577159 226.49809713 136.55980233 226.67594924 139.46313477 228.81323242 C143.6271748 234.73814213 143.61060062 242.99081124 144 250 C144.05414063 250.95390625 144.10828125 251.9078125 144.1640625 252.890625 C144.73736332 273.21674503 140.22808886 293.49749069 128 310 C127.47921875 310.70382812 126.9584375 311.40765625 126.421875 312.1328125 C117.49957078 323.17741238 103.12202763 332.33078159 89 335 C83.20987654 335.55144033 83.20987654 335.55144033 81 335 C76.97421195 331.47452547 74.71455166 327.99514542 72.40625 323.1953125 C72.09224243 322.5531076 71.77823486 321.91090271 71.45471191 321.24923706 C70.46001965 319.21240527 69.47895168 317.16943786 68.5 315.125 C62.44631896 300.53871442 62.44631896 300.53871442 51.4375 290.125 C50.32181641 289.54105469 50.32181641 289.54105469 49.18359375 288.9453125 C42.21097121 285.92675319 35.57361509 286.65547008 28.484375 288.96484375 C17.85994449 293.3916898 11.073604 303.66636829 4.5625 312.6875 C0.02985179 318.91695404 -4.57579439 325.07632374 -9.28808594 331.17114258 C-22.34497831 348.08797493 -33.23585566 364.68174054 -34.83789062 386.57373047 C-34.90324509 387.39144928 -34.96859955 388.20916809 -35.03593445 389.05166626 C-35.24915709 391.73971075 -35.45275605 394.4283905 -35.65625 397.1171875 C-35.80495388 399.01649511 -35.95425714 400.91575588 -36.10412598 402.81497192 C-36.4973343 407.81861725 -36.88236983 412.82285897 -37.26568604 417.82727051 C-37.65004497 422.82663983 -38.04218633 427.82539726 -38.43359375 432.82421875 C-40.06881091 453.59401491 -40.06881091 453.59401491 -41.59375 474.37207031 C-41.6803186 475.58122101 -41.76688721 476.7903717 -41.8560791 478.03616333 C-42.00759982 480.16972997 -42.15331723 482.30372227 -42.29138184 484.4382019 C-43.17855602 496.82827833 -43.17855602 496.82827833 -46.625 500.9375 C-50.03215435 502.46175326 -53.41251395 503.01545229 -57 502 C-61.85744064 498.12946793 -64.13640366 493.38499454 -66.6875 487.875 C-67.11393799 486.96266602 -67.54037598 486.05033203 -67.97973633 485.11035156 C-87.09610247 443.29877219 -98.19063269 396.84453061 -98.18530273 350.79907227 C-98.18748717 348.6998253 -98.205729 346.60110786 -98.22460938 344.50195312 C-98.28098921 331.03827059 -97.68864723 317.41330637 -92 305 C-91.38511719 303.64841797 -91.38511719 303.64841797 -90.7578125 302.26953125 C-82.75841222 286.24813351 -69.35559866 277.5797498 -54.20703125 269.21484375 C-53.60687698 268.8833432 -53.00672272 268.55184265 -52.38838196 268.21029663 C-49.36170138 266.54325388 -46.32760458 264.89227396 -43.27954102 263.26464844 C-42.15346436 262.65524414 -41.0273877 262.04583984 -39.8671875 261.41796875 C-38.35294189 260.61008911 -38.35294189 260.61008911 -36.80810547 259.78588867 C-33.7233322 257.82404582 -31.39974273 255.75454193 -29 253 C-28.66542241 247.98133614 -31.29534368 244.71498856 -34.13671875 240.83203125 C-39.58250405 235.47757988 -45.44278626 235.62145299 -52.66015625 235.50390625 C-56.57408084 234.91338429 -58.20509044 233.74362682 -61 231 C-62.63023814 227.73952371 -62.4673535 225.62198965 -62 222 C-60.72973633 220.18579102 -60.72973633 220.18579102 -59.01953125 218.31640625 C-58.38418457 217.6203125 -57.74883789 216.92421875 -57.09423828 216.20703125 C-53.51459065 212.43458842 -49.87431721 208.73013169 -46.1875 205.0625 C-45.42501953 204.29615234 -44.66253906 203.52980469 -43.87695312 202.74023438 C-43.14798828 202.01255859 -42.41902344 201.28488281 -41.66796875 200.53515625 C-41.01078857 199.879104 -40.3536084 199.22305176 -39.67651367 198.54711914 C-36.29993193 195.43114441 -32.97362208 195.83381243 -28.61328125 195.7890625 C-27.10220305 195.76097551 -25.5911355 195.73231094 -24.08007812 195.703125 C-21.70158394 195.66201099 -19.32328454 195.62512009 -16.94458008 195.59863281 C-14.64622971 195.57082922 -12.34877882 195.52494205 -10.05078125 195.4765625 C-8.99882317 195.4716832 -8.99882317 195.4716832 -7.9256134 195.46670532 C-1.57565177 195.310563 2.9342092 193.74444556 7.8125 189.625 C11.83388538 184.79933755 12.44290675 179.82500647 13.11328125 173.7265625 C13.31134785 172.07936675 13.50993316 170.43223331 13.70898438 168.78515625 C14.01125974 166.22153043 14.30884513 163.65760153 14.59643555 161.09228516 C17.28393329 137.37309906 24.40505998 117.92443026 43.25 102.25 C57.14453662 92.16917361 76.12509231 82.92689077 93 80 C90.91084674 76.67282999 89.04570833 74.04570833 86.25 71.25 C85.13625 70.13625 85.13625 70.13625 84 69 C84 68.34 84 67.68 84 67 C83.43023437 66.7215625 82.86046875 66.443125 82.2734375 66.15625 C79.25531879 64.62126179 76.34319564 62.91619818 73.4140625 61.21875 C67.17428335 58.06857023 61.49484377 57.6102015 54.625 57.375 C53.69816406 57.33632812 52.77132812 57.29765625 51.81640625 57.2578125 C49.5444623 57.16412409 47.27251404 57.07840652 45 57 C44.86851562 58.2375 44.73703125 59.475 44.6015625 60.75 C43.55132584 69.06406863 39.01034053 75.30663483 33 81 C25.35732783 86.83917893 18.29795042 88.29960414 8.83886719 88.29052734 C7.82992905 88.29724457 6.82099091 88.30396179 5.78147888 88.31088257 C2.45322717 88.32984598 -0.87482265 88.33378614 -4.203125 88.3359375 C-6.52472007 88.3423672 -8.84631433 88.34909569 -11.16790771 88.35610962 C-16.03334429 88.3680787 -20.8987099 88.37179088 -25.76416016 88.37060547 C-31.98251527 88.37040245 -38.20041249 88.39768913 -44.41865921 88.43214989 C-49.21437651 88.45444717 -54.00998417 88.45844211 -58.80574799 88.45738602 C-61.09735439 88.4597383 -63.38896398 88.46854067 -65.6805191 88.48405075 C-68.89442992 88.50376477 -72.10736065 88.4978506 -75.32128906 88.48583984 C-76.72596184 88.50269836 -76.72596184 88.50269836 -78.15901184 88.51989746 C-88.00353377 88.42695461 -96.88807166 84.89780576 -104 78 C-106.32755009 75.15521655 -108.21932289 72.21187554 -110 69 C-110.34160156 68.40832031 -110.68320313 67.81664063 -111.03515625 67.20703125 C-114.51237951 59.8806027 -114.10882417 49.77358201 -112.30859375 42.0234375 C-109.0497876 33.21511626 -103.2877069 25.56973072 -95 21 C-87.36821585 17.85347696 -80.24101354 16.33030138 -72 17 C-71.75378906 16.27683594 -71.50757813 15.55367187 -71.25390625 14.80859375 C-66.3071771 3.72853688 -55.22650159 -3.02993321 -44.359375 -7.23828125 C-29.33491179 -12.08889437 -12.80807009 -8.88271911 0 0 Z M-51.7890625 18.8203125 C-55.20124591 23.14241148 -57.56898887 27.89198216 -59.82421875 32.8984375 C-61 35 -61 35 -64 37 C-65.9453125 36.9765625 -65.9453125 36.9765625 -68.125 36.625 C-78.51668321 35.18503935 -78.51668321 35.18503935 -88 39 C-91.77026669 42.94164245 -94.94747496 46.46769104 -95.03125 52.1015625 C-94.67732186 57.39278821 -93.53684059 60.8896177 -90 65 C-83.94099074 69.57517026 -79.43874565 70.15159767 -72.03393555 70.16113281 C-71.11654602 70.16609772 -70.19915649 70.17106262 -69.25396729 70.17617798 C-66.21487684 70.19079928 -63.17583861 70.19760168 -60.13671875 70.203125 C-58.02545673 70.20887662 -55.91419473 70.21463435 -53.80293274 70.22039795 C-49.37358354 70.23090794 -44.94425249 70.23675058 -40.51489258 70.24023438 C-34.84206907 70.24571811 -29.16948569 70.2697437 -23.49673748 70.29820633 C-19.13439739 70.31683974 -14.77211506 70.3220387 -10.40973854 70.32357025 C-8.31857808 70.32659587 -6.22741862 70.33462133 -4.13629723 70.34775543 C-1.20876225 70.36482987 1.71818724 70.36293212 4.64575195 70.35644531 C5.50778732 70.3656601 6.36982269 70.37487488 7.25798035 70.3843689 C13.10333836 70.34384178 17.41281535 69.38650156 21.86328125 65.28125 C22.58064453 64.39953125 22.58064453 64.39953125 23.3125 63.5 C23.80363281 62.9121875 24.29476562 62.324375 24.80078125 61.71875 C27.68196453 57.58936679 27.6792123 52.82474947 27 48 C25.00735416 42.90669001 21.93686957 39.13153647 17.03125 36.66796875 C13.84199253 35.6191937 10.67278453 35.41022425 7.33203125 35.2734375 C4.70531966 34.96544787 3.18196353 34.49923498 1 33 C-0.2734375 30.86328125 -0.2734375 30.86328125 -1.375 28.3125 C-6.07648839 18.50008429 -11.74896418 13.94678123 -22 10 C-32.79757446 7.0863688 -44.01998633 10.91553194 -51.7890625 18.8203125 Z M34 25 C34.28230469 25.55171875 34.56460938 26.1034375 34.85546875 26.671875 C36 29 36 29 36.98828125 31.578125 C38.65761793 34.94634414 39.94442497 36.75698786 43 39 C47.23342605 39.77979047 51.46290479 39.44446674 55.74121094 39.24291992 C70.51464107 38.56219349 83.56969641 42.61487029 94.8671875 52.51171875 C100.43534996 57.91792635 105.2994564 63.66809167 109.9296875 69.8828125 C112.41660709 72.42603971 113.51184611 72.62056934 117 73 C119.89728859 72.64476358 119.89728859 72.64476358 122.953125 71.890625 C124.11690674 71.6318457 125.28068848 71.37306641 126.47973633 71.10644531 C127.72392334 70.82381836 128.96811035 70.54119141 130.25 70.25 C151.63297731 65.57286166 173.19944977 63.64115509 195 62 C195.50377768 59.73000175 196.00290019 57.45896997 196.5 55.1875 C196.7784375 53.92292969 197.056875 52.65835938 197.34375 51.35546875 C198.09596992 48.07913666 198.09596992 48.07913666 198 45 C190.29177238 45.5027105 184.09251431 48.91849999 177.75 53.1875 C170.6335854 57.2731592 161.48306975 57.6831607 153.625 56 C148.14490801 54.34068928 144.18222856 51.86262594 140 48 C139.43023437 47.48566406 138.86046875 46.97132812 138.2734375 46.44140625 C134.74111684 43.07844343 131.68076555 39.42219913 128.625 35.625 C119.06513885 23.89609472 109.09872435 14.34051273 93.328125 12.7265625 C73.18814595 12.06204542 52.90990385 18.69669872 34 25 Z M160.93359375 82.56640625 C159.90451904 82.71867676 158.87544434 82.87094727 157.81518555 83.02783203 C127.88563901 87.7655051 99.46749048 95.21961211 71.75 107.6875 C70.79270996 108.11442139 69.83541992 108.54134277 68.84912109 108.98120117 C53.87955925 115.97775721 43.06017174 126.59031197 37 142 C34.80640581 149.2673954 34.02199879 156.76153114 33.078125 164.26953125 C32.99463303 164.92456635 32.91114105 165.57960144 32.82511902 166.25448608 C32.40266553 169.57293265 31.99699019 172.89069367 31.62036133 176.21484375 C30.07458976 188.88935057 27.02564954 198.60788974 16.79296875 206.7578125 C9.99530848 211.55207374 3.82015063 213.2409163 -4.54296875 213.23828125 C-5.96029623 213.25368328 -7.37761416 213.26998557 -8.79492188 213.28710938 C-11.00046083 213.30361827 -13.20529233 213.31244334 -15.41088867 213.30541992 C-17.55987758 213.30280182 -19.7067616 213.33087019 -21.85546875 213.36328125 C-23.13059326 213.36626221 -24.40571777 213.36924316 -25.71948242 213.37231445 C-29.19107884 213.7095362 -29.19107884 213.7095362 -31.4465332 216.53979492 C-31.95917725 217.3516626 -32.47182129 218.16353027 -33 219 C-32.3709375 219.31710938 -31.741875 219.63421875 -31.09375 219.9609375 C-22.19798285 224.81073826 -15.41404133 231.92586933 -11.625 241.44921875 C-9.75796213 249.06906705 -9.74125318 257.31260341 -13.63671875 264.25390625 C-16.95426617 268.50302859 -20.65543061 271.65894058 -25.25 274.4375 C-26.93996094 275.46037109 -26.93996094 275.46037109 -28.6640625 276.50390625 C-32.07900135 278.50080547 -35.54488297 280.39371025 -39.0234375 282.27734375 C-56.94524838 292.01160687 -71.53290991 300.57761026 -78 321 C-79.04588188 325.98885655 -79.17553769 330.82134182 -79.203125 335.89453125 C-79.21013931 336.75073563 -79.21715363 337.60694 -79.22438049 338.48908997 C-79.24190815 341.26361332 -79.2482402 344.03792318 -79.25 346.8125 C-79.25067474 347.75961853 -79.25134949 348.70673706 -79.25204468 349.68255615 C-79.23507936 364.66309104 -78.63864129 379.21846022 -76 394 C-75.82839355 394.97420898 -75.65678711 395.94841797 -75.47998047 396.95214844 C-71.9590137 416.34106464 -66.96960011 435.5595527 -60 454 C-59.67 454 -59.34 454 -59 454 C-58.93149338 453.10845215 -58.86298676 452.2169043 -58.79240417 451.29833984 C-58.13982732 442.82612626 -57.4787526 434.35462552 -56.80852795 425.88378906 C-56.46438922 421.53061278 -56.12334683 417.17724348 -55.78979492 412.82324219 C-55.46675431 408.60803701 -55.13503985 404.39359033 -54.79772377 400.17950439 C-54.6715689 398.58529997 -54.54835054 396.99085987 -54.42836571 395.3961792 C-51.49361191 356.51596894 -33.83119157 332.03243977 -10.6328125 301.7734375 C-8.48769229 298.96946681 -6.36755726 296.15407062 -4.3046875 293.2890625 C4.71720062 280.80930785 15.47689333 271.82304362 31 269 C42.74933185 267.73566207 54.31090977 268.78588802 64.25 275.6875 C72.94522947 283.09499306 78.12319132 291.29164536 83 301.5625 C83.58850892 302.77473748 84.17834584 303.98633117 84.76953125 305.19726562 C86.19280779 308.12548212 87.60249651 311.05941973 89 314 C99.12906965 312.49761882 106.47867893 306.42935493 112.99609375 298.734375 C122.26748482 286.08335404 125.19599806 271.58224663 125.125 256.1875 C125.12886719 255.32962891 125.13273438 254.47175781 125.13671875 253.58789062 C125.13542969 252.76869141 125.13414062 251.94949219 125.1328125 251.10546875 C125.13112061 249.99401489 125.13112061 249.99401489 125.12939453 248.86010742 C125.11311719 246.90617897 125.11311719 246.90617897 124 245 C123.11328613 244.99589111 122.22657227 244.99178223 121.31298828 244.98754883 C117.9761101 244.9603401 114.64099663 244.91102179 111.3046875 244.84741211 C109.86957875 244.82442594 108.43430595 244.80988253 106.99902344 244.80444336 C97.2681036 244.76033528 88.55088579 244.19564599 81.07348633 237.19677734 C76.07217197 231.80358343 74.39206747 226.29756086 74 219 C74.18843967 214.92116925 74.64215527 210.88341438 75.109375 206.828125 C75.2368512 205.66931824 75.36432739 204.51051147 75.4956665 203.31658936 C75.76697594 200.87200874 76.04292823 198.42793946 76.32324219 195.984375 C76.74687136 192.27737737 77.15184451 188.56868235 77.5546875 184.859375 C77.82179611 182.4738326 78.08999048 180.08841147 78.359375 177.703125 C78.47827087 176.60897278 78.59716675 175.51482056 78.71966553 174.38751221 C81.09602938 154.03739424 87.78598087 138.2063077 103.51953125 124.86328125 C110.41485329 119.64147823 117.93892002 115.30808648 125.3359375 110.84375 C129.69342582 108.20371993 133.98207516 105.46948665 138.25 102.6875 C145.15920425 98.18412758 152.1020658 93.73632466 159.0625 89.3125 C160.04573242 88.68754639 161.02896484 88.06259277 162.04199219 87.41870117 C164.36099716 85.94527856 166.68030884 84.472342 169 83 C165.739793 81.91326433 164.28084788 82.07015378 160.93359375 82.56640625 Z M198.9140625 85.0078125 C197.91221924 85.65766113 196.91037598 86.30750977 195.87817383 86.97705078 C194.26785278 88.04028564 194.26785278 88.04028564 192.625 89.125 C191.49893112 89.85889326 190.37221303 90.59179127 189.24487305 91.32373047 C186.93907636 92.82165903 184.63589665 94.32348782 182.33447266 95.828125 C177.51794558 98.96532114 172.66700644 102.04703822 167.8125 105.125 C166.00900079 106.27195651 164.20561529 107.41909183 162.40234375 108.56640625 C158.74985658 110.88854801 155.09596385 113.20846202 151.44140625 115.52734375 C142.21335838 121.38528142 132.99676849 127.26111375 123.8125 133.1875 C122.96864746 133.72834229 122.12479492 134.26918457 121.25537109 134.82641602 C120.47629395 135.33100342 119.6972168 135.83559082 118.89453125 136.35546875 C118.21237549 136.79528076 117.53021973 137.23509277 116.82739258 137.68823242 C115.01805022 138.98704291 113.52429867 140.38093242 112 142 C115.14212747 151.71203035 123.87512637 157.75632641 132.57421875 162.36328125 C138.75046744 165.17066702 143.81416024 166.16414276 150.625 166.125 C151.6459375 166.13080078 151.6459375 166.13080078 152.6875 166.13671875 C156.46957632 166.18405111 156.46957632 166.18405111 160 165 C159.855625 163.97003906 159.71125 162.94007813 159.5625 161.87890625 C155.33185887 130.20728319 155.33185887 130.20728319 164.57421875 116.69921875 C170.87562464 108.89957649 179.1091035 103.67653828 189 102 C204.20982119 100.59671859 216.52323315 104.01966668 230.75 109.125 C232.70353581 109.79946206 234.65796285 110.47134838 236.61328125 111.140625 C267.33051452 121.73472294 287.88472882 134.21018736 308.05859375 160.2265625 C311.28188448 164.37818738 314.56942745 168.47621669 317.875 172.5625 C318.67804565 173.56253052 318.67804565 173.56253052 319.49731445 174.58276367 C322.48971114 178.27412118 325.57363139 181.70638737 329 185 C321.13314953 154.19380427 307.08489784 123.77264439 287 99 C286.08927734 97.77410156 286.08927734 97.77410156 285.16015625 96.5234375 C279.37717962 89.21219009 271.20390237 84.55739342 262.16796875 82.2890625 C257.88478057 81.89824138 253.7245576 82.11293214 249.4375 82.375 C248.54998047 82.42390381 247.66246094 82.47280762 246.74804688 82.52319336 C241.82566232 82.80246808 236.91331521 83.15156818 232 83.5625 C215.24802173 84.89920869 215.24802173 84.89920869 208 82 C203.55711242 82 202.5222912 82.64190068 198.9140625 85.0078125 Z " fill="#000000" transform="translate(123,10)"/>
<path d="M0 0 C3.97904676 3.84332733 7.82928284 7.7563972 10.40234375 12.6875 C12.4950636 15.71657128 14.10353547 16.02301115 17.625 16.9375 C28.41869084 20.21857369 35.5320587 26.01684018 41.0625 35.8984375 C44.79400668 44.40196715 45.21548247 55.30211991 42 64 C37.77863288 73.88957379 31.04260682 80.49181097 21.39453125 85.08984375 C15.79404892 87.21857521 10.33979254 87.1593336 4.42724609 87.17700195 C2.98961914 87.18685875 2.98961914 87.18685875 1.52294922 87.19691467 C-1.64355556 87.21659675 -4.81001299 87.22829997 -7.9765625 87.23828125 C-9.06150372 87.24235678 -10.14644493 87.2464323 -11.26426315 87.25063133 C-17.00869301 87.271472 -22.75309914 87.28578149 -28.49755859 87.29516602 C-34.41203362 87.30621637 -40.326131 87.34060656 -46.24047279 87.38033772 C-50.80460276 87.40656241 -55.36864359 87.41486314 -59.93284225 87.41844749 C-62.11198853 87.42329955 -64.2911312 87.43487383 -66.4702034 87.45348549 C-88.34225272 87.6286619 -88.34225272 87.6286619 -97 83 C-98.051875 82.443125 -99.10375 81.88625 -100.1875 81.3125 C-107.73567892 75.10621956 -114.00488405 68.08919622 -115.23486328 58.09082031 C-116.16232426 47.06979369 -114.75557453 37.58464166 -108.12109375 28.3984375 C-102.64503629 22.2063578 -95.177597 17.50605179 -87 16 C-84.97917376 15.99464682 -82.95832697 15.99492892 -80.9375 16 C-77.00521483 15.77544057 -75.52490414 15.52401145 -72.703125 12.70703125 C-71.34891796 10.76232696 -70.03778227 8.78697813 -68.76953125 6.78515625 C-63.19871286 -1.98304135 -52.61571403 -7.04347304 -42.8828125 -9.921875 C-27.59811902 -12.92205356 -12.41366365 -9.41519417 0 0 Z M-55 19 C-58.1892363 23.07513528 -60.13976546 27.38198339 -62.0703125 32.14453125 C-63 34 -63 34 -65 35 C-69.43888195 35.31311615 -73.74992527 35.09010117 -78.125 34.3125 C-83.75426291 33.85852718 -87.09328759 35.78663756 -91.75 38.75 C-95.51136899 42.51136899 -96.82371501 46.32529259 -97.375 51.5625 C-96.6749698 57.97944351 -93.775663 61.80673492 -89 66 C-86.17508628 67.67058042 -84.11566635 68.25198667 -80.84562683 68.26742554 C-79.61567238 68.28022049 -79.61567238 68.28022049 -78.36087036 68.29327393 C-77.02437943 68.29191437 -77.02437943 68.29191437 -75.66088867 68.29052734 C-74.7156987 68.29724457 -73.77050873 68.30396179 -72.79667664 68.31088257 C-69.67038726 68.32988814 -66.54431231 68.33378821 -63.41796875 68.3359375 C-61.24326997 68.34236413 -59.06857207 68.34909239 -56.89387512 68.35610962 C-52.33344519 68.36808913 -47.77309104 68.37178979 -43.21264648 68.37060547 C-37.37506709 68.37040236 -31.53797495 68.39769399 -25.70051098 68.43214989 C-21.20772581 68.45441244 -16.71505796 68.45844318 -12.22222328 68.45738602 C-10.07048172 68.45974334 -7.91873699 68.46857425 -5.76704979 68.48405075 C-2.75345362 68.5036952 0.25909117 68.49787814 3.27270508 68.48583984 C4.60008698 68.50269836 4.60008698 68.50269836 5.95428467 68.51989746 C11.79816305 68.4607202 15.21080235 67.40395214 20 64 C23.70586409 59.22138577 25.43394131 55.31314158 25.34375 49.19140625 C24.52032105 43.94204671 21.2479328 40.18553616 17.5 36.625 C13.05365748 34.56062669 8.88357767 34.18733568 4.0234375 33.78515625 C0.14472953 32.77789488 -0.86882802 31.32540503 -3 28 C-4.01953125 26.0078125 -4.01953125 26.0078125 -4.8125 24.125 C-8.4294179 16.66598644 -14.33110791 11.94105965 -22 9 C-34.70548757 5.14436324 -46.18431342 9.65127191 -55 19 Z " fill="#000000" transform="translate(415,275)"/>
<path d="M0 0 C6.26348698 4.79292917 9.69132147 12.06531875 10.921875 19.75 C11.54868393 27.74181388 9.50398707 35.80506465 4.4921875 42.15234375 C-1.80160988 48.55573462 -8.88573688 51.68798753 -17.80859375 51.77734375 C-25.44275349 51.36667861 -30.97063884 49.42388344 -36.765625 44.4375 C-42.6287525 37.62359507 -45.55334092 32.41766808 -46.390625 23.375 C-45.66365959 14.94220127 -43.09363669 7.83325394 -37.078125 1.75 C-25.68153165 -7.3533764 -12.3066309 -7.40248475 0 0 Z M-26.078125 17.75 C-27.48813164 20.57001327 -27.32360951 22.62007255 -27.078125 25.75 C-25.83047194 28.49483673 -24.72497065 30.22294058 -22.390625 32.125 C-18.79654276 33.09637358 -15.62620364 32.8624099 -12.078125 31.75 C-8.85520931 29.01052166 -8.17600946 27.4351912 -7.578125 23.25 C-8.1549269 19.21238667 -9.22462717 17.60349783 -12.078125 14.75 C-17.56855146 12.00478677 -21.97961021 13.65148521 -26.078125 17.75 Z " fill="#000000" transform="translate(177.078125,382.25)"/>
<path d="M0 0 C6.02938762 6.02938762 9.27856571 13.04447132 9.5625 21.5625 C9.32692443 30.72514967 6.76516179 36.62764696 0.44140625 43.30078125 C-5.78643306 48.84033885 -12.77401037 50.62794744 -20.95703125 50.53125 C-28.55641617 49.76599725 -35.54045744 46.83165275 -40.75 41.25 C-46.48032126 32.39688786 -47.65482371 24.6765151 -46.75 14.25 C-44.24451022 5.36370679 -38.25912145 0.10270949 -30.6875 -4.6875 C-19.97370726 -8.62820538 -9.16673297 -5.83337553 0 0 Z M-25.125 14.25 C-28.24764184 17.81873353 -28.91566764 19.52847232 -28.75 24.25 C-26.52020332 28.50798376 -26.52020332 28.50798376 -22.75 31.25 C-18.56855989 31.64447548 -16.44053952 31.70035186 -12.875 29.375 C-10.1626761 26.6626761 -9.81085907 25.78758847 -9.375 21.9375 C-9.44957022 18.16525814 -9.44957022 18.16525814 -11.8125 15.375 C-16.67161715 11.85989398 -19.87056225 11.13625911 -25.125 14.25 Z " fill="#000000" transform="translate(494.75,5.75)"/>
<path d="M0 0 C2.19943785 1.6372681 4.14357256 3.39464614 6.10546875 5.30859375 C7.98428655 6.98597129 9.70665564 7.98808087 12 9 C12.556875 8.36191406 13.11375 7.72382813 13.6875 7.06640625 C20.70300054 -0.52976917 20.70300054 -0.52976917 25.25 -1.25 C29.23404323 -0.98439712 31.01976365 -0.62962031 34 2 C35.64322009 4.76359743 35.99123552 6.60559835 36.0625 9.8125 C34.73154192 13.80537424 32.57933941 16.06782667 29.69140625 19.0703125 C28.03048893 20.96521587 27.01444243 22.70603471 26 25 C26.83144531 25.77923828 26.83144531 25.77923828 27.6796875 26.57421875 C28.40414062 27.27160156 29.12859375 27.96898437 29.875 28.6875 C30.59429687 29.37199219 31.31359375 30.05648438 32.0546875 30.76171875 C34.93151136 34.07179922 36.05398407 36.67739026 35.875 41.0625 C34.83352425 44.55888287 33.97247625 45.8879774 31 48 C27.33097034 49.00064445 25.06482039 49.42592816 21.5 48 C18.06607112 45.2528569 15.02722069 42.18425231 12 39 C8.8048123 40.40985 6.67770868 42.13315182 4.1875 44.5625 C0.54403086 47.80640653 -1.95941185 49.19021087 -7 49 C-10.57387602 47.41161066 -11.81089572 46.28365642 -14 43 C-14.64962686 39.31878111 -14.69339052 37.01042201 -12.5390625 33.87109375 C-10.7588916 31.83178405 -8.92822555 29.89932281 -7 28 C-6.42894531 27.42765625 -5.85789062 26.8553125 -5.26953125 26.265625 C-4.85058594 25.84796875 -4.43164062 25.4303125 -4 25 C-5.39633107 21.81440048 -7.04557493 19.76056155 -9.5625 17.375 C-12.68539824 14.40142953 -13.89437082 13.11966929 -14.3125 8.6875 C-13.95018869 4.41222654 -13.03853708 2.95172173 -10 0 C-6.04638861 -1.31787046 -4.05226317 -1.0628887 0 0 Z " fill="#000000" transform="translate(421,421)"/>
<path d="M0 0 C3.37466272 2.40120232 4.82682162 3.46154672 6.25 7.3125 C6.78493197 11.87825741 6.81101303 15.87880003 5.125 20.1875 C2.10190292 23.61367669 -0.52473854 25.99154883 -5.1875 26.6640625 C-8.96537424 26.78774291 -12.04444125 26.55791174 -15.625 25.3125 C-19.28802606 21.86494606 -21.51193282 18.07594653 -21.94921875 13 C-21.61061072 7.27268698 -19.92254113 4.20054969 -15.75 0.3125 C-10.65475268 -2.63738002 -5.20603508 -2.7128495 0 0 Z " fill="#000000" transform="translate(52.75,155.6875)"/>
</svg>
