<svg xmlns="http://www.w3.org/2000/svg" xmlns:xlink="http://www.w3.org/1999/xlink" width="100" zoomAndPan="magnify" viewBox="0 0 75 74.999997" height="100" preserveAspectRatio="xMidYMid meet" version="1.0"><defs><g/><clipPath id="afd56b72de"><path d="M 25 37.199219 L 53 37.199219 L 53 37.949219 L 25 37.949219 Z M 25 37.199219 " clip-rule="nonzero"/></clipPath></defs><g fill="#ffffff" fill-opacity="1"><g transform="translate(15.761719, 20.926462)"><g><path d="M 7.5625 -8.515625 C 7.5625 -8.410156 7.539062 -8.304688 7.5 -8.203125 C 7.46875 -8.109375 7.425781 -8.007812 7.375 -7.90625 C 7.320312 -7.8125 7.273438 -7.710938 7.234375 -7.609375 C 7.191406 -7.515625 7.164062 -7.410156 7.15625 -7.296875 C 7.03125 -7.066406 6.898438 -6.828125 6.765625 -6.578125 C 6.640625 -6.335938 6.503906 -6.097656 6.359375 -5.859375 C 6.222656 -5.628906 6.066406 -5.40625 5.890625 -5.1875 C 5.722656 -4.976562 5.53125 -4.789062 5.3125 -4.625 C 5.113281 -4.320312 4.890625 -4.066406 4.640625 -3.859375 C 4.390625 -3.648438 4.15625 -3.421875 3.9375 -3.171875 C 3.957031 -2.941406 3.988281 -2.710938 4.03125 -2.484375 C 4.082031 -2.265625 4.128906 -2.046875 4.171875 -1.828125 C 4.242188 -1.691406 4.296875 -1.550781 4.328125 -1.40625 C 4.359375 -1.269531 4.382812 -1.128906 4.40625 -0.984375 C 4.425781 -0.847656 4.445312 -0.707031 4.46875 -0.5625 C 4.5 -0.425781 4.535156 -0.289062 4.578125 -0.15625 L 4.578125 0.484375 C 4.578125 0.523438 4.578125 0.5625 4.578125 0.59375 C 4.578125 0.632812 4.570312 0.675781 4.5625 0.71875 C 4.78125 0.8125 5 0.914062 5.21875 1.03125 C 5.4375 1.15625 5.648438 1.304688 5.859375 1.484375 C 5.859375 1.566406 5.882812 1.628906 5.9375 1.671875 C 5.988281 1.722656 6.046875 1.769531 6.109375 1.8125 C 6.171875 1.863281 6.226562 1.910156 6.28125 1.953125 C 6.332031 1.992188 6.359375 2.039062 6.359375 2.09375 C 6.359375 2.15625 6.304688 2.226562 6.203125 2.3125 C 6.148438 2.3125 6.101562 2.28125 6.0625 2.21875 C 6.03125 2.164062 5.992188 2.140625 5.953125 2.140625 C 5.910156 2.140625 5.878906 2.15625 5.859375 2.1875 L 5.859375 2.171875 C 5.859375 2.054688 5.828125 1.953125 5.765625 1.859375 C 5.710938 1.765625 5.644531 1.675781 5.5625 1.59375 C 5.476562 1.519531 5.382812 1.445312 5.28125 1.375 C 5.175781 1.3125 5.082031 1.253906 5 1.203125 L 4.921875 1.140625 C 4.847656 1.128906 4.78125 1.113281 4.71875 1.09375 C 4.65625 1.070312 4.585938 1.054688 4.515625 1.046875 C 4.421875 1.160156 4.347656 1.285156 4.296875 1.421875 C 4.253906 1.554688 4.191406 1.679688 4.109375 1.796875 C 3.835938 2.222656 3.515625 2.582031 3.140625 2.875 C 2.773438 3.164062 2.382812 3.421875 1.96875 3.640625 C 1.726562 3.679688 1.476562 3.738281 1.21875 3.8125 C 0.957031 3.894531 0.703125 3.9375 0.453125 3.9375 C 0.316406 3.9375 0.1875 3.921875 0.0625 3.890625 C -0.0507812 3.859375 -0.171875 3.804688 -0.296875 3.734375 C -0.429688 3.734375 -0.539062 3.679688 -0.625 3.578125 C -0.707031 3.472656 -0.789062 3.382812 -0.875 3.3125 C -0.90625 3.238281 -0.921875 3.15625 -0.921875 3.0625 C -0.921875 2.957031 -0.898438 2.851562 -0.859375 2.75 C -0.828125 2.644531 -0.785156 2.546875 -0.734375 2.453125 C -0.453125 2.171875 -0.148438 1.929688 0.171875 1.734375 C 0.503906 1.546875 0.847656 1.382812 1.203125 1.25 C 1.554688 1.125 1.914062 1.015625 2.28125 0.921875 C 2.65625 0.835938 3.03125 0.75 3.40625 0.65625 L 3.953125 0.703125 C 4.046875 0.710938 4.125 0.703125 4.1875 0.671875 C 4.257812 0.640625 4.304688 0.585938 4.328125 0.515625 L 4.34375 0.328125 C 4.351562 0.179688 4.347656 0.0351562 4.328125 -0.109375 C 4.304688 -0.253906 4.273438 -0.394531 4.234375 -0.53125 C 4.203125 -0.675781 4.171875 -0.816406 4.140625 -0.953125 C 4.109375 -1.097656 4.09375 -1.242188 4.09375 -1.390625 C 3.96875 -1.628906 3.878906 -1.882812 3.828125 -2.15625 C 3.785156 -2.4375 3.742188 -2.71875 3.703125 -3 C 3.597656 -3 3.492188 -2.960938 3.390625 -2.890625 C 3.296875 -2.816406 3.203125 -2.742188 3.109375 -2.671875 C 3.003906 -2.523438 2.890625 -2.410156 2.765625 -2.328125 C 2.640625 -2.242188 2.515625 -2.164062 2.390625 -2.09375 C 2.273438 -2.019531 2.15625 -1.945312 2.03125 -1.875 C 1.90625 -1.800781 1.789062 -1.710938 1.6875 -1.609375 C 0.925781 -1.117188 0.195312 -0.609375 -0.5 -0.078125 C -1.207031 0.441406 -1.929688 0.960938 -2.671875 1.484375 L -2.859375 1.65625 C -3.054688 1.820312 -3.257812 1.992188 -3.46875 2.171875 C -3.675781 2.359375 -3.863281 2.554688 -4.03125 2.765625 C -4.207031 2.972656 -4.347656 3.1875 -4.453125 3.40625 C -4.554688 3.632812 -4.597656 3.878906 -4.578125 4.140625 L -4.5625 4.296875 C -4.507812 4.410156 -4.445312 4.519531 -4.375 4.625 C -4.300781 4.738281 -4.210938 4.828125 -4.109375 4.890625 C -4.023438 4.910156 -3.9375 4.921875 -3.84375 4.921875 C -3.695312 4.921875 -3.5625 4.894531 -3.4375 4.84375 C -3.320312 4.800781 -3.207031 4.742188 -3.09375 4.671875 L -3 4.625 C -2.945312 4.550781 -2.894531 4.484375 -2.84375 4.421875 C -2.800781 4.359375 -2.78125 4.28125 -2.78125 4.1875 L -2.78125 4.140625 C -2.78125 4.109375 -2.804688 4.09375 -2.859375 4.09375 L -2.921875 4.09375 C -2.972656 4.09375 -3 4.082031 -3 4.0625 L -3 3.84375 C -2.945312 3.820312 -2.898438 3.8125 -2.859375 3.8125 C -2.773438 3.8125 -2.707031 3.832031 -2.65625 3.875 C -2.601562 3.925781 -2.546875 3.984375 -2.484375 4.046875 L -2.46875 4.0625 C -2.457031 4.09375 -2.453125 4.140625 -2.453125 4.203125 C -2.453125 4.285156 -2.472656 4.363281 -2.515625 4.4375 C -2.554688 4.507812 -2.601562 4.570312 -2.65625 4.625 C -2.71875 4.6875 -2.773438 4.742188 -2.828125 4.796875 C -2.890625 4.859375 -2.945312 4.921875 -3 4.984375 C -3.09375 5.078125 -3.195312 5.132812 -3.3125 5.15625 C -3.425781 5.175781 -3.550781 5.191406 -3.6875 5.203125 L -4.1875 5.171875 C -4.382812 5.035156 -4.535156 4.867188 -4.640625 4.671875 C -4.742188 4.472656 -4.796875 4.257812 -4.796875 4.03125 C -4.796875 3.988281 -4.796875 3.945312 -4.796875 3.90625 C -4.796875 3.875 -4.789062 3.835938 -4.78125 3.796875 C -4.726562 3.503906 -4.617188 3.234375 -4.453125 2.984375 C -4.296875 2.742188 -4.109375 2.515625 -3.890625 2.296875 C -3.671875 2.078125 -3.4375 1.863281 -3.1875 1.65625 C -2.945312 1.445312 -2.71875 1.242188 -2.5 1.046875 C -1.644531 0.460938 -0.796875 -0.132812 0.046875 -0.75 C 0.890625 -1.375 1.738281 -1.96875 2.59375 -2.53125 C 2.675781 -2.644531 2.765625 -2.738281 2.859375 -2.8125 C 2.953125 -2.882812 3.046875 -2.953125 3.140625 -3.015625 C 3.234375 -3.078125 3.320312 -3.140625 3.40625 -3.203125 C 3.5 -3.273438 3.585938 -3.363281 3.671875 -3.46875 L 3.671875 -4.046875 C 3.671875 -4.359375 3.679688 -4.664062 3.703125 -4.96875 C 3.734375 -5.28125 3.816406 -5.570312 3.953125 -5.84375 C 4.003906 -5.96875 4.050781 -6.09375 4.09375 -6.21875 C 4.144531 -6.351562 4.195312 -6.476562 4.25 -6.59375 C 4.3125 -6.71875 4.382812 -6.832031 4.46875 -6.9375 C 4.550781 -7.050781 4.65625 -7.148438 4.78125 -7.234375 C 4.832031 -7.347656 4.898438 -7.457031 4.984375 -7.5625 C 5.078125 -7.675781 5.175781 -7.78125 5.28125 -7.875 C 5.382812 -7.96875 5.488281 -8.0625 5.59375 -8.15625 C 5.695312 -8.25 5.789062 -8.347656 5.875 -8.453125 C 5.988281 -8.617188 6.144531 -8.753906 6.34375 -8.859375 C 6.539062 -8.972656 6.738281 -9.03125 6.9375 -9.03125 C 7.0625 -9.03125 7.171875 -9.003906 7.265625 -8.953125 C 7.367188 -8.910156 7.457031 -8.832031 7.53125 -8.71875 C 7.550781 -8.675781 7.5625 -8.640625 7.5625 -8.609375 C 7.5625 -8.578125 7.5625 -8.546875 7.5625 -8.515625 Z M 7.28125 -8.46875 C 7.28125 -8.53125 7.273438 -8.578125 7.265625 -8.609375 L 7.203125 -8.671875 C 7.117188 -8.691406 7.054688 -8.703125 7.015625 -8.703125 C 6.835938 -8.703125 6.671875 -8.648438 6.515625 -8.546875 C 6.359375 -8.453125 6.222656 -8.34375 6.109375 -8.21875 C 5.734375 -7.914062 5.382812 -7.578125 5.0625 -7.203125 C 4.75 -6.828125 4.492188 -6.429688 4.296875 -6.015625 C 4.253906 -5.785156 4.1875 -5.570312 4.09375 -5.375 C 4 -5.175781 3.953125 -4.96875 3.953125 -4.75 L 3.953125 -4.703125 C 3.953125 -4.609375 3.945312 -4.515625 3.9375 -4.421875 C 3.9375 -4.328125 3.9375 -4.234375 3.9375 -4.140625 C 3.9375 -4.046875 3.941406 -3.957031 3.953125 -3.875 C 3.960938 -3.789062 3.988281 -3.71875 4.03125 -3.65625 C 4.625 -4.226562 5.171875 -4.804688 5.671875 -5.390625 C 6.171875 -5.984375 6.582031 -6.628906 6.90625 -7.328125 L 6.90625 -7.375 C 6.90625 -7.476562 6.921875 -7.570312 6.953125 -7.65625 C 6.992188 -7.738281 7.039062 -7.820312 7.09375 -7.90625 C 7.144531 -7.988281 7.1875 -8.070312 7.21875 -8.15625 C 7.257812 -8.25 7.28125 -8.351562 7.28125 -8.46875 Z M 4.109375 0.96875 C 3.804688 0.988281 3.488281 1.003906 3.15625 1.015625 C 2.820312 1.023438 2.515625 1.09375 2.234375 1.21875 C 2.117188 1.21875 2.007812 1.234375 1.90625 1.265625 C 1.800781 1.304688 1.695312 1.347656 1.59375 1.390625 C 1.5 1.441406 1.398438 1.488281 1.296875 1.53125 C 1.191406 1.570312 1.085938 1.597656 0.984375 1.609375 C 0.804688 1.703125 0.625 1.789062 0.4375 1.875 C 0.257812 1.96875 0.09375 2.070312 -0.0625 2.1875 C -0.226562 2.300781 -0.367188 2.429688 -0.484375 2.578125 C -0.597656 2.734375 -0.671875 2.914062 -0.703125 3.125 C -0.640625 3.25 -0.5625 3.335938 -0.46875 3.390625 C -0.382812 3.453125 -0.289062 3.503906 -0.1875 3.546875 C -0.0820312 3.585938 0.0234375 3.613281 0.140625 3.625 C 0.253906 3.644531 0.367188 3.664062 0.484375 3.6875 C 0.691406 3.632812 0.898438 3.585938 1.109375 3.546875 C 1.316406 3.515625 1.519531 3.46875 1.71875 3.40625 C 1.925781 3.351562 2.125 3.273438 2.3125 3.171875 C 2.507812 3.066406 2.6875 2.925781 2.84375 2.75 C 3.15625 2.5625 3.429688 2.300781 3.671875 1.96875 C 3.910156 1.644531 4.054688 1.3125 4.109375 0.96875 Z M 4.109375 0.96875 "/></g></g></g><g fill="#ffffff" fill-opacity="1"><g transform="translate(21.74319, 20.926462)"><g><path d="M 4.703125 -0.21875 C 4.691406 -0.132812 4.671875 -0.0820312 4.640625 -0.0625 C 4.609375 -0.0390625 4.550781 -0.00390625 4.46875 0.046875 C 4.40625 0.0859375 4.328125 0.144531 4.234375 0.21875 C 4.148438 0.289062 4.0625 0.363281 3.96875 0.4375 C 3.875 0.507812 3.78125 0.570312 3.6875 0.625 C 3.59375 0.6875 3.492188 0.71875 3.390625 0.71875 C 3.265625 0.71875 3.15625 0.671875 3.0625 0.578125 C 3.125 0.304688 3.195312 0.0351562 3.28125 -0.234375 C 3.363281 -0.503906 3.460938 -0.757812 3.578125 -1 L 3.609375 -1.296875 C 3.335938 -1.234375 3.070312 -1.09375 2.8125 -0.875 C 2.5625 -0.65625 2.320312 -0.445312 2.09375 -0.25 C 1.65625 0.175781 1.257812 0.628906 0.90625 1.109375 C 0.550781 1.597656 0.222656 2.101562 -0.078125 2.625 C -0.378906 3.144531 -0.65625 3.679688 -0.90625 4.234375 C -1.15625 4.785156 -1.382812 5.335938 -1.59375 5.890625 C -1.675781 6.023438 -1.75 6.160156 -1.8125 6.296875 C -1.882812 6.429688 -1.953125 6.570312 -2.015625 6.71875 C -2.015625 6.757812 -2.023438 6.804688 -2.046875 6.859375 C -2.078125 6.921875 -2.125 6.953125 -2.1875 6.953125 C -2.21875 6.953125 -2.253906 6.941406 -2.296875 6.921875 L -2.34375 6.796875 C -2.09375 6.179688 -1.820312 5.570312 -1.53125 4.96875 C -1.25 4.363281 -0.960938 3.757812 -0.671875 3.15625 C -0.378906 2.550781 -0.09375 1.945312 0.1875 1.34375 C 0.46875 0.738281 0.734375 0.117188 0.984375 -0.515625 L 0.953125 -0.515625 C 0.890625 -0.515625 0.828125 -0.488281 0.765625 -0.4375 C 0.703125 -0.394531 0.640625 -0.359375 0.578125 -0.328125 C 0.535156 -0.316406 0.484375 -0.296875 0.421875 -0.265625 C 0.367188 -0.234375 0.3125 -0.195312 0.25 -0.15625 C 0.195312 -0.113281 0.144531 -0.0703125 0.09375 -0.03125 C 0.0507812 0.0078125 0.0078125 0.0351562 -0.03125 0.046875 L -0.078125 0.046875 C -0.160156 0.046875 -0.226562 0.0078125 -0.28125 -0.0625 C -0.03125 -0.226562 0.222656 -0.414062 0.484375 -0.625 C 0.742188 -0.832031 0.988281 -1.054688 1.21875 -1.296875 C 1.445312 -1.546875 1.644531 -1.804688 1.8125 -2.078125 C 1.988281 -2.347656 2.109375 -2.628906 2.171875 -2.921875 C 2.222656 -3.066406 2.289062 -3.207031 2.375 -3.34375 C 2.457031 -3.488281 2.535156 -3.632812 2.609375 -3.78125 C 2.640625 -3.851562 2.6875 -3.90625 2.75 -3.9375 C 2.820312 -3.96875 2.890625 -3.984375 2.953125 -3.984375 C 3.023438 -3.984375 3.082031 -3.960938 3.125 -3.921875 C 3.175781 -3.878906 3.207031 -3.8125 3.21875 -3.71875 C 3.226562 -3.6875 3.234375 -3.644531 3.234375 -3.59375 C 3.234375 -3.425781 3.191406 -3.265625 3.109375 -3.109375 C 3.023438 -2.960938 2.9375 -2.816406 2.84375 -2.671875 C 2.738281 -2.503906 2.613281 -2.34375 2.46875 -2.1875 C 2.320312 -2.03125 2.175781 -1.867188 2.03125 -1.703125 C 1.894531 -1.546875 1.769531 -1.378906 1.65625 -1.203125 C 1.539062 -1.035156 1.457031 -0.851562 1.40625 -0.65625 C 1.269531 -0.445312 1.160156 -0.222656 1.078125 0.015625 C 1.003906 0.253906 0.914062 0.488281 0.8125 0.71875 L 0.84375 0.75 C 0.914062 0.613281 1.003906 0.484375 1.109375 0.359375 C 1.222656 0.242188 1.335938 0.128906 1.453125 0.015625 C 1.566406 -0.0976562 1.675781 -0.207031 1.78125 -0.3125 C 1.894531 -0.425781 2 -0.539062 2.09375 -0.65625 C 2.332031 -0.851562 2.59375 -1.050781 2.875 -1.25 C 3.15625 -1.445312 3.421875 -1.644531 3.671875 -1.84375 C 3.703125 -1.875 3.734375 -1.890625 3.765625 -1.890625 C 3.816406 -1.890625 3.867188 -1.867188 3.921875 -1.828125 C 3.972656 -1.796875 4.007812 -1.765625 4.03125 -1.734375 L 4.046875 -1.625 C 4.046875 -1.507812 4.023438 -1.398438 3.984375 -1.296875 C 3.953125 -1.191406 3.914062 -1.085938 3.875 -0.984375 C 3.832031 -0.878906 3.789062 -0.773438 3.75 -0.671875 C 3.707031 -0.566406 3.679688 -0.460938 3.671875 -0.359375 C 3.628906 -0.265625 3.582031 -0.164062 3.53125 -0.0625 C 3.488281 0.03125 3.46875 0.125 3.46875 0.21875 C 3.46875 0.28125 3.476562 0.332031 3.5 0.375 C 3.6875 0.289062 3.851562 0.195312 4 0.09375 C 4.144531 -0.0078125 4.304688 -0.117188 4.484375 -0.234375 C 4.546875 -0.253906 4.585938 -0.265625 4.609375 -0.265625 C 4.640625 -0.265625 4.671875 -0.25 4.703125 -0.21875 Z M 3 -3.546875 C 3 -3.578125 2.984375 -3.617188 2.953125 -3.671875 C 2.859375 -3.617188 2.800781 -3.546875 2.78125 -3.453125 C 2.769531 -3.359375 2.71875 -3.28125 2.625 -3.21875 L 2.640625 -3.15625 C 2.640625 -3.070312 2.609375 -3 2.546875 -2.9375 C 2.492188 -2.875 2.46875 -2.804688 2.46875 -2.734375 L 2.46875 -2.71875 C 2.519531 -2.757812 2.570312 -2.8125 2.625 -2.875 C 2.6875 -2.9375 2.738281 -3 2.78125 -3.0625 C 2.789062 -3.15625 2.828125 -3.234375 2.890625 -3.296875 C 2.960938 -3.367188 3 -3.453125 3 -3.546875 Z M 3 -3.546875 "/></g></g></g><g fill="#ffffff" fill-opacity="1"><g transform="translate(26.286563, 20.926462)"><g><path d="M 2.75 -0.234375 C 2.632812 -0.0976562 2.476562 0.0234375 2.28125 0.140625 C 2.09375 0.253906 1.925781 0.378906 1.78125 0.515625 C 1.625 0.554688 1.460938 0.617188 1.296875 0.703125 C 1.140625 0.796875 0.976562 0.84375 0.8125 0.84375 C 0.75 0.84375 0.679688 0.832031 0.609375 0.8125 C 0.546875 0.800781 0.484375 0.769531 0.421875 0.71875 C 0.265625 0.570312 0.171875 0.40625 0.140625 0.21875 C 0.117188 0.0390625 0.0820312 -0.132812 0.03125 -0.3125 C 0.132812 -0.46875 0.234375 -0.632812 0.328125 -0.8125 C 0.421875 -0.988281 0.519531 -1.164062 0.625 -1.34375 C 0.789062 -1.53125 0.960938 -1.691406 1.140625 -1.828125 C 1.328125 -1.972656 1.546875 -2.046875 1.796875 -2.046875 L 1.890625 -2.046875 L 2.078125 -1.875 C 2.066406 -1.675781 2.007812 -1.488281 1.90625 -1.3125 C 1.8125 -1.132812 1.691406 -0.972656 1.546875 -0.828125 C 1.410156 -0.679688 1.25 -0.550781 1.0625 -0.4375 C 0.882812 -0.332031 0.710938 -0.242188 0.546875 -0.171875 L 0.53125 -0.171875 C 0.5 -0.171875 0.46875 -0.160156 0.4375 -0.140625 C 0.414062 -0.117188 0.394531 -0.09375 0.375 -0.0625 C 0.375 0.0507812 0.394531 0.160156 0.4375 0.265625 C 0.488281 0.378906 0.570312 0.460938 0.6875 0.515625 C 0.71875 0.523438 0.773438 0.53125 0.859375 0.53125 C 0.992188 0.53125 1.140625 0.5 1.296875 0.4375 C 1.453125 0.382812 1.601562 0.3125 1.75 0.21875 C 1.894531 0.132812 2.035156 0.0390625 2.171875 -0.0625 C 2.316406 -0.164062 2.453125 -0.257812 2.578125 -0.34375 L 2.625 -0.359375 C 2.675781 -0.359375 2.71875 -0.316406 2.75 -0.234375 Z M 1.75 -1.6875 C 1.75 -1.71875 1.742188 -1.75 1.734375 -1.78125 C 1.566406 -1.75 1.414062 -1.664062 1.28125 -1.53125 C 1.15625 -1.40625 1.03125 -1.300781 0.90625 -1.21875 C 0.875 -1.101562 0.8125 -0.992188 0.71875 -0.890625 C 0.625 -0.785156 0.578125 -0.679688 0.578125 -0.578125 L 0.578125 -0.5625 C 0.773438 -0.613281 0.953125 -0.703125 1.109375 -0.828125 C 1.265625 -0.953125 1.425781 -1.097656 1.59375 -1.265625 C 1.613281 -1.328125 1.644531 -1.394531 1.6875 -1.46875 C 1.726562 -1.550781 1.75 -1.625 1.75 -1.6875 Z M 1.75 -1.6875 "/></g></g></g><g fill="#ffffff" fill-opacity="1"><g transform="translate(28.768237, 20.926462)"><g><path d="M 4.421875 -0.046875 C 4.410156 -0.0351562 4.40625 -0.0234375 4.40625 -0.015625 L 4.40625 0 C 4.3125 0.0625 4.222656 0.117188 4.140625 0.171875 C 4.066406 0.234375 3.984375 0.289062 3.890625 0.34375 C 3.796875 0.394531 3.691406 0.4375 3.578125 0.46875 C 3.460938 0.507812 3.328125 0.546875 3.171875 0.578125 C 3.078125 0.597656 2.988281 0.609375 2.90625 0.609375 C 2.738281 0.609375 2.609375 0.578125 2.515625 0.515625 C 2.460938 0.472656 2.429688 0.425781 2.421875 0.375 C 2.410156 0.320312 2.40625 0.265625 2.40625 0.203125 L 2.40625 0.171875 C 2.40625 0.128906 2.398438 0.0859375 2.390625 0.046875 C 2.390625 0.015625 2.382812 -0.015625 2.375 -0.046875 C 2.144531 0.0976562 1.914062 0.242188 1.6875 0.390625 C 1.46875 0.546875 1.210938 0.628906 0.921875 0.640625 C 0.835938 0.597656 0.773438 0.535156 0.734375 0.453125 C 0.691406 0.367188 0.671875 0.28125 0.671875 0.1875 C 0.671875 0.144531 0.679688 0.0820312 0.703125 0 C 0.710938 -0.0195312 0.726562 -0.0625 0.75 -0.125 C 0.78125 -0.1875 0.804688 -0.242188 0.828125 -0.296875 C 0.847656 -0.359375 0.875 -0.414062 0.90625 -0.46875 C 0.9375 -0.53125 0.96875 -0.566406 1 -0.578125 C 0.945312 -0.578125 0.875 -0.550781 0.78125 -0.5 C 0.6875 -0.457031 0.59375 -0.40625 0.5 -0.34375 C 0.40625 -0.28125 0.3125 -0.21875 0.21875 -0.15625 C 0.132812 -0.09375 0.0664062 -0.0390625 0.015625 0 C -0.015625 0.0195312 -0.03125 0.03125 -0.03125 0.03125 C -0.0507812 0.03125 -0.0664062 0.0195312 -0.078125 0 C -0.0976562 -0.0195312 -0.125 -0.03125 -0.15625 -0.03125 C -0.164062 -0.03125 -0.171875 -0.0390625 -0.171875 -0.0625 C -0.171875 -0.09375 -0.144531 -0.128906 -0.09375 -0.171875 C -0.0390625 -0.210938 -0.00390625 -0.253906 0.015625 -0.296875 C 0.160156 -0.421875 0.304688 -0.523438 0.453125 -0.609375 C 0.597656 -0.691406 0.734375 -0.78125 0.859375 -0.875 C 1.035156 -0.96875 1.207031 -1.078125 1.375 -1.203125 C 1.539062 -1.335938 1.707031 -1.460938 1.875 -1.578125 C 2.039062 -1.691406 2.210938 -1.785156 2.390625 -1.859375 C 2.578125 -1.929688 2.78125 -1.957031 3 -1.9375 L 3.140625 -1.921875 C 3.179688 -1.890625 3.222656 -1.863281 3.265625 -1.84375 C 3.316406 -1.820312 3.363281 -1.789062 3.40625 -1.75 L 3.40625 -1.65625 C 3.40625 -1.539062 3.378906 -1.425781 3.328125 -1.3125 C 3.285156 -1.195312 3.234375 -1.085938 3.171875 -0.984375 C 3.117188 -0.890625 3.066406 -0.796875 3.015625 -0.703125 C 2.960938 -0.617188 2.929688 -0.535156 2.921875 -0.453125 C 2.898438 -0.367188 2.867188 -0.28125 2.828125 -0.1875 C 2.785156 -0.09375 2.765625 0 2.765625 0.09375 C 2.765625 0.15625 2.785156 0.222656 2.828125 0.296875 C 2.890625 0.316406 2.96875 0.328125 3.0625 0.328125 C 3.226562 0.328125 3.414062 0.273438 3.625 0.171875 C 3.84375 0.078125 4.035156 -0.0351562 4.203125 -0.171875 C 4.234375 -0.171875 4.265625 -0.1875 4.296875 -0.21875 C 4.335938 -0.25 4.375 -0.273438 4.40625 -0.296875 L 4.421875 -0.28125 Z M 3 -1.640625 C 2.976562 -1.640625 2.953125 -1.640625 2.921875 -1.640625 C 2.890625 -1.648438 2.863281 -1.65625 2.84375 -1.65625 C 2.8125 -1.65625 2.78125 -1.65625 2.75 -1.65625 C 2.726562 -1.65625 2.707031 -1.648438 2.6875 -1.640625 C 2.664062 -1.628906 2.597656 -1.59375 2.484375 -1.53125 C 2.378906 -1.476562 2.253906 -1.398438 2.109375 -1.296875 C 1.972656 -1.203125 1.832031 -1.085938 1.6875 -0.953125 C 1.550781 -0.828125 1.429688 -0.6875 1.328125 -0.53125 C 1.265625 -0.4375 1.203125 -0.328125 1.140625 -0.203125 C 1.078125 -0.0859375 1.046875 0.0195312 1.046875 0.125 C 1.046875 0.1875 1.050781 0.226562 1.0625 0.25 C 1.113281 0.269531 1.160156 0.28125 1.203125 0.28125 C 1.328125 0.28125 1.460938 0.238281 1.609375 0.15625 C 1.753906 0.0703125 1.84375 0.00390625 1.875 -0.046875 C 2.019531 -0.128906 2.15625 -0.238281 2.28125 -0.375 C 2.414062 -0.507812 2.507812 -0.597656 2.5625 -0.640625 C 2.664062 -0.785156 2.765625 -0.945312 2.859375 -1.125 C 2.960938 -1.300781 3.03125 -1.472656 3.0625 -1.640625 Z M 3 -1.640625 "/></g></g></g><g fill="#ffffff" fill-opacity="1"><g transform="translate(33.133437, 20.926462)"><g><path d="M 7.96875 -7.59375 C 7.945312 -7.375 7.890625 -7.160156 7.796875 -6.953125 C 7.703125 -6.753906 7.585938 -6.5625 7.453125 -6.375 C 7.316406 -6.195312 7.171875 -6.023438 7.015625 -5.859375 C 6.859375 -5.691406 6.707031 -5.535156 6.5625 -5.390625 L 6.421875 -5.25 C 6.066406 -4.894531 5.71875 -4.539062 5.375 -4.1875 C 5.03125 -3.84375 4.675781 -3.515625 4.3125 -3.203125 C 3.9375 -2.878906 3.566406 -2.546875 3.203125 -2.203125 C 2.847656 -1.859375 2.550781 -1.472656 2.3125 -1.046875 C 2.289062 -0.960938 2.257812 -0.890625 2.21875 -0.828125 C 2.175781 -0.765625 2.132812 -0.703125 2.09375 -0.640625 C 2.050781 -0.585938 2.015625 -0.53125 1.984375 -0.46875 C 1.953125 -0.40625 1.9375 -0.332031 1.9375 -0.25 C 2.289062 -0.5625 2.65625 -0.875 3.03125 -1.1875 C 3.40625 -1.507812 3.796875 -1.796875 4.203125 -2.046875 C 4.304688 -2.117188 4.414062 -2.175781 4.53125 -2.21875 C 4.644531 -2.257812 4.769531 -2.28125 4.90625 -2.28125 C 5.03125 -2.25 5.09375 -2.1875 5.09375 -2.09375 C 5.09375 -2.03125 5.066406 -1.957031 5.015625 -1.875 C 4.972656 -1.789062 4.953125 -1.71875 4.953125 -1.65625 C 4.867188 -1.5625 4.789062 -1.476562 4.71875 -1.40625 C 4.65625 -1.34375 4.609375 -1.253906 4.578125 -1.140625 C 4.671875 -1.085938 4.765625 -1.023438 4.859375 -0.953125 C 4.960938 -0.890625 5.015625 -0.796875 5.015625 -0.671875 L 5.015625 -0.65625 C 5.015625 -0.5625 5 -0.46875 4.96875 -0.375 C 4.9375 -0.28125 4.894531 -0.1875 4.84375 -0.09375 C 4.800781 -0.0078125 4.757812 0.078125 4.71875 0.171875 C 4.675781 0.265625 4.648438 0.351562 4.640625 0.4375 C 4.648438 0.46875 4.675781 0.484375 4.71875 0.484375 C 4.769531 0.484375 4.832031 0.453125 4.90625 0.390625 C 4.976562 0.328125 5.046875 0.296875 5.109375 0.296875 L 5.125 0.296875 C 5.207031 0.203125 5.300781 0.125 5.40625 0.0625 C 5.519531 0.0078125 5.609375 -0.0507812 5.671875 -0.125 C 5.742188 -0.15625 5.804688 -0.191406 5.859375 -0.234375 C 5.910156 -0.285156 5.960938 -0.3125 6.015625 -0.3125 C 6.035156 -0.3125 6.0625 -0.289062 6.09375 -0.25 C 6.09375 -0.175781 6.0625 -0.109375 6 -0.046875 C 5.9375 0.00390625 5.863281 0.0507812 5.78125 0.09375 C 5.695312 0.144531 5.609375 0.195312 5.515625 0.25 C 5.429688 0.3125 5.363281 0.378906 5.3125 0.453125 C 5.1875 0.515625 5.070312 0.582031 4.96875 0.65625 C 4.875 0.738281 4.765625 0.796875 4.640625 0.828125 C 4.617188 0.847656 4.585938 0.859375 4.546875 0.859375 C 4.503906 0.859375 4.46875 0.847656 4.4375 0.828125 C 4.40625 0.804688 4.375 0.789062 4.34375 0.78125 C 4.3125 0.695312 4.296875 0.613281 4.296875 0.53125 C 4.296875 0.332031 4.34375 0.148438 4.4375 -0.015625 C 4.539062 -0.179688 4.613281 -0.351562 4.65625 -0.53125 C 4.65625 -0.539062 4.648438 -0.550781 4.640625 -0.5625 C 4.640625 -0.570312 4.640625 -0.582031 4.640625 -0.59375 L 4.640625 -0.65625 C 4.640625 -0.65625 4.644531 -0.660156 4.65625 -0.671875 C 4.65625 -0.710938 4.632812 -0.75 4.59375 -0.78125 L 4.546875 -0.78125 C 4.398438 -0.78125 4.273438 -0.742188 4.171875 -0.671875 C 4.078125 -0.609375 3.984375 -0.535156 3.890625 -0.453125 C 3.804688 -0.378906 3.710938 -0.304688 3.609375 -0.234375 C 3.515625 -0.171875 3.40625 -0.140625 3.28125 -0.140625 L 3.203125 -0.140625 C 3.203125 -0.160156 3.203125 -0.191406 3.203125 -0.234375 C 3.203125 -0.285156 3.21875 -0.332031 3.25 -0.375 C 3.289062 -0.414062 3.335938 -0.445312 3.390625 -0.46875 C 3.441406 -0.5 3.5 -0.53125 3.5625 -0.5625 C 3.625 -0.601562 3.671875 -0.644531 3.703125 -0.6875 C 3.898438 -0.863281 4.082031 -1.0625 4.25 -1.28125 C 4.425781 -1.5 4.582031 -1.722656 4.71875 -1.953125 L 4.671875 -2.015625 C 3.960938 -1.609375 3.28125 -1.109375 2.625 -0.515625 C 1.976562 0.0664062 1.441406 0.734375 1.015625 1.484375 C 0.972656 1.515625 0.941406 1.554688 0.921875 1.609375 C 0.910156 1.660156 0.894531 1.710938 0.875 1.765625 C 0.863281 1.828125 0.84375 1.878906 0.8125 1.921875 C 0.789062 1.960938 0.742188 1.984375 0.671875 1.984375 C 0.628906 1.984375 0.59375 1.976562 0.5625 1.96875 C 0.601562 1.6875 0.671875 1.421875 0.765625 1.171875 C 0.867188 0.921875 0.988281 0.671875 1.125 0.421875 C 1.269531 0.171875 1.421875 -0.0664062 1.578125 -0.296875 C 1.734375 -0.535156 1.882812 -0.785156 2.03125 -1.046875 C 2.039062 -1.109375 2.078125 -1.164062 2.140625 -1.21875 C 2.203125 -1.28125 2.234375 -1.34375 2.234375 -1.40625 C 2.234375 -1.425781 2.226562 -1.441406 2.21875 -1.453125 C 2.050781 -1.359375 1.867188 -1.242188 1.671875 -1.109375 C 1.484375 -0.984375 1.289062 -0.851562 1.09375 -0.71875 C 0.90625 -0.59375 0.71875 -0.46875 0.53125 -0.34375 C 0.34375 -0.21875 0.171875 -0.101562 0.015625 0 C -0.0234375 -0.0078125 -0.0546875 -0.015625 -0.078125 -0.015625 C -0.0976562 -0.015625 -0.117188 -0.03125 -0.140625 -0.0625 C -0.140625 -0.132812 -0.0859375 -0.207031 0.015625 -0.28125 C 0.0546875 -0.332031 0.101562 -0.375 0.15625 -0.40625 C 0.207031 -0.445312 0.253906 -0.476562 0.296875 -0.5 C 0.773438 -0.78125 1.253906 -1.097656 1.734375 -1.453125 C 2.210938 -1.816406 2.679688 -2.175781 3.140625 -2.53125 C 3.441406 -2.988281 3.757812 -3.425781 4.09375 -3.84375 C 4.4375 -4.269531 4.785156 -4.6875 5.140625 -5.09375 C 5.492188 -5.507812 5.847656 -5.921875 6.203125 -6.328125 C 6.554688 -6.742188 6.898438 -7.171875 7.234375 -7.609375 L 7.265625 -7.609375 C 7.359375 -7.609375 7.445312 -7.640625 7.53125 -7.703125 C 7.625 -7.765625 7.707031 -7.796875 7.78125 -7.796875 C 7.863281 -7.796875 7.925781 -7.726562 7.96875 -7.59375 Z M 7.53125 -7.46875 C 7.351562 -7.25 7.15625 -7.019531 6.9375 -6.78125 C 6.726562 -6.550781 6.546875 -6.320312 6.390625 -6.09375 C 5.984375 -5.675781 5.59375 -5.25 5.21875 -4.8125 C 4.84375 -4.375 4.5 -3.929688 4.1875 -3.484375 C 4.625 -3.796875 5.03125 -4.15625 5.40625 -4.5625 C 5.78125 -4.976562 6.160156 -5.375 6.546875 -5.75 C 6.628906 -5.882812 6.734375 -6.015625 6.859375 -6.140625 C 6.984375 -6.273438 7.097656 -6.410156 7.203125 -6.546875 C 7.316406 -6.691406 7.414062 -6.835938 7.5 -6.984375 C 7.582031 -7.128906 7.632812 -7.289062 7.65625 -7.46875 Z M 7.53125 -7.46875 "/></g></g></g><g fill="#ffffff" fill-opacity="1"><g transform="translate(39.051279, 20.926462)"><g/></g></g><g fill="#ffffff" fill-opacity="1"><g transform="translate(42.23292, 20.926462)"><g><path d="M 12.90625 -6.953125 C 12.90625 -6.867188 12.863281 -6.820312 12.78125 -6.8125 C 12.707031 -6.800781 12.644531 -6.769531 12.59375 -6.71875 C 12.195312 -6.5625 11.8125 -6.367188 11.4375 -6.140625 C 11.070312 -5.910156 10.710938 -5.660156 10.359375 -5.390625 C 9.929688 -5.035156 9.476562 -4.648438 9 -4.234375 C 8.53125 -3.816406 8.128906 -3.363281 7.796875 -2.875 C 7.671875 -2.757812 7.5625 -2.628906 7.46875 -2.484375 C 7.382812 -2.347656 7.300781 -2.207031 7.21875 -2.0625 C 7.144531 -1.914062 7.0625 -1.769531 6.96875 -1.625 C 6.875 -1.488281 6.765625 -1.363281 6.640625 -1.25 C 6.546875 -1.03125 6.425781 -0.8125 6.28125 -0.59375 C 6.144531 -0.382812 6.035156 -0.164062 5.953125 0.0625 C 5.910156 0.300781 5.851562 0.550781 5.78125 0.8125 C 5.707031 1.070312 5.671875 1.332031 5.671875 1.59375 L 5.671875 1.640625 C 5.628906 1.660156 5.597656 1.679688 5.578125 1.703125 C 5.554688 1.734375 5.523438 1.75 5.484375 1.75 L 5.453125 1.734375 C 5.410156 1.648438 5.390625 1.546875 5.390625 1.421875 L 5.453125 0.78125 C 5.492188 0.300781 5.535156 -0.175781 5.578125 -0.65625 C 5.617188 -1.144531 5.648438 -1.625 5.671875 -2.09375 C 5.671875 -2.132812 5.675781 -2.164062 5.6875 -2.1875 C 5.707031 -2.21875 5.71875 -2.253906 5.71875 -2.296875 C 5.71875 -2.316406 5.710938 -2.335938 5.703125 -2.359375 L 5.671875 -2.40625 C 5.285156 -2.050781 4.867188 -1.675781 4.421875 -1.28125 C 3.984375 -0.894531 3.550781 -0.554688 3.125 -0.265625 C 2.539062 0.210938 1.921875 0.609375 1.265625 0.921875 C 0.617188 1.234375 -0.078125 1.390625 -0.828125 1.390625 C -0.890625 1.390625 -0.945312 1.390625 -1 1.390625 C -1.050781 1.390625 -1.109375 1.382812 -1.171875 1.375 C -1.296875 1.320312 -1.425781 1.257812 -1.5625 1.1875 C -1.695312 1.113281 -1.820312 1.03125 -1.9375 0.9375 C -2.0625 0.84375 -2.164062 0.738281 -2.25 0.625 C -2.34375 0.507812 -2.40625 0.375 -2.4375 0.21875 L -2.4375 0.140625 C -2.4375 -0.00390625 -2.445312 -0.140625 -2.46875 -0.265625 C -2.5 -0.398438 -2.515625 -0.53125 -2.515625 -0.65625 C -2.515625 -0.75 -2.503906 -0.835938 -2.484375 -0.921875 C -2.460938 -1.015625 -2.425781 -1.109375 -2.375 -1.203125 C -2.332031 -1.535156 -2.238281 -1.847656 -2.09375 -2.140625 C -1.957031 -2.441406 -1.785156 -2.726562 -1.578125 -3 C -1.378906 -3.28125 -1.164062 -3.546875 -0.9375 -3.796875 C -0.71875 -4.054688 -0.5 -4.3125 -0.28125 -4.5625 C -0.164062 -4.625 -0.0546875 -4.695312 0.046875 -4.78125 C 0.148438 -4.875 0.25 -4.96875 0.34375 -5.0625 C 0.5 -5.144531 0.648438 -5.234375 0.796875 -5.328125 C 0.953125 -5.421875 1.109375 -5.503906 1.265625 -5.578125 C 1.421875 -5.660156 1.582031 -5.726562 1.75 -5.78125 C 1.914062 -5.832031 2.085938 -5.859375 2.265625 -5.859375 L 2.359375 -5.859375 L 2.375 -5.828125 C 2.4375 -5.910156 2.503906 -5.953125 2.578125 -5.953125 C 2.640625 -5.953125 2.703125 -5.941406 2.765625 -5.921875 C 2.828125 -5.898438 2.890625 -5.890625 2.953125 -5.890625 L 2.984375 -5.890625 C 3.253906 -5.796875 3.476562 -5.640625 3.65625 -5.421875 C 3.84375 -5.210938 3.988281 -4.984375 4.09375 -4.734375 C 4.050781 -4.597656 4.03125 -4.453125 4.03125 -4.296875 C 4.039062 -4.148438 4.039062 -4.003906 4.03125 -3.859375 C 4.03125 -3.722656 4 -3.597656 3.9375 -3.484375 C 3.882812 -3.367188 3.78125 -3.273438 3.625 -3.203125 C 3.59375 -3.242188 3.578125 -3.289062 3.578125 -3.34375 C 3.578125 -3.4375 3.617188 -3.523438 3.703125 -3.609375 C 3.785156 -3.691406 3.828125 -3.785156 3.828125 -3.890625 L 3.8125 -3.953125 C 3.820312 -4.035156 3.828125 -4.113281 3.828125 -4.1875 C 3.835938 -4.269531 3.84375 -4.351562 3.84375 -4.4375 C 3.84375 -4.5625 3.828125 -4.675781 3.796875 -4.78125 C 3.773438 -4.882812 3.726562 -4.976562 3.65625 -5.0625 C 3.632812 -5.144531 3.597656 -5.207031 3.546875 -5.25 C 3.492188 -5.300781 3.4375 -5.34375 3.375 -5.375 C 3.3125 -5.414062 3.242188 -5.453125 3.171875 -5.484375 C 3.097656 -5.515625 3.035156 -5.554688 2.984375 -5.609375 C 2.828125 -5.648438 2.675781 -5.671875 2.53125 -5.671875 C 2.257812 -5.671875 1.992188 -5.613281 1.734375 -5.5 C 1.472656 -5.382812 1.222656 -5.28125 0.984375 -5.1875 C 0.484375 -4.894531 0.0390625 -4.535156 -0.34375 -4.109375 C -0.738281 -3.679688 -1.117188 -3.265625 -1.484375 -2.859375 L -1.484375 -2.796875 C -1.484375 -2.710938 -1.519531 -2.644531 -1.59375 -2.59375 C -1.675781 -2.550781 -1.726562 -2.488281 -1.75 -2.40625 C -1.789062 -2.25 -1.835938 -2.09375 -1.890625 -1.9375 C -1.953125 -1.78125 -2.007812 -1.617188 -2.0625 -1.453125 C -2.125 -1.296875 -2.175781 -1.132812 -2.21875 -0.96875 C -2.257812 -0.8125 -2.28125 -0.648438 -2.28125 -0.484375 C -2.28125 -0.296875 -2.25 -0.113281 -2.1875 0.0625 C -2.175781 0.175781 -2.140625 0.273438 -2.078125 0.359375 C -2.023438 0.441406 -1.957031 0.519531 -1.875 0.59375 C -1.789062 0.675781 -1.707031 0.75 -1.625 0.8125 C -1.550781 0.882812 -1.476562 0.953125 -1.40625 1.015625 C -1.289062 1.085938 -1.175781 1.132812 -1.0625 1.15625 C -0.945312 1.1875 -0.832031 1.203125 -0.71875 1.203125 C -0.445312 1.203125 -0.179688 1.15625 0.078125 1.0625 C 0.347656 0.976562 0.609375 0.914062 0.859375 0.875 C 0.972656 0.78125 1.09375 0.703125 1.21875 0.640625 C 1.351562 0.578125 1.488281 0.515625 1.625 0.453125 C 1.757812 0.398438 1.890625 0.335938 2.015625 0.265625 C 2.148438 0.203125 2.269531 0.113281 2.375 0 C 2.945312 -0.382812 3.488281 -0.796875 4 -1.234375 C 4.519531 -1.671875 5.023438 -2.132812 5.515625 -2.625 C 5.554688 -2.695312 5.609375 -2.769531 5.671875 -2.84375 C 5.734375 -2.914062 5.789062 -2.988281 5.84375 -3.0625 C 5.90625 -3.144531 5.957031 -3.226562 6 -3.3125 C 6.039062 -3.394531 6.0625 -3.488281 6.0625 -3.59375 C 6.0625 -3.632812 6.050781 -3.695312 6.03125 -3.78125 C 6.0625 -3.875 6.09375 -3.957031 6.125 -4.03125 C 6.164062 -4.113281 6.1875 -4.203125 6.1875 -4.296875 C 6.289062 -4.535156 6.378906 -4.78125 6.453125 -5.03125 C 6.535156 -5.28125 6.632812 -5.519531 6.75 -5.75 C 6.8125 -5.894531 6.890625 -6.035156 6.984375 -6.171875 C 7.085938 -6.304688 7.226562 -6.394531 7.40625 -6.4375 C 7.488281 -6.414062 7.5625 -6.375 7.625 -6.3125 C 7.6875 -6.257812 7.726562 -6.191406 7.75 -6.109375 C 7.71875 -5.804688 7.640625 -5.523438 7.515625 -5.265625 C 7.390625 -5.003906 7.269531 -4.738281 7.15625 -4.46875 C 7.082031 -4.300781 6.976562 -4.132812 6.84375 -3.96875 C 6.71875 -3.8125 6.59375 -3.648438 6.46875 -3.484375 C 6.351562 -3.328125 6.25 -3.160156 6.15625 -2.984375 C 6.0625 -2.804688 6.015625 -2.613281 6.015625 -2.40625 C 5.960938 -2.25 5.925781 -2.085938 5.90625 -1.921875 C 5.894531 -1.765625 5.882812 -1.601562 5.875 -1.4375 C 5.875 -1.269531 5.867188 -1.101562 5.859375 -0.9375 C 5.847656 -0.769531 5.820312 -0.609375 5.78125 -0.453125 L 5.828125 -0.375 C 6.148438 -0.988281 6.523438 -1.59375 6.953125 -2.1875 C 7.390625 -2.789062 7.859375 -3.363281 8.359375 -3.90625 C 8.867188 -4.445312 9.410156 -4.953125 9.984375 -5.421875 C 10.566406 -5.898438 11.171875 -6.316406 11.796875 -6.671875 C 11.953125 -6.765625 12.113281 -6.84375 12.28125 -6.90625 C 12.457031 -6.976562 12.625 -7.066406 12.78125 -7.171875 L 12.796875 -7.171875 C 12.847656 -7.171875 12.878906 -7.148438 12.890625 -7.109375 C 12.898438 -7.066406 12.90625 -7.019531 12.90625 -6.96875 Z M 7.34375 -6.078125 C 7.195312 -5.953125 7.09375 -5.804688 7.03125 -5.640625 C 6.96875 -5.484375 6.882812 -5.332031 6.78125 -5.1875 C 6.769531 -4.988281 6.71875 -4.800781 6.625 -4.625 C 6.539062 -4.445312 6.5 -4.269531 6.5 -4.09375 L 6.5 -4.03125 C 6.71875 -4.332031 6.914062 -4.644531 7.09375 -4.96875 C 7.28125 -5.300781 7.40625 -5.660156 7.46875 -6.046875 Z M 7.34375 -6.078125 "/></g></g></g><g fill="#ffffff" fill-opacity="1"><g transform="translate(50.110654, 20.926462)"><g><path d="M 3.34375 -0.125 C 3.164062 -0.0078125 3 0.078125 2.84375 0.140625 C 2.6875 0.203125 2.523438 0.234375 2.359375 0.234375 C 2.117188 0.234375 1.851562 0.171875 1.5625 0.046875 C 1.4375 0.316406 1.257812 0.550781 1.03125 0.75 C 0.800781 0.957031 0.582031 1.15625 0.375 1.34375 C 0.300781 1.363281 0.234375 1.390625 0.171875 1.421875 C 0.117188 1.453125 0.0546875 1.46875 -0.015625 1.46875 C -0.0664062 1.46875 -0.117188 1.445312 -0.171875 1.40625 C -0.265625 1.25 -0.3125 1.070312 -0.3125 0.875 C -0.3125 0.664062 -0.269531 0.453125 -0.1875 0.234375 C -0.113281 0.015625 -0.0390625 -0.1875 0.03125 -0.375 L 0.375 -0.984375 C 0.34375 -1.085938 0.3125 -1.191406 0.28125 -1.296875 C 0.25 -1.410156 0.234375 -1.523438 0.234375 -1.640625 C 0.234375 -1.835938 0.300781 -2 0.4375 -2.125 C 0.570312 -2.195312 0.722656 -2.234375 0.890625 -2.234375 C 1.003906 -2.179688 1.117188 -2.117188 1.234375 -2.046875 C 1.359375 -1.984375 1.46875 -1.90625 1.5625 -1.8125 C 1.65625 -1.71875 1.734375 -1.609375 1.796875 -1.484375 C 1.859375 -1.359375 1.890625 -1.21875 1.890625 -1.0625 L 1.890625 -0.921875 C 1.890625 -0.816406 1.878906 -0.703125 1.859375 -0.578125 C 1.835938 -0.453125 1.789062 -0.332031 1.71875 -0.21875 C 1.957031 -0.09375 2.179688 -0.03125 2.390625 -0.03125 C 2.585938 -0.03125 2.757812 -0.0664062 2.90625 -0.140625 C 3.050781 -0.222656 3.1875 -0.3125 3.3125 -0.40625 C 3.34375 -0.382812 3.363281 -0.367188 3.375 -0.359375 C 3.382812 -0.359375 3.398438 -0.34375 3.421875 -0.3125 Z M 1.625 -0.875 C 1.625 -1 1.609375 -1.109375 1.578125 -1.203125 C 1.554688 -1.304688 1.523438 -1.410156 1.484375 -1.515625 C 1.390625 -1.585938 1.289062 -1.675781 1.1875 -1.78125 C 1.082031 -1.882812 0.960938 -1.9375 0.828125 -1.9375 C 0.753906 -1.9375 0.703125 -1.925781 0.671875 -1.90625 C 0.660156 -1.851562 0.628906 -1.800781 0.578125 -1.75 C 0.535156 -1.707031 0.515625 -1.648438 0.515625 -1.578125 C 0.515625 -1.535156 0.519531 -1.503906 0.53125 -1.484375 C 0.539062 -1.347656 0.609375 -1.28125 0.734375 -1.28125 C 0.773438 -1.28125 0.820312 -1.285156 0.875 -1.296875 C 0.925781 -1.316406 0.972656 -1.332031 1.015625 -1.34375 C 1.054688 -1.289062 1.078125 -1.253906 1.078125 -1.234375 C 1.078125 -1.203125 1.0625 -1.175781 1.03125 -1.15625 C 1.007812 -1.132812 0.976562 -1.113281 0.9375 -1.09375 C 0.90625 -1.070312 0.875 -1.050781 0.84375 -1.03125 C 0.8125 -1.007812 0.789062 -0.988281 0.78125 -0.96875 C 0.820312 -0.820312 0.90625 -0.707031 1.03125 -0.625 C 1.164062 -0.539062 1.300781 -0.46875 1.4375 -0.40625 C 1.5625 -0.53125 1.625 -0.6875 1.625 -0.875 Z M 1.203125 -0.109375 C 1.078125 -0.160156 0.953125 -0.238281 0.828125 -0.34375 C 0.710938 -0.445312 0.617188 -0.539062 0.546875 -0.625 C 0.410156 -0.425781 0.285156 -0.210938 0.171875 0.015625 C 0.0546875 0.253906 0 0.503906 0 0.765625 C 0 0.878906 0.0078125 0.992188 0.03125 1.109375 C 0.113281 1.109375 0.179688 1.085938 0.234375 1.046875 C 0.296875 1.003906 0.363281 0.957031 0.4375 0.90625 C 0.5 0.832031 0.570312 0.753906 0.65625 0.671875 C 0.738281 0.597656 0.816406 0.519531 0.890625 0.4375 C 0.960938 0.351562 1.023438 0.265625 1.078125 0.171875 C 1.140625 0.078125 1.179688 -0.015625 1.203125 -0.109375 Z M 1.203125 -0.109375 "/></g></g></g><g fill="#ffffff" fill-opacity="1"><g transform="translate(53.228654, 20.926462)"><g><path d="M 6.125 -0.15625 C 6.125 -0.101562 6.085938 -0.0507812 6.015625 0 C 5.953125 0.0390625 5.890625 0.078125 5.828125 0.109375 C 5.765625 0.148438 5.710938 0.195312 5.671875 0.25 C 5.566406 0.320312 5.460938 0.390625 5.359375 0.453125 C 5.253906 0.515625 5.175781 0.585938 5.125 0.671875 C 4.988281 0.703125 4.878906 0.765625 4.796875 0.859375 C 4.722656 0.953125 4.609375 1.019531 4.453125 1.0625 C 4.359375 1.175781 4.210938 1.265625 4.015625 1.328125 C 3.828125 1.398438 3.65625 1.4375 3.5 1.4375 C 3.445312 1.363281 3.421875 1.285156 3.421875 1.203125 C 3.421875 1.078125 3.445312 0.953125 3.5 0.828125 C 3.5625 0.710938 3.59375 0.601562 3.59375 0.5 C 3.46875 0.53125 3.347656 0.585938 3.234375 0.671875 C 3.128906 0.753906 3.023438 0.835938 2.921875 0.921875 C 2.816406 1.003906 2.707031 1.078125 2.59375 1.140625 C 2.488281 1.203125 2.367188 1.234375 2.234375 1.234375 L 2.1875 1.234375 C 2.164062 1.160156 2.15625 1.09375 2.15625 1.03125 C 2.15625 0.863281 2.207031 0.703125 2.3125 0.546875 C 2.414062 0.398438 2.5 0.253906 2.5625 0.109375 C 2.625 0.00390625 2.679688 -0.0976562 2.734375 -0.203125 C 2.785156 -0.316406 2.84375 -0.425781 2.90625 -0.53125 C 3.101562 -0.75 3.25 -0.984375 3.34375 -1.234375 C 3.445312 -1.492188 3.582031 -1.742188 3.75 -1.984375 C 3.738281 -2.003906 3.734375 -2.03125 3.734375 -2.0625 L 3.765625 -2.265625 C 3.765625 -2.328125 3.722656 -2.363281 3.640625 -2.375 C 3.566406 -2.332031 3.484375 -2.296875 3.390625 -2.265625 C 3.304688 -2.242188 3.21875 -2.222656 3.125 -2.203125 C 3.039062 -2.179688 2.957031 -2.15625 2.875 -2.125 C 2.800781 -2.09375 2.734375 -2.039062 2.671875 -1.96875 C 2.429688 -1.820312 2.210938 -1.664062 2.015625 -1.5 C 1.828125 -1.332031 1.617188 -1.175781 1.390625 -1.03125 C 1.316406 -0.9375 1.21875 -0.84375 1.09375 -0.75 C 0.976562 -0.65625 0.859375 -0.5625 0.734375 -0.46875 C 0.609375 -0.375 0.484375 -0.285156 0.359375 -0.203125 C 0.242188 -0.128906 0.144531 -0.0625 0.0625 0 L 0.015625 0.015625 C -0.015625 0.015625 -0.046875 0.0078125 -0.078125 0 C -0.109375 -0.0195312 -0.125 -0.046875 -0.125 -0.078125 C -0.113281 -0.0976562 -0.078125 -0.132812 -0.015625 -0.1875 C 0.046875 -0.238281 0.0664062 -0.273438 0.046875 -0.296875 C 0.179688 -0.390625 0.335938 -0.5 0.515625 -0.625 C 0.691406 -0.75 0.875 -0.882812 1.0625 -1.03125 C 1.25 -1.1875 1.429688 -1.34375 1.609375 -1.5 C 1.796875 -1.65625 1.96875 -1.8125 2.125 -1.96875 C 2.269531 -2.070312 2.425781 -2.15625 2.59375 -2.21875 C 2.757812 -2.289062 2.914062 -2.390625 3.0625 -2.515625 C 3.15625 -2.554688 3.253906 -2.59375 3.359375 -2.625 C 3.460938 -2.664062 3.566406 -2.6875 3.671875 -2.6875 C 3.765625 -2.6875 3.847656 -2.664062 3.921875 -2.625 C 3.992188 -2.59375 4.050781 -2.53125 4.09375 -2.4375 C 4.0625 -2.164062 4 -1.914062 3.90625 -1.6875 C 3.8125 -1.457031 3.703125 -1.238281 3.578125 -1.03125 C 3.453125 -0.820312 3.316406 -0.609375 3.171875 -0.390625 C 3.035156 -0.179688 2.914062 0.0390625 2.8125 0.28125 C 2.769531 0.300781 2.738281 0.328125 2.71875 0.359375 C 2.707031 0.390625 2.695312 0.421875 2.6875 0.453125 C 2.675781 0.492188 2.660156 0.535156 2.640625 0.578125 C 2.628906 0.628906 2.609375 0.664062 2.578125 0.6875 C 2.609375 0.707031 2.640625 0.71875 2.671875 0.71875 C 2.710938 0.71875 2.753906 0.703125 2.796875 0.671875 C 2.835938 0.648438 2.878906 0.617188 2.921875 0.578125 C 2.972656 0.535156 3.015625 0.488281 3.046875 0.4375 C 3.085938 0.394531 3.128906 0.367188 3.171875 0.359375 L 3.28125 0.25 C 3.5 0.0625 3.710938 -0.117188 3.921875 -0.296875 C 4.128906 -0.484375 4.328125 -0.691406 4.515625 -0.921875 C 4.523438 -0.910156 4.546875 -0.90625 4.578125 -0.90625 L 4.625 -0.90625 C 4.6875 -0.90625 4.71875 -0.890625 4.71875 -0.859375 C 4.71875 -0.773438 4.695312 -0.695312 4.65625 -0.625 C 4.613281 -0.5625 4.566406 -0.492188 4.515625 -0.421875 C 4.460938 -0.359375 4.410156 -0.296875 4.359375 -0.234375 C 4.316406 -0.171875 4.289062 -0.101562 4.28125 -0.03125 C 4.15625 0.125 4.050781 0.296875 3.96875 0.484375 C 3.894531 0.671875 3.847656 0.863281 3.828125 1.0625 C 3.910156 1.0625 3.984375 1.039062 4.046875 1 C 4.117188 0.957031 4.179688 0.910156 4.234375 0.859375 C 4.296875 0.816406 4.351562 0.769531 4.40625 0.71875 C 4.457031 0.675781 4.515625 0.648438 4.578125 0.640625 C 4.710938 0.546875 4.851562 0.46875 5 0.40625 C 5.15625 0.34375 5.269531 0.257812 5.34375 0.15625 C 5.457031 0.113281 5.582031 0.0390625 5.71875 -0.0625 C 5.851562 -0.175781 5.953125 -0.253906 6.015625 -0.296875 C 6.085938 -0.253906 6.125 -0.207031 6.125 -0.15625 Z M 6.125 -0.15625 "/></g></g></g><g fill="#ffffff" fill-opacity="1"><g transform="translate(27.527343, 38.176461)"><g><path d="M 4.96875 -5.328125 C 4.945312 -5.242188 4.910156 -5.175781 4.859375 -5.125 C 4.804688 -5.082031 4.75 -5.039062 4.6875 -5 C 4.625 -4.96875 4.554688 -4.9375 4.484375 -4.90625 C 4.410156 -4.875 4.347656 -4.832031 4.296875 -4.78125 C 3.941406 -4.476562 3.601562 -4.160156 3.28125 -3.828125 C 2.957031 -3.503906 2.660156 -3.164062 2.390625 -2.8125 C 2.128906 -2.46875 1.898438 -2.097656 1.703125 -1.703125 C 1.503906 -1.316406 1.351562 -0.90625 1.25 -0.46875 C 1.25 -0.40625 1.238281 -0.34375 1.21875 -0.28125 C 1.195312 -0.21875 1.175781 -0.15625 1.15625 -0.09375 C 1.132812 -0.03125 1.117188 0.0234375 1.109375 0.078125 C 1.109375 0.140625 1.132812 0.207031 1.1875 0.28125 C 1.15625 0.320312 1.140625 0.375 1.140625 0.4375 C 1.140625 0.507812 1.15625 0.582031 1.1875 0.65625 C 1.226562 0.726562 1.25 0.796875 1.25 0.859375 C 1.25 0.941406 1.210938 1.007812 1.140625 1.0625 C 1.097656 1.050781 1.0625 1.046875 1.03125 1.046875 C 1.007812 1.054688 0.976562 1.0625 0.9375 1.0625 C 0.875 1.070312 0.816406 1.070312 0.765625 1.0625 C 0.765625 0.96875 0.785156 0.875 0.828125 0.78125 C 0.867188 0.695312 0.890625 0.609375 0.890625 0.515625 C 0.890625 0.429688 0.859375 0.363281 0.796875 0.3125 C 0.835938 0.21875 0.867188 0.113281 0.890625 0 C 0.910156 -0.101562 0.929688 -0.207031 0.953125 -0.3125 C 0.972656 -0.425781 1 -0.535156 1.03125 -0.640625 C 1.0625 -0.742188 1.113281 -0.835938 1.1875 -0.921875 C 1.207031 -1.171875 1.269531 -1.40625 1.375 -1.625 C 1.476562 -1.851562 1.597656 -2.070312 1.734375 -2.28125 C 1.878906 -2.488281 2.03125 -2.691406 2.1875 -2.890625 C 2.351562 -3.097656 2.5 -3.300781 2.625 -3.5 C 2.8125 -3.664062 2.988281 -3.835938 3.15625 -4.015625 C 3.320312 -4.191406 3.488281 -4.363281 3.65625 -4.53125 C 3.832031 -4.695312 4.019531 -4.851562 4.21875 -5 C 4.414062 -5.15625 4.628906 -5.285156 4.859375 -5.390625 C 4.898438 -5.367188 4.9375 -5.347656 4.96875 -5.328125 Z M 4.96875 -5.328125 "/></g></g></g><g fill="#ffffff" fill-opacity="1"><g transform="translate(31.090781, 38.176461)"><g><path d="M 4.546875 -3.578125 C 4.523438 -3.367188 4.492188 -3.160156 4.453125 -2.953125 C 4.410156 -2.753906 4.378906 -2.566406 4.359375 -2.390625 C 4.179688 -2.191406 4.023438 -1.96875 3.890625 -1.71875 C 3.753906 -1.46875 3.585938 -1.253906 3.390625 -1.078125 C 3.066406 -0.796875 2.738281 -0.523438 2.40625 -0.265625 C 2.082031 -0.00390625 1.757812 0.253906 1.4375 0.515625 L 1.4375 0.546875 C 1.4375 0.617188 1.46875 0.664062 1.53125 0.6875 C 1.601562 0.707031 1.660156 0.738281 1.703125 0.78125 C 1.890625 0.789062 2.085938 0.820312 2.296875 0.875 C 2.515625 0.925781 2.722656 0.953125 2.921875 0.953125 C 3.066406 0.953125 3.203125 0.929688 3.328125 0.890625 C 3.453125 0.859375 3.570312 0.796875 3.6875 0.703125 C 3.695312 0.703125 3.703125 0.695312 3.703125 0.6875 C 3.710938 0.6875 3.722656 0.6875 3.734375 0.6875 C 3.796875 0.6875 3.847656 0.707031 3.890625 0.75 C 3.929688 0.789062 3.976562 0.828125 4.03125 0.859375 C 4.007812 0.941406 3.976562 0.992188 3.9375 1.015625 C 3.894531 1.046875 3.84375 1.0625 3.78125 1.0625 C 3.71875 1.0625 3.65625 1.066406 3.59375 1.078125 C 3.539062 1.097656 3.5 1.132812 3.46875 1.1875 L 3.34375 1.203125 C 3.28125 1.203125 3.21875 1.203125 3.15625 1.203125 C 3.101562 1.203125 3.050781 1.203125 3 1.203125 C 2.300781 1.203125 1.648438 1.046875 1.046875 0.734375 C 0.921875 0.804688 0.785156 0.851562 0.640625 0.875 C 0.492188 0.90625 0.34375 0.921875 0.1875 0.921875 C -0.0507812 0.921875 -0.265625 0.890625 -0.453125 0.828125 C -0.515625 0.796875 -0.550781 0.75 -0.5625 0.6875 C -0.570312 0.625 -0.578125 0.5625 -0.578125 0.5 L -0.578125 0.375 C -0.523438 0.3125 -0.476562 0.25 -0.4375 0.1875 C -0.40625 0.125 -0.34375 0.0859375 -0.25 0.078125 C -0.15625 0.0351562 -0.0664062 0.015625 0.015625 0.015625 C 0.117188 0.015625 0.210938 0.03125 0.296875 0.0625 C 0.390625 0.101562 0.472656 0.144531 0.546875 0.1875 C 0.628906 0.226562 0.710938 0.269531 0.796875 0.3125 C 0.878906 0.351562 0.96875 0.375 1.0625 0.375 C 1.144531 0.375 1.234375 0.347656 1.328125 0.296875 C 1.597656 0.078125 1.867188 -0.140625 2.140625 -0.359375 C 2.421875 -0.585938 2.6875 -0.820312 2.9375 -1.0625 C 3.195312 -1.300781 3.429688 -1.554688 3.640625 -1.828125 C 3.847656 -2.097656 4.023438 -2.394531 4.171875 -2.71875 L 4.234375 -3.359375 C 4.234375 -3.441406 4.222656 -3.519531 4.203125 -3.59375 C 4.179688 -3.664062 4.125 -3.734375 4.03125 -3.796875 C 3.925781 -3.910156 3.800781 -3.988281 3.65625 -4.03125 C 3.519531 -4.070312 3.375 -4.09375 3.21875 -4.09375 C 3.15625 -4.09375 3.085938 -4.085938 3.015625 -4.078125 C 2.953125 -4.078125 2.882812 -4.070312 2.8125 -4.0625 C 2.519531 -3.976562 2.253906 -3.8125 2.015625 -3.5625 C 1.773438 -3.320312 1.613281 -3.0625 1.53125 -2.78125 C 1.519531 -2.738281 1.507812 -2.695312 1.5 -2.65625 C 1.5 -2.613281 1.5 -2.570312 1.5 -2.53125 C 1.5 -2.320312 1.566406 -2.15625 1.703125 -2.03125 C 1.753906 -1.945312 1.820312 -1.898438 1.90625 -1.890625 C 1.988281 -1.878906 2.066406 -1.867188 2.140625 -1.859375 C 2.222656 -1.859375 2.296875 -1.847656 2.359375 -1.828125 C 2.421875 -1.816406 2.460938 -1.769531 2.484375 -1.6875 C 2.390625 -1.65625 2.296875 -1.640625 2.203125 -1.640625 C 1.984375 -1.640625 1.78125 -1.710938 1.59375 -1.859375 C 1.46875 -1.972656 1.382812 -2.097656 1.34375 -2.234375 C 1.300781 -2.367188 1.285156 -2.507812 1.296875 -2.65625 C 1.304688 -2.8125 1.34375 -2.960938 1.40625 -3.109375 C 1.46875 -3.265625 1.550781 -3.40625 1.65625 -3.53125 C 1.757812 -3.664062 1.875 -3.785156 2 -3.890625 C 2.125 -4.003906 2.253906 -4.097656 2.390625 -4.171875 C 2.515625 -4.234375 2.65625 -4.28125 2.8125 -4.3125 C 2.96875 -4.351562 3.117188 -4.375 3.265625 -4.375 C 3.453125 -4.375 3.625 -4.34375 3.78125 -4.28125 C 3.945312 -4.21875 4.09375 -4.109375 4.21875 -3.953125 C 4.269531 -3.953125 4.304688 -3.9375 4.328125 -3.90625 C 4.359375 -3.875 4.378906 -3.835938 4.390625 -3.796875 C 4.410156 -3.753906 4.425781 -3.710938 4.4375 -3.671875 C 4.457031 -3.628906 4.492188 -3.597656 4.546875 -3.578125 Z M 0.65625 0.515625 C 0.5625 0.472656 0.460938 0.425781 0.359375 0.375 C 0.253906 0.332031 0.144531 0.3125 0.03125 0.3125 C 0 0.3125 -0.0234375 0.3125 -0.046875 0.3125 C -0.078125 0.3125 -0.109375 0.316406 -0.140625 0.328125 C -0.160156 0.359375 -0.191406 0.378906 -0.234375 0.390625 C -0.285156 0.410156 -0.3125 0.441406 -0.3125 0.484375 C -0.3125 0.503906 -0.3125 0.515625 -0.3125 0.515625 C -0.300781 0.628906 -0.238281 0.6875 -0.125 0.6875 C -0.0820312 0.6875 -0.0351562 0.679688 0.015625 0.671875 C 0.078125 0.660156 0.128906 0.65625 0.171875 0.65625 C 0.234375 0.65625 0.28125 0.660156 0.3125 0.671875 C 0.375 0.648438 0.441406 0.640625 0.515625 0.640625 C 0.597656 0.640625 0.644531 0.597656 0.65625 0.515625 Z M 0.65625 0.515625 "/></g></g></g><g fill="#ffffff" fill-opacity="1"><g transform="translate(35.685069, 38.176461)"><g><path d="M 3.5 -2.5625 C 3.46875 -2.40625 3.4375 -2.242188 3.40625 -2.078125 C 3.375 -1.910156 3.332031 -1.75 3.28125 -1.59375 C 3.238281 -1.445312 3.179688 -1.300781 3.109375 -1.15625 C 3.046875 -1.007812 2.957031 -0.882812 2.84375 -0.78125 C 2.789062 -0.769531 2.742188 -0.75 2.703125 -0.71875 C 2.671875 -0.6875 2.640625 -0.65625 2.609375 -0.625 C 2.585938 -0.59375 2.554688 -0.566406 2.515625 -0.546875 C 2.472656 -0.523438 2.425781 -0.515625 2.375 -0.515625 C 2.332031 -0.410156 2.273438 -0.332031 2.203125 -0.28125 C 2.128906 -0.226562 2.050781 -0.1875 1.96875 -0.15625 C 1.882812 -0.132812 1.800781 -0.109375 1.71875 -0.078125 C 1.632812 -0.0546875 1.554688 -0.0195312 1.484375 0.03125 C 1.453125 0.0390625 1.40625 0.046875 1.34375 0.046875 C 1.207031 0.046875 1.082031 0.03125 0.96875 0 C 0.863281 -0.03125 0.753906 -0.0546875 0.640625 -0.078125 C 0.515625 -0.210938 0.421875 -0.363281 0.359375 -0.53125 C 0.304688 -0.707031 0.28125 -0.890625 0.28125 -1.078125 C 0.28125 -1.160156 0.285156 -1.238281 0.296875 -1.3125 C 0.304688 -1.394531 0.316406 -1.472656 0.328125 -1.546875 C 0.398438 -1.628906 0.457031 -1.710938 0.5 -1.796875 C 0.550781 -1.890625 0.601562 -1.976562 0.65625 -2.0625 C 0.707031 -2.15625 0.765625 -2.238281 0.828125 -2.3125 C 0.890625 -2.394531 0.972656 -2.460938 1.078125 -2.515625 C 1.234375 -2.710938 1.421875 -2.867188 1.640625 -2.984375 C 1.859375 -3.109375 2.085938 -3.171875 2.328125 -3.171875 L 2.765625 -3.125 C 2.847656 -3.125 2.925781 -3.101562 3 -3.0625 C 3.070312 -3.019531 3.132812 -2.96875 3.1875 -2.90625 C 3.238281 -2.84375 3.289062 -2.78125 3.34375 -2.71875 C 3.394531 -2.65625 3.445312 -2.601562 3.5 -2.5625 Z M 3.140625 -2.09375 C 3.140625 -2.289062 3.109375 -2.484375 3.046875 -2.671875 C 2.960938 -2.765625 2.863281 -2.828125 2.75 -2.859375 C 2.632812 -2.898438 2.519531 -2.921875 2.40625 -2.921875 C 2.363281 -2.921875 2.320312 -2.921875 2.28125 -2.921875 C 2.238281 -2.921875 2.195312 -2.914062 2.15625 -2.90625 C 1.976562 -2.882812 1.8125 -2.820312 1.65625 -2.71875 C 1.507812 -2.625 1.375 -2.507812 1.25 -2.375 C 1.125 -2.238281 1.007812 -2.09375 0.90625 -1.9375 C 0.8125 -1.78125 0.722656 -1.640625 0.640625 -1.515625 L 0.625 -1.40625 C 0.613281 -1.351562 0.601562 -1.296875 0.59375 -1.234375 C 0.59375 -1.179688 0.59375 -1.125 0.59375 -1.0625 C 0.59375 -0.914062 0.617188 -0.773438 0.671875 -0.640625 C 0.722656 -0.515625 0.820312 -0.410156 0.96875 -0.328125 C 1.070312 -0.304688 1.175781 -0.296875 1.28125 -0.296875 C 1.582031 -0.296875 1.851562 -0.390625 2.09375 -0.578125 C 2.34375 -0.765625 2.570312 -0.972656 2.78125 -1.203125 L 2.90625 -1.34375 C 3 -1.4375 3.0625 -1.550781 3.09375 -1.6875 C 3.125 -1.820312 3.140625 -1.957031 3.140625 -2.09375 Z M 3.140625 -2.09375 "/></g></g></g><g fill="#ffffff" fill-opacity="1"><g transform="translate(39.08306, 38.176461)"><g><path d="M 2.359375 -3.40625 C 2.359375 -3.238281 2.304688 -3.097656 2.203125 -2.984375 C 2.097656 -2.867188 1.984375 -2.757812 1.859375 -2.65625 C 1.742188 -2.550781 1.632812 -2.441406 1.53125 -2.328125 C 1.4375 -2.210938 1.390625 -2.066406 1.390625 -1.890625 L 1.390625 -1.828125 L 1.28125 -1.671875 C 1.226562 -1.585938 1.179688 -1.503906 1.140625 -1.421875 C 1.109375 -1.347656 1.09375 -1.265625 1.09375 -1.171875 C 1.09375 -1.140625 1.101562 -1.085938 1.125 -1.015625 C 1.039062 -1.003906 1 -0.96875 1 -0.90625 C 1 -0.84375 0.96875 -0.78125 0.90625 -0.71875 C 0.90625 -0.664062 0.914062 -0.597656 0.9375 -0.515625 C 0.957031 -0.429688 0.96875 -0.359375 0.96875 -0.296875 C 0.96875 -0.222656 0.953125 -0.160156 0.921875 -0.109375 C 0.890625 -0.0546875 0.832031 -0.0195312 0.75 0 L 0.734375 0.234375 C 0.671875 0.234375 0.601562 0.222656 0.53125 0.203125 C 0.46875 0.179688 0.4375 0.128906 0.4375 0.046875 C 0.445312 -0.00390625 0.453125 -0.0625 0.453125 -0.125 C 0.453125 -0.195312 0.453125 -0.265625 0.453125 -0.328125 C 0.460938 -0.390625 0.476562 -0.445312 0.5 -0.5 C 0.519531 -0.550781 0.566406 -0.601562 0.640625 -0.65625 C 0.710938 -0.84375 0.769531 -1.035156 0.8125 -1.234375 C 0.851562 -1.441406 0.9375 -1.640625 1.0625 -1.828125 C 1.050781 -1.835938 1.046875 -1.851562 1.046875 -1.875 C 1.046875 -1.914062 1.054688 -1.945312 1.078125 -1.96875 C 1.109375 -2 1.125 -2.03125 1.125 -2.0625 C 1.125 -2.082031 1.101562 -2.113281 1.0625 -2.15625 C 1 -2.132812 0.941406 -2.113281 0.890625 -2.09375 C 0.835938 -2.082031 0.78125 -2.078125 0.71875 -2.078125 L 0.671875 -2.078125 C 0.660156 -2.097656 0.65625 -2.128906 0.65625 -2.171875 C 0.65625 -2.210938 0.679688 -2.242188 0.734375 -2.265625 C 0.785156 -2.296875 0.835938 -2.328125 0.890625 -2.359375 C 1.117188 -2.367188 1.273438 -2.441406 1.359375 -2.578125 C 1.441406 -2.722656 1.503906 -2.878906 1.546875 -3.046875 C 1.597656 -3.210938 1.660156 -3.363281 1.734375 -3.5 C 1.804688 -3.632812 1.953125 -3.703125 2.171875 -3.703125 L 2.234375 -3.703125 L 2.34375 -3.515625 Z M 2.03125 -3.28125 C 2.03125 -3.289062 2.007812 -3.3125 1.96875 -3.34375 C 1.96875 -3.3125 1.957031 -3.285156 1.9375 -3.265625 C 1.914062 -3.242188 1.90625 -3.222656 1.90625 -3.203125 C 1.90625 -3.179688 1.921875 -3.164062 1.953125 -3.15625 L 1.96875 -3.1875 C 1.988281 -3.207031 2.003906 -3.222656 2.015625 -3.234375 C 2.023438 -3.253906 2.03125 -3.269531 2.03125 -3.28125 Z M 2.03125 -3.28125 "/></g></g></g><g fill="#ffffff" fill-opacity="1"><g transform="translate(41.221125, 38.176461)"><g><path d="M 3.5 -2.5625 C 3.46875 -2.40625 3.4375 -2.242188 3.40625 -2.078125 C 3.375 -1.910156 3.332031 -1.75 3.28125 -1.59375 C 3.238281 -1.445312 3.179688 -1.300781 3.109375 -1.15625 C 3.046875 -1.007812 2.957031 -0.882812 2.84375 -0.78125 C 2.789062 -0.769531 2.742188 -0.75 2.703125 -0.71875 C 2.671875 -0.6875 2.640625 -0.65625 2.609375 -0.625 C 2.585938 -0.59375 2.554688 -0.566406 2.515625 -0.546875 C 2.472656 -0.523438 2.425781 -0.515625 2.375 -0.515625 C 2.332031 -0.410156 2.273438 -0.332031 2.203125 -0.28125 C 2.128906 -0.226562 2.050781 -0.1875 1.96875 -0.15625 C 1.882812 -0.132812 1.800781 -0.109375 1.71875 -0.078125 C 1.632812 -0.0546875 1.554688 -0.0195312 1.484375 0.03125 C 1.453125 0.0390625 1.40625 0.046875 1.34375 0.046875 C 1.207031 0.046875 1.082031 0.03125 0.96875 0 C 0.863281 -0.03125 0.753906 -0.0546875 0.640625 -0.078125 C 0.515625 -0.210938 0.421875 -0.363281 0.359375 -0.53125 C 0.304688 -0.707031 0.28125 -0.890625 0.28125 -1.078125 C 0.28125 -1.160156 0.285156 -1.238281 0.296875 -1.3125 C 0.304688 -1.394531 0.316406 -1.472656 0.328125 -1.546875 C 0.398438 -1.628906 0.457031 -1.710938 0.5 -1.796875 C 0.550781 -1.890625 0.601562 -1.976562 0.65625 -2.0625 C 0.707031 -2.15625 0.765625 -2.238281 0.828125 -2.3125 C 0.890625 -2.394531 0.972656 -2.460938 1.078125 -2.515625 C 1.234375 -2.710938 1.421875 -2.867188 1.640625 -2.984375 C 1.859375 -3.109375 2.085938 -3.171875 2.328125 -3.171875 L 2.765625 -3.125 C 2.847656 -3.125 2.925781 -3.101562 3 -3.0625 C 3.070312 -3.019531 3.132812 -2.96875 3.1875 -2.90625 C 3.238281 -2.84375 3.289062 -2.78125 3.34375 -2.71875 C 3.394531 -2.65625 3.445312 -2.601562 3.5 -2.5625 Z M 3.140625 -2.09375 C 3.140625 -2.289062 3.109375 -2.484375 3.046875 -2.671875 C 2.960938 -2.765625 2.863281 -2.828125 2.75 -2.859375 C 2.632812 -2.898438 2.519531 -2.921875 2.40625 -2.921875 C 2.363281 -2.921875 2.320312 -2.921875 2.28125 -2.921875 C 2.238281 -2.921875 2.195312 -2.914062 2.15625 -2.90625 C 1.976562 -2.882812 1.8125 -2.820312 1.65625 -2.71875 C 1.507812 -2.625 1.375 -2.507812 1.25 -2.375 C 1.125 -2.238281 1.007812 -2.09375 0.90625 -1.9375 C 0.8125 -1.78125 0.722656 -1.640625 0.640625 -1.515625 L 0.625 -1.40625 C 0.613281 -1.351562 0.601562 -1.296875 0.59375 -1.234375 C 0.59375 -1.179688 0.59375 -1.125 0.59375 -1.0625 C 0.59375 -0.914062 0.617188 -0.773438 0.671875 -0.640625 C 0.722656 -0.515625 0.820312 -0.410156 0.96875 -0.328125 C 1.070312 -0.304688 1.175781 -0.296875 1.28125 -0.296875 C 1.582031 -0.296875 1.851562 -0.390625 2.09375 -0.578125 C 2.34375 -0.765625 2.570312 -0.972656 2.78125 -1.203125 L 2.90625 -1.34375 C 3 -1.4375 3.0625 -1.550781 3.09375 -1.6875 C 3.125 -1.820312 3.140625 -1.957031 3.140625 -2.09375 Z M 3.140625 -2.09375 "/></g></g></g><g fill="#ffffff" fill-opacity="1"><g transform="translate(44.619116, 38.176461)"><g><path d="M 3.0625 -4.328125 C 3.0625 -4.128906 3.039062 -3.925781 3 -3.71875 C 2.957031 -3.507812 2.90625 -3.304688 2.84375 -3.109375 C 2.789062 -2.910156 2.734375 -2.710938 2.671875 -2.515625 C 2.609375 -2.328125 2.554688 -2.144531 2.515625 -1.96875 C 2.347656 -1.65625 2.171875 -1.34375 1.984375 -1.03125 C 1.796875 -0.726562 1.601562 -0.429688 1.40625 -0.140625 C 1.289062 -0.0664062 1.203125 0.0234375 1.140625 0.140625 C 1.078125 0.253906 1.003906 0.359375 0.921875 0.453125 C 0.835938 0.453125 0.789062 0.484375 0.78125 0.546875 C 0.769531 0.609375 0.742188 0.65625 0.703125 0.6875 C 0.597656 0.789062 0.503906 0.894531 0.421875 1 C 0.347656 1.101562 0.269531 1.207031 0.1875 1.3125 C 0.101562 1.414062 0.015625 1.515625 -0.078125 1.609375 C -0.179688 1.703125 -0.296875 1.773438 -0.421875 1.828125 C -0.441406 1.785156 -0.457031 1.75 -0.46875 1.71875 C -0.488281 1.695312 -0.5 1.664062 -0.5 1.625 C -0.5 1.613281 -0.492188 1.601562 -0.484375 1.59375 C -0.484375 1.582031 -0.484375 1.566406 -0.484375 1.546875 C -0.421875 1.535156 -0.375 1.507812 -0.34375 1.46875 C -0.320312 1.425781 -0.296875 1.378906 -0.265625 1.328125 C -0.242188 1.273438 -0.21875 1.226562 -0.1875 1.1875 C -0.164062 1.15625 -0.128906 1.128906 -0.078125 1.109375 C 0.148438 0.835938 0.382812 0.566406 0.625 0.296875 C 0.875 0.0351562 1.109375 -0.226562 1.328125 -0.5 C 1.546875 -0.769531 1.738281 -1.050781 1.90625 -1.34375 C 2.082031 -1.644531 2.21875 -1.96875 2.3125 -2.3125 C 2.425781 -2.59375 2.535156 -2.90625 2.640625 -3.25 C 2.742188 -3.59375 2.796875 -3.941406 2.796875 -4.296875 C 2.796875 -4.523438 2.769531 -4.742188 2.71875 -4.953125 C 2.664062 -5.160156 2.570312 -5.359375 2.4375 -5.546875 C 2.46875 -5.585938 2.503906 -5.609375 2.546875 -5.609375 C 2.617188 -5.609375 2.675781 -5.550781 2.71875 -5.4375 C 2.757812 -5.332031 2.8125 -5.253906 2.875 -5.203125 C 2.945312 -5.054688 2.992188 -4.910156 3.015625 -4.765625 C 3.046875 -4.617188 3.0625 -4.472656 3.0625 -4.328125 Z M 3.0625 -4.328125 "/></g></g></g><g fill="#ffffff" fill-opacity="1"><g transform="translate(26.414062, 55.426459)"><g><path d="M 4.96875 -5.328125 C 4.945312 -5.242188 4.910156 -5.175781 4.859375 -5.125 C 4.804688 -5.082031 4.75 -5.039062 4.6875 -5 C 4.625 -4.96875 4.554688 -4.9375 4.484375 -4.90625 C 4.410156 -4.875 4.347656 -4.832031 4.296875 -4.78125 C 3.941406 -4.476562 3.601562 -4.160156 3.28125 -3.828125 C 2.957031 -3.503906 2.660156 -3.164062 2.390625 -2.8125 C 2.128906 -2.46875 1.898438 -2.097656 1.703125 -1.703125 C 1.503906 -1.316406 1.351562 -0.90625 1.25 -0.46875 C 1.25 -0.40625 1.238281 -0.34375 1.21875 -0.28125 C 1.195312 -0.21875 1.175781 -0.15625 1.15625 -0.09375 C 1.132812 -0.03125 1.117188 0.0234375 1.109375 0.078125 C 1.109375 0.140625 1.132812 0.207031 1.1875 0.28125 C 1.15625 0.320312 1.140625 0.375 1.140625 0.4375 C 1.140625 0.507812 1.15625 0.582031 1.1875 0.65625 C 1.226562 0.726562 1.25 0.796875 1.25 0.859375 C 1.25 0.941406 1.210938 1.007812 1.140625 1.0625 C 1.097656 1.050781 1.0625 1.046875 1.03125 1.046875 C 1.007812 1.054688 0.976562 1.0625 0.9375 1.0625 C 0.875 1.070312 0.816406 1.070312 0.765625 1.0625 C 0.765625 0.96875 0.785156 0.875 0.828125 0.78125 C 0.867188 0.695312 0.890625 0.609375 0.890625 0.515625 C 0.890625 0.429688 0.859375 0.363281 0.796875 0.3125 C 0.835938 0.21875 0.867188 0.113281 0.890625 0 C 0.910156 -0.101562 0.929688 -0.207031 0.953125 -0.3125 C 0.972656 -0.425781 1 -0.535156 1.03125 -0.640625 C 1.0625 -0.742188 1.113281 -0.835938 1.1875 -0.921875 C 1.207031 -1.171875 1.269531 -1.40625 1.375 -1.625 C 1.476562 -1.851562 1.597656 -2.070312 1.734375 -2.28125 C 1.878906 -2.488281 2.03125 -2.691406 2.1875 -2.890625 C 2.351562 -3.097656 2.5 -3.300781 2.625 -3.5 C 2.8125 -3.664062 2.988281 -3.835938 3.15625 -4.015625 C 3.320312 -4.191406 3.488281 -4.363281 3.65625 -4.53125 C 3.832031 -4.695312 4.019531 -4.851562 4.21875 -5 C 4.414062 -5.15625 4.628906 -5.285156 4.859375 -5.390625 C 4.898438 -5.367188 4.9375 -5.347656 4.96875 -5.328125 Z M 4.96875 -5.328125 "/></g></g></g><g fill="#ffffff" fill-opacity="1"><g transform="translate(29.9775, 55.426459)"><g><path d="M 4.546875 -3.578125 C 4.523438 -3.367188 4.492188 -3.160156 4.453125 -2.953125 C 4.410156 -2.753906 4.378906 -2.566406 4.359375 -2.390625 C 4.179688 -2.191406 4.023438 -1.96875 3.890625 -1.71875 C 3.753906 -1.46875 3.585938 -1.253906 3.390625 -1.078125 C 3.066406 -0.796875 2.738281 -0.523438 2.40625 -0.265625 C 2.082031 -0.00390625 1.757812 0.253906 1.4375 0.515625 L 1.4375 0.546875 C 1.4375 0.617188 1.46875 0.664062 1.53125 0.6875 C 1.601562 0.707031 1.660156 0.738281 1.703125 0.78125 C 1.890625 0.789062 2.085938 0.820312 2.296875 0.875 C 2.515625 0.925781 2.722656 0.953125 2.921875 0.953125 C 3.066406 0.953125 3.203125 0.929688 3.328125 0.890625 C 3.453125 0.859375 3.570312 0.796875 3.6875 0.703125 C 3.695312 0.703125 3.703125 0.695312 3.703125 0.6875 C 3.710938 0.6875 3.722656 0.6875 3.734375 0.6875 C 3.796875 0.6875 3.847656 0.707031 3.890625 0.75 C 3.929688 0.789062 3.976562 0.828125 4.03125 0.859375 C 4.007812 0.941406 3.976562 0.992188 3.9375 1.015625 C 3.894531 1.046875 3.84375 1.0625 3.78125 1.0625 C 3.71875 1.0625 3.65625 1.066406 3.59375 1.078125 C 3.539062 1.097656 3.5 1.132812 3.46875 1.1875 L 3.34375 1.203125 C 3.28125 1.203125 3.21875 1.203125 3.15625 1.203125 C 3.101562 1.203125 3.050781 1.203125 3 1.203125 C 2.300781 1.203125 1.648438 1.046875 1.046875 0.734375 C 0.921875 0.804688 0.785156 0.851562 0.640625 0.875 C 0.492188 0.90625 0.34375 0.921875 0.1875 0.921875 C -0.0507812 0.921875 -0.265625 0.890625 -0.453125 0.828125 C -0.515625 0.796875 -0.550781 0.75 -0.5625 0.6875 C -0.570312 0.625 -0.578125 0.5625 -0.578125 0.5 L -0.578125 0.375 C -0.523438 0.3125 -0.476562 0.25 -0.4375 0.1875 C -0.40625 0.125 -0.34375 0.0859375 -0.25 0.078125 C -0.15625 0.0351562 -0.0664062 0.015625 0.015625 0.015625 C 0.117188 0.015625 0.210938 0.03125 0.296875 0.0625 C 0.390625 0.101562 0.472656 0.144531 0.546875 0.1875 C 0.628906 0.226562 0.710938 0.269531 0.796875 0.3125 C 0.878906 0.351562 0.96875 0.375 1.0625 0.375 C 1.144531 0.375 1.234375 0.347656 1.328125 0.296875 C 1.597656 0.078125 1.867188 -0.140625 2.140625 -0.359375 C 2.421875 -0.585938 2.6875 -0.820312 2.9375 -1.0625 C 3.195312 -1.300781 3.429688 -1.554688 3.640625 -1.828125 C 3.847656 -2.097656 4.023438 -2.394531 4.171875 -2.71875 L 4.234375 -3.359375 C 4.234375 -3.441406 4.222656 -3.519531 4.203125 -3.59375 C 4.179688 -3.664062 4.125 -3.734375 4.03125 -3.796875 C 3.925781 -3.910156 3.800781 -3.988281 3.65625 -4.03125 C 3.519531 -4.070312 3.375 -4.09375 3.21875 -4.09375 C 3.15625 -4.09375 3.085938 -4.085938 3.015625 -4.078125 C 2.953125 -4.078125 2.882812 -4.070312 2.8125 -4.0625 C 2.519531 -3.976562 2.253906 -3.8125 2.015625 -3.5625 C 1.773438 -3.320312 1.613281 -3.0625 1.53125 -2.78125 C 1.519531 -2.738281 1.507812 -2.695312 1.5 -2.65625 C 1.5 -2.613281 1.5 -2.570312 1.5 -2.53125 C 1.5 -2.320312 1.566406 -2.15625 1.703125 -2.03125 C 1.753906 -1.945312 1.820312 -1.898438 1.90625 -1.890625 C 1.988281 -1.878906 2.066406 -1.867188 2.140625 -1.859375 C 2.222656 -1.859375 2.296875 -1.847656 2.359375 -1.828125 C 2.421875 -1.816406 2.460938 -1.769531 2.484375 -1.6875 C 2.390625 -1.65625 2.296875 -1.640625 2.203125 -1.640625 C 1.984375 -1.640625 1.78125 -1.710938 1.59375 -1.859375 C 1.46875 -1.972656 1.382812 -2.097656 1.34375 -2.234375 C 1.300781 -2.367188 1.285156 -2.507812 1.296875 -2.65625 C 1.304688 -2.8125 1.34375 -2.960938 1.40625 -3.109375 C 1.46875 -3.265625 1.550781 -3.40625 1.65625 -3.53125 C 1.757812 -3.664062 1.875 -3.785156 2 -3.890625 C 2.125 -4.003906 2.253906 -4.097656 2.390625 -4.171875 C 2.515625 -4.234375 2.65625 -4.28125 2.8125 -4.3125 C 2.96875 -4.351562 3.117188 -4.375 3.265625 -4.375 C 3.453125 -4.375 3.625 -4.34375 3.78125 -4.28125 C 3.945312 -4.21875 4.09375 -4.109375 4.21875 -3.953125 C 4.269531 -3.953125 4.304688 -3.9375 4.328125 -3.90625 C 4.359375 -3.875 4.378906 -3.835938 4.390625 -3.796875 C 4.410156 -3.753906 4.425781 -3.710938 4.4375 -3.671875 C 4.457031 -3.628906 4.492188 -3.597656 4.546875 -3.578125 Z M 0.65625 0.515625 C 0.5625 0.472656 0.460938 0.425781 0.359375 0.375 C 0.253906 0.332031 0.144531 0.3125 0.03125 0.3125 C 0 0.3125 -0.0234375 0.3125 -0.046875 0.3125 C -0.078125 0.3125 -0.109375 0.316406 -0.140625 0.328125 C -0.160156 0.359375 -0.191406 0.378906 -0.234375 0.390625 C -0.285156 0.410156 -0.3125 0.441406 -0.3125 0.484375 C -0.3125 0.503906 -0.3125 0.515625 -0.3125 0.515625 C -0.300781 0.628906 -0.238281 0.6875 -0.125 0.6875 C -0.0820312 0.6875 -0.0351562 0.679688 0.015625 0.671875 C 0.078125 0.660156 0.128906 0.65625 0.171875 0.65625 C 0.234375 0.65625 0.28125 0.660156 0.3125 0.671875 C 0.375 0.648438 0.441406 0.640625 0.515625 0.640625 C 0.597656 0.640625 0.644531 0.597656 0.65625 0.515625 Z M 0.65625 0.515625 "/></g></g></g><g fill="#ffffff" fill-opacity="1"><g transform="translate(34.571787, 55.426459)"><g><path d="M 3.5 -2.5625 C 3.46875 -2.40625 3.4375 -2.242188 3.40625 -2.078125 C 3.375 -1.910156 3.332031 -1.75 3.28125 -1.59375 C 3.238281 -1.445312 3.179688 -1.300781 3.109375 -1.15625 C 3.046875 -1.007812 2.957031 -0.882812 2.84375 -0.78125 C 2.789062 -0.769531 2.742188 -0.75 2.703125 -0.71875 C 2.671875 -0.6875 2.640625 -0.65625 2.609375 -0.625 C 2.585938 -0.59375 2.554688 -0.566406 2.515625 -0.546875 C 2.472656 -0.523438 2.425781 -0.515625 2.375 -0.515625 C 2.332031 -0.410156 2.273438 -0.332031 2.203125 -0.28125 C 2.128906 -0.226562 2.050781 -0.1875 1.96875 -0.15625 C 1.882812 -0.132812 1.800781 -0.109375 1.71875 -0.078125 C 1.632812 -0.0546875 1.554688 -0.0195312 1.484375 0.03125 C 1.453125 0.0390625 1.40625 0.046875 1.34375 0.046875 C 1.207031 0.046875 1.082031 0.03125 0.96875 0 C 0.863281 -0.03125 0.753906 -0.0546875 0.640625 -0.078125 C 0.515625 -0.210938 0.421875 -0.363281 0.359375 -0.53125 C 0.304688 -0.707031 0.28125 -0.890625 0.28125 -1.078125 C 0.28125 -1.160156 0.285156 -1.238281 0.296875 -1.3125 C 0.304688 -1.394531 0.316406 -1.472656 0.328125 -1.546875 C 0.398438 -1.628906 0.457031 -1.710938 0.5 -1.796875 C 0.550781 -1.890625 0.601562 -1.976562 0.65625 -2.0625 C 0.707031 -2.15625 0.765625 -2.238281 0.828125 -2.3125 C 0.890625 -2.394531 0.972656 -2.460938 1.078125 -2.515625 C 1.234375 -2.710938 1.421875 -2.867188 1.640625 -2.984375 C 1.859375 -3.109375 2.085938 -3.171875 2.328125 -3.171875 L 2.765625 -3.125 C 2.847656 -3.125 2.925781 -3.101562 3 -3.0625 C 3.070312 -3.019531 3.132812 -2.96875 3.1875 -2.90625 C 3.238281 -2.84375 3.289062 -2.78125 3.34375 -2.71875 C 3.394531 -2.65625 3.445312 -2.601562 3.5 -2.5625 Z M 3.140625 -2.09375 C 3.140625 -2.289062 3.109375 -2.484375 3.046875 -2.671875 C 2.960938 -2.765625 2.863281 -2.828125 2.75 -2.859375 C 2.632812 -2.898438 2.519531 -2.921875 2.40625 -2.921875 C 2.363281 -2.921875 2.320312 -2.921875 2.28125 -2.921875 C 2.238281 -2.921875 2.195312 -2.914062 2.15625 -2.90625 C 1.976562 -2.882812 1.8125 -2.820312 1.65625 -2.71875 C 1.507812 -2.625 1.375 -2.507812 1.25 -2.375 C 1.125 -2.238281 1.007812 -2.09375 0.90625 -1.9375 C 0.8125 -1.78125 0.722656 -1.640625 0.640625 -1.515625 L 0.625 -1.40625 C 0.613281 -1.351562 0.601562 -1.296875 0.59375 -1.234375 C 0.59375 -1.179688 0.59375 -1.125 0.59375 -1.0625 C 0.59375 -0.914062 0.617188 -0.773438 0.671875 -0.640625 C 0.722656 -0.515625 0.820312 -0.410156 0.96875 -0.328125 C 1.070312 -0.304688 1.175781 -0.296875 1.28125 -0.296875 C 1.582031 -0.296875 1.851562 -0.390625 2.09375 -0.578125 C 2.34375 -0.765625 2.570312 -0.972656 2.78125 -1.203125 L 2.90625 -1.34375 C 3 -1.4375 3.0625 -1.550781 3.09375 -1.6875 C 3.125 -1.820312 3.140625 -1.957031 3.140625 -2.09375 Z M 3.140625 -2.09375 "/></g></g></g><g fill="#ffffff" fill-opacity="1"><g transform="translate(37.969778, 55.426459)"><g><path d="M 4.546875 -3.578125 C 4.523438 -3.367188 4.492188 -3.160156 4.453125 -2.953125 C 4.410156 -2.753906 4.378906 -2.566406 4.359375 -2.390625 C 4.179688 -2.191406 4.023438 -1.96875 3.890625 -1.71875 C 3.753906 -1.46875 3.585938 -1.253906 3.390625 -1.078125 C 3.066406 -0.796875 2.738281 -0.523438 2.40625 -0.265625 C 2.082031 -0.00390625 1.757812 0.253906 1.4375 0.515625 L 1.4375 0.546875 C 1.4375 0.617188 1.46875 0.664062 1.53125 0.6875 C 1.601562 0.707031 1.660156 0.738281 1.703125 0.78125 C 1.890625 0.789062 2.085938 0.820312 2.296875 0.875 C 2.515625 0.925781 2.722656 0.953125 2.921875 0.953125 C 3.066406 0.953125 3.203125 0.929688 3.328125 0.890625 C 3.453125 0.859375 3.570312 0.796875 3.6875 0.703125 C 3.695312 0.703125 3.703125 0.695312 3.703125 0.6875 C 3.710938 0.6875 3.722656 0.6875 3.734375 0.6875 C 3.796875 0.6875 3.847656 0.707031 3.890625 0.75 C 3.929688 0.789062 3.976562 0.828125 4.03125 0.859375 C 4.007812 0.941406 3.976562 0.992188 3.9375 1.015625 C 3.894531 1.046875 3.84375 1.0625 3.78125 1.0625 C 3.71875 1.0625 3.65625 1.066406 3.59375 1.078125 C 3.539062 1.097656 3.5 1.132812 3.46875 1.1875 L 3.34375 1.203125 C 3.28125 1.203125 3.21875 1.203125 3.15625 1.203125 C 3.101562 1.203125 3.050781 1.203125 3 1.203125 C 2.300781 1.203125 1.648438 1.046875 1.046875 0.734375 C 0.921875 0.804688 0.785156 0.851562 0.640625 0.875 C 0.492188 0.90625 0.34375 0.921875 0.1875 0.921875 C -0.0507812 0.921875 -0.265625 0.890625 -0.453125 0.828125 C -0.515625 0.796875 -0.550781 0.75 -0.5625 0.6875 C -0.570312 0.625 -0.578125 0.5625 -0.578125 0.5 L -0.578125 0.375 C -0.523438 0.3125 -0.476562 0.25 -0.4375 0.1875 C -0.40625 0.125 -0.34375 0.0859375 -0.25 0.078125 C -0.15625 0.0351562 -0.0664062 0.015625 0.015625 0.015625 C 0.117188 0.015625 0.210938 0.03125 0.296875 0.0625 C 0.390625 0.101562 0.472656 0.144531 0.546875 0.1875 C 0.628906 0.226562 0.710938 0.269531 0.796875 0.3125 C 0.878906 0.351562 0.96875 0.375 1.0625 0.375 C 1.144531 0.375 1.234375 0.347656 1.328125 0.296875 C 1.597656 0.078125 1.867188 -0.140625 2.140625 -0.359375 C 2.421875 -0.585938 2.6875 -0.820312 2.9375 -1.0625 C 3.195312 -1.300781 3.429688 -1.554688 3.640625 -1.828125 C 3.847656 -2.097656 4.023438 -2.394531 4.171875 -2.71875 L 4.234375 -3.359375 C 4.234375 -3.441406 4.222656 -3.519531 4.203125 -3.59375 C 4.179688 -3.664062 4.125 -3.734375 4.03125 -3.796875 C 3.925781 -3.910156 3.800781 -3.988281 3.65625 -4.03125 C 3.519531 -4.070312 3.375 -4.09375 3.21875 -4.09375 C 3.15625 -4.09375 3.085938 -4.085938 3.015625 -4.078125 C 2.953125 -4.078125 2.882812 -4.070312 2.8125 -4.0625 C 2.519531 -3.976562 2.253906 -3.8125 2.015625 -3.5625 C 1.773438 -3.320312 1.613281 -3.0625 1.53125 -2.78125 C 1.519531 -2.738281 1.507812 -2.695312 1.5 -2.65625 C 1.5 -2.613281 1.5 -2.570312 1.5 -2.53125 C 1.5 -2.320312 1.566406 -2.15625 1.703125 -2.03125 C 1.753906 -1.945312 1.820312 -1.898438 1.90625 -1.890625 C 1.988281 -1.878906 2.066406 -1.867188 2.140625 -1.859375 C 2.222656 -1.859375 2.296875 -1.847656 2.359375 -1.828125 C 2.421875 -1.816406 2.460938 -1.769531 2.484375 -1.6875 C 2.390625 -1.65625 2.296875 -1.640625 2.203125 -1.640625 C 1.984375 -1.640625 1.78125 -1.710938 1.59375 -1.859375 C 1.46875 -1.972656 1.382812 -2.097656 1.34375 -2.234375 C 1.300781 -2.367188 1.285156 -2.507812 1.296875 -2.65625 C 1.304688 -2.8125 1.34375 -2.960938 1.40625 -3.109375 C 1.46875 -3.265625 1.550781 -3.40625 1.65625 -3.53125 C 1.757812 -3.664062 1.875 -3.785156 2 -3.890625 C 2.125 -4.003906 2.253906 -4.097656 2.390625 -4.171875 C 2.515625 -4.234375 2.65625 -4.28125 2.8125 -4.3125 C 2.96875 -4.351562 3.117188 -4.375 3.265625 -4.375 C 3.453125 -4.375 3.625 -4.34375 3.78125 -4.28125 C 3.945312 -4.21875 4.09375 -4.109375 4.21875 -3.953125 C 4.269531 -3.953125 4.304688 -3.9375 4.328125 -3.90625 C 4.359375 -3.875 4.378906 -3.835938 4.390625 -3.796875 C 4.410156 -3.753906 4.425781 -3.710938 4.4375 -3.671875 C 4.457031 -3.628906 4.492188 -3.597656 4.546875 -3.578125 Z M 0.65625 0.515625 C 0.5625 0.472656 0.460938 0.425781 0.359375 0.375 C 0.253906 0.332031 0.144531 0.3125 0.03125 0.3125 C 0 0.3125 -0.0234375 0.3125 -0.046875 0.3125 C -0.078125 0.3125 -0.109375 0.316406 -0.140625 0.328125 C -0.160156 0.359375 -0.191406 0.378906 -0.234375 0.390625 C -0.285156 0.410156 -0.3125 0.441406 -0.3125 0.484375 C -0.3125 0.503906 -0.3125 0.515625 -0.3125 0.515625 C -0.300781 0.628906 -0.238281 0.6875 -0.125 0.6875 C -0.0820312 0.6875 -0.0351562 0.679688 0.015625 0.671875 C 0.078125 0.660156 0.128906 0.65625 0.171875 0.65625 C 0.234375 0.65625 0.28125 0.660156 0.3125 0.671875 C 0.375 0.648438 0.441406 0.640625 0.515625 0.640625 C 0.597656 0.640625 0.644531 0.597656 0.65625 0.515625 Z M 0.65625 0.515625 "/></g></g></g><g fill="#ffffff" fill-opacity="1"><g transform="translate(42.564066, 55.426459)"><g><path d="M 2.96875 -2.671875 C 2.84375 -2.566406 2.710938 -2.492188 2.578125 -2.453125 C 2.453125 -2.410156 2.332031 -2.335938 2.21875 -2.234375 C 2.1875 -2.191406 2.171875 -2.144531 2.171875 -2.09375 C 2.171875 -2.050781 2.195312 -2.019531 2.25 -2 C 2.300781 -1.976562 2.363281 -1.957031 2.4375 -1.9375 C 2.507812 -1.914062 2.578125 -1.890625 2.640625 -1.859375 C 2.710938 -1.835938 2.765625 -1.800781 2.796875 -1.75 C 2.867188 -1.675781 2.898438 -1.59375 2.890625 -1.5 C 2.890625 -1.414062 2.90625 -1.328125 2.9375 -1.234375 C 2.894531 -1.191406 2.84375 -1.148438 2.78125 -1.109375 C 2.726562 -1.066406 2.703125 -1.003906 2.703125 -0.921875 C 2.398438 -0.640625 2.097656 -0.363281 1.796875 -0.09375 C 1.492188 0.175781 1.195312 0.453125 0.90625 0.734375 C 0.75 0.804688 0.609375 0.890625 0.484375 0.984375 C 0.359375 1.085938 0.234375 1.191406 0.109375 1.296875 C -0.00390625 1.410156 -0.117188 1.523438 -0.234375 1.640625 C -0.347656 1.753906 -0.460938 1.859375 -0.578125 1.953125 C -0.628906 1.972656 -0.6875 1.984375 -0.75 1.984375 C -0.820312 1.984375 -0.878906 1.953125 -0.921875 1.890625 L -0.921875 1.78125 C -0.765625 1.71875 -0.617188 1.628906 -0.484375 1.515625 C -0.359375 1.398438 -0.226562 1.285156 -0.09375 1.171875 C 0.03125 1.054688 0.160156 0.945312 0.296875 0.84375 C 0.429688 0.738281 0.570312 0.648438 0.71875 0.578125 C 0.875 0.398438 1.046875 0.226562 1.234375 0.0625 C 1.429688 -0.09375 1.617188 -0.25 1.796875 -0.40625 C 1.984375 -0.5625 2.148438 -0.726562 2.296875 -0.90625 C 2.441406 -1.09375 2.546875 -1.300781 2.609375 -1.53125 C 2.460938 -1.632812 2.300781 -1.703125 2.125 -1.734375 C 1.957031 -1.765625 1.800781 -1.828125 1.65625 -1.921875 C 1.632812 -1.941406 1.625 -1.96875 1.625 -2 C 1.625 -2.0625 1.625 -2.101562 1.625 -2.125 C 1.664062 -2.195312 1.71875 -2.253906 1.78125 -2.296875 C 1.851562 -2.335938 1.921875 -2.375 1.984375 -2.40625 C 2.054688 -2.4375 2.125 -2.472656 2.1875 -2.515625 C 2.25 -2.554688 2.304688 -2.609375 2.359375 -2.671875 C 2.265625 -2.710938 2.164062 -2.75 2.0625 -2.78125 C 1.96875 -2.820312 1.867188 -2.863281 1.765625 -2.90625 C 1.742188 -2.957031 1.710938 -2.984375 1.671875 -2.984375 C 1.628906 -2.992188 1.585938 -3.003906 1.546875 -3.015625 C 1.453125 -2.910156 1.34375 -2.785156 1.21875 -2.640625 C 1.101562 -2.503906 0.960938 -2.4375 0.796875 -2.4375 L 0.71875 -2.453125 C 0.707031 -2.484375 0.703125 -2.519531 0.703125 -2.5625 C 0.703125 -2.601562 0.71875 -2.632812 0.75 -2.65625 C 0.789062 -2.675781 0.832031 -2.695312 0.875 -2.71875 C 0.925781 -2.738281 0.972656 -2.765625 1.015625 -2.796875 C 1.054688 -2.828125 1.082031 -2.875 1.09375 -2.9375 C 1.144531 -2.976562 1.203125 -3.015625 1.265625 -3.046875 C 1.335938 -3.085938 1.378906 -3.148438 1.390625 -3.234375 C 1.359375 -3.378906 1.296875 -3.515625 1.203125 -3.640625 C 1.117188 -3.765625 1.078125 -3.894531 1.078125 -4.03125 C 1.078125 -4.09375 1.082031 -4.140625 1.09375 -4.171875 C 1.164062 -4.273438 1.269531 -4.328125 1.40625 -4.328125 C 1.46875 -4.328125 1.53125 -4.3125 1.59375 -4.28125 C 1.664062 -4.25 1.734375 -4.210938 1.796875 -4.171875 C 1.859375 -4.128906 1.910156 -4.082031 1.953125 -4.03125 C 1.992188 -3.976562 2.019531 -3.925781 2.03125 -3.875 C 2.03125 -3.820312 2.015625 -3.769531 1.984375 -3.71875 C 1.953125 -3.664062 1.914062 -3.613281 1.875 -3.5625 C 1.84375 -3.507812 1.8125 -3.457031 1.78125 -3.40625 C 1.757812 -3.363281 1.75 -3.328125 1.75 -3.296875 C 1.75 -3.234375 1.828125 -3.175781 1.984375 -3.125 C 2.109375 -3.039062 2.253906 -2.972656 2.421875 -2.921875 C 2.585938 -2.878906 2.757812 -2.859375 2.9375 -2.859375 C 2.96875 -2.835938 2.984375 -2.8125 2.984375 -2.78125 Z M 2.96875 -2.671875 "/></g></g></g><g fill="#ffffff" fill-opacity="1"><g transform="translate(45.720255, 55.426459)"><g><path d="M 3.0625 -4.328125 C 3.0625 -4.128906 3.039062 -3.925781 3 -3.71875 C 2.957031 -3.507812 2.90625 -3.304688 2.84375 -3.109375 C 2.789062 -2.910156 2.734375 -2.710938 2.671875 -2.515625 C 2.609375 -2.328125 2.554688 -2.144531 2.515625 -1.96875 C 2.347656 -1.65625 2.171875 -1.34375 1.984375 -1.03125 C 1.796875 -0.726562 1.601562 -0.429688 1.40625 -0.140625 C 1.289062 -0.0664062 1.203125 0.0234375 1.140625 0.140625 C 1.078125 0.253906 1.003906 0.359375 0.921875 0.453125 C 0.835938 0.453125 0.789062 0.484375 0.78125 0.546875 C 0.769531 0.609375 0.742188 0.65625 0.703125 0.6875 C 0.597656 0.789062 0.503906 0.894531 0.421875 1 C 0.347656 1.101562 0.269531 1.207031 0.1875 1.3125 C 0.101562 1.414062 0.015625 1.515625 -0.078125 1.609375 C -0.179688 1.703125 -0.296875 1.773438 -0.421875 1.828125 C -0.441406 1.785156 -0.457031 1.75 -0.46875 1.71875 C -0.488281 1.695312 -0.5 1.664062 -0.5 1.625 C -0.5 1.613281 -0.492188 1.601562 -0.484375 1.59375 C -0.484375 1.582031 -0.484375 1.566406 -0.484375 1.546875 C -0.421875 1.535156 -0.375 1.507812 -0.34375 1.46875 C -0.320312 1.425781 -0.296875 1.378906 -0.265625 1.328125 C -0.242188 1.273438 -0.21875 1.226562 -0.1875 1.1875 C -0.164062 1.15625 -0.128906 1.128906 -0.078125 1.109375 C 0.148438 0.835938 0.382812 0.566406 0.625 0.296875 C 0.875 0.0351562 1.109375 -0.226562 1.328125 -0.5 C 1.546875 -0.769531 1.738281 -1.050781 1.90625 -1.34375 C 2.082031 -1.644531 2.21875 -1.96875 2.3125 -2.3125 C 2.425781 -2.59375 2.535156 -2.90625 2.640625 -3.25 C 2.742188 -3.59375 2.796875 -3.941406 2.796875 -4.296875 C 2.796875 -4.523438 2.769531 -4.742188 2.71875 -4.953125 C 2.664062 -5.160156 2.570312 -5.359375 2.4375 -5.546875 C 2.46875 -5.585938 2.503906 -5.609375 2.546875 -5.609375 C 2.617188 -5.609375 2.675781 -5.550781 2.71875 -5.4375 C 2.757812 -5.332031 2.8125 -5.253906 2.875 -5.203125 C 2.945312 -5.054688 2.992188 -4.910156 3.015625 -4.765625 C 3.046875 -4.617188 3.0625 -4.472656 3.0625 -4.328125 Z M 3.0625 -4.328125 "/></g></g></g><g clip-path="url(#afd56b72de)"><path fill="#ffffff" d="M 52.898438 37.492188 L 25.101562 37.492188 L 25.101562 37.199219 L 52.898438 37.199219 L 52.898438 37.492188 " fill-opacity="1" fill-rule="nonzero"/></g></svg>