<svg width="190" height="34" viewBox="0 0 190 34" fill="none" xmlns="http://www.w3.org/2000/svg">
<path d="M19.368 33.5088C18.629 33.121 18.3191 32.6332 16.0188 27.9552C15.5301 26.9546 15.3394 26.6919 15.113 26.6669C14.9104 26.6419 14.8031 26.717 14.6958 26.9796C14.6243 27.1672 14.3621 27.6926 14.1237 28.1429C13.8854 28.5932 13.4682 29.4062 13.1941 29.9565C12.9319 30.5069 12.61 31.0947 12.4909 31.2573C12.1929 31.6701 11.5731 32.0579 11.3586 31.9703C11.2632 31.9328 11.2275 31.9578 11.2632 32.0328C11.3467 32.1579 11.0129 32.1079 10.2621 31.8452C9.73763 31.6701 9.27279 30.9572 8.04516 28.4556C7.53266 27.4299 6.90096 26.1541 6.63875 25.6413C6.37654 25.1285 5.92362 24.2279 5.62565 23.64C5.32769 23.0521 4.88669 22.1891 4.64832 21.7013C4.39802 21.226 3.8736 20.1753 3.48028 19.3873C3.08696 18.5993 2.5387 17.4986 2.26456 16.9483C0.0953501 12.6705 0 12.4579 0 12.0577C0 11.5448 0.417157 10.7193 0.858151 10.3691C1.23955 10.0814 1.31106 10.0689 3.89743 10.0314C5.94746 9.99384 6.56724 9.94381 6.67451 9.81873C6.78177 9.68115 6.68642 9.39346 6.24543 8.54292C3.94511 4.05257 3.814 3.75238 3.814 3.06445C3.814 2.03879 4.60064 0.788 5.60182 0.250159C6.06665 0 6.30502 0 20.9532 0H35.8397L36.5072 0.512826C37.2223 1.03816 37.5798 1.60102 37.7705 2.48908C37.9374 3.27708 37.7348 3.85245 36.4714 6.31651C35.9589 7.30464 35.2438 8.71804 34.6002 10.0064C33.5871 12.0076 32.9315 13.2959 32.6336 13.8838C32.4667 14.1965 31.9661 15.1846 31.5251 16.0727C31.0841 16.9733 30.5716 17.9864 30.3928 18.3241C30.2141 18.6744 29.7373 19.625 29.3201 20.4505C28.9149 21.276 28.4858 22.1265 28.3666 22.3267C28.2475 22.5393 27.8184 23.3773 27.4131 24.2029C26.996 25.0284 26.5192 25.9915 26.3405 26.3292C25.7684 27.4299 25.3274 28.293 24.493 29.9565C24.0401 30.8571 23.5991 31.7577 23.4919 31.9703C23.1581 32.6207 22.586 33.2711 22.1093 33.5213C21.4657 33.8715 20.0354 33.859 19.368 33.5088ZM15.7804 24.2404C16.2095 23.8026 16.3406 23.59 17.6755 20.8883C18.1284 19.9627 18.5456 19.1497 18.5933 19.0746C18.6409 19.0121 19.07 18.1615 19.5468 17.1984C20.0354 16.2353 20.5479 15.1971 20.7148 14.8845C22.3238 11.7324 22.4311 11.5073 22.3477 11.1321C22.3 10.9319 22.1093 10.6192 21.9067 10.4441L21.5491 10.1314H15.1368H8.72453L8.35505 10.4566C7.83062 10.9194 7.85446 11.5198 8.4504 12.6705C8.70069 13.1709 9.42774 14.6093 10.0714 15.8851C10.715 17.1609 11.4301 18.5993 11.6804 19.0746C11.9188 19.5624 12.4074 20.513 12.7531 21.201C14.1237 23.9402 14.3144 24.2404 14.7673 24.4405C15.3394 24.6907 15.3275 24.6907 15.7804 24.2404Z" fill="white"/>
<path d="M102.632 28.5934C102.549 28.4809 102.513 24.8286 102.537 17.4364L102.561 6.44189L102.847 6.40436C103.002 6.37935 103.169 6.40436 103.228 6.4669C103.383 6.6295 103.371 28.4058 103.216 28.5684C103.038 28.7561 102.763 28.7686 102.632 28.5934Z" fill="white"/>
<path d="M45.4105 24.5783C44.5047 24.2656 43.8492 23.34 43.4558 21.764C43.3366 21.3137 43.1698 20.7133 43.0744 20.4256C42.991 20.1379 42.8003 19.4625 42.6573 18.9247C42.5143 18.3868 42.3355 17.6989 42.252 17.3862C42.1567 17.0735 41.9541 16.323 41.7872 15.6976C41.6203 15.0847 41.4058 14.2967 41.2985 13.9465C41.2032 13.6088 40.941 12.6582 40.7145 11.8452C40.1901 9.93146 40.1663 9.96898 42.0852 10.0315C42.8599 10.0565 43.5512 10.1316 43.6108 10.1941C43.7061 10.2942 43.9207 11.0447 44.457 13.196C44.5047 13.4087 44.6596 14.009 44.8027 14.5469C44.9338 15.0722 45.1721 15.9478 45.3032 16.4856C45.7204 18.0491 45.7442 18.1492 45.9945 19.1998C46.507 21.3012 46.7335 21.3887 47.1149 19.6376C47.2102 19.1873 47.4367 18.2868 47.6036 17.6364C48.4736 14.2592 48.7835 13.071 49.1053 11.7576C49.3199 10.9196 49.5463 10.2567 49.6655 10.1691C49.9039 9.98149 52.4068 9.94397 52.669 10.1191C52.8478 10.2442 52.8001 10.5569 52.4426 11.8202C52.2876 12.3955 51.501 15.3599 51.2984 16.1354C51.203 16.5106 51.06 17.0485 50.9647 17.3237C50.8693 17.5988 50.5475 18.8121 50.2376 20.0129C49.6655 22.2393 49.5821 22.527 49.2484 23.2024C48.7716 24.1905 47.9969 24.6658 46.7812 24.7158C46.2687 24.7409 45.7323 24.6783 45.4105 24.5783Z" fill="white"/>
<path d="M68.7596 24.5907C67.7345 24.3781 67.1148 24.0028 66.6499 23.2774C65.9587 22.2267 65.8871 21.6013 65.9348 16.8858C65.9706 12.9958 65.9944 12.6581 66.2209 12.0828C66.6261 11.0821 67.3651 10.4567 68.7119 9.99394C69.3317 9.7813 72.5855 9.79381 73.7535 10.0064C74.5044 10.1565 74.6236 10.2191 74.6832 10.4692C74.7905 10.9195 74.6832 12.483 74.5282 12.6456C74.4329 12.7457 73.682 12.7832 72.1445 12.7707C70.023 12.7582 69.8918 12.7707 69.6058 13.0209C69.3436 13.2585 69.2959 13.4086 69.2482 14.3467C69.2006 15.2097 69.2244 15.4349 69.3793 15.585C69.5224 15.7226 70.0349 15.7601 71.8227 15.7601C73.4556 15.7601 74.1468 15.8101 74.2899 15.9227C74.4329 16.0353 74.4925 16.3104 74.5044 17.0234C74.5402 18.5744 74.6713 18.4993 71.775 18.5369L69.3078 18.5744L69.2721 19.8377C69.2244 21.7639 69.1171 21.6889 72.0968 21.7639C74.0634 21.8139 74.5282 21.864 74.6117 22.0141C74.6713 22.1141 74.7309 22.6019 74.7309 23.1023C74.7309 23.8527 74.6832 24.0529 74.4686 24.3155C74.1945 24.6282 74.1826 24.6407 71.8704 24.6908C70.2732 24.7283 69.2959 24.7033 68.7596 24.5907Z" fill="white"/>
<path d="M57.794 24.3027C57.7344 24.1276 57.6867 21.6385 57.6867 18.5615V13.1331L57.3769 13.008C57.21 12.933 56.4949 12.8829 55.7917 12.8829C54.9573 12.8829 54.4687 12.8329 54.3733 12.7328C54.1945 12.5452 54.1826 10.7816 54.3495 10.3188L54.4687 10.0061H59.3792C62.7045 10.0186 64.3374 10.0561 64.4447 10.1562C64.6831 10.3563 64.6592 12.245 64.4089 12.6078C64.2301 12.8829 64.1586 12.8954 62.7522 12.8704C61.9417 12.8704 61.2266 12.8954 61.1551 12.9455C61.0598 12.9955 61.024 14.7466 61.024 18.5866C61.024 22.2639 60.9763 24.2401 60.8929 24.4027C60.7856 24.6279 60.6545 24.6529 59.3434 24.6279C57.937 24.6154 57.9132 24.6029 57.794 24.3027Z" fill="white"/>
<path d="M76.6022 24.5528C76.3876 24.3402 76.6618 23.7523 78.4496 20.6003C79.5223 18.7366 80.3804 17.1231 80.3566 17.0356C80.3327 16.9355 79.9752 16.3226 79.5699 15.6597C78.3781 13.746 76.6737 10.9192 76.5187 10.6315C76.2446 10.1062 76.5068 10.0061 78.2589 10.0061C79.6295 10.0061 79.8918 10.0436 80.0705 10.2312C80.1778 10.3438 80.7261 11.1944 81.2743 12.0949C82.3232 13.8585 82.4781 14.0462 82.6688 13.9086C82.7403 13.8585 83.086 13.3207 83.4316 12.6953C84.4566 10.8942 84.9691 10.1687 85.2552 10.0812C85.3982 10.0436 86.1133 10.0061 86.8404 10.0061C88.4733 10.0061 88.6044 10.0937 88.1038 10.8942C87.7224 11.4945 87.1503 12.4452 86.9477 12.7829C86.8165 13.008 85.8273 14.6966 84.9095 16.2225C84.4209 17.0481 84.3851 17.1606 84.5281 17.4358C84.695 17.7735 85.8511 19.7123 86.4709 20.7004C87.1026 21.726 88.2706 23.6773 88.4256 23.99C88.7116 24.5528 88.4613 24.6404 86.6974 24.6404C85.1241 24.6404 85.1122 24.6404 84.8023 24.3027C84.6354 24.1151 84.5043 23.9024 84.5043 23.8524C84.5043 23.7899 84.3494 23.5147 84.1587 23.227C83.6938 22.514 82.788 21.0131 82.6211 20.6879C82.3828 20.2126 82.1682 20.2501 81.8941 20.8005C81.7511 21.0881 81.465 21.6135 81.2624 21.9512C81.0598 22.3014 80.7618 22.8267 80.6069 23.1394C80.44 23.4521 80.1659 23.9149 80.0109 24.1776L79.7011 24.6404H78.1874C77.3531 24.6404 76.6379 24.6029 76.6022 24.5528Z" fill="white"/>
<path d="M127.948 22.0262C127.328 21.8636 126.851 21.5384 126.41 20.9755C125.731 20.1124 125.588 19.6121 125.588 18.2613C125.6 16.7978 125.838 16.1474 126.684 15.3469C128.293 13.846 130.939 14.1962 131.833 16.0349C132.214 16.8104 132.119 17.1356 131.476 17.2356C131.154 17.2857 130.677 16.8729 130.582 16.4601C130.498 16.1224 129.58 15.6346 129.032 15.6346C128.46 15.6346 127.673 16.1099 127.316 16.6603C127.113 16.9855 127.006 17.3607 126.97 17.9236C126.851 19.4996 127.518 20.6503 128.663 20.8254C129.723 21.0005 130.451 20.6253 130.82 19.6997C130.963 19.337 131.058 19.2619 131.332 19.2619C131.523 19.2619 131.762 19.2994 131.869 19.337C132.286 19.4996 131.952 20.5502 131.249 21.3507C130.665 22.0011 129.116 22.3264 127.948 22.0262Z" fill="white"/>
<path d="M135.754 22.0135C135.027 21.8509 134.729 21.6758 134.276 21.113C133.49 20.1749 133.311 19.612 133.323 18.2612C133.335 17.248 133.37 16.9853 133.645 16.4475C134.407 14.859 135.897 14.1335 137.602 14.5088C137.983 14.5963 138.364 14.7214 138.448 14.809C138.531 14.884 138.758 15.0841 138.972 15.2467C139.389 15.5845 139.64 16.0222 139.723 16.5851C139.771 16.9103 139.723 17.0104 139.509 17.1354C139.068 17.3856 138.722 17.248 138.436 16.6977C138.114 16.0848 137.411 15.6345 136.779 15.6345C136.124 15.6345 135.361 16.1348 134.968 16.8353C134.682 17.3481 134.658 17.4857 134.705 18.3612C134.741 19.1242 134.825 19.4494 135.087 19.9122C135.468 20.6126 135.909 20.8253 136.91 20.8253C137.554 20.8253 137.685 20.7878 138.007 20.4626C138.198 20.2624 138.448 19.9122 138.555 19.6871C138.71 19.3493 138.817 19.2618 139.091 19.2618C139.866 19.2618 139.973 19.5245 139.568 20.4375C139.235 21.213 138.531 21.8384 137.792 22.001C137.113 22.1511 136.386 22.1636 135.754 22.0135Z" fill="white"/>
<path d="M143.3 22.0135C142.573 21.8384 141.822 21.138 141.321 20.1999C141.095 19.7621 141.059 19.5119 141.059 18.3237C141.059 17.0604 141.083 16.8853 141.393 16.2599C141.989 15.0341 143.288 14.2836 144.587 14.4212C145.397 14.5213 145.624 14.6213 146.327 15.2092C147.209 15.9597 147.674 17.4732 147.316 18.4363L147.197 18.7615H144.873C142.215 18.7615 142.227 18.7615 142.68 19.7246C143.097 20.5876 143.466 20.8253 144.432 20.8253C145.218 20.8253 145.242 20.8128 145.719 20.2999C146.148 19.8372 146.279 19.7621 146.708 19.7621C147.34 19.7621 147.423 19.9747 147.066 20.6001C146.577 21.4257 146.22 21.7634 145.6 21.951C144.98 22.1511 143.943 22.1761 143.3 22.0135ZM144.396 17.5107C145.624 17.5107 145.767 17.4857 145.886 17.273C146.065 16.8978 145.719 16.2474 145.171 15.9097C144.634 15.5845 143.991 15.5594 143.49 15.8221C143.133 16.0222 142.429 16.9228 142.429 17.198C142.429 17.4106 142.704 17.6483 142.882 17.5732C142.978 17.5357 143.657 17.5107 144.396 17.5107Z" fill="white"/>
<path d="M155.003 22.0263C154.181 21.8012 153.8 21.501 153.323 20.7255C152.536 19.4622 152.369 18.399 152.751 17.0481C153.037 15.9975 153.371 15.5222 154.145 14.9968C155.361 14.1713 156.672 14.2088 157.816 15.0844C158.508 15.6097 158.817 16.1851 159.044 17.3483C159.199 18.0988 159.199 18.2114 159.02 18.4615C158.817 18.7492 158.782 18.7492 156.481 18.7617C154.717 18.7617 154.121 18.7993 154.074 18.9243C154.002 19.1245 154.384 20.0125 154.694 20.3502C155.015 20.7005 155.814 20.9381 156.41 20.8506C156.72 20.8005 157.03 20.6254 157.387 20.2752C157.9 19.7749 158.257 19.6623 158.686 19.8374C158.913 19.925 158.925 20.1376 158.734 20.5379C158.46 21.0882 157.983 21.6135 157.578 21.8262C157.125 22.0638 155.576 22.1889 155.003 22.0263ZM157.518 17.3984C157.661 17.1982 157.554 16.6104 157.328 16.3227C157.065 15.9975 156.243 15.6347 155.766 15.6347C155.349 15.6347 155.206 15.7223 154.705 16.2601C154.133 16.848 153.919 17.4234 154.229 17.536C154.3 17.561 155.027 17.5735 155.873 17.5735C157.053 17.5735 157.423 17.536 157.518 17.3984Z" fill="white"/>
<path d="M166.851 22.0269C166.088 21.8643 165.683 21.414 165.337 20.3508C165.17 19.8755 165.194 19.7254 165.516 18.7998C165.706 18.262 166.219 17.8117 166.863 17.6116C167.852 17.3239 168.281 17.2613 168.817 17.3239C169.652 17.424 169.783 17.3114 169.604 16.6485C169.437 15.9855 168.936 15.6353 168.15 15.6353C167.637 15.6353 167.554 15.6853 167.113 16.2107C166.708 16.6985 166.588 16.7735 166.255 16.736C165.671 16.6735 165.563 16.3858 165.885 15.6979C166.112 15.21 166.267 15.0725 166.898 14.7598C167.351 14.5221 167.828 14.3845 168.138 14.3845C168.746 14.3845 169.842 14.6222 169.842 14.7473C169.842 14.7973 169.973 14.9099 170.14 14.9849C170.295 15.06 170.569 15.4102 170.736 15.7604C171.046 16.3983 171.046 16.4108 171.01 19.0875C170.975 21.9518 170.951 22.0644 170.379 21.9518C170.247 21.9268 170.104 21.9018 170.057 21.9018C169.997 21.8893 169.961 21.8142 169.961 21.7142C169.961 21.3765 169.735 21.3765 169.234 21.7142C168.686 22.0769 167.661 22.2145 166.851 22.0269ZM168.722 20.6885C169.27 20.4133 169.604 19.888 169.604 19.3252C169.604 18.9624 169.556 18.8499 169.354 18.7998C169.163 18.7498 169.151 18.6998 169.27 18.6247C169.509 18.4621 167.84 18.4871 167.542 18.6497C167.077 18.8999 166.624 19.4252 166.624 19.7129C166.624 20.0381 167.041 20.626 167.387 20.7636C167.78 20.9387 168.281 20.9012 168.722 20.6885Z" fill="white"/>
<path d="M180.033 22.0138C179.056 21.7512 178.4 21.1758 177.924 20.1502C177.554 19.3496 177.483 17.7987 177.781 16.798C178.067 15.8474 178.83 15.0219 179.771 14.6592C180.975 14.1839 182.119 14.3465 183.156 15.147C184.121 15.8975 184.443 16.6855 184.443 18.2615C184.443 19.2746 184.396 19.5498 184.133 20.1376C183.728 21.0507 183.049 21.7136 182.31 21.9513C181.69 22.1514 180.629 22.1764 180.033 22.0138ZM181.928 20.7005C182.989 20.1752 183.43 18.1739 182.81 16.8105C182.489 16.1476 181.702 15.6348 180.975 15.6348C180.343 15.6348 179.652 16.0976 179.282 16.7605C179.008 17.2358 178.961 17.4609 178.973 18.274C178.973 19.0745 179.032 19.3246 179.294 19.7874C179.604 20.3503 179.962 20.688 180.391 20.8006C180.88 20.9256 181.559 20.8756 181.928 20.7005Z" fill="white"/>
<path d="M116.303 21.7891C116.184 21.6391 116.47 20.7885 117.173 19.1875C117.293 18.8998 117.4 18.6371 117.4 18.5996C117.4 18.5496 117.531 18.2244 117.686 17.8617C117.853 17.4989 118.389 16.1606 118.902 14.9098C119.903 12.4207 120.01 12.2706 120.737 12.4707C121.119 12.5708 121.166 12.6583 122.191 15.1975C122.775 16.6484 123.383 18.1243 123.55 18.487C123.705 18.8498 123.836 19.2125 123.836 19.3001C123.836 19.3876 123.884 19.5127 123.931 19.5752C124.182 19.8879 124.694 21.4139 124.635 21.6641C124.563 21.9267 124.503 21.9517 123.919 21.9142L123.264 21.8642L122.93 20.9761C122.406 19.6003 122.465 19.6378 120.403 19.6378C118.365 19.6378 118.437 19.6003 118.008 20.826C117.853 21.2388 117.698 21.6641 117.65 21.7641C117.531 21.9893 116.482 22.0143 116.303 21.7891ZM121.679 18.2119C121.834 18.0243 121.786 17.8867 121.107 16.2606C120.976 15.9479 120.832 15.5352 120.797 15.3601C120.701 14.9723 120.26 14.4845 120.26 14.7722C120.26 14.8723 120.105 15.3476 119.915 15.8229C119.08 17.9117 119.057 17.9867 119.259 18.1994C119.509 18.462 121.476 18.4745 121.679 18.2119Z" fill="white"/>
<path d="M150.307 21.851C149.688 21.7134 149.64 21.6634 149.354 21.0755L149.044 20.4626L149.008 16.4476C148.984 13.9084 149.02 12.3074 149.092 12.0948C149.199 11.7946 149.282 11.7571 149.747 11.7571C150.045 11.7571 150.319 11.8071 150.355 11.8822C150.391 11.9447 150.427 13.8209 150.415 16.0473C150.415 19.7872 150.427 20.1249 150.629 20.3876C150.748 20.5377 151.011 20.6878 151.237 20.7128C151.773 20.7753 151.845 20.8504 151.845 21.3131C151.845 21.9886 151.476 22.1137 150.307 21.851Z" fill="white"/>
<path d="M160.904 21.8384C160.832 21.7634 160.784 20.2624 160.784 18.2361C160.784 14.4587 160.773 14.5088 161.44 14.6839C161.619 14.7339 161.762 14.884 161.809 15.0716C161.905 15.4594 162.084 15.4719 162.501 15.1216C162.68 14.9716 163.121 14.7714 163.478 14.6714C164.3 14.4462 164.479 14.5713 164.479 15.3218C164.479 15.8846 164.253 16.2098 163.943 16.0848C163.609 15.9597 163.073 16.1598 162.644 16.5851L162.215 17.0103L162.203 19.2618C162.179 21.8009 162.191 21.7133 162.06 21.8384C161.929 21.9885 161.035 21.976 160.904 21.8384Z" fill="white"/>
<path d="M174.18 21.8392C173.978 21.7391 173.656 21.4514 173.465 21.1887L173.12 20.7259L173.096 18.2744L173.072 15.8228L172.75 15.8478C172.381 15.8854 171.975 15.5727 172.059 15.3225C172.095 15.235 172.345 14.9973 172.631 14.7847C172.953 14.5345 173.275 14.1343 173.489 13.6965C173.751 13.1837 173.894 13.0085 174.097 13.0085C174.431 13.0085 174.55 13.2087 174.502 13.7715C174.466 14.4219 174.705 14.6346 175.551 14.6346C176.493 14.6346 176.612 14.7972 176.254 15.5852C176.159 15.7978 176.016 15.8478 175.468 15.8729C175.098 15.8854 174.741 15.9604 174.669 16.023C174.598 16.098 174.538 17.0611 174.526 18.2619C174.502 20.3132 174.502 20.3882 174.764 20.5758C175.05 20.7885 175.98 20.8385 176.099 20.6384C176.207 20.4633 176.612 20.4883 176.671 20.6759C176.731 20.876 176.528 21.5265 176.302 21.8016C176.076 22.0643 174.741 22.0893 174.18 21.8392Z" fill="white"/>
<path d="M186.29 21.8386C186.135 21.676 186.123 15.397 186.29 14.9592C186.481 14.4214 187.243 14.584 187.243 15.1594C187.243 15.4596 187.529 15.447 187.97 15.1093C188.459 14.7216 189.353 14.4964 189.711 14.6716C190.283 14.9342 189.937 16.0099 189.282 16.0099C188.924 16.0099 188.268 16.3101 187.982 16.6103C187.613 16.998 187.482 17.8736 187.482 19.9374C187.482 21.0131 187.446 21.8886 187.398 21.9011C187.339 21.9011 187.1 21.9137 186.862 21.9387C186.624 21.9637 186.361 21.9137 186.29 21.8386Z" fill="white"/>
</svg>
