<svg class="createCollection_image" xmlns="http://www.w3.org/2000/svg" xmlns:xlink="http://www.w3.org/1999/xlink" version="1.1" x="0px" y="0px" viewBox="0 0 110 137.5" enable-background="new 0 0 110 110" xml:space="preserve"><path fill="currentColor" d="M102,20.973H8c-2.206,0-4,1.794-4,4v60.055c0,2.206,1.794,4,4,4h94c2.206,0,4-1.794,4-4V24.973  C106,22.767,104.206,20.973,102,20.973z M8,22.973h94c1.103,0,2,0.897,2,2v31.885L80.731,34.731  c-0.776-0.737-1.804-1.13-2.853-1.081c-1.065,0.039-2.048,0.497-2.767,1.291L48.069,64.794c-0.755,0.833-2.142,0.953-3.024,0.262  L30.004,53.327c-1.712-1.333-4.281-1.105-5.73,0.506L6,74.147V24.973C6,23.87,6.897,22.973,8,22.973z M102,87.027H8  c-1.103,0-2-0.897-2-2v-7.89l19.761-21.967c0.748-0.834,2.128-0.957,3.013-0.266l15.041,11.729c1.711,1.33,4.282,1.108,5.737-0.497  l27.043-29.853c0.354-0.391,0.836-0.616,1.358-0.636c0.511-0.019,1.018,0.17,1.399,0.532L104,59.618v25.409  C104,86.13,103.103,87.027,102,87.027z M43.285,47.236c4.468,0,8.103-3.635,8.103-8.103c0-4.469-3.635-8.104-8.103-8.104  c-4.469,0-8.104,3.635-8.104,8.104C35.181,43.602,38.816,47.236,43.285,47.236z M43.285,33.03c3.365,0,6.103,2.738,6.103,6.104  s-2.737,6.103-6.103,6.103c-3.366,0-6.104-2.737-6.104-6.103S39.919,33.03,43.285,33.03z"/></svg>