<svg width="300" height="300" xmlns="http://www.w3.org/2000/svg" version="1.1" viewBox="-5.0 -10.0 110.0 135.0">
 <g>
  <path d="m41.379 60.566c-0.26562 0-0.53125-0.074218-0.75781-0.21484-0.46875-0.28125-0.75-0.78516-0.74609-1.332v-18.039c-0.003906-0.54688 0.27734-1.0508 0.74609-1.332 0.4375-0.26953 0.98828-0.28906 1.4414-0.046876l17.234 9.0195h0.003906c0.50781 0.27344 0.82422 0.80078 0.82422 1.3789s-0.31641 1.1055-0.82422 1.3789l-17.238 9.0195c-0.21094 0.11328-0.44531 0.16797-0.68359 0.16797zm0-19.938v0.003906c-0.050781 0-0.097656 0.011719-0.14453 0.039063-0.10547 0.066406-0.16797 0.18359-0.16406 0.30859v18.039c-0.003906 0.125 0.058594 0.24219 0.16406 0.30859 0.085937 0.050781 0.1875 0.050781 0.26953 0l17.234-9.0195c0.11328-0.066406 0.17969-0.1875 0.17969-0.31641 0-0.12891-0.066407-0.25-0.17969-0.31641l-17.234-9.0195c-0.039062-0.019531-0.078125-0.027344-0.12109-0.023438z"/>
  <path d="m74 69.629h-47.98c-4.3398-0.003906-7.8594-3.5234-7.8633-7.8633v-23.531c0.003906-4.3398 3.5234-7.8594 7.8633-7.8633h47.98c4.3398 0.003906 7.8594 3.5234 7.8633 7.8633v23.531c-0.003906 4.3398-3.5234 7.8594-7.8633 7.8633zm-47.98-38.059c-3.6797 0.007813-6.6602 2.9883-6.6641 6.6641v23.531c0.003906 3.6758 2.9844 6.6562 6.6641 6.6641h47.98c3.6797-0.007813 6.6602-2.9883 6.6641-6.6641v-23.531c-0.003906-3.6758-2.9844-6.6562-6.6641-6.6641z"/>
 </g>
</svg>