<svg width="18" height="18" viewBox="0 0 18 18" fill="none" xmlns="http://www.w3.org/2000/svg">
<path d="M11.9667 17.319C11.812 17.2487 11.6467 17.0483 11.5975 16.8725C11.5518 16.6932 11.5764 16.3592 11.6538 16.2151C11.7311 16.0639 11.8999 15.9374 12.2198 15.7897C13.6964 15.1077 14.9901 13.849 15.746 12.3654C16.8323 10.235 16.8464 7.90056 15.7882 5.75249C15.2397 4.63803 14.5014 3.74856 13.5171 3.01028C13.1163 2.71145 12.7682 2.50051 12.2092 2.22277C11.6397 1.94152 11.5483 1.81144 11.5729 1.32628C11.594 0.858693 11.8331 0.640723 12.3182 0.637207C12.5256 0.637207 12.603 0.658301 12.8807 0.781349C15.0956 1.77276 16.8991 3.78372 17.6409 6.08648C17.989 7.1693 17.9995 7.25016 17.9995 9.00096C17.9995 10.6252 17.996 10.6779 17.7886 11.4479C17.1347 13.8912 15.4577 15.9409 13.1549 17.101C12.6628 17.3471 12.6452 17.3542 12.3639 17.3612C12.1776 17.3682 12.037 17.3506 11.9667 17.319Z" fill="black"/>
<path d="M7.75203 16.2678C7.69578 16.2397 6.736 15.308 5.62505 14.1936L3.60355 12.1686H2.10236C1.19181 12.1686 0.53438 12.1545 0.42891 12.1334C0.333988 12.1123 0.200393 12.049 0.130079 11.9893L0 11.8838V9.0361V6.18842L0.0984384 6.09701C0.295315 5.91068 0.298831 5.91068 2.00744 5.91068H3.60003L5.59341 3.8927C6.82389 2.65167 7.64304 1.8501 7.7239 1.81143C7.82234 1.76221 7.93484 1.74463 8.13875 1.74463C8.38484 1.74463 8.43758 1.75518 8.56766 1.84307C8.65203 1.8958 8.75047 2.00127 8.79618 2.08565L8.87704 2.23682V9.03962C8.87704 15.7791 8.87704 15.8424 8.80672 15.962C8.76805 16.0287 8.67664 16.1307 8.60282 16.1905C8.47625 16.2924 8.44461 16.2995 8.16336 16.31C7.95593 16.3135 7.82234 16.303 7.75203 16.2678Z" fill="black"/>
<path d="M10.8315 14.7068C10.7647 14.6752 10.6627 14.5873 10.603 14.5135C10.501 14.3869 10.494 14.3553 10.4834 14.0564C10.4729 13.7506 10.4764 13.726 10.5748 13.5748C10.6592 13.4412 10.7295 13.3885 11.0108 13.2514C12.0374 12.7381 12.7616 12.0279 13.2503 11.0576C13.8092 9.94665 13.9007 8.78296 13.5175 7.61225C13.1096 6.36771 12.2448 5.38684 11.0178 4.77511C10.842 4.68722 10.6557 4.56417 10.6065 4.50441C10.4834 4.36026 10.4307 4.14581 10.4518 3.90323C10.4764 3.62549 10.5643 3.46026 10.7541 3.34072C10.8948 3.24932 10.944 3.23877 11.1936 3.23877C11.4397 3.23877 11.5135 3.25635 11.735 3.3583C12.7475 3.82237 13.6405 4.5923 14.2839 5.55207C14.4878 5.85793 14.8499 6.60677 14.9694 6.97591C15.3034 7.99546 15.3737 9.32086 15.1522 10.3685C14.9167 11.476 14.3823 12.4955 13.6089 13.3006C13.0428 13.8912 12.6104 14.2182 11.9213 14.5662C11.5311 14.7666 11.5135 14.7701 11.2358 14.7701C11.0354 14.7701 10.9159 14.7526 10.8315 14.7068Z" fill="black"/>
<path d="M9.86133 12.1019C9.66797 12.0526 9.52735 11.9577 9.42891 11.8101C9.34453 11.68 9.33398 11.6343 9.33398 11.3601C9.33398 10.9522 9.41484 10.8257 9.79805 10.6147C10.3465 10.3194 10.7297 9.80966 10.8317 9.24363C10.9547 8.57566 10.5117 7.77409 9.82618 7.41549C9.41133 7.20104 9.31641 7.05338 9.31641 6.64908C9.31641 6.36783 9.35508 6.24829 9.48516 6.11118C9.64688 5.93892 9.76641 5.89673 10.0723 5.89673C10.3219 5.89673 10.3781 5.91079 10.582 6.01275C11.4539 6.45923 12.0516 7.20455 12.2871 8.14323C12.361 8.428 12.375 8.56863 12.375 8.99051C12.375 9.89755 12.1746 10.4917 11.6508 11.1526C11.3696 11.5077 10.9125 11.8628 10.5258 12.0316C10.3359 12.1124 10.0266 12.1476 9.86133 12.1019Z" fill="black"/>
</svg>
