<svg width="19" height="18" viewBox="0 0 19 18" fill="none" xmlns="http://www.w3.org/2000/svg">
<path d="M18.7397 3.39695C18.5807 3.97196 18.418 4.545 18.264 5.12149C17.6968 7.25094 17.1311 9.38072 16.567 11.5108C16.4461 11.9648 16.2912 12.0878 15.8435 12.0878C12.6361 12.0878 9.42871 12.0878 6.22132 12.0878C6.10581 12.0855 5.99064 12.1022 5.87981 12.1372C5.67389 12.2084 5.5268 12.4559 5.53094 12.6861C5.53288 12.8083 5.5708 12.9267 5.63926 13.0243C5.70772 13.122 5.80319 13.1938 5.91198 13.2294C6.01809 13.2576 6.12721 13.2706 6.23649 13.268C9.46839 13.27 12.7003 13.27 15.9322 13.268C16.2972 13.268 16.5371 13.4957 16.5426 13.843C16.5457 13.9201 16.5343 13.9971 16.5092 14.0694C16.4841 14.1417 16.4458 14.2078 16.3964 14.2639C16.3471 14.3199 16.2878 14.3648 16.222 14.3958C16.1562 14.4267 16.0854 14.4432 16.0136 14.4442C15.7401 14.4511 15.4661 14.4442 15.154 14.4442C16.1956 14.8176 16.6709 15.5754 16.5118 16.5501C16.3739 17.3864 15.6509 18.0084 14.8484 17.9827C14.4487 17.9689 14.0672 17.7995 13.775 17.5061C13.4828 17.2127 13.2997 16.8152 13.2598 16.3876C13.1831 15.5804 13.6423 14.7001 14.6493 14.457H7.50281C7.68115 14.542 7.89534 14.6082 8.06863 14.7376C8.25459 14.8738 8.41531 15.046 8.54252 15.2454C8.66413 15.4486 8.74706 15.6757 8.78651 15.9135C8.82596 16.1514 8.82114 16.3953 8.77234 16.6311C8.68351 17.0365 8.46345 17.3947 8.15147 17.6418C7.8395 17.8888 7.45595 18.0086 7.06936 17.9797C6.67991 17.9507 6.31262 17.7743 6.03273 17.4818C5.75284 17.1894 5.57847 16.7997 5.54059 16.3821C5.4721 15.6411 5.8559 14.7327 6.88091 14.4442C6.62856 14.4442 6.3753 14.4442 6.12434 14.4442C5.12415 14.4378 4.3878 13.6237 4.44112 12.5551C4.47146 11.9367 4.76287 11.4684 5.25423 11.1468C5.3002 11.1156 5.3503 11.09 5.3981 11.0613C5.4027 11.0583 5.40545 11.0519 5.41924 11.0336C4.76195 7.85592 4.10313 4.66668 3.44278 1.46592H3.21617C2.34438 1.46592 1.47244 1.46592 0.600344 1.46592C0.243201 1.46592 0.00280762 1.22534 0.00280762 0.873122C0.00280762 0.520903 0.24458 0.286255 0.600344 0.286255C1.66764 0.286255 2.73477 0.286255 3.80176 0.286255C4.16396 0.286255 4.34552 0.442358 4.43147 0.829651C4.49766 1.12605 4.55649 1.42887 4.619 1.72823C4.68152 2.02759 4.74541 2.32547 4.81251 2.64509H5.05475C9.37754 2.64509 13.7008 2.64328 18.0245 2.63965C18.3596 2.63965 18.6036 2.73845 18.7415 3.07684L18.7397 3.39695Z" fill="black"/>
</svg>
