<svg width="22" height="22" viewBox="0 0 22 22" fill="none" xmlns="http://www.w3.org/2000/svg">
<path d="M19.7408 4.3501C17.9857 2.05121 15.6607 0.634119 12.8043 0.161948C9.91918 -0.317108 7.22918 0.265791 4.81869 1.92212C2.33416 3.62607 0.790871 5.97831 0.198579 8.93871C0.12282 9.31621 0.0924021 9.70233 0.0396009 10.0861C0.0292702 10.163 0.0132003 10.2393 0 10.3156V11.6926C0.0573927 12.1022 0.0975676 12.5141 0.172178 12.9209C0.62845 15.4372 1.82164 17.5462 3.73052 19.2421C5.38401 20.7103 7.31814 21.5863 9.50767 21.8996C9.77512 21.938 10.0443 21.9667 10.3112 22H11.6886C12.0984 21.9426 12.5105 21.9025 12.9174 21.8279C15.4208 21.3752 17.5231 20.1928 19.2162 18.3001C20.7015 16.6403 21.6106 14.6971 21.8976 12.4883C22.2844 9.48948 21.5774 6.7557 19.7408 4.3501ZM16.4855 12.3713H12.3807V16.4889H9.6259V12.3839H5.51085V9.63004H9.61557V5.51762H12.3704V9.61971H16.4878L16.4855 12.3713Z" fill="white"/>
</svg>
