<svg width="35" height="35" viewBox="0 0 35 35" fill="none" stroke-width="10" xmlns="http://www.w3.org/2000/svg">
<rect width="35" height="35" fill="white"/>
<path d="M28.8991 23.7439H7.04091C6.46611 23.7439 6 24.2489 6 24.8719C6 25.495 6.46611 26 7.04091 26H28.8991C29.4739 26 29.94 25.495 29.94 24.8719C29.94 24.2489 29.4739 23.7439 28.8991 23.7439Z" fill="#464648"/>
<path d="M28.8991 7.94H7.04091C6.46611 7.94 6 8.445 6 9.06807C6 9.69114 6.46611 10.1961 7.04091 10.1961H28.8991C29.4739 10.1961 29.94 9.69114 29.94 9.06807C29.94 8.445 29.4739 7.94 28.8991 7.94Z" fill="#464648"/>
<path d="M7.04091 18.1017H24.0417C24.6165 18.1017 25.0826 17.597 25.0826 16.9736C25.0826 16.3506 24.6165 15.8458 24.0417 15.8458H7.04091C6.46611 15.8458 6 16.3506 6 16.9736C6 17.597 6.46611 18.1017 7.04091 18.1017Z" fill="#464648"/>
</svg>
