<svg width="33" height="32" viewBox="0 0 33 32" fill="none" xmlns="http://www.w3.org/2000/svg">
<path d="M33.0008 17.4421C32.9154 18.0116 32.8437 18.5838 32.7418 19.1495C32.2761 21.7713 31.1163 24.2204 29.383 26.2419C29.1129 26.5615 28.8255 26.8665 28.5325 27.165C28.0484 27.6591 27.3881 27.683 26.9252 27.2375C26.476 26.8049 26.4751 26.117 26.9545 25.6265C28.1321 24.446 29.0758 23.0533 29.7357 21.5219C30.6431 19.4113 30.9752 17.0979 30.6982 14.8171C30.3483 11.8101 29.0872 9.24206 26.972 7.08826C26.6413 6.75026 26.5128 6.36084 26.6459 5.91262C26.6998 5.7192 26.808 5.5453 26.9578 5.41162C27.1076 5.27794 27.2926 5.19011 27.4909 5.15856C27.9061 5.07315 28.2431 5.22745 28.5352 5.52044C30.2606 7.2392 31.5463 9.34845 32.2835 11.6696C32.6343 12.7509 32.855 13.8701 32.9411 15.0036C32.9539 15.0863 32.9739 15.1677 33.0008 15.247V17.4421Z" fill="#F8F6F4"/>
<path d="M19.7994 16.3565C19.7994 21.0504 19.8009 25.745 19.804 30.4402C19.804 30.9803 19.6635 31.4202 19.1445 31.6553C18.6945 31.8583 18.2894 31.7417 17.9165 31.4422C16.3858 30.2127 14.8519 28.9844 13.315 27.7574C11.3752 26.2082 9.43667 24.6594 7.49932 23.1109C7.36329 23.0141 7.20061 22.9618 7.03366 22.9611C5.46492 22.9501 3.8971 22.9611 2.32837 22.952C1.13436 22.9465 0.258147 22.2549 0.0322048 21.1472C0.00703799 20.9992 -0.00342189 20.849 0.000977325 20.699C0.000977325 17.7985 0.000977325 14.898 0.000977325 11.9974C0.000977325 10.7649 0.827595 9.81884 2.06293 9.75914C3.32864 9.68444 4.59758 9.6823 5.86353 9.75271C6.91242 9.8216 7.69128 9.47717 8.4931 8.82047C11.5938 6.26806 14.7515 3.78637 17.8853 1.27345C18.2766 0.959335 18.6899 0.820647 19.1647 1.04292C19.6396 1.26518 19.8077 1.68584 19.8077 2.20477C19.7985 6.92384 19.7957 11.6411 19.7994 16.3565Z" fill="#F8F6F4"/>
<path d="M26.3876 16.3427C26.3637 13.9859 25.5609 11.9424 23.9141 10.245C23.6386 9.96215 23.4494 9.64987 23.4953 9.24391C23.5104 9.03249 23.5884 8.83043 23.7194 8.66377C23.8503 8.49712 24.0282 8.37352 24.2301 8.30891C24.6783 8.1491 25.076 8.2685 25.4085 8.60006C26.5887 9.78029 27.4989 11.1433 27.9967 12.7332C29.3267 16.9847 28.5111 20.7752 25.4489 24.044C24.8794 24.6521 24.0023 24.5519 23.6267 23.8695C23.3778 23.4149 23.4595 22.9217 23.8802 22.4918C24.6831 21.6819 25.3181 20.7213 25.7489 19.6653C26.1797 18.6093 26.3976 17.4786 26.3903 16.3381L26.3876 16.3427Z" fill="#F8F6F4"/>
</svg>
