<svg y="0px" x="0px" viewBox="0 0 100 100" data-name="Your Icon" xmlns="http://www.w3.org/2000/svg">
<path fill="#0E1E36" d="m72.97,56.78l-15.81-6.9c-3.83-1.66-6.88-4.71-8.54-8.54l-6.9-15.81c-.54-1.23-2.28-1.23-2.81,0l-6.9,15.81c-1.67,3.83-4.72,6.88-8.54,8.54l-15.84,6.91c-1.22.54-1.23,2.27,0,2.81l16.12,7.12c3.81,1.69,6.85,4.75,8.5,8.59l6.67,15.51c.53,1.23,2.28,1.24,2.82,0l6.89-15.8c1.66-3.82,4.71-6.87,8.54-8.54l15.81-6.9c1.23-.53,1.23-2.27,0-2.81Zm-17.57-.58c-.25.56-.8.9-1.38.9-.2,0-.4-.04-.6-.12-5.34-2.34-9.56-6.56-11.89-11.9-.34-.76.01-1.65.77-1.98.76-.33,1.64.02,1.98.78,2.02,4.64,5.7,8.32,10.34,10.35.76.33,1.11,1.21.78,1.97Z"></path>
<path fill="#4F46E5" d="m92.76,26.84l-9.13-3.98c-2.21-.97-3.97-2.73-4.94-4.94l-3.98-9.13c-.31-.71-1.32-.71-1.63,0l-3.98,9.13c-.97,2.21-2.73,3.97-4.94,4.94l-9.14,3.99c-.71.31-.71,1.31-.01,1.62l9.31,4.11c2.2.98,3.96,2.75,4.91,4.96l3.86,8.97c.3.71,1.31.71,1.62,0l3.98-9.12c.97-2.21,2.73-3.97,4.94-4.94l9.13-3.98c.71-.31.71-1.32,0-1.63Zm-12.44,1.32c-.29.47-.78.72-1.29.72-.26,0-.53-.07-.77-.21-2.07-1.26-3.78-2.91-5.1-4.93-.45-.7-.25-1.62.44-2.08.69-.45,1.62-.26,2.07.44,1.08,1.64,2.47,2.98,4.14,4,.71.43.94,1.35.51,2.06Z"></path>
</svg>