<svg width="10" height="12" viewBox="0 0 10 12" fill="none" xmlns="http://www.w3.org/2000/svg">
<path opacity="0.5" d="M7.94478 12C7.83378 11.9677 7.72079 11.942 7.61146 11.9017C6.73147 11.5775 6.23249 10.6352 6.39615 9.60387C6.40582 9.54262 6.39848 9.51805 6.35015 9.48797C5.28617 8.82314 4.22375 8.15622 3.16288 7.48723C3.10122 7.44835 3.06689 7.45972 3.01689 7.50667C1.97924 8.48192 0.41461 7.95083 0.0609508 6.50501C-0.21271 5.38636 0.464276 4.22809 1.50825 4.0348C2.07224 3.93027 2.5749 4.08431 3.00822 4.4929C3.06555 4.54681 3.10289 4.55562 3.17155 4.51197C4.22353 3.84811 5.27695 3.18719 6.33182 2.5292C6.38715 2.49472 6.40615 2.46721 6.39415 2.38872C6.22115 1.2708 6.81781 0.290784 7.81612 0.0439461C8.77876 -0.193722 9.80174 0.560729 9.96407 1.6284C10.1367 2.76246 9.50808 3.77182 8.47944 3.97575C7.88745 4.09495 7.36046 3.90093 6.9208 3.44393C6.8618 3.38304 6.82381 3.37461 6.75214 3.41972C5.71616 4.07331 4.67863 4.72396 3.63954 5.37169C3.58021 5.40836 3.56488 5.44211 3.58288 5.51436C3.66438 5.83525 3.66438 6.17459 3.58288 6.49548C3.56554 6.5637 3.58021 6.59597 3.63454 6.63008C4.67896 7.28294 5.7225 7.93775 6.76514 8.59452C6.83381 8.6378 6.86514 8.61946 6.91614 8.56664C7.13775 8.3293 7.41078 8.15817 7.70935 8.06949C8.00792 7.98081 8.32213 7.97752 8.62218 8.05992C8.92223 8.14232 9.19818 8.30769 9.42386 8.54034C9.64954 8.77299 9.81748 9.06522 9.91174 9.38931C10.2594 10.5608 9.54108 11.8236 8.43944 11.9795C8.42277 11.9817 8.4031 11.9776 8.39377 12H7.94478Z" fill="#010101"/>
</svg>
