<svg width="128" height="24" viewBox="0 0 128 24" fill="none" xmlns="http://www.w3.org/2000/svg">
<path d="M0.518391 10.4737L12.6849 3.14935C12.8397 3.06036 13.0152 3.01294 13.194 3.01174C13.3728 3.01054 13.5489 3.0556 13.705 3.1425C13.861 3.2294 13.9916 3.35516 14.0841 3.50742C14.1765 3.65969 14.2275 3.83324 14.2321 4.01103L14.5158 18.1673C14.5211 18.3498 14.4774 18.5305 14.3891 18.6907C14.3007 18.8508 14.171 18.9846 14.0133 19.0781C13.8555 19.1717 13.6755 19.2218 13.4919 19.223C13.3082 19.2243 13.1276 19.1768 12.9685 19.0854L0.518391 12.2534C0.360868 12.1636 0.229981 12.034 0.138958 11.8778C0.047934 11.7215 0 11.5441 0 11.3635C0 11.183 0.047934 11.0056 0.138958 10.8493C0.229981 10.6931 0.360868 10.5635 0.518391 10.4737Z" fill="#F2C94C"/>
<path d="M10.0701 10.4737L22.2572 3.14935C22.4121 3.06036 22.5875 3.01294 22.7663 3.01174C22.9452 3.01054 23.1213 3.0556 23.2773 3.1425C23.4333 3.2294 23.564 3.35516 23.6564 3.50742C23.7488 3.65969 23.7998 3.83324 23.8045 4.01103L24.0933 18.1673C24.0986 18.3498 24.0549 18.5305 23.9665 18.6907C23.8782 18.8508 23.7485 18.9846 23.5907 19.0781C23.433 19.1717 23.253 19.2218 23.0694 19.223C22.8857 19.2243 22.705 19.1768 22.546 19.0854L10.1062 12.2534C9.9468 12.1668 9.81323 12.0399 9.719 11.8854C9.62477 11.731 9.57321 11.5546 9.56955 11.374C9.56588 11.1933 9.61024 11.015 9.69814 10.8569C9.78603 10.6988 9.91434 10.5666 10.0701 10.4737Z" fill="#4338CA"/>
<path d="M18.4045 22.0858C19.2875 22.0858 20.0033 21.3739 20.0033 20.4958C20.0033 19.6176 19.2875 18.9058 18.4045 18.9058C17.5215 18.9058 16.8057 19.6176 16.8057 20.4958C16.8057 21.3739 17.5215 22.0858 18.4045 22.0858Z" fill="#F2C94C"/>
<path d="M7.65619 22.0858C8.53919 22.0858 9.25501 21.3739 9.25501 20.4958C9.25501 19.6176 8.53919 18.9058 7.65619 18.9058C6.77319 18.9058 6.05737 19.6176 6.05737 20.4958C6.05737 21.3739 6.77319 22.0858 7.65619 22.0858Z" fill="#4F46E5"/>
<path d="M38.5392 14.4935V8.46197H41.9107V19.0741H38.6912V17.0982H38.5806C38.3457 17.7476 37.945 18.2635 37.3785 18.6458C36.8165 19.0235 36.1371 19.2123 35.3403 19.2123C34.6172 19.2123 33.9816 19.0465 33.4334 18.7149C32.8853 18.3832 32.4593 17.9203 32.1553 17.3262C31.8513 16.7274 31.697 16.0273 31.6924 15.2258V8.46197H35.0709V14.5626C35.0755 15.1383 35.2275 15.592 35.5269 15.9236C35.8262 16.2553 36.2339 16.4211 36.7497 16.4211C37.086 16.4211 37.3877 16.3474 37.6548 16.2C37.9266 16.048 38.1407 15.8292 38.2973 15.5436C38.4586 15.2535 38.5392 14.9034 38.5392 14.4935Z" fill="white"/>
<path d="M47.4396 13.0219V19.0741H44.0611V8.46197H47.2738V10.4103H47.3913C47.6262 9.76085 48.0269 9.25189 48.5934 8.88341C49.16 8.51033 49.8347 8.32379 50.6177 8.32379C51.3639 8.32379 52.0111 8.49191 52.5592 8.82814C53.1119 9.15977 53.5402 9.62497 53.8442 10.2238C54.1528 10.8179 54.3048 11.5134 54.3002 12.3103V19.0741H50.9217V12.9735C50.9263 12.384 50.7767 11.9234 50.4727 11.5917C50.1733 11.2601 49.7564 11.0943 49.2221 11.0943C48.8675 11.0943 48.5543 11.1726 48.2825 11.3292C48.0154 11.4812 47.8081 11.7 47.6607 11.9855C47.5179 12.2711 47.4442 12.6166 47.4396 13.0219Z" fill="white"/>
<path d="M62.382 8.46197V10.9492H55.6872V8.46197H62.382ZM57.0897 5.91947H60.4682V15.7371C60.4682 15.9444 60.5004 16.1125 60.5649 16.2415C60.634 16.3658 60.733 16.4556 60.862 16.5109C60.991 16.5616 61.1453 16.5869 61.3249 16.5869C61.4539 16.5869 61.5897 16.5754 61.7325 16.5524C61.8799 16.5247 61.9905 16.5017 62.0642 16.4833L62.5754 18.9221C62.4142 18.9682 62.1862 19.0258 61.8914 19.0949C61.6013 19.1639 61.2535 19.2077 60.8482 19.2261C60.056 19.263 59.3766 19.1709 58.81 18.9498C58.2481 18.7241 57.8175 18.374 57.5181 17.8996C57.2233 17.4252 57.0805 16.8287 57.0897 16.1102V5.91947Z" fill="white"/>
<path d="M67.7122 13.0219V19.0741H64.3338V4.92458H67.6017V10.4103H67.7191C67.9587 9.75625 68.3502 9.24498 68.8937 8.8765C69.4418 8.50803 70.1119 8.32379 70.9042 8.32379C71.6503 8.32379 72.2998 8.4896 72.8525 8.82123C73.4052 9.14826 73.8336 9.61116 74.1376 10.2099C74.4462 10.8087 74.5982 11.5088 74.5936 12.3103V19.0741H71.2151V12.9735C71.2197 12.384 71.0723 11.9234 70.7729 11.5917C70.4735 11.2601 70.0521 11.0943 69.5086 11.0943C69.1539 11.0943 68.8407 11.1726 68.5689 11.3292C68.3018 11.4812 68.0922 11.7 67.9402 11.9855C67.7928 12.2711 67.7168 12.6166 67.7122 13.0219Z" fill="white"/>
<path d="M76.7025 19.0741V8.46197H80.081V19.0741H76.7025ZM78.3952 7.22526C77.9208 7.22526 77.5132 7.06866 77.1723 6.75545C76.8315 6.43764 76.6611 6.05535 76.6611 5.60857C76.6611 5.16639 76.8315 4.7887 77.1723 4.4755C77.5132 4.15769 77.9208 3.99878 78.3952 3.99878C78.8742 3.99878 79.2819 4.15769 79.6181 4.4755C79.9589 4.7887 80.1294 5.16639 80.1294 5.60857C80.1294 6.05535 79.9589 6.43764 79.6181 6.75545C79.2819 7.06866 78.8742 7.22526 78.3952 7.22526Z" fill="white"/>
<path d="M85.6099 13.0219V19.0741H82.2314V8.46197H85.4441V10.4103H85.5615C85.7964 9.76085 86.1972 9.25189 86.7637 8.88341C87.3302 8.51033 88.005 8.32379 88.788 8.32379C89.5342 8.32379 90.1813 8.49191 90.7294 8.82814C91.2821 9.15977 91.7105 9.62497 92.0145 10.2238C92.3231 10.8179 92.4751 11.5134 92.4705 12.3103V19.0741H89.092V12.9735C89.0966 12.384 88.9469 11.9234 88.6429 11.5917C88.3435 11.2601 87.9267 11.0943 87.3924 11.0943C87.0377 11.0943 86.7245 11.1726 86.4528 11.3292C86.1856 11.4812 85.9784 11.7 85.831 11.9855C85.6882 12.2711 85.6145 12.6166 85.6099 13.0219Z" fill="white"/>
<path d="M97.609 16.2898L97.6228 12.2619H98.0927L101.077 8.46197H104.905L100.469 13.9062H99.5781L97.609 16.2898ZM94.5622 19.0741V4.92458H97.9407V19.0741H94.5622ZM101.153 19.0741L98.3759 14.6662L100.601 12.2688L105.057 19.0741H101.153Z" fill="white"/>
<path d="M108.014 19.2745C107.516 19.2745 107.09 19.0995 106.736 18.7494C106.386 18.3994 106.213 17.9756 106.218 17.4782C106.213 16.9899 106.386 16.5731 106.736 16.2276C107.09 15.8776 107.516 15.7026 108.014 15.7026C108.484 15.7026 108.898 15.8776 109.258 16.2276C109.621 16.5731 109.806 16.9899 109.81 17.4782C109.806 17.8098 109.718 18.1115 109.548 18.3832C109.382 18.655 109.163 18.8715 108.891 19.0327C108.624 19.1939 108.332 19.2745 108.014 19.2745Z" fill="white"/>
<path d="M115.033 19.2538C114.356 19.2538 113.755 19.1409 113.23 18.9152C112.71 18.6849 112.297 18.3395 111.993 17.8789C111.694 17.4137 111.544 16.831 111.544 16.1309C111.544 15.5413 111.648 15.0439 111.855 14.6386C112.063 14.2332 112.348 13.9039 112.712 13.6506C113.076 13.3973 113.495 13.2061 113.969 13.0772C114.444 12.9436 114.951 12.8538 115.489 12.8077C116.093 12.7524 116.579 12.6949 116.947 12.635C117.316 12.5705 117.583 12.4807 117.749 12.3655C117.919 12.2458 118.004 12.0777 118.004 11.8612V11.8266C118.004 11.472 117.882 11.1979 117.638 11.0045C117.394 10.811 117.065 10.7143 116.65 10.7143C116.203 10.7143 115.844 10.811 115.572 11.0045C115.301 11.1979 115.128 11.4651 115.054 11.8059L111.938 11.6954C112.03 11.0505 112.268 10.4748 112.65 9.96812C113.037 9.45686 113.566 9.05614 114.239 8.76596C114.916 8.47118 115.729 8.32379 116.678 8.32379C117.355 8.32379 117.979 8.40439 118.55 8.5656C119.121 8.7222 119.619 8.9525 120.042 9.2565C120.466 9.55589 120.793 9.92436 121.023 10.3619C121.258 10.7995 121.376 11.2992 121.376 11.8612V19.0741H118.198V17.5956H118.115C117.926 17.9549 117.684 18.2589 117.389 18.5076C117.099 18.7563 116.756 18.9429 116.36 19.0672C115.968 19.1916 115.526 19.2538 115.033 19.2538ZM116.077 17.0429C116.441 17.0429 116.768 16.9692 117.058 16.8218C117.353 16.6744 117.587 16.4718 117.762 16.2138C117.937 15.9513 118.025 15.6473 118.025 15.3018V14.2931C117.928 14.3438 117.811 14.3899 117.673 14.4313C117.539 14.4728 117.392 14.5119 117.23 14.5488C117.069 14.5856 116.903 14.6178 116.733 14.6455C116.563 14.6731 116.399 14.6985 116.242 14.7215C115.925 14.7721 115.653 14.8505 115.427 14.9564C115.206 15.0623 115.036 15.2005 114.916 15.3709C114.801 15.5367 114.743 15.7348 114.743 15.9651C114.743 16.3151 114.868 16.5823 115.116 16.7665C115.37 16.9508 115.69 17.0429 116.077 17.0429Z" fill="white"/>
<path d="M123.442 19.0741V8.46197H126.82V19.0741H123.442ZM125.134 7.22526C124.66 7.22526 124.252 7.06866 123.911 6.75545C123.571 6.43764 123.4 6.05535 123.4 5.60857C123.4 5.16639 123.571 4.7887 123.911 4.4755C124.252 4.15769 124.66 3.99878 125.134 3.99878C125.613 3.99878 126.021 4.15769 126.357 4.4755C126.698 4.7887 126.868 5.16639 126.868 5.60857C126.868 6.05535 126.698 6.43764 126.357 6.75545C126.021 7.06866 125.613 7.22526 125.134 7.22526Z" fill="white"/>
</svg>
