<svg width="28" height="30" viewBox="0 0 28 30" fill="none" xmlns="http://www.w3.org/2000/svg">
<path d="M27.8333 16.3334H22.2266H15.2533C14.8 20.4667 12.24 23.96 8.66663 25.7334C8.61329 27.92 6.85329 29.6667 4.66663 29.6667C2.45329 29.6667 0.666626 27.88 0.666626 25.6667C0.666626 23.4534 2.45329 21.6667 4.66663 21.6667C5.93329 21.6667 7.03996 22.2667 7.77329 23.1867C10.3066 21.8134 12.12 19.3067 12.5466 16.3334H8.41329C7.86663 17.88 6.39996 19 4.66663 19C2.45329 19 0.666626 17.2134 0.666626 15C0.666626 12.7867 2.45329 11 4.66663 11C6.39996 11 7.86663 12.12 8.42663 13.6667H12.56C12.1333 10.6934 10.3066 8.20004 7.77329 6.81337C7.03996 7.73337 5.93329 8.33337 4.66663 8.33337C2.45329 8.33337 0.666626 6.54671 0.666626 4.33337C0.666626 2.12004 2.45329 0.333374 4.66663 0.333374C6.85329 0.333374 8.61329 2.08004 8.65329 4.26671C12.2266 6.04004 14.7866 9.53337 15.24 13.6667H22.2133H27.8333V16.3334Z" fill="#3271CA"/>
</svg>
