<svg width="22" height="29" viewBox="0 0 22 29" fill="none" xmlns="http://www.w3.org/2000/svg">
<path d="M19 9.66665H17.6666V6.99998C17.6666 3.31998 14.68 0.333313 11 0.333313C7.31998 0.333313 4.33331 3.31998 4.33331 6.99998V9.66665H2.99998C1.53331 9.66665 0.333313 10.8666 0.333313 12.3333V25.6666C0.333313 27.1333 1.53331 28.3333 2.99998 28.3333H19C20.4666 28.3333 21.6666 27.1333 21.6666 25.6666V12.3333C21.6666 10.8666 20.4666 9.66665 19 9.66665ZM11 21.6666C9.53331 21.6666 8.33331 20.4666 8.33331 19C8.33331 17.5333 9.53331 16.3333 11 16.3333C12.4666 16.3333 13.6666 17.5333 13.6666 19C13.6666 20.4666 12.4666 21.6666 11 21.6666ZM15.1333 9.66665H6.86665V6.99998C6.86665 4.71998 8.71998 2.86665 11 2.86665C13.28 2.86665 15.1333 4.71998 15.1333 6.99998V9.66665Z" fill="#3271CA"/>
</svg>
