<svg width="28" height="28" viewBox="0 0 28 28" fill="none" xmlns="http://www.w3.org/2000/svg">
<path d="M13.6 8.46936C12.448 8.46936 11.456 8.88536 10.544 9.73336L11.312 10.6134C12.032 9.94136 12.672 9.65336 13.52 9.65336C14.592 9.65336 15.296 10.2774 15.296 11.2854C15.296 12.5334 14.416 13.1734 13.36 13.1734H12.816L12.64 14.3094H13.44C14.736 14.3094 15.568 14.7574 15.568 16.2294C15.568 17.4934 14.752 18.3254 13.408 18.3254C12.544 18.3254 11.824 18.0054 11.12 17.2694L10.24 18.0854C11.056 19.0614 12.176 19.5254 13.456 19.5254C15.68 19.5254 17.104 18.1174 17.104 16.2454C17.104 14.6294 16.032 13.7814 14.688 13.6534C15.888 13.3654 16.768 12.5494 16.768 11.1894C16.768 9.74936 15.648 8.46936 13.6 8.46936Z" fill="#3271CA"/>
<path fill-rule="evenodd" clip-rule="evenodd" d="M14 24.6667C19.891 24.6667 24.6666 19.8911 24.6666 14C24.6666 8.10898 19.891 3.33335 14 3.33335C8.10892 3.33335 3.33329 8.10898 3.33329 14C3.33329 19.8911 8.10892 24.6667 14 24.6667ZM14 27.3334C21.3638 27.3334 27.3333 21.3638 27.3333 14C27.3333 6.63622 21.3638 0.666687 14 0.666687C6.63616 0.666687 0.666626 6.63622 0.666626 14C0.666626 21.3638 6.63616 27.3334 14 27.3334Z" fill="#3271CA"/>
</svg>
