<svg width="28" height="28" viewBox="0 0 28 28" fill="none" xmlns="http://www.w3.org/2000/svg">
<path d="M20 19.3154C18.9867 19.3154 18.08 19.7154 17.3867 20.3421L7.88 14.8088C7.94667 14.5021 8 14.1954 8 13.8754C8 13.5554 7.94667 13.2488 7.88 12.9421L17.28 7.46211C18 8.12878 18.9467 8.54211 20 8.54211C22.2133 8.54211 24 6.75545 24 4.54211C24 2.32878 22.2133 0.542114 20 0.542114C17.7867 0.542114 16 2.32878 16 4.54211C16 4.86211 16.0533 5.16878 16.12 5.47545L6.72 10.9554C6 10.2888 5.05333 9.87545 4 9.87545C1.78667 9.87545 0 11.6621 0 13.8754C0 16.0888 1.78667 17.8754 4 17.8754C5.05333 17.8754 6 17.4621 6.72 16.7954L16.2133 22.3421C16.1467 22.6221 16.1067 22.9154 16.1067 23.2088C16.1067 25.3554 17.8533 27.1021 20 27.1021C22.1467 27.1021 23.8933 25.3554 23.8933 23.2088C23.8933 21.0621 22.1467 19.3154 20 19.3154Z" fill="currentColor"/>
</svg>
