<svg width="19" height="19" viewBox="0 0 19 19" fill="none" xmlns="http://www.w3.org/2000/svg">
<g clip-path="url(#clip0_86_892)">
<path d="M13.5958 6.04249C14.8472 6.04249 15.8617 5.028 15.8617 3.77656C15.8617 2.52512 14.8472 1.51062 13.5958 1.51062C12.3443 1.51062 11.3298 2.52512 11.3298 3.77656C11.3298 5.028 12.3443 6.04249 13.5958 6.04249Z" stroke="#6A7282" stroke-width="1.51062" stroke-linecap="round" stroke-linejoin="round"/>
<path d="M4.5318 11.3297C5.78324 11.3297 6.79773 10.3152 6.79773 9.06373C6.79773 7.81229 5.78324 6.7978 4.5318 6.7978C3.28036 6.7978 2.26587 7.81229 2.26587 9.06373C2.26587 10.3152 3.28036 11.3297 4.5318 11.3297Z" stroke="#6A7282" stroke-width="1.51062" stroke-linecap="round" stroke-linejoin="round"/>
<path d="M13.5958 16.6168C14.8472 16.6168 15.8617 15.6023 15.8617 14.3509C15.8617 13.0995 14.8472 12.085 13.5958 12.085C12.3443 12.085 11.3298 13.0995 11.3298 14.3509C11.3298 15.6023 12.3443 16.6168 13.5958 16.6168Z" stroke="#6A7282" stroke-width="1.51062" stroke-linecap="round" stroke-linejoin="round"/>
<path d="M6.48804 10.2043L11.6468 13.2104" stroke="#6A7282" stroke-width="1.51062" stroke-linecap="round" stroke-linejoin="round"/>
<path d="M11.6393 4.91708L6.48804 7.92322" stroke="#6A7282" stroke-width="1.51062" stroke-linecap="round" stroke-linejoin="round"/>
</g>
<defs>
<clipPath id="clip0_86_892">
<rect width="18.1275" height="18.1275" fill="white"/>
</clipPath>
</defs>
</svg>
