<?xml version="1.0" encoding="UTF-8"?>
<svg version="1.1" xmlns="http://www.w3.org/2000/svg" width="512" height="512">
<path d="M0 0 C1.9375 1.625 1.9375 1.625 3 4 C2.55634726 8.63517786 1.10831062 12.38153812 -0.75 16.625 C-15.73313172 52.55273372 -14.40557777 94.35452198 0.0390625 130.203125 C7.00705112 146.67775397 16.12424217 160.6947528 28 174 C28.6496875 174.77085937 29.299375 175.54171875 29.96875 176.3359375 C52.46310586 203.02242331 89.81610985 220.3141878 124.18505859 223.78466797 C149.84259959 225.74736972 178.72906174 224.18450341 202.03833008 211.92822266 C205.16356868 210.44942276 207.61231729 210.56884038 211 211 C213.1875 212.875 213.1875 212.875 214 216 C210.58948189 233.21814967 194.54196059 250.82509319 183 263 C182.11828125 263.94617188 181.2365625 264.89234375 180.328125 265.8671875 C168.33966355 278.47414223 154.43532363 288.08026446 139 296 C138.38833984 296.31807617 137.77667969 296.63615234 137.14648438 296.96386719 C117.66216742 306.97809454 94.93920829 313.26869306 73 314 C71.1128125 314.07734375 71.1128125 314.07734375 69.1875 314.15625 C44.38606866 314.84013386 19.6059323 310.26030094 -3 300 C-3.64533691 299.70754395 -4.29067383 299.41508789 -4.95556641 299.11376953 C-19.66944698 292.33296436 -32.75926317 283.61486797 -45 273 C-46.31291016 271.87078125 -46.31291016 271.87078125 -47.65234375 270.71875 C-52.87684935 266.13061275 -57.62788208 261.40468194 -62 256 C-62.77085937 255.05511719 -63.54171875 254.11023438 -64.3359375 253.13671875 C-92.41669306 218.07540551 -104.57479465 174.09584591 -99.71875 129.56640625 C-94.57225379 87.59210358 -73.07187103 47.67309694 -40 21 C-31.70764945 14.5443704 -23.05145543 8.76210802 -13.8125 3.75 C-13.11817871 3.36706787 -12.42385742 2.98413574 -11.70849609 2.58959961 C-7.67626572 0.4888853 -4.65795682 -0.5943387 0 0 Z M-42 39 C-42.87398437 39.87398437 -43.74796875 40.74796875 -44.6484375 41.6484375 C-45.9533355 42.9533355 -47.27057266 44.24726975 -48.6328125 45.4921875 C-68.17315041 63.60024933 -79.66176547 90.66437945 -86 116 C-86.16661133 116.66209473 -86.33322266 117.32418945 -86.50488281 118.00634766 C-91.34025289 138.32391198 -91.12799929 162.77134338 -86 183 C-85.80664062 183.77778809 -85.61328125 184.55557617 -85.4140625 185.35693359 C-80.66624856 203.86827915 -73.23004196 221.48287574 -62 237 C-61.39381836 237.84522217 -61.39381836 237.84522217 -60.77539062 238.70751953 C-36.84657713 271.64209966 -1.26190721 294.23834898 39 301 C79.45219851 306.8608345 120.39554979 297.82997322 153.70068359 273.77148438 C156.92642959 271.32102939 159.97442612 268.69101523 163 266 C163.825 265.29488281 164.65 264.58976563 165.5 263.86328125 C177.37977762 253.52416229 186.40829311 242.0952902 195 229 C191.10640086 227.70213362 189.35485657 228.5836673 185.4375 229.75 C158.45221978 237.17946093 128.19990027 238.19772884 101 231 C100.28054199 230.81276367 99.56108398 230.62552734 98.81982422 230.43261719 C94.12958094 229.17274669 89.55643004 227.6777243 85 226 C84.31631348 225.74879395 83.63262695 225.49758789 82.92822266 225.23876953 C41.59571279 209.74737899 10.21478746 178.66987368 -8.51611328 139.07348633 C-18.15045715 117.86291825 -22.22633004 95.30763792 -22.25 72.125 C-22.25100708 71.43913818 -22.25201416 70.75327637 -22.25305176 70.04663086 C-22.2375428 54.38623339 -20.13012693 39.93152352 -15.76953125 24.90625 C-14.87201801 22.01772424 -14.87201801 22.01772424 -15 19 C-23.73945249 19 -36.08514027 33.25910674 -42 39 Z " fill="#000000" transform="translate(239,70)"/>
<path d="M0 0 C3.98209859 0.39040182 4.61782884 1.33779749 7.1875 4.3125 C8.36404206 6.12639948 9.47864137 7.98134347 10.54296875 9.86328125 C11.16131592 10.94762451 11.77966309 12.03196777 12.41674805 13.14916992 C13.38608276 14.86970581 13.38608276 14.86970581 14.375 16.625 C15.38275755 18.39702083 16.39292195 20.16765305 17.40339661 21.93812561 C18.39369411 23.67331223 19.38240427 25.40940446 20.37109375 27.14550781 C23.28840615 32.23198314 26.31236448 37.24990009 29.35546875 42.26171875 C31.1875 45.3125 31.1875 45.3125 32.50708008 48.78930664 C34.60329188 52.42430303 36.83002246 53.16660245 40.81054688 54.25292969 C43.1695096 54.77588462 45.53548252 55.2678468 47.90625 55.734375 C49.81604766 56.14921793 51.72584338 56.56407003 53.63552094 56.97946548 C56.30410327 57.55231592 58.97791759 58.09828379 61.65203857 58.64459229 C66.33407303 59.60587718 71.00817926 60.60467754 75.68078613 61.61065674 C78.16665694 62.1430229 80.65516326 62.66325715 83.1463623 63.17010498 C84.27433228 63.40755432 85.40230225 63.64500366 86.56445312 63.88964844 C87.55610474 64.09281677 88.54775635 64.29598511 89.56945801 64.50531006 C92.36705217 65.3678592 94.06712676 66.30269931 96.1875 68.3125 C96.81273219 71.96050829 96.65432348 73.63819942 94.53515625 76.69921875 C93.78105469 77.45847656 93.02695312 78.21773438 92.25 79 C88.97427916 82.41836498 85.8814979 85.85382732 82.9375 89.5625 C78.86655985 94.60305111 74.53307757 99.33662897 70.05566406 104.01464844 C69.0262403 105.10079687 68.01006992 106.19968144 67.00846863 107.3115387 C65.73767866 108.70793923 64.43276644 110.07370982 63.10340881 111.41447449 C58.99693544 115.90037684 56.61877123 119.09074218 56.73828125 125.30957031 C56.94695381 127.50801921 57.20318556 129.70233275 57.5 131.890625 C57.6222998 133.06083191 57.74459961 134.23103882 57.87060547 135.43670654 C58.26787759 139.15133726 58.7260353 142.85535205 59.1875 146.5625 C59.46900832 149.06724378 59.74639355 151.5724546 60.01953125 154.078125 C60.40504601 157.60617448 60.79648438 161.13236384 61.2199707 164.65606689 C61.345896 165.7044574 61.47182129 166.7528479 61.6015625 167.83300781 C61.7145166 168.74882629 61.8274707 169.66464478 61.94384766 170.60821533 C62.66373024 178.59815464 62.66373024 178.59815464 60.5625 181.75 C58.1875 183.3125 58.1875 183.3125 55.73901367 183.20117188 C50.57552974 181.9091473 45.85687889 179.78530628 40.98828125 177.65625 C39.91627975 177.19391968 38.84427826 176.73158936 37.73979187 176.25524902 C34.32378499 174.78058253 30.9118063 173.29685573 27.5 171.8125 C24.0766917 170.33003486 20.65258882 168.84942468 17.22807312 167.36975098 C15.09927118 166.44918147 12.9713235 165.52663351 10.84431458 164.60192871 C9.88289047 164.18479614 8.92146637 163.76766357 7.9309082 163.33789062 C7.08518753 162.9700647 6.23946686 162.60223877 5.36811829 162.2232666 C1.89065031 160.60398291 1.89065031 160.60398291 -1.77638245 160.88664246 C-2.52121384 161.21433121 -3.26604523 161.54201996 -4.03344727 161.87963867 C-5.30606163 162.43097725 -5.30606163 162.43097725 -6.60438538 162.99345398 C-7.51997726 163.40166885 -8.43556915 163.80988373 -9.37890625 164.23046875 C-10.80190285 164.85094841 -10.80190285 164.85094841 -12.25364685 165.48396301 C-15.29814549 166.81361318 -18.33664596 168.15637606 -21.375 169.5 C-24.38952253 170.82297205 -27.40521824 172.14322897 -30.42137146 173.46247864 C-32.29813084 174.28447648 -34.17374576 175.10909427 -36.04798889 175.93681335 C-38.63102186 177.07427068 -41.22125739 178.19389739 -43.8125 179.3125 C-44.70387665 179.71167633 -45.5952533 180.11085266 -46.51364136 180.52212524 C-47.38562164 180.89807831 -48.25760193 181.27403137 -49.15600586 181.66137695 C-50.31911537 182.17363579 -50.31911537 182.17363579 -51.50572205 182.69624329 C-54.32415316 183.44918836 -56.04389381 183.17630137 -58.8125 182.3125 C-60.8125 180.3125 -60.8125 180.3125 -61.03857422 178.28358459 C-60.92484074 172.23502111 -60.5492497 166.26413211 -59.9375 160.24609375 C-59.80432373 158.86769066 -59.80432373 158.86769066 -59.66845703 157.46144104 C-59.38765428 154.55716518 -59.10079825 151.65354072 -58.8125 148.75 C-58.43249446 144.91583335 -58.05841521 141.08114914 -57.6875 137.24609375 C-57.60000488 136.38334335 -57.51250977 135.52059296 -57.42236328 134.63169861 C-55.97863872 124.77228459 -55.97863872 124.77228459 -58.46484375 115.6328125 C-59.59599609 114.54613281 -59.59599609 114.54613281 -60.75 113.4375 C-64.06022404 110.09123931 -67.14283763 106.75676667 -70.0625 103.0625 C-73.6768459 98.58578386 -77.49587919 94.37266629 -81.4375 90.1875 C-95.2947603 75.43015784 -95.2947603 75.43015784 -95.8125 70.3125 C-95.25195312 68.30908203 -95.25195312 68.30908203 -93.8125 66.3125 C-90.84667969 65.21386719 -90.84667969 65.21386719 -86.984375 64.359375 C-86.28141296 64.19870544 -85.57845093 64.03803589 -84.85418701 63.87249756 C-83.32063703 63.52359421 -81.78539874 63.18205033 -80.2487793 62.84692383 C-77.76579439 62.30225463 -75.2899695 61.73190938 -72.81445312 61.15429688 C-68.45869099 60.14017931 -64.09834193 59.14804509 -59.73535156 58.16552734 C-57.02306016 57.5536019 -54.31232804 56.93505174 -51.6015625 56.31640625 C-49.86467418 55.92407675 -48.12769828 55.53213475 -46.390625 55.140625 C-45.58651184 54.9563092 -44.78239868 54.77199341 -43.95391846 54.58209229 C-40.46127657 53.80195214 -37.41000247 53.3125 -33.8125 53.3125 C-33.53954102 52.5891748 -33.26658203 51.86584961 -32.98535156 51.12060547 C-31.84437615 48.38881962 -30.54003924 45.93680521 -29.046875 43.3828125 C-28.49281982 42.432854 -27.93876465 41.48289551 -27.36791992 40.50415039 C-26.77213135 39.49215576 -26.17634277 38.48016113 -25.5625 37.4375 C-24.94930908 36.39134521 -24.33611816 35.34519043 -23.7043457 34.26733398 C-19.19559424 26.60056375 -14.61933294 18.97559601 -10 11.375 C-9.39575195 10.38064941 -8.79150391 9.38629883 -8.16894531 8.36181641 C-3.28405686 0.36489521 -3.28405686 0.36489521 0 0 Z M0.1875 17.3125 C-1.03339987 19.16092936 -2.20257977 21.04352896 -3.3515625 22.9375 C-3.88434311 23.81341797 -3.88434311 23.81341797 -4.42788696 24.70703125 C-5.56055669 26.57286088 -6.68723603 28.44219602 -7.8125 30.3125 C-8.16679077 30.89999023 -8.52108154 31.48748047 -8.8861084 32.09277344 C-10.98323057 35.5729483 -13.06742537 39.06059323 -15.14208984 42.55419922 C-15.84812789 43.74170179 -16.55585333 44.92820251 -17.26513672 46.11376953 C-18.31309278 47.86544165 -19.35629447 49.61986476 -20.3984375 51.375 C-21.0073584 52.39722656 -21.6162793 53.41945312 -22.24365234 54.47265625 C-23.86646797 57.24087287 -23.86646797 57.24087287 -24.84448242 60.1159668 C-25.16392822 60.84082275 -25.48337402 61.56567871 -25.8125 62.3125 C-28.23674087 63.21628832 -30.22726749 63.70406406 -32.75 64.125 C-34.35091705 64.43543479 -35.951111 64.74960941 -37.55078125 65.06640625 C-38.49775879 65.24961426 -39.44473633 65.43282227 -40.42041016 65.62158203 C-46.97832561 66.95733133 -53.49167346 68.49713723 -60.01223755 70.00302124 C-63.93663783 70.90833299 -67.86297612 71.8051598 -71.7890625 72.703125 C-74.13025521 73.239379 -76.47137831 73.775936 -78.8125 74.3125 C-75.74215785 79.05128548 -75.74215785 79.05128548 -72.11328125 83.35546875 C-71.38963379 84.12165527 -71.38963379 84.12165527 -70.65136719 84.90332031 C-69.89581543 85.69367676 -69.89581543 85.69367676 -69.125 86.5 C-64.49916101 91.41936386 -60.13144138 96.46499696 -55.921875 101.75 C-53.2329605 105.01653317 -50.32276684 108.04421516 -47.34375 111.046875 C-43.55625991 116.65081442 -44.92431329 123.84280855 -45.58984375 130.2265625 C-45.72514244 131.6255629 -45.72514244 131.6255629 -45.86317444 133.05282593 C-46.15099838 136.01520968 -46.449979 138.97632892 -46.75 141.9375 C-47.04439218 144.90597455 -47.33642771 147.87465998 -47.62611389 150.84359741 C-47.80654408 152.68589301 -47.99003436 154.52789218 -48.17698669 156.36953735 C-48.57441074 160.36674165 -48.93314933 164.28912951 -48.8125 168.3125 C-38.52154728 164.47602759 -28.48351656 160.18491401 -18.44384766 155.74291992 C-16.49808255 154.88336898 -14.54996716 154.02932845 -12.6015625 153.17578125 C-11.46412598 152.67344971 -10.32668945 152.17111816 -9.15478516 151.65356445 C-0.29594685 148.09902838 -0.29594685 148.09902838 3.38964844 148.62939453 C4.0190332 148.89864746 4.64841797 149.16790039 5.296875 149.4453125 C6.4098999 149.90454102 6.4098999 149.90454102 7.54541016 150.37304688 C8.3347998 150.72431641 9.12418945 151.07558594 9.9375 151.4375 C10.77716309 151.79134766 11.61682617 152.14519531 12.48193359 152.50976562 C15.39661036 153.7496965 18.29270912 155.02683232 21.1875 156.3125 C22.3537793 156.8290918 23.52005859 157.34568359 24.72167969 157.87792969 C29.62902643 160.05477462 34.53506377 162.23352681 39.42480469 164.44970703 C41.0901123 165.2016333 41.0901123 165.2016333 42.7890625 165.96875 C44.27913818 166.64647461 44.27913818 166.64647461 45.79931641 167.33789062 C48.06622374 168.438448 48.06622374 168.438448 50.1875 168.3125 C50.1373877 167.76872208 50.08727539 167.22494415 50.03564453 166.66468811 C49.51170322 160.97050194 48.99349633 155.27581395 48.47851562 149.58081055 C48.28595593 147.4595846 48.09196745 145.33848783 47.89648438 143.2175293 C47.61466643 140.15707265 47.33810465 137.09617793 47.0625 134.03515625 C46.93125732 132.6283535 46.93125732 132.6283535 46.79736328 131.19313049 C45.42160483 115.72752596 45.42160483 115.72752596 47.69921875 111.51953125 C48.41722656 110.72933594 49.13523437 109.93914062 49.875 109.125 C50.69355469 108.20332031 51.51210938 107.28164062 52.35546875 106.33203125 C53.29715445 105.3233455 54.24129744 104.3169499 55.1875 103.3125 C56.24659711 102.17103975 57.30517147 101.02909429 58.36328125 99.88671875 C60.02626795 98.09594233 61.69181658 96.30790708 63.36547852 94.52709961 C69.38016986 88.10853561 74.92057512 81.35916719 80.1875 74.3125 C79.56268738 74.20657532 78.93787476 74.10065063 78.29412842 73.99151611 C71.71726531 72.8588814 65.17133745 71.60573858 58.62988281 70.28417969 C56.19553878 69.80838486 53.75516942 69.36231536 51.30957031 68.94824219 C29.95055239 65.29817289 29.95055239 65.29817289 24.12573242 57.87988281 C21.41068147 53.70427172 19.28296637 49.3191985 17.29205322 44.76037598 C15.72618821 41.29015537 13.78099174 38.1156809 11.76953125 34.890625 C9.8506162 31.66965875 7.93239525 28.44837944 6.02148438 25.22265625 C5.40208984 24.18496094 4.78269531 23.14726563 4.14453125 22.078125 C3.59772705 21.15805664 3.05092285 20.23798828 2.48754883 19.29003906 C2.05853271 18.63745117 1.6295166 17.98486328 1.1875 17.3125 C0.8575 17.3125 0.5275 17.3125 0.1875 17.3125 Z " fill="#000000" transform="translate(364.8125,50.6875)"/>
<path d="M0 0 C4.75896229 2.42509231 7.03938247 8.44347228 9.52392578 12.93701172 C10.47428711 14.59313477 10.47428711 14.59313477 11.44384766 16.28271484 C12.69693562 18.46755307 13.94014634 20.65808937 15.17285156 22.85449219 C17.33153113 26.65030302 19.60351005 30.36873712 21.91040039 34.07592773 C22.96142578 35.99951172 22.96142578 35.99951172 22.96142578 37.99951172 C24.12029297 38.09490234 25.27916016 38.19029297 26.47314453 38.28857422 C32.96438298 39.01307117 39.3028178 40.46402523 45.6652832 41.90087891 C47.78454016 42.37689587 49.90690035 42.8368561 52.02978516 43.29638672 C53.38872651 43.60010312 54.74745869 43.90475734 56.10595703 44.21044922 C57.32645752 44.48163574 58.54695801 44.75282227 59.80444336 45.03222656 C62.85861136 45.96800985 64.69030225 46.7768499 66.96142578 48.99951172 C67.57337565 52.62679521 67.33663025 54.38459328 65.41455078 57.53466797 C64.68751953 58.36869141 63.96048828 59.20271484 63.21142578 60.06201172 C61.98746094 61.47933594 61.98746094 61.47933594 60.73876953 62.92529297 C56.82777415 67.28261357 52.86292901 71.58979537 48.85595703 75.85888672 C48.38826904 76.37684814 47.92058105 76.89480957 47.4387207 77.4284668 C45.96142578 78.99951172 45.96142578 78.99951172 44.24389648 80.51391602 C41.52599964 83.11180695 40.08492296 84.8915427 39.66040039 88.70019531 C39.78565515 91.94015306 40.11421672 95.09573719 40.52392578 98.31201172 C40.75942182 100.63221071 40.99379086 102.95252435 41.22705078 105.27294922 C41.41557617 106.9798291 41.41557617 106.9798291 41.60791016 108.72119141 C42.10035152 113.28783689 42.47040008 117.85439705 42.77392578 122.43701172 C42.83845947 123.16895752 42.90299316 123.90090332 42.96948242 124.6550293 C43.15877231 127.46796505 43.25551845 129.47840014 41.84814453 131.97216797 C39.05459077 133.49329558 37.13518498 133.25396163 33.96142578 132.99951172 C31.17294547 132.10702812 28.55185952 130.90723368 25.89501953 129.68310547 C24.3423123 128.99489317 22.78957709 128.30674403 21.23681641 127.61865234 C18.81036623 126.52713124 16.38599578 125.43115117 13.96264648 124.33276367 C11.61156842 123.27174605 9.25377325 122.22692186 6.89501953 121.18310547 C6.17406601 120.84983749 5.45311249 120.51656952 4.71031189 120.17320251 C0.6707524 118.39132065 -1.8387543 117.47682819 -6.03857422 118.99951172 C-8.56737316 120.00958556 -11.04862257 121.05442411 -13.53466797 122.15966797 C-14.99480684 122.79477301 -16.45509804 123.42952795 -17.91552734 124.06396484 C-20.19948292 125.0625966 -22.48183138 126.0645585 -24.76147461 127.07299805 C-26.97344788 128.04907211 -29.1910071 129.01141186 -31.40966797 129.97216797 C-32.0848497 130.27526382 -32.76003143 130.57835968 -33.45567322 130.89064026 C-37.47491379 132.61955502 -40.66665111 133.42385256 -45.03857422 132.99951172 C-46.92529297 131.92529297 -46.92529297 131.92529297 -48.03857422 129.99951172 C-48.18310547 126.97998047 -48.18310547 126.97998047 -47.85107422 123.18701172 C-47.7957251 122.5013916 -47.74037598 121.81577148 -47.68334961 121.109375 C-47.48651976 118.73748387 -47.2637933 116.36887119 -47.03857422 113.99951172 C-46.77343011 111.10157737 -46.50988674 108.20349974 -46.24633789 105.30541992 C-46.06906192 103.38292849 -45.88709317 101.46086277 -45.69995117 99.53930664 C-45.53198517 97.78603286 -45.37459077 96.03170155 -45.22973633 94.27636719 C-45.07392894 92.42060761 -44.87503076 90.56850648 -44.66357422 88.71826172 C-45.20152008 84.81815423 -47.40863798 82.78249664 -50.10107422 80.12451172 C-51.12119304 79.06648417 -52.14072505 78.00789053 -53.15966797 76.94873047 C-53.65708496 76.44132324 -54.15450195 75.93391602 -54.66699219 75.41113281 C-57.59673702 72.39586321 -60.30528244 69.19136901 -63.03857422 65.99951172 C-63.83908203 65.10103516 -64.63958984 64.20255859 -65.46435547 63.27685547 C-66.29322266 62.31908203 -67.12208984 61.36130859 -67.97607422 60.37451172 C-68.74822266 59.49537109 -69.52037109 58.61623047 -70.31591797 57.71044922 C-72.38906709 54.44794243 -72.79156019 52.79040658 -72.03857422 48.99951172 C-68.1006436 45.9992961 -63.78280829 44.99797571 -59.03466797 43.95654297 C-58.27436783 43.78321945 -57.51406769 43.60989594 -56.73072815 43.43132019 C-55.1305934 43.0684313 -53.52948587 42.70980824 -51.92749023 42.35522461 C-49.47839655 41.81252633 -47.03282061 41.25577919 -44.58740234 40.69677734 C-43.02834451 40.34503618 -41.46910545 39.99409713 -39.90966797 39.64404297 C-39.18041611 39.4784639 -38.45116425 39.31288483 -37.69981384 39.14228821 C-34.36240049 38.40834952 -31.47794469 37.99951172 -28.03857422 37.99951172 C-27.7669043 37.27658936 -27.49523437 36.55366699 -27.21533203 35.80883789 C-26.06277671 33.05729141 -24.73700726 30.61067501 -23.21044922 28.05029297 C-22.65744141 27.11894531 -22.10443359 26.18759766 -21.53466797 25.22802734 C-20.95845703 24.26574219 -20.38224609 23.30345703 -19.78857422 22.31201172 C-19.22783203 21.3690625 -18.66708984 20.42611328 -18.08935547 19.45458984 C-16.96691021 17.56872628 -15.84128546 15.68475128 -14.71240234 13.80273438 C-13.58080222 11.90760126 -12.45996363 10.00600725 -11.34912109 8.09863281 C-10.55344727 6.7405249 -10.55344727 6.7405249 -9.74169922 5.35498047 C-9.03255371 4.13331177 -9.03255371 4.13331177 -8.30908203 2.88696289 C-6.18665647 -0.26608707 -3.70162206 -0.60655624 0 0 Z M-3.03857422 16.99951172 C-4.25554057 18.90745282 -5.42087821 20.84833746 -6.56591797 22.80029297 C-6.91489639 23.39247116 -7.26387482 23.98464935 -7.62342834 24.59477234 C-8.74446246 26.49849402 -9.8604286 28.40512807 -10.97607422 30.31201172 C-12.08910699 32.20760435 -13.20317227 34.10258354 -14.31800842 35.99711609 C-15.33342503 37.72378458 -16.34609791 39.45206572 -17.35864258 41.18041992 C-20.77773932 46.91800313 -20.77773932 46.91800313 -24.47851562 48.07446289 C-25.94627716 48.40954885 -27.41710382 48.73138464 -28.89013672 49.04248047 C-29.6641684 49.21580399 -30.43820007 49.3891275 -31.23568726 49.56770325 C-33.70928826 50.11886014 -36.18620085 50.65309504 -38.66357422 51.18701172 C-40.34090282 51.55764828 -42.01798989 51.92937971 -43.69482422 52.30224609 C-47.80671233 53.21406448 -51.92164941 54.11072358 -56.03857422 54.99951172 C-52.42472875 59.9648959 -48.69306688 64.66087612 -44.47607422 69.12451172 C-42.65033422 71.0716234 -40.84169665 73.03103744 -39.03857422 74.99951172 C-38.56427979 75.48653564 -38.08998535 75.97355957 -37.60131836 76.4753418 C-34.20371843 80.15401426 -33.42343023 82.48017146 -33.60107422 87.43701172 C-33.64361328 88.72607422 -33.68615234 90.01513672 -33.72998047 91.34326172 C-34.29170812 100.57781743 -35.13626957 109.7928846 -36.03857422 118.99951172 C-32.18415899 117.39594184 -28.33008699 115.79154859 -24.47607422 114.18701172 C-23.39003906 113.73519531 -22.30400391 113.28337891 -21.18505859 112.81787109 C-20.12480469 112.37636719 -19.06455078 111.93486328 -17.97216797 111.47998047 C-16.93688965 111.05378418 -15.90161133 110.62758789 -14.83496094 110.18847656 C-13.19776772 109.49237642 -11.57175939 108.76615968 -9.98046875 107.97070312 C-5.45108922 105.71051573 -1.80706176 105.62044401 2.96142578 106.99951172 C7.31796211 108.67398499 11.54187154 110.59686653 15.77392578 112.56201172 C18.00737102 113.58901474 20.24295369 114.61138607 22.48095703 115.62841797 C23.46169189 116.08289307 24.44242676 116.53736816 25.45288086 117.00561523 C27.9765594 118.18368505 27.9765594 118.18368505 30.96142578 117.99951172 C30.90083984 117.34055908 30.84025391 116.68160645 30.77783203 116.00268555 C30.29826334 110.72143535 29.85283507 105.44012575 29.45751953 100.15185547 C29.20231898 96.74182157 28.90484839 93.38077159 28.37158203 90.00341797 C27.91756807 85.91729233 27.74351871 82.82376328 30.10107422 79.29248047 C33.19424637 75.45786597 36.69763705 72.07422913 40.25927734 68.68066406 C42.80575352 66.16559881 45.0211179 63.46883359 47.27392578 60.68701172 C47.99193359 59.80400391 48.70994141 58.92099609 49.44970703 58.01123047 C51.06154992 56.28567281 51.06154992 56.28567281 50.96142578 54.99951172 C46.63828217 54.02011805 42.31495361 53.0415461 37.99145508 52.0637207 C36.52200345 51.73126192 35.05260176 51.39858235 33.58325195 51.06567383 C31.46595273 50.58600123 29.34847263 50.10713435 27.23095703 49.62841797 C25.95841064 49.34039307 24.68586426 49.05236816 23.37475586 48.75561523 C20.07828404 47.95626616 20.07828404 47.95626616 17.13208008 47.71020508 C16.41576416 47.47567627 15.69944824 47.24114746 14.96142578 46.99951172 C13.86401367 44.80932617 13.86401367 44.80932617 12.96142578 41.99951172 C11.8489042 39.99423646 10.69827049 38.0098538 9.52001953 36.04248047 C8.52131836 34.37475586 8.52131836 34.37475586 7.50244141 32.67333984 C7.15737549 32.10172119 6.81230957 31.53010254 6.45678711 30.94116211 C5.39353551 29.17807354 4.33829223 27.41036344 3.28369141 25.64208984 C2.61917969 24.53671875 1.95466797 23.43134766 1.27001953 22.29248047 C0.65956787 21.27694092 0.04911621 20.26140137 -0.57983398 19.21508789 C-1.06121826 18.48394775 -1.54260254 17.75280762 -2.03857422 16.99951172 C-2.36857422 16.99951172 -2.69857422 16.99951172 -3.03857422 16.99951172 Z " fill="#000000" transform="translate(123.03857421875,328.00048828125)"/>
<path d="M0 0 C2.875 0.9375 2.875 0.9375 4.875 3.9375 C5.01745897 6.70405324 5.06269445 9.36403306 5 12.125 C4.99097656 12.87458984 4.98195313 13.62417969 4.97265625 14.39648438 C4.94912578 16.24362654 4.91325561 18.09060412 4.875 19.9375 C5.98359375 19.89109375 7.0921875 19.8446875 8.234375 19.796875 C9.69788968 19.75934898 11.16143356 19.72294971 12.625 19.6875 C13.35460937 19.65398437 14.08421875 19.62046875 14.8359375 19.5859375 C18.43363693 19.52052478 20.45753591 19.63118734 23.3984375 21.7890625 C24.875 23.9375 24.875 23.9375 24.75 26.5625 C23.875 28.9375 23.875 28.9375 21.875 30.9375 C18.9656442 31.08267744 16.155054 31.12380796 13.25 31.0625 C12.44820313 31.05347656 11.64640625 31.04445313 10.8203125 31.03515625 C8.83841477 31.01156223 6.85667019 30.97569065 4.875 30.9375 C4.92720703 32.60039062 4.92720703 32.60039062 4.98046875 34.296875 C5.00861349 35.76040148 5.03591292 37.22394439 5.0625 38.6875 C5.08763672 39.41710937 5.11277344 40.14671875 5.13867188 40.8984375 C5.18312211 44.15812158 5.09923942 46.51680304 3.55078125 49.421875 C1.875 50.9375 1.875 50.9375 -1.125 51.4375 C-4.125 50.9375 -4.125 50.9375 -5.80078125 49.421875 C-7.67886678 45.89838711 -7.44629468 42.57097622 -7.3125 38.6875 C-7.29219727 37.56988281 -7.29219727 37.56988281 -7.27148438 36.4296875 C-7.23627204 34.59864584 -7.18246851 32.76797831 -7.125 30.9375 C-8.91357422 31.00710938 -8.91357422 31.00710938 -10.73828125 31.078125 C-12.30466247 31.11564311 -13.87107076 31.15204323 -15.4375 31.1875 C-16.22318359 31.22101563 -17.00886719 31.25453125 -17.81835938 31.2890625 C-23.62611932 31.38791799 -23.62611932 31.38791799 -26.17578125 29.0859375 C-27.42941324 26.24849883 -27.18851318 24.82417863 -26.125 21.9375 C-22.33336973 19.40974649 -19.31625969 19.71306965 -14.9375 19.8125 C-14.18791016 19.82152344 -13.43832031 19.83054687 -12.66601562 19.83984375 C-10.81887346 19.86337422 -8.97189588 19.89924439 -7.125 19.9375 C-7.17140625 18.82890625 -7.2178125 17.7203125 -7.265625 16.578125 C-7.30315102 15.11461032 -7.33955029 13.65106644 -7.375 12.1875 C-7.40851563 11.45789063 -7.44203125 10.72828125 -7.4765625 9.9765625 C-7.54156395 6.40148281 -7.42649943 4.35481145 -5.3046875 1.41796875 C-3.125 -0.0625 -3.125 -0.0625 0 0 Z " fill="#000000" transform="translate(411.125,410.0625)"/>
<path d="M0 0 C2 2 2 2 2.1953125 5.9140625 C2.18200376 7.48449351 2.15813602 9.05486221 2.125 10.625 C2.11597656 11.42679687 2.10695313 12.22859375 2.09765625 13.0546875 C2.07406223 15.03658523 2.03819065 17.01832981 2 19 C3.19238281 18.96519531 4.38476562 18.93039062 5.61328125 18.89453125 C7.17967342 18.86639247 8.74608081 18.8390924 10.3125 18.8125 C11.09818359 18.78736328 11.88386719 18.76222656 12.69335938 18.73632812 C13.45068359 18.72666016 14.20800781 18.71699219 14.98828125 18.70703125 C16.03302612 18.68346558 16.03302612 18.68346558 17.09887695 18.65942383 C19.60852535 19.10901411 20.47514946 19.9892629 22 22 C22.3125 25.0625 22.3125 25.0625 22 28 C20 30 20 30 18.12060547 30.22705078 C17.37697754 30.21657715 16.63334961 30.20610352 15.8671875 30.1953125 C15.06152344 30.18886719 14.25585938 30.18242187 13.42578125 30.17578125 C12.58402344 30.15902344 11.74226563 30.14226562 10.875 30.125 C9.60076172 30.11146484 9.60076172 30.11146484 8.30078125 30.09765625 C6.20040116 30.07405647 4.10016556 30.03818483 2 30 C2.02320313 31.19238281 2.04640625 32.38476562 2.0703125 33.61328125 C2.08907178 35.17968124 2.10727181 36.746088 2.125 38.3125 C2.14175781 39.09818359 2.15851563 39.88386719 2.17578125 40.69335938 C2.18222656 41.45068359 2.18867188 42.20800781 2.1953125 42.98828125 C2.20578613 43.68477783 2.21625977 44.38127441 2.22705078 45.09887695 C2 47 2 47 0 50 C-3.5 50.3125 -3.5 50.3125 -7 50 C-9 48 -9 48 -9.22705078 46.12060547 C-9.21657715 45.37697754 -9.20610352 44.63334961 -9.1953125 43.8671875 C-9.18886719 43.06152344 -9.18242187 42.25585938 -9.17578125 41.42578125 C-9.15902344 40.58402344 -9.14226562 39.74226563 -9.125 38.875 C-9.11597656 38.02550781 -9.10695312 37.17601562 -9.09765625 36.30078125 C-9.07405647 34.20040116 -9.03818483 32.10016556 -9 30 C-10.27617187 30.02320313 -11.55234375 30.04640625 -12.8671875 30.0703125 C-14.5364525 30.08906829 -16.2057238 30.10726869 -17.875 30.125 C-19.13763672 30.15013672 -19.13763672 30.15013672 -20.42578125 30.17578125 C-21.63427734 30.18544922 -21.63427734 30.18544922 -22.8671875 30.1953125 C-23.61081543 30.20578613 -24.35444336 30.21625977 -25.12060547 30.22705078 C-27 30 -27 30 -29 28 C-29.55977223 22.73814106 -29.55977223 22.73814106 -27.73120117 20.3269043 C-25.62444126 18.71214755 -24.61377558 18.64780957 -21.98828125 18.70703125 C-21.23095703 18.71669922 -20.47363281 18.72636719 -19.69335938 18.73632812 C-18.90767578 18.76146484 -18.12199219 18.78660156 -17.3125 18.8125 C-16.11657227 18.83280273 -16.11657227 18.83280273 -14.89648438 18.85351562 C-12.93070033 18.88882911 -10.96526418 18.94263553 -9 19 C-9.04640625 17.80761719 -9.0928125 16.61523438 -9.140625 15.38671875 C-9.17814311 13.82033753 -9.21454323 12.25392924 -9.25 10.6875 C-9.28351563 9.90181641 -9.31703125 9.11613281 -9.3515625 8.30664062 C-9.45040211 2.49981332 -9.45040211 2.49981332 -7.1484375 -0.0546875 C-4.33216881 -1.29384572 -2.87940124 -0.98505832 0 0 Z " fill="#000000" transform="translate(260,404)"/>
<path d="M0 0 C2 2 2 2 2.1953125 5.9140625 C2.18200376 7.48449351 2.15813602 9.05486221 2.125 10.625 C2.11597656 11.42679688 2.10695313 12.22859375 2.09765625 13.0546875 C2.07406223 15.03658523 2.03819065 17.01832981 2 19 C3.19238281 18.96519531 4.38476562 18.93039063 5.61328125 18.89453125 C7.17967342 18.86639247 8.74608081 18.8390924 10.3125 18.8125 C11.09818359 18.78736328 11.88386719 18.76222656 12.69335938 18.73632812 C13.45068359 18.72666016 14.20800781 18.71699219 14.98828125 18.70703125 C16.03302612 18.68346558 16.03302612 18.68346558 17.09887695 18.65942383 C19.60852535 19.10901411 20.47514946 19.9892629 22 22 C22.3125 25.0625 22.3125 25.0625 22 28 C20 30 20 30 18.12060547 30.22705078 C17.37697754 30.21657715 16.63334961 30.20610352 15.8671875 30.1953125 C15.06152344 30.18886719 14.25585938 30.18242187 13.42578125 30.17578125 C12.58402344 30.15902344 11.74226563 30.14226562 10.875 30.125 C9.60076172 30.11146484 9.60076172 30.11146484 8.30078125 30.09765625 C6.20040116 30.07405647 4.10016556 30.03818483 2 30 C2.02320312 31.19238281 2.04640625 32.38476562 2.0703125 33.61328125 C2.08907178 35.17968124 2.10727181 36.746088 2.125 38.3125 C2.14175781 39.09818359 2.15851563 39.88386719 2.17578125 40.69335938 C2.18222656 41.45068359 2.18867187 42.20800781 2.1953125 42.98828125 C2.20578613 43.68477783 2.21625977 44.38127441 2.22705078 45.09887695 C2 47 2 47 0 50 C-3.5 50.3125 -3.5 50.3125 -7 50 C-9 48 -9 48 -9.22705078 46.12060547 C-9.21657715 45.37697754 -9.20610352 44.63334961 -9.1953125 43.8671875 C-9.18886719 43.06152344 -9.18242188 42.25585938 -9.17578125 41.42578125 C-9.15902344 40.58402344 -9.14226562 39.74226563 -9.125 38.875 C-9.11597656 38.02550781 -9.10695313 37.17601562 -9.09765625 36.30078125 C-9.07405647 34.20040116 -9.03818483 32.10016556 -9 30 C-10.27617188 30.02320313 -11.55234375 30.04640625 -12.8671875 30.0703125 C-14.5364525 30.08906829 -16.2057238 30.10726869 -17.875 30.125 C-19.13763672 30.15013672 -19.13763672 30.15013672 -20.42578125 30.17578125 C-21.63427734 30.18544922 -21.63427734 30.18544922 -22.8671875 30.1953125 C-23.61081543 30.20578613 -24.35444336 30.21625977 -25.12060547 30.22705078 C-27 30 -27 30 -29 28 C-29.55977223 22.73814106 -29.55977223 22.73814106 -27.73120117 20.3269043 C-25.62444126 18.71214755 -24.61377558 18.64780957 -21.98828125 18.70703125 C-21.23095703 18.71669922 -20.47363281 18.72636719 -19.69335938 18.73632812 C-18.90767578 18.76146484 -18.12199219 18.78660156 -17.3125 18.8125 C-16.11657227 18.83280273 -16.11657227 18.83280273 -14.89648438 18.85351562 C-12.93070033 18.88882911 -10.96526418 18.94263553 -9 19 C-9.04640625 17.80761719 -9.0928125 16.61523438 -9.140625 15.38671875 C-9.17814311 13.82033753 -9.21454323 12.25392924 -9.25 10.6875 C-9.28351563 9.90181641 -9.31703125 9.11613281 -9.3515625 8.30664062 C-9.45040211 2.49981332 -9.45040211 2.49981332 -7.1484375 -0.0546875 C-4.33216881 -1.29384572 -2.87940124 -0.98505832 0 0 Z " fill="#000000" transform="translate(80,200)"/>
<path d="M0 0 C3.5 -0.3125 3.5 -0.3125 7 0 C9 2 9 2 9.22705078 3.87939453 C9.21657715 4.62302246 9.20610352 5.36665039 9.1953125 6.1328125 C9.18886719 6.93847656 9.18242187 7.74414062 9.17578125 8.57421875 C9.15902344 9.41597656 9.14226562 10.25773437 9.125 11.125 C9.11597656 11.97449219 9.10695312 12.82398438 9.09765625 13.69921875 C9.07405647 15.79959884 9.03818483 17.89983444 9 20 C10.27617187 19.97679688 11.55234375 19.95359375 12.8671875 19.9296875 C14.5364525 19.91093171 16.2057238 19.89273131 17.875 19.875 C18.71675781 19.85824219 19.55851562 19.84148437 20.42578125 19.82421875 C21.63427734 19.81455078 21.63427734 19.81455078 22.8671875 19.8046875 C23.61081543 19.79421387 24.35444336 19.78374023 25.12060547 19.77294922 C27 20 27 20 29 22 C29.55977223 27.26185894 29.55977223 27.26185894 27.73120117 29.6730957 C25.62444126 31.28785245 24.61377558 31.35219043 21.98828125 31.29296875 C21.23095703 31.28330078 20.47363281 31.27363281 19.69335938 31.26367188 C18.90767578 31.23853516 18.12199219 31.21339844 17.3125 31.1875 C16.11657227 31.16719727 16.11657227 31.16719727 14.89648438 31.14648438 C12.93070033 31.11117089 10.96526418 31.05736447 9 31 C9.04640625 32.19238281 9.0928125 33.38476562 9.140625 34.61328125 C9.17814311 36.17966247 9.21454323 37.74607076 9.25 39.3125 C9.30027344 40.49102539 9.30027344 40.49102539 9.3515625 41.69335938 C9.45040211 47.50018668 9.45040211 47.50018668 7.1484375 50.0546875 C4.33216881 51.29384572 2.87940124 50.98505832 0 50 C-2 48 -2 48 -2.1953125 44.0859375 C-2.18200376 42.51550649 -2.15813602 40.94513779 -2.125 39.375 C-2.11597656 38.57320312 -2.10695313 37.77140625 -2.09765625 36.9453125 C-2.07406223 34.96341477 -2.03819065 32.98167019 -2 31 C-3.19238281 31.03480469 -4.38476562 31.06960937 -5.61328125 31.10546875 C-7.17967342 31.13360753 -8.74608081 31.1609076 -10.3125 31.1875 C-11.09818359 31.21263672 -11.88386719 31.23777344 -12.69335938 31.26367188 C-13.45068359 31.27333984 -14.20800781 31.28300781 -14.98828125 31.29296875 C-15.68477783 31.3086792 -16.38127441 31.32438965 -17.09887695 31.34057617 C-19.60852535 30.89098589 -20.47514946 30.0107371 -22 28 C-22.3125 24.9375 -22.3125 24.9375 -22 22 C-20 20 -20 20 -18.12060547 19.77294922 C-17.37697754 19.78342285 -16.63334961 19.79389648 -15.8671875 19.8046875 C-15.06152344 19.81113281 -14.25585938 19.81757812 -13.42578125 19.82421875 C-12.16314453 19.84935547 -12.16314453 19.84935547 -10.875 19.875 C-9.60076172 19.88853516 -9.60076172 19.88853516 -8.30078125 19.90234375 C-6.20040116 19.92594353 -4.10016556 19.96181517 -2 20 C-2.02320312 18.80761719 -2.04640625 17.61523438 -2.0703125 16.38671875 C-2.08907178 14.82031876 -2.10727181 13.253912 -2.125 11.6875 C-2.14175781 10.90181641 -2.15851563 10.11613281 -2.17578125 9.30664062 C-2.18222656 8.54931641 -2.18867187 7.79199219 -2.1953125 7.01171875 C-2.20578613 6.31522217 -2.21625977 5.61872559 -2.22705078 4.90112305 C-2 3 -2 3 0 0 Z " fill="#000000" transform="translate(120,51)"/>
</svg>
