<svg width="29" height="29" viewBox="0 0 29 29" fill="none" xmlns="http://www.w3.org/2000/svg">
<path d="M26.0219 5.73422C23.7084 2.70386 20.6437 0.835884 16.8784 0.213477C13.0753 -0.418006 9.52938 0.350361 6.35191 2.5337C3.07685 4.77981 1.04251 7.88051 0.261763 11.7828C0.161899 12.2805 0.121803 12.7894 0.0522012 13.2954C0.0385834 13.3967 0.0174004 13.4973 0 13.5979V15.4129C0.075654 15.9529 0.128612 16.4959 0.226962 17.0321C0.828411 20.3491 2.40126 23.1291 4.91751 25.3646C7.0971 27.2999 9.64664 28.4547 12.5328 28.8677C12.8854 28.9183 13.2402 28.9561 13.592 29H15.4077C15.9479 28.9244 16.4911 28.8714 17.0274 28.7731C20.3275 28.1764 23.0987 26.6178 25.3305 24.1228C27.2884 21.935 28.4868 19.3735 28.865 16.4619C29.3749 12.5089 28.4429 8.90525 26.0219 5.73422ZM21.7309 16.3076H16.3201V21.7353H12.6887V16.3242H7.2643V12.6941H12.6751V7.27322H16.3065V12.6805H21.7339L21.7309 16.3076Z" fill="#DF5A43"/>
</svg>
