<svg width="15" height="13" viewBox="0 0 15 13" fill="none" xmlns="http://www.w3.org/2000/svg">
<path d="M14.2414 4.8102L14.2435 4.79677C14.2481 4.76812 14.2536 4.73965 14.2601 4.71139V4.11589C14.2444 4.03198 14.232 3.95806 14.2206 3.89008C14.1963 3.74468 14.1765 3.62645 14.1382 3.49575L14.1378 3.49427C13.9542 2.86097 13.6721 2.3522 13.2878 1.96907C12.906 1.58841 12.4012 1.30941 11.7339 1.1668C11.0685 1.02455 10.4954 1.07611 9.99452 1.27411C9.49026 1.47347 9.0282 1.83374 8.60931 2.35565L8.60931 2.35565C8.51881 2.4684 8.44456 2.57749 8.3582 2.70436C8.31182 2.77251 8.26195 2.84578 8.20419 2.9275L7.79799 3.50226L7.38897 2.92951C7.32769 2.8437 7.27489 2.76676 7.22528 2.69446C7.14373 2.57562 7.07081 2.46935 6.98305 2.35696L6.98254 2.35632C6.53576 1.78224 6.00498 1.37274 5.32813 1.20157L5.32811 1.20156C4.22026 0.92134 3.25215 1.14228 2.4337 1.87756L14.2414 4.8102ZM14.2414 4.8102L14.24 4.82374M14.2414 4.8102L14.24 4.82374M14.24 4.82374C14.1711 5.48497 13.9144 6.09182 13.5157 6.67265L14.24 4.82374ZM1.37974 4.9908L1.3798 4.99123C1.48508 5.78817 1.88515 6.4812 2.44915 7.1677C3.06874 7.91993 3.80183 8.58109 4.58204 9.23329C5.63397 10.1079 6.68669 10.9818 7.7402 11.8551C7.76301 11.8739 7.78161 11.888 7.79645 11.8986C7.81092 11.8882 7.829 11.8744 7.85109 11.856L1.37974 4.9908ZM1.37974 4.9908C1.21542 3.75519 1.51062 2.70741 2.4336 1.87765L1.37974 4.9908ZM11.4615 8.84298C12.2464 8.17582 12.9593 7.48204 13.5155 6.6729L7.8512 11.8559C8.19308 11.5713 8.53488 11.2878 8.87625 11.0047C9.7426 10.2862 10.6062 9.56993 11.4615 8.84298ZM11.4615 8.84298L11.7853 9.22395L11.4615 8.84298Z" stroke="black"/>
</svg>
