<svg width="23" height="23" class="steps_icons" viewBox="0 0 23 23" xmlns="http://www.w3.org/2000/svg">
<path d="M11.4997 13.7373C11.7124 13.7373 11.9164 13.6528 12.0668 13.5024C12.2172 13.352 12.3017 13.148 12.3017 12.9353V3.54337L14.0673 5.3094C14.1412 5.38623 14.2298 5.44755 14.3277 5.48977C14.4256 5.53198 14.5309 5.55425 14.6376 5.55526C14.7442 5.55628 14.8499 5.53602 14.9486 5.49567C15.0473 5.45533 15.137 5.39571 15.2124 5.3203C15.2878 5.24489 15.3473 5.1552 15.3877 5.05649C15.428 4.95778 15.4482 4.85202 15.4471 4.74539C15.4461 4.63877 15.4238 4.53343 15.3815 4.43554C15.3393 4.33764 15.2779 4.24915 15.2011 4.17524L12.0666 1.04037C11.9162 0.890106 11.7123 0.805695 11.4997 0.805695C11.2871 0.805695 11.0833 0.890106 10.9329 1.04037L7.79884 4.17524C7.72198 4.24915 7.66064 4.33764 7.61838 4.43554C7.57613 4.53343 7.55383 4.63877 7.55277 4.74539C7.55172 4.85202 7.57194 4.95778 7.61224 5.05649C7.65255 5.1552 7.71214 5.24489 7.78752 5.3203C7.8629 5.39571 7.95257 5.45533 8.05126 5.49567C8.14996 5.53602 8.25572 5.55628 8.36234 5.55526C8.46896 5.55425 8.57431 5.53198 8.67222 5.48977C8.77013 5.44755 8.85865 5.38623 8.93258 5.3094L10.6978 3.54337V12.9353C10.6978 13.148 10.7823 13.352 10.9327 13.5024C11.0831 13.6528 11.287 13.7373 11.4997 13.7373Z"/>
<path d="M21.9531 11.5154C21.5943 9.89418 20.0761 8.4291 18.421 8.10663C17.8622 7.99562 16.1396 7.89938 15.1621 7.85337C14.9494 7.84307 14.7413 7.91769 14.5836 8.06081C14.4259 8.20392 14.3316 8.40382 14.3213 8.61651C14.311 8.82921 14.3856 9.03729 14.5287 9.19497C14.6718 9.35265 14.8717 9.44702 15.0844 9.45732C16.9311 9.5468 17.8677 9.6346 18.1087 9.68272H18.1133C19.1437 9.88279 20.1622 10.8587 20.3863 11.8594C20.5999 12.8893 20.6999 13.9142 20.702 15.0817C20.7072 16.1644 20.6014 17.2449 20.3863 18.306C20.1622 19.3072 19.1437 20.2831 18.1133 20.4832H18.1087C17.3987 20.625 13.0014 20.8289 11.5089 20.8128H11.4912C9.99738 20.8285 5.6013 20.625 4.89134 20.4832H4.8867C3.85638 20.2831 2.83787 19.3072 2.61374 18.3065C2.40016 17.2744 2.29844 16.2496 2.29844 15.0821C2.29317 13.9994 2.39897 12.9189 2.61416 11.8578C2.83787 10.8566 3.8568 9.88068 4.88712 9.68061H4.89177C5.13236 9.63249 6.06813 9.54469 7.91183 9.45521C8.11875 9.43759 8.31077 9.34039 8.44747 9.18407C8.58418 9.02774 8.65492 8.82448 8.6448 8.61706C8.63469 8.40964 8.5445 8.21422 8.39323 8.07195C8.24196 7.92967 8.04139 7.85162 7.83374 7.85422C6.85787 7.90149 5.13869 7.99731 4.57942 8.10747C2.9244 8.42911 1.40572 9.89461 1.04694 11.5163V11.5268C0.808005 12.6967 0.689903 13.8881 0.694492 15.0821C0.689446 16.2755 0.806839 17.4663 1.04483 18.6357V18.6462C1.40614 20.2679 2.9244 21.7334 4.57773 22.0555C5.5249 22.2433 10.1164 22.4294 11.5 22.4155H11.6621C13.2091 22.4155 17.5076 22.2357 18.4206 22.0546C20.0756 21.7326 21.5939 20.2671 21.9531 18.6454L21.9552 18.6348C22.1934 17.4646 22.3108 16.273 22.3056 15.0787C22.3105 13.8858 22.1931 12.6954 21.9552 11.5264L21.9531 11.5154Z"/>
</svg>