<svg width="253" height="38" viewBox="0 0 253 38" fill="none" xmlns="http://www.w3.org/2000/svg">
<path d="M1.03275 14.8659L25.2711 0.274191C25.5796 0.0969093 25.9292 0.00243749 26.2854 4.654e-05C26.6417 -0.00234441 26.9925 0.0874277 27.3034 0.260553C27.6142 0.433679 27.8745 0.684209 28.0586 0.987558C28.2427 1.29091 28.3444 1.63665 28.3536 1.99086L28.9187 30.1932C28.9294 30.557 28.8422 30.917 28.6662 31.236C28.4902 31.555 28.2318 31.8215 27.9176 32.008C27.6033 32.1944 27.2448 32.294 26.8789 32.2966C26.513 32.2991 26.153 32.2044 25.8363 32.0223L1.03275 18.4116C0.718931 18.2326 0.458174 17.9745 0.276835 17.6632C0.0954954 17.3519 0 16.9985 0 16.6387C0 16.279 0.0954954 15.9256 0.276835 15.6143C0.458174 15.303 0.718931 15.0448 1.03275 14.8659V14.8659Z" fill="#F2C94C"/>
<path d="M20.0621 14.8659L44.3416 0.274191C44.6501 0.0969093 44.9996 0.00243749 45.3559 4.654e-05C45.7122 -0.00234441 46.0629 0.0874277 46.3738 0.260553C46.6847 0.433679 46.9449 0.684209 47.129 0.987558C47.3132 1.29091 47.4148 1.63665 47.424 1.99086L47.9994 30.1932C48.0101 30.557 47.9229 30.917 47.7469 31.236C47.5709 31.555 47.3125 31.8215 46.9983 32.008C46.684 32.1944 46.3255 32.294 45.9596 32.2966C45.5937 32.2991 45.2337 32.2044 44.917 32.0223L20.134 18.4116C19.8165 18.239 19.5504 17.9861 19.3626 17.6784C19.1749 17.3708 19.0722 17.0193 19.0649 16.6595C19.0576 16.2996 19.1459 15.9443 19.3211 15.6294C19.4962 15.3144 19.7518 15.051 20.0621 14.8659Z" fill="#4338CA"/>
<path d="M36.6657 38.0004C38.4248 38.0004 39.8509 36.5821 39.8509 34.8327C39.8509 33.0832 38.4248 31.665 36.6657 31.665C34.9065 31.665 33.4805 33.0832 33.4805 34.8327C33.4805 36.5821 34.9065 38.0004 36.6657 38.0004Z" fill="#F2C94C"/>
<path d="M15.2536 38.0004C17.0127 38.0004 18.4388 36.5821 18.4388 34.8327C18.4388 33.0832 17.0127 31.665 15.2536 31.665C13.4944 31.665 12.0684 33.0832 12.0684 34.8327C12.0684 36.5821 13.4944 38.0004 15.2536 38.0004Z" fill="#4F46E5"/>
<path d="M76.779 22.8746V10.8585H83.4959V32.0003H77.0818V28.0637H76.8616C76.3936 29.3576 75.5953 30.3853 74.4666 31.1469C73.3471 31.8994 71.9936 32.2756 70.4062 32.2756C68.9655 32.2756 67.6992 31.9452 66.6073 31.2846C65.5153 30.6239 64.6665 29.7017 64.0609 28.5179C63.4552 27.3251 63.1478 25.9303 63.1387 24.3336V10.8585H69.8694V23.0123C69.8785 24.1593 70.1814 25.0631 70.7778 25.7238C71.3743 26.3845 72.1863 26.7148 73.2141 26.7148C73.8839 26.7148 74.485 26.568 75.0172 26.2744C75.5586 25.9716 75.9853 25.5357 76.2973 24.9668C76.6184 24.3887 76.779 23.6913 76.779 22.8746Z" fill="#1E293B"/>
<path d="M94.5107 19.9428V32.0003H87.78V10.8585H94.1804V14.74H94.4144C94.8824 13.4461 95.6807 12.4322 96.8094 11.6981C97.938 10.9548 99.2823 10.5832 100.842 10.5832C102.329 10.5832 103.618 10.9181 104.71 11.588C105.811 12.2487 106.665 13.1754 107.27 14.3683C107.885 15.5521 108.188 16.9377 108.179 18.5251V32.0003H101.448V19.8465C101.457 18.672 101.159 17.7543 100.553 17.0937C99.9568 16.433 99.1263 16.1026 98.0619 16.1026C97.3553 16.1026 96.7314 16.2586 96.19 16.5706C95.6578 16.8734 95.2448 17.3093 94.9512 17.8782C94.6667 18.4471 94.5199 19.1353 94.5107 19.9428Z" fill="#1E293B"/>
<path d="M124.279 10.8585V15.8136H110.942V10.8585H124.279ZM113.736 5.79325H120.467V25.3522C120.467 25.7651 120.531 26.1 120.659 26.357C120.797 26.6047 120.994 26.7837 121.251 26.8938C121.508 26.9947 121.815 27.0452 122.173 27.0452C122.43 27.0452 122.701 27.0222 122.985 26.9764C123.279 26.9213 123.499 26.8754 123.646 26.8387L124.665 31.6975C124.343 31.7892 123.889 31.9039 123.302 32.0416C122.724 32.1792 122.031 32.2664 121.224 32.3031C119.645 32.3765 118.292 32.193 117.163 31.7525C116.044 31.3029 115.186 30.6055 114.589 29.6604C114.002 28.7152 113.718 27.5269 113.736 26.0954V5.79325Z" fill="#1E293B"/>
<path d="M134.898 19.9428V32.0003H128.168V3.8112H134.678V14.74H134.912C135.389 13.437 136.169 12.4184 137.252 11.6843C138.344 10.9502 139.679 10.5832 141.257 10.5832C142.744 10.5832 144.038 10.9135 145.139 11.5742C146.24 12.2257 147.093 13.1479 147.699 14.3408C148.314 15.5337 148.617 16.9285 148.607 18.5251V32.0003H141.877V19.8465C141.886 18.672 141.592 17.7543 140.996 17.0937C140.399 16.433 139.56 16.1026 138.477 16.1026C137.77 16.1026 137.147 16.2586 136.605 16.5706C136.073 16.8734 135.655 17.3093 135.353 17.8782C135.059 18.4471 134.908 19.1353 134.898 19.9428Z" fill="#1E293B"/>
<path d="M152.809 32.0003V10.8585H159.54V32.0003H152.809ZM156.181 8.39468C155.236 8.39468 154.424 8.08269 153.745 7.45872C153.066 6.82556 152.726 6.06394 152.726 5.17386C152.726 4.29295 153.066 3.5405 153.745 2.91653C154.424 2.28337 155.236 1.9668 156.181 1.9668C157.136 1.9668 157.948 2.28337 158.618 2.91653C159.297 3.5405 159.636 4.29295 159.636 5.17386C159.636 6.06394 159.297 6.82556 158.618 7.45872C157.948 8.08269 157.136 8.39468 156.181 8.39468Z" fill="#1E293B"/>
<path d="M170.555 19.9428V32.0003H163.824V10.8585H170.224V14.74H170.458C170.926 13.4461 171.724 12.4322 172.853 11.6981C173.982 10.9548 175.326 10.5832 176.886 10.5832C178.373 10.5832 179.662 10.9181 180.754 11.588C181.855 12.2487 182.708 13.1754 183.314 14.3683C183.929 15.5521 184.232 16.9377 184.222 18.5251V32.0003H177.492V19.8465C177.501 18.672 177.203 17.7543 176.597 17.0937C176.001 16.433 175.17 16.1026 174.106 16.1026C173.399 16.1026 172.775 16.2586 172.234 16.5706C171.702 16.8734 171.289 17.3093 170.995 17.8782C170.711 18.4471 170.564 19.1353 170.555 19.9428Z" fill="#1E293B"/>
<path d="M194.46 26.4533L194.487 18.4288H195.423L201.369 10.8585H208.995L200.158 21.7047H198.382L194.46 26.4533ZM188.389 32.0003V3.8112H195.12V32.0003H188.389ZM201.521 32.0003L195.987 23.2187L200.419 18.4426L209.297 32.0003H201.521Z" fill="#1E293B"/>
<path d="M215.188 32.3995C214.197 32.3995 213.349 32.0508 212.642 31.3534C211.945 30.656 211.601 29.8118 211.61 28.8208C211.601 27.8481 211.945 27.0176 212.642 26.3294C213.349 25.6321 214.197 25.2834 215.188 25.2834C216.124 25.2834 216.95 25.6321 217.666 26.3294C218.391 27.0176 218.758 27.8481 218.767 28.8208C218.758 29.4814 218.584 30.0825 218.244 30.6239C217.914 31.1653 217.478 31.5965 216.936 31.9177C216.404 32.2389 215.822 32.3995 215.188 32.3995Z" fill="#1E293B"/>
<path d="M229.173 32.3582C227.824 32.3582 226.626 32.1333 225.58 31.6837C224.543 31.2249 223.722 30.5367 223.117 29.6191C222.52 28.6923 222.222 27.5315 222.222 26.1367C222.222 24.9622 222.428 23.9712 222.841 23.1637C223.254 22.3562 223.823 21.7001 224.548 21.1954C225.273 20.6907 226.108 20.3099 227.053 20.053C227.998 19.7869 229.008 19.6079 230.081 19.5162C231.283 19.406 232.251 19.2913 232.986 19.1721C233.72 19.0436 234.252 18.8647 234.582 18.6353C234.922 18.3967 235.091 18.0617 235.091 17.6305V17.5616C235.091 16.8551 234.848 16.3091 234.362 15.9237C233.876 15.5383 233.219 15.3456 232.394 15.3456C231.504 15.3456 230.788 15.5383 230.246 15.9237C229.705 16.3091 229.361 16.8413 229.214 17.5203L223.006 17.3001C223.19 16.0155 223.663 14.8684 224.424 13.8591C225.195 12.8405 226.25 12.0422 227.59 11.4641C228.939 10.8768 230.558 10.5832 232.449 10.5832C233.798 10.5832 235.041 10.7438 236.179 11.0649C237.317 11.3769 238.308 11.8357 239.152 12.4414C239.996 13.0378 240.648 13.7719 241.106 14.6436C241.574 15.5154 241.808 16.511 241.808 17.6305V32.0003H235.477V29.0548H235.312C234.935 29.7705 234.454 30.3761 233.866 30.8716C233.288 31.3671 232.605 31.7388 231.816 31.9865C231.036 32.2343 230.155 32.3582 229.173 32.3582ZM231.251 27.9536C231.976 27.9536 232.628 27.8068 233.206 27.5132C233.793 27.2195 234.261 26.8158 234.61 26.3019C234.958 25.7789 235.133 25.1732 235.133 24.485V22.4755C234.94 22.5764 234.706 22.6682 234.431 22.7507C234.165 22.8333 233.871 22.9113 233.55 22.9847C233.229 23.0581 232.898 23.1224 232.559 23.1774C232.219 23.2325 231.894 23.283 231.582 23.3288C230.948 23.4298 230.407 23.5858 229.957 23.7968C229.517 24.0079 229.177 24.2832 228.939 24.6227C228.709 24.953 228.595 25.3476 228.595 25.8064C228.595 26.5038 228.842 27.036 229.338 27.403C229.843 27.7701 230.48 27.9536 231.251 27.9536Z" fill="#1E293B"/>
<path d="M245.924 32.0003V10.8585H252.655V32.0003H245.924ZM249.296 8.39468C248.351 8.39468 247.539 8.08269 246.86 7.45872C246.181 6.82556 245.841 6.06394 245.841 5.17386C245.841 4.29295 246.181 3.5405 246.86 2.91653C247.539 2.28337 248.351 1.9668 249.296 1.9668C250.25 1.9668 251.062 2.28337 251.732 2.91653C252.411 3.5405 252.751 4.29295 252.751 5.17386C252.751 6.06394 252.411 6.82556 251.732 7.45872C251.062 8.08269 250.25 8.39468 249.296 8.39468Z" fill="#1E293B"/>
</svg>
