<svg width="1440" height="899" viewBox="0 0 1440 899" fill="none" xmlns="http://www.w3.org/2000/svg">
<g opacity="0.5">
<circle cx="161" cy="311.5" r="22" fill="#083dc1"/>
<circle cx="949" cy="584.5" r="22" fill="#083dc1"/>
<circle cx="585" cy="783.5" r="22" fill="#083dc1"/>
<circle cx="336.5" cy="443" r="13.5" fill="#083dc1"/>
<circle cx="913.5" cy="111" r="13.5" fill="#083dc1"/>
<circle cx="1326.5" cy="125" r="26.5" fill="#083dc1"/>
<circle cx="1059" cy="737.5" r="22.25" stroke="#083dc1" stroke-width="1.5"/>
<circle cx="476" cy="131.5" r="22.25" stroke="#083dc1" stroke-width="1.5"/>
<circle cx="927" cy="338.5" r="22.25" stroke="#083dc1" stroke-width="1.5"/>
<circle cx="195.5" cy="787" r="24.75" stroke="#083dc1" stroke-width="1.5"/>
<circle cx="1383" cy="384.5" r="12.25" stroke="#083dc1" stroke-width="1.5"/>
<circle cx="1213" cy="847.5" r="12.25" stroke="#083dc1" stroke-width="1.5"/>
<circle cx="738" cy="235.5" r="12.25" stroke="#083dc1" stroke-width="1.5"/>
<circle cx="1266.5" cy="604" r="21.5" fill="#F7C950"/>
<circle cx="1383.5" cy="770" r="21.5" fill="#083dc1"/>
<circle cx="1106" cy="163.5" r="12" fill="#F7C950"/>
<circle cx="730" cy="547.5" r="12" fill="#F7C950"/>
<circle cx="337.5" cy="703" r="14.5" fill="#F7C950"/>
<circle cx="99" cy="599.5" r="22" fill="#F7C950"/>
<circle cx="475" cy="560.5" r="22" fill="#F7C950"/>
<circle cx="589" cy="354.5" r="22" fill="#F7C950"/>
<circle cx="91.5" cy="84" r="14.5" fill="#F7C950"/>
<circle cx="314.5" cy="130" r="20.75" stroke="#F7C954" stroke-width="1.5"/>
<circle cx="751.5" cy="69" r="20.75" stroke="#F7C954" stroke-width="1.5"/>
<circle cx="1147" cy="399.5" r="28.25" stroke="#F7C954" stroke-width="1.5"/>
<circle cx="863.5" cy="753" r="14.75" stroke="#F7C954" stroke-width="1.5"/>
<path d="M1034.5 742.499C999 737.833 918.8 734.199 882 756.999" stroke="black" stroke-opacity="0.2"/>
<path d="M107 85.5242C151.333 84.0242 218.5 78.5234 293.5 123.524" stroke="black" stroke-opacity="0.2"/>
<path d="M302.5 150C266.5 166.833 190.9 219.5 176.5 295.5" stroke="black" stroke-opacity="0.2"/>
<path d="M181 326.5C218.5 330.667 300 357.9 326 433.5" stroke="black" stroke-opacity="0.2"/>
<path d="M139 306.5C130.929 285.833 90.2306 243.7 -8 240.5" stroke="black" stroke-opacity="0.2"/>
<path d="M94 97.5C119.667 119.5 167.7 188.9 154.5 290.5" stroke="black" stroke-opacity="0.2"/>
<path d="M76 83.5C56.5 87.6667 14.9 108.6 4.5 159" stroke="black" stroke-opacity="0.2"/>
<path d="M335.5 689C311 650.333 276.7 549.4 335.5 455" stroke="black" stroke-opacity="0.2"/>
<path d="M323.5 447.5C273.5 457.333 162 498.9 116 586.5" stroke="black" stroke-opacity="0.2"/>
<path d="M78 601C70.5 589.834 46.3 568.3 9.5 571.5" stroke="black" stroke-opacity="0.2"/>
<path d="M323.5 439.5C258.667 417 104.5 382.4 6.5 424" stroke="black" stroke-opacity="0.2"/>
<path d="M150.5 332.5C118.667 362.333 63.7003 453 98.5003 577" stroke="black" stroke-opacity="0.2"/>
<path d="M91.9993 70C88.166 56.1667 84.9993 23 102.999 1" stroke="black" stroke-opacity="0.2"/>
<path d="M319.5 111.5C339.333 77 388.6 6.9 427 2.5" stroke="black" stroke-opacity="0.2"/>
<path d="M325 150C340.5 189 365.2 299.8 340 431" stroke="black" stroke-opacity="0.2"/>
<path d="M108.5 616C129.5 640.5 173.5 704.5 181.5 764.5" stroke="black" stroke-opacity="0.2"/>
<path d="M221.5 779.5C238.333 762.667 282 725.5 322 711.5" stroke="black" stroke-opacity="0.2"/>
<path d="M171 795.999C138.167 788.333 58.7 777.599 3.5 795.999" stroke="black" stroke-opacity="0.2"/>
<path d="M349 710.5C367.833 731.833 403.3 877.8 404.5 923" stroke="black" stroke-opacity="0.2"/>
<path d="M1121 166C1160.33 148.167 1198.5 123 1299.5 131" stroke="black" stroke-opacity="0.2"/>
<path d="M1103.5 151.5C1102 126 1103.4 60.2 1121 1" stroke="black" stroke-opacity="0.2"/>
<path d="M1118 169.5C1183.83 180.333 1327.9 236.4 1377.5 374" stroke="black" stroke-opacity="0.2"/>
<path d="M1353.5 137C1387.33 151.167 1453.6 193.3 1448 248.5" stroke="black" stroke-opacity="0.2"/>
<path d="M1337 150.5C1358.83 192.667 1399.6 295.7 1388 370.5" stroke="black" stroke-opacity="0.2"/>
<path d="M1396.5 384C1403.83 377.833 1424.1 364.6 1446.5 361" stroke="black" stroke-opacity="0.2"/>
<path d="M1107.5 175C1125 208.333 1156.3 294.2 1141.5 371" stroke="black" stroke-opacity="0.2"/>
<path d="M1176 398.5C1215.83 385.5 1310.5 365.8 1370.5 391" stroke="black" stroke-opacity="0.2"/>
<path d="M1387.5 397.5C1387.17 433.333 1366.1 522.1 1284.5 590.5" stroke="black" stroke-opacity="0.2"/>
<path d="M1282 620C1304.67 635.167 1356.1 682.1 1380.5 748.5" stroke="black" stroke-opacity="0.2"/>
<path d="M1287.5 606.5C1321 602.167 1399.5 596.1 1445.5 606.5" stroke="black" stroke-opacity="0.2"/>
<path d="M1398 788.5C1411.7 817.617 1440.89 882.181 1448 907.5" stroke="black" stroke-opacity="0.2"/>
<path d="M1168.5 422C1197 447.5 1254.9 515.2 1258.5 582" stroke="black" stroke-opacity="0.2"/>
<path d="M1264 625.5C1266.83 663.167 1261.1 757.7 1215.5 834.5" stroke="black" stroke-opacity="0.2"/>
<path d="M1242.5 607C1189.83 621.167 1129.7 665.5 1080.5 725.5" stroke="black" stroke-opacity="0.2"/>
<path d="M1127.5 426.5C1091.33 471.167 1077.1 585.6 1065.5 714" stroke="black" stroke-opacity="0.2"/>
<path d="M181 810C137 874.667 71.3998 1026.1 86.9998 1100.5" stroke="black" stroke-opacity="0.2"/>
<path d="M1046 757C1010.33 789.167 936.6 871.4 927 943" stroke="black" stroke-opacity="0.2"/>
<path d="M936 956.501C979.833 920.001 1093.9 848.201 1199.5 853.001" stroke="black" stroke-opacity="0.2"/>
<path d="M1225 857C1255.83 872.5 1324.4 919.1 1352 981.5" stroke="black" stroke-opacity="0.2"/>
<path d="M1382.5 794C1374.83 814.667 1360.1 880.3 1362.5 977.5" stroke="black" stroke-opacity="0.2"/>
<path d="M851.5 769.5C840.5 784.833 816.9 829.8 810.5 887" stroke="black" stroke-opacity="0.2"/>
<path d="M337.5 134.5C364.167 126.167 424.1 114.5 450.5 134.5" stroke="black" stroke-opacity="0.2"/>
<path d="M500.5 132.499C540.167 109.499 641.4 65.7995 729 74.9995" stroke="black" stroke-opacity="0.2"/>
<path d="M477.5 107.5C480.833 83.8333 493.6 29.6 518 2" stroke="black" stroke-opacity="0.2"/>
<path d="M775 74.9995C805.833 74.8328 874.4 80.6995 902 105.5" stroke="black" stroke-opacity="0.2"/>
<path d="M925 100C933.333 75.6667 959.2 22.4 996 4" stroke="black" stroke-opacity="0.2"/>
<path d="M765.5 51C766.167 38.3333 771.9 10.7 789.5 1.5" stroke="black" stroke-opacity="0.2"/>
<path d="M751 88.5C743.667 116.833 731.2 183.1 740 221.5" stroke="black" stroke-opacity="0.2"/>
<path d="M493 148C549.667 149.667 675.5 169 725.5 233" stroke="black" stroke-opacity="0.2"/>
<path d="M480 156C505.167 183.333 560.6 257.2 581 334" stroke="black" stroke-opacity="0.2"/>
<path d="M467 152.5C439.667 224.667 401.4 403 467 539" stroke="black" stroke-opacity="0.2"/>
<path d="M348.5 444.5C370.333 448.667 422.7 475.3 457.5 548.5" stroke="black" stroke-opacity="0.2"/>
<path d="M494.5 548.5C496.667 497.833 516.4 392.3 578 375.5" stroke="black" stroke-opacity="0.2"/>
<path d="M610 342C622.667 314.167 664.4 255.3 730 242.5" stroke="black" stroke-opacity="0.2"/>
<path d="M749.5 241C791 245.667 881.1 268.8 909.5 324" stroke="black" stroke-opacity="0.2"/>
<path d="M914.5 124C921.5 153.833 934.5 233.7 930.5 314.5" stroke="black" stroke-opacity="0.2"/>
<path d="M945 321C970.833 271.833 1037.5 173.2 1097.5 172" stroke="black" stroke-opacity="0.2"/>
<path d="M925.5 117.5C969.833 119.5 1065.6 130.9 1094 160.5" stroke="black" stroke-opacity="0.2"/>
<path d="M951.5 347.999C988.167 344.832 1072.8 349.099 1118 391.499" stroke="black" stroke-opacity="0.2"/>
<path d="M1121.5 412.5C1079.67 441.833 990.9 515.6 970.5 576" stroke="black" stroke-opacity="0.2"/>
<path d="M964 600C986.167 614.833 1034.6 658 1051 712" stroke="black" stroke-opacity="0.2"/>
<path d="M611.5 361.001C676.333 344.001 825.5 318.301 903.5 351.501" stroke="black" stroke-opacity="0.2"/>
<path d="M499.5 569.5C542.333 574.833 645.9 579.4 717.5 555" stroke="black" stroke-opacity="0.2"/>
<path d="M602 375.5C629.333 389.833 692.3 442.6 725.5 539" stroke="black" stroke-opacity="0.2"/>
<path d="M483 580.5C514 622.167 577 717.4 581 765" stroke="black" stroke-opacity="0.2"/>
<path d="M353.5 699.499C410.167 695.166 531.8 703.799 565 772.999" stroke="black" stroke-opacity="0.2"/>
<path d="M343.5 688C358 661.5 400.8 601.7 456 574.5" stroke="black" stroke-opacity="0.2"/>
<path d="M741.5 545.5C782 535.334 876.8 526.2 932 571" stroke="black" stroke-opacity="0.2"/>
<path d="M935.5 362.5C948.167 388.667 969.7 465.7 954.5 564.5" stroke="black" stroke-opacity="0.2"/>
<path d="M858.5 739.5C839.667 696.167 789.2 598.9 738 556.5" stroke="black" stroke-opacity="0.2"/>
<path d="M873 739.5C887.5 719.333 921.6 664.2 942 605" stroke="black" stroke-opacity="0.2"/>
<path d="M600.5 807C608.5 818.667 626.4 851.3 634 888.5" stroke="black" stroke-opacity="0.2"/>
</g>
</svg>
