<svg width="40" height="40" viewBox="0 0 40 40" fill="none" xmlns="http://www.w3.org/2000/svg">
<path d="M17.5195 18.06C15.7424 18.06 14.2715 16.6203 14.2715 14.812C14.2715 13.0349 15.7111 11.564 17.5195 11.564C19.2966 11.564 20.7675 13.0036 20.7675 14.812C20.7675 16.6202 19.2967 18.06 17.5195 18.06ZM17.5195 12.8206C16.4161 12.8206 15.497 13.7086 15.497 14.8431C15.497 15.9465 16.385 16.8656 17.5195 16.8656C18.6229 16.8656 19.5419 15.9776 19.5419 14.8431C19.5419 13.7098 18.6229 12.8206 17.5195 12.8206Z" fill="#B4ACF4" stroke="#B4ACF4"/>
<path d="M27.7205 15.4237H20.1537C19.8162 15.4237 19.541 15.1484 19.541 14.811C19.541 14.4735 19.8163 14.1982 20.1537 14.1982H27.7205C28.058 14.1982 28.3332 14.4735 28.3332 14.811C28.3332 15.1484 28.0579 15.4237 27.7205 15.4237Z" fill="#B4ACF4" stroke="#B4ACF4"/>
<path d="M14.9139 15.4256H12.2787C11.9412 15.4256 11.666 15.1504 11.666 14.8129C11.666 14.4754 11.9413 14.2002 12.2787 14.2002H14.9139C15.2514 14.2002 15.5266 14.4754 15.5266 14.8129C15.5266 15.1504 15.2514 15.4256 14.9139 15.4256Z" fill="#B4ACF4" stroke="#B4ACF4"/>
<path d="M22.4824 27.2819C20.7053 27.2819 19.2344 25.8423 19.2344 24.0339C19.2344 22.2568 20.674 20.7859 22.4824 20.7859C24.2595 20.7859 25.7304 22.2255 25.7304 24.0339C25.6993 25.8409 24.2584 27.2819 22.4824 27.2819ZM22.4824 22.0426C21.379 22.0426 20.4599 22.9305 20.4599 24.065C20.4599 25.1684 21.3479 26.0875 22.4824 26.0875C23.5858 26.0875 24.5048 25.1995 24.5048 24.065C24.4737 22.9305 23.5846 22.0426 22.4824 22.0426Z" fill="#B4ACF4" stroke="#B4ACF4"/>
<path d="M19.8474 24.6771H12.2807C11.9432 24.6771 11.668 24.4018 11.668 24.0644C11.668 23.7269 11.9432 23.4517 12.2807 23.4517H19.8474C20.1849 23.4517 20.4601 23.7269 20.4601 24.0644C20.4601 24.4007 20.1849 24.6771 19.8474 24.6771Z" fill="#B4ACF4" stroke="#B4ACF4"/>
<path d="M27.7205 24.6786H25.0854C24.7479 24.6786 24.4727 24.4033 24.4727 24.0658C24.4727 23.7284 24.7479 23.4531 25.0854 23.4531H27.7205C28.058 23.4531 28.3333 23.7284 28.3333 24.0658C28.3333 24.4021 28.058 24.6786 27.7205 24.6786Z" fill="#B4ACF4" stroke="#B4ACF4"/>
</svg>
