<svg width="24" height="24" viewBox="0 0 24 24" fill="none" xmlns="http://www.w3.org/2000/svg">
<mask id="mask0_122_82" style="mask-type:alpha" maskUnits="userSpaceOnUse" x="0" y="0" width="24" height="24">
<circle cx="12" cy="12" r="12" fill="#131313"/>
</mask>
<g mask="url(#mask0_122_82)">
<circle cx="12" cy="12" r="12" fill="white"/>
<path d="M12 14C14.2091 14 16 12.2091 16 10C16 7.79086 14.2091 6 12 6C9.79086 6 8 7.79086 8 10C8 12.2091 9.79086 14 12 14Z" fill="#131313"/>
<path d="M4.94 18.4125L5.64001 17.975C9.53125 15.543 14.4687 15.543 18.36 17.975L19.06 18.4125C19.6448 18.778 20 19.4189 20 20.1085V27H4V20.1085C4 19.4189 4.35524 18.778 4.94 18.4125Z" fill="#131313"/>
</g>
</svg>
