<svg viewBox="0 0 32 32" fill="none" xmlns="http://www.w3.org/2000/svg">
<rect x="0.5" y="0.5" width="31" height="31" rx="15.5" stroke="currentColor"/>
<path d="M12.0546 24.9343C11.2847 24.6856 10.7443 24.04 10.6391 23.2413C10.5865 22.8205 10.5865 10.1568 10.6391 9.73599C10.7299 9.04255 11.1603 8.44476 11.782 8.15303L12.1025 8H16.0001H19.8977L20.2181 8.15303C20.8398 8.44476 21.2511 9.01864 21.3563 9.72164C21.4185 10.176 21.4185 22.8013 21.3563 23.2557C21.2511 23.9587 20.8398 24.5325 20.2181 24.8243L19.8977 24.9773L16.0718 24.9869C13.0733 24.9917 12.2029 24.9821 12.0546 24.9343Z" fill="currentColor"/>
<path d="M8.64454 23.1792C7.90327 23.0357 7.28157 22.4332 7.08071 21.6775C6.9755 21.2567 6.97072 11.7255 7.08071 11.3094C7.18114 10.9221 7.31505 10.6782 7.58764 10.3912C8.00849 9.94646 8.52976 9.74561 9.26624 9.74561H9.68709V16.4887V23.2318L9.27102 23.227C9.03669 23.2222 8.75931 23.2031 8.64454 23.1792Z" fill="currentColor"/>
<path d="M22.3125 16.4887V9.74561H22.7333C23.4698 9.74561 23.9911 9.94646 24.4119 10.3912C24.6845 10.6782 24.8184 10.9221 24.9189 11.3094C25.0289 11.7255 25.0241 21.2567 24.9189 21.6775C24.8137 22.0745 24.6319 22.3805 24.3354 22.6627C23.9098 23.0644 23.4268 23.2318 22.6903 23.2318H22.3125V16.4887Z" fill="currentColor"/>
</svg>
