<svg xmlns="http://www.w3.org/2000/svg" width="29.198" height="30" viewBox="0 0 29.198 30">
  <g id="Group_312" data-name="Group 312" transform="translate(-567.453 -1723)">
    <path id="Path_367" data-name="Path 367" d="M281.417,72.4a2.238,2.238,0,1,0-1.58-.655,2.235,2.235,0,0,0,1.58.655Zm0-3.727h0a1.493,1.493,0,1,1-1.055.437,1.493,1.493,0,0,1,1.055-.437Z" transform="translate(297.864 1655.066)" fill="#fff"/>
    <path id="Path_368" data-name="Path 368" d="M179.242,128.18a3.78,3.78,0,1,0-2.67-1.107,3.777,3.777,0,0,0,2.67,1.107Zm0-6.808a3.032,3.032,0,1,1-2.145.886,3.035,3.035,0,0,1,2.145-.886Z" transform="translate(394.245 1606.101)" fill="#fff"/>
    <path id="Path_369" data-name="Path 369" d="M167.41,431.64a1.415,1.415,0,1,0-.414,1,1.412,1.412,0,0,0,.414-1Zm-2.082,0a.67.67,0,1,1,.669.669.67.67,0,0,1-.669-.669Z" transform="translate(404.355 1318.399)" fill="#fff"/>
    <path id="Path_370" data-name="Path 370" d="M361.218,169.017a.372.372,0,0,0,.371-.371v-.606a1.982,1.982,0,0,0,.955-.444,1.58,1.58,0,0,0,.009-2.44,2.012,2.012,0,0,0-1.324-.485c-.768,0-1.157-.327-1.154-.962a.878.878,0,0,1,.323-.658,1.278,1.278,0,0,1,.833-.295h.006a1.071,1.071,0,0,1,1.154.962h0a.371.371,0,1,0,.742,0,1.767,1.767,0,0,0-1.523-1.673v-.607a.371.371,0,1,0-.741,0v.606a1.965,1.965,0,0,0-.955.444,1.605,1.605,0,0,0-.58,1.218,1.674,1.674,0,0,0,1.895,1.708h0a1.272,1.272,0,0,1,.836.3.838.838,0,0,1-.005,1.315,1.267,1.267,0,0,1-.833.295h-.006a1.072,1.072,0,0,1-1.154-.961h0a.371.371,0,1,0-.741,0,1.767,1.767,0,0,0,1.522,1.673v.606h0a.372.372,0,0,0,.371.375Z" transform="translate(223.39 1568.519)" fill="#fff"/>
    <path id="Path_371" data-name="Path 371" d="M172.339,151.734a3.017,3.017,0,0,0-3.128-.6l-3.636,1.412a25.323,25.323,0,0,0-2.8-.483,5.338,5.338,0,0,0-2.024-10.27h-.02a5.338,5.338,0,0,0-2.933,9.793,25.526,25.526,0,0,0-9.216,1.877l-.269-1.577h0a.372.372,0,0,0-.366-.309h-3.719a.371.371,0,0,0,0,.743h3.4l.275,1.6a.368.368,0,0,0,.024.22.3.3,0,0,0,.02.039l1.864,10.908-5.921.74a.371.371,0,0,0,.045.74.334.334,0,0,0,.047,0l6.307-.788a.371.371,0,0,0,.32-.431l-.546-3.193h8.97A5.855,5.855,0,0,0,162.51,161l9.717-7.237a1.324,1.324,0,0,0,.111-2.031Zm-16.2-4.622a4.6,4.6,0,0,1,4.594-4.576h.018a4.594,4.594,0,0,1-.017,9.187h-.014a4.6,4.6,0,0,1-4.581-4.611Zm15.879,5.623a.578.578,0,0,1-.232.433l-9.717,7.237h0a5.108,5.108,0,0,1-3.03,1.006h-9.1l-1.231-7.195c1.191-.479,5.839-2.209,9.9-1.837l.262.024c1.015.092,2.715.247,4.275.464h0a21.738,21.738,0,0,1,2.339.425l.039.01a2.182,2.182,0,0,1,.8.309c.123.107.108.326-.044.649a2.518,2.518,0,0,1-1.843,1.387,42.839,42.839,0,0,1-4.357.534,10.641,10.641,0,0,0-4.417,1.339l-.056.033a.371.371,0,1,0,.365.647l.056-.032h0a9.892,9.892,0,0,1,4.106-1.246,43.308,43.308,0,0,0,4.434-.542,3.261,3.261,0,0,0,2.385-1.8c.408-.866.087-1.328-.139-1.526a1.056,1.056,0,0,0-.171-.119l2.835-1.1a2.266,2.266,0,0,1,2.353.451.582.582,0,0,1,.184.451Z" transform="translate(423.891 1586.431)" fill="#fff"/>
  </g>
</svg>
