<svg xmlns="http://www.w3.org/2000/svg" width="60" height="60" viewBox="0 0 60 60">
  <g id="Group_298" data-name="Group 298" transform="translate(-650 -3961)">
    <path id="Path_379" data-name="Path 379" d="M126,0H74a4,4,0,0,0-4,4V56a4,4,0,0,0,4,4h52a4,4,0,0,0,4-4V4a4,4,0,0,0-4-4ZM74,2h52a2,2,0,0,1,2,2V8H72V4a2,2,0,0,1,2-2Zm52,56H74a2,2,0,0,1-2-2V10h56V56a2,2,0,0,1-2,2Z" transform="translate(580.002 3961)" fill="#f7c951"/>
    <path id="Path_380" data-name="Path 380" d="M108.334,39.332h1a1,1,0,0,0,0-2h-1a1,1,0,1,0,0,2Z" transform="translate(546.666 3927.668)" fill="#f7c951"/>
    <path id="Path_381" data-name="Path 381" d="M155,39.332h1a1,1,0,0,0,0-2h-1a1,1,0,0,0,0,2Z" transform="translate(505.002 3927.668)" fill="#f7c951"/>
    <path id="Path_382" data-name="Path 382" d="M201.668,39.332h1a1,1,0,1,0,0-2h-1a1,1,0,0,0,0,2Z" transform="translate(463.332 3927.668)" fill="#f7c951"/>
    <path id="Path_383" data-name="Path 383" d="M519,39.332h6a1,1,0,1,0,0-2h-6a1,1,0,0,0,0,2Z" transform="translate(180.002 3927.668)" fill="#f7c951"/>
    <path id="Path_384" data-name="Path 384" d="M308.332,137.336a5.007,5.007,0,0,0,5-5v-6a5,5,0,0,0-10,0v6a5.007,5.007,0,0,0,5,5Zm-3-11a3,3,0,1,1,6,0v6a3,3,0,1,1-6,0Z" transform="translate(371.668 3852.664)" fill="#f7c951"/>
    <path id="Path_385" data-name="Path 385" d="M283,214.67a1,1,0,0,0-1,1,7,7,0,1,1-14,0,1,1,0,0,0-2,0,9.01,9.01,0,0,0,8,8.941v3.059h-2a1,1,0,0,0,0,2h6a1,1,0,0,0,0-2h-2v-3.059a9.01,9.01,0,0,0,8-8.941,1,1,0,0,0-1-1Z" transform="translate(404.998 3769.33)" fill="#f7c951"/>
    <path id="Path_386" data-name="Path 386" d="M155,429.33a1,1,0,0,0-1,1v2h0a1,1,0,1,0,2,0v-2a1,1,0,0,0-1-1Z" transform="translate(505.002 3577.669)" fill="#f7c951"/>
    <path id="Path_387" data-name="Path 387" d="M304.334,410.67a1,1,0,0,0-1,1v6a1,1,0,0,0,2,0v-6a1,1,0,0,0-1-1Z" transform="translate(371.666 3594.33)" fill="#f7c951"/>
    <path id="Path_388" data-name="Path 388" d="M341.668,382.67a1,1,0,0,0-1,1v12a1,1,0,0,0,2,0v-12a1,1,0,0,0-1-1Z" transform="translate(338.332 3619.33)" fill="#f7c951"/>
    <path id="Path_389" data-name="Path 389" d="M267,429.33a1,1,0,0,0-1,1v2h0a1,1,0,1,0,2,0v-2a1,1,0,0,0-1-1Z" transform="translate(405.002 3577.669)" fill="#f7c951"/>
    <path id="Path_390" data-name="Path 390" d="M229.668,420a1,1,0,0,0-1,1v4a1,1,0,0,0,2,0v-4a1,1,0,0,0-1-1Z" transform="translate(438.332 3586)" fill="#f7c951"/>
    <path id="Path_391" data-name="Path 391" d="M192.334,410.67a1,1,0,0,0-1,1v6a1,1,0,0,0,2,0v-6a1,1,0,0,0-1-1Z" transform="translate(471.666 3594.33)" fill="#f7c951"/>
    <path id="Path_392" data-name="Path 392" d="M528.334,429.33a1,1,0,0,0-1,1v2h0a1,1,0,1,0,2,0v-2a1,1,0,0,0-1-1Z" transform="translate(171.666 3577.669)" fill="#f7c951"/>
    <path id="Path_393" data-name="Path 393" d="M379,410.67a1,1,0,0,0-1,1v6a1,1,0,0,0,2,0v-6a1,1,0,0,0-1-1Z" transform="translate(305.002 3594.33)" fill="#f7c951"/>
    <path id="Path_394" data-name="Path 394" d="M416.334,429.33a1,1,0,0,0-1,1v2h0a1,1,0,1,0,2,0v-2a1,1,0,0,0-1-1Z" transform="translate(271.666 3577.669)" fill="#f7c951"/>
    <path id="Path_395" data-name="Path 395" d="M453.668,420a1,1,0,0,0-1,1v4a1,1,0,0,0,2,0v-4a1,1,0,0,0-1-1Z" transform="translate(238.332 3586)" fill="#f7c951"/>
    <path id="Path_396" data-name="Path 396" d="M491,410.67a1,1,0,0,0-1,1v6a1,1,0,0,0,2,0v-6a1,1,0,0,0-1-1Z" transform="translate(205.002 3594.33)" fill="#f7c951"/>
  </g>
</svg>
