<svg width="20" height="20" viewBox="0 0 20 20" fill="none" xmlns="http://www.w3.org/2000/svg">
<g clip-path="url(#clip0_2883_1603)">
<path d="M19.9955 3.79813C19.2599 4.125 18.4705 4.34563 17.6393 4.44375C18.4861 3.93625 19.1368 3.1325 19.4436 2.175C18.6499 2.64375 17.773 2.9875 16.8386 3.17C16.0899 2.37313 15.0236 1.875 13.8436 1.875C11.5774 1.875 9.74177 3.71125 9.74177 5.97687C9.74177 6.29812 9.77739 6.61188 9.84802 6.91187C6.43739 6.73938 3.41489 5.10625 1.39177 2.625C1.03864 3.23125 0.835518 3.93625 0.835518 4.6875C0.835518 6.1125 1.56052 7.36688 2.66052 8.10313C1.98802 8.08125 1.35552 7.89688 0.802393 7.59063V7.64062C0.802393 9.62937 2.21489 11.2875 4.09239 11.6644C3.74864 11.7581 3.38614 11.8081 3.01114 11.8081C2.74677 11.8081 2.49052 11.7831 2.24052 11.735C2.76177 13.3637 4.27802 14.55 6.07177 14.5837C4.66864 15.6838 2.89989 16.34 0.978018 16.34C0.646768 16.34 0.319893 16.3213 -0.000732422 16.2838C1.81552 17.4463 3.97177 18.125 6.28864 18.125C13.8336 18.125 17.9605 11.875 17.9605 6.45312C17.9605 6.27562 17.9555 6.09813 17.948 5.92188C18.7499 5.34375 19.4449 4.62188 19.9955 3.79813Z" fill="#E5E5E5"/>
</g>
<defs>
<clipPath id="clip0_2883_1603">
<rect width="20" height="20" fill="white"/>
</clipPath>
</defs>
</svg>
