<svg width="20" height="20" viewBox="0 0 20 20" fill="none" xmlns="http://www.w3.org/2000/svg">
<g clip-path="url(#clip0_2883_1605)">
<path fill-rule="evenodd" clip-rule="evenodd" d="M18.8938 2.83795e-06H1.10625C0.960885 -0.000326794 0.816885 0.0280622 0.68252 0.0835397C0.548154 0.139017 0.426071 0.22049 0.323281 0.323281C0.22049 0.426071 0.139017 0.548154 0.0835397 0.68252C0.0280622 0.816885 -0.000326794 0.960885 2.83795e-06 1.10625V18.8938C2.83795e-06 19.5063 0.493753 20 1.10625 20H10.68V12.2538H8.0675V9.25375H10.68V7.025C10.68 4.43875 12.2675 3.03875 14.56 3.03875C15.6538 3.03875 16.6138 3.105 16.8938 3.15875V5.8525H15.28C14.0263 5.8525 13.8 6.43875 13.8 7.31875V9.2525H16.7738L16.3863 12.2525H13.8V20H18.8938C19.5063 20 20 19.5063 20 18.8938V1.10625C20.0003 0.960885 19.9719 0.816885 19.9165 0.68252C19.861 0.548154 19.7795 0.426071 19.6767 0.323281C19.5739 0.22049 19.4519 0.139017 19.3175 0.0835397C19.1831 0.0280622 19.0391 -0.000326794 18.8938 2.83795e-06Z" fill="#E5E5E5"/>
</g>
<defs>
<clipPath id="clip0_2883_1605">
<rect width="20" height="20" fill="white"/>
</clipPath>
</defs>
</svg>
