<svg width="24" height="23" viewBox="0 0 24 23" fill="none" xmlns="http://www.w3.org/2000/svg">
<path d="M3.39917 22.4037C3.05035 22.3453 2.52712 22.024 2.23644 21.6735C1.74228 21.1477 1.68414 20.4466 1.59693 15.1594C1.50973 10.4565 1.42252 9.14197 1.0737 8.84986C0.841158 8.6746 0.666748 8.00275 0.666748 7.38932C0.666748 5.95798 1.5388 5.31534 3.74799 5.14007L5.31768 5.02323V3.76716C5.31768 2.74478 5.49209 2.33583 6.2188 1.60555C7.58501 0.23264 9.61979 0.378695 11.3639 1.95608L12.0034 2.5403L12.672 1.95608C13.6603 1.02134 14.4742 0.700015 15.7532 0.700015C17.4392 0.700015 18.6891 2.01451 18.6891 3.79637V5.08165H19.8228C21.2762 5.08165 22.7005 5.60745 23.0494 6.25009C23.4854 7.03878 23.3982 8.47012 22.9331 8.84986C22.5843 9.14197 22.4971 10.4565 22.4098 15.1594C22.2936 22.8419 22.5843 22.4329 17.0903 22.5498L13.1661 22.6666L13.108 16.2694L13.0208 9.90145H12.0034H10.986L10.8988 16.2694L10.8407 22.6082L7.4106 22.579C5.55023 22.5498 3.71892 22.4621 3.39917 22.4037ZM9.53259 3.91322C9.53259 2.94926 9.47445 2.89083 8.51519 2.89083C7.67221 2.89083 7.46873 3.00768 7.4106 3.56269C7.23619 4.73112 7.55594 5.14007 8.57333 5.02323C9.44538 4.9356 9.53259 4.84797 9.53259 3.91322ZM16.509 3.91322C16.509 2.94926 16.4508 2.89083 15.4916 2.89083C14.6486 2.89083 14.4451 3.00768 14.387 3.56269C14.2126 4.73112 14.5323 5.14007 15.5497 5.02323C16.4218 4.9356 16.509 4.84797 16.509 3.91322Z" fill="#3271CA"/>
</svg>
