<svg xmlns="http://www.w3.org/2000/svg" xmlns:xlink="http://www.w3.org/1999/xlink" width="100" zoomAndPan="magnify" viewBox="0 0 75 74.999997" height="100" preserveAspectRatio="xMidYMid meet" version="1.0"><defs><g/></defs><g fill="#ffffff" fill-opacity="1"><g transform="translate(11.029237, 30.038699)"><g><path d="M 22.875 -5.390625 C 22.90625 -4.753906 22.769531 -3.9375 22.46875 -2.9375 C 22.082031 -2.269531 21.8125 -1.816406 21.65625 -1.578125 C 21.3125 -1.085938 20.929688 -0.679688 20.515625 -0.359375 C 20.171875 0.0859375 19.296875 0.757812 17.890625 1.65625 C 17.773438 1.65625 17.648438 1.707031 17.515625 1.8125 C 17.378906 1.925781 17.273438 1.988281 17.203125 2 C 16.898438 2.195312 16.191406 2.476562 15.078125 2.84375 L 14.75 3.03125 C 14.726562 3.03125 14.351562 3.097656 13.625 3.234375 C 13.175781 3.304688 12.78125 3.332031 12.4375 3.3125 C 12.175781 3.332031 11.828125 3.300781 11.390625 3.21875 C 11.003906 2.976562 10.8125 2.632812 10.8125 2.1875 C 10.8125 2.039062 10.828125 1.851562 10.859375 1.625 C 11.210938 0.644531 11.96875 -0.113281 13.125 -0.65625 C 13.519531 -0.738281 13.859375 -0.710938 14.140625 -0.578125 C 14.179688 -0.523438 14.203125 -0.46875 14.203125 -0.40625 C 14.203125 -0.34375 14.179688 -0.285156 14.140625 -0.234375 C 13.398438 0.140625 12.914062 0.40625 12.6875 0.5625 C 12.1875 0.9375 11.972656 1.332031 12.046875 1.75 C 12.179688 1.9375 12.425781 2.054688 12.78125 2.109375 C 13.082031 2.117188 13.390625 2.140625 13.703125 2.171875 C 14.523438 2.097656 15.507812 1.785156 16.65625 1.234375 C 16.9375 1.203125 17.238281 1.082031 17.5625 0.875 C 18.070312 0.582031 18.347656 0.425781 18.390625 0.40625 C 18.441406 0.320312 18.5625 0.21875 18.75 0.09375 C 18.9375 -0.03125 19.0625 -0.132812 19.125 -0.21875 C 20.226562 -1.132812 20.929688 -2.054688 21.234375 -2.984375 C 21.285156 -3.335938 21.363281 -3.863281 21.46875 -4.5625 C 21.34375 -5.050781 21.222656 -5.535156 21.109375 -6.015625 C 20.929688 -6.566406 20.671875 -7.015625 20.328125 -7.359375 C 20.191406 -7.597656 19.96875 -7.867188 19.65625 -8.171875 C 19.394531 -8.441406 19.140625 -8.707031 18.890625 -8.96875 C 18.359375 -9.332031 17.703125 -9.691406 16.921875 -10.046875 C 16.234375 -10.335938 15.546875 -10.628906 14.859375 -10.921875 C 12.453125 -11.617188 10.019531 -11.96875 7.5625 -11.96875 C 6.851562 -11.96875 6.148438 -11.941406 5.453125 -11.890625 C 2.796875 -11.671875 0.65625 -11.300781 -0.96875 -10.78125 C -1.15625 -10.675781 -1.539062 -10.523438 -2.125 -10.328125 C -2.625 -10.160156 -3 -9.984375 -3.25 -9.796875 C -4.238281 -9.441406 -4.957031 -9.019531 -5.40625 -8.53125 C -5.425781 -8.445312 -5.425781 -8.359375 -5.40625 -8.265625 C -5.382812 -8.117188 -5.375 -8.035156 -5.375 -8.015625 C -5.375 -7.898438 -5.414062 -7.804688 -5.5 -7.734375 C -5.5625 -7.566406 -5.734375 -7.46875 -6.015625 -7.4375 C -6.359375 -7.414062 -6.566406 -7.375 -6.640625 -7.3125 C -7.109375 -7.300781 -7.390625 -7.457031 -7.484375 -7.78125 C -7.296875 -8.78125 -6.234375 -9.753906 -4.296875 -10.703125 C -3.773438 -11.046875 -3.0625 -11.367188 -2.15625 -11.671875 C -1.382812 -11.921875 -0.613281 -12.164062 0.15625 -12.40625 C 0.4375 -12.40625 0.8125 -12.46875 1.28125 -12.59375 C 1.75 -12.726562 2.101562 -12.800781 2.34375 -12.8125 C 2.78125 -12.894531 3.425781 -12.972656 4.28125 -13.046875 C 5.144531 -13.128906 5.773438 -13.207031 6.171875 -13.28125 C 6.367188 -13.238281 6.578125 -13.21875 6.796875 -13.21875 C 6.972656 -13.21875 7.238281 -13.234375 7.59375 -13.265625 C 7.957031 -13.296875 8.234375 -13.3125 8.421875 -13.3125 C 9.472656 -13.3125 10.738281 -13.1875 12.21875 -12.9375 C 13.644531 -12.695312 14.882812 -12.40625 15.9375 -12.0625 C 15.96875 -11.976562 16.066406 -11.929688 16.234375 -11.921875 C 16.453125 -11.898438 16.578125 -11.882812 16.609375 -11.875 C 18.972656 -10.78125 20.53125 -9.742188 21.28125 -8.765625 C 21.78125 -8.335938 22.160156 -7.804688 22.421875 -7.171875 C 22.578125 -6.785156 22.726562 -6.191406 22.875 -5.390625 Z M 9.984375 -2.984375 C 9.921875 -2.859375 9.894531 -2.671875 9.90625 -2.421875 C 9.925781 -2.171875 9.914062 -1.988281 9.875 -1.875 C 9.90625 -1.3125 9.894531 -0.46875 9.84375 0.65625 C 9.4375 1.125 9.078125 1.332031 8.765625 1.28125 C 8.640625 1.207031 8.5625 1.066406 8.53125 0.859375 C 8.507812 0.691406 8.488281 0.523438 8.46875 0.359375 C 8.507812 0.296875 8.519531 0.222656 8.5 0.140625 C 8.445312 0.015625 8.421875 -0.0625 8.421875 -0.09375 C 8.503906 -0.351562 8.519531 -0.738281 8.46875 -1.25 C 8.414062 -1.757812 8.425781 -2.132812 8.5 -2.375 C 8.425781 -2.90625 8.414062 -3.273438 8.46875 -3.484375 C 8.445312 -3.585938 8.425781 -3.769531 8.40625 -4.03125 C 8.382812 -4.300781 8.375 -4.5 8.375 -4.625 C 8.375 -4.945312 8.425781 -5.226562 8.53125 -5.46875 C 8.53125 -5.96875 8.769531 -6.335938 9.25 -6.578125 C 9.351562 -6.671875 9.472656 -6.71875 9.609375 -6.71875 C 9.765625 -6.71875 9.875 -6.648438 9.9375 -6.515625 C 9.988281 -6.066406 10.007812 -5.476562 10 -4.75 C 9.96875 -3.882812 9.960938 -3.296875 9.984375 -2.984375 Z M 9.984375 -2.984375 "/></g></g></g><g fill="#ffffff" fill-opacity="1"><g transform="translate(34.773219, 30.038699)"><g><path d="M 8.328125 -0.453125 C 8.304688 -0.253906 8.191406 -0.109375 7.984375 -0.015625 C 7.785156 0.0664062 7.585938 0.148438 7.390625 0.234375 C 6.140625 0.523438 5.144531 0.671875 4.40625 0.671875 C 3.96875 0.671875 3.5625 0.625 3.1875 0.53125 C 2.53125 0.375 1.96875 0.125 1.5 -0.21875 C 0.945312 -0.625 0.671875 -1.082031 0.671875 -1.59375 C 0.671875 -1.78125 0.703125 -1.972656 0.765625 -2.171875 C 0.828125 -2.367188 0.957031 -2.585938 1.15625 -2.828125 C 1.320312 -3.035156 1.476562 -3.25 1.625 -3.46875 C 1.863281 -3.53125 2.101562 -3.597656 2.34375 -3.671875 C 2.582031 -3.753906 2.796875 -3.796875 2.984375 -3.796875 C 3.179688 -3.796875 3.378906 -3.742188 3.578125 -3.640625 C 3.898438 -3.367188 4.0625 -3.023438 4.0625 -2.609375 C 4.0625 -2.066406 3.695312 -1.414062 2.96875 -0.65625 C 3.125 -0.34375 3.507812 -0.113281 4.125 0.03125 C 4.425781 0.113281 4.742188 0.15625 5.078125 0.15625 C 5.960938 0.15625 6.867188 -0.113281 7.796875 -0.65625 C 8.085938 -0.65625 8.265625 -0.585938 8.328125 -0.453125 Z M 2.875 -2.875 C 2.84375 -3.070312 2.75 -3.171875 2.59375 -3.171875 C 2.46875 -3.171875 2.320312 -3.007812 2.15625 -2.6875 C 2.09375 -2.007812 2.132812 -1.570312 2.28125 -1.375 C 2.3125 -1.363281 2.390625 -1.410156 2.515625 -1.515625 C 2.796875 -1.941406 2.914062 -2.394531 2.875 -2.875 Z M 2.875 -2.875 "/></g></g><g transform="translate(41.117157, 30.038699)"><g><path d="M 5.015625 1.875 C 4.921875 2.144531 4.742188 2.410156 4.484375 2.671875 C 4.234375 2.929688 3.976562 3.113281 3.71875 3.21875 L 2.765625 3.328125 C 2.097656 3.191406 1.566406 2.832031 1.171875 2.25 C 1.160156 2.125 1.097656 1.960938 0.984375 1.765625 C 0.867188 1.578125 0.800781 1.441406 0.78125 1.359375 C 0.601562 0.609375 0.515625 -0.25 0.515625 -1.21875 C 0.515625 -1.84375 0.5625 -2.691406 0.65625 -3.765625 C 0.738281 -4.410156 0.863281 -5.367188 1.03125 -6.640625 C 1.019531 -6.660156 0.96875 -6.671875 0.875 -6.671875 C 0.65625 -6.578125 0.476562 -6.53125 0.34375 -6.53125 C 0.0820312 -6.53125 -0.03125 -6.691406 0 -7.015625 C 0.0625 -7.085938 0.117188 -7.21875 0.171875 -7.40625 C 0.234375 -7.59375 0.285156 -7.722656 0.328125 -7.796875 C 0.472656 -8.035156 0.632812 -8.441406 0.8125 -9.015625 C 0.976562 -9.546875 1.140625 -9.9375 1.296875 -10.1875 C 1.546875 -10.820312 1.925781 -11.773438 2.4375 -13.046875 C 2.5 -13.160156 2.628906 -13.253906 2.828125 -13.328125 C 3.109375 -13.359375 3.265625 -13.285156 3.296875 -13.109375 C 3.328125 -12.941406 3.34375 -12.773438 3.34375 -12.609375 C 3.34375 -12.390625 3.304688 -12.054688 3.234375 -11.609375 C 3.171875 -11.160156 3.140625 -10.816406 3.140625 -10.578125 C 3.078125 -10.460938 3.046875 -10.273438 3.046875 -10.015625 C 3.046875 -9.753906 3.015625 -9.566406 2.953125 -9.453125 C 2.804688 -8.753906 2.648438 -7.703125 2.484375 -6.296875 C 2.472656 -6.046875 2.390625 -5.632812 2.234375 -5.0625 C 2.097656 -4.550781 2.050781 -4.128906 2.09375 -3.796875 C 1.976562 -3.210938 1.921875 -2.515625 1.921875 -1.703125 C 1.921875 -1.890625 1.925781 -1.175781 1.9375 0.4375 C 2.050781 0.789062 2.171875 1.144531 2.296875 1.5 C 2.472656 1.894531 2.738281 2.144531 3.09375 2.25 C 3.457031 2.28125 3.707031 2.269531 3.84375 2.21875 C 4.09375 2.03125 4.269531 1.769531 4.375 1.4375 C 4.414062 1.050781 4.335938 0.765625 4.140625 0.578125 C 4.085938 0.515625 3.894531 0.425781 3.5625 0.3125 C 3.3125 0.21875 3.1875 0.0859375 3.1875 -0.078125 C 3.1875 -0.148438 3.203125 -0.226562 3.234375 -0.3125 C 3.304688 -0.476562 3.382812 -0.644531 3.46875 -0.8125 C 3.5625 -0.976562 3.6875 -1.078125 3.84375 -1.109375 C 4.144531 -1.171875 4.347656 -1.203125 4.453125 -1.203125 C 4.660156 -1.203125 4.828125 -1.132812 4.953125 -1 C 5.171875 -0.632812 5.28125 -0.164062 5.28125 0.40625 C 5.28125 0.914062 5.191406 1.40625 5.015625 1.875 Z M 5.015625 1.875 "/></g></g></g><g fill="#ffffff" fill-opacity="1"><g transform="translate(47.677553, 30.038699)"><g><path d="M 8.34375 -0.5625 C 7.300781 -0.164062 6.539062 0.03125 6.0625 0.03125 C 5.4375 0.03125 4.863281 -0.207031 4.34375 -0.6875 C 3.84375 -0.300781 3.375 -0.101562 2.9375 -0.09375 C 2.289062 -0.0820312 1.703125 -0.285156 1.171875 -0.703125 C 0.648438 -1.128906 0.359375 -1.628906 0.296875 -2.203125 C 0.210938 -2.253906 0.171875 -2.304688 0.171875 -2.359375 C 0.171875 -2.503906 0.347656 -2.644531 0.703125 -2.78125 C 1.054688 -2.914062 1.40625 -2.988281 1.75 -3 C 1.96875 -2.90625 2.078125 -2.65625 2.078125 -2.25 C 2.078125 -2.207031 2.078125 -2.128906 2.078125 -2.015625 C 2.078125 -1.910156 2.078125 -1.832031 2.078125 -1.78125 C 2.078125 -1.34375 2.222656 -1.113281 2.515625 -1.09375 C 2.878906 -1.0625 3.273438 -1.269531 3.703125 -1.71875 C 4.128906 -2.175781 4.492188 -2.375 4.796875 -2.3125 C 4.921875 -2.207031 5.023438 -1.890625 5.109375 -1.359375 C 5.191406 -0.929688 5.390625 -0.671875 5.703125 -0.578125 C 5.867188 -0.554688 6.039062 -0.546875 6.21875 -0.546875 C 6.875 -0.546875 7.53125 -0.691406 8.1875 -0.984375 Z M 8.34375 -0.5625 "/></g></g></g><g fill="#ffffff" fill-opacity="1"><g transform="translate(54.854024, 30.038699)"><g><path d="M 19.734375 -4.25 C 18.828125 -4.382812 17.472656 -4.53125 15.671875 -4.6875 C 11.910156 -4.8125 9.195312 -4.875 7.53125 -4.875 C 5.769531 -4.875 4.140625 -4.828125 2.640625 -4.734375 C 2.523438 -4.722656 2.429688 -4.613281 2.359375 -4.40625 C 2.222656 -3.414062 2.15625 -2.734375 2.15625 -2.359375 C 2.15625 -1.335938 2.4375 -0.582031 3 -0.09375 C 3.351562 0.207031 3.804688 0.359375 4.359375 0.359375 C 4.679688 0.359375 4.976562 0.304688 5.25 0.203125 C 5.757812 0.00390625 6.195312 -0.285156 6.5625 -0.671875 C 6.601562 -0.710938 6.632812 -0.734375 6.65625 -0.734375 C 6.726562 -0.734375 6.765625 -0.65625 6.765625 -0.5 C 6.765625 -0.21875 6.6875 0.00390625 6.53125 0.171875 C 6.195312 0.515625 5.757812 0.75 5.21875 0.875 C 4.738281 0.945312 4.257812 1.019531 3.78125 1.09375 C 2.300781 0.726562 1.414062 0.0976562 1.125 -0.796875 C 1.082031 -0.972656 0.976562 -1.234375 0.8125 -1.578125 C 0.789062 -1.734375 0.78125 -1.898438 0.78125 -2.078125 C 0.78125 -2.398438 0.8125 -2.8125 0.875 -3.3125 C 0.976562 -3.96875 1.035156 -4.378906 1.046875 -4.546875 L 0.921875 -4.6875 C 0.234375 -4.695312 -0.71875 -4.6875 -1.9375 -4.65625 C -3.195312 -4.632812 -4.144531 -4.625 -4.78125 -4.625 C -6.988281 -4.625 -8.875 -4.796875 -10.4375 -5.140625 C -10.664062 -5.347656 -10.78125 -5.515625 -10.78125 -5.640625 C -10.78125 -5.734375 -10.742188 -5.8125 -10.671875 -5.875 C -10.441406 -6.132812 -10.1875 -6.265625 -9.90625 -6.265625 C -9.71875 -6.265625 -9.394531 -6.160156 -8.9375 -5.953125 C -8.53125 -5.742188 -8.195312 -5.664062 -7.9375 -5.71875 C -6.726562 -5.53125 -5.238281 -5.425781 -3.46875 -5.40625 C -1.96875 -5.40625 -0.46875 -5.40625 1.03125 -5.40625 C 1.1875 -5.40625 1.335938 -5.554688 1.484375 -5.859375 C 1.597656 -6.273438 1.820312 -6.882812 2.15625 -7.6875 C 2.46875 -8.46875 2.679688 -9.082031 2.796875 -9.53125 C 2.890625 -9.6875 3.019531 -9.765625 3.1875 -9.765625 C 3.414062 -9.765625 3.609375 -9.644531 3.765625 -9.40625 C 3.609375 -8.457031 3.34375 -7.457031 2.96875 -6.40625 C 2.800781 -6.21875 2.726562 -5.953125 2.75 -5.609375 L 2.828125 -5.546875 C 5.109375 -5.554688 7.382812 -5.5625 9.65625 -5.5625 C 12.3125 -5.550781 14.566406 -5.457031 16.421875 -5.28125 C 17.492188 -5.175781 18.066406 -5.117188 18.140625 -5.109375 C 18.785156 -5.015625 19.316406 -4.820312 19.734375 -4.53125 Z M 19.734375 -4.25 "/></g></g></g><g fill="#ffffff" fill-opacity="1"><g transform="translate(7.884597, 53.204968)"><g><path d="M 4.359375 -13.265625 C 3.648438 -13.015625 2.9375 -11.953125 2.21875 -10.078125 C 1.582031 -8.429688 1.207031 -6.984375 1.09375 -5.734375 C 1.070312 -5.578125 1.0625 -5.414062 1.0625 -5.25 C 1.0625 -4.300781 1.257812 -3.1875 1.65625 -1.90625 C 1.988281 -0.789062 2.28125 -0.078125 2.53125 0.234375 C 2.601562 0.335938 2.640625 0.429688 2.640625 0.515625 C 2.640625 0.796875 2.441406 0.9375 2.046875 0.9375 C 1.867188 0.9375 1.707031 0.890625 1.5625 0.796875 C 0.8125 0.359375 0.269531 -1.703125 -0.0625 -5.390625 C -0.0820312 -5.671875 -0.09375 -5.953125 -0.09375 -6.234375 C -0.09375 -8.117188 0.441406 -9.972656 1.515625 -11.796875 C 2.234375 -13.035156 2.894531 -13.878906 3.5 -14.328125 C 3.75 -14.515625 4.019531 -14.609375 4.3125 -14.609375 C 4.5625 -14.609375 4.769531 -14.546875 4.9375 -14.421875 C 5.101562 -14.304688 5.1875 -14.171875 5.1875 -14.015625 C 5.1875 -13.710938 4.910156 -13.460938 4.359375 -13.265625 Z M 4.359375 -13.265625 "/></g></g></g><g fill="#ffffff" fill-opacity="1"><g transform="translate(14.694755, 53.204968)"><g><path d="M 6.546875 -9.171875 C 7.566406 -8.710938 8.078125 -8.03125 8.078125 -7.125 C 8.078125 -6.113281 7.453125 -4.878906 6.203125 -3.421875 C 5.460938 -2.535156 4.609375 -1.695312 3.640625 -0.90625 C 4.265625 -0.9375 4.769531 -0.925781 5.15625 -0.875 C 5.425781 -0.832031 5.640625 -0.734375 5.796875 -0.578125 C 5.953125 -0.421875 6.03125 -0.257812 6.03125 -0.09375 C 6.03125 0.132812 5.894531 0.25 5.625 0.25 C 5.570312 0.25 5.519531 0.242188 5.46875 0.234375 C 5.050781 0.140625 4.679688 0.09375 4.359375 0.09375 C 4.015625 0.09375 3.644531 0.15625 3.25 0.28125 C 2.78125 0.425781 2.425781 0.5 2.1875 0.5 C 1.957031 0.5 1.695312 0.453125 1.40625 0.359375 C 1.195312 0.304688 1.171875 0.148438 1.328125 -0.109375 C 1.515625 -0.429688 1.972656 -0.957031 2.703125 -1.6875 C 3.210938 -2.1875 3.722656 -2.6875 4.234375 -3.1875 C 5.691406 -4.738281 6.421875 -5.898438 6.421875 -6.671875 C 6.421875 -7.078125 6.242188 -7.390625 5.890625 -7.609375 C 5.648438 -7.773438 5.234375 -7.859375 4.640625 -7.859375 C 3.878906 -7.859375 3.140625 -7.703125 2.421875 -7.390625 C 1.515625 -7.003906 0.765625 -6.410156 0.171875 -5.609375 C 0.015625 -5.398438 -0.128906 -5.296875 -0.265625 -5.296875 C -0.367188 -5.296875 -0.445312 -5.367188 -0.5 -5.515625 C -0.601562 -5.773438 -0.582031 -6.050781 -0.4375 -6.34375 C 0.0390625 -7.363281 0.90625 -8.15625 2.15625 -8.71875 C 3.144531 -9.15625 4.1875 -9.375 5.28125 -9.375 C 5.832031 -9.375 6.253906 -9.304688 6.546875 -9.171875 Z M 6.546875 -9.171875 "/></g></g></g><g fill="#ffffff" fill-opacity="1"><g transform="translate(23.403105, 53.204968)"><g><path d="M 8.5625 -3.046875 C 8.539062 -2.191406 8.179688 -1.457031 7.484375 -0.84375 C 6.679688 -0.15625 5.613281 0.1875 4.28125 0.1875 C 3.65625 0.1875 2.992188 0.109375 2.296875 -0.046875 C 0.921875 -0.359375 0.234375 -1.097656 0.234375 -2.265625 C 0.234375 -3.234375 0.660156 -4.210938 1.515625 -5.203125 C 2.367188 -6.203125 3.273438 -6.757812 4.234375 -6.875 C 4.429688 -6.894531 4.628906 -6.90625 4.828125 -6.90625 C 5.984375 -6.90625 6.921875 -6.472656 7.640625 -5.609375 C 8.273438 -4.847656 8.582031 -3.992188 8.5625 -3.046875 Z M 7.234375 -2.84375 C 7.328125 -3 7.375 -3.175781 7.375 -3.375 C 7.375 -3.800781 7.195312 -4.222656 6.84375 -4.640625 C 6.488281 -5.066406 6.128906 -5.28125 5.765625 -5.28125 C 5.710938 -5.28125 5.648438 -5.269531 5.578125 -5.25 C 5.515625 -5.238281 5.46875 -5.234375 5.4375 -5.234375 C 5.3125 -5.234375 5.140625 -5.347656 4.921875 -5.578125 C 4.710938 -5.804688 4.535156 -5.90625 4.390625 -5.875 C 3.535156 -5.664062 2.882812 -5.253906 2.4375 -4.640625 C 2.03125 -4.117188 1.828125 -3.535156 1.828125 -2.890625 C 1.828125 -2.441406 1.925781 -2.039062 2.125 -1.6875 C 2.332031 -1.34375 2.609375 -1.117188 2.953125 -1.015625 C 3.210938 -0.921875 3.492188 -0.875 3.796875 -0.875 C 4.460938 -0.875 5.128906 -1.082031 5.796875 -1.5 C 6.398438 -1.863281 6.878906 -2.3125 7.234375 -2.84375 Z M 7.234375 -2.84375 "/></g></g></g><g fill="#ffffff" fill-opacity="1"><g transform="translate(32.577675, 53.204968)"><g><path d="M 8.5625 -3.046875 C 8.539062 -2.191406 8.179688 -1.457031 7.484375 -0.84375 C 6.679688 -0.15625 5.613281 0.1875 4.28125 0.1875 C 3.65625 0.1875 2.992188 0.109375 2.296875 -0.046875 C 0.921875 -0.359375 0.234375 -1.097656 0.234375 -2.265625 C 0.234375 -3.234375 0.660156 -4.210938 1.515625 -5.203125 C 2.367188 -6.203125 3.273438 -6.757812 4.234375 -6.875 C 4.429688 -6.894531 4.628906 -6.90625 4.828125 -6.90625 C 5.984375 -6.90625 6.921875 -6.472656 7.640625 -5.609375 C 8.273438 -4.847656 8.582031 -3.992188 8.5625 -3.046875 Z M 7.234375 -2.84375 C 7.328125 -3 7.375 -3.175781 7.375 -3.375 C 7.375 -3.800781 7.195312 -4.222656 6.84375 -4.640625 C 6.488281 -5.066406 6.128906 -5.28125 5.765625 -5.28125 C 5.710938 -5.28125 5.648438 -5.269531 5.578125 -5.25 C 5.515625 -5.238281 5.46875 -5.234375 5.4375 -5.234375 C 5.3125 -5.234375 5.140625 -5.347656 4.921875 -5.578125 C 4.710938 -5.804688 4.535156 -5.90625 4.390625 -5.875 C 3.535156 -5.664062 2.882812 -5.253906 2.4375 -4.640625 C 2.03125 -4.117188 1.828125 -3.535156 1.828125 -2.890625 C 1.828125 -2.441406 1.925781 -2.039062 2.125 -1.6875 C 2.332031 -1.34375 2.609375 -1.117188 2.953125 -1.015625 C 3.210938 -0.921875 3.492188 -0.875 3.796875 -0.875 C 4.460938 -0.875 5.128906 -1.082031 5.796875 -1.5 C 6.398438 -1.863281 6.878906 -2.3125 7.234375 -2.84375 Z M 7.234375 -2.84375 "/></g></g></g><g fill="#ffffff" fill-opacity="1"><g transform="translate(41.752245, 53.204968)"><g><path d="M 9.78125 -5.453125 C 10.1875 -4.867188 10.390625 -4.226562 10.390625 -3.53125 C 10.390625 -2.363281 9.890625 -1.332031 8.890625 -0.4375 C 7.835938 0.519531 6.546875 1 5.015625 1 C 4.742188 1 4.484375 0.984375 4.234375 0.953125 C 3.640625 0.878906 2.953125 0.425781 2.171875 -0.40625 C 1.265625 -1.34375 0.804688 -2.28125 0.796875 -3.21875 C 0.753906 -7.6875 2.289062 -10.9375 5.40625 -12.96875 C 6.144531 -13.4375 6.691406 -13.671875 7.046875 -13.671875 C 7.148438 -13.671875 7.210938 -13.648438 7.234375 -13.609375 C 7.335938 -13.335938 6.828125 -12.828125 5.703125 -12.078125 C 4.984375 -11.597656 4.234375 -10.617188 3.453125 -9.140625 C 2.492188 -7.359375 2 -5.625 1.96875 -3.9375 C 1.945312 -3.03125 2.164062 -2.238281 2.625 -1.5625 C 3.09375 -0.882812 3.644531 -0.53125 4.28125 -0.5 C 4.5625 -0.476562 4.828125 -0.46875 5.078125 -0.46875 C 7.742188 -0.46875 9.078125 -1.273438 9.078125 -2.890625 C 9.078125 -3.390625 8.925781 -3.929688 8.625 -4.515625 C 8.332031 -5.109375 7.722656 -5.40625 6.796875 -5.40625 C 6.148438 -5.40625 5.410156 -5.273438 4.578125 -5.015625 C 3.929688 -4.804688 3.4375 -4.59375 3.09375 -4.375 C 2.925781 -4.28125 2.769531 -4.234375 2.625 -4.234375 C 2.375 -4.234375 2.25 -4.359375 2.25 -4.609375 C 2.25 -4.867188 2.421875 -5.15625 2.765625 -5.46875 C 3.066406 -5.726562 3.597656 -5.984375 4.359375 -6.234375 C 5.253906 -6.503906 6.097656 -6.640625 6.890625 -6.640625 C 8.234375 -6.640625 9.195312 -6.242188 9.78125 -5.453125 Z M 9.78125 -5.453125 "/></g></g></g><g fill="#ffffff" fill-opacity="1"><g transform="translate(52.991501, 53.204968)"><g><path d="M 6.40625 -10.1875 C 6.519531 -9.613281 6.578125 -8.921875 6.578125 -8.109375 C 6.578125 -6.640625 6.410156 -4.960938 6.078125 -3.078125 C 5.773438 -1.378906 5.4375 -0.00390625 5.0625 1.046875 C 4.789062 1.796875 4.519531 2.171875 4.25 2.171875 C 4.082031 2.171875 3.941406 2.046875 3.828125 1.796875 C 3.722656 1.585938 3.671875 1.359375 3.671875 1.109375 C 3.671875 0.984375 3.691406 0.878906 3.734375 0.796875 C 3.941406 0.410156 4.203125 -0.441406 4.515625 -1.765625 C 4.910156 -3.460938 5.175781 -5.179688 5.3125 -6.921875 C 5.320312 -7.148438 5.328125 -7.375 5.328125 -7.59375 C 5.328125 -8.664062 5.132812 -9.695312 4.75 -10.6875 C 4.457031 -11.4375 4.050781 -12.175781 3.53125 -12.90625 C 3.164062 -13.375 2.800781 -13.847656 2.4375 -14.328125 C 2.28125 -14.523438 2.203125 -14.71875 2.203125 -14.90625 C 2.203125 -15.125 2.300781 -15.300781 2.5 -15.4375 C 2.695312 -15.582031 2.929688 -15.65625 3.203125 -15.65625 C 3.460938 -15.65625 3.679688 -15.578125 3.859375 -15.421875 C 4.328125 -15.035156 4.769531 -14.46875 5.1875 -13.71875 C 5.75 -12.707031 6.15625 -11.53125 6.40625 -10.1875 Z M 6.40625 -10.1875 "/></g></g></g></svg>