<svg xmlns="http://www.w3.org/2000/svg" xmlns:xlink="http://www.w3.org/1999/xlink" width="100" zoomAndPan="magnify" viewBox="0 0 75 74.999997" height="100" preserveAspectRatio="xMidYMid meet" version="1.0"><defs><g/></defs><g fill="#ffffff" fill-opacity="1"><g transform="translate(15.645026, 27.687591)"><g><path d="M 1.625 0.234375 C 1.175781 0.234375 0.800781 0.0703125 0.5 -0.25 C 0.207031 -0.570312 0.0625 -0.984375 0.0625 -1.484375 C 0.0625 -1.859375 0.160156 -2.28125 0.359375 -2.75 C 0.566406 -3.226562 0.859375 -3.671875 1.234375 -4.078125 C 1.648438 -4.515625 2.050781 -4.84375 2.4375 -5.0625 C 2.832031 -5.289062 3.253906 -5.40625 3.703125 -5.40625 C 4.066406 -5.40625 4.359375 -5.300781 4.578125 -5.09375 C 4.796875 -4.882812 4.90625 -4.625 4.90625 -4.3125 C 4.90625 -3.8125 4.703125 -3.425781 4.296875 -3.15625 C 3.890625 -2.882812 3.296875 -2.664062 2.515625 -2.5 C 2.234375 -2.4375 2.015625 -2.394531 1.859375 -2.375 C 1.703125 -2.363281 1.609375 -2.34375 1.578125 -2.3125 C 1.554688 -2.289062 1.53125 -2.21875 1.5 -2.09375 C 1.46875 -1.976562 1.453125 -1.816406 1.453125 -1.609375 C 1.453125 -0.972656 1.769531 -0.65625 2.40625 -0.65625 C 2.582031 -0.65625 2.753906 -0.695312 2.921875 -0.78125 C 3.085938 -0.863281 3.269531 -0.972656 3.46875 -1.109375 C 3.613281 -1.191406 3.726562 -1.265625 3.8125 -1.328125 C 3.894531 -1.398438 3.957031 -1.4375 4 -1.4375 C 4.082031 -1.4375 4.125 -1.378906 4.125 -1.265625 C 4.125 -1.128906 3.960938 -0.910156 3.640625 -0.609375 C 3.347656 -0.335938 3.015625 -0.128906 2.640625 0.015625 C 2.273438 0.160156 1.9375 0.234375 1.625 0.234375 Z M 1.640625 -2.734375 C 2.148438 -2.816406 2.59375 -2.957031 2.96875 -3.15625 C 3.34375 -3.351562 3.625 -3.582031 3.8125 -3.84375 C 4.007812 -4.113281 4.109375 -4.382812 4.109375 -4.65625 C 4.109375 -4.789062 4.066406 -4.898438 3.984375 -4.984375 C 3.898438 -5.066406 3.785156 -5.109375 3.640625 -5.109375 C 3.359375 -5.109375 3.035156 -4.910156 2.671875 -4.515625 C 2.316406 -4.117188 1.972656 -3.523438 1.640625 -2.734375 Z M 1.640625 -2.734375 "/></g></g></g><g fill="#ffffff" fill-opacity="1"><g transform="translate(20.520535, 27.687591)"><g><path d="M 0.796875 -1.171875 L 1.90625 -4.03125 C 1.9375 -4.101562 1.953125 -4.160156 1.953125 -4.203125 C 1.953125 -4.265625 1.929688 -4.316406 1.890625 -4.359375 C 1.847656 -4.398438 1.800781 -4.421875 1.75 -4.421875 C 1.6875 -4.421875 1.582031 -4.359375 1.4375 -4.234375 C 1.289062 -4.109375 1.09375 -3.929688 0.84375 -3.703125 C 0.601562 -3.484375 0.425781 -3.3125 0.3125 -3.1875 C 0.195312 -3.070312 0.113281 -3.015625 0.0625 -3.015625 C -0.0390625 -3.015625 -0.09375 -3.054688 -0.09375 -3.140625 C -0.09375 -3.210938 -0.03125 -3.316406 0.09375 -3.453125 C 0.21875 -3.585938 0.398438 -3.769531 0.640625 -4 C 1.597656 -4.945312 2.328125 -5.421875 2.828125 -5.421875 C 3.035156 -5.421875 3.195312 -5.375 3.3125 -5.28125 C 3.425781 -5.1875 3.484375 -5.070312 3.484375 -4.9375 C 3.484375 -4.75 3.425781 -4.515625 3.3125 -4.234375 C 3.207031 -3.960938 3.078125 -3.628906 2.921875 -3.234375 C 2.691406 -2.671875 2.507812 -2.21875 2.375 -1.875 C 2.25 -1.53125 2.1875 -1.296875 2.1875 -1.171875 C 2.1875 -0.878906 2.328125 -0.734375 2.609375 -0.734375 C 2.734375 -0.734375 2.875 -0.789062 3.03125 -0.90625 C 3.1875 -1.019531 3.375 -1.191406 3.59375 -1.421875 C 4.070312 -1.921875 4.425781 -2.378906 4.65625 -2.796875 C 4.894531 -3.222656 5.015625 -3.585938 5.015625 -3.890625 C 5.015625 -4.097656 4.972656 -4.269531 4.890625 -4.40625 C 4.804688 -4.550781 4.765625 -4.695312 4.765625 -4.84375 C 4.765625 -5.019531 4.816406 -5.164062 4.921875 -5.28125 C 5.023438 -5.40625 5.15625 -5.46875 5.3125 -5.46875 C 5.488281 -5.46875 5.625 -5.410156 5.71875 -5.296875 C 5.820312 -5.179688 5.875 -5.03125 5.875 -4.84375 C 5.875 -4.695312 5.816406 -4.453125 5.703125 -4.109375 C 5.585938 -3.773438 5.414062 -3.394531 5.1875 -2.96875 C 4.957031 -2.539062 4.660156 -2.101562 4.296875 -1.65625 C 3.765625 -1.019531 3.253906 -0.546875 2.765625 -0.234375 C 2.285156 0.0664062 1.929688 0.21875 1.703125 0.21875 C 1.472656 0.21875 1.253906 0.117188 1.046875 -0.078125 C 0.835938 -0.273438 0.734375 -0.507812 0.734375 -0.78125 C 0.734375 -0.851562 0.738281 -0.921875 0.75 -0.984375 C 0.757812 -1.046875 0.773438 -1.109375 0.796875 -1.171875 Z M 0.796875 -1.171875 "/></g></g></g><g fill="#ffffff" fill-opacity="1"><g transform="translate(26.145083, 27.687591)"><g><path d="M 1.625 0.234375 C 1.175781 0.234375 0.800781 0.0703125 0.5 -0.25 C 0.207031 -0.570312 0.0625 -0.984375 0.0625 -1.484375 C 0.0625 -1.859375 0.160156 -2.28125 0.359375 -2.75 C 0.566406 -3.226562 0.859375 -3.671875 1.234375 -4.078125 C 1.648438 -4.515625 2.050781 -4.84375 2.4375 -5.0625 C 2.832031 -5.289062 3.253906 -5.40625 3.703125 -5.40625 C 4.066406 -5.40625 4.359375 -5.300781 4.578125 -5.09375 C 4.796875 -4.882812 4.90625 -4.625 4.90625 -4.3125 C 4.90625 -3.8125 4.703125 -3.425781 4.296875 -3.15625 C 3.890625 -2.882812 3.296875 -2.664062 2.515625 -2.5 C 2.234375 -2.4375 2.015625 -2.394531 1.859375 -2.375 C 1.703125 -2.363281 1.609375 -2.34375 1.578125 -2.3125 C 1.554688 -2.289062 1.53125 -2.21875 1.5 -2.09375 C 1.46875 -1.976562 1.453125 -1.816406 1.453125 -1.609375 C 1.453125 -0.972656 1.769531 -0.65625 2.40625 -0.65625 C 2.582031 -0.65625 2.753906 -0.695312 2.921875 -0.78125 C 3.085938 -0.863281 3.269531 -0.972656 3.46875 -1.109375 C 3.613281 -1.191406 3.726562 -1.265625 3.8125 -1.328125 C 3.894531 -1.398438 3.957031 -1.4375 4 -1.4375 C 4.082031 -1.4375 4.125 -1.378906 4.125 -1.265625 C 4.125 -1.128906 3.960938 -0.910156 3.640625 -0.609375 C 3.347656 -0.335938 3.015625 -0.128906 2.640625 0.015625 C 2.273438 0.160156 1.9375 0.234375 1.625 0.234375 Z M 1.640625 -2.734375 C 2.148438 -2.816406 2.59375 -2.957031 2.96875 -3.15625 C 3.34375 -3.351562 3.625 -3.582031 3.8125 -3.84375 C 4.007812 -4.113281 4.109375 -4.382812 4.109375 -4.65625 C 4.109375 -4.789062 4.066406 -4.898438 3.984375 -4.984375 C 3.898438 -5.066406 3.785156 -5.109375 3.640625 -5.109375 C 3.359375 -5.109375 3.035156 -4.910156 2.671875 -4.515625 C 2.316406 -4.117188 1.972656 -3.523438 1.640625 -2.734375 Z M 1.640625 -2.734375 "/></g></g></g><g fill="#ffffff" fill-opacity="1"><g transform="translate(31.020591, 27.687591)"><g><path d="M 0.515625 -0.578125 L 1.546875 -3.890625 C 1.554688 -3.921875 1.566406 -3.96875 1.578125 -4.03125 C 1.585938 -4.09375 1.59375 -4.164062 1.59375 -4.25 C 1.59375 -4.363281 1.539062 -4.421875 1.4375 -4.421875 C 1.34375 -4.421875 1.242188 -4.363281 1.140625 -4.25 C 1.035156 -4.132812 0.90625 -3.976562 0.75 -3.78125 C 0.550781 -3.53125 0.421875 -3.34375 0.359375 -3.21875 C 0.304688 -3.09375 0.234375 -3.03125 0.140625 -3.03125 C 0.078125 -3.03125 0.046875 -3.078125 0.046875 -3.171875 C 0.046875 -3.242188 0.101562 -3.398438 0.21875 -3.640625 C 0.332031 -3.890625 0.523438 -4.164062 0.796875 -4.46875 C 1.359375 -5.101562 1.832031 -5.421875 2.21875 -5.421875 C 2.550781 -5.421875 2.71875 -5.21875 2.71875 -4.8125 C 2.71875 -4.59375 2.671875 -4.285156 2.578125 -3.890625 C 2.492188 -3.492188 2.359375 -3.015625 2.171875 -2.453125 L 2.265625 -2.421875 C 2.742188 -3.410156 3.140625 -4.15625 3.453125 -4.65625 C 3.773438 -5.164062 4.132812 -5.421875 4.53125 -5.421875 C 4.757812 -5.421875 4.945312 -5.34375 5.09375 -5.1875 C 5.238281 -5.03125 5.3125 -4.8125 5.3125 -4.53125 C 5.3125 -4.3125 5.253906 -4.128906 5.140625 -3.984375 C 5.035156 -3.847656 4.894531 -3.78125 4.71875 -3.78125 C 4.59375 -3.78125 4.488281 -3.800781 4.40625 -3.84375 C 4.332031 -3.894531 4.289062 -3.941406 4.28125 -3.984375 C 4.238281 -4.171875 4.210938 -4.304688 4.203125 -4.390625 C 4.191406 -4.484375 4.140625 -4.53125 4.046875 -4.53125 C 3.773438 -4.53125 3.191406 -3.617188 2.296875 -1.796875 C 1.992188 -1.160156 1.757812 -0.675781 1.59375 -0.34375 C 1.4375 -0.0078125 1.242188 0.15625 1.015625 0.15625 C 0.804688 0.15625 0.65625 0.132812 0.5625 0.09375 C 0.46875 0.0625 0.421875 -0.0078125 0.421875 -0.125 C 0.421875 -0.132812 0.425781 -0.175781 0.4375 -0.25 C 0.457031 -0.332031 0.484375 -0.441406 0.515625 -0.578125 Z M 0.515625 -0.578125 "/></g></g></g><g fill="#ffffff" fill-opacity="1"><g transform="translate(35.909713, 27.687591)"><g><path d="M 0.390625 -0.609375 L 1.75 -3.984375 C 1.789062 -4.085938 1.828125 -4.171875 1.859375 -4.234375 C 1.890625 -4.304688 1.90625 -4.367188 1.90625 -4.421875 C 1.90625 -4.535156 1.863281 -4.59375 1.78125 -4.59375 C 1.644531 -4.59375 1.515625 -4.535156 1.390625 -4.421875 C 1.273438 -4.304688 1.125 -4.160156 0.9375 -3.984375 C 0.75 -3.773438 0.601562 -3.597656 0.5 -3.453125 C 0.40625 -3.316406 0.316406 -3.25 0.234375 -3.25 C 0.140625 -3.25 0.09375 -3.285156 0.09375 -3.359375 C 0.09375 -3.398438 0.132812 -3.488281 0.21875 -3.625 C 0.300781 -3.757812 0.425781 -3.925781 0.59375 -4.125 C 0.96875 -4.5625 1.316406 -4.894531 1.640625 -5.125 C 1.960938 -5.351562 2.296875 -5.46875 2.640625 -5.46875 C 2.796875 -5.46875 2.921875 -5.414062 3.015625 -5.3125 C 3.117188 -5.21875 3.171875 -5.109375 3.171875 -4.984375 C 3.171875 -4.796875 3.09375 -4.515625 2.9375 -4.140625 C 2.789062 -3.773438 2.59375 -3.304688 2.34375 -2.734375 L 2.4375 -2.71875 C 2.9375 -3.632812 3.414062 -4.316406 3.875 -4.765625 C 4.332031 -5.210938 4.800781 -5.4375 5.28125 -5.4375 C 5.800781 -5.4375 6.0625 -5.1875 6.0625 -4.6875 C 6.0625 -4.457031 5.992188 -4.179688 5.859375 -3.859375 C 5.734375 -3.535156 5.5625 -3.148438 5.34375 -2.703125 L 5.46875 -2.6875 C 6.03125 -3.59375 6.539062 -4.28125 7 -4.75 C 7.457031 -5.21875 7.976562 -5.453125 8.5625 -5.453125 C 8.820312 -5.453125 9.039062 -5.375 9.21875 -5.21875 C 9.394531 -5.0625 9.484375 -4.878906 9.484375 -4.671875 C 9.484375 -4.453125 9.398438 -4.15625 9.234375 -3.78125 C 9.078125 -3.414062 8.851562 -2.960938 8.5625 -2.421875 C 8.300781 -1.960938 8.097656 -1.601562 7.953125 -1.34375 C 7.816406 -1.082031 7.75 -0.921875 7.75 -0.859375 C 7.75 -0.765625 7.785156 -0.71875 7.859375 -0.71875 C 7.960938 -0.71875 8.082031 -0.769531 8.21875 -0.875 C 8.351562 -0.988281 8.53125 -1.140625 8.75 -1.328125 C 8.914062 -1.460938 9.039062 -1.570312 9.125 -1.65625 C 9.207031 -1.75 9.285156 -1.796875 9.359375 -1.796875 C 9.453125 -1.796875 9.5 -1.742188 9.5 -1.640625 C 9.5 -1.578125 9.425781 -1.460938 9.28125 -1.296875 C 9.144531 -1.128906 8.929688 -0.9375 8.640625 -0.71875 C 8.234375 -0.414062 7.851562 -0.191406 7.5 -0.046875 C 7.15625 0.0859375 6.90625 0.15625 6.75 0.15625 C 6.601562 0.15625 6.484375 0.117188 6.390625 0.046875 C 6.296875 -0.015625 6.25 -0.0859375 6.25 -0.171875 C 6.25 -0.285156 6.269531 -0.390625 6.3125 -0.484375 C 6.351562 -0.585938 6.398438 -0.695312 6.453125 -0.8125 L 8.140625 -4.171875 C 8.179688 -4.265625 8.207031 -4.347656 8.21875 -4.421875 C 8.238281 -4.492188 8.25 -4.554688 8.25 -4.609375 C 8.25 -4.679688 8.21875 -4.742188 8.15625 -4.796875 C 8.101562 -4.847656 8.03125 -4.875 7.9375 -4.875 C 7.632812 -4.875 7.269531 -4.617188 6.84375 -4.109375 C 6.414062 -3.597656 5.90625 -2.84375 5.3125 -1.84375 C 4.988281 -1.289062 4.75 -0.867188 4.59375 -0.578125 C 4.4375 -0.285156 4.34375 -0.113281 4.3125 -0.0625 C 4.25 0.0195312 4.179688 0.078125 4.109375 0.109375 C 4.046875 0.140625 3.953125 0.15625 3.828125 0.15625 C 3.609375 0.15625 3.445312 0.140625 3.34375 0.109375 C 3.25 0.0859375 3.203125 0.0234375 3.203125 -0.078125 C 3.203125 -0.128906 3.226562 -0.210938 3.28125 -0.328125 L 4.84375 -4.078125 C 4.875 -4.140625 4.894531 -4.210938 4.90625 -4.296875 C 4.925781 -4.378906 4.9375 -4.453125 4.9375 -4.515625 C 4.9375 -4.710938 4.820312 -4.8125 4.59375 -4.8125 C 4.34375 -4.8125 4.03125 -4.554688 3.65625 -4.046875 C 3.289062 -3.535156 2.816406 -2.78125 2.234375 -1.78125 C 1.984375 -1.351562 1.785156 -0.992188 1.640625 -0.703125 C 1.503906 -0.421875 1.382812 -0.207031 1.28125 -0.0625 C 1.1875 0.0820312 1.066406 0.15625 0.921875 0.15625 C 0.910156 0.15625 0.867188 0.148438 0.796875 0.140625 C 0.734375 0.140625 0.648438 0.140625 0.546875 0.140625 C 0.328125 0.140625 0.21875 0.0546875 0.21875 -0.109375 C 0.21875 -0.179688 0.238281 -0.257812 0.28125 -0.34375 C 0.320312 -0.425781 0.359375 -0.515625 0.390625 -0.609375 Z M 0.390625 -0.609375 "/></g></g></g><g fill="#ffffff" fill-opacity="1"><g transform="translate(45.715324, 27.687591)"><g><path d="M 0.15625 -1.734375 C 0.15625 -2.523438 0.390625 -3.285156 0.859375 -4.015625 C 1.046875 -4.304688 1.273438 -4.5625 1.546875 -4.78125 C 1.816406 -5 2.09375 -5.164062 2.375 -5.28125 C 2.664062 -5.40625 2.929688 -5.46875 3.171875 -5.46875 C 3.671875 -5.46875 4.070312 -5.273438 4.375 -4.890625 C 4.6875 -4.515625 4.84375 -4.003906 4.84375 -3.359375 C 4.84375 -2.285156 4.488281 -1.394531 3.78125 -0.6875 C 3.488281 -0.40625 3.15625 -0.175781 2.78125 0 C 2.40625 0.164062 2.078125 0.25 1.796875 0.25 C 1.316406 0.25 0.921875 0.0703125 0.609375 -0.28125 C 0.304688 -0.632812 0.15625 -1.117188 0.15625 -1.734375 Z M 1.03125 -0.6875 C 1.03125 -0.519531 1.082031 -0.378906 1.1875 -0.265625 C 1.289062 -0.160156 1.414062 -0.109375 1.5625 -0.109375 C 1.832031 -0.109375 2.082031 -0.253906 2.3125 -0.546875 C 2.539062 -0.847656 2.796875 -1.285156 3.078125 -1.859375 C 3.671875 -3.128906 3.96875 -3.992188 3.96875 -4.453125 C 3.96875 -4.660156 3.910156 -4.820312 3.796875 -4.9375 C 3.691406 -5.050781 3.546875 -5.109375 3.359375 -5.109375 C 3.140625 -5.109375 2.941406 -4.992188 2.765625 -4.765625 C 2.597656 -4.546875 2.40625 -4.234375 2.1875 -3.828125 C 1.769531 -3.046875 1.472656 -2.382812 1.296875 -1.84375 C 1.117188 -1.300781 1.03125 -0.914062 1.03125 -0.6875 Z M 1.03125 -0.6875 "/></g></g></g><g fill="#ffffff" fill-opacity="1"><g transform="translate(50.795118, 27.687591)"><g><path d="M 0.515625 -0.578125 L 1.546875 -3.890625 C 1.554688 -3.921875 1.566406 -3.96875 1.578125 -4.03125 C 1.585938 -4.09375 1.59375 -4.164062 1.59375 -4.25 C 1.59375 -4.363281 1.539062 -4.421875 1.4375 -4.421875 C 1.34375 -4.421875 1.242188 -4.363281 1.140625 -4.25 C 1.035156 -4.132812 0.90625 -3.976562 0.75 -3.78125 C 0.550781 -3.53125 0.421875 -3.34375 0.359375 -3.21875 C 0.304688 -3.09375 0.234375 -3.03125 0.140625 -3.03125 C 0.078125 -3.03125 0.046875 -3.078125 0.046875 -3.171875 C 0.046875 -3.242188 0.101562 -3.398438 0.21875 -3.640625 C 0.332031 -3.890625 0.523438 -4.164062 0.796875 -4.46875 C 1.359375 -5.101562 1.832031 -5.421875 2.21875 -5.421875 C 2.550781 -5.421875 2.71875 -5.21875 2.71875 -4.8125 C 2.71875 -4.59375 2.671875 -4.285156 2.578125 -3.890625 C 2.492188 -3.492188 2.359375 -3.015625 2.171875 -2.453125 L 2.265625 -2.421875 C 2.742188 -3.410156 3.140625 -4.15625 3.453125 -4.65625 C 3.773438 -5.164062 4.132812 -5.421875 4.53125 -5.421875 C 4.757812 -5.421875 4.945312 -5.34375 5.09375 -5.1875 C 5.238281 -5.03125 5.3125 -4.8125 5.3125 -4.53125 C 5.3125 -4.3125 5.253906 -4.128906 5.140625 -3.984375 C 5.035156 -3.847656 4.894531 -3.78125 4.71875 -3.78125 C 4.59375 -3.78125 4.488281 -3.800781 4.40625 -3.84375 C 4.332031 -3.894531 4.289062 -3.941406 4.28125 -3.984375 C 4.238281 -4.171875 4.210938 -4.304688 4.203125 -4.390625 C 4.191406 -4.484375 4.140625 -4.53125 4.046875 -4.53125 C 3.773438 -4.53125 3.191406 -3.617188 2.296875 -1.796875 C 1.992188 -1.160156 1.757812 -0.675781 1.59375 -0.34375 C 1.4375 -0.0078125 1.242188 0.15625 1.015625 0.15625 C 0.804688 0.15625 0.65625 0.132812 0.5625 0.09375 C 0.46875 0.0625 0.421875 -0.0078125 0.421875 -0.125 C 0.421875 -0.132812 0.425781 -0.175781 0.4375 -0.25 C 0.457031 -0.332031 0.484375 -0.441406 0.515625 -0.578125 Z M 0.515625 -0.578125 "/></g></g></g><g fill="#ffffff" fill-opacity="1"><g transform="translate(55.684239, 27.687591)"><g><path d="M 1.625 0.234375 C 1.175781 0.234375 0.800781 0.0703125 0.5 -0.25 C 0.207031 -0.570312 0.0625 -0.984375 0.0625 -1.484375 C 0.0625 -1.859375 0.160156 -2.28125 0.359375 -2.75 C 0.566406 -3.226562 0.859375 -3.671875 1.234375 -4.078125 C 1.648438 -4.515625 2.050781 -4.84375 2.4375 -5.0625 C 2.832031 -5.289062 3.253906 -5.40625 3.703125 -5.40625 C 4.066406 -5.40625 4.359375 -5.300781 4.578125 -5.09375 C 4.796875 -4.882812 4.90625 -4.625 4.90625 -4.3125 C 4.90625 -3.8125 4.703125 -3.425781 4.296875 -3.15625 C 3.890625 -2.882812 3.296875 -2.664062 2.515625 -2.5 C 2.234375 -2.4375 2.015625 -2.394531 1.859375 -2.375 C 1.703125 -2.363281 1.609375 -2.34375 1.578125 -2.3125 C 1.554688 -2.289062 1.53125 -2.21875 1.5 -2.09375 C 1.46875 -1.976562 1.453125 -1.816406 1.453125 -1.609375 C 1.453125 -0.972656 1.769531 -0.65625 2.40625 -0.65625 C 2.582031 -0.65625 2.753906 -0.695312 2.921875 -0.78125 C 3.085938 -0.863281 3.269531 -0.972656 3.46875 -1.109375 C 3.613281 -1.191406 3.726562 -1.265625 3.8125 -1.328125 C 3.894531 -1.398438 3.957031 -1.4375 4 -1.4375 C 4.082031 -1.4375 4.125 -1.378906 4.125 -1.265625 C 4.125 -1.128906 3.960938 -0.910156 3.640625 -0.609375 C 3.347656 -0.335938 3.015625 -0.128906 2.640625 0.015625 C 2.273438 0.160156 1.9375 0.234375 1.625 0.234375 Z M 1.640625 -2.734375 C 2.148438 -2.816406 2.59375 -2.957031 2.96875 -3.15625 C 3.34375 -3.351562 3.625 -3.582031 3.8125 -3.84375 C 4.007812 -4.113281 4.109375 -4.382812 4.109375 -4.65625 C 4.109375 -4.789062 4.066406 -4.898438 3.984375 -4.984375 C 3.898438 -5.066406 3.785156 -5.109375 3.640625 -5.109375 C 3.359375 -5.109375 3.035156 -4.910156 2.671875 -4.515625 C 2.316406 -4.117188 1.972656 -3.523438 1.640625 -2.734375 Z M 1.640625 -2.734375 "/></g></g></g><g fill="#ffffff" fill-opacity="1"><g transform="translate(19.92396, 46.080621)"><g><path d="M 1.5 -2.59375 C 1.5 -3.332031 1.625 -4.046875 1.875 -4.734375 C 2.132812 -5.421875 2.503906 -6.0625 2.984375 -6.65625 C 3.203125 -6.914062 3.453125 -7.164062 3.734375 -7.40625 C 4.023438 -7.65625 4.332031 -7.90625 4.65625 -8.15625 C 4.789062 -8.269531 4.90625 -8.363281 5 -8.4375 C 5.101562 -8.507812 5.203125 -8.546875 5.296875 -8.546875 C 5.421875 -8.546875 5.484375 -8.503906 5.484375 -8.421875 C 5.484375 -8.367188 5.394531 -8.265625 5.21875 -8.109375 C 5.039062 -7.953125 4.816406 -7.726562 4.546875 -7.4375 C 4.285156 -7.144531 4.015625 -6.757812 3.734375 -6.28125 C 2.929688 -4.914062 2.53125 -3.394531 2.53125 -1.71875 C 2.53125 -1.300781 2.5625 -0.890625 2.625 -0.484375 C 2.695312 -0.078125 2.820312 0.347656 3 0.796875 C 3.09375 1.015625 3.175781 1.179688 3.25 1.296875 C 3.332031 1.410156 3.375 1.492188 3.375 1.546875 C 3.375 1.597656 3.34375 1.644531 3.28125 1.6875 C 3.21875 1.738281 3.175781 1.765625 3.15625 1.765625 C 3.132812 1.765625 3.046875 1.65625 2.890625 1.4375 C 2.734375 1.226562 2.535156 0.914062 2.296875 0.5 C 2.023438 0.0195312 1.820312 -0.472656 1.6875 -0.984375 C 1.5625 -1.503906 1.5 -2.039062 1.5 -2.59375 Z M 1.5 -2.59375 "/></g></g></g><g fill="#ffffff" fill-opacity="1"><g transform="translate(25.30337, 46.080621)"><g><path d="M 4 0.09375 L 0.3125 0.03125 C 0.226562 0.03125 0.15625 0.03125 0.09375 0.03125 C 0.03125 0.0390625 -0.0195312 0.046875 -0.0625 0.046875 C -0.1875 0.046875 -0.25 -0.00390625 -0.25 -0.109375 C -0.25 -0.210938 -0.109375 -0.390625 0.171875 -0.640625 C 0.460938 -0.890625 0.875 -1.257812 1.40625 -1.75 C 2.414062 -2.675781 3.179688 -3.5 3.703125 -4.21875 C 4.222656 -4.9375 4.484375 -5.585938 4.484375 -6.171875 C 4.484375 -6.578125 4.359375 -6.90625 4.109375 -7.15625 C 3.859375 -7.414062 3.539062 -7.546875 3.15625 -7.546875 C 2.769531 -7.546875 2.421875 -7.425781 2.109375 -7.1875 C 1.867188 -7.007812 1.6875 -6.835938 1.5625 -6.671875 C 1.445312 -6.515625 1.347656 -6.4375 1.265625 -6.4375 C 1.160156 -6.4375 1.109375 -6.492188 1.109375 -6.609375 C 1.109375 -6.710938 1.179688 -6.847656 1.328125 -7.015625 C 1.472656 -7.191406 1.679688 -7.40625 1.953125 -7.65625 C 2.378906 -8.0625 2.914062 -8.265625 3.5625 -8.265625 C 4.007812 -8.265625 4.40625 -8.171875 4.75 -7.984375 C 5.09375 -7.804688 5.363281 -7.5625 5.5625 -7.25 C 5.769531 -6.9375 5.875 -6.597656 5.875 -6.234375 C 5.875 -5.804688 5.757812 -5.410156 5.53125 -5.046875 C 5.3125 -4.691406 5.003906 -4.332031 4.609375 -3.96875 C 4.210938 -3.601562 3.753906 -3.191406 3.234375 -2.734375 C 2.566406 -2.171875 2.046875 -1.753906 1.671875 -1.484375 C 1.296875 -1.222656 1.109375 -1.066406 1.109375 -1.015625 C 1.109375 -0.941406 1.238281 -0.90625 1.5 -0.90625 C 2.46875 -0.90625 3.222656 -0.941406 3.765625 -1.015625 C 4.316406 -1.085938 4.648438 -1.125 4.765625 -1.125 C 4.828125 -1.125 4.859375 -1.054688 4.859375 -0.921875 C 4.859375 -0.859375 4.832031 -0.738281 4.78125 -0.5625 C 4.738281 -0.382812 4.664062 -0.207031 4.5625 -0.03125 C 4.519531 0.0507812 4.332031 0.09375 4 0.09375 Z M 4 0.09375 "/></g></g></g><g fill="#ffffff" fill-opacity="1"><g transform="translate(31.70421, 46.080621)"><g><path d="M 1.59375 -1.828125 C 1.59375 -1.242188 1.6875 -0.800781 1.875 -0.5 C 2.070312 -0.195312 2.34375 -0.046875 2.6875 -0.046875 C 2.9375 -0.046875 3.160156 -0.140625 3.359375 -0.328125 C 3.554688 -0.515625 3.757812 -0.796875 3.96875 -1.171875 C 4.332031 -1.816406 4.617188 -2.570312 4.828125 -3.4375 C 5.046875 -4.300781 5.15625 -5.195312 5.15625 -6.125 C 5.15625 -7.332031 4.800781 -7.9375 4.09375 -7.9375 C 3.5625 -7.9375 3.085938 -7.507812 2.671875 -6.65625 C 2.554688 -6.394531 2.421875 -6.046875 2.265625 -5.609375 C 2.109375 -5.171875 1.976562 -4.695312 1.875 -4.1875 C 1.757812 -3.613281 1.679688 -3.125 1.640625 -2.71875 C 1.609375 -2.3125 1.59375 -2.015625 1.59375 -1.828125 Z M 0.40625 -2.96875 C 0.40625 -4.414062 0.8125 -5.691406 1.625 -6.796875 C 2.332031 -7.765625 3.140625 -8.25 4.046875 -8.25 C 4.472656 -8.25 4.859375 -8.117188 5.203125 -7.859375 C 5.554688 -7.597656 5.835938 -7.238281 6.046875 -6.78125 C 6.253906 -6.320312 6.359375 -5.789062 6.359375 -5.1875 C 6.359375 -4.65625 6.269531 -4.085938 6.09375 -3.484375 C 5.925781 -2.878906 5.671875 -2.257812 5.328125 -1.625 C 5.003906 -1.019531 4.609375 -0.554688 4.140625 -0.234375 C 3.679688 0.078125 3.207031 0.234375 2.71875 0.234375 C 2.03125 0.234375 1.472656 -0.0390625 1.046875 -0.59375 C 0.617188 -1.15625 0.40625 -1.945312 0.40625 -2.96875 Z M 0.40625 -2.96875 "/></g></g></g><g fill="#ffffff" fill-opacity="1"><g transform="translate(38.10505, 46.080621)"><g><path d="M 4 0.09375 L 0.3125 0.03125 C 0.226562 0.03125 0.15625 0.03125 0.09375 0.03125 C 0.03125 0.0390625 -0.0195312 0.046875 -0.0625 0.046875 C -0.1875 0.046875 -0.25 -0.00390625 -0.25 -0.109375 C -0.25 -0.210938 -0.109375 -0.390625 0.171875 -0.640625 C 0.460938 -0.890625 0.875 -1.257812 1.40625 -1.75 C 2.414062 -2.675781 3.179688 -3.5 3.703125 -4.21875 C 4.222656 -4.9375 4.484375 -5.585938 4.484375 -6.171875 C 4.484375 -6.578125 4.359375 -6.90625 4.109375 -7.15625 C 3.859375 -7.414062 3.539062 -7.546875 3.15625 -7.546875 C 2.769531 -7.546875 2.421875 -7.425781 2.109375 -7.1875 C 1.867188 -7.007812 1.6875 -6.835938 1.5625 -6.671875 C 1.445312 -6.515625 1.347656 -6.4375 1.265625 -6.4375 C 1.160156 -6.4375 1.109375 -6.492188 1.109375 -6.609375 C 1.109375 -6.710938 1.179688 -6.847656 1.328125 -7.015625 C 1.472656 -7.191406 1.679688 -7.40625 1.953125 -7.65625 C 2.378906 -8.0625 2.914062 -8.265625 3.5625 -8.265625 C 4.007812 -8.265625 4.40625 -8.171875 4.75 -7.984375 C 5.09375 -7.804688 5.363281 -7.5625 5.5625 -7.25 C 5.769531 -6.9375 5.875 -6.597656 5.875 -6.234375 C 5.875 -5.804688 5.757812 -5.410156 5.53125 -5.046875 C 5.3125 -4.691406 5.003906 -4.332031 4.609375 -3.96875 C 4.210938 -3.601562 3.753906 -3.191406 3.234375 -2.734375 C 2.566406 -2.171875 2.046875 -1.753906 1.671875 -1.484375 C 1.296875 -1.222656 1.109375 -1.066406 1.109375 -1.015625 C 1.109375 -0.941406 1.238281 -0.90625 1.5 -0.90625 C 2.46875 -0.90625 3.222656 -0.941406 3.765625 -1.015625 C 4.316406 -1.085938 4.648438 -1.125 4.765625 -1.125 C 4.828125 -1.125 4.859375 -1.054688 4.859375 -0.921875 C 4.859375 -0.859375 4.832031 -0.738281 4.78125 -0.5625 C 4.738281 -0.382812 4.664062 -0.207031 4.5625 -0.03125 C 4.519531 0.0507812 4.332031 0.09375 4 0.09375 Z M 4 0.09375 "/></g></g></g><g fill="#ffffff" fill-opacity="1"><g transform="translate(44.50589, 46.080621)"><g><path d="M 1.59375 -1.828125 C 1.59375 -1.242188 1.6875 -0.800781 1.875 -0.5 C 2.070312 -0.195312 2.34375 -0.046875 2.6875 -0.046875 C 2.9375 -0.046875 3.160156 -0.140625 3.359375 -0.328125 C 3.554688 -0.515625 3.757812 -0.796875 3.96875 -1.171875 C 4.332031 -1.816406 4.617188 -2.570312 4.828125 -3.4375 C 5.046875 -4.300781 5.15625 -5.195312 5.15625 -6.125 C 5.15625 -7.332031 4.800781 -7.9375 4.09375 -7.9375 C 3.5625 -7.9375 3.085938 -7.507812 2.671875 -6.65625 C 2.554688 -6.394531 2.421875 -6.046875 2.265625 -5.609375 C 2.109375 -5.171875 1.976562 -4.695312 1.875 -4.1875 C 1.757812 -3.613281 1.679688 -3.125 1.640625 -2.71875 C 1.609375 -2.3125 1.59375 -2.015625 1.59375 -1.828125 Z M 0.40625 -2.96875 C 0.40625 -4.414062 0.8125 -5.691406 1.625 -6.796875 C 2.332031 -7.765625 3.140625 -8.25 4.046875 -8.25 C 4.472656 -8.25 4.859375 -8.117188 5.203125 -7.859375 C 5.554688 -7.597656 5.835938 -7.238281 6.046875 -6.78125 C 6.253906 -6.320312 6.359375 -5.789062 6.359375 -5.1875 C 6.359375 -4.65625 6.269531 -4.085938 6.09375 -3.484375 C 5.925781 -2.878906 5.671875 -2.257812 5.328125 -1.625 C 5.003906 -1.019531 4.609375 -0.554688 4.140625 -0.234375 C 3.679688 0.078125 3.207031 0.234375 2.71875 0.234375 C 2.03125 0.234375 1.472656 -0.0390625 1.046875 -0.59375 C 0.617188 -1.15625 0.40625 -1.945312 0.40625 -2.96875 Z M 0.40625 -2.96875 "/></g></g></g><g fill="#ffffff" fill-opacity="1"><g transform="translate(50.906731, 46.080621)"><g><path d="M 3.953125 -4.203125 C 3.953125 -2.703125 3.457031 -1.34375 2.46875 -0.125 C 2.25 0.132812 1.992188 0.382812 1.703125 0.625 C 1.421875 0.875 1.117188 1.128906 0.796875 1.390625 C 0.648438 1.492188 0.523438 1.582031 0.421875 1.65625 C 0.328125 1.726562 0.238281 1.765625 0.15625 1.765625 C 0.0195312 1.765625 -0.046875 1.726562 -0.046875 1.65625 C -0.046875 1.582031 0.0390625 1.472656 0.21875 1.328125 C 0.394531 1.179688 0.617188 0.957031 0.890625 0.65625 C 1.171875 0.363281 1.445312 -0.015625 1.71875 -0.484375 C 2.519531 -1.847656 2.921875 -3.375 2.921875 -5.0625 C 2.921875 -5.488281 2.882812 -5.898438 2.8125 -6.296875 C 2.75 -6.691406 2.628906 -7.113281 2.453125 -7.5625 C 2.359375 -7.800781 2.269531 -7.972656 2.1875 -8.078125 C 2.113281 -8.191406 2.078125 -8.269531 2.078125 -8.3125 C 2.078125 -8.363281 2.109375 -8.414062 2.171875 -8.46875 C 2.234375 -8.519531 2.269531 -8.546875 2.28125 -8.546875 C 2.3125 -8.546875 2.40625 -8.441406 2.5625 -8.234375 C 2.71875 -8.023438 2.910156 -7.707031 3.140625 -7.28125 C 3.421875 -6.800781 3.625 -6.300781 3.75 -5.78125 C 3.882812 -5.269531 3.953125 -4.742188 3.953125 -4.203125 Z M 3.953125 -4.203125 "/></g></g></g></svg>