<svg xmlns="http://www.w3.org/2000/svg" xmlns:xlink="http://www.w3.org/1999/xlink" width="100" zoomAndPan="magnify" viewBox="0 0 75 74.999997" height="100" preserveAspectRatio="xMidYMid meet" version="1.0"><defs><g/></defs><g fill="#ffffff" fill-opacity="1"><g transform="translate(16.511719, 30.260894)"><g><path d="M 3.734375 -5.5 L 4.921875 -5.5 C 4.984375 -5.5 5.015625 -5.472656 5.015625 -5.421875 C 5.015625 -5.148438 4.941406 -5.015625 4.796875 -5.015625 L 3.65625 -4.984375 C 3.5625 -4.972656 3.492188 -4.953125 3.453125 -4.921875 C 3.421875 -4.890625 3.382812 -4.8125 3.34375 -4.6875 L 2.34375 -1.609375 C 2.257812 -1.328125 2.160156 -0.984375 2.046875 -0.578125 C 1.929688 -0.171875 1.789062 0.242188 1.625 0.671875 C 1.457031 1.097656 1.257812 1.5 1.03125 1.875 C 0.8125 2.25 0.539062 2.550781 0.21875 2.78125 C -0.09375 3.019531 -0.460938 3.140625 -0.890625 3.140625 C -1.140625 3.140625 -1.363281 3.066406 -1.5625 2.921875 C -1.757812 2.773438 -1.859375 2.578125 -1.859375 2.328125 C -1.859375 2.140625 -1.8125 1.992188 -1.71875 1.890625 C -1.625 1.785156 -1.472656 1.734375 -1.265625 1.734375 C -1.117188 1.734375 -0.992188 1.769531 -0.890625 1.84375 C -0.796875 1.925781 -0.742188 2.039062 -0.734375 2.1875 C -0.722656 2.3125 -0.703125 2.421875 -0.671875 2.515625 C -0.648438 2.609375 -0.601562 2.65625 -0.53125 2.65625 C -0.363281 2.65625 -0.234375 2.5625 -0.140625 2.375 C -0.0546875 2.195312 0.03125 1.929688 0.125 1.578125 C 0.21875 1.222656 0.347656 0.78125 0.515625 0.25 C 0.765625 -0.570312 1.015625 -1.382812 1.265625 -2.1875 C 1.523438 -3 1.742188 -3.703125 1.921875 -4.296875 C 1.960938 -4.421875 1.992188 -4.523438 2.015625 -4.609375 C 2.046875 -4.703125 2.0625 -4.765625 2.0625 -4.796875 C 2.0625 -4.890625 1.992188 -4.941406 1.859375 -4.953125 L 0.953125 -5.015625 C 0.828125 -5.023438 0.765625 -5.078125 0.765625 -5.171875 C 0.765625 -5.304688 0.785156 -5.394531 0.828125 -5.4375 C 0.867188 -5.476562 0.9375 -5.5 1.03125 -5.5 L 2.09375 -5.5 C 2.207031 -5.5 2.285156 -5.535156 2.328125 -5.609375 C 2.367188 -5.679688 2.410156 -5.765625 2.453125 -5.859375 C 2.691406 -6.515625 2.988281 -7.117188 3.34375 -7.671875 C 3.695312 -8.222656 4.101562 -8.660156 4.5625 -8.984375 C 5.03125 -9.316406 5.535156 -9.484375 6.078125 -9.484375 C 6.347656 -9.484375 6.582031 -9.429688 6.78125 -9.328125 C 6.976562 -9.234375 7.078125 -9.066406 7.078125 -8.828125 C 7.078125 -8.660156 7.023438 -8.53125 6.921875 -8.4375 C 6.816406 -8.351562 6.691406 -8.3125 6.546875 -8.3125 C 6.441406 -8.3125 6.332031 -8.335938 6.21875 -8.390625 C 6.113281 -8.453125 6.023438 -8.515625 5.953125 -8.578125 C 5.898438 -8.628906 5.832031 -8.695312 5.75 -8.78125 C 5.664062 -8.875 5.570312 -8.921875 5.46875 -8.921875 C 5.382812 -8.921875 5.285156 -8.882812 5.171875 -8.8125 C 5.078125 -8.75 4.960938 -8.609375 4.828125 -8.390625 C 4.703125 -8.171875 4.570312 -7.914062 4.4375 -7.625 C 4.300781 -7.34375 4.171875 -7.050781 4.046875 -6.75 C 3.929688 -6.457031 3.832031 -6.203125 3.75 -5.984375 C 3.675781 -5.765625 3.640625 -5.628906 3.640625 -5.578125 C 3.640625 -5.523438 3.671875 -5.5 3.734375 -5.5 Z M 3.734375 -5.5 "/></g></g></g><g fill="#ffffff" fill-opacity="1"><g transform="translate(21.256977, 30.260894)"><g><path d="M 0.25 -1.90625 C 0.25 -2.457031 0.347656 -2.960938 0.546875 -3.421875 C 0.753906 -3.890625 1.019531 -4.289062 1.34375 -4.625 C 1.664062 -4.96875 2.007812 -5.234375 2.375 -5.421875 C 2.738281 -5.609375 3.085938 -5.703125 3.421875 -5.703125 C 3.890625 -5.703125 4.253906 -5.578125 4.515625 -5.328125 C 4.773438 -5.085938 4.957031 -4.785156 5.0625 -4.421875 C 5.164062 -4.066406 5.21875 -3.710938 5.21875 -3.359375 C 5.21875 -2.890625 5.117188 -2.441406 4.921875 -2.015625 C 4.734375 -1.585938 4.484375 -1.207031 4.171875 -0.875 C 3.859375 -0.539062 3.507812 -0.273438 3.125 -0.078125 C 2.738281 0.109375 2.351562 0.203125 1.96875 0.203125 C 1.539062 0.203125 1.195312 0.09375 0.9375 -0.125 C 0.6875 -0.351562 0.507812 -0.628906 0.40625 -0.953125 C 0.300781 -1.285156 0.25 -1.601562 0.25 -1.90625 Z M 1.203125 -0.859375 C 1.203125 -0.660156 1.242188 -0.488281 1.328125 -0.34375 C 1.421875 -0.207031 1.578125 -0.140625 1.796875 -0.140625 C 2.035156 -0.140625 2.269531 -0.265625 2.5 -0.515625 C 2.738281 -0.773438 2.960938 -1.101562 3.171875 -1.5 C 3.378906 -1.90625 3.566406 -2.316406 3.734375 -2.734375 C 3.898438 -3.160156 4.03125 -3.546875 4.125 -3.890625 C 4.226562 -4.234375 4.28125 -4.472656 4.28125 -4.609375 C 4.28125 -5.109375 4.085938 -5.359375 3.703125 -5.359375 C 3.515625 -5.359375 3.304688 -5.234375 3.078125 -4.984375 C 2.847656 -4.734375 2.617188 -4.410156 2.390625 -4.015625 C 2.171875 -3.628906 1.972656 -3.222656 1.796875 -2.796875 C 1.617188 -2.367188 1.472656 -1.976562 1.359375 -1.625 C 1.253906 -1.269531 1.203125 -1.015625 1.203125 -0.859375 Z M 1.203125 -0.859375 "/></g></g></g><g fill="#ffffff" fill-opacity="1"><g transform="translate(26.800243, 30.260894)"><g><path d="M 0.65625 -1.734375 L 2.890625 -8.15625 C 2.960938 -8.382812 3 -8.550781 3 -8.65625 C 3 -8.757812 2.960938 -8.832031 2.890625 -8.875 C 2.828125 -8.925781 2.660156 -8.96875 2.390625 -9 C 2.285156 -9.019531 2.210938 -9.035156 2.171875 -9.046875 C 2.140625 -9.066406 2.125 -9.097656 2.125 -9.140625 C 2.125 -9.210938 2.148438 -9.265625 2.203125 -9.296875 C 2.265625 -9.335938 2.367188 -9.363281 2.515625 -9.375 L 4.3125 -9.484375 C 4.382812 -9.484375 4.445312 -9.472656 4.5 -9.453125 C 4.5625 -9.441406 4.59375 -9.382812 4.59375 -9.28125 C 4.59375 -9.207031 4.566406 -9.101562 4.515625 -8.96875 C 4.472656 -8.84375 4.425781 -8.722656 4.375 -8.609375 L 2.4375 -3.15625 C 2.226562 -2.582031 2.066406 -2.128906 1.953125 -1.796875 C 1.835938 -1.472656 1.78125 -1.273438 1.78125 -1.203125 C 1.78125 -1.128906 1.789062 -1.082031 1.8125 -1.0625 C 1.84375 -1.039062 1.894531 -1.03125 1.96875 -1.03125 C 2.03125 -1.03125 2.125 -1.078125 2.25 -1.171875 C 2.375 -1.273438 2.507812 -1.394531 2.65625 -1.53125 C 2.800781 -1.664062 2.929688 -1.789062 3.046875 -1.90625 C 3.148438 -2.007812 3.222656 -2.078125 3.265625 -2.109375 C 3.316406 -2.148438 3.351562 -2.171875 3.375 -2.171875 C 3.445312 -2.171875 3.484375 -2.125 3.484375 -2.03125 C 3.484375 -1.957031 3.441406 -1.863281 3.359375 -1.75 C 3.285156 -1.632812 3.132812 -1.460938 2.90625 -1.234375 C 2.707031 -1.035156 2.492188 -0.832031 2.265625 -0.625 C 2.035156 -0.414062 1.804688 -0.238281 1.578125 -0.09375 C 1.347656 0.0390625 1.128906 0.109375 0.921875 0.109375 C 0.734375 0.109375 0.597656 0.0703125 0.515625 0 C 0.429688 -0.0820312 0.390625 -0.242188 0.390625 -0.484375 C 0.390625 -0.617188 0.410156 -0.796875 0.453125 -1.015625 C 0.492188 -1.234375 0.5625 -1.472656 0.65625 -1.734375 Z M 0.65625 -1.734375 "/></g></g></g><g fill="#ffffff" fill-opacity="1"><g transform="translate(30.761752, 30.260894)"><g><path d="M 0.515625 -1.015625 L 3.15625 -8.125 C 3.1875 -8.226562 3.210938 -8.320312 3.234375 -8.40625 C 3.265625 -8.488281 3.28125 -8.5625 3.28125 -8.625 C 3.28125 -8.738281 3.257812 -8.816406 3.21875 -8.859375 C 3.175781 -8.898438 3.117188 -8.929688 3.046875 -8.953125 C 2.796875 -9.023438 2.640625 -9.070312 2.578125 -9.09375 C 2.523438 -9.125 2.5 -9.164062 2.5 -9.21875 C 2.5 -9.320312 2.617188 -9.375 2.859375 -9.375 C 3.296875 -9.375 3.640625 -9.382812 3.890625 -9.40625 C 4.140625 -9.425781 4.332031 -9.441406 4.46875 -9.453125 C 4.601562 -9.472656 4.71875 -9.484375 4.8125 -9.484375 C 4.882812 -9.484375 4.921875 -9.445312 4.921875 -9.375 C 4.921875 -9.300781 4.90625 -9.210938 4.875 -9.109375 C 4.84375 -9.003906 4.804688 -8.867188 4.765625 -8.703125 L 3.140625 -4.734375 C 3.109375 -4.648438 3.078125 -4.566406 3.046875 -4.484375 C 3.015625 -4.398438 2.984375 -4.320312 2.953125 -4.25 L 2.984375 -4.21875 C 3.148438 -4.46875 3.34375 -4.703125 3.5625 -4.921875 C 3.78125 -5.148438 4.023438 -5.335938 4.296875 -5.484375 C 4.566406 -5.628906 4.863281 -5.703125 5.1875 -5.703125 C 5.625 -5.703125 5.960938 -5.585938 6.203125 -5.359375 C 6.441406 -5.128906 6.5625 -4.832031 6.5625 -4.46875 C 6.5625 -4.03125 6.453125 -3.664062 6.234375 -3.375 C 6.015625 -3.09375 5.722656 -2.878906 5.359375 -2.734375 C 5.003906 -2.585938 4.625 -2.515625 4.21875 -2.515625 C 4.113281 -2.515625 3.992188 -2.515625 3.859375 -2.515625 C 3.734375 -2.515625 3.617188 -2.519531 3.515625 -2.53125 C 3.660156 -2.269531 3.804688 -2.007812 3.953125 -1.75 C 4.097656 -1.5 4.238281 -1.242188 4.375 -0.984375 C 4.445312 -0.828125 4.550781 -0.660156 4.6875 -0.484375 C 4.832031 -0.316406 5.007812 -0.234375 5.21875 -0.234375 C 5.40625 -0.234375 5.550781 -0.285156 5.65625 -0.390625 C 5.757812 -0.503906 5.8125 -0.648438 5.8125 -0.828125 C 5.8125 -0.941406 5.785156 -1.015625 5.734375 -1.046875 C 5.691406 -1.085938 5.625 -1.109375 5.53125 -1.109375 C 5.34375 -1.109375 5.25 -1.175781 5.25 -1.3125 C 5.25 -1.40625 5.285156 -1.472656 5.359375 -1.515625 C 5.429688 -1.566406 5.515625 -1.59375 5.609375 -1.59375 C 5.773438 -1.59375 5.910156 -1.507812 6.015625 -1.34375 C 6.128906 -1.1875 6.1875 -1.023438 6.1875 -0.859375 C 6.1875 -0.585938 6.113281 -0.375 5.96875 -0.21875 C 5.820312 -0.0625 5.640625 0.046875 5.421875 0.109375 C 5.203125 0.171875 4.976562 0.203125 4.75 0.203125 C 4.375 0.203125 4.054688 0.125 3.796875 -0.03125 C 3.546875 -0.1875 3.332031 -0.390625 3.15625 -0.640625 C 2.988281 -0.898438 2.835938 -1.171875 2.703125 -1.453125 C 2.578125 -1.742188 2.457031 -2.023438 2.34375 -2.296875 L 1.703125 -0.65625 C 1.566406 -0.3125 1.453125 -0.0976562 1.359375 -0.015625 C 1.265625 0.0664062 1.109375 0.109375 0.890625 0.109375 C 0.679688 0.109375 0.523438 0.0859375 0.421875 0.046875 C 0.328125 0.00390625 0.28125 -0.0820312 0.28125 -0.21875 C 0.28125 -0.289062 0.300781 -0.40625 0.34375 -0.5625 C 0.394531 -0.71875 0.453125 -0.867188 0.515625 -1.015625 Z M 5.75 -4.9375 C 5.476562 -4.9375 5.164062 -4.875 4.8125 -4.75 C 4.457031 -4.625 4.109375 -4.46875 3.765625 -4.28125 C 3.429688 -4.09375 3.15625 -3.90625 2.9375 -3.71875 C 2.71875 -3.53125 2.609375 -3.367188 2.609375 -3.234375 C 2.609375 -3.171875 2.632812 -3.101562 2.6875 -3.03125 C 2.738281 -2.96875 2.84375 -2.9375 3 -2.9375 C 3.132812 -2.9375 3.332031 -2.972656 3.59375 -3.046875 C 3.851562 -3.117188 4.128906 -3.21875 4.421875 -3.34375 C 4.722656 -3.46875 5.003906 -3.601562 5.265625 -3.75 C 5.535156 -3.90625 5.753906 -4.0625 5.921875 -4.21875 C 6.097656 -4.375 6.1875 -4.519531 6.1875 -4.65625 C 6.1875 -4.84375 6.039062 -4.9375 5.75 -4.9375 Z M 5.75 -4.9375 "/></g></g></g><g fill="#ffffff" fill-opacity="1"><g transform="translate(37.886774, 30.260894)"><g><path d="M 0.65625 -1.734375 L 2.890625 -8.15625 C 2.960938 -8.382812 3 -8.550781 3 -8.65625 C 3 -8.757812 2.960938 -8.832031 2.890625 -8.875 C 2.828125 -8.925781 2.660156 -8.96875 2.390625 -9 C 2.285156 -9.019531 2.210938 -9.035156 2.171875 -9.046875 C 2.140625 -9.066406 2.125 -9.097656 2.125 -9.140625 C 2.125 -9.210938 2.148438 -9.265625 2.203125 -9.296875 C 2.265625 -9.335938 2.367188 -9.363281 2.515625 -9.375 L 4.3125 -9.484375 C 4.382812 -9.484375 4.445312 -9.472656 4.5 -9.453125 C 4.5625 -9.441406 4.59375 -9.382812 4.59375 -9.28125 C 4.59375 -9.207031 4.566406 -9.101562 4.515625 -8.96875 C 4.472656 -8.84375 4.425781 -8.722656 4.375 -8.609375 L 2.4375 -3.15625 C 2.226562 -2.582031 2.066406 -2.128906 1.953125 -1.796875 C 1.835938 -1.472656 1.78125 -1.273438 1.78125 -1.203125 C 1.78125 -1.128906 1.789062 -1.082031 1.8125 -1.0625 C 1.84375 -1.039062 1.894531 -1.03125 1.96875 -1.03125 C 2.03125 -1.03125 2.125 -1.078125 2.25 -1.171875 C 2.375 -1.273438 2.507812 -1.394531 2.65625 -1.53125 C 2.800781 -1.664062 2.929688 -1.789062 3.046875 -1.90625 C 3.148438 -2.007812 3.222656 -2.078125 3.265625 -2.109375 C 3.316406 -2.148438 3.351562 -2.171875 3.375 -2.171875 C 3.445312 -2.171875 3.484375 -2.125 3.484375 -2.03125 C 3.484375 -1.957031 3.441406 -1.863281 3.359375 -1.75 C 3.285156 -1.632812 3.132812 -1.460938 2.90625 -1.234375 C 2.707031 -1.035156 2.492188 -0.832031 2.265625 -0.625 C 2.035156 -0.414062 1.804688 -0.238281 1.578125 -0.09375 C 1.347656 0.0390625 1.128906 0.109375 0.921875 0.109375 C 0.734375 0.109375 0.597656 0.0703125 0.515625 0 C 0.429688 -0.0820312 0.390625 -0.242188 0.390625 -0.484375 C 0.390625 -0.617188 0.410156 -0.796875 0.453125 -1.015625 C 0.492188 -1.234375 0.5625 -1.472656 0.65625 -1.734375 Z M 0.65625 -1.734375 "/></g></g></g><g fill="#ffffff" fill-opacity="1"><g transform="translate(41.848284, 30.260894)"><g><path d="M 0.25 -1.90625 C 0.25 -2.457031 0.347656 -2.960938 0.546875 -3.421875 C 0.753906 -3.890625 1.019531 -4.289062 1.34375 -4.625 C 1.664062 -4.96875 2.007812 -5.234375 2.375 -5.421875 C 2.738281 -5.609375 3.085938 -5.703125 3.421875 -5.703125 C 3.890625 -5.703125 4.253906 -5.578125 4.515625 -5.328125 C 4.773438 -5.085938 4.957031 -4.785156 5.0625 -4.421875 C 5.164062 -4.066406 5.21875 -3.710938 5.21875 -3.359375 C 5.21875 -2.890625 5.117188 -2.441406 4.921875 -2.015625 C 4.734375 -1.585938 4.484375 -1.207031 4.171875 -0.875 C 3.859375 -0.539062 3.507812 -0.273438 3.125 -0.078125 C 2.738281 0.109375 2.351562 0.203125 1.96875 0.203125 C 1.539062 0.203125 1.195312 0.09375 0.9375 -0.125 C 0.6875 -0.351562 0.507812 -0.628906 0.40625 -0.953125 C 0.300781 -1.285156 0.25 -1.601562 0.25 -1.90625 Z M 1.203125 -0.859375 C 1.203125 -0.660156 1.242188 -0.488281 1.328125 -0.34375 C 1.421875 -0.207031 1.578125 -0.140625 1.796875 -0.140625 C 2.035156 -0.140625 2.269531 -0.265625 2.5 -0.515625 C 2.738281 -0.773438 2.960938 -1.101562 3.171875 -1.5 C 3.378906 -1.90625 3.566406 -2.316406 3.734375 -2.734375 C 3.898438 -3.160156 4.03125 -3.546875 4.125 -3.890625 C 4.226562 -4.234375 4.28125 -4.472656 4.28125 -4.609375 C 4.28125 -5.109375 4.085938 -5.359375 3.703125 -5.359375 C 3.515625 -5.359375 3.304688 -5.234375 3.078125 -4.984375 C 2.847656 -4.734375 2.617188 -4.410156 2.390625 -4.015625 C 2.171875 -3.628906 1.972656 -3.222656 1.796875 -2.796875 C 1.617188 -2.367188 1.472656 -1.976562 1.359375 -1.625 C 1.253906 -1.269531 1.203125 -1.015625 1.203125 -0.859375 Z M 1.203125 -0.859375 "/></g></g></g><g fill="#ffffff" fill-opacity="1"><g transform="translate(47.391549, 30.260894)"><g><path d="M 5.84375 -4.734375 C 5.84375 -4.523438 5.78125 -4.347656 5.65625 -4.203125 C 5.539062 -4.054688 5.375 -3.984375 5.15625 -3.984375 C 5.019531 -3.984375 4.910156 -4.019531 4.828125 -4.09375 C 4.742188 -4.175781 4.703125 -4.304688 4.703125 -4.484375 C 4.703125 -4.703125 4.640625 -4.8125 4.515625 -4.8125 C 4.421875 -4.8125 4.300781 -4.722656 4.15625 -4.546875 C 4.019531 -4.367188 3.875 -4.148438 3.71875 -3.890625 C 3.5625 -3.628906 3.421875 -3.378906 3.296875 -3.140625 C 3.171875 -2.910156 3.078125 -2.738281 3.015625 -2.625 C 2.679688 -1.988281 2.421875 -1.46875 2.234375 -1.0625 C 2.046875 -0.65625 1.898438 -0.359375 1.796875 -0.171875 C 1.691406 0.015625 1.578125 0.109375 1.453125 0.109375 C 1.128906 0.109375 0.921875 0.0859375 0.828125 0.046875 C 0.742188 0.00390625 0.703125 -0.0546875 0.703125 -0.140625 C 0.703125 -0.191406 0.710938 -0.257812 0.734375 -0.34375 C 0.753906 -0.425781 0.796875 -0.582031 0.859375 -0.8125 C 0.929688 -1.050781 1.039062 -1.394531 1.1875 -1.84375 C 1.332031 -2.300781 1.523438 -2.925781 1.765625 -3.71875 C 1.828125 -3.90625 1.863281 -4.054688 1.875 -4.171875 C 1.894531 -4.285156 1.90625 -4.390625 1.90625 -4.484375 C 1.90625 -4.597656 1.84375 -4.65625 1.71875 -4.65625 C 1.625 -4.65625 1.523438 -4.59375 1.421875 -4.46875 C 1.316406 -4.351562 1.195312 -4.210938 1.0625 -4.046875 C 0.882812 -3.828125 0.742188 -3.625 0.640625 -3.4375 C 0.546875 -3.25 0.46875 -3.15625 0.40625 -3.15625 C 0.34375 -3.15625 0.300781 -3.171875 0.28125 -3.203125 C 0.257812 -3.234375 0.25 -3.265625 0.25 -3.296875 C 0.25 -3.335938 0.296875 -3.445312 0.390625 -3.625 C 0.484375 -3.8125 0.609375 -4.019531 0.765625 -4.25 C 0.929688 -4.488281 1.113281 -4.71875 1.3125 -4.9375 C 1.519531 -5.15625 1.726562 -5.335938 1.9375 -5.484375 C 2.15625 -5.628906 2.363281 -5.703125 2.5625 -5.703125 C 2.726562 -5.703125 2.851562 -5.65625 2.9375 -5.5625 C 3.03125 -5.46875 3.078125 -5.304688 3.078125 -5.078125 C 3.078125 -4.578125 2.992188 -4.082031 2.828125 -3.59375 C 2.660156 -3.113281 2.503906 -2.609375 2.359375 -2.078125 L 2.390625 -2.046875 C 2.734375 -2.710938 3.039062 -3.320312 3.3125 -3.875 C 3.59375 -4.425781 3.863281 -4.867188 4.125 -5.203125 C 4.382812 -5.535156 4.65625 -5.703125 4.9375 -5.703125 C 5.25 -5.703125 5.476562 -5.609375 5.625 -5.421875 C 5.769531 -5.242188 5.84375 -5.015625 5.84375 -4.734375 Z M 5.84375 -4.734375 "/></g></g></g><g fill="#ffffff" fill-opacity="1"><g transform="translate(52.934815, 30.260894)"><g><path d="M 0.203125 -1.546875 C 0.203125 -1.992188 0.304688 -2.457031 0.515625 -2.9375 C 0.734375 -3.414062 1.019531 -3.863281 1.375 -4.28125 C 1.726562 -4.707031 2.125 -5.050781 2.5625 -5.3125 C 3.007812 -5.570312 3.460938 -5.703125 3.921875 -5.703125 C 4.378906 -5.703125 4.710938 -5.597656 4.921875 -5.390625 C 5.140625 -5.179688 5.25 -4.894531 5.25 -4.53125 C 5.25 -4.132812 5.125 -3.804688 4.875 -3.546875 C 4.632812 -3.296875 4.328125 -3.101562 3.953125 -2.96875 C 3.585938 -2.832031 3.203125 -2.726562 2.796875 -2.65625 C 2.390625 -2.582031 2.023438 -2.523438 1.703125 -2.484375 C 1.691406 -2.378906 1.675781 -2.257812 1.65625 -2.125 C 1.632812 -2 1.625 -1.867188 1.625 -1.734375 C 1.625 -1.378906 1.703125 -1.117188 1.859375 -0.953125 C 2.015625 -0.796875 2.253906 -0.71875 2.578125 -0.71875 C 2.828125 -0.71875 3.050781 -0.769531 3.25 -0.875 C 3.445312 -0.988281 3.625 -1.097656 3.78125 -1.203125 C 3.882812 -1.273438 3.988281 -1.351562 4.09375 -1.4375 C 4.207031 -1.519531 4.289062 -1.5625 4.34375 -1.5625 C 4.414062 -1.5625 4.453125 -1.492188 4.453125 -1.359375 C 4.453125 -1.316406 4.390625 -1.210938 4.265625 -1.046875 C 4.140625 -0.890625 3.960938 -0.710938 3.734375 -0.515625 C 3.503906 -0.328125 3.234375 -0.160156 2.921875 -0.015625 C 2.609375 0.128906 2.257812 0.203125 1.875 0.203125 C 1.363281 0.203125 0.957031 0.046875 0.65625 -0.265625 C 0.351562 -0.585938 0.203125 -1.015625 0.203125 -1.546875 Z M 1.8125 -2.84375 C 2.050781 -2.875 2.316406 -2.941406 2.609375 -3.046875 C 2.910156 -3.160156 3.203125 -3.300781 3.484375 -3.46875 C 3.765625 -3.644531 3.992188 -3.851562 4.171875 -4.09375 C 4.359375 -4.332031 4.453125 -4.597656 4.453125 -4.890625 C 4.453125 -5.023438 4.40625 -5.132812 4.3125 -5.21875 C 4.21875 -5.3125 4.070312 -5.359375 3.875 -5.359375 C 3.675781 -5.359375 3.472656 -5.269531 3.265625 -5.09375 C 3.054688 -4.914062 2.851562 -4.691406 2.65625 -4.421875 C 2.457031 -4.160156 2.285156 -3.882812 2.140625 -3.59375 C 1.992188 -3.3125 1.882812 -3.0625 1.8125 -2.84375 Z M 1.8125 -2.84375 "/></g></g></g><g fill="#ffffff" fill-opacity="1"><g transform="translate(18.503906, 49.760893)"><g><path d="M 4.53125 -8.921875 L 4.734375 -8.75 C 4.097656 -8.226562 3.539062 -7.597656 3.0625 -6.859375 C 2.582031 -6.128906 2.210938 -5.347656 1.953125 -4.515625 C 1.691406 -3.691406 1.5625 -2.859375 1.5625 -2.015625 C 1.5625 -1.234375 1.640625 -0.519531 1.796875 0.125 C 1.960938 0.78125 2.207031 1.289062 2.53125 1.65625 L 2.265625 1.875 C 1.972656 1.53125 1.691406 1.128906 1.421875 0.671875 C 1.148438 0.210938 0.929688 -0.300781 0.765625 -0.875 C 0.597656 -1.457031 0.515625 -2.113281 0.515625 -2.84375 C 0.515625 -3.726562 0.6875 -4.546875 1.03125 -5.296875 C 1.375 -6.046875 1.847656 -6.722656 2.453125 -7.328125 C 3.066406 -7.929688 3.757812 -8.460938 4.53125 -8.921875 Z M 4.53125 -8.921875 "/></g></g></g><g fill="#ffffff" fill-opacity="1"><g transform="translate(23.249164, 49.760893)"><g><path d="M 5.265625 -0.609375 L 5.078125 -0.109375 C 5.035156 -0.015625 4.988281 0.0351562 4.9375 0.046875 C 4.882812 0.0664062 4.820312 0.078125 4.75 0.078125 C 4.476562 0.078125 4.164062 0.0625 3.8125 0.03125 C 3.457031 0.0078125 2.96875 0 2.34375 0 C 1.664062 0 1.171875 0.0078125 0.859375 0.03125 C 0.554688 0.0625 0.351562 0.078125 0.25 0.078125 C 0.0703125 0.078125 -0.015625 0.03125 -0.015625 -0.0625 C -0.015625 -0.132812 0.046875 -0.238281 0.171875 -0.375 C 0.296875 -0.507812 0.445312 -0.660156 0.625 -0.828125 C 0.800781 -1.003906 0.984375 -1.175781 1.171875 -1.34375 C 1.566406 -1.707031 1.984375 -2.101562 2.421875 -2.53125 C 2.867188 -2.957031 3.285156 -3.394531 3.671875 -3.84375 C 4.054688 -4.289062 4.363281 -4.734375 4.59375 -5.171875 C 4.832031 -5.609375 4.953125 -6.023438 4.953125 -6.421875 C 4.953125 -6.953125 4.804688 -7.34375 4.515625 -7.59375 C 4.234375 -7.851562 3.867188 -7.984375 3.421875 -7.984375 C 3.148438 -7.984375 2.910156 -7.921875 2.703125 -7.796875 C 2.492188 -7.679688 2.3125 -7.539062 2.15625 -7.375 C 2 -7.21875 1.867188 -7.078125 1.765625 -6.953125 C 1.660156 -6.835938 1.578125 -6.78125 1.515625 -6.78125 C 1.410156 -6.78125 1.359375 -6.832031 1.359375 -6.9375 C 1.359375 -6.976562 1.421875 -7.085938 1.546875 -7.265625 C 1.679688 -7.453125 1.863281 -7.65625 2.09375 -7.875 C 2.332031 -8.101562 2.601562 -8.300781 2.90625 -8.46875 C 3.21875 -8.632812 3.550781 -8.71875 3.90625 -8.71875 C 4.375 -8.71875 4.796875 -8.628906 5.171875 -8.453125 C 5.546875 -8.273438 5.84375 -8.023438 6.0625 -7.703125 C 6.28125 -7.378906 6.390625 -7 6.390625 -6.5625 C 6.390625 -6.09375 6.25 -5.644531 5.96875 -5.21875 C 5.6875 -4.789062 5.300781 -4.359375 4.8125 -3.921875 C 4.332031 -3.484375 3.785156 -3.023438 3.171875 -2.546875 C 2.554688 -2.078125 1.921875 -1.566406 1.265625 -1.015625 C 1.554688 -1.003906 1.832031 -0.992188 2.09375 -0.984375 C 2.351562 -0.972656 2.65625 -0.96875 3 -0.96875 C 3.351562 -0.96875 3.679688 -0.984375 3.984375 -1.015625 C 4.296875 -1.054688 4.5625 -1.097656 4.78125 -1.140625 C 5 -1.179688 5.140625 -1.203125 5.203125 -1.203125 C 5.253906 -1.203125 5.296875 -1.1875 5.328125 -1.15625 C 5.359375 -1.132812 5.375 -1.085938 5.375 -1.015625 C 5.375 -0.972656 5.359375 -0.914062 5.328125 -0.84375 C 5.304688 -0.769531 5.285156 -0.691406 5.265625 -0.609375 Z M 5.265625 -0.609375 "/></g></g></g><g fill="#ffffff" fill-opacity="1"><g transform="translate(30.374186, 49.760893)"><g><path d="M 0.34375 -3.15625 C 0.34375 -3.863281 0.441406 -4.550781 0.640625 -5.21875 C 0.847656 -5.882812 1.128906 -6.476562 1.484375 -7 C 1.847656 -7.53125 2.265625 -7.945312 2.734375 -8.25 C 3.203125 -8.5625 3.691406 -8.71875 4.203125 -8.71875 C 4.671875 -8.71875 5.085938 -8.578125 5.453125 -8.296875 C 5.816406 -8.023438 6.101562 -7.640625 6.3125 -7.140625 C 6.519531 -6.648438 6.625 -6.078125 6.625 -5.421875 C 6.625 -4.773438 6.523438 -4.117188 6.328125 -3.453125 C 6.128906 -2.796875 5.851562 -2.191406 5.5 -1.640625 C 5.144531 -1.085938 4.738281 -0.640625 4.28125 -0.296875 C 3.832031 0.0351562 3.347656 0.203125 2.828125 0.203125 C 2.378906 0.203125 1.96875 0.0703125 1.59375 -0.1875 C 1.21875 -0.457031 0.914062 -0.84375 0.6875 -1.34375 C 0.457031 -1.84375 0.34375 -2.445312 0.34375 -3.15625 Z M 1.625 -2.03125 C 1.625 -1.695312 1.648438 -1.390625 1.703125 -1.109375 C 1.765625 -0.828125 1.875 -0.59375 2.03125 -0.40625 C 2.195312 -0.226562 2.425781 -0.140625 2.71875 -0.140625 C 3.03125 -0.140625 3.3125 -0.265625 3.5625 -0.515625 C 3.820312 -0.765625 4.046875 -1.09375 4.234375 -1.5 C 4.421875 -1.90625 4.582031 -2.34375 4.71875 -2.8125 C 4.863281 -3.289062 4.984375 -3.757812 5.078125 -4.21875 C 5.171875 -4.6875 5.238281 -5.101562 5.28125 -5.46875 C 5.320312 -5.84375 5.34375 -6.113281 5.34375 -6.28125 C 5.34375 -7.03125 5.257812 -7.566406 5.09375 -7.890625 C 4.925781 -8.210938 4.640625 -8.375 4.234375 -8.375 C 3.921875 -8.375 3.628906 -8.226562 3.359375 -7.9375 C 3.097656 -7.644531 2.859375 -7.257812 2.640625 -6.78125 C 2.429688 -6.3125 2.25 -5.789062 2.09375 -5.21875 C 1.9375 -4.65625 1.816406 -4.09375 1.734375 -3.53125 C 1.660156 -2.96875 1.625 -2.46875 1.625 -2.03125 Z M 1.625 -2.03125 "/></g></g></g><g fill="#ffffff" fill-opacity="1"><g transform="translate(37.499209, 49.760893)"><g><path d="M 5.265625 -0.609375 L 5.078125 -0.109375 C 5.035156 -0.015625 4.988281 0.0351562 4.9375 0.046875 C 4.882812 0.0664062 4.820312 0.078125 4.75 0.078125 C 4.476562 0.078125 4.164062 0.0625 3.8125 0.03125 C 3.457031 0.0078125 2.96875 0 2.34375 0 C 1.664062 0 1.171875 0.0078125 0.859375 0.03125 C 0.554688 0.0625 0.351562 0.078125 0.25 0.078125 C 0.0703125 0.078125 -0.015625 0.03125 -0.015625 -0.0625 C -0.015625 -0.132812 0.046875 -0.238281 0.171875 -0.375 C 0.296875 -0.507812 0.445312 -0.660156 0.625 -0.828125 C 0.800781 -1.003906 0.984375 -1.175781 1.171875 -1.34375 C 1.566406 -1.707031 1.984375 -2.101562 2.421875 -2.53125 C 2.867188 -2.957031 3.285156 -3.394531 3.671875 -3.84375 C 4.054688 -4.289062 4.363281 -4.734375 4.59375 -5.171875 C 4.832031 -5.609375 4.953125 -6.023438 4.953125 -6.421875 C 4.953125 -6.953125 4.804688 -7.34375 4.515625 -7.59375 C 4.234375 -7.851562 3.867188 -7.984375 3.421875 -7.984375 C 3.148438 -7.984375 2.910156 -7.921875 2.703125 -7.796875 C 2.492188 -7.679688 2.3125 -7.539062 2.15625 -7.375 C 2 -7.21875 1.867188 -7.078125 1.765625 -6.953125 C 1.660156 -6.835938 1.578125 -6.78125 1.515625 -6.78125 C 1.410156 -6.78125 1.359375 -6.832031 1.359375 -6.9375 C 1.359375 -6.976562 1.421875 -7.085938 1.546875 -7.265625 C 1.679688 -7.453125 1.863281 -7.65625 2.09375 -7.875 C 2.332031 -8.101562 2.601562 -8.300781 2.90625 -8.46875 C 3.21875 -8.632812 3.550781 -8.71875 3.90625 -8.71875 C 4.375 -8.71875 4.796875 -8.628906 5.171875 -8.453125 C 5.546875 -8.273438 5.84375 -8.023438 6.0625 -7.703125 C 6.28125 -7.378906 6.390625 -7 6.390625 -6.5625 C 6.390625 -6.09375 6.25 -5.644531 5.96875 -5.21875 C 5.6875 -4.789062 5.300781 -4.359375 4.8125 -3.921875 C 4.332031 -3.484375 3.785156 -3.023438 3.171875 -2.546875 C 2.554688 -2.078125 1.921875 -1.566406 1.265625 -1.015625 C 1.554688 -1.003906 1.832031 -0.992188 2.09375 -0.984375 C 2.351562 -0.972656 2.65625 -0.96875 3 -0.96875 C 3.351562 -0.96875 3.679688 -0.984375 3.984375 -1.015625 C 4.296875 -1.054688 4.5625 -1.097656 4.78125 -1.140625 C 5 -1.179688 5.140625 -1.203125 5.203125 -1.203125 C 5.253906 -1.203125 5.296875 -1.1875 5.328125 -1.15625 C 5.359375 -1.132812 5.375 -1.085938 5.375 -1.015625 C 5.375 -0.972656 5.359375 -0.914062 5.328125 -0.84375 C 5.304688 -0.769531 5.285156 -0.691406 5.265625 -0.609375 Z M 5.265625 -0.609375 "/></g></g></g><g fill="#ffffff" fill-opacity="1"><g transform="translate(44.624231, 49.760893)"><g><path d="M 0.34375 -3.15625 C 0.34375 -3.863281 0.441406 -4.550781 0.640625 -5.21875 C 0.847656 -5.882812 1.128906 -6.476562 1.484375 -7 C 1.847656 -7.53125 2.265625 -7.945312 2.734375 -8.25 C 3.203125 -8.5625 3.691406 -8.71875 4.203125 -8.71875 C 4.671875 -8.71875 5.085938 -8.578125 5.453125 -8.296875 C 5.816406 -8.023438 6.101562 -7.640625 6.3125 -7.140625 C 6.519531 -6.648438 6.625 -6.078125 6.625 -5.421875 C 6.625 -4.773438 6.523438 -4.117188 6.328125 -3.453125 C 6.128906 -2.796875 5.851562 -2.191406 5.5 -1.640625 C 5.144531 -1.085938 4.738281 -0.640625 4.28125 -0.296875 C 3.832031 0.0351562 3.347656 0.203125 2.828125 0.203125 C 2.378906 0.203125 1.96875 0.0703125 1.59375 -0.1875 C 1.21875 -0.457031 0.914062 -0.84375 0.6875 -1.34375 C 0.457031 -1.84375 0.34375 -2.445312 0.34375 -3.15625 Z M 1.625 -2.03125 C 1.625 -1.695312 1.648438 -1.390625 1.703125 -1.109375 C 1.765625 -0.828125 1.875 -0.59375 2.03125 -0.40625 C 2.195312 -0.226562 2.425781 -0.140625 2.71875 -0.140625 C 3.03125 -0.140625 3.3125 -0.265625 3.5625 -0.515625 C 3.820312 -0.765625 4.046875 -1.09375 4.234375 -1.5 C 4.421875 -1.90625 4.582031 -2.34375 4.71875 -2.8125 C 4.863281 -3.289062 4.984375 -3.757812 5.078125 -4.21875 C 5.171875 -4.6875 5.238281 -5.101562 5.28125 -5.46875 C 5.320312 -5.84375 5.34375 -6.113281 5.34375 -6.28125 C 5.34375 -7.03125 5.257812 -7.566406 5.09375 -7.890625 C 4.925781 -8.210938 4.640625 -8.375 4.234375 -8.375 C 3.921875 -8.375 3.628906 -8.226562 3.359375 -7.9375 C 3.097656 -7.644531 2.859375 -7.257812 2.640625 -6.78125 C 2.429688 -6.3125 2.25 -5.789062 2.09375 -5.21875 C 1.9375 -4.65625 1.816406 -4.09375 1.734375 -3.53125 C 1.660156 -2.96875 1.625 -2.46875 1.625 -2.03125 Z M 1.625 -2.03125 "/></g></g></g><g fill="#ffffff" fill-opacity="1"><g transform="translate(51.749253, 49.760893)"><g><path d="M -0.03125 1.875 L -0.234375 1.703125 C 0.410156 1.171875 0.96875 0.546875 1.4375 -0.171875 C 1.914062 -0.898438 2.285156 -1.679688 2.546875 -2.515625 C 2.804688 -3.359375 2.9375 -4.195312 2.9375 -5.03125 C 2.9375 -5.8125 2.859375 -6.53125 2.703125 -7.1875 C 2.546875 -7.84375 2.300781 -8.34375 1.96875 -8.6875 L 2.234375 -8.921875 C 2.535156 -8.566406 2.816406 -8.160156 3.078125 -7.703125 C 3.347656 -7.253906 3.566406 -6.738281 3.734375 -6.15625 C 3.898438 -5.570312 3.984375 -4.914062 3.984375 -4.1875 C 3.984375 -3.300781 3.8125 -2.484375 3.46875 -1.734375 C 3.125 -0.992188 2.648438 -0.320312 2.046875 0.28125 C 1.441406 0.894531 0.75 1.425781 -0.03125 1.875 Z M -0.03125 1.875 "/></g></g></g></svg>