<svg xmlns="http://www.w3.org/2000/svg" xmlns:xlink="http://www.w3.org/1999/xlink" width="100" zoomAndPan="magnify" viewBox="0 0 75 74.999997" height="100" preserveAspectRatio="xMidYMid meet" version="1.0"><defs><g/></defs><g fill="#ffffff" fill-opacity="1"><g transform="translate(8.759766, 34.273531)"><g><path d="M 10.234375 0 L 8.203125 0 L 8.203125 -6.546875 L 8.15625 -6.546875 L 6.09375 0 L 4.53125 0 L 2.484375 -6.546875 L 2.4375 -6.546875 L 2.4375 0 L 0.453125 0 L 0.453125 -9.09375 L 3.625 -9.09375 L 5.328125 -3.21875 L 5.375 -3.21875 L 7.0625 -9.09375 L 10.234375 -9.09375 Z M 10.234375 0 "/></g></g></g><g fill="#ffffff" fill-opacity="1"><g transform="translate(19.437332, 34.273531)"><g><path d="M 2.4375 -6.75 L 2.4375 0 L 0.421875 0 L 0.421875 -6.75 Z M 2.453125 -9.21875 L 2.453125 -7.640625 L 0.421875 -7.640625 L 0.421875 -9.21875 Z M 2.453125 -9.21875 "/></g></g></g><g fill="#ffffff" fill-opacity="1"><g transform="translate(22.275352, 34.273531)"><g><path d="M 3.125 -6.921875 C 3.59375 -6.921875 3.992188 -6.832031 4.328125 -6.65625 C 4.671875 -6.488281 4.941406 -6.253906 5.140625 -5.953125 L 5.203125 -5.953125 L 5.203125 -9.21875 L 7.21875 -9.21875 L 7.21875 0 L 5.28125 0 L 5.28125 -0.890625 L 5.234375 -0.890625 C 5.023438 -0.523438 4.738281 -0.253906 4.375 -0.078125 C 4.019531 0.0859375 3.617188 0.171875 3.171875 0.171875 C 2.609375 0.171875 2.101562 0.0234375 1.65625 -0.265625 C 1.21875 -0.554688 0.875 -0.96875 0.625 -1.5 C 0.375 -2.039062 0.25 -2.664062 0.25 -3.375 C 0.25 -4.082031 0.375 -4.703125 0.625 -5.234375 C 0.875 -5.773438 1.21875 -6.191406 1.65625 -6.484375 C 2.09375 -6.773438 2.582031 -6.921875 3.125 -6.921875 Z M 3.8125 -1.34375 C 4.28125 -1.34375 4.644531 -1.515625 4.90625 -1.859375 C 5.164062 -2.203125 5.296875 -2.707031 5.296875 -3.375 C 5.296875 -4.039062 5.164062 -4.539062 4.90625 -4.875 C 4.644531 -5.21875 4.28125 -5.390625 3.8125 -5.390625 C 3.34375 -5.390625 2.972656 -5.21875 2.703125 -4.875 C 2.441406 -4.539062 2.3125 -4.039062 2.3125 -3.375 C 2.3125 -2.707031 2.441406 -2.203125 2.703125 -1.859375 C 2.972656 -1.515625 3.34375 -1.34375 3.8125 -1.34375 Z M 3.8125 -1.34375 "/></g></g></g><g fill="#ffffff" fill-opacity="1"><g transform="translate(29.847644, 34.273531)"><g><path d="M 2.40625 -5.84375 C 2.632812 -6.164062 2.925781 -6.425781 3.28125 -6.625 C 3.644531 -6.820312 4.066406 -6.921875 4.546875 -6.921875 C 5.253906 -6.921875 5.828125 -6.707031 6.265625 -6.28125 C 6.703125 -5.863281 6.921875 -5.25 6.921875 -4.4375 L 6.921875 0 L 4.890625 0 L 4.890625 -3.9375 C 4.890625 -4.414062 4.789062 -4.757812 4.59375 -4.96875 C 4.40625 -5.1875 4.125 -5.296875 3.75 -5.296875 C 3.375 -5.296875 3.0625 -5.15625 2.8125 -4.875 C 2.5625 -4.59375 2.4375 -4.1875 2.4375 -3.65625 L 2.4375 0 L 0.40625 0 L 0.40625 -6.75 L 2.359375 -6.75 L 2.359375 -5.84375 Z M 2.40625 -5.84375 "/></g></g></g><g fill="#ffffff" fill-opacity="1"><g transform="translate(37.12723, 34.273531)"><g><path d="M 2.4375 -6.75 L 2.4375 0 L 0.421875 0 L 0.421875 -6.75 Z M 2.453125 -9.21875 L 2.453125 -7.640625 L 0.421875 -7.640625 L 0.421875 -9.21875 Z M 2.453125 -9.21875 "/></g></g></g><g fill="#ffffff" fill-opacity="1"><g transform="translate(39.96525, 34.273531)"><g><path d="M 7.171875 -0.515625 C 7.171875 0.546875 6.859375 1.316406 6.234375 1.796875 C 5.609375 2.273438 4.769531 2.515625 3.71875 2.515625 C 2.832031 2.515625 2.085938 2.328125 1.484375 1.953125 C 0.890625 1.585938 0.492188 1.019531 0.296875 0.25 L 2.3125 0.078125 C 2.40625 0.410156 2.566406 0.65625 2.796875 0.8125 C 3.035156 0.96875 3.34375 1.046875 3.71875 1.046875 C 4.675781 1.046875 5.15625 0.503906 5.15625 -0.578125 L 5.15625 -1.21875 L 5.109375 -1.21875 C 4.691406 -0.632812 4.023438 -0.34375 3.109375 -0.34375 C 2.566406 -0.34375 2.078125 -0.472656 1.640625 -0.734375 C 1.210938 -1.003906 0.875 -1.390625 0.625 -1.890625 C 0.382812 -2.398438 0.265625 -2.984375 0.265625 -3.640625 C 0.265625 -4.304688 0.382812 -4.882812 0.625 -5.375 C 0.875 -5.863281 1.21875 -6.242188 1.65625 -6.515625 C 2.09375 -6.785156 2.59375 -6.921875 3.15625 -6.921875 C 4.113281 -6.921875 4.789062 -6.585938 5.1875 -5.921875 L 5.234375 -5.921875 L 5.234375 -6.75 L 7.171875 -6.75 Z M 3.796875 -1.84375 C 4.234375 -1.84375 4.585938 -2.003906 4.859375 -2.328125 C 5.128906 -2.648438 5.265625 -3.085938 5.265625 -3.640625 C 5.265625 -4.171875 5.128906 -4.597656 4.859375 -4.921875 C 4.585938 -5.242188 4.234375 -5.40625 3.796875 -5.40625 C 3.347656 -5.40625 2.988281 -5.242188 2.71875 -4.921875 C 2.445312 -4.597656 2.3125 -4.171875 2.3125 -3.640625 C 2.3125 -3.085938 2.445312 -2.648438 2.71875 -2.328125 C 2.988281 -2.003906 3.347656 -1.84375 3.796875 -1.84375 Z M 3.796875 -1.84375 "/></g></g></g><g fill="#ffffff" fill-opacity="1"><g transform="translate(47.499364, 34.273531)"><g><path d="M 2.484375 -5.84375 C 3.015625 -6.5625 3.71875 -6.921875 4.59375 -6.921875 C 5.269531 -6.921875 5.828125 -6.707031 6.265625 -6.28125 C 6.703125 -5.863281 6.921875 -5.25 6.921875 -4.4375 L 6.921875 0 L 4.890625 0 L 4.890625 -3.9375 C 4.890625 -4.414062 4.789062 -4.757812 4.59375 -4.96875 C 4.40625 -5.1875 4.125 -5.296875 3.75 -5.296875 C 3.382812 -5.296875 3.070312 -5.144531 2.8125 -4.84375 C 2.5625 -4.539062 2.4375 -4.128906 2.4375 -3.609375 L 2.4375 0 L 0.40625 0 L 0.40625 -9.21875 L 2.4375 -9.21875 L 2.4375 -5.84375 Z M 2.484375 -5.84375 "/></g></g></g><g fill="#ffffff" fill-opacity="1"><g transform="translate(54.778951, 34.273531)"><g><path d="M 4.515625 -1.53125 L 4.515625 0 C 4.378906 0.0195312 3.945312 0.03125 3.21875 0.03125 C 2.695312 0.03125 2.289062 -0.015625 2 -0.109375 C 1.707031 -0.203125 1.488281 -0.375 1.34375 -0.625 C 1.207031 -0.875 1.140625 -1.226562 1.140625 -1.6875 L 1.140625 -5.4375 L 0.09375 -5.4375 L 0.09375 -6.75 L 1.140625 -6.75 L 1.140625 -8.625 L 3.15625 -8.625 L 3.15625 -6.75 L 4.53125 -6.75 L 4.53125 -5.4375 L 3.15625 -5.4375 L 3.15625 -2.171875 C 3.15625 -1.890625 3.210938 -1.710938 3.328125 -1.640625 C 3.441406 -1.566406 3.65625 -1.53125 3.96875 -1.53125 Z M 4.515625 -1.53125 "/></g></g></g><g fill="#ffffff" fill-opacity="1"><g transform="translate(59.462319, 34.273531)"><g><path d="M 4.5 -4.703125 C 4.4375 -4.992188 4.296875 -5.21875 4.078125 -5.375 C 3.859375 -5.539062 3.59375 -5.625 3.28125 -5.625 C 2.988281 -5.625 2.75 -5.5625 2.5625 -5.4375 C 2.382812 -5.320312 2.296875 -5.148438 2.296875 -4.921875 C 2.296875 -4.722656 2.382812 -4.578125 2.5625 -4.484375 C 2.738281 -4.390625 3.019531 -4.304688 3.40625 -4.234375 L 4.109375 -4.140625 C 4.609375 -4.054688 5.03125 -3.945312 5.375 -3.8125 C 5.71875 -3.675781 6 -3.460938 6.21875 -3.171875 C 6.445312 -2.890625 6.5625 -2.507812 6.5625 -2.03125 C 6.5625 -1.289062 6.265625 -0.738281 5.671875 -0.375 C 5.078125 -0.0078125 4.300781 0.171875 3.34375 0.171875 C 2.4375 0.171875 1.6875 -0.015625 1.09375 -0.390625 C 0.5 -0.773438 0.144531 -1.300781 0.03125 -1.96875 L 1.9375 -2.1875 C 2 -1.84375 2.15625 -1.578125 2.40625 -1.390625 C 2.65625 -1.210938 2.972656 -1.125 3.359375 -1.125 C 3.710938 -1.125 3.988281 -1.191406 4.1875 -1.328125 C 4.394531 -1.472656 4.5 -1.675781 4.5 -1.9375 C 4.5 -2.132812 4.394531 -2.285156 4.1875 -2.390625 C 3.988281 -2.503906 3.691406 -2.59375 3.296875 -2.65625 L 2.53125 -2.78125 C 1.851562 -2.882812 1.304688 -3.082031 0.890625 -3.375 C 0.472656 -3.675781 0.265625 -4.15625 0.265625 -4.8125 C 0.265625 -5.25 0.398438 -5.625 0.671875 -5.9375 C 0.941406 -6.257812 1.304688 -6.503906 1.765625 -6.671875 C 2.222656 -6.835938 2.722656 -6.921875 3.265625 -6.921875 C 4.097656 -6.921875 4.789062 -6.738281 5.34375 -6.375 C 5.90625 -6.019531 6.242188 -5.535156 6.359375 -4.921875 Z M 4.5 -4.703125 "/></g></g></g><g fill="#ffffff" fill-opacity="1"><g transform="translate(18.486328, 51.52353)"><g><path d="M 2.5 -4.15625 C 2.5 -3.039062 2.644531 -2.066406 2.9375 -1.234375 C 3.226562 -0.398438 3.625 0.347656 4.125 1.015625 L 3.34375 1.828125 C 1.425781 0.265625 0.46875 -1.726562 0.46875 -4.15625 C 0.46875 -5.488281 0.726562 -6.640625 1.25 -7.609375 C 1.769531 -8.578125 2.46875 -9.421875 3.34375 -10.140625 L 4.125 -9.328125 C 3.625 -8.660156 3.226562 -7.910156 2.9375 -7.078125 C 2.644531 -6.242188 2.5 -5.269531 2.5 -4.15625 Z M 2.5 -4.15625 "/></g></g></g><g fill="#ffffff" fill-opacity="1"><g transform="translate(22.609726, 51.52353)"><g><path d="M 6.890625 0 L 0.21875 0 L 0.21875 -0.3125 C 0.21875 -1 0.328125 -1.582031 0.546875 -2.0625 C 0.773438 -2.550781 1.066406 -2.953125 1.421875 -3.265625 C 1.773438 -3.585938 2.21875 -3.910156 2.75 -4.234375 L 3.65625 -4.78125 C 4.03125 -5.007812 4.316406 -5.242188 4.515625 -5.484375 C 4.722656 -5.722656 4.828125 -6 4.828125 -6.3125 C 4.828125 -6.695312 4.726562 -6.988281 4.53125 -7.1875 C 4.332031 -7.382812 4.039062 -7.484375 3.65625 -7.484375 C 3.257812 -7.484375 2.941406 -7.347656 2.703125 -7.078125 C 2.472656 -6.816406 2.34375 -6.421875 2.3125 -5.890625 L 0.265625 -5.953125 C 0.296875 -6.628906 0.46875 -7.203125 0.78125 -7.671875 C 1.09375 -8.140625 1.492188 -8.488281 1.984375 -8.71875 C 2.484375 -8.957031 3.039062 -9.078125 3.65625 -9.078125 C 4.613281 -9.078125 5.394531 -8.851562 6 -8.40625 C 6.601562 -7.957031 6.90625 -7.300781 6.90625 -6.4375 C 6.90625 -5.863281 6.800781 -5.382812 6.59375 -5 C 6.394531 -4.625 6.148438 -4.332031 5.859375 -4.125 C 5.578125 -3.914062 5.164062 -3.648438 4.625 -3.328125 L 3.875 -2.859375 C 3.519531 -2.628906 3.234375 -2.410156 3.015625 -2.203125 C 2.796875 -1.992188 2.675781 -1.820312 2.65625 -1.6875 L 6.890625 -1.6875 Z M 6.890625 0 "/></g></g></g><g fill="#ffffff" fill-opacity="1"><g transform="translate(29.851134, 51.52353)"><g><path d="M 4.03125 -9.09375 C 6.488281 -9.09375 7.71875 -7.546875 7.71875 -4.453125 C 7.71875 -1.367188 6.488281 0.171875 4.03125 0.171875 C 2.851562 0.171875 1.941406 -0.195312 1.296875 -0.9375 C 0.648438 -1.675781 0.328125 -2.847656 0.328125 -4.453125 C 0.328125 -6.054688 0.648438 -7.226562 1.296875 -7.96875 C 1.941406 -8.71875 2.851562 -9.09375 4.03125 -9.09375 Z M 4.03125 -1.359375 C 4.488281 -1.359375 4.859375 -1.566406 5.140625 -1.984375 C 5.429688 -2.410156 5.578125 -3.234375 5.578125 -4.453125 C 5.578125 -5.304688 5.503906 -5.957031 5.359375 -6.40625 C 5.210938 -6.863281 5.023438 -7.164062 4.796875 -7.3125 C 4.578125 -7.46875 4.320312 -7.546875 4.03125 -7.546875 C 3.726562 -7.546875 3.46875 -7.46875 3.25 -7.3125 C 3.03125 -7.164062 2.847656 -6.863281 2.703125 -6.40625 C 2.554688 -5.957031 2.484375 -5.304688 2.484375 -4.453125 C 2.484375 -3.234375 2.625 -2.410156 2.90625 -1.984375 C 3.1875 -1.566406 3.5625 -1.359375 4.03125 -1.359375 Z M 4.03125 -1.359375 "/></g></g></g><g fill="#ffffff" fill-opacity="1"><g transform="translate(37.907042, 51.52353)"><g><path d="M 6.890625 0 L 0.21875 0 L 0.21875 -0.3125 C 0.21875 -1 0.328125 -1.582031 0.546875 -2.0625 C 0.773438 -2.550781 1.066406 -2.953125 1.421875 -3.265625 C 1.773438 -3.585938 2.21875 -3.910156 2.75 -4.234375 L 3.65625 -4.78125 C 4.03125 -5.007812 4.316406 -5.242188 4.515625 -5.484375 C 4.722656 -5.722656 4.828125 -6 4.828125 -6.3125 C 4.828125 -6.695312 4.726562 -6.988281 4.53125 -7.1875 C 4.332031 -7.382812 4.039062 -7.484375 3.65625 -7.484375 C 3.257812 -7.484375 2.941406 -7.347656 2.703125 -7.078125 C 2.472656 -6.816406 2.34375 -6.421875 2.3125 -5.890625 L 0.265625 -5.953125 C 0.296875 -6.628906 0.46875 -7.203125 0.78125 -7.671875 C 1.09375 -8.140625 1.492188 -8.488281 1.984375 -8.71875 C 2.484375 -8.957031 3.039062 -9.078125 3.65625 -9.078125 C 4.613281 -9.078125 5.394531 -8.851562 6 -8.40625 C 6.601562 -7.957031 6.90625 -7.300781 6.90625 -6.4375 C 6.90625 -5.863281 6.800781 -5.382812 6.59375 -5 C 6.394531 -4.625 6.148438 -4.332031 5.859375 -4.125 C 5.578125 -3.914062 5.164062 -3.648438 4.625 -3.328125 L 3.875 -2.859375 C 3.519531 -2.628906 3.234375 -2.410156 3.015625 -2.203125 C 2.796875 -1.992188 2.675781 -1.820312 2.65625 -1.6875 L 6.890625 -1.6875 Z M 6.890625 0 "/></g></g></g><g fill="#ffffff" fill-opacity="1"><g transform="translate(45.14845, 51.52353)"><g><path d="M 6.890625 0 L 0.21875 0 L 0.21875 -0.3125 C 0.21875 -1 0.328125 -1.582031 0.546875 -2.0625 C 0.773438 -2.550781 1.066406 -2.953125 1.421875 -3.265625 C 1.773438 -3.585938 2.21875 -3.910156 2.75 -4.234375 L 3.65625 -4.78125 C 4.03125 -5.007812 4.316406 -5.242188 4.515625 -5.484375 C 4.722656 -5.722656 4.828125 -6 4.828125 -6.3125 C 4.828125 -6.695312 4.726562 -6.988281 4.53125 -7.1875 C 4.332031 -7.382812 4.039062 -7.484375 3.65625 -7.484375 C 3.257812 -7.484375 2.941406 -7.347656 2.703125 -7.078125 C 2.472656 -6.816406 2.34375 -6.421875 2.3125 -5.890625 L 0.265625 -5.953125 C 0.296875 -6.628906 0.46875 -7.203125 0.78125 -7.671875 C 1.09375 -8.140625 1.492188 -8.488281 1.984375 -8.71875 C 2.484375 -8.957031 3.039062 -9.078125 3.65625 -9.078125 C 4.613281 -9.078125 5.394531 -8.851562 6 -8.40625 C 6.601562 -7.957031 6.90625 -7.300781 6.90625 -6.4375 C 6.90625 -5.863281 6.800781 -5.382812 6.59375 -5 C 6.394531 -4.625 6.148438 -4.332031 5.859375 -4.125 C 5.578125 -3.914062 5.164062 -3.648438 4.625 -3.328125 L 3.875 -2.859375 C 3.519531 -2.628906 3.234375 -2.410156 3.015625 -2.203125 C 2.796875 -1.992188 2.675781 -1.820312 2.65625 -1.6875 L 6.890625 -1.6875 Z M 6.890625 0 "/></g></g></g><g fill="#ffffff" fill-opacity="1"><g transform="translate(52.389859, 51.52353)"><g><path d="M 1.640625 -4.15625 C 1.640625 -5.269531 1.492188 -6.242188 1.203125 -7.078125 C 0.910156 -7.921875 0.507812 -8.671875 0 -9.328125 L 0.796875 -10.140625 C 1.660156 -9.410156 2.351562 -8.5625 2.875 -7.59375 C 3.40625 -6.632812 3.671875 -5.488281 3.671875 -4.15625 C 3.671875 -2.820312 3.40625 -1.671875 2.875 -0.703125 C 2.351562 0.253906 1.660156 1.097656 0.796875 1.828125 L 0 1.015625 C 0.507812 0.359375 0.910156 -0.382812 1.203125 -1.21875 C 1.492188 -2.050781 1.640625 -3.03125 1.640625 -4.15625 Z M 1.640625 -4.15625 "/></g></g></g></svg>