<svg width="50" height="50" viewBox="0 0 50 50" fill="none" xmlns="http://www.w3.org/2000/svg">
<path fill-rule="evenodd" clip-rule="evenodd" d="M10.4167 13.0156C8.8972 13.0156 7.43996 13.6192 6.36553 14.6937C5.29111 15.7681 4.6875 17.2253 4.6875 18.7448V37.4948C4.6875 39.0143 5.29111 40.4715 6.36553 41.5459C7.43996 42.6204 8.8972 43.224 10.4167 43.224H39.5833C41.1028 43.224 42.56 42.6204 43.6345 41.5459C44.7089 40.4715 45.3125 39.0143 45.3125 37.4948V18.7448C45.3125 17.2253 44.7089 15.7681 43.6345 14.6937C42.56 13.6192 41.1028 13.0156 39.5833 13.0156H10.4167ZM34.375 25.5156C33.6843 25.5156 33.022 25.79 32.5336 26.2784C32.0452 26.7667 31.7708 27.4291 31.7708 28.1198C31.7708 28.8105 32.0452 29.4728 32.5336 29.9612C33.022 30.4496 33.6843 30.724 34.375 30.724C35.0657 30.724 35.728 30.4496 36.2164 29.9612C36.7048 29.4728 36.9792 28.8105 36.9792 28.1198C36.9792 27.4291 36.7048 26.7667 36.2164 26.2784C35.728 25.79 35.0657 25.5156 34.375 25.5156Z" fill="white"/>
<path d="M34.3438 6.39051C34.9606 6.22613 35.6069 6.20568 36.2329 6.33074C36.8589 6.45579 37.4478 6.72301 37.9541 7.11177C38.4605 7.50053 38.8707 8.00043 39.1532 8.57289C39.4357 9.14535 39.5828 9.77506 39.5833 10.4134H18.75L34.3438 6.39051Z" fill="white"/>
</svg>
