<?xml version="1.0" encoding="UTF-8"?>
<svg version="1.1" xmlns="http://www.w3.org/2000/svg" width="512" height="512">
<path d="M0 0 C23.09394543 -0.69911619 47.29870432 6.15684499 64.5625 22.15625 C66.20703125 24.69140625 66.20703125 24.69140625 67.375 27.21875 C67.77332031 28.05535156 68.17164063 28.89195312 68.58203125 29.75390625 C71.16840027 36.09102555 71.21478914 42.54709344 69.5625 49.15625 C71.77987399 51.06050778 73.9734447 52.78620824 76.5625 54.15625 C80.22744323 53.4744001 82.69990358 51.48873597 85.5625 49.15625 C85.3975 48.49625 85.2325 47.83625 85.0625 47.15625 C83.70798226 39.02914358 84.85230447 32.53411733 88.5625 25.15625 C98.91400998 10.93417542 121.13297457 4.12622557 137.97558594 1.46972656 C162.27179269 -1.47443439 186.00129933 3.06486832 205.625 18.15625 C207.64584553 19.78240391 209.6024898 21.45464227 211.5625 23.15625 C212.28566406 23.77886719 213.00882812 24.40148437 213.75390625 25.04296875 C226.07213988 36.51510149 235.02021416 52.49621193 244.53710938 66.23730469 C247.71962696 70.82387414 250.92136385 75.39691692 254.125 79.96875 C254.67196533 80.74951904 255.21893066 81.53028809 255.7824707 82.3347168 C256.30929443 83.08664307 256.83611816 83.83856934 257.37890625 84.61328125 C257.89179199 85.34861084 258.40467773 86.08394043 258.93310547 86.84155273 C260.10686329 88.50897825 261.29521442 90.16616514 262.49267578 91.81665039 C263.12802246 92.69957764 263.76336914 93.58250488 264.41796875 94.4921875 C265.0008667 95.29317871 265.58376465 96.09416992 266.18432617 96.91943359 C268.22314029 100.2284885 268.44729564 102.39586854 267.5625 106.15625 C265.5 109.15625 265.5 109.15625 262.5625 111.15625 C258.39561471 111.30506733 256.38005966 110.86498308 253.21484375 108.12109375 C249.97003857 104.49398457 247.31848003 100.63873176 244.625 96.59375 C243.4697431 94.88214178 242.31345947 93.1712262 241.15625 91.4609375 C240.56328125 90.58276367 239.9703125 89.70458984 239.359375 88.79980469 C235.91910882 83.73850004 232.3957318 78.73545597 228.87426758 73.73046875 C225.8632865 69.44922351 222.87161287 65.15699483 219.91796875 60.8359375 C205.62673063 39.9905349 190.9295213 24.05945039 165.10546875 18.66015625 C145.00709103 15.80162182 123.66726242 20.5233574 106.19921875 30.87109375 C102.49075454 33.78299047 101.61392557 37.79095636 100.5625 42.15625 C101.15933594 41.90230469 101.75617188 41.64835937 102.37109375 41.38671875 C124.65510862 32.54595802 149.39154197 33.08992126 171.5625 42.15625 C186.34355236 48.86789329 203.08794584 60.20714169 210.5625 75.15625 C210.91423852 78.95502599 211.08951444 81.29985153 209.0625 84.59375 C206.27362516 86.33679677 204.02704208 87.02529293 200.71484375 86.87109375 C196.0793133 85.33152556 193.42921163 80.89842446 190.5625 77.15625 C179.66443856 63.16255981 162.16057953 55.40778387 144.9765625 52.5625 C126.47048124 50.36040337 107.53050886 54.74097493 92.34375 65.734375 C89.80436258 67.76142987 88.05960693 69.23008646 86.5625 72.15625 C86.26778681 76.4683693 86.83300378 79.94042297 89.0625 83.65625 C92.88591584 85.9502995 96.11584188 86.57065749 100.5625 86.15625 C103.75097281 85.09207697 106.72859126 83.82098456 109.765625 82.3828125 C120.49141768 77.67904308 135.90185933 78.94456628 146.63671875 82.83203125 C163.0656024 90.26780102 172.15677724 102.04706283 178.51074219 118.57226562 C179.20355365 120.43030228 179.88337615 122.29316687 180.5625 124.15625 C180.90667969 125.02507812 181.25085938 125.89390625 181.60546875 126.7890625 C186.63041659 141.46285384 184.7771301 159.17724577 178.5625 173.15625 C176.51158596 177.07783148 174.22523404 180.62523312 171.5625 184.15625 C171.05203125 184.86007812 170.5415625 185.56390625 170.015625 186.2890625 C161.91293136 196.51771042 149.31623793 202.63966791 137.81640625 208.203125 C136.54842345 208.82732984 135.28101472 209.45270198 134.0141449 210.0791626 C130.05673174 212.03311396 126.0912053 213.97022487 122.125 215.90625 C117.49628362 218.16827434 112.87119948 220.43739155 108.25211906 222.71903229 C106.42202905 223.61940923 104.58721563 224.50955518 102.75184631 225.39910889 C93.09760316 229.64376926 93.09760316 229.64376926 86.65234375 237.4375 C86.40396551 241.05490622 86.3524981 243.58800957 87.625 247.03125 C90.58447638 250.27712732 93.8361238 252.02805064 98.24853516 252.35571289 C99.23128418 252.2602417 100.2140332 252.16477051 101.2265625 252.06640625 C103.06782715 251.88875732 103.06782715 251.88875732 104.94628906 251.70751953 C116.85816628 250.32480092 128.74397704 248.70823833 140.62597656 247.09204102 C169.48492529 243.18173425 194.33745464 241.93915555 219.5625 259.15625 C226.24111754 264.56274991 232.07197683 270.57208604 237.5625 277.15625 C238.94292438 278.77170812 240.32839272 280.38276801 241.71386719 281.99389648 C243.2702725 283.80483789 244.82302144 285.6188578 246.375 287.43359375 C248.47482 289.88788705 250.57902637 292.3382938 252.6875 294.78515625 C258.75073793 301.82655297 264.71170651 308.93634944 270.5625 316.15625 C275.35992369 322.06010654 280.1970447 327.92364376 285.125 333.71875 C288.91136879 338.17383463 292.6135174 342.68044353 296.2421875 347.265625 C300.07293506 352.03793677 303.98979033 356.73997643 307.90356445 361.44433594 C308.49097412 362.15364258 309.07838379 362.86294922 309.68359375 363.59375 C310.2139624 364.23183594 310.74433105 364.86992187 311.29077148 365.52734375 C313.743422 368.66884582 313.74338376 371.24489069 313.890625 375.18359375 C313.45885616 377.77934692 312.65268887 378.59213114 310.5625 380.15625 C307.35691589 381.29688729 304.79908888 381.15984345 301.5625 380.15625 C297.65281267 376.98317043 294.63580989 373.11635702 291.5625 369.15625 C290.67759493 368.03735561 289.79217268 366.91887008 288.90625 365.80078125 C287.53499797 364.06196437 286.16893599 362.31976654 284.81347656 360.56860352 C281.47397366 356.26064478 278.00316017 352.09097896 274.4375 347.96875 C270.22686022 343.10086569 266.09175184 338.18611775 262.03125 333.19140625 C245.27248568 312.57662967 245.27248568 312.57662967 227.73828125 292.625 C225.42675201 290.00222356 223.28234499 287.28177041 221.125 284.53125 C210.57696004 271.61899419 196.09981431 263.50200564 179.5625 261.15625 C169.81339222 260.64866848 160.34266376 261.58806416 150.6953125 262.90625 C149.32213316 263.08654245 147.9488287 263.26588421 146.57540894 263.44433594 C143.0036128 263.91028254 139.43318948 264.38593077 135.86309814 264.86474609 C130.13132023 265.63273519 124.39811234 266.38963533 118.66384506 267.13879395 C116.68031045 267.39999524 114.69769866 267.66817435 112.71511841 267.93652344 C90.50587924 270.86299004 90.50587924 270.86299004 81.25 263.84375 C78.73747539 261.83218628 78.73747539 261.83218628 76.1875 262.65625 C74.888125 263.39875 74.888125 263.39875 73.5625 264.15625 C72.2339962 264.85303669 70.90023803 265.53986047 69.5625 266.21875 C68.6034375 266.73115234 68.6034375 266.73115234 67.625 267.25390625 C56.67921954 272.0426852 40.74177264 267.82076608 29.375 266.40625 C28.09753906 266.2616333 26.82007813 266.1170166 25.50390625 265.96801758 C15.32461136 264.62724742 15.32461136 264.62724742 12.23828125 261.703125 C10.5625 259.15625 10.5625 259.15625 9.9375 256.15625 C10.78109577 252.10699028 12.37336832 250.73543846 15.5625 248.15625 C18.5234375 247.78125 18.5234375 247.78125 21.9375 248.15625 C23.2471875 248.28773438 24.556875 248.41921875 25.90625 248.5546875 C29.3893522 248.9893074 32.86628414 249.46790156 36.34375 249.9453125 C37.35002441 250.08195313 38.35629883 250.21859375 39.39306641 250.359375 C41.38163768 250.63493644 43.36846961 250.92344465 45.35302734 251.2265625 C51.11982552 252.05537163 56.85666723 252.69701847 62.5625 251.15625 C65.26802388 248.95801185 67.01028333 247.26068333 68.5625 244.15625 C68.82427633 240.96385572 68.48812984 238.22080776 67.5625 235.15625 C62.17469625 229.1943336 53.63505797 225.9930847 46.55078125 222.578125 C45.29242434 221.96161058 44.03463777 221.34393086 42.77738953 220.72515869 C37.48758527 218.12406826 32.18844396 215.54235198 26.8840332 212.97119141 C23.62015401 211.38810723 20.36369217 209.7905066 17.11095238 208.18466949 C15.30370919 207.29773485 13.48856159 206.42696257 11.673172 205.55682373 C-5.1204271 197.25950288 -18.40530001 185.93381751 -25.4375 168.15625 C-32.47137148 146.9530634 -28.33698081 126.54516804 -18.5625 106.96875 C-10.73010316 93.89403463 0.99812691 84.43486925 15.79296875 80.57421875 C28.11954883 78.71393092 41.52096499 79.16545941 52.62890625 85.296875 C56.22194519 86.8937812 59.84281556 86.0724958 63.5625 85.15625 C66.40307875 83.45190275 67.2707042 82.24793358 68.12109375 79.06640625 C68.70564388 75.44460595 68.95677242 73.11206194 67.53125 69.65625 C64.87367521 66.28155185 61.87275033 64.6069646 58.125 62.59375 C57.05137207 62.00678345 57.05137207 62.00678345 55.95605469 61.40795898 C36.46201669 51.01447624 16.16466373 49.85148833 -4.859375 56.1875 C-19.6055545 61.40863532 -31.40276752 70.7598498 -40.7734375 83.1171875 C-42.4375 85.15625 -42.4375 85.15625 -44.4375 86.15625 C-48.27364957 86.51144903 -50.58379634 86.70349594 -53.875 84.59375 C-56.11894979 81.09318832 -56.12162591 79.26100544 -55.4375 75.15625 C-53.77673648 72.18627144 -51.65896568 69.72242587 -49.4375 67.15625 C-48.880625 66.4446875 -48.32375 65.733125 -47.75 65 C-33.99110058 48.15720933 -11.90491895 38.28642485 9.26171875 35.47265625 C24.83274687 33.98004882 40.14086618 36.02004727 54.5625 42.15625 C52.07938166 33.98419636 47.94077683 30.22063763 40.5625 26.15625 C22.30769462 16.79763446 2.34946341 14.21075512 -17.4375 20.15625 C-40.42777173 27.91941478 -53.67813881 44.0878363 -66.72119141 63.609375 C-69.55128831 67.80902947 -72.4626755 71.95088303 -75.375 76.09375 C-75.95604492 76.92189209 -76.53708984 77.75003418 -77.13574219 78.60327148 C-78.31393637 80.28247499 -79.49248488 81.96142995 -80.67138672 83.64013672 C-83.59771867 87.80916867 -86.51725379 91.98295418 -89.4375 96.15625 C-90.60154068 97.81902569 -91.7656032 99.4817861 -92.9296875 101.14453125 C-95.28998124 104.51628531 -97.6492491 107.8887541 -100.0078125 111.26171875 C-105.95444129 119.76435465 -111.91428902 128.25715706 -117.90332031 136.72998047 C-123.51335409 144.67104808 -129.08360235 152.63990319 -134.65527344 160.60791016 C-136.41799831 163.12836525 -138.18148484 165.64828529 -139.9453125 168.16796875 C-140.5225708 168.99272705 -141.0998291 169.81748535 -141.69458008 170.66723633 C-142.85001054 172.31727325 -144.00609052 173.96685556 -145.1628418 175.6159668 C-148.23340713 179.99562414 -151.28862954 184.38507537 -154.32421875 188.7890625 C-154.96037109 189.70816406 -155.59652344 190.62726563 -156.25195312 191.57421875 C-157.47511847 193.34200516 -158.69406478 195.11272034 -159.90820312 196.88671875 C-160.45798828 197.67949219 -161.00777344 198.47226562 -161.57421875 199.2890625 C-162.05592529 199.98918457 -162.53763184 200.68930664 -163.03393555 201.41064453 C-165.4059953 204.36076233 -167.13328237 205.12306262 -170.875 205.53125 C-174.4375 205.15625 -174.4375 205.15625 -176.875 203.65625 C-179.03944042 200.19314533 -179.10444306 197.08807601 -178.4375 193.15625 C-177.08661076 190.28911598 -175.25272412 187.90164239 -173.3125 185.40625 C-172.20207769 183.9083279 -171.09274678 182.40959626 -169.984375 180.91015625 C-169.40107422 180.1330127 -168.81777344 179.35586914 -168.21679688 178.55517578 C-165.24362121 174.54661046 -162.40988067 170.44211892 -159.5625 166.34375 C-158.37813288 164.64936989 -157.19323306 162.95536202 -156.0078125 161.26171875 C-155.41774414 160.41786621 -154.82767578 159.57401367 -154.21972656 158.70458984 C-151.29373267 154.5208194 -148.3655169 150.33860476 -145.4375 146.15625 C-144.27082241 144.48959098 -143.10415575 142.82292431 -141.9375 141.15625 C-134.9375 131.15625 -127.9375 121.15625 -120.9375 111.15625 C-120.35983887 110.3310083 -119.78217773 109.5057666 -119.18701172 108.65551758 C-118.02201636 106.99126172 -116.8569774 105.32703639 -115.69189453 103.6628418 C-112.74929589 99.45954077 -109.80749096 95.25568819 -106.8671875 91.05078125 C-100.92545589 82.55514746 -94.97542847 74.06578795 -88.98486328 65.60449219 C-86.25838215 61.7499057 -83.5499507 57.88365886 -80.859375 54.00390625 C-68.050368 35.54702081 -68.050368 35.54702081 -62.4375 29.15625 C-61.78136719 28.40601563 -61.12523438 27.65578125 -60.44921875 26.8828125 C-45.16586763 10.50978918 -22.17705938 1.00804815 0 0 Z M74.4375 96.96875 C68.73884804 101.30468084 62.94400524 102.80835592 55.80078125 102.66015625 C51.71648806 102.02460279 48.15175098 100.6478072 44.3125 99.15625 C34.11833034 95.25614776 24.79234944 94.24794396 14.25 98.09375 C3.26055842 103.38879722 -2.95547334 110.9844328 -7.4375 122.15625 C-8.16646484 123.87328125 -8.16646484 123.87328125 -8.91015625 125.625 C-13.57850854 137.79652574 -15.01676378 151.51316234 -9.7109375 163.76171875 C-7.57349297 167.78090125 -5.17889941 171.52389578 -2.4375 175.15625 C-1.85798584 175.94314209 -1.27847168 176.73003418 -0.68139648 177.54077148 C9.63590947 189.56659007 28.16442788 195.64274719 42.1918335 202.52081299 C47.30268602 205.02694283 52.40974799 207.54059863 57.51106071 210.06609154 C59.27711677 210.93764186 61.04703665 211.80134883 62.81703186 212.66487122 C63.89262863 213.19610092 64.9682254 213.72733063 66.07641602 214.2746582 C67.01792007 214.73604691 67.95942413 215.19743561 68.92945862 215.67280579 C71.73379726 217.25275814 74.10576271 219.0835707 76.5625 221.15625 C79.16927342 219.86336357 81.75210842 218.53598573 84.31835938 217.16455078 C93.03521493 212.52797936 101.79685648 208.00707887 110.65625 203.6484375 C111.59065918 203.18753723 112.52506836 202.72663696 113.48779297 202.25177002 C117.31478429 200.36509217 121.14238428 198.47990274 124.97753906 196.60986328 C143.20635984 187.70990961 159.41272033 179.55533888 166.5625 159.15625 C171.27000228 144.74355465 166.19397921 129.18474218 160.14453125 116.0859375 C155.09112021 106.8284282 146.84675803 99.76293464 136.75 96.5859375 C127.5206237 94.7730243 119.45372063 95.79050811 110.8125 99.15625 C100.91716976 102.99074596 93.6254614 103.54818657 83.65625 99.32421875 C81.55966227 98.15466701 80.23356469 96.85160342 78.5625 95.15625 C76.35061334 94.93993446 76.35061334 94.93993446 74.4375 96.96875 Z " fill="#000000" transform="translate(178.4375,131.84375)"/>
<path d="M0 0 C0.68126953 -0.01224609 1.36253906 -0.02449219 2.06445312 -0.03710938 C7.20757294 -0.05193105 11.9337395 0.31732353 15.8125 3.9375 C17.31970373 6.95190746 17.42310806 8.85761618 16.9375 12.1875 C14.90467555 15.08036557 13.64590792 16.02851072 10.1875 16.8046875 C6.89976743 17.19194446 3.8667007 17.14519647 0.5625 17 C-17.23791716 16.9060168 -32.21050292 24.02812552 -45.0625 36.1875 C-47.34868409 38.77744281 -49.48854658 41.44043493 -51.61328125 44.1640625 C-54.46487781 47.6842152 -57.51494744 50.95930074 -60.625 54.25 C-64.91916045 58.81778692 -69.0064265 63.44220758 -72.86328125 68.390625 C-75.7472954 72.05839432 -78.71643243 75.65261457 -81.6875 79.25 C-82.28594727 79.97517822 -82.88439453 80.70035645 -83.50097656 81.44750977 C-84.73471336 82.94250655 -85.96860198 84.43737805 -87.20263672 85.93212891 C-89.03507873 88.15424748 -90.86388335 90.37930351 -92.69140625 92.60546875 C-98.50736648 99.68721825 -104.35159671 106.73939316 -110.29272461 113.71655273 C-113.02449504 116.93342771 -115.68968389 120.19384483 -118.3125 123.5 C-118.94800781 124.28761719 -119.58351563 125.07523437 -120.23828125 125.88671875 C-121.45788328 127.42493202 -122.64315313 128.99097713 -123.79296875 130.58203125 C-127.84396759 135.8752128 -127.84396759 135.8752128 -131.39453125 136.78515625 C-134.66736558 136.90676399 -136.97044784 136.83258391 -139.828125 135.14453125 C-141.84127353 131.95279893 -141.75034063 128.77583301 -141.0625 125.1875 C-139.53061224 122.6185509 -138.18343067 120.7071879 -136.25 118.5 C-135.75516113 117.90405029 -135.26032227 117.30810059 -134.75048828 116.6940918 C-133.20590139 114.8423955 -131.6360858 113.01457241 -130.0625 111.1875 C-129.10644808 110.05345116 -128.15196951 108.91807367 -127.19921875 107.78125 C-125.36462865 105.59750639 -123.52045463 103.42248569 -121.66796875 101.25390625 C-118.58025554 97.63223606 -115.57274237 93.94716238 -112.56640625 90.2578125 C-104.7346342 80.65442275 -96.86440734 71.08545201 -88.8269043 61.65332031 C-86.15198252 58.50518516 -83.55371983 55.30944517 -81 52.0625 C-77.3440074 47.44755852 -73.42642013 43.11305135 -69.44140625 38.78125 C-67.4094358 36.56576827 -65.41185414 34.32918448 -63.4375 32.0625 C-62.880625 31.42957031 -62.32375 30.79664063 -61.75 30.14453125 C-60.57986925 28.78750461 -59.43552454 27.40797917 -58.3125 26.01171875 C-44.14061139 8.91687812 -21.91472654 0.02085131 0 0 Z " fill="#000000" transform="translate(161.0625,375.8125)"/>
<path d="M0 0 C5.19176602 4.28612117 8.67257159 10.04427382 12.4375 15.5625 C13.87078559 17.64344145 15.30438492 19.72416684 16.73828125 21.8046875 C17.4545166 22.8472168 18.17075195 23.88974609 18.90869141 24.96386719 C21.95659499 29.38877135 25.03882677 33.78924114 28.125 38.1875 C29.2618064 39.80983442 30.39852509 41.4322303 31.53515625 43.0546875 C32.0986377 43.85874023 32.66211914 44.66279297 33.24267578 45.49121094 C35.09925074 48.14169222 36.95411438 50.7933646 38.80859375 53.4453125 C39.43685059 54.34354736 40.06510742 55.24178223 40.71240234 56.16723633 C41.90697918 57.87523844 43.10133133 59.58339774 44.29541016 61.29174805 C44.83858887 62.0681665 45.38176758 62.84458496 45.94140625 63.64453125 C46.45654785 64.38493652 46.97168945 65.1253418 47.50244141 65.88818359 C48.47655453 67.26185144 49.47276322 68.62020229 50.49365234 69.95947266 C52.98247073 73.24407771 54.6786957 75.550651 54.5 79.75 C54.4896875 80.48734375 54.479375 81.2246875 54.46875 81.984375 C53.88533222 84.49307144 52.99752269 85.41259671 51 87 C48.21049949 87.95430281 46.52474211 88.12856182 43.65625 87.42578125 C40.04369633 85.48668994 38.15415388 82.67220652 35.875 79.375 C35.39909424 78.70621826 34.92318848 78.03743652 34.43286133 77.34838867 C32.94077189 75.24198167 31.46783146 73.12336784 30 71 C29.55350098 70.35659668 29.10700195 69.71319336 28.64697266 69.05029297 C26.39777206 65.80386046 24.16387215 62.54727714 21.9375 59.28515625 C18.72258169 54.58213373 15.45734463 49.9149361 12.1875 45.25 C11.60661621 44.42008545 11.02573242 43.5901709 10.42724609 42.73510742 C7.32994154 38.31275506 4.22204633 33.89821729 1.1015625 29.4921875 C0.46710205 28.59338867 -0.1673584 27.69458984 -0.82104492 26.76855469 C-2.03395192 25.05065318 -3.25008491 23.33502321 -4.4699707 21.62207031 C-12.26162126 10.56972756 -12.26162126 10.56972756 -11.375 5.25 C-8.98862377 -0.39052563 -5.70991055 -0.68912714 0 0 Z " fill="#000000" transform="translate(458,250)"/>
<path d="M0 0 C2.90077198 0.77051756 4.02322321 2.2848389 6 4.53125 C7.17024284 6.60512204 8.25586364 8.72786187 9.27734375 10.87890625 C9.57057022 11.49084335 9.86379669 12.10278046 10.16590881 12.73326111 C11.09773925 14.68307839 12.01765165 16.63825635 12.9375 18.59375 C13.55067831 19.87991702 14.16460453 21.16572776 14.77929688 22.45117188 C15.97677014 24.96007753 17.16292869 27.47383556 18.33935547 29.99267578 C19.39356746 32.23903695 20.4637144 34.47804269 21.55517578 36.70654297 C22.01263184 37.65803223 22.47008789 38.60952148 22.94140625 39.58984375 C23.34174072 40.40638428 23.7420752 41.2229248 24.15454102 42.06420898 C25.17546116 45.04324393 25.25837384 47.40193601 25 50.53125 C23.08579729 53.15441667 21.63747948 54.27961336 18.625 55.46875 C14.86852105 55.55818997 13.15572934 54.59905144 10 52.53125 C8.05157123 49.78927452 6.69301795 46.82818813 5.29296875 43.77734375 C4.88210526 42.92068619 4.47124176 42.06402863 4.04792786 41.18141174 C2.74360617 38.45178568 1.46535181 35.7108521 0.1875 32.96875 C-0.69035647 31.1196343 -1.56989585 29.27131654 -2.45117188 27.42382812 C-4.38270479 23.36716759 -6.29784028 19.30323079 -8.19880676 15.23216248 C-8.78344959 13.99098091 -9.3864303 12.75838941 -10 11.53125 C-10.35173852 7.73247401 -10.52701444 5.38764847 -8.5 2.09375 C-5.48763856 0.2110241 -3.4842503 0.05444141 0 0 Z " fill="#000000" transform="translate(168,59.46875)"/>
<path d="M0 0 C2.5625 1.4375 2.5625 1.4375 4 4 C3.87388162 11.94545799 1.11054476 17.62285851 -2.5625 24.5625 C-3.6551884 26.6795634 -4.74763551 28.79675135 -5.83984375 30.9140625 C-6.37722168 31.9443457 -6.91459961 32.97462891 -7.46826172 34.03613281 C-8.84727384 36.70447951 -10.18762316 39.3862306 -11.50390625 42.0859375 C-11.86734131 42.83029053 -12.23077637 43.57464355 -12.60522461 44.34155273 C-13.26942471 45.7066851 -13.9305546 47.07331692 -14.58813477 48.44165039 C-16.77775075 52.88887537 -16.77775075 52.88887537 -19 54 C-26.11748879 54.68878924 -26.11748879 54.68878924 -29.5625 52 C-31.42960045 48.10344253 -30.91071887 45.08641049 -30 41 C-28.58886719 37.49658203 -28.58886719 37.49658203 -26.796875 34.0078125 C-26.47720764 33.37696747 -26.15754028 32.74612244 -25.82818604 32.09616089 C-24.81338399 30.09977894 -23.78221951 28.11242217 -22.75 26.125 C-22.07309556 24.80135504 -21.39730563 23.47713951 -20.72265625 22.15234375 C-19.42113502 19.5991275 -18.11116279 17.05053804 -16.79492188 14.50488281 C-14.80430876 10.61788038 -12.89194743 6.69718398 -11.01660156 2.75341797 C-8.71842671 -1.21043692 -4.06189498 -0.54479065 0 0 Z " fill="#000000" transform="translate(350,60)"/>
<path d="M0 0 C0.66 -0.0103125 1.32 -0.020625 2 -0.03125 C5.10106741 0.79247103 6.0844423 1.89453762 8 4.5 C8.61070742 7.84816883 8.56025275 11.16294524 8.53125 14.55859375 C8.5350769 15.53989761 8.53890381 16.52120148 8.54284668 17.53224182 C8.54556651 19.60589627 8.53820038 21.67958498 8.52148438 23.75317383 C8.50009905 26.92281897 8.52127223 30.09019151 8.546875 33.25976562 C8.54423129 35.27604666 8.53910541 37.29232628 8.53125 39.30859375 C8.53934692 40.25455917 8.54744385 41.2005246 8.55578613 42.17515564 C8.49471066 46.47485411 8.39003265 48.86729478 6.09179688 52.59545898 C3.84559184 54.64058567 2.99237282 55.18344478 0 55.125 C-0.99 55.14433594 -0.99 55.14433594 -2 55.1640625 C-5.26105303 54.08129099 -6.20450898 52.41261907 -8 49.5 C-8.59223514 46.10279355 -8.56070817 42.75019853 -8.53125 39.30859375 C-8.5350769 38.32633316 -8.53890381 37.34407257 -8.54284668 36.33204651 C-8.54556328 34.26017224 -8.53821976 32.18826353 -8.52148438 30.11645508 C-8.50004865 26.94469893 -8.5213068 23.77520203 -8.546875 20.60351562 C-8.54423213 18.58853667 -8.53910799 16.57355912 -8.53125 14.55859375 C-8.54339539 13.13660927 -8.54339539 13.13660927 -8.55578613 11.68589783 C-8.46231357 5.1288198 -8.46231357 5.1288198 -6.09179688 1.90454102 C-3.8326058 0.38760285 -2.6969578 -0.04213997 0 0 Z " fill="#000000" transform="translate(256,44.5)"/>
<path d="M0 0 C2.4375 2.125 2.4375 2.125 4 5 C3.77073932 11.546666 1.06012381 16.86014789 -1.75 22.6875 C-2.18054688 23.62400391 -2.61109375 24.56050781 -3.0546875 25.52539062 C-7.26183597 34.34906578 -7.26183597 34.34906578 -12 37 C-14.87138504 37.46804628 -17.2784608 37.00514731 -20 36 C-22.0625 33.875 -22.0625 33.875 -23 31 C-22.74053839 24.18242261 -19.78586538 18.75831843 -16.75 12.75 C-16.27175781 11.75742188 -15.79351562 10.76484375 -15.30078125 9.7421875 C-14.82511719 8.79085937 -14.34945313 7.83953125 -13.859375 6.859375 C-13.43108398 5.99795898 -13.00279297 5.13654297 -12.56152344 4.24902344 C-9.22604119 -0.55498883 -5.50611712 -1.87442285 0 0 Z " fill="#000000" transform="translate(423,103)"/>
<path d="M0 0 C4.18844735 5.17058327 6.99824091 11.66329531 9.875 17.625 C10.29007813 18.44484375 10.70515625 19.2646875 11.1328125 20.109375 C13.37646429 24.76121305 14.74503689 27.85754617 13 33 C11 36 11 36 7.1875 36.9375 C4.33410927 37.4176644 3.18076998 37.097315 0.60546875 35.7109375 C-3.34284075 31.60280137 -5.45816072 26.80570065 -7.875 21.6875 C-8.38546875 20.66720703 -8.8959375 19.64691406 -9.421875 18.59570312 C-12.12983961 12.93459333 -13.92220605 9.12288908 -12 3 C-8.84705495 -1.29947053 -4.85814126 -1.65176803 0 0 Z " fill="#000000" transform="translate(98,103)"/>
</svg>
