<?xml version="1.0" encoding="UTF-8"?>
<svg version="1.1" xmlns="http://www.w3.org/2000/svg" width="512" height="512">
<path d="M0 0 C1.79730307 1.15051241 3.5798693 2.32407954 5.35546875 3.5078125 C6.24298828 2.89292969 6.24298828 2.89292969 7.1484375 2.265625 C8.33373047 1.45738281 8.33373047 1.45738281 9.54296875 0.6328125 C10.32027344 0.09914063 11.09757813 -0.43453125 11.8984375 -0.984375 C19.12340695 -5.41814003 27.10080819 -5.65272017 35.35546875 -4.4921875 C42.80278775 -2.15919236 49.27746496 1.70606737 53.35546875 8.5078125 C54.73046875 11.9453125 54.73046875 11.9453125 55.35546875 14.5078125 C55.81953125 14.2190625 56.28359375 13.9303125 56.76171875 13.6328125 C64.129318 9.67410246 72.19995621 9.19005657 80.35546875 10.5078125 C87.789604 12.86375906 94.37084377 16.65026041 98.35546875 23.5078125 C100.20761866 27.44424845 101.84218362 31.4299778 103.35546875 35.5078125 C103.87753906 35.29125 104.39960938 35.0746875 104.9375 34.8515625 C112.91172015 31.8350449 120.41342772 31.17759238 128.54296875 34.0703125 C136.57185299 37.7024268 142.53729027 43.56010193 146.35546875 51.5078125 C147.50468896 55.02351905 147.66070365 58.58259675 147.91796875 62.2578125 C148.04365234 64.01351562 148.04365234 64.01351562 148.171875 65.8046875 C148.23246094 66.69671875 148.29304688 67.58875 148.35546875 68.5078125 C149.42796875 68.0128125 150.50046875 67.5178125 151.60546875 67.0078125 C159.74772494 64.00121967 168.19844861 64.59679606 176.0390625 68.18359375 C182.6198398 71.94562327 188.55102978 77.34343601 191.35546875 84.5078125 C192.31257577 89.15303872 192.91131192 93.78781753 193.35546875 98.5078125 C194.42796875 98.0128125 195.50046875 97.5178125 196.60546875 97.0078125 C205.03442773 93.90084173 213.60192049 94.82753705 221.80859375 98.171875 C227.5304866 101.17323598 232.69000625 105.51052186 235.35546875 111.5078125 C235.35546875 112.4978125 235.35546875 113.4878125 235.35546875 114.5078125 C236.0103125 114.2190625 236.66515625 113.9303125 237.33984375 113.6328125 C246.21306828 110.02336523 254.40891702 108.81701472 263.60546875 112.0703125 C271.59259825 115.72413579 277.55008175 121.58672797 281.35546875 129.5078125 C282.16073696 132.26164686 282.49734934 134.76985074 282.56079102 137.63378906 C282.58073624 138.43431702 282.60068146 139.23484497 282.62123108 140.05963135 C282.64629982 141.34109039 282.64629982 141.34109039 282.671875 142.6484375 C282.6926561 143.53061951 282.71343719 144.41280151 282.73484802 145.32171631 C282.80011742 148.13367081 282.85912322 150.94571695 282.91796875 153.7578125 C282.96117548 155.66667606 283.00479046 157.57553043 283.04882812 159.484375 C283.15577562 164.15876076 283.2571066 168.83323852 283.35546875 173.5078125 C283.8975296 173.29628036 284.43959045 173.08474823 284.99807739 172.86680603 C285.71301361 172.59228104 286.42794983 172.31775604 287.16455078 172.03491211 C287.87161163 171.76150497 288.57867249 171.48809784 289.30715942 171.20640564 C296.45908104 168.76718256 304.31765775 170.10879382 311.0390625 173.18359375 C318.08145821 177.20951643 324.53084499 183.37397658 326.9035759 191.35038376 C327.37528807 193.60243398 327.48691288 195.62166274 327.49591064 197.92120361 C327.50162079 198.79862717 327.50733093 199.67605072 327.51321411 200.58006287 C327.51433197 201.53494095 327.51544983 202.48981903 327.51660156 203.47363281 C327.52156647 204.48549149 327.52653137 205.49735016 327.53164673 206.53987122 C327.54625567 209.88856689 327.55306855 213.23721518 327.55859375 216.5859375 C327.56434659 218.91518149 327.57010431 221.24442547 327.5758667 223.57366943 C327.58637332 228.45943421 327.5922181 233.34518255 327.59570312 238.23095703 C327.6011847 244.48310356 327.6252072 250.73503197 327.65367508 256.98711014 C327.6723247 261.79989247 327.67750832 266.61262252 327.679039 271.42543793 C327.68206119 273.7298578 327.69007502 276.03427685 327.70322418 278.33866119 C327.7203316 281.56741287 327.71839265 284.79563511 327.71191406 288.02441406 C327.72112885 288.97119522 327.73034363 289.91797638 327.73983765 290.89344788 C327.67771414 300.80686527 324.58811952 307.0789212 317.765625 314.30078125 C311.04965412 320.45073838 304.05859966 321.54413267 295.24609375 321.8359375 C292.4825879 321.52224224 290.29485706 320.88474519 287.67480469 319.98730469 C286.460961 319.57408966 286.460961 319.57408966 285.22259521 319.15252686 C284.60644348 318.93977112 283.99029175 318.72701538 283.35546875 318.5078125 C283.35626434 319.08251282 283.35705994 319.65721313 283.35787964 320.24932861 C283.36033648 326.28556899 283.32074114 332.32054038 283.2578125 338.35644531 C283.23975653 340.60247897 283.2320649 342.84862274 283.23535156 345.09472656 C283.25814435 370.73661396 283.25814435 370.73661396 274.61499023 380.46728516 C272.96362662 382.08556508 271.31296399 383.28133208 269.35546875 384.5078125 C268.73414063 384.91773438 268.1128125 385.32765625 267.47265625 385.75 C260.49304637 389.59807389 252.0950183 389.75835774 244.35546875 388.5078125 C235.72799065 385.7736845 229.85129815 381.33880674 225.24511719 373.65576172 C221.77488905 366.81562958 221.88829779 360.49200335 222.10546875 352.9453125 C222.12351562 351.74583984 222.1415625 350.54636719 222.16015625 349.31054688 C222.20693067 346.37545198 222.27246292 343.44206847 222.35546875 340.5078125 C221.35902344 340.99121094 220.36257813 341.47460938 219.3359375 341.97265625 C212.00492729 345.0939982 203.14769887 344.8764369 195.71875 342.1953125 C192.83629739 340.74887066 190.08944426 339.21536468 187.35546875 337.5078125 C186.69546875 337.1778125 186.03546875 336.8478125 185.35546875 336.5078125 C185.04843018 337.32459473 184.7413916 338.14137695 184.42504883 338.98291016 C183.26959274 342.03938986 182.10358607 345.09140958 180.93041992 348.14111328 C180.42684738 349.45656149 179.92741312 350.77360225 179.43237305 352.09228516 C175.56907308 362.37107519 172.01698056 368.82161344 163.10546875 375.5078125 C161.86441313 376.46032436 160.62490124 377.41485005 159.38671875 378.37109375 C158.73445313 378.87463379 158.0821875 379.37817383 157.41015625 379.89697266 C153.75411554 382.76324602 150.18261365 385.73159624 146.60546875 388.6953125 C141.44845509 392.96120149 136.27650107 397.20103684 131.03515625 401.36328125 C128.78088662 403.16735418 126.53850435 404.98410693 124.30078125 406.80859375 C123.57898682 407.39697021 122.85719238 407.98534668 122.11352539 408.59155273 C120.67431239 409.76574441 119.23596657 410.94099998 117.79858398 412.11743164 C117.13802002 412.6561792 116.47745605 413.19492676 115.796875 413.75 C115.20592041 414.2332373 114.61496582 414.71647461 114.00610352 415.21435547 C112.51091169 416.38600557 110.93600573 417.45412118 109.35546875 418.5078125 C109.9916229 424.590708 111.17313901 430.35136408 112.68359375 436.2734375 C112.91447693 437.18808777 113.14536011 438.10273804 113.38323975 439.04510498 C113.87159361 440.97196204 114.36254438 442.89816261 114.85595703 444.82373047 C115.59909739 447.7328708 116.32727276 450.64548733 117.0546875 453.55859375 C121.16396833 472.05613989 121.16396833 472.05613989 131.35546875 487.5078125 C135.30248269 489.85922506 138.93125659 491.03307511 143.35546875 492.5078125 C143.35546875 497.4578125 143.35546875 502.4078125 143.35546875 507.5078125 C125.53546875 507.5078125 107.71546875 507.5078125 89.35546875 507.5078125 C89.35546875 502.5578125 89.35546875 497.6078125 89.35546875 492.5078125 C96.94546875 492.1778125 104.53546875 491.8478125 112.35546875 491.5078125 C111.50984375 489.8990625 110.66421875 488.2903125 109.79296875 486.6328125 C106.7972516 480.1222141 104.81885579 473.55210835 102.98046875 466.6328125 C102.68156738 465.53445068 102.38266602 464.43608887 102.07470703 463.30444336 C100.58927883 457.7137528 99.25067419 452.13922317 98.21362305 446.44992065 C95.57546059 429.08541798 95.57546059 429.08541798 85.28320312 415.80419922 C81.7879019 413.75777487 78.20266843 411.95091638 74.56005859 410.18212891 C68.12462738 406.81978034 62.19117407 402.61135799 56.16796875 398.5703125 C53.4192932 396.73361825 50.66654273 394.90322626 47.91015625 393.078125 C47.21371506 392.61630325 46.51727386 392.15448151 45.79972839 391.67866516 C41.50102984 388.85098023 37.14284084 386.16228415 32.70697021 383.55555725 C13.02721931 371.97527633 1.96610582 362.46490215 -7.07617188 341.11962891 C-9.77596194 334.90221076 -12.92373214 328.93899341 -16.08203125 322.9453125 C-16.62625732 321.83897461 -17.1704834 320.73263672 -17.73120117 319.59277344 C-21.02792246 313.04078798 -21.02792246 313.04078798 -27.0546875 309.29296875 C-28.23933594 309.03386719 -29.42398438 308.77476562 -30.64453125 308.5078125 C-31.2733659 316.41206498 -29.70037977 322.16461964 -26.55859375 329.37109375 C-26.14161224 330.36610397 -25.72463074 331.3611142 -25.29501343 332.38627625 C-23.96973307 335.53825467 -22.62025159 338.67916412 -21.26953125 341.8203125 C-20.36945262 343.94787416 -19.47099913 346.07612413 -18.57421875 348.20507812 C-16.59996035 352.88573014 -14.61027345 357.55946611 -12.60635376 362.22749329 C-11.91254405 363.87239929 -11.25364651 365.53218389 -10.6171875 367.20011902 C-9.52073148 369.80153591 -8.55419608 370.74049214 -6.29296875 372.3828125 C-5.61459961 372.88643311 -4.93623047 373.39005371 -4.23730469 373.90893555 C-3.50543945 374.43656494 -2.77357422 374.96419434 -2.01953125 375.5078125 C-0.46841625 376.65795339 1.08102321 377.81035689 2.62890625 378.96484375 C3.41749023 379.55088379 4.20607422 380.13692383 5.01855469 380.74072266 C8.6236323 383.46675188 12.11553835 386.32426708 15.60546875 389.1953125 C22.41730932 394.77796758 29.35268155 400.16702013 36.35546875 405.5078125 C39.36044811 407.83478816 42.35829636 410.17079877 45.35546875 412.5078125 C44.0267989 420.4028613 42.31098506 428.14336328 40.34375 435.90234375 C40.05243698 437.05216232 39.76112396 438.2019809 39.46098328 439.38664246 C38.84555325 441.8049898 38.22774458 444.22273297 37.60766602 446.63989258 C36.98303382 449.0863281 36.36547369 451.53458057 35.75512695 453.98461914 C32.44038667 467.28915907 29.20742438 479.57186411 22.35546875 491.5078125 C29.94546875 491.8378125 37.53546875 492.1678125 45.35546875 492.5078125 C45.35546875 497.4578125 45.35546875 502.4078125 45.35546875 507.5078125 C27.86546875 507.5078125 10.37546875 507.5078125 -7.64453125 507.5078125 C-7.64453125 502.2278125 -7.64453125 496.9478125 -7.64453125 491.5078125 C-6.46890625 491.3015625 -5.29328125 491.0953125 -4.08203125 490.8828125 C1.93612156 489.31193664 5.67306296 486.31408303 8.87698364 480.96990967 C12.53272729 473.77157004 14.9369858 466.80536004 16.78515625 458.9609375 C17.06521515 457.82372253 17.34527405 456.68650757 17.63381958 455.51483154 C18.51285262 451.93228863 19.37197617 448.34532647 20.23046875 444.7578125 C20.82810878 442.30696982 21.42705568 439.85644543 22.02734375 437.40625 C23.48515817 431.44369482 24.92672147 425.47739555 26.35546875 419.5078125 C14.24084859 409.58633798 14.24084859 409.58633798 1.85546875 400.0078125 C-3.98611703 395.57012482 -9.78839151 391.08749037 -15.51953125 386.5078125 C-16.19177734 385.97994141 -16.86402344 385.45207031 -17.55664062 384.90820312 C-18.18119141 384.40482422 -18.80574219 383.90144531 -19.44921875 383.3828125 C-19.99562012 382.94710938 -20.54202148 382.51140625 -21.10498047 382.0625 C-25.04957524 378.07912234 -26.91578051 372.75361182 -29 367.65234375 C-29.45974968 366.53807259 -29.45974968 366.53807259 -29.92878723 365.40129089 C-30.57191795 363.83970409 -31.21305303 362.27729406 -31.85229492 360.71411133 C-32.83400372 358.31549316 -33.82377856 355.92031759 -34.81445312 353.52539062 C-35.43928483 352.00540669 -36.06365031 350.485231 -36.6875 348.96484375 C-37.13273262 347.88829277 -37.13273262 347.88829277 -37.58695984 346.78999329 C-39.64453125 341.7380871 -39.64453125 341.7380871 -39.64453125 339.5078125 C-40.18980469 339.90613281 -40.73507813 340.30445313 -41.296875 340.71484375 C-49.47996939 346.46399212 -57.46356233 349.98289606 -67.64453125 348.5078125 C-70.67787396 347.59857698 -73.66409377 346.5767766 -76.64453125 345.5078125 C-76.64283936 346.91305176 -76.64283936 346.91305176 -76.64111328 348.34667969 C-76.65114241 351.88129359 -76.68805942 355.41364145 -76.7421875 358.94775391 C-76.76016132 360.46622068 -76.76795039 361.98484841 -76.76464844 363.50341797 C-76.75015872 374.47938148 -77.79654038 383.82556624 -85.38500977 392.49658203 C-87.04041115 394.08796805 -88.70003133 395.28947438 -90.64453125 396.5078125 C-91.57652344 397.12269531 -91.57652344 397.12269531 -92.52734375 397.75 C-99.50695363 401.59807389 -107.9049817 401.75835774 -115.64453125 400.5078125 C-124.27490889 397.77276561 -130.06253628 393.34816087 -134.73730469 385.72607422 C-138.47936828 378.45223592 -138.31339008 370.93016954 -138.39453125 362.9453125 C-138.42274438 361.5409797 -138.45267911 360.13668038 -138.484375 358.73242188 C-138.5546484 355.32416182 -138.60755923 351.9165692 -138.64453125 348.5078125 C-139.84335938 348.99378906 -141.0421875 349.47976563 -142.27734375 349.98046875 C-149.44269745 352.65526093 -156.68592584 352.51823012 -163.89453125 349.9453125 C-171.88166075 346.29148921 -177.83914425 340.42889703 -181.64453125 332.5078125 C-182.58024734 329.43579253 -182.76813794 326.67581212 -182.76478577 323.47113037 C-182.76616043 322.45593323 -182.7675351 321.44073608 -182.76895142 320.39477539 C-182.7635585 318.73321411 -182.7635585 318.73321411 -182.75805664 317.03808594 C-182.75820267 315.86707336 -182.75834869 314.69606079 -182.75849915 313.48956299 C-182.75780197 309.61541904 -182.75001862 305.74132306 -182.7421875 301.8671875 C-182.73976746 299.18247504 -182.73884986 296.49776264 -182.73789978 293.81304932 C-182.73479259 287.46663291 -182.72658744 281.12023375 -182.71655029 274.77382493 C-182.70537016 267.54775355 -182.69987391 260.32168134 -182.69485486 253.09560347 C-182.68440433 238.23299692 -182.66661512 223.37040646 -182.64453125 208.5078125 C-177.69453125 208.5078125 -172.74453125 208.5078125 -167.64453125 208.5078125 C-167.63866501 209.89097153 -167.63279877 211.27413055 -167.62675476 212.69920349 C-167.56948116 225.74973498 -167.49669494 238.80010058 -167.40881634 251.85046291 C-167.36393989 258.55939089 -167.32450672 265.26826674 -167.2980957 271.97729492 C-167.27204019 278.45483314 -167.23162112 284.93213862 -167.18134499 291.40953255 C-167.16469162 293.87775841 -167.15316785 296.34602451 -167.14691734 298.81429863 C-167.13725997 302.27805718 -167.10917957 305.74122233 -167.0769043 309.20483398 C-167.07833939 310.21975922 -167.07977448 311.23468445 -167.08125305 312.28036499 C-166.98705113 319.45367141 -166.30699588 326.37550117 -161.51953125 332.0078125 C-157.57799046 334.06426856 -154.08024147 334.69589915 -149.64453125 334.5078125 C-144.42595105 332.83392828 -142.22151092 330.27999707 -139.64453125 325.5078125 C-138.67066663 321.74093957 -138.51475575 318.19198537 -138.50408936 314.31048584 C-138.49837921 313.06291 -138.49266907 311.81533417 -138.48678589 310.529953 C-138.48554069 309.15505991 -138.48441556 307.78016671 -138.48339844 306.40527344 C-138.47876691 304.95117569 -138.4737418 303.49707915 -138.46835327 302.04298401 C-138.45525923 298.09858716 -138.44879014 294.15420731 -138.44434261 290.20979214 C-138.44140695 287.74277711 -138.43730121 285.27576667 -138.43283844 282.80875397 C-138.41917119 275.08216523 -138.40950084 267.35558706 -138.40563655 259.62898707 C-138.40115803 250.72440056 -138.38361647 241.81996772 -138.35463595 232.91542792 C-138.33298538 226.02267131 -138.32293046 219.12995783 -138.32159543 212.2371676 C-138.32054979 208.12496795 -138.31469349 204.01291291 -138.29677582 199.90074921 C-138.28023666 196.02979956 -138.27816777 192.15910231 -138.28691483 188.28812981 C-138.28768209 186.8728486 -138.28338366 185.4575535 -138.27345657 184.0423069 C-138.08467938 171.15656505 -138.08467938 171.15656505 -143.76953125 160.0078125 C-147.71107204 157.95135644 -151.20882103 157.31972585 -155.64453125 157.5078125 C-160.86311145 159.18169672 -163.06755158 161.73562793 -165.64453125 166.5078125 C-166.52061024 170.02344921 -166.81960126 173.41317408 -166.9609375 177.02734375 C-167.00283203 178.04892578 -167.04472656 179.07050781 -167.08789062 180.12304688 C-167.12720703 181.17814453 -167.16652344 182.23324219 -167.20703125 183.3203125 C-167.25021484 184.39474609 -167.29339844 185.46917969 -167.33789062 186.57617188 C-167.44364027 189.21991301 -167.54455828 191.86384662 -167.64453125 194.5078125 C-172.59453125 194.5078125 -177.54453125 194.5078125 -182.64453125 194.5078125 C-182.71380013 190.23879684 -182.77340684 185.97176881 -182.80932617 181.70263672 C-182.82431542 180.25367589 -182.84471396 178.80475967 -182.87084961 177.35595703 C-183.08980211 164.89713019 -181.97072695 157.15279771 -173.0546875 147.71484375 C-166.33871662 141.56488662 -159.34766216 140.47149233 -150.53515625 140.1796875 C-147.7716504 140.49338276 -145.58391956 141.13087981 -142.96386719 142.02832031 C-142.15463806 142.303797 -141.34540894 142.57927368 -140.51165771 142.86309814 C-139.58743011 143.18223175 -139.58743011 143.18223175 -138.64453125 143.5078125 C-138.62994873 142.24710938 -138.61536621 140.98640625 -138.6003418 139.6875 C-138.54210638 134.98328135 -138.46487562 130.27952877 -138.38208008 125.57568359 C-138.34894912 123.54483641 -138.32088082 121.51389976 -138.2980957 119.48291016 C-138.26433148 116.55332532 -138.21200526 113.6245516 -138.15625 110.6953125 C-138.14986008 109.79603027 -138.14347015 108.89674805 -138.1368866 107.97021484 C-137.91123385 98.16295956 -134.80561276 91.86844209 -128.05859375 84.71484375 C-122.40337678 79.54462112 -116.03477602 77.38902886 -108.45703125 77.2578125 C-107.57660156 77.23203125 -106.69617188 77.20625 -105.7890625 77.1796875 C-101.49860984 77.62738691 -97.6786449 79.02746527 -93.64453125 80.5078125 C-93.62994873 79.79238281 -93.61536621 79.07695313 -93.6003418 78.33984375 C-93.52533912 75.06198814 -93.4288517 71.78509333 -93.33203125 68.5078125 C-93.30947266 67.38246094 -93.28691406 66.25710937 -93.26367188 65.09765625 C-92.9133132 54.20468656 -90.63989458 47.75299821 -83.05859375 39.71484375 C-76.43321776 33.65766344 -69.25801073 32.22662444 -60.55078125 32.2734375 C-56.27359477 32.61837189 -52.60029298 33.9312408 -48.64453125 35.5078125 C-48.64195312 34.34765625 -48.639375 33.1875 -48.63671875 31.9921875 C-48.43850191 21.12057687 -47.34741867 12.20428173 -40.0078125 3.5859375 C-38.30727733 1.98450112 -36.6222689 0.74697592 -34.64453125 -0.4921875 C-34.02320313 -0.90210938 -33.401875 -1.31203125 -32.76171875 -1.734375 C-22.27454164 -7.51627873 -9.95838869 -5.68658333 0 0 Z M-30.27270508 17.54760742 C-32.22505199 21.76049341 -32.12338086 25.59064363 -32.15625 30.18359375 C-32.1831768 31.57133247 -32.1831768 31.57133247 -32.21064758 32.98710632 C-32.26467204 35.93146253 -32.29862116 38.87565734 -32.33203125 41.8203125 C-32.36521126 43.82098596 -32.39970155 45.82163815 -32.43554688 47.82226562 C-32.52039409 52.71733134 -32.58724291 57.61234983 -32.64453125 62.5078125 C-40.56453125 63.0028125 -40.56453125 63.0028125 -48.64453125 63.5078125 C-49.13953125 60.0428125 -49.13953125 60.0428125 -49.64453125 56.5078125 C-51.34490253 53.28364695 -53.81990827 51.03465496 -56.89453125 49.0703125 C-61.5645262 48.11508626 -66.25671126 48.1520164 -70.48828125 50.5546875 C-73.38461323 52.85471584 -75.28875836 55.09902594 -76.64453125 58.5078125 C-76.9317214 60.93034889 -76.9317214 60.93034889 -76.87158203 63.55175781 C-76.87135544 65.05286102 -76.87135544 65.05286102 -76.87112427 66.58428955 C-76.8608017 67.65733337 -76.85047913 68.7303772 -76.83984375 69.8359375 C-76.83559891 71.49215118 -76.83559891 71.49215118 -76.83126831 73.18182373 C-76.82007614 76.7072637 -76.794973 80.23244935 -76.76953125 83.7578125 C-76.75950022 86.14843383 -76.75037458 88.53905914 -76.7421875 90.9296875 C-76.7201399 96.78916045 -76.68561636 102.64844336 -76.64453125 108.5078125 C-82.25453125 108.5078125 -87.86453125 108.5078125 -93.64453125 108.5078125 C-93.97453125 106.1978125 -94.30453125 103.8878125 -94.64453125 101.5078125 C-96.34490253 98.28364695 -98.81990827 96.03465496 -101.89453125 94.0703125 C-106.5645262 93.11508626 -111.25671126 93.1520164 -115.48828125 95.5546875 C-118.38558131 97.85548461 -120.27524882 100.10471016 -121.64453125 103.5078125 C-121.94357787 105.77933214 -121.94357787 105.77933214 -121.90180016 108.23116875 C-121.90824905 109.18291634 -121.91469794 110.13466394 -121.92134225 111.11525238 C-121.91824505 112.15784623 -121.91514785 113.20044008 -121.91195679 114.27462769 C-121.9164879 115.38453823 -121.92101901 116.49444878 -121.92568743 117.63799298 C-121.93838414 121.37052028 -121.93670765 125.10290266 -121.93505859 128.83544922 C-121.94104053 131.50607856 -121.94778835 134.1766964 -121.95541382 136.84732056 C-121.97203051 143.35662253 -121.97752366 149.86588827 -121.97863857 156.37520967 C-121.9795887 161.6658771 -121.98369724 166.95653256 -121.99003983 172.2471962 C-122.00765383 187.24498342 -122.01687841 202.24274201 -122.01537888 217.24053966 C-122.01529897 218.0491645 -122.01521905 218.85778934 -122.01513672 219.69091797 C-122.01505496 220.50052932 -122.0149732 221.31014067 -122.01488896 222.14428569 C-122.01407594 235.26707602 -122.033217 248.3897516 -122.06141345 261.51250874 C-122.09013244 274.98468037 -122.1039543 288.45679603 -122.1022259 301.92899907 C-122.10156167 309.49351606 -122.10706836 317.05791275 -122.128582 324.62240219 C-122.14678085 331.0626683 -122.1511519 337.50275957 -122.13756315 343.94304024 C-122.13102685 347.22893508 -122.13310756 350.51442421 -122.14826965 353.8003006 C-122.16364576 357.36284567 -122.15446342 360.9245048 -122.13900757 364.48703003 C-122.14929469 365.52516244 -122.15958182 366.56329485 -122.17018068 367.63288581 C-122.11296764 373.58561465 -121.582363 376.9583332 -117.64453125 381.5078125 C-113.80739929 384.89351717 -110.01051663 385.02072422 -105.08203125 384.859375 C-101.43657107 384.33358747 -99.35347775 382.95247154 -96.64453125 380.5078125 C-92.36937106 374.75845914 -92.499111 368.867695 -92.52427673 361.93412781 C-92.52342231 361.07230969 -92.52256788 360.21049157 -92.52168757 359.32255775 C-92.52004099 356.43596459 -92.5255407 353.5494296 -92.53100586 350.6628418 C-92.53128793 348.59316509 -92.5311296 346.52348829 -92.53056335 344.45381165 C-92.53027617 338.83444348 -92.53616015 333.21509661 -92.54313731 327.5957334 C-92.54938399 321.72339469 -92.54997569 315.85105551 -92.55116272 309.97871399 C-92.55427215 298.85826206 -92.56248033 287.73781994 -92.57251221 276.61737233 C-92.58368538 263.95728091 -92.58918684 251.29718903 -92.59420764 238.6370939 C-92.60466324 212.59399447 -92.62245638 186.55090445 -92.64453125 160.5078125 C-87.36453125 160.5078125 -82.08453125 160.5078125 -76.64453125 160.5078125 C-76.65785492 163.53214951 -76.65785492 163.53214951 -76.67144775 166.61758423 C-76.75316153 185.5995087 -76.81270278 204.58140999 -76.85177994 223.56347084 C-76.87240491 233.32282073 -76.90052429 243.08204155 -76.94628906 252.84130859 C-76.98615879 261.34752087 -77.01196454 269.85363967 -77.02088523 278.35994279 C-77.02609975 282.86397712 -77.03835438 287.36774404 -77.06745148 291.87169266 C-77.09462275 296.1119388 -77.10297282 300.35180764 -77.09696198 304.59213257 C-77.09806145 306.14736355 -77.10600535 307.70260728 -77.12135315 309.25776291 C-77.14130907 311.38434928 -77.13645162 313.50951851 -77.12554932 315.63613892 C-77.13108007 317.41980834 -77.13108007 317.41980834 -77.13672256 319.23951149 C-76.4310958 323.92508926 -74.1355863 326.90630893 -70.95703125 330.3203125 C-67.31200276 332.19208389 -63.72114675 332.62124876 -59.64453125 332.5078125 C-54.91571791 330.90180042 -52.31647494 328.70658115 -49.64453125 324.5078125 C-47.62223335 318.84690552 -47.36874288 313.78605221 -47.41748047 307.80883789 C-47.41718842 306.86171936 -47.41689636 305.91460083 -47.41659546 304.93878174 C-47.41798189 301.8275822 -47.43351075 298.71662614 -47.44921875 295.60546875 C-47.45295132 293.44071076 -47.45579714 291.27595108 -47.45779419 289.1111908 C-47.46541142 283.42796115 -47.48504352 277.74483458 -47.50720215 272.06164551 C-47.52770175 266.25660598 -47.5368047 260.45154971 -47.546875 254.64648438 C-47.5682912 243.26688193 -47.60240408 231.8873558 -47.64453125 220.5078125 C-42.36453125 220.5078125 -37.08453125 220.5078125 -31.64453125 220.5078125 C-31.66547852 222.44543457 -31.68642578 224.38305664 -31.70800781 226.37939453 C-31.77260357 232.79347081 -31.81851318 239.20746989 -31.85177994 245.6217823 C-31.87262245 249.50943353 -31.90087806 253.39673165 -31.94628906 257.28417969 C-31.98986744 261.03839445 -32.01369344 264.79227036 -32.02404022 268.5467186 C-32.03141023 269.97643236 -32.04580239 271.40612833 -32.06745148 272.83569717 C-32.09663885 274.84356731 -32.09816645 276.85178107 -32.09863281 278.85986328 C-32.11195648 280.5719548 -32.11195648 280.5719548 -32.12554932 282.31863403 C-31.40526129 287.09418663 -29.09955866 290.22396478 -25.51953125 293.3828125 C-21.20104483 295.07265501 -17.21782605 295.16742233 -12.64453125 294.5078125 C-8.17641659 292.3143744 -5.73589769 290.02076113 -3.64453125 285.5078125 C-2.7196178 281.78128904 -2.52091167 278.31051357 -2.52427673 274.47770691 C-2.52290207 273.26760956 -2.5215274 272.05751221 -2.52011108 270.81074524 C-2.52370636 269.49156601 -2.52730164 268.17238678 -2.53100586 266.81323242 C-2.53128807 265.40364585 -2.53112933 263.99405914 -2.53056335 262.58447266 C-2.53027671 258.76462971 -2.53615202 254.94481823 -2.54313731 251.1249826 C-2.54939291 247.13046793 -2.5499764 243.13595252 -2.55116272 239.14143372 C-2.55426952 231.58028426 -2.56247415 224.01914929 -2.57251221 216.4580062 C-2.58369354 207.84862437 -2.58918889 199.23924185 -2.59420764 190.62985456 C-2.6046573 172.92249877 -2.62244583 155.21515733 -2.64453125 137.5078125 C2.30546875 137.8378125 7.25546875 138.1678125 12.35546875 138.5078125 C12.36093719 141.25026779 12.36093719 141.25026779 12.36651611 144.04812622 C12.40343076 161.2642557 12.46092748 178.48020742 12.53937149 195.69619942 C12.57917333 204.54746935 12.61155999 213.39865024 12.62646484 222.25 C12.63947545 229.96524776 12.66642491 237.68029966 12.71008182 245.39543712 C12.73271006 249.4802264 12.74837862 253.56477399 12.7473526 257.6496315 C12.74660678 261.49603002 12.76452556 265.34189401 12.79663658 269.18815422 C12.80514132 270.59820938 12.80688155 272.00832445 12.80127144 273.41839409 C12.54856641 283.32943414 12.54856641 283.32943414 17.35546875 291.5078125 C21.19260071 294.89351717 24.98948337 295.02072422 29.91796875 294.859375 C33.56342893 294.33358747 35.64652225 292.95247154 38.35546875 290.5078125 C42.15703073 285.39536708 42.48167187 280.47354511 42.46899414 274.2487793 C42.46891861 273.00787033 42.46884308 271.76696136 42.46876526 270.4884491 C42.46365947 269.14464273 42.45844349 267.80083679 42.453125 266.45703125 C42.4512584 265.07412263 42.44983564 263.69121335 42.44883728 262.30830383 C42.44503112 258.68006544 42.43521718 255.0518675 42.4241333 251.42364502 C42.4138782 247.71668037 42.4093309 244.00970914 42.40429688 240.30273438 C42.3935931 233.0377399 42.37601181 225.77278704 42.35546875 218.5078125 C47.30546875 218.5078125 52.25546875 218.5078125 57.35546875 218.5078125 C57.35102753 219.83277237 57.3465863 221.15773224 57.3420105 222.52284241 C57.30145173 235.01465913 57.2714782 247.50646247 57.25184441 259.99833012 C57.24141114 266.42038278 57.22726013 272.84238225 57.20458984 279.2644043 C57.1828454 285.4630072 57.17089668 291.66155896 57.16571426 297.86019707 C57.16202141 300.22405235 57.15481021 302.58790487 57.14400864 304.95173836 C57.12947265 308.2648433 57.12749172 311.5777374 57.12841797 314.89086914 C57.12122742 315.86623123 57.11403687 316.84159332 57.10662842 317.84651184 C57.12672903 324.49915331 57.26213043 330.09242213 61.79296875 335.3203125 C66.40639258 339.25860113 68.94565288 339.9532713 74.84765625 339.82421875 C78.54768788 339.35739233 80.61360572 337.9821767 83.35546875 335.5078125 C87.47112244 329.97296788 87.50289579 324.3700055 87.48677063 317.68476868 C87.48888634 316.90351016 87.49100206 316.12225164 87.49318188 315.31731862 C87.49916707 312.70282391 87.49818278 310.08837767 87.49731445 307.47387695 C87.50034697 305.59776223 87.50386868 303.72164824 87.50784302 301.84553528 C87.5157259 297.80608857 87.52087466 293.76665067 87.52413368 289.72719765 C87.53005054 283.33488395 87.54659779 276.94262573 87.56547546 270.55033875 C87.57181273 268.36049751 87.57813836 266.17065624 87.58445263 263.98081493 C87.58761844 262.88417377 87.59078425 261.7875326 87.594046 260.65765989 C87.63609421 245.77804937 87.66909191 230.89846481 87.68139648 216.01879883 C87.68978401 205.97902148 87.71230023 195.93938169 87.75075215 185.89967316 C87.7704889 180.58969459 87.78292523 175.27992154 87.77791786 169.96990395 C87.77326211 164.97194659 87.78712763 159.97437848 87.81492996 154.97649956 C87.82182602 153.14723107 87.82198545 151.31792219 87.81472969 149.48865509 C87.77497334 138.33484916 87.77482362 128.35966878 95.60546875 119.6328125 C101.84065743 113.94739314 108.67648647 111.38905144 117.04296875 111.2578125 C118.01621094 111.23203125 118.98945313 111.20625 119.9921875 111.1796875 C123.00551227 111.4736704 125.23173561 112.05093339 128.06567383 113.02832031 C128.87063797 113.303797 129.67560211 113.57927368 130.50495911 113.86309814 C131.42096138 114.18223175 131.42096138 114.18223175 132.35546875 114.5078125 C132.43186926 107.40949439 132.48421534 100.31128332 132.52026367 93.21264648 C132.5353002 90.8004968 132.55573474 88.38837422 132.58178711 85.97631836 C132.61839607 82.49846686 132.63524704 79.02097856 132.6484375 75.54296875 C132.66392136 74.47385757 132.67940521 73.4047464 132.69535828 72.30323792 C132.69710553 64.43511079 132.05180999 57.58934534 126.73046875 51.5078125 C122.54184155 49.02566305 119.20604943 48.21172679 114.35546875 48.5078125 C109.65457545 50.1043423 106.95116799 52.2777841 104.35546875 56.5078125 C104.02546875 58.8178125 103.69546875 61.1278125 103.35546875 63.5078125 C98.07546875 63.5078125 92.79546875 63.5078125 87.35546875 63.5078125 C87.37867188 61.92871094 87.401875 60.34960938 87.42578125 58.72265625 C87.44454756 56.63021308 87.46274683 54.53776477 87.48046875 52.4453125 C87.50560547 50.88780273 87.50560547 50.88780273 87.53125 49.29882812 C87.65912339 39.24600982 87.65912339 39.24600982 82.91796875 30.6953125 C78.30454492 26.75702387 75.76528462 26.0623537 69.86328125 26.19140625 C66.16324962 26.65823267 64.09733178 28.0334483 61.35546875 30.5078125 C58.42589026 34.31626454 58.35546875 35.45164047 58.35546875 40.5078125 C53.07546875 40.5078125 47.79546875 40.5078125 42.35546875 40.5078125 C42.42057292 36.82942708 42.48567708 33.15104167 42.55078125 29.47265625 C42.27909114 23.95734705 41.5719244 19.91141517 37.91796875 15.6953125 C33.30454492 11.75702387 30.76528462 11.0623537 24.86328125 11.19140625 C21.16324962 11.65823267 19.09733178 13.0334483 16.35546875 15.5078125 C13.42589026 19.31626454 13.35546875 20.45164047 13.35546875 25.5078125 C7.74546875 25.5078125 2.13546875 25.5078125 -3.64453125 25.5078125 C-4.13953125 22.0428125 -4.13953125 22.0428125 -4.64453125 18.5078125 C-7.46510287 15.1676619 -10.42169933 11.83683753 -14.9140625 11.171875 C-21.66604278 11.06815794 -25.85512902 12.01321726 -30.27270508 17.54760742 Z M151.10546875 86.7578125 C147.00688139 93.19844977 147.07953689 99.62977664 147.16015625 107.03515625 C147.16440109 108.51853233 147.16440109 108.51853233 147.16873169 110.03187561 C147.17986733 113.16981445 147.20495972 116.30746089 147.23046875 119.4453125 C147.2405071 121.58137607 147.24963145 123.71744414 147.2578125 125.85351562 C147.279785 131.0717261 147.31426911 136.28971984 147.35546875 141.5078125 C142.07546875 141.5078125 136.79546875 141.5078125 131.35546875 141.5078125 C131.02546875 139.1978125 130.69546875 136.8878125 130.35546875 134.5078125 C128.65509747 131.28364695 126.18009173 129.03465496 123.10546875 127.0703125 C117.44801707 125.91310647 112.95140503 126.56207248 107.98046875 129.5078125 C101.96548516 136.38207946 101.917336 144.54049378 101.96728516 153.31054688 C101.9620282 154.45807938 101.95677124 155.60561188 101.95135498 156.78791809 C101.93821376 160.55927373 101.94687261 164.330203 101.95703125 168.1015625 C101.95500884 170.73514893 101.952096 173.36873482 101.94833374 176.00231934 C101.94289144 181.51314869 101.95002749 187.02385703 101.96435547 192.53466797 C101.98067915 198.88599964 101.97538955 205.2370423 101.95887625 211.58836699 C101.94356883 217.72385169 101.94525646 223.8592093 101.95402145 229.9947052 C101.95601764 232.59414206 101.95358469 235.19358633 101.94658279 237.79301453 C101.93893404 241.43056564 101.95062137 245.06756772 101.96728516 248.70507812 C101.96121246 249.77131912 101.95513977 250.83756012 101.94888306 251.93611145 C102.01451725 259.69981585 102.7340248 266.51187656 107.98046875 272.5078125 C112.16909595 274.98996195 115.50488807 275.80389821 120.35546875 275.5078125 C125.08428209 273.90180042 127.68352506 271.70658115 130.35546875 267.5078125 C133.11804739 260.56218039 132.57725309 253.44453434 132.48046875 246.0703125 C132.47144531 244.76642578 132.46242188 243.46253906 132.453125 242.11914062 C132.42965353 238.91528519 132.39378557 235.71152478 132.35546875 232.5078125 C137.30546875 232.5078125 142.25546875 232.5078125 147.35546875 232.5078125 C147.32066406 234.42464844 147.28585937 236.34148437 147.25 238.31640625 C147.22184915 240.85936619 147.19455039 243.40233567 147.16796875 245.9453125 C147.14283203 247.20537109 147.11769531 248.46542969 147.09179688 249.76367188 C147.02440998 258.36673201 147.13070507 265.8223683 152.98046875 272.5078125 C157.16909595 274.98996195 160.50488807 275.80389821 165.35546875 275.5078125 C170.72832742 273.68306805 173.8294791 270.55979179 176.35546875 265.5078125 C176.44639025 263.6898671 176.47300342 261.86855305 176.46899414 260.04833984 C176.46891861 258.90730804 176.46884308 257.76627625 176.46876526 256.59066772 C176.46360397 255.35418488 176.45844269 254.11770203 176.453125 252.84375 C176.45171005 251.58140533 176.4502951 250.31906067 176.44883728 249.01846313 C176.44417953 245.66142951 176.43519283 242.3044635 176.4241333 238.94744873 C176.41390645 235.52226344 176.40933693 232.09707116 176.40429688 228.671875 C176.39325113 221.95049966 176.37597799 215.22916536 176.35546875 208.5078125 C181.63546875 208.5078125 186.91546875 208.5078125 192.35546875 208.5078125 C192.35102753 209.80771622 192.3465863 211.10761993 192.3420105 212.44691467 C192.30144946 224.70327278 192.27147711 236.95961724 192.25184441 249.21602726 C192.24141172 255.51701215 192.22726176 261.81794281 192.20458984 268.11889648 C192.18284334 274.2007901 192.17089625 280.28263158 192.16571426 286.36456108 C192.16202178 288.68375913 192.15481129 291.00295437 192.14400864 293.3221302 C192.1294699 296.57297027 192.12749183 299.82359549 192.12841797 303.07446289 C192.11763214 304.50945381 192.11763214 304.50945381 192.10662842 305.97343445 C192.12696687 312.58030268 192.2944859 318.12975536 196.79296875 323.3203125 C201.40639258 327.25860113 203.94565288 327.9532713 209.84765625 327.82421875 C213.54768788 327.35739233 215.61360572 325.9821767 218.35546875 323.5078125 C221.39591118 319.41952548 221.74366595 316.37569188 221.7878418 311.33081055 C221.79803345 310.62782333 221.8082251 309.92483612 221.81872559 309.20054626 C221.84878242 306.89012609 221.85810995 304.580121 221.8671875 302.26953125 C221.88403968 300.6624057 221.90219065 299.05529329 221.92158508 297.44819641 C221.96903296 293.228181 221.99887588 289.00821887 222.02502441 284.7880249 C222.05485634 280.47771688 222.10137761 276.16759232 222.14648438 271.85742188 C222.23245831 263.40762708 222.29828637 254.95785124 222.35546875 246.5078125 C227.30546875 246.1778125 232.25546875 245.8478125 237.35546875 245.5078125 C237.35102753 246.90794083 237.3465863 248.30806915 237.3420105 249.75062561 C237.30145807 262.94881748 237.27136105 276.14699854 237.25184441 289.34523869 C237.24154358 296.13049387 237.22750614 302.91570246 237.20458984 309.70092773 C237.1824829 316.24965172 237.17089788 322.79834548 237.16571426 329.34710503 C237.16202038 331.84493204 237.15480719 334.34275642 237.14400864 336.84056282 C237.12948028 340.34046263 237.1274914 343.84016276 237.12841797 347.34008789 C237.11763214 348.88728767 237.11763214 348.88728767 237.10662842 350.46574402 C237.12606043 357.25392392 237.16668558 362.98229346 241.79296875 368.3203125 C246.40639258 372.25860113 248.94565288 372.9532713 254.84765625 372.82421875 C259.46747852 372.24134398 262.17462179 370.00260605 264.991395 366.43694973 C266.89484575 362.34958388 266.77413388 358.78654272 266.7431488 354.32911682 C266.74853434 353.40211171 266.75391988 352.47510659 266.75946862 351.52001041 C266.77378124 348.41237534 266.76663624 345.30516423 266.75952148 342.19750977 C266.76522331 339.97007911 266.77218683 337.74265138 266.78031921 335.51522827 C266.79828626 329.46361958 266.79707556 323.4121556 266.79137683 317.36052823 C266.78829016 312.31064523 266.79437161 307.26079024 266.80041558 302.21091121 C266.81527468 289.61774246 266.81163747 277.02466103 266.79955227 264.43149882 C266.78961985 253.49767548 266.80256055 242.56402136 266.82648646 231.63022412 C266.85087573 220.39995906 266.86008599 209.1697708 266.85383373 197.93947262 C266.85045941 191.63587564 266.8529109 185.33241849 266.87008476 179.02884102 C266.88552743 173.10182162 266.88162784 167.17512585 266.86277962 161.24811935 C266.85908637 159.07207108 266.86222352 156.89599897 266.87266541 154.71997261 C266.8858263 151.7507704 266.87437084 148.78264731 266.85667419 145.81349182 C266.8662792 144.95113421 266.87588421 144.08877659 266.88578027 143.20028692 C266.80843996 136.89918763 265.01836225 133.36795737 260.66796875 128.6953125 C257.02294026 126.82354111 253.43208425 126.39437624 249.35546875 126.5078125 C244.65457545 128.1043423 241.95116799 130.2777841 239.35546875 134.5078125 C239.02546875 136.8178125 238.69546875 139.1278125 238.35546875 141.5078125 C233.07546875 141.1778125 227.79546875 140.8478125 222.35546875 140.5078125 C222.3296875 139.13367188 222.30390625 137.75953125 222.27734375 136.34375 C222.22104447 134.52340654 222.16369754 132.70309526 222.10546875 130.8828125 C222.09128906 129.97917969 222.07710938 129.07554687 222.0625 128.14453125 C221.85573864 122.47926999 221.19686339 118.9624206 217.35546875 114.5078125 C212.97173421 111.5853228 209.57769276 110.9482885 204.35546875 111.5078125 C199.70625992 113.23987069 196.9582504 115.26624241 194.35546875 119.5078125 C194.02546875 121.8178125 193.69546875 124.1278125 193.35546875 126.5078125 C188.07546875 126.1778125 182.79546875 125.8478125 177.35546875 125.5078125 C177.3296875 123.12304688 177.30390625 120.73828125 177.27734375 118.28125 C177.23887098 115.95772778 177.19372795 113.63442357 177.14794922 111.31103516 C177.1198187 109.70306909 177.09856486 108.09496678 177.08447266 106.48681641 C177.06293184 104.16758883 177.01623003 101.84998555 176.96484375 99.53125 C176.96361511 98.81850922 176.96238647 98.10576843 176.96112061 97.37142944 C176.78880284 91.42681839 174.63919005 87.96069834 170.66796875 83.6953125 C163.46349345 79.99571708 156.82075424 81.04252701 151.10546875 86.7578125 Z M286.10546875 191.7578125 C282.37778752 197.61559729 282.05980327 203.60610727 282.08081055 210.32958984 C282.07569962 211.18422318 282.07058868 212.03885651 282.06532288 212.91938782 C282.05149182 215.72758099 282.05237883 218.53552693 282.0546875 221.34375 C282.05079686 223.30758759 282.04646143 225.27142434 282.04170227 227.23526001 C282.03425389 231.34566987 282.03452121 235.45599382 282.03979492 239.56640625 C282.04558607 244.81735403 282.02866029 250.06794868 282.00545025 255.31883812 C281.99067282 259.37334223 281.98984669 263.42776209 281.99295998 267.48228836 C281.99244873 269.41745325 281.9872481 271.35262309 281.97714806 273.28776169 C281.96472371 276.00115228 281.97161111 278.71386523 281.9831543 281.42724609 C281.97551056 282.21610703 281.96786682 283.00496796 281.95999146 283.81773376 C282.02556917 290.84000977 283.28133132 297.13736973 287.98046875 302.5078125 C292.16909595 304.98996195 295.50488807 305.80389821 300.35546875 305.5078125 C305.72832742 303.68306805 308.8294791 300.55979179 311.35546875 295.5078125 C311.46998941 292.42747397 311.52335742 289.36924701 311.5324707 286.28808594 C311.5390419 285.33182816 311.5456131 284.37557037 311.55238342 283.39033508 C311.5721438 280.21595181 311.58378547 277.04161593 311.59375 273.8671875 C311.59782553 272.78428688 311.60190105 271.70138626 311.60610008 270.58567047 C311.62697306 264.85350229 311.64126916 259.12135814 311.65063477 253.38916016 C311.6616984 247.46625985 311.69609456 241.54373533 311.73580647 235.62096786 C311.76194556 231.06904397 311.77032424 226.51720994 311.77391624 221.96521759 C311.77878962 219.78193882 311.79042489 217.59866426 311.80895424 215.41545868 C311.83328629 212.35837508 311.83239119 209.30226786 311.82543945 206.24511719 C311.83824951 205.34410782 311.85105957 204.44309845 311.86425781 203.51478577 C311.81072593 197.05163614 310.13765675 193.4960885 305.66796875 188.6953125 C298.46349345 184.99571708 291.82075424 186.04252701 286.10546875 191.7578125 Z M139.35546875 281.5078125 C138.57171875 282.2503125 137.78796875 282.9928125 136.98046875 283.7578125 C130.22704877 289.29624805 123.11107136 290.95347253 114.5078125 290.94140625 C111.66666967 290.55061709 109.3569775 289.90441405 106.65844727 288.98071289 C105.85157974 288.7061879 105.04471222 288.4316629 104.21339417 288.14881897 C103.60027878 287.93728683 102.98716339 287.7257547 102.35546875 287.5078125 C102.35626434 288.05745667 102.35705994 288.60710083 102.35787964 289.17340088 C102.36033783 294.95014326 102.32071332 300.72556099 102.2578125 306.50195312 C102.23976429 308.65097892 102.23206347 310.80011968 102.23535156 312.94921875 C102.25738029 336.65212908 102.25738029 336.65212908 95.35546875 345.5078125 C88.26529335 352.4108275 80.43251632 355.1136193 70.56689453 355.05859375 C62.73254355 354.77010211 56.03685425 352.13064714 50.390625 346.57421875 C48.81163515 344.59372537 47.54617617 342.74382743 46.35546875 340.5078125 C45.824375 339.54617188 45.29328125 338.58453125 44.74609375 337.59375 C42.43045671 332.0559066 42.78077082 325.97791805 42.66796875 320.0703125 C42.63380859 318.86181641 42.59964844 317.65332031 42.56445312 316.40820312 C42.4823704 313.44149901 42.4130886 310.47507574 42.35546875 307.5078125 C41.35902344 307.8275 40.36257812 308.1471875 39.3359375 308.4765625 C30.2948175 311.03832672 20.95004112 310.8261211 12.54296875 306.6328125 C9.72662926 305.02458554 7.05429354 303.30702903 4.35546875 301.5078125 C1.05546875 303.8178125 -2.24453125 306.1278125 -5.64453125 308.5078125 C-5.21785156 309.30058594 -4.79117188 310.09335937 -4.3515625 310.91015625 C-3.71971413 312.08836049 -3.08824164 313.26676635 -2.45703125 314.4453125 C-2.11115967 315.09048828 -1.76528809 315.73566406 -1.40893555 316.40039062 C0.9687336 320.85514507 3.29978367 325.33176068 5.60546875 329.82421875 C6.17241455 330.92580322 6.73936035 332.0273877 7.32348633 333.16235352 C8.45288019 335.35972453 9.57786113 337.55937036 10.69799805 339.76147461 C11.22820557 340.79151611 11.75841309 341.82155762 12.3046875 342.8828125 C12.77221436 343.79804688 13.23974121 344.71328125 13.72143555 345.65625 C17.6358251 352.48727794 21.42793354 356.75825712 28.11328125 360.9765625 C28.85697968 361.46056519 29.6006781 361.94456787 30.36691284 362.4432373 C32.73031574 363.97721489 35.10496684 365.49265626 37.48046875 367.0078125 C39.05155694 368.02354079 40.62187669 369.04045869 42.19140625 370.05859375 C46.56831213 372.89251688 50.95897081 375.70440421 55.35546875 378.5078125 C55.96628296 378.89759277 56.57709717 379.28737305 57.2064209 379.68896484 C60.25347122 381.63273922 63.30285575 383.57278619 66.35546875 385.5078125 C73.74405386 380.88238747 80.97024709 376.07659264 88.10546875 371.0703125 C90.11453427 369.66659644 92.12365039 368.2629528 94.1328125 366.859375 C95.15487793 366.14426758 96.17694336 365.42916016 97.22998047 364.69238281 C102.36921198 361.10030005 107.51913388 357.52360938 112.66796875 353.9453125 C116.73810557 351.11601875 116.73810557 351.11601875 120.77783203 348.24365234 C123.35546875 346.5078125 123.35546875 346.5078125 125.94482422 345.24462891 C136.13357014 339.81336527 138.35850694 328.24580463 141.85546875 318.0078125 C142.56082046 316.02627987 143.26913011 314.04579755 143.98046875 312.06640625 C146.64336638 304.60131508 149.25884317 297.15402478 151.35546875 289.5078125 C150.74058594 289.09789062 150.12570312 288.68796875 149.4921875 288.265625 C146.11328125 286.01302083 142.734375 283.76041667 139.35546875 281.5078125 Z M168.35546875 290.5078125 C166.52789427 292.93303376 165.68368803 295.5322569 164.76171875 298.40625 C164.47961548 299.19977875 164.19751221 299.9933075 163.90686035 300.81088257 C162.13843035 305.86920132 160.56770749 310.99161668 158.98887634 316.11166382 C147.70643691 352.69135085 147.70643691 352.69135085 128.93359375 362.7109375 C127.97904297 363.18208984 127.02449219 363.65324219 126.04101562 364.13867188 C122.1534301 366.12063366 118.70034387 368.58678835 115.16796875 371.1328125 C113.91865173 371.99377302 112.66732309 372.85182138 111.4140625 373.70703125 C105.64197458 377.67870474 99.91104925 381.70968487 94.17895508 385.73876953 C89.93832657 388.71613218 85.68287418 391.65788692 81.35546875 394.5078125 C84.25779182 397.58768945 87.26012665 399.99285065 90.79296875 402.3203125 C91.71980469 402.94550781 92.64664062 403.57070313 93.6015625 404.21484375 C96.21741915 405.67374802 96.21741915 405.67374802 98.80078125 405.54296875 C102.39292453 404.08743669 104.96734918 401.70966292 107.79296875 399.1328125 C109.04343809 398.02622872 110.29609939 396.92211768 111.55078125 395.8203125 C112.50259277 394.98306641 112.50259277 394.98306641 113.47363281 394.12890625 C116.29601904 391.69758236 119.2210271 389.41030342 122.16796875 387.1328125 C128.24984499 382.41750471 134.21743336 377.57560826 140.09326172 372.60522461 C143.28026228 369.93004487 146.38726072 367.39560942 149.97265625 365.2734375 C161.21871862 358.23472552 164.03378033 347.78214415 168.20458984 335.68945312 C169.27088019 332.7416602 170.45923087 329.90991319 171.75 327.0546875 C177.6448222 313.75200096 178.33642235 301.95612721 177.35546875 287.5078125 C174.13861057 287.5078125 171.07200349 288.91901814 168.35546875 290.5078125 Z " fill="#000000" transform="translate(183.64453125,4.4921875)"/>
<path d="M0 0 C1.39456867 0.00574201 2.78910972 0.01875397 4.18359375 0.03515625 C6.63796875 0.05578125 9.09234375 0.07640625 11.62109375 0.09765625 C11.62109375 5.37765625 11.62109375 10.65765625 11.62109375 16.09765625 C9.16671875 16.11828125 6.71234375 16.13890625 4.18359375 16.16015625 C3.40959229 16.16926025 2.63559082 16.17836426 1.83813477 16.18774414 C0.09887658 16.19490538 -1.64035929 16.14790327 -3.37890625 16.09765625 C-4.37890625 15.09765625 -4.37890625 15.09765625 -4.51171875 11.97265625 C-4.50914062 10.69390625 -4.5065625 9.41515625 -4.50390625 8.09765625 C-4.50648438 6.81890625 -4.5090625 5.54015625 -4.51171875 4.22265625 C-4.33758382 0.12536369 -4.33758382 0.12536369 0 0 Z " fill="#000000" transform="translate(409.37890625,189.90234375)"/>
<path d="M0 0 C1.39456867 0.00574201 2.78910972 0.01875397 4.18359375 0.03515625 C6.63796875 0.05578125 9.09234375 0.07640625 11.62109375 0.09765625 C11.62109375 5.37765625 11.62109375 10.65765625 11.62109375 16.09765625 C9.16671875 16.11828125 6.71234375 16.13890625 4.18359375 16.16015625 C3.40959229 16.16926025 2.63559082 16.17836426 1.83813477 16.18774414 C0.09887658 16.19490538 -1.64035929 16.14790327 -3.37890625 16.09765625 C-4.37890625 15.09765625 -4.37890625 15.09765625 -4.51171875 11.97265625 C-4.50914062 10.69390625 -4.5065625 9.41515625 -4.50390625 8.09765625 C-4.50648438 6.81890625 -4.5090625 5.54015625 -4.51171875 4.22265625 C-4.33758382 0.12536369 -4.33758382 0.12536369 0 0 Z " fill="#000000" transform="translate(409.37890625,159.90234375)"/>
<path d="M0 0 C5.28 0 10.56 0 16 0 C16 4.95 16 9.9 16 15 C10.72 15 5.44 15 0 15 C0 10.05 0 5.1 0 0 Z " fill="#000000" transform="translate(243,497)"/>
<path d="M0 0 C4.95 0 9.9 0 15 0 C15 5.28 15 10.56 15 16 C10.05 16 5.1 16 0 16 C0 10.72 0 5.44 0 0 Z " fill="#000000" transform="translate(226,88)"/>
<path d="M0 0 C4.95 0 9.9 0 15 0 C15 5.28 15 10.56 15 16 C10.05 16 5.1 16 0 16 C0 10.72 0 5.44 0 0 Z " fill="#000000" transform="translate(226,58)"/>
</svg>
