<svg width="50" height="50" viewBox="0 0 50 50" fill="none" xmlns="http://www.w3.org/2000/svg">
<path d="M13.1896 16.6641H36.8125C37.4133 16.664 38.007 16.7938 38.5529 17.0447C39.0988 17.2955 39.5839 17.6615 39.9752 18.1174C40.3664 18.5733 40.6544 19.1085 40.8194 19.6861C40.9844 20.2638 41.0226 20.8703 40.9313 21.4641L38.3167 38.4474C38.0897 39.9233 37.3418 41.2692 36.2084 42.2414C35.0749 43.2136 33.6308 43.7478 32.1375 43.7474H17.8625C16.3696 43.7473 14.926 43.2129 13.793 42.2407C12.66 41.2686 11.9124 39.923 11.6855 38.4474L9.07088 21.4641C8.97956 20.8703 9.01773 20.2638 9.18276 19.6861C9.3478 19.1085 9.63579 18.5733 10.027 18.1174C10.4182 17.6615 10.9034 17.2955 11.4493 17.0447C11.9952 16.7938 12.5889 16.664 13.1896 16.6641Z" stroke="#EDEDED" stroke-width="2.5" stroke-linecap="round" stroke-linejoin="round"/>
<path d="M18.75 22.9167V12.5C18.75 10.8424 19.4085 9.25269 20.5806 8.08058C21.7527 6.90848 23.3424 6.25 25 6.25C26.6576 6.25 28.2473 6.90848 29.4194 8.08058C30.5915 9.25269 31.25 10.8424 31.25 12.5V22.9167" stroke="#EDEDED" stroke-width="2.5" stroke-linecap="round" stroke-linejoin="round"/>
</svg>
