<svg width="30" height="30" viewBox="0 0 30 30" fill="none" xmlns="http://www.w3.org/2000/svg">
<path d="M7.91338 10H22.0871C22.4476 9.99996 22.8038 10.0779 23.1313 10.2284C23.4589 10.3789 23.75 10.5984 23.9847 10.872C24.2194 11.1456 24.3922 11.4666 24.4913 11.8132C24.5903 12.1598 24.6132 12.5237 24.5584 12.88L22.9896 23.07C22.8534 23.9556 22.4047 24.7631 21.7246 25.3464C21.0446 25.9297 20.1781 26.2503 19.2821 26.25H10.7171C9.82138 26.25 8.95523 25.9293 8.27542 25.346C7.59561 24.7627 7.14704 23.9553 7.01089 23.07L5.44213 12.88C5.38735 12.5237 5.41025 12.1598 5.50927 11.8132C5.60829 11.4666 5.78109 11.1456 6.01582 10.872C6.25055 10.5984 6.54166 10.3789 6.86919 10.2284C7.19672 10.0779 7.55293 9.99996 7.91338 10Z" stroke="#EDEDED" stroke-width="2.5" stroke-linecap="round" stroke-linejoin="round"/>
<path d="M11.25 13.75V7.5C11.25 6.50544 11.6451 5.55161 12.3483 4.84835C13.0516 4.14509 14.0054 3.75 15 3.75C15.9946 3.75 16.9484 4.14509 17.6517 4.84835C18.3549 5.55161 18.75 6.50544 18.75 7.5V13.75" stroke="#EDEDED" stroke-width="2.5" stroke-linecap="round" stroke-linejoin="round"/>
</svg>
