<svg class="createCollection_image" xmlns="http://www.w3.org/2000/svg" xmlns:xlink="http://www.w3.org/1999/xlink" xmlns:xodm="http://www.corel.com/coreldraw/odm/2003" xml:space="preserve" version="1.1" style="shape-rendering:geometricPrecision;text-rendering:geometricPrecision;image-rendering:optimizeQuality;" viewBox="0 0 258 322.5" x="0px" y="0px" fill="currentColor" fill-rule="evenodd" clip-rule="evenodd"><defs><style type="text/css">
   
    .fil0 {fill:black;fill-rule:nonzero}
   
  </style></defs><g><path class="fil0" d="M167.604 249.005l-111.665 1.058c-5.687,0.124 -10.035,-1.144 -13.042,-3.804 -3.095,-2.738 -4.622,-6.764 -4.58,-12.076 0.052,-26.04 -0.292,-52.438 -0.638,-78.881 -0.579,-44.352 -1.159,-88.831 0.126,-132.072 0.129,-4.342 1.808,-7.83 4.448,-10.405 2.821,-2.752 6.716,-4.399 10.934,-4.875 0.102,-0.011 0.203,-0.016 0.303,-0.017l0 -0.004 109.606 0c0.838,0 1.589,0.371 2.098,0.959l52.765 52.527c0.563,0.561 0.835,1.304 0.814,2.04l2.193 169.669c0.039,4.915 -1.267,8.732 -3.918,11.45 -2.634,2.7 -6.456,4.169 -11.464,4.407 -0.279,0.013 -7.106,0.022 -14.911,0.027 -10.289,0.006 -22.29,0.005 -23.069,-0.003zm-54.15 -82.989c-1.082,1.083 -2.838,1.083 -3.921,0 -1.082,-1.083 -1.082,-2.838 0,-3.921l8.479 -8.479 -2.32 -2.197c-0.07,-0.058 -0.137,-0.118 -0.202,-0.183l0.004 -0.004c-1.596,-1.486 -3.659,-2.195 -5.704,-2.139 -2.002,0.054 -3.988,0.852 -5.497,2.38 -0.051,0.061 -0.105,0.12 -0.162,0.177l-0.005 -0.004 -21.942 23.167c-1.518,1.603 -2.242,3.688 -2.186,5.755 0.055,2.055 0.895,4.093 2.503,5.616l8.829 8.362c1.602,1.518 3.687,2.243 5.755,2.186 2.055,-0.055 4.092,-0.894 5.616,-2.503l21.989 -23.217c1.518,-1.602 2.243,-3.687 2.187,-5.755 -0.056,-2.055 -0.895,-4.093 -2.504,-5.616l-2.333 -2.21 -8.586 8.585zm8.471 -16.312l8.631 -8.632 -1.874 -1.774c-2.708,-2.565 -4.12,-6.01 -4.215,-9.494 -0.094,-3.472 1.133,-6.984 3.702,-9.697l22.038 -23.267 -0.004 -0.004 0.106 -0.102c2.548,-2.606 5.927,-3.966 9.344,-4.059 3.472,-0.094 6.983,1.133 9.697,3.702l0.05 0.048 0.004 -0.004 0.082 0.085 8.693 8.234c2.708,2.564 4.12,6.009 4.215,9.493 0.094,3.472 -1.133,6.984 -3.703,9.698l-21.99 23.216c-2.564,2.708 -6.009,4.121 -9.493,4.215 -3.472,0.094 -6.984,-1.132 -9.698,-3.702l-2.927 -2.773 -8.631 8.631 2.234 2.115c2.707,2.565 4.12,6.01 4.215,9.494 0.094,3.472 -1.133,6.984 -3.703,9.698l-21.99 23.216c-2.564,2.708 -6.009,4.121 -9.493,4.215 -3.472,0.094 -6.984,-1.132 -9.698,-3.702l-8.829 -8.362c-2.707,-2.565 -4.12,-6.01 -4.214,-9.494 -0.094,-3.472 1.132,-6.984 3.702,-9.697l22.038 -23.267 -0.005 -0.004 0.107 -0.102c2.547,-2.606 5.927,-3.966 9.343,-4.059 3.472,-0.094 6.984,1.132 9.698,3.702l0.05 0.048 0.004 -0.004 0.082 0.086 2.432 2.303zm12.543 -12.544l6.611 -6.61c1.082,-1.083 2.838,-1.083 3.921,0 1.082,1.082 1.082,2.838 0,3.921l-6.504 6.504 2.827 2.677c1.602,1.518 3.688,2.243 5.755,2.186 2.055,-0.055 4.093,-0.895 5.616,-2.503l21.99 -23.217c1.517,-1.603 2.242,-3.687 2.186,-5.755 -0.055,-2.055 -0.895,-4.093 -2.503,-5.616l-8.682 -8.222c-0.069,-0.057 -0.137,-0.118 -0.202,-0.183l0.004 -0.005c-1.596,-1.485 -3.658,-2.194 -5.704,-2.138 -2.002,0.054 -3.987,0.852 -5.497,2.38 -0.051,0.061 -0.105,0.12 -0.162,0.177l-0.005 -0.004 -21.942 23.167c-1.518,1.603 -2.242,3.688 -2.186,5.755 0.055,2.055 0.895,4.093 2.503,5.616l1.974 1.87zm-78.605 107.379l111.819 -1.059c0.408,0.009 12.579,0.01 22.991,0.004 7.663,-0.005 14.37,-0.014 14.651,-0.027 3.557,-0.168 6.144,-1.082 7.76,-2.739 1.597,-1.637 2.383,-4.15 2.358,-7.538l-2.159 -167.003 -34.323 0.493c-5.547,0.002 -9.906,-1.267 -13.076,-3.808 -2.878,-2.307 -4.685,-5.559 -5.424,-9.756 -0.162,-0.352 -0.253,-0.744 -0.253,-1.157l0.002 -0.75c-0.003,-0.081 -0.003,-0.161 0.001,-0.24l0.116 -37.485 -106.715 0c-2.957,0.365 -5.628,1.486 -7.502,3.314 -1.648,1.608 -2.698,3.815 -2.78,6.593 -1.284,43.175 -0.704,87.579 -0.126,131.856 0.346,26.455 0.691,52.866 0.638,78.968l0 0.022c-0.029,3.635 0.877,6.267 2.716,7.894 1.928,1.705 5.019,2.511 9.273,2.418l0.033 0zm153.548 -183.83l-43.573 -43.378 -0.104 33.601c0.368,3.441 1.574,5.982 3.616,7.619 2.156,1.728 5.351,2.593 9.583,2.595l30.478 -0.437z"/></g></svg>