<svg class="createCollection_image" xmlns="http://www.w3.org/2000/svg" viewBox="0 0 32 40">
    <g data-name="Layer 8">
        <path class="svg-path" d="M27.39,10.06a.38.38,0,0,0-.38.38V26.29a.8.8,0,0,1-.8.8H5.74a.8.8,0,0,1-.8-.8V5.81a.79.79,0,0,1,.8-.8h15.8a.38.38,0,1,0,0-.75H5.74A1.53,1.53,0,0,0,4.19,5.81V26.29a1.53,1.53,0,0,0,1.55,1.55H26.21a1.53,1.53,0,0,0,1.55-1.55V10.44A.37.37,0,0,0,27.39,10.06Z"/>
        <path class="svg-path" d="M11.57,17.32a.23.23,0,0,0-.07.1L10,21.3a.39.39,0,0,0,.09.41.36.36,0,0,0,.26.11.35.35,0,0,0,.14,0l3.88-1.55h0a.35.35,0,0,0,.13-.08L26.94,7.67a.39.39,0,0,0,0-.53L24.6,4.8a.39.39,0,0,0-.53,0L11.58,17.29S11.58,17.31,11.57,17.32ZM11,20.77l1-2.54,1.53,1.53ZM24.34,5.6l1.8,1.81-12,12-1.8-1.8Z"/>
        <path class="svg-path" d="M25.54,3.86a.37.37,0,1,0-.53.53l2.34,2.34a.38.38,0,0,0,.26.11.39.39,0,0,0,.27-.11.37.37,0,0,0,0-.53Z"/>
        <path class="svg-path" d="M28.82,5.25,26.49,2.92a.37.37,0,0,0-.53.53l2.33,2.34a.39.39,0,0,0,.27.11.38.38,0,0,0,.26-.65Z"/>
    </g>
</svg>
