<svg width="28" height="28" viewBox="0 0 28 28" fill="none" xmlns="http://www.w3.org/2000/svg">
<path fill-rule="evenodd" clip-rule="evenodd" d="M14 0.666626C6.64002 0.666626 0.666687 6.63996 0.666687 14C0.666687 21.36 6.64002 27.3333 14 27.3333C21.36 27.3333 27.3334 21.36 27.3334 14C27.3334 6.63996 21.36 0.666626 14 0.666626ZM20.5334 18.6533L18.6667 20.52C18.4 20.7866 17.9867 20.7866 17.72 20.52L13.1734 15.9733C11.5467 16.5466 9.65335 16.2 8.34669 14.8933C6.86669 13.4133 6.61335 11.1733 7.56002 9.42663L10.6934 12.56L12.5734 10.68L9.44002 7.55996C11.2 6.61329 13.4267 6.86663 14.9067 8.34663C16.2134 9.65329 16.56 11.5466 15.9867 13.1733L20.5334 17.72C20.7867 17.9733 20.7867 18.4 20.5334 18.6533Z" fill="#3271CA"/>
</svg>
