<svg width="549" height="144" viewBox="0 0 549 144" fill="none" xmlns="http://www.w3.org/2000/svg">
<g filter="url(#filter0_ddd_2402_8799)">
<rect x="8" y="4" width="533" height="100" rx="50" fill="white"/>
<rect x="10" y="6" width="529" height="96" rx="48" stroke="#334155" stroke-width="4"/>
</g>
<g clip-path="url(#clip0_2402_8799)">
<path d="M54.0275 49.3333H52.8359V46.6667C52.8359 42.9867 50.1667 40 46.8779 40C43.5892 40 40.92 42.9867 40.92 46.6667V49.3333H39.7284C38.4176 49.3333 37.3452 50.5333 37.3452 52V65.3333C37.3452 66.8 38.4176 68 39.7284 68H54.0275C55.3383 68 56.4107 66.8 56.4107 65.3333V52C56.4107 50.5333 55.3383 49.3333 54.0275 49.3333ZM46.8779 61.3333C45.5672 61.3333 44.4948 60.1333 44.4948 58.6667C44.4948 57.2 45.5672 56 46.8779 56C48.1887 56 49.2611 57.2 49.2611 58.6667C49.2611 60.1333 48.1887 61.3333 46.8779 61.3333ZM50.5719 49.3333H43.184V46.6667C43.184 44.3867 44.8403 42.5333 46.8779 42.5333C48.9156 42.5333 50.5719 44.3867 50.5719 46.6667V49.3333Z" fill="#475569"/>
<path d="M49.261 58.6667C49.261 60.1394 48.194 61.3333 46.8778 61.3333C45.5616 61.3333 44.4946 60.1394 44.4946 58.6667C44.4946 57.1939 45.5616 56 46.8778 56C48.194 56 49.261 57.1939 49.261 58.6667Z" fill="#475569"/>
</g>
<path d="M83.24 46.596C80.864 46.596 78.992 47.784 77.624 49.656V39.072L74.312 39.432V66H77.624V52.5C78.884 50.52 80.36 49.188 82.412 49.188C84.212 49.188 85.436 50.016 85.436 52.86V66H88.748V52.392C88.748 48.828 86.696 46.596 83.24 46.596ZM103.584 62.94C102.648 63.444 101.892 63.696 101.064 63.696C99.4077 63.696 98.7957 62.796 98.7957 60.888V49.584H102.936L103.296 47.028H98.7957V42.348L95.4837 42.744V47.028H92.1717V49.584H95.4837V61.032C95.4837 64.56 97.3917 66.432 100.596 66.432C102.216 66.432 103.584 66 104.844 65.136L103.584 62.94ZM116.591 62.94C115.655 63.444 114.899 63.696 114.071 63.696C112.415 63.696 111.803 62.796 111.803 60.888V49.584H115.943L116.303 47.028H111.803V42.348L108.491 42.744V47.028H105.179V49.584H108.491V61.032C108.491 64.56 110.399 66.432 113.603 66.432C115.223 66.432 116.591 66 117.851 65.136L116.591 62.94ZM129.887 46.596C127.727 46.596 125.675 47.64 124.271 49.584L124.019 47.028H121.175V73.668L124.487 73.272V64.272C125.711 65.748 127.403 66.432 129.455 66.432C134.351 66.432 136.907 62.256 136.907 56.496C136.907 50.52 134.927 46.596 129.887 46.596ZM128.663 63.732C126.935 63.732 125.459 62.904 124.487 61.428V52.176C125.495 50.664 127.043 49.224 129.059 49.224C131.903 49.224 133.343 51.564 133.343 56.496C133.343 61.464 131.687 63.732 128.663 63.732ZM147.525 46.596C143.601 46.596 140.685 48.792 140.685 51.816C140.685 54.48 142.305 56.244 146.409 57.324C150.081 58.296 151.017 59.016 151.017 60.888C151.017 62.688 149.433 63.768 146.949 63.768C144.897 63.768 143.133 63.084 141.621 61.932L139.857 63.948C141.513 65.388 143.817 66.432 147.021 66.432C150.873 66.432 154.509 64.632 154.509 60.672C154.509 57.36 152.205 55.776 148.209 54.768C145.149 53.976 144.141 53.256 144.141 51.708C144.141 50.196 145.473 49.224 147.633 49.224C149.397 49.224 150.873 49.764 152.565 50.844L153.969 48.756C152.169 47.388 150.189 46.596 147.525 46.596ZM160.046 48.18C158.642 48.18 157.562 49.296 157.562 50.664C157.562 52.068 158.642 53.184 160.046 53.184C161.486 53.184 162.566 52.068 162.566 50.664C162.566 49.296 161.486 48.18 160.046 48.18ZM160.046 61.428C158.642 61.428 157.562 62.544 157.562 63.912C157.562 65.316 158.642 66.432 160.046 66.432C161.486 66.432 162.566 65.316 162.566 63.912C162.566 62.544 161.486 61.428 160.046 61.428ZM176.542 36.948L168.19 69.06L171.034 69.744L179.35 37.596L176.542 36.948ZM190.921 36.948L182.569 69.06L185.413 69.744L193.729 37.596L190.921 36.948ZM303.719 47.028H300.299L295.331 63.588L290.255 47.028H286.727L293.099 66H294.215C293.135 68.952 292.055 70.428 288.203 71.076L288.563 73.668C293.819 73.092 296.051 70.14 297.383 66.108L303.719 47.028ZM314.493 46.596C309.093 46.596 305.997 50.664 305.997 56.532C305.997 62.544 309.057 66.432 314.457 66.432C319.821 66.432 322.917 62.364 322.917 56.496C322.917 50.484 319.893 46.596 314.493 46.596ZM314.493 49.26C317.625 49.26 319.353 51.564 319.353 56.496C319.353 61.464 317.625 63.768 314.457 63.768C311.289 63.768 309.561 61.464 309.561 56.532C309.561 51.564 311.325 49.26 314.493 49.26ZM342.357 47.028H339.045V60.564C337.893 62.472 336.345 63.84 334.293 63.84C332.241 63.84 331.377 62.868 331.377 60.276V47.028H328.065V60.636C328.065 64.344 330.045 66.432 333.357 66.432C336.057 66.432 337.821 65.352 339.261 63.048L339.513 66H342.357V47.028ZM357.232 46.596C354.928 46.596 353.164 48.036 352.156 50.88L351.832 47.028H348.988V66H352.3V55.164C353.092 51.528 354.46 49.836 356.836 49.836C357.52 49.836 357.916 49.908 358.492 50.052L359.104 46.812C358.528 46.668 357.844 46.596 357.232 46.596ZM367.498 46.596C363.574 46.596 360.658 48.792 360.658 51.816C360.658 54.48 362.278 56.244 366.382 57.324C370.054 58.296 370.99 59.016 370.99 60.888C370.99 62.688 369.406 63.768 366.922 63.768C364.87 63.768 363.106 63.084 361.594 61.932L359.83 63.948C361.486 65.388 363.79 66.432 366.994 66.432C370.846 66.432 374.482 64.632 374.482 60.672C374.482 57.36 372.178 55.776 368.182 54.768C365.122 53.976 364.114 53.256 364.114 51.708C364.114 50.196 365.446 49.224 367.606 49.224C369.37 49.224 370.846 49.764 372.538 50.844L373.942 48.756C372.142 47.388 370.162 46.596 367.498 46.596ZM380.666 37.92C379.298 37.92 378.362 38.892 378.362 40.188C378.362 41.448 379.298 42.42 380.666 42.42C382.07 42.42 383.006 41.448 383.006 40.188C383.006 38.892 382.07 37.92 380.666 37.92ZM382.358 47.028H379.046V66H382.358V47.028ZM397.42 62.94C396.484 63.444 395.728 63.696 394.9 63.696C393.244 63.696 392.632 62.796 392.632 60.888V49.584H396.772L397.132 47.028H392.632V42.348L389.32 42.744V47.028H386.008V49.584H389.32V61.032C389.32 64.56 391.228 66.432 394.432 66.432C396.052 66.432 397.42 66 398.68 65.136L397.42 62.94ZM415.912 55.956C415.912 50.16 413.212 46.596 408.1 46.596C403.204 46.596 400.216 50.808 400.216 56.712C400.216 62.724 403.312 66.432 408.604 66.432C411.232 66.432 413.356 65.532 415.228 64.056L413.788 62.076C412.132 63.228 410.728 63.732 408.856 63.732C406.12 63.732 404.068 62.04 403.744 57.648H415.84C415.876 57.216 415.912 56.604 415.912 55.956ZM412.636 55.2H403.744C403.996 50.988 405.652 49.224 408.172 49.224C411.16 49.224 412.636 51.276 412.636 54.984V55.2ZM421.679 61.428C420.275 61.428 419.195 62.544 419.195 63.912C419.195 65.316 420.275 66.432 421.679 66.432C423.119 66.432 424.199 65.316 424.199 63.912C424.199 62.544 423.119 61.428 421.679 61.428ZM436.023 46.596C430.875 46.596 427.743 50.628 427.743 56.676C427.743 62.796 430.911 66.432 436.023 66.432C438.219 66.432 440.127 65.712 441.819 64.344L440.307 62.184C438.867 63.12 437.751 63.624 436.167 63.624C433.179 63.624 431.307 61.572 431.307 56.604C431.307 51.672 433.179 49.332 436.167 49.332C437.751 49.332 438.939 49.8 440.235 50.736L441.819 48.648C440.055 47.172 438.255 46.596 436.023 46.596ZM452.903 46.596C447.503 46.596 444.407 50.664 444.407 56.532C444.407 62.544 447.467 66.432 452.867 66.432C458.231 66.432 461.327 62.364 461.327 56.496C461.327 50.484 458.303 46.596 452.903 46.596ZM452.903 49.26C456.035 49.26 457.763 51.564 457.763 56.496C457.763 61.464 456.035 63.768 452.867 63.768C449.699 63.768 447.971 61.464 447.971 56.532C447.971 51.564 449.735 49.26 452.903 49.26ZM485.735 46.596C483.179 46.596 481.451 47.964 480.083 50.016C479.363 47.856 477.635 46.596 475.295 46.596C472.811 46.596 471.083 47.892 469.823 49.8L469.535 47.028H466.691V66H470.003V52.536C471.263 50.52 472.415 49.188 474.467 49.188C475.907 49.188 477.131 50.016 477.131 52.86V66H480.443V52.536C481.739 50.52 482.855 49.188 484.907 49.188C486.347 49.188 487.571 50.016 487.571 52.86V66H490.883V52.392C490.883 48.828 488.831 46.596 485.735 46.596Z" fill="#64748B"/>
<path d="M206.456 46.272C201.632 46.272 198.644 48.828 198.644 52.104C198.644 55.056 200.516 57 204.296 58.08C207.752 59.052 208.328 59.448 208.328 60.744C208.328 61.896 207.284 62.544 205.556 62.544C203.684 62.544 201.92 61.788 200.48 60.672L197.708 63.768C199.58 65.46 202.388 66.612 205.7 66.612C210.452 66.612 214.196 64.272 214.196 60.312C214.196 56.892 212.072 55.308 208.292 54.228C204.872 53.22 204.368 52.788 204.368 51.78C204.368 50.916 205.124 50.34 206.672 50.34C208.328 50.34 209.912 50.88 211.388 51.816L213.476 48.612C211.712 47.172 209.228 46.272 206.456 46.272ZM228.181 46.272C225.913 46.272 224.221 47.172 222.673 48.936V38.712L216.985 39.288V66H222.673V52.896C223.645 51.348 224.725 50.448 225.985 50.448C227.065 50.448 227.785 50.988 227.785 53.004V66H233.473V52.032C233.473 48.396 231.457 46.272 228.181 46.272ZM245.938 46.272C240.106 46.272 236.578 50.304 236.578 56.424C236.578 62.868 240.142 66.612 245.938 66.612C251.77 66.612 255.298 62.58 255.298 56.46C255.298 50.016 251.77 46.272 245.938 46.272ZM245.938 50.448C248.242 50.448 249.394 52.212 249.394 56.46C249.394 60.6 248.242 62.436 245.938 62.436C243.634 62.436 242.482 60.672 242.482 56.424C242.482 52.284 243.634 50.448 245.938 50.448ZM269.445 46.272C267.537 46.272 265.521 47.028 263.937 49.008L263.649 46.884H258.645V73.992L264.333 73.38V64.632C265.521 65.964 267.105 66.612 268.977 66.612C273.693 66.612 276.573 62.292 276.573 56.388C276.573 50.196 274.377 46.272 269.445 46.272ZM267.213 62.436C266.025 62.436 265.125 61.896 264.333 60.744V52.68C265.161 51.276 266.313 50.448 267.609 50.448C269.517 50.448 270.669 51.708 270.669 56.46C270.669 60.744 269.337 62.436 267.213 62.436ZM282.003 61.428C280.599 61.428 279.519 62.544 279.519 63.912C279.519 65.316 280.599 66.432 282.003 66.432C283.443 66.432 284.523 65.316 284.523 63.912C284.523 62.544 283.443 61.428 282.003 61.428Z" fill="black"/>
<path d="M506.989 119.52L514.553 136.253L511.072 137.835L503.743 120.886L503.174 119.571L502.136 120.559L493.917 128.377V93.1346L519.591 117.097L507.814 118.112L506.407 118.233L506.989 119.52Z" fill="white" stroke="black" stroke-width="2"/>
<defs>
<filter id="filter0_ddd_2402_8799" x="0" y="0" width="549" height="116" filterUnits="userSpaceOnUse" color-interpolation-filters="sRGB">
<feFlood flood-opacity="0" result="BackgroundImageFix"/>
<feColorMatrix in="SourceAlpha" type="matrix" values="0 0 0 0 0 0 0 0 0 0 0 0 0 0 0 0 0 0 127 0" result="hardAlpha"/>
<feOffset/>
<feGaussianBlur stdDeviation="0.5"/>
<feColorMatrix type="matrix" values="0 0 0 0 0.2 0 0 0 0 0.254902 0 0 0 0 0.333333 0 0 0 0.04 0"/>
<feBlend mode="normal" in2="BackgroundImageFix" result="effect1_dropShadow_2402_8799"/>
<feColorMatrix in="SourceAlpha" type="matrix" values="0 0 0 0 0 0 0 0 0 0 0 0 0 0 0 0 0 0 127 0" result="hardAlpha"/>
<feOffset/>
<feGaussianBlur stdDeviation="1"/>
<feColorMatrix type="matrix" values="0 0 0 0 0.2 0 0 0 0 0.254902 0 0 0 0 0.333333 0 0 0 0.06 0"/>
<feBlend mode="normal" in2="effect1_dropShadow_2402_8799" result="effect2_dropShadow_2402_8799"/>
<feColorMatrix in="SourceAlpha" type="matrix" values="0 0 0 0 0 0 0 0 0 0 0 0 0 0 0 0 0 0 127 0" result="hardAlpha"/>
<feOffset dy="4"/>
<feGaussianBlur stdDeviation="4"/>
<feColorMatrix type="matrix" values="0 0 0 0 0.2 0 0 0 0 0.254902 0 0 0 0 0.333333 0 0 0 1 0"/>
<feBlend mode="normal" in2="effect2_dropShadow_2402_8799" result="effect3_dropShadow_2402_8799"/>
<feBlend mode="normal" in="SourceGraphic" in2="effect3_dropShadow_2402_8799" result="shape"/>
</filter>
<clipPath id="clip0_2402_8799">
<rect width="48" height="48" fill="white" transform="translate(23 30)"/>
</clipPath>
</defs>
</svg>
