<svg xmlns="http://www.w3.org/2000/svg" xmlns:xlink="http://www.w3.org/1999/xlink" width="100" zoomAndPan="magnify" viewBox="0 0 75 74.999997" height="100" preserveAspectRatio="xMidYMid meet" version="1.0"><defs><g/></defs><g fill="#ffffff" fill-opacity="1"><g transform="translate(16.300781, 49.072989)"><g><path d="M 0.5625 1.09375 C 0.507812 1.09375 0.472656 1.070312 0.453125 1.03125 C 0.335938 0.6875 0.242188 0.273438 0.171875 -0.203125 C 0.109375 -0.679688 0.078125 -1.191406 0.078125 -1.734375 C 0.078125 -2.242188 0.109375 -2.769531 0.171875 -3.3125 C 0.265625 -4.164062 0.441406 -4.988281 0.703125 -5.78125 C 0.960938 -6.582031 1.25 -7.242188 1.5625 -7.765625 C 1.601562 -7.816406 1.644531 -7.84375 1.6875 -7.84375 L 1.984375 -7.84375 C 2.023438 -7.84375 2.050781 -7.828125 2.0625 -7.796875 C 2.070312 -7.773438 2.066406 -7.753906 2.046875 -7.734375 C 1.765625 -7.191406 1.503906 -6.523438 1.265625 -5.734375 C 1.035156 -4.953125 0.875 -4.15625 0.78125 -3.34375 C 0.707031 -2.789062 0.671875 -2.222656 0.671875 -1.640625 C 0.671875 -1.140625 0.695312 -0.660156 0.75 -0.203125 C 0.8125 0.242188 0.890625 0.640625 0.984375 0.984375 L 1 1.015625 C 1 1.066406 0.960938 1.09375 0.890625 1.09375 Z M 0.5625 1.09375 "/></g></g></g><g fill="#ffffff" fill-opacity="1"><g transform="translate(18.282063, 49.072989)"><g><path d="M 0.328125 0 C 0.253906 0 0.226562 -0.0351562 0.25 -0.109375 L 0.28125 -0.40625 C 0.289062 -0.46875 0.304688 -0.515625 0.328125 -0.546875 L 0.625 -0.96875 C 1.519531 -2.238281 2.117188 -3.09375 2.421875 -3.53125 C 2.960938 -4.351562 3.265625 -5.015625 3.328125 -5.515625 C 3.335938 -5.640625 3.34375 -5.722656 3.34375 -5.765625 C 3.34375 -6.078125 3.269531 -6.320312 3.125 -6.5 C 2.976562 -6.6875 2.78125 -6.78125 2.53125 -6.78125 C 2.25 -6.78125 2.007812 -6.664062 1.8125 -6.4375 C 1.613281 -6.207031 1.492188 -5.898438 1.453125 -5.515625 L 1.390625 -5.15625 C 1.390625 -5.125 1.378906 -5.097656 1.359375 -5.078125 C 1.335938 -5.054688 1.3125 -5.046875 1.28125 -5.046875 L 0.9375 -5.046875 C 0.90625 -5.046875 0.878906 -5.054688 0.859375 -5.078125 C 0.847656 -5.097656 0.847656 -5.125 0.859375 -5.15625 L 0.90625 -5.546875 C 0.976562 -6.054688 1.164062 -6.46875 1.46875 -6.78125 C 1.78125 -7.101562 2.15625 -7.265625 2.59375 -7.265625 C 2.988281 -7.265625 3.300781 -7.132812 3.53125 -6.875 C 3.757812 -6.613281 3.875 -6.265625 3.875 -5.828125 C 3.875 -5.765625 3.867188 -5.660156 3.859375 -5.515625 C 3.785156 -4.890625 3.457031 -4.148438 2.875 -3.296875 L 0.96875 -0.53125 C 0.945312 -0.519531 0.941406 -0.507812 0.953125 -0.5 C 0.960938 -0.488281 0.972656 -0.484375 0.984375 -0.484375 L 3.359375 -0.484375 C 3.429688 -0.484375 3.460938 -0.445312 3.453125 -0.375 L 3.421875 -0.109375 C 3.398438 -0.0351562 3.363281 0 3.3125 0 Z M 0.328125 0 "/></g></g></g><g fill="#ffffff" fill-opacity="1"><g transform="translate(22.183033, 49.072989)"><g><path d="M 1.78125 0.109375 C 1.351562 0.109375 1.007812 -0.0234375 0.75 -0.296875 C 0.5 -0.566406 0.375 -0.925781 0.375 -1.375 C 0.375 -1.445312 0.382812 -1.550781 0.40625 -1.6875 L 0.859375 -5.5 C 0.929688 -6.03125 1.132812 -6.457031 1.46875 -6.78125 C 1.800781 -7.113281 2.210938 -7.28125 2.703125 -7.28125 C 3.140625 -7.28125 3.488281 -7.144531 3.75 -6.875 C 4.007812 -6.613281 4.140625 -6.253906 4.140625 -5.796875 C 4.140625 -5.734375 4.128906 -5.632812 4.109375 -5.5 L 3.65625 -1.6875 C 3.582031 -1.15625 3.375 -0.722656 3.03125 -0.390625 C 2.6875 -0.0546875 2.269531 0.109375 1.78125 0.109375 Z M 1.84375 -0.390625 C 2.1875 -0.390625 2.472656 -0.503906 2.703125 -0.734375 C 2.929688 -0.960938 3.070312 -1.265625 3.125 -1.640625 L 3.609375 -5.546875 C 3.609375 -5.585938 3.609375 -5.660156 3.609375 -5.765625 C 3.609375 -6.078125 3.519531 -6.328125 3.34375 -6.515625 C 3.175781 -6.703125 2.941406 -6.796875 2.640625 -6.796875 C 2.316406 -6.796875 2.039062 -6.679688 1.8125 -6.453125 C 1.582031 -6.222656 1.441406 -5.921875 1.390625 -5.546875 L 0.90625 -1.640625 C 0.90625 -1.597656 0.90625 -1.523438 0.90625 -1.421875 C 0.90625 -1.097656 0.988281 -0.84375 1.15625 -0.65625 C 1.320312 -0.476562 1.550781 -0.390625 1.84375 -0.390625 Z M 1.84375 -0.390625 "/></g></g></g><g fill="#ffffff" fill-opacity="1"><g transform="translate(26.217452, 49.072989)"><g><path d="M 1.875 -7.140625 C 1.945312 -7.171875 1.992188 -7.1875 2.015625 -7.1875 L 2.375 -7.1875 C 2.40625 -7.1875 2.425781 -7.175781 2.4375 -7.15625 C 2.457031 -7.132812 2.46875 -7.109375 2.46875 -7.078125 L 1.59375 -0.109375 C 1.59375 -0.078125 1.582031 -0.0507812 1.5625 -0.03125 C 1.550781 -0.0078125 1.53125 0 1.5 0 L 1.15625 0 C 1.132812 0 1.113281 -0.0078125 1.09375 -0.03125 C 1.070312 -0.0507812 1.066406 -0.078125 1.078125 -0.109375 L 1.875 -6.546875 C 1.875 -6.585938 1.859375 -6.597656 1.828125 -6.578125 L 0.90625 -6.140625 L 0.859375 -6.125 C 0.835938 -6.125 0.820312 -6.128906 0.8125 -6.140625 C 0.800781 -6.160156 0.796875 -6.179688 0.796875 -6.203125 L 0.828125 -6.453125 C 0.835938 -6.492188 0.863281 -6.53125 0.90625 -6.5625 Z M 1.875 -7.140625 "/></g></g></g><g fill="#ffffff" fill-opacity="1"><g transform="translate(28.619624, 49.072989)"><g><path d="M 0.328125 0 C 0.253906 0 0.226562 -0.0351562 0.25 -0.109375 L 0.28125 -0.40625 C 0.289062 -0.46875 0.304688 -0.515625 0.328125 -0.546875 L 0.625 -0.96875 C 1.519531 -2.238281 2.117188 -3.09375 2.421875 -3.53125 C 2.960938 -4.351562 3.265625 -5.015625 3.328125 -5.515625 C 3.335938 -5.640625 3.34375 -5.722656 3.34375 -5.765625 C 3.34375 -6.078125 3.269531 -6.320312 3.125 -6.5 C 2.976562 -6.6875 2.78125 -6.78125 2.53125 -6.78125 C 2.25 -6.78125 2.007812 -6.664062 1.8125 -6.4375 C 1.613281 -6.207031 1.492188 -5.898438 1.453125 -5.515625 L 1.390625 -5.15625 C 1.390625 -5.125 1.378906 -5.097656 1.359375 -5.078125 C 1.335938 -5.054688 1.3125 -5.046875 1.28125 -5.046875 L 0.9375 -5.046875 C 0.90625 -5.046875 0.878906 -5.054688 0.859375 -5.078125 C 0.847656 -5.097656 0.847656 -5.125 0.859375 -5.15625 L 0.90625 -5.546875 C 0.976562 -6.054688 1.164062 -6.46875 1.46875 -6.78125 C 1.78125 -7.101562 2.15625 -7.265625 2.59375 -7.265625 C 2.988281 -7.265625 3.300781 -7.132812 3.53125 -6.875 C 3.757812 -6.613281 3.875 -6.265625 3.875 -5.828125 C 3.875 -5.765625 3.867188 -5.660156 3.859375 -5.515625 C 3.785156 -4.890625 3.457031 -4.148438 2.875 -3.296875 L 0.96875 -0.53125 C 0.945312 -0.519531 0.941406 -0.507812 0.953125 -0.5 C 0.960938 -0.488281 0.972656 -0.484375 0.984375 -0.484375 L 3.359375 -0.484375 C 3.429688 -0.484375 3.460938 -0.445312 3.453125 -0.375 L 3.421875 -0.109375 C 3.398438 -0.0351562 3.363281 0 3.3125 0 Z M 0.328125 0 "/></g></g></g><g fill="#ffffff" fill-opacity="1"><g transform="translate(32.520594, 49.072989)"><g><path d="M 0.890625 1.03125 C 0.847656 1.070312 0.800781 1.09375 0.75 1.09375 L 0.421875 1.09375 C 0.390625 1.09375 0.363281 1.082031 0.34375 1.0625 C 0.332031 1.039062 0.335938 1.015625 0.359375 0.984375 C 0.640625 0.453125 0.894531 -0.195312 1.125 -0.96875 C 1.363281 -1.738281 1.53125 -2.53125 1.625 -3.34375 C 1.6875 -3.894531 1.71875 -4.46875 1.71875 -5.0625 C 1.71875 -6.125 1.617188 -7.015625 1.421875 -7.734375 L 1.421875 -7.765625 C 1.421875 -7.816406 1.453125 -7.84375 1.515625 -7.84375 L 1.8125 -7.84375 C 1.875 -7.84375 1.914062 -7.816406 1.9375 -7.765625 C 2.0625 -7.421875 2.15625 -7.003906 2.21875 -6.515625 C 2.289062 -6.035156 2.328125 -5.515625 2.328125 -4.953125 C 2.328125 -4.398438 2.296875 -3.851562 2.234375 -3.3125 C 2.128906 -2.488281 1.953125 -1.6875 1.703125 -0.90625 C 1.453125 -0.132812 1.179688 0.507812 0.890625 1.03125 Z M 0.890625 1.03125 "/></g></g></g><g fill="#ffffff" fill-opacity="1"><g transform="translate(34.511717, 49.072989)"><g/></g></g><g fill="#ffffff" fill-opacity="1"><g transform="translate(36.503264, 49.072989)"><g/></g></g><g fill="#ffffff" fill-opacity="1"><g transform="translate(38.49481, 49.072989)"><g/></g></g><g fill="#ffffff" fill-opacity="1"><g transform="translate(40.488279, 49.072989)"><g><path d="M 0.5625 1.09375 C 0.507812 1.09375 0.472656 1.070312 0.453125 1.03125 C 0.335938 0.6875 0.242188 0.273438 0.171875 -0.203125 C 0.109375 -0.679688 0.078125 -1.191406 0.078125 -1.734375 C 0.078125 -2.242188 0.109375 -2.769531 0.171875 -3.3125 C 0.265625 -4.164062 0.441406 -4.988281 0.703125 -5.78125 C 0.960938 -6.582031 1.25 -7.242188 1.5625 -7.765625 C 1.601562 -7.816406 1.644531 -7.84375 1.6875 -7.84375 L 1.984375 -7.84375 C 2.023438 -7.84375 2.050781 -7.828125 2.0625 -7.796875 C 2.070312 -7.773438 2.066406 -7.753906 2.046875 -7.734375 C 1.765625 -7.191406 1.503906 -6.523438 1.265625 -5.734375 C 1.035156 -4.953125 0.875 -4.15625 0.78125 -3.34375 C 0.707031 -2.789062 0.671875 -2.222656 0.671875 -1.640625 C 0.671875 -1.140625 0.695312 -0.660156 0.75 -0.203125 C 0.8125 0.242188 0.890625 0.640625 0.984375 0.984375 L 1 1.015625 C 1 1.066406 0.960938 1.09375 0.890625 1.09375 Z M 0.5625 1.09375 "/></g></g></g><g fill="#ffffff" fill-opacity="1"><g transform="translate(42.469561, 49.072989)"><g><path d="M 0.328125 0 C 0.253906 0 0.226562 -0.0351562 0.25 -0.109375 L 0.28125 -0.40625 C 0.289062 -0.46875 0.304688 -0.515625 0.328125 -0.546875 L 0.625 -0.96875 C 1.519531 -2.238281 2.117188 -3.09375 2.421875 -3.53125 C 2.960938 -4.351562 3.265625 -5.015625 3.328125 -5.515625 C 3.335938 -5.640625 3.34375 -5.722656 3.34375 -5.765625 C 3.34375 -6.078125 3.269531 -6.320312 3.125 -6.5 C 2.976562 -6.6875 2.78125 -6.78125 2.53125 -6.78125 C 2.25 -6.78125 2.007812 -6.664062 1.8125 -6.4375 C 1.613281 -6.207031 1.492188 -5.898438 1.453125 -5.515625 L 1.390625 -5.15625 C 1.390625 -5.125 1.378906 -5.097656 1.359375 -5.078125 C 1.335938 -5.054688 1.3125 -5.046875 1.28125 -5.046875 L 0.9375 -5.046875 C 0.90625 -5.046875 0.878906 -5.054688 0.859375 -5.078125 C 0.847656 -5.097656 0.847656 -5.125 0.859375 -5.15625 L 0.90625 -5.546875 C 0.976562 -6.054688 1.164062 -6.46875 1.46875 -6.78125 C 1.78125 -7.101562 2.15625 -7.265625 2.59375 -7.265625 C 2.988281 -7.265625 3.300781 -7.132812 3.53125 -6.875 C 3.757812 -6.613281 3.875 -6.265625 3.875 -5.828125 C 3.875 -5.765625 3.867188 -5.660156 3.859375 -5.515625 C 3.785156 -4.890625 3.457031 -4.148438 2.875 -3.296875 L 0.96875 -0.53125 C 0.945312 -0.519531 0.941406 -0.507812 0.953125 -0.5 C 0.960938 -0.488281 0.972656 -0.484375 0.984375 -0.484375 L 3.359375 -0.484375 C 3.429688 -0.484375 3.460938 -0.445312 3.453125 -0.375 L 3.421875 -0.109375 C 3.398438 -0.0351562 3.363281 0 3.3125 0 Z M 0.328125 0 "/></g></g></g><g fill="#ffffff" fill-opacity="1"><g transform="translate(46.370531, 49.072989)"><g><path d="M 1.78125 0.109375 C 1.351562 0.109375 1.007812 -0.0234375 0.75 -0.296875 C 0.5 -0.566406 0.375 -0.925781 0.375 -1.375 C 0.375 -1.445312 0.382812 -1.550781 0.40625 -1.6875 L 0.859375 -5.5 C 0.929688 -6.03125 1.132812 -6.457031 1.46875 -6.78125 C 1.800781 -7.113281 2.210938 -7.28125 2.703125 -7.28125 C 3.140625 -7.28125 3.488281 -7.144531 3.75 -6.875 C 4.007812 -6.613281 4.140625 -6.253906 4.140625 -5.796875 C 4.140625 -5.734375 4.128906 -5.632812 4.109375 -5.5 L 3.65625 -1.6875 C 3.582031 -1.15625 3.375 -0.722656 3.03125 -0.390625 C 2.6875 -0.0546875 2.269531 0.109375 1.78125 0.109375 Z M 1.84375 -0.390625 C 2.1875 -0.390625 2.472656 -0.503906 2.703125 -0.734375 C 2.929688 -0.960938 3.070312 -1.265625 3.125 -1.640625 L 3.609375 -5.546875 C 3.609375 -5.585938 3.609375 -5.660156 3.609375 -5.765625 C 3.609375 -6.078125 3.519531 -6.328125 3.34375 -6.515625 C 3.175781 -6.703125 2.941406 -6.796875 2.640625 -6.796875 C 2.316406 -6.796875 2.039062 -6.679688 1.8125 -6.453125 C 1.582031 -6.222656 1.441406 -5.921875 1.390625 -5.546875 L 0.90625 -1.640625 C 0.90625 -1.597656 0.90625 -1.523438 0.90625 -1.421875 C 0.90625 -1.097656 0.988281 -0.84375 1.15625 -0.65625 C 1.320312 -0.476562 1.550781 -0.390625 1.84375 -0.390625 Z M 1.84375 -0.390625 "/></g></g></g><g fill="#ffffff" fill-opacity="1"><g transform="translate(50.40495, 49.072989)"><g><path d="M 0.328125 0 C 0.253906 0 0.226562 -0.0351562 0.25 -0.109375 L 0.28125 -0.40625 C 0.289062 -0.46875 0.304688 -0.515625 0.328125 -0.546875 L 0.625 -0.96875 C 1.519531 -2.238281 2.117188 -3.09375 2.421875 -3.53125 C 2.960938 -4.351562 3.265625 -5.015625 3.328125 -5.515625 C 3.335938 -5.640625 3.34375 -5.722656 3.34375 -5.765625 C 3.34375 -6.078125 3.269531 -6.320312 3.125 -6.5 C 2.976562 -6.6875 2.78125 -6.78125 2.53125 -6.78125 C 2.25 -6.78125 2.007812 -6.664062 1.8125 -6.4375 C 1.613281 -6.207031 1.492188 -5.898438 1.453125 -5.515625 L 1.390625 -5.15625 C 1.390625 -5.125 1.378906 -5.097656 1.359375 -5.078125 C 1.335938 -5.054688 1.3125 -5.046875 1.28125 -5.046875 L 0.9375 -5.046875 C 0.90625 -5.046875 0.878906 -5.054688 0.859375 -5.078125 C 0.847656 -5.097656 0.847656 -5.125 0.859375 -5.15625 L 0.90625 -5.546875 C 0.976562 -6.054688 1.164062 -6.46875 1.46875 -6.78125 C 1.78125 -7.101562 2.15625 -7.265625 2.59375 -7.265625 C 2.988281 -7.265625 3.300781 -7.132812 3.53125 -6.875 C 3.757812 -6.613281 3.875 -6.265625 3.875 -5.828125 C 3.875 -5.765625 3.867188 -5.660156 3.859375 -5.515625 C 3.785156 -4.890625 3.457031 -4.148438 2.875 -3.296875 L 0.96875 -0.53125 C 0.945312 -0.519531 0.941406 -0.507812 0.953125 -0.5 C 0.960938 -0.488281 0.972656 -0.484375 0.984375 -0.484375 L 3.359375 -0.484375 C 3.429688 -0.484375 3.460938 -0.445312 3.453125 -0.375 L 3.421875 -0.109375 C 3.398438 -0.0351562 3.363281 0 3.3125 0 Z M 0.328125 0 "/></g></g></g><g fill="#ffffff" fill-opacity="1"><g transform="translate(54.30592, 49.072989)"><g><path d="M 1.875 -7.140625 C 1.945312 -7.171875 1.992188 -7.1875 2.015625 -7.1875 L 2.375 -7.1875 C 2.40625 -7.1875 2.425781 -7.175781 2.4375 -7.15625 C 2.457031 -7.132812 2.46875 -7.109375 2.46875 -7.078125 L 1.59375 -0.109375 C 1.59375 -0.078125 1.582031 -0.0507812 1.5625 -0.03125 C 1.550781 -0.0078125 1.53125 0 1.5 0 L 1.15625 0 C 1.132812 0 1.113281 -0.0078125 1.09375 -0.03125 C 1.070312 -0.0507812 1.066406 -0.078125 1.078125 -0.109375 L 1.875 -6.546875 C 1.875 -6.585938 1.859375 -6.597656 1.828125 -6.578125 L 0.90625 -6.140625 L 0.859375 -6.125 C 0.835938 -6.125 0.820312 -6.128906 0.8125 -6.140625 C 0.800781 -6.160156 0.796875 -6.179688 0.796875 -6.203125 L 0.828125 -6.453125 C 0.835938 -6.492188 0.863281 -6.53125 0.90625 -6.5625 Z M 1.875 -7.140625 "/></g></g></g><g fill="#ffffff" fill-opacity="1"><g transform="translate(56.708092, 49.072989)"><g><path d="M 0.890625 1.03125 C 0.847656 1.070312 0.800781 1.09375 0.75 1.09375 L 0.421875 1.09375 C 0.390625 1.09375 0.363281 1.082031 0.34375 1.0625 C 0.332031 1.039062 0.335938 1.015625 0.359375 0.984375 C 0.640625 0.453125 0.894531 -0.195312 1.125 -0.96875 C 1.363281 -1.738281 1.53125 -2.53125 1.625 -3.34375 C 1.6875 -3.894531 1.71875 -4.46875 1.71875 -5.0625 C 1.71875 -6.125 1.617188 -7.015625 1.421875 -7.734375 L 1.421875 -7.765625 C 1.421875 -7.816406 1.453125 -7.84375 1.515625 -7.84375 L 1.8125 -7.84375 C 1.875 -7.84375 1.914062 -7.816406 1.9375 -7.765625 C 2.0625 -7.421875 2.15625 -7.003906 2.21875 -6.515625 C 2.289062 -6.035156 2.328125 -5.515625 2.328125 -4.953125 C 2.328125 -4.398438 2.296875 -3.851562 2.234375 -3.3125 C 2.128906 -2.488281 1.953125 -1.6875 1.703125 -0.90625 C 1.453125 -0.132812 1.179688 0.507812 0.890625 1.03125 Z M 0.890625 1.03125 "/></g></g></g><g fill="#ffffff" fill-opacity="1"><g transform="translate(29.309766, 34.273526)"><g><path d="M 4.21875 0 C 4.1875 0 4.15625 -0.00390625 4.125 -0.015625 C 4.101562 -0.0351562 4.085938 -0.0664062 4.078125 -0.109375 L 3.21875 -4.171875 C 3.207031 -4.191406 3.191406 -4.203125 3.171875 -4.203125 L 1.953125 -4.203125 C 1.910156 -4.203125 1.890625 -4.1875 1.890625 -4.15625 L 1.40625 -0.125 C 1.382812 -0.0390625 1.335938 0 1.265625 0 L 0.859375 0 C 0.773438 0 0.734375 -0.0390625 0.734375 -0.125 L 1.8125 -8.8125 C 1.820312 -8.894531 1.867188 -8.9375 1.953125 -8.9375 L 3.859375 -8.9375 C 4.378906 -8.9375 4.785156 -8.757812 5.078125 -8.40625 C 5.378906 -8.050781 5.53125 -7.578125 5.53125 -6.984375 C 5.53125 -6.890625 5.519531 -6.742188 5.5 -6.546875 C 5.425781 -5.960938 5.242188 -5.472656 4.953125 -5.078125 C 4.660156 -4.679688 4.300781 -4.414062 3.875 -4.28125 C 3.832031 -4.257812 3.816406 -4.238281 3.828125 -4.21875 L 4.734375 -0.140625 L 4.734375 -0.109375 C 4.734375 -0.0351562 4.695312 0 4.625 0 Z M 2.453125 -8.328125 C 2.429688 -8.328125 2.410156 -8.3125 2.390625 -8.28125 L 1.96875 -4.8125 C 1.96875 -4.789062 1.972656 -4.773438 1.984375 -4.765625 C 1.992188 -4.765625 2.003906 -4.765625 2.015625 -4.765625 L 3.265625 -4.765625 C 3.566406 -4.765625 3.835938 -4.851562 4.078125 -5.03125 C 4.316406 -5.21875 4.503906 -5.472656 4.640625 -5.796875 C 4.785156 -6.128906 4.859375 -6.503906 4.859375 -6.921875 C 4.859375 -7.347656 4.753906 -7.6875 4.546875 -7.9375 C 4.335938 -8.195312 4.0625 -8.328125 3.71875 -8.328125 Z M 2.453125 -8.328125 "/></g></g></g><g fill="#ffffff" fill-opacity="1"><g transform="translate(34.69309, 34.273526)"><g><path d="M 5.53125 -8.4375 C 5.519531 -8.40625 5.5 -8.375 5.46875 -8.34375 C 5.445312 -8.320312 5.421875 -8.3125 5.390625 -8.3125 L 2.453125 -8.3125 C 2.429688 -8.3125 2.410156 -8.296875 2.390625 -8.265625 L 1.96875 -4.8125 C 1.96875 -4.789062 1.972656 -4.773438 1.984375 -4.765625 C 1.992188 -4.765625 2.003906 -4.765625 2.015625 -4.765625 L 3.890625 -4.765625 C 3.984375 -4.765625 4.019531 -4.722656 4 -4.640625 L 3.953125 -4.296875 C 3.941406 -4.210938 3.898438 -4.171875 3.828125 -4.171875 L 1.953125 -4.171875 C 1.921875 -4.171875 1.898438 -4.148438 1.890625 -4.109375 L 1.46875 -0.65625 C 1.46875 -0.613281 1.476562 -0.59375 1.5 -0.59375 L 4.4375 -0.59375 C 4.507812 -0.59375 4.546875 -0.550781 4.546875 -0.46875 L 4.5 -0.125 C 4.5 -0.09375 4.484375 -0.0625 4.453125 -0.03125 C 4.429688 -0.0078125 4.398438 0 4.359375 0 L 0.859375 0 C 0.773438 0 0.734375 -0.0390625 0.734375 -0.125 L 1.8125 -8.78125 C 1.820312 -8.875 1.867188 -8.921875 1.953125 -8.921875 L 5.453125 -8.921875 C 5.492188 -8.921875 5.523438 -8.90625 5.546875 -8.875 C 5.566406 -8.851562 5.570312 -8.820312 5.5625 -8.78125 Z M 5.53125 -8.4375 "/></g></g></g><g fill="#ffffff" fill-opacity="1"><g transform="translate(39.96188, 34.273526)"><g><path d="M 0.859375 0 C 0.773438 0 0.734375 -0.0390625 0.734375 -0.125 L 1.8125 -8.78125 C 1.820312 -8.875 1.867188 -8.921875 1.953125 -8.921875 L 3.75 -8.921875 C 4.300781 -8.921875 4.722656 -8.75 5.015625 -8.40625 C 5.316406 -8.070312 5.46875 -7.613281 5.46875 -7.03125 C 5.46875 -6.820312 5.460938 -6.671875 5.453125 -6.578125 L 4.921875 -2.34375 C 4.835938 -1.625 4.59375 -1.050781 4.1875 -0.625 C 3.78125 -0.207031 3.273438 0 2.671875 0 Z M 1.46875 -0.65625 C 1.46875 -0.613281 1.476562 -0.59375 1.5 -0.59375 L 2.734375 -0.59375 C 3.140625 -0.601562 3.476562 -0.765625 3.75 -1.078125 C 4.03125 -1.390625 4.203125 -1.816406 4.265625 -2.359375 L 4.78125 -6.546875 C 4.789062 -6.734375 4.796875 -6.867188 4.796875 -6.953125 C 4.796875 -7.390625 4.695312 -7.722656 4.5 -7.953125 C 4.3125 -8.191406 4.039062 -8.3125 3.6875 -8.3125 L 2.453125 -8.3125 C 2.429688 -8.3125 2.410156 -8.296875 2.390625 -8.265625 Z M 1.46875 -0.65625 "/></g></g></g><path stroke-linecap="butt" transform="matrix(0.75, 0, 0, 0.75, 13.5, 44.94799)" fill="none" stroke-linejoin="miter" d="M -0.00000053 0.501639 L 32.000002 0.501639 " stroke="#ffffff" stroke-width="1" stroke-opacity="1" stroke-miterlimit="4"/></svg>