<svg width="77" height="36" viewBox="0 0 77 36" fill="none" xmlns="http://www.w3.org/2000/svg">
<path d="M38.5 35.1204C26.6735 35.565 -6.10352e-05 2.66751 -6.10352e-05 2.66751C30.0703 2.66751 46.9296 2.66751 77 2.66751C77 2.66751 50.3264 34.6759 38.5 35.1204Z" fill="#6A799D"/>
<path d="M38.5 35.1204C26.6735 35.565 -6.10352e-05 2.66751 -6.10352e-05 2.66751C30.0703 2.66751 46.9296 2.66751 77 2.66751C77 2.66751 50.3264 34.6759 38.5 35.1204Z" fill="#6A799D"/>
<path d="M38.5 32.4529C26.6735 32.8975 -6.32231e-05 3.51931e-05 -6.32231e-05 3.51931e-05C30.0703 3.51931e-05 46.9296 3.51931e-05 77 3.51931e-05C77 3.51931e-05 50.3264 32.0084 38.5 32.4529Z" fill="#BFC2CA"/>
<path d="M38.5 32.4529C26.6735 32.8975 -6.32231e-05 3.51931e-05 -6.32231e-05 3.51931e-05C30.0703 3.51931e-05 46.9296 3.51931e-05 77 3.51931e-05C77 3.51931e-05 50.3264 32.0084 38.5 32.4529Z" fill="#BFC2CA"/>
</svg>
