<svg width="120" height="19" viewBox="0 0 120 19" fill="none" xmlns="http://www.w3.org/2000/svg">
<path d="M97.7574 18.3239C97.5976 17.7913 97.5976 2.06351 97.7396 1.3357L97.8639 0.7854H102.799C105.639 0.7854 107.751 0.856406 107.751 0.945164C107.751 1.03392 108.16 1.15818 108.639 1.22919C109.136 1.30019 109.527 1.42445 109.527 1.51321C109.527 1.60197 109.633 1.67297 109.775 1.67297C110.095 1.67297 111.657 3.21735 111.657 3.53688C111.657 3.67889 111.746 3.80315 111.834 3.80315C111.941 3.80315 112.012 3.96291 112.012 4.14043C112.012 4.3357 112.136 4.60197 112.278 4.76173C112.491 4.957 112.544 5.48954 112.544 7.06942C112.544 8.77357 112.491 9.1286 112.278 9.1286C112.118 9.1286 112.012 9.28836 112.012 9.57238C112.012 9.85641 111.746 10.3179 111.355 10.7617C110.645 11.525 110.592 11.5783 109.899 12.1463C109.527 12.4659 109.509 12.5191 109.722 13.0339C109.864 13.3179 110.024 13.5665 110.095 13.5665C110.237 13.5665 110.947 15.0221 110.947 15.3061C110.947 15.4304 111.035 15.5191 111.142 15.5191C111.231 15.5191 111.408 15.7676 111.497 16.0517C111.604 16.3534 111.763 16.5842 111.852 16.5842C111.941 16.5842 112.012 17.028 112.012 17.5783V18.5724L111.035 18.5014C110.503 18.4481 110.059 18.4836 110.059 18.5724C110.059 18.6434 109.775 18.7144 109.438 18.7144C108.692 18.7144 108.32 18.3771 107.734 17.1878C107.503 16.7085 107.201 16.2469 107.095 16.1759C106.97 16.1049 106.864 15.9274 106.864 15.7854C106.864 15.6611 106.704 15.3594 106.509 15.1286C106.314 14.9156 105.976 14.3653 105.746 13.9215L105.355 13.1227L103.367 13.0694L101.361 13.0162V15.5546C101.361 16.957 101.29 18.1996 101.201 18.3239C101.112 18.4659 100.722 18.5546 100.189 18.5546C99.7101 18.5369 99 18.5901 98.5917 18.6434C97.9349 18.7321 97.8462 18.6966 97.7574 18.3239ZM107.538 8.96883C107.751 8.79132 107.929 8.56055 107.929 8.43629C107.929 8.32978 108.053 8.24102 108.195 8.24102C108.337 8.24102 108.462 8.11676 108.462 7.97475C108.462 7.81499 108.586 7.65522 108.728 7.60197C109.03 7.47771 109.101 6.28836 108.817 6.28836C108.728 6.28836 108.639 6.18185 108.639 6.05759C108.639 5.70256 107.734 4.90374 107.183 4.77948C106.899 4.70848 106.686 4.58422 106.686 4.49546C106.686 4.4067 105.497 4.3357 104.024 4.3357H101.361V6.8209V9.30611H104.254C106.846 9.30611 107.201 9.27061 107.538 8.96883Z" fill="black" fill-opacity="0.6"/>
<path d="M0.319527 18.2884C0.0177515 18.0753 0 17.454 0 9.89191C0 1.88599 0 1.70848 0.372781 1.24694L0.727811 0.7854H6.21302C9.23077 0.7854 11.8047 0.838655 11.9645 0.891909C12.1953 0.980667 12.2485 1.31794 12.2485 2.66706V4.3357H8.30769C5.28994 4.35345 4.27811 4.4067 4.04734 4.58422C3.76331 4.77948 3.72781 5.13451 3.72781 7.06942V9.30611H7.98816H12.2663L12.213 11.1345L12.1598 12.9452L7.95266 12.9984L3.74556 13.0339L3.69231 15.7499L3.63905 18.4481L2.13018 18.4836C1.10059 18.5191 0.514793 18.4481 0.319527 18.2884Z" fill="black" fill-opacity="0.6"/>
<path d="M37.4024 18.4304C37.2426 18.2706 37.2426 1.45996 37.3847 1.06942C37.4734 0.820903 38.0947 0.7854 42.4438 0.7854C45.1598 0.7854 47.3965 0.856406 47.3965 0.945164C47.3965 1.03392 47.8048 1.14043 48.2841 1.21144C48.7811 1.28244 49.1716 1.4067 49.1716 1.49546C49.1716 1.60197 49.2782 1.67297 49.4024 1.67297C49.7929 1.67297 51.4616 3.39487 51.5858 3.92741C51.6569 4.19368 51.8344 4.53096 51.9586 4.67297C52.1539 4.86824 52.2071 5.40078 52.1539 7.12268C52.1184 8.34753 52.0119 9.37712 51.9231 9.44812C51.8166 9.51913 51.6391 9.76765 51.5148 10.0162C51.1598 10.7617 50.8758 11.1523 50.5208 11.4185C50.3255 11.5605 50.0237 11.8268 49.8462 12.0043C49.6687 12.1819 49.3847 12.3239 49.2249 12.3239C49.0119 12.3239 48.9764 12.3771 49.1184 12.4659C49.2249 12.5369 49.4202 12.8032 49.5267 13.0339C49.6154 13.2824 49.864 13.7262 50.0592 14.0103C50.2367 14.312 50.6095 14.9511 50.858 15.4304C51.1066 15.9274 51.4261 16.5132 51.5681 16.7617C51.7101 17.0103 51.8344 17.5073 51.8344 17.8623V18.5191H49.9705C48.5326 18.5191 48.1066 18.4659 48.1066 18.2884C48.1066 18.1463 47.9823 17.9511 47.8403 17.8268C47.6983 17.7026 47.3965 17.241 47.1835 16.7795C46.9527 16.3357 46.7042 15.9097 46.6332 15.8564C46.4379 15.7144 45.9764 14.8091 45.9764 14.5605C45.9764 14.454 45.8166 14.2233 45.6213 14.0458C45.4261 13.886 45.2663 13.5842 45.2663 13.389C45.2663 13.0517 45.1598 13.0339 43.1361 13.0339C41.9645 13.0339 40.9882 13.0517 40.9705 13.0872C40.9705 13.1049 40.8995 14.3298 40.8462 15.7854L40.7397 18.4481L39.1421 18.5014C38.2545 18.5191 37.4734 18.5014 37.4024 18.4304ZM47.361 8.95108C47.6628 8.75581 47.929 8.47179 47.929 8.32978C47.929 8.18777 48.0355 8.06351 48.1776 8.06351C48.3018 8.06351 48.4616 7.81499 48.5148 7.47771C48.6213 6.7854 48.4793 5.93333 48.2663 5.93333C48.1776 5.93333 48.1066 5.84457 48.1066 5.73806C48.1066 5.45404 47.3787 4.90374 46.8284 4.77948C46.5444 4.70848 46.3314 4.58422 46.3314 4.49546C46.3314 4.4067 45.1776 4.3357 43.6864 4.3357H41.0415L40.9527 4.81499C40.8995 5.08126 40.8995 6.1996 40.9527 7.30019L41.0592 9.30611H43.9172C46.4557 9.30611 46.8462 9.27061 47.361 8.95108Z" fill="black" fill-opacity="0.6"/>
<path d="M55.7398 17.7913C55.7398 17.17 56.2191 16.0517 56.5031 16.0517C56.5741 16.0517 56.6273 15.9629 56.6273 15.8564C56.6273 15.7499 56.8581 15.3594 57.1244 15.0043C57.4084 14.6493 57.6924 14.2233 57.7457 14.0635C57.8167 13.886 57.941 13.744 58.0475 13.744C58.1362 13.744 58.225 13.5842 58.225 13.389C58.225 13.1937 58.3492 13.0339 58.4912 13.0339C58.6333 13.0339 58.7575 12.9452 58.7575 12.8387C58.7575 12.7144 59.0415 12.2351 59.3788 11.7736C59.7161 11.2943 60.0001 10.8327 60.0001 10.744C60.0001 10.673 60.1776 10.4067 60.4084 10.1582C61.012 9.48363 61.5978 8.63155 61.5978 8.41854C61.5978 8.32978 61.6688 8.24102 61.7575 8.24102C61.8463 8.24102 62.006 8.01025 62.1125 7.70848C62.2013 7.42445 62.3611 7.17593 62.4321 7.17593C62.5208 7.17593 62.7339 6.90966 62.9291 6.60789C63.1066 6.28836 63.3552 5.95108 63.4972 5.88007C63.6214 5.80907 63.7279 5.6138 63.7279 5.48954C63.7279 5.34753 63.9054 5.04576 64.1362 4.83274L64.5268 4.42445L59.9114 4.3357C57.3729 4.28244 55.2782 4.21144 55.2605 4.19368C55.083 4.06942 55.2427 1.17593 55.4202 0.998418C55.58 0.838655 57.4972 0.7854 62.9646 0.7854H70.296V1.38895C70.296 2.08126 69.9765 3.09309 69.7457 3.09309C69.6747 3.09309 69.3729 3.46587 69.1066 3.94516C68.8404 4.4067 68.5563 4.81499 68.4853 4.83274C68.4143 4.86824 68.3433 5.01025 68.3433 5.15226C68.3433 5.29428 68.2546 5.40078 68.1658 5.40078C68.0593 5.40078 67.8818 5.6138 67.7575 5.89783C67.651 6.1641 67.367 6.57238 67.154 6.8209C66.9232 7.06942 66.7457 7.35345 66.7457 7.45996C66.7457 7.56647 66.5149 7.93925 66.2131 8.25877C65.9291 8.59605 65.6273 9.02209 65.5741 9.1996C65.5031 9.39487 65.2723 9.7499 65.0415 9.99842C64.8108 10.2469 64.6155 10.5487 64.6155 10.6552C64.6155 10.7617 64.4202 11.0813 64.1717 11.3653C63.9232 11.6493 63.3907 12.3594 63.0179 12.9452C61.9883 14.5073 61.8818 14.6493 61.6333 14.9156C61.438 15.1286 62.0948 15.1641 66.0356 15.1641H70.6688L70.6155 16.7795L70.5623 18.3949L63.1599 18.4304L55.7398 18.4481V17.7913Z" fill="black" fill-opacity="0.6"/>
<path d="M73.8995 18.4126L73.4912 18.3416V9.76765C73.4912 3.35937 73.5445 1.15818 73.7042 0.998418C73.8285 0.874158 74.4853 0.7854 75.3906 0.7854H76.8462L76.9527 1.3712C77.006 1.67297 77.0238 5.64931 77.006 10.1937L76.9527 18.4481L75.6214 18.4659C74.8936 18.4836 74.1125 18.4659 73.8995 18.4126Z" fill="black" fill-opacity="0.6"/>
<path d="M81.4795 9.73215C81.4795 1.93925 81.515 0.980667 81.7635 0.891909C82.1185 0.749897 92.5564 0.749897 92.9114 0.891909C93.1422 0.980667 93.1955 1.31794 93.1955 2.66706V4.3357H89.2191H85.2428L85.0298 4.86824C84.8878 5.22327 84.8345 5.79132 84.9055 6.44812C85.1008 8.20552 84.7103 8.06351 89.2191 8.06351H93.1955V9.73215V11.4185L90.4085 11.312C88.8641 11.2588 87.0712 11.2588 86.4322 11.3298C85.4026 11.4363 85.2251 11.525 85.0475 11.8978C84.799 12.4481 84.7813 14.6316 85.0298 14.6316C85.1363 14.6316 85.2073 14.7558 85.2073 14.8978C85.2073 15.1286 85.7754 15.1641 89.2014 15.1641H93.1955V16.815V18.4481H87.3375H81.4795V9.73215Z" fill="black" fill-opacity="0.6"/>
<path d="M116.627 9.80312V0.998383L117.036 0.891874C117.675 0.73211 119.29 0.767613 119.663 0.96288C119.982 1.14039 120 1.42442 120 9.74986V18.3593H119.521C119.237 18.3593 118.491 18.4126 117.835 18.4836L116.627 18.5901V9.80312Z" fill="black" fill-opacity="0.6"/>
<path d="M20.9111 18.1285C20.7869 17.9865 20.4496 17.8268 20.1833 17.7558C19.9171 17.7025 19.704 17.5605 19.704 17.4717C19.704 17.3652 19.5975 17.2942 19.4555 17.2942C19.1005 17.2942 16.8816 15.0043 16.7573 14.5072C16.704 14.2942 16.5443 14.0812 16.4023 14.028C16.2603 13.9747 16.1537 13.6907 16.1537 13.3179C16.1537 12.9806 16.0472 12.6788 15.9407 12.6433C15.7632 12.5723 15.71 11.8268 15.71 9.66109C15.71 7.49541 15.7632 6.74985 15.9407 6.67884C16.0472 6.64334 16.1537 6.46582 16.1537 6.27056C16.1537 5.86227 16.633 4.95695 17.2188 4.26464C17.8224 3.53683 18.6922 2.73801 18.852 2.73801C18.9407 2.73801 18.994 2.61375 18.994 2.47174C18.994 2.32973 19.1537 2.20547 19.349 2.20547C19.5443 2.20547 19.704 2.13446 19.704 2.02795C19.704 1.93919 19.9171 1.79718 20.2011 1.74393C20.4674 1.67292 20.7159 1.54866 20.7691 1.47766C20.9289 1.22913 23.1123 0.891857 24.4082 0.909608C25.8106 0.92736 28.0472 1.30014 28.0472 1.53091C28.0472 1.60192 28.1537 1.67292 28.2958 1.67292C28.42 1.67292 28.7395 1.83269 28.9881 2.02795C29.2366 2.22322 29.5206 2.38298 29.6271 2.38298C29.8934 2.38298 31.775 4.37115 31.775 4.63742C31.775 4.76168 31.8461 4.86819 31.9526 4.86819C32.1833 4.86819 32.8401 6.34156 32.8401 6.89186C32.8401 7.14038 32.9289 7.3889 33.0177 7.44215C33.1242 7.51316 33.1952 8.54275 33.1952 9.94511C33.1952 11.4185 33.1242 12.3238 33.0177 12.3238C32.9289 12.3238 32.8401 12.5191 32.8401 12.7853C32.8401 13.2291 32.2543 14.4717 31.8283 14.951C31.704 15.0753 31.5975 15.2706 31.5975 15.3593C31.5975 15.4481 31.4733 15.5191 31.3313 15.5191C31.1893 15.5191 31.065 15.6078 31.065 15.6966C31.065 15.9274 30.4082 16.5842 30.1774 16.5842C30.0887 16.5842 29.9999 16.7084 29.9999 16.8504C29.9999 16.9925 29.8934 17.1167 29.7514 17.1167C29.6094 17.1167 29.3786 17.241 29.2366 17.383C29.0946 17.525 28.562 17.809 28.065 18.0043C27.2662 18.3061 26.7336 18.3593 24.1419 18.3593C21.8875 18.3593 21.0887 18.3061 20.9111 18.1285ZM25.1005 15.0043C25.1537 14.9155 25.491 14.7913 25.8283 14.738C26.1656 14.667 26.4496 14.5427 26.4496 14.454C26.4496 14.3475 26.5561 14.2765 26.6981 14.2765C26.8401 14.2765 27.2484 13.9924 27.5857 13.6552C27.9407 13.3179 28.3135 13.0339 28.4023 13.0339C28.5088 13.0339 28.5798 12.9274 28.5798 12.7853C28.5798 12.6611 28.704 12.4481 28.8461 12.3238C28.9881 12.1996 29.1123 11.951 29.1123 11.7735C29.1123 11.6138 29.2366 11.3475 29.3786 11.1877C29.6804 10.9037 29.7691 8.41849 29.4851 8.41849C29.3964 8.41849 29.2721 8.18772 29.2011 7.88594C29.1301 7.58417 29.0058 7.3534 28.9171 7.3534C28.8283 7.3534 28.7573 7.26464 28.7573 7.14038C28.7573 6.8031 27.1242 5.22322 26.7691 5.22322C26.5916 5.22322 26.4496 5.15221 26.4496 5.06346C26.4496 4.95695 26.0946 4.83269 25.6508 4.76168C25.207 4.70843 24.852 4.58417 24.852 4.49541C24.852 4.40665 24.7277 4.33564 24.5857 4.33564C24.4437 4.33564 24.3194 4.40665 24.3194 4.49541C24.3194 4.56641 23.8756 4.69067 23.3253 4.76168C22.7928 4.81493 22.2425 4.95695 22.136 5.0457C21.3549 5.66701 20.9466 6.09304 20.9466 6.27056C20.9466 6.37706 20.8579 6.46582 20.7691 6.46582C20.4674 6.46582 19.704 7.37115 19.704 7.72618C19.704 7.92144 19.633 8.06346 19.5443 8.06346C19.3135 8.06346 19.1715 9.46582 19.2958 10.6019C19.3668 11.2765 19.4733 11.6138 19.633 11.6138C19.775 11.6138 19.8816 11.738 19.8816 11.8978C19.8816 12.2706 20.8046 13.5664 21.0887 13.5664C21.1952 13.5664 21.3017 13.6552 21.3017 13.7439C21.3017 13.8504 21.4969 14.0102 21.7455 14.099C21.994 14.1877 22.1893 14.3475 22.1893 14.4362C22.1893 14.525 22.5088 14.6493 22.8993 14.7203C23.2898 14.7913 23.6094 14.9155 23.6094 15.0043C23.6094 15.2173 24.9762 15.2173 25.1005 15.0043Z" fill="black" fill-opacity="0.6"/>
</svg>
