<svg width="21" height="26" viewBox="0 0 21 26" fill="none" xmlns="http://www.w3.org/2000/svg">
<path d="M11.0544 21.679C10.9952 21.6593 10.2252 20.7576 9.34325 19.6651C8.46135 18.5792 7.30304 17.1511 6.76995 16.4929L5.80249 15.3017L5.79591 14.4066C5.79591 13.3799 5.71693 12.4849 5.53265 11.3529C5.42735 10.7277 5.34837 10.4512 5.14435 10.0366C4.82845 9.39822 4.3151 8.61504 3.97287 8.25965C3.52534 7.78579 3.49243 7.71339 3.49243 7.16714C3.49243 6.8644 3.53192 6.56824 3.59115 6.42345C3.74252 6.05489 4.11108 5.69292 4.4928 5.52839C4.78896 5.40334 4.92059 5.3836 5.3747 5.4165C6.22369 5.46915 6.78969 5.79822 7.7374 6.78542C8.48768 7.57519 8.99444 8.37153 9.67232 9.84575L9.98165 10.5236L14.095 7.95032C16.3524 6.53533 18.3202 5.32436 18.465 5.25855C18.7941 5.10718 19.5509 5.09402 19.9524 5.23223C20.6039 5.46257 20.9264 5.99566 20.933 6.83149C20.933 7.45672 20.7882 7.84502 20.446 8.14118C20.3275 8.24648 19.4127 8.84539 18.4124 9.4772C17.412 10.109 16.5959 10.6421 16.5959 10.6618C16.5959 10.6816 16.7144 10.7671 16.8657 10.8593C17.4252 11.2015 17.7542 11.9255 17.6884 12.6692L17.6489 13.0772L17.9977 13.4392C18.2215 13.6695 18.386 13.913 18.4518 14.117C18.5901 14.5053 18.5901 15.0779 18.465 15.4333C18.3729 15.69 18.3729 15.7032 18.5571 15.894C18.8731 16.2231 18.9586 16.4666 18.9586 16.9931C18.9586 17.5196 18.8401 17.8487 18.5374 18.2107C18.3202 18.4739 14.4241 20.8827 13.7528 21.1723C13.4763 21.2907 13.0222 21.4487 12.7327 21.5211C12.2259 21.6527 11.265 21.7448 11.0544 21.679Z" fill="#3271CA"/>
<path d="M8.71126 5.25188C8.49407 5.00179 7.37524 1.86906 7.37524 1.50051C7.37524 1.05956 7.57268 0.848954 8.00705 0.809466C8.46117 0.763396 8.71126 0.901605 8.84947 1.26358C9.88932 4.07382 10.0078 4.43579 10.0078 4.73195C10.0078 4.95572 9.9683 5.10051 9.86958 5.22555C9.75111 5.37692 9.69188 5.39667 9.29042 5.39667C8.91528 5.39667 8.82314 5.37692 8.71126 5.25188Z" fill="#3271CA"/>
<path d="M14.2266 5.22543C13.9634 4.89637 14.0292 4.5673 14.707 2.71794C15.0493 1.78997 15.3783 0.987044 15.4376 0.927811C15.51 0.855417 15.6613 0.82251 15.9641 0.82251C16.5498 0.82251 16.688 0.960718 16.688 1.5333C16.6815 1.88211 16.6025 2.16511 16.0825 3.54061C15.7535 4.42251 15.431 5.19911 15.3718 5.26492C15.273 5.37022 15.1677 5.39655 14.8058 5.39655C14.4043 5.39655 14.3451 5.3768 14.2266 5.22543Z" fill="#3271CA"/>
<path d="M11.4888 4.63985L11.3242 4.4819V2.41536C11.3242 0.421207 11.3308 0.34223 11.4624 0.171115C11.5875 0.0131627 11.6401 0 12.0482 0C12.4562 0 12.5089 0.0131627 12.6339 0.171115C12.7655 0.34223 12.7721 0.421207 12.7721 2.41536V4.4819L12.6076 4.63985C12.476 4.77806 12.3838 4.80439 12.0482 4.80439C11.7125 4.80439 11.6204 4.77806 11.4888 4.63985Z" fill="#3271CA"/>
<path fill-rule="evenodd" clip-rule="evenodd" d="M5.10502 24.7065C5.46042 25.1474 5.78948 25.4831 5.92769 25.5489C6.23043 25.7003 6.90831 25.7068 7.19789 25.562C7.69807 25.3054 10.5083 23.5284 10.607 23.4034C10.7584 23.2191 10.8176 22.8966 10.7584 22.5346C10.7189 22.2779 10.5807 22.0673 9.68564 20.9683C9.11965 20.2641 7.935 18.7964 7.04652 17.7039C6.16462 16.6048 5.34853 15.6571 5.23665 15.5847C5.09186 15.4992 4.90758 15.4662 4.53903 15.4662H4.04543L2.69625 16.2955C0.857654 17.4304 0.448308 17.6696 0.358262 17.9968C0.328725 18.1041 0.333544 18.2209 0.333544 18.3818C0.333544 18.6516 0.373032 18.7964 0.498077 18.9807C0.590216 19.1123 1.53135 20.2904 2.59095 21.6001C3.11746 22.2516 3.66536 22.9279 4.12194 23.4914C4.57852 24.0549 4.94378 24.5057 5.10502 24.7065ZM7.44151 23.9561C8.02307 23.9561 8.49453 23.4847 8.49453 22.9031C8.49453 22.3215 8.02307 21.8501 7.44151 21.8501C6.85995 21.8501 6.38849 22.3215 6.38849 22.9031C6.38849 23.4847 6.85995 23.9561 7.44151 23.9561Z" fill="#3271CA"/>
</svg>
