<svg width="20" height="20" viewBox="0 0 20 20" fill="none" xmlns="http://www.w3.org/2000/svg">
<g clip-path="url(#clip0_2883_1611)">
<path fill-rule="evenodd" clip-rule="evenodd" d="M18.52 0C19.3325 0 20 0.64 20 1.44V18.56C20 19.3475 19.3337 20 18.52 20H1.48C0.6675 20 0 19.3462 0 18.56V1.44C0 0.64 0.66625 0 1.48 0H18.52ZM4.45375 6.2C4.9037 6.18789 5.33116 6.00064 5.64513 5.67811C5.9591 5.35558 6.13479 4.92324 6.13479 4.47312C6.13479 4.02301 5.9591 3.59067 5.64513 3.26814C5.33116 2.94561 4.9037 2.75836 4.45375 2.74625C3.49375 2.74625 2.73375 3.52 2.73375 4.46625C2.73375 5.42625 3.49375 6.2 4.45375 6.2ZM17.04 11.8125C17.04 9.24 16.4937 7.26625 13.48 7.26625C12.04 7.26625 11.08 8.05375 10.68 8.8H10.64V7.49375H7.8V17.04H10.76V12.32C10.76 11.08 10.9863 9.86625 12.5338 9.86625C14.0538 9.86625 14.08 11.2937 14.08 12.4V17.04H17.04V11.8125ZM2.96 17.0413H5.93375V7.49375H2.96V17.0413Z" fill="#E5E5E5"/>
</g>
<defs>
<clipPath id="clip0_2883_1611">
<rect width="20" height="20" fill="white"/>
</clipPath>
</defs>
</svg>
