<svg width="20" height="16" viewBox="0 0 20 16" fill="none" xmlns="http://www.w3.org/2000/svg">
<path fill-rule="evenodd" clip-rule="evenodd" d="M19 1.61875C19.5987 2.26625 19.7938 3.7375 19.7938 3.7375L19.7931 3.73625C19.7931 3.73625 19.9931 5.4625 19.9931 7.1875V8.805C19.9931 10.5319 19.7931 12.2569 19.7931 12.2569C19.7931 12.2569 19.5969 13.7269 18.9994 14.3744C18.3137 15.1395 17.5539 15.2189 17.1252 15.2638C17.0783 15.2687 17.0353 15.2732 16.9969 15.2781C14.1981 15.4925 9.99687 15.5 9.99687 15.5C9.99687 15.5 4.79875 15.4488 3.19875 15.2863C3.12272 15.271 3.03057 15.2591 2.92622 15.2456C2.41977 15.1801 1.62598 15.0775 0.99375 14.3737C0.395 13.7275 0.2 12.2575 0.2 12.2575C0.2 12.2575 0 10.5325 0 8.80625V7.1875C0 5.4625 0.2 3.7375 0.2 3.7375C0.2 3.7375 0.396875 2.26625 0.994375 1.61875C1.6832 0.850753 2.44571 0.773589 2.87443 0.730204C2.91951 0.725642 2.9609 0.721454 2.99813 0.716875C5.795 0.5 9.99188 0.5 9.99188 0.5H10.0013C10.0013 0.5 14.1981 0.5 16.9963 0.716875C17.0335 0.721454 17.0749 0.725642 17.1199 0.730204C17.5487 0.773589 18.3112 0.850752 19 1.61875ZM13.75 8L7.5 11.75V4.25L13.75 8Z" fill="#E5E5E5"/>
</svg>
