<svg width="185" height="173" viewBox="0 0 185 173" fill="none" xmlns="http://www.w3.org/2000/svg">
<g clip-path="url(#clip0_1048_2899)" filter="url(#filter0_f_1048_2899)">
<path d="M82.625 137.388C99.1058 137.18 109.053 133.639 114.894 128.316C120.406 123.276 121.754 117.12 121.968 112.213H122V107.866C121.998 104.843 120.796 101.944 118.658 99.8067C116.52 97.6696 113.62 96.4691 110.597 96.4691H90.5V96.4502H71.6V96.4691H51.503C45.203 96.4691 40.1 101.572 40.1 107.872V112.213H40.1315C40.3457 117.127 41.6939 123.282 47.2064 128.309C53.0465 133.639 62.9942 137.18 79.475 137.388V137.4H82.625V137.388Z" fill="url(#paint0_radial_1048_2899)"/>
<path d="M82.625 137.388C99.1058 137.18 109.053 133.639 114.894 128.316C120.406 123.276 121.754 117.12 121.968 112.213H122V107.866C121.998 104.843 120.796 101.944 118.658 99.8067C116.52 97.6696 113.62 96.4691 110.597 96.4691H90.5V96.4502H71.6V96.4691H51.503C45.203 96.4691 40.1 101.572 40.1 107.872V112.213H40.1315C40.3457 117.127 41.6939 123.282 47.2064 128.309C53.0465 133.639 62.9942 137.18 79.475 137.388V137.4H82.625V137.388Z" fill="url(#paint1_linear_1048_2899)"/>
<path d="M82.625 137.388C99.1058 137.18 109.053 133.639 114.894 128.316C120.406 123.276 121.754 117.12 121.968 112.213H122V107.866C121.998 104.843 120.796 101.944 118.658 99.8067C116.52 97.6696 113.62 96.4691 110.597 96.4691H90.5V96.4502H71.6V96.4691H51.503C45.203 96.4691 40.1 101.572 40.1 107.872V112.213H40.1315C40.3457 117.127 41.6939 123.282 47.2064 128.309C53.0465 133.639 62.9942 137.18 79.475 137.388V137.4H82.625V137.388Z" fill="url(#paint2_radial_1048_2899)"/>
<path d="M82.625 137.388C99.1058 137.18 109.053 133.639 114.894 128.316C120.406 123.276 121.754 117.12 121.968 112.213H122V107.866C121.998 104.843 120.796 101.944 118.658 99.8067C116.52 97.6696 113.62 96.4691 110.597 96.4691H90.5V96.4502H71.6V96.4691H51.503C45.203 96.4691 40.1 101.572 40.1 107.872V112.213H40.1315C40.3457 117.127 41.6939 123.282 47.2064 128.309C53.0465 133.639 62.9942 137.18 79.475 137.388V137.4H82.625V137.388Z" fill="url(#paint3_radial_1048_2899)"/>
<path d="M82.625 137.388C99.1058 137.18 109.053 133.639 114.894 128.316C120.406 123.276 121.754 117.12 121.968 112.213H122V107.866C121.998 104.843 120.796 101.944 118.658 99.8067C116.52 97.6696 113.62 96.4691 110.597 96.4691H90.5V96.4502H71.6V96.4691H51.503C45.203 96.4691 40.1 101.572 40.1 107.872V112.213H40.1315C40.3457 117.127 41.6939 123.282 47.2064 128.309C53.0465 133.639 62.9942 137.18 79.475 137.388V137.4H82.625V137.388Z" fill="url(#paint4_radial_1048_2899)"/>
<path d="M84.2 39.7501C84.2 38.9147 83.8681 38.1135 83.2774 37.5227C82.6866 36.932 81.8854 36.6001 81.05 36.6001C80.2145 36.6001 79.4133 36.932 78.8226 37.5227C78.2318 38.1135 77.9 38.9147 77.9 39.7501V46.0501H84.2V39.7501Z" fill="url(#paint5_linear_1048_2899)"/>
<path d="M49.55 52.3499C49.55 49.8436 50.5456 47.44 52.3178 45.6677C54.09 43.8955 56.4937 42.8999 59 42.8999H103.1C105.606 42.8999 108.01 43.8955 109.782 45.6677C111.554 47.44 112.55 49.8436 112.55 52.3499V77.5499C112.55 80.0562 111.554 82.4598 109.782 84.2321C108.01 86.0043 105.606 86.9999 103.1 86.9999H59C56.4937 86.9999 54.09 86.0043 52.3178 84.2321C50.5456 82.4598 49.55 80.0562 49.55 77.5499V52.3499Z" fill="url(#paint6_radial_1048_2899)"/>
<path d="M93.65 58.6499C91.9791 58.6499 90.3767 59.3137 89.1952 60.4951C88.0137 61.6766 87.35 63.279 87.35 64.9499C87.35 66.6208 88.0137 68.2232 89.1952 69.4047C90.3767 70.5862 91.9791 71.2499 93.65 71.2499C95.3208 71.2499 96.9233 70.5862 98.1047 69.4047C99.2862 68.2232 99.95 66.6208 99.95 64.9499C99.95 63.279 99.2862 61.6766 98.1047 60.4951C96.9233 59.3137 95.3208 58.6499 93.65 58.6499Z" fill="url(#paint7_linear_1048_2899)"/>
<path d="M62.15 64.9499C62.15 63.279 62.8137 61.6766 63.9952 60.4951C65.1767 59.3137 66.7791 58.6499 68.45 58.6499C70.1208 58.6499 71.7233 59.3137 72.9047 60.4951C74.0862 61.6766 74.75 63.279 74.75 64.9499C74.75 66.6208 74.0862 68.2232 72.9047 69.4047C71.7233 70.5862 70.1208 71.2499 68.45 71.2499C66.7791 71.2499 65.1767 70.5862 63.9952 69.4047C62.8137 68.2232 62.15 66.6208 62.15 64.9499Z" fill="url(#paint8_linear_1048_2899)"/>
<path d="M142.683 132.442L137.857 130.88C136.393 130.391 135.063 129.568 133.972 128.477C132.881 127.386 132.059 126.056 131.57 124.592L129.995 119.773C129.864 119.401 129.621 119.078 129.3 118.85C128.978 118.622 128.594 118.5 128.199 118.5C127.805 118.5 127.42 118.622 127.099 118.85C126.777 119.078 126.534 119.401 126.404 119.773L124.841 124.592C124.361 126.047 123.552 127.37 122.477 128.461C121.402 129.551 120.089 130.379 118.642 130.88L113.823 132.442C113.45 132.573 113.128 132.815 112.9 133.137C112.672 133.459 112.549 133.843 112.549 134.238C112.549 134.632 112.672 135.016 112.9 135.338C113.128 135.66 113.45 135.903 113.823 136.033L118.642 137.602C120.111 138.092 121.445 138.917 122.539 140.013C123.632 141.109 124.455 142.445 124.942 143.914L126.504 148.728C126.635 149.1 126.878 149.422 127.199 149.65C127.521 149.878 127.906 150.001 128.3 150.001C128.694 150.001 129.079 149.878 129.401 149.65C129.722 149.422 129.965 149.1 130.095 148.728L131.664 143.914C132.153 142.449 132.976 141.117 134.068 140.025C135.161 138.933 136.492 138.109 137.958 137.621L142.777 136.058C143.15 135.928 143.472 135.685 143.7 135.363C143.928 135.042 144.051 134.657 144.051 134.263C144.051 133.868 143.928 133.484 143.7 133.162C143.472 132.841 143.15 132.598 142.777 132.467L142.683 132.442Z" fill="url(#paint9_linear_1048_2899)"/>
<path d="M111.781 82.4766L113.974 89.2239C114.654 91.2768 115.806 93.142 117.336 94.6703C118.867 96.1985 120.734 97.3474 122.787 98.025L129.535 100.217L129.667 100.255C130.187 100.438 130.638 100.779 130.957 101.229C131.276 101.679 131.447 102.217 131.447 102.769C131.447 103.321 131.276 103.859 130.957 104.309C130.638 104.759 130.187 105.099 129.667 105.283L122.92 107.475C120.866 108.153 118.999 109.301 117.469 110.83C115.938 112.358 114.787 114.223 114.106 116.276L111.914 123.017C111.73 123.537 111.39 123.988 110.94 124.307C110.49 124.626 109.952 124.797 109.4 124.797C108.848 124.797 108.31 124.626 107.86 124.307C107.41 123.988 107.069 123.537 106.886 123.017L104.688 116.276C103.905 113.891 102.49 111.764 100.593 110.121C99.2138 108.925 97.6124 108.013 95.8802 107.437L89.1329 105.245C88.6125 105.062 88.1617 104.721 87.8429 104.271C87.5241 103.821 87.3528 103.283 87.3528 102.731C87.3528 102.179 87.5241 101.641 87.8429 101.191C88.1617 100.741 88.6125 100.401 89.1329 100.217L95.8802 98.025C97.9084 97.329 99.7476 96.172 101.253 94.6448C102.758 93.1176 103.889 91.262 104.555 89.2239L106.748 82.4829C106.93 81.9603 107.27 81.5073 107.721 81.1867C108.172 80.8661 108.711 80.6938 109.265 80.6938C109.818 80.6938 110.357 80.8661 110.808 81.1867C111.259 81.5073 111.6 81.9603 111.781 82.4829" fill="url(#paint10_linear_1048_2899)"/>
</g>
<g clip-path="url(#clip1_1048_2899)">
<path d="M82.625 137.388C99.1058 137.18 109.053 133.639 114.894 128.316C120.406 123.276 121.754 117.12 121.968 112.213H122V107.866C121.998 104.843 120.796 101.944 118.658 99.8067C116.52 97.6696 113.62 96.4691 110.597 96.4691H90.5V96.4502H71.6V96.4691H51.503C45.203 96.4691 40.1 101.572 40.1 107.872V112.213H40.1315C40.3457 117.127 41.6939 123.282 47.2064 128.309C53.0465 133.639 62.9942 137.18 79.475 137.388V137.4H82.625V137.388Z" fill="url(#paint11_radial_1048_2899)"/>
<path d="M82.625 137.388C99.1058 137.18 109.053 133.639 114.894 128.316C120.406 123.276 121.754 117.12 121.968 112.213H122V107.866C121.998 104.843 120.796 101.944 118.658 99.8067C116.52 97.6696 113.62 96.4691 110.597 96.4691H90.5V96.4502H71.6V96.4691H51.503C45.203 96.4691 40.1 101.572 40.1 107.872V112.213H40.1315C40.3457 117.127 41.6939 123.282 47.2064 128.309C53.0465 133.639 62.9942 137.18 79.475 137.388V137.4H82.625V137.388Z" fill="url(#paint12_linear_1048_2899)"/>
<path d="M82.625 137.388C99.1058 137.18 109.053 133.639 114.894 128.316C120.406 123.276 121.754 117.12 121.968 112.213H122V107.866C121.998 104.843 120.796 101.944 118.658 99.8067C116.52 97.6696 113.62 96.4691 110.597 96.4691H90.5V96.4502H71.6V96.4691H51.503C45.203 96.4691 40.1 101.572 40.1 107.872V112.213H40.1315C40.3457 117.127 41.6939 123.282 47.2064 128.309C53.0465 133.639 62.9942 137.18 79.475 137.388V137.4H82.625V137.388Z" fill="url(#paint13_radial_1048_2899)"/>
<path d="M82.625 137.388C99.1058 137.18 109.053 133.639 114.894 128.316C120.406 123.276 121.754 117.12 121.968 112.213H122V107.866C121.998 104.843 120.796 101.944 118.658 99.8067C116.52 97.6696 113.62 96.4691 110.597 96.4691H90.5V96.4502H71.6V96.4691H51.503C45.203 96.4691 40.1 101.572 40.1 107.872V112.213H40.1315C40.3457 117.127 41.6939 123.282 47.2064 128.309C53.0465 133.639 62.9942 137.18 79.475 137.388V137.4H82.625V137.388Z" fill="url(#paint14_radial_1048_2899)"/>
<path d="M82.625 137.388C99.1058 137.18 109.053 133.639 114.894 128.316C120.406 123.276 121.754 117.12 121.968 112.213H122V107.866C121.998 104.843 120.796 101.944 118.658 99.8067C116.52 97.6696 113.62 96.4691 110.597 96.4691H90.5V96.4502H71.6V96.4691H51.503C45.203 96.4691 40.1 101.572 40.1 107.872V112.213H40.1315C40.3457 117.127 41.6939 123.282 47.2064 128.309C53.0465 133.639 62.9942 137.18 79.475 137.388V137.4H82.625V137.388Z" fill="url(#paint15_radial_1048_2899)"/>
<path d="M84.2 39.7501C84.2 38.9147 83.8681 38.1135 83.2774 37.5227C82.6866 36.932 81.8854 36.6001 81.05 36.6001C80.2145 36.6001 79.4133 36.932 78.8226 37.5227C78.2318 38.1135 77.9 38.9147 77.9 39.7501V46.0501H84.2V39.7501Z" fill="url(#paint16_linear_1048_2899)"/>
<path d="M49.55 52.3499C49.55 49.8436 50.5456 47.44 52.3178 45.6677C54.09 43.8955 56.4937 42.8999 59 42.8999H103.1C105.606 42.8999 108.01 43.8955 109.782 45.6677C111.554 47.44 112.55 49.8436 112.55 52.3499V77.5499C112.55 80.0562 111.554 82.4598 109.782 84.2321C108.01 86.0043 105.606 86.9999 103.1 86.9999H59C56.4937 86.9999 54.09 86.0043 52.3178 84.2321C50.5456 82.4598 49.55 80.0562 49.55 77.5499V52.3499Z" fill="url(#paint17_radial_1048_2899)"/>
<path d="M93.65 58.6499C91.9791 58.6499 90.3767 59.3137 89.1952 60.4951C88.0137 61.6766 87.35 63.279 87.35 64.9499C87.35 66.6208 88.0137 68.2232 89.1952 69.4047C90.3767 70.5862 91.9791 71.2499 93.65 71.2499C95.3208 71.2499 96.9233 70.5862 98.1047 69.4047C99.2862 68.2232 99.95 66.6208 99.95 64.9499C99.95 63.279 99.2862 61.6766 98.1047 60.4951C96.9233 59.3137 95.3208 58.6499 93.65 58.6499Z" fill="url(#paint18_linear_1048_2899)"/>
<path d="M62.15 64.9499C62.15 63.279 62.8137 61.6766 63.9952 60.4951C65.1767 59.3137 66.7791 58.6499 68.45 58.6499C70.1208 58.6499 71.7233 59.3137 72.9047 60.4951C74.0862 61.6766 74.75 63.279 74.75 64.9499C74.75 66.6208 74.0862 68.2232 72.9047 69.4047C71.7233 70.5862 70.1208 71.2499 68.45 71.2499C66.7791 71.2499 65.1767 70.5862 63.9952 69.4047C62.8137 68.2232 62.15 66.6208 62.15 64.9499Z" fill="url(#paint19_linear_1048_2899)"/>
<path d="M142.683 132.442L137.857 130.88C136.393 130.391 135.063 129.568 133.972 128.477C132.881 127.386 132.059 126.056 131.57 124.592L129.995 119.773C129.864 119.401 129.621 119.078 129.3 118.85C128.978 118.622 128.594 118.5 128.199 118.5C127.805 118.5 127.42 118.622 127.099 118.85C126.777 119.078 126.534 119.401 126.404 119.773L124.841 124.592C124.361 126.047 123.552 127.37 122.477 128.461C121.402 129.551 120.089 130.379 118.642 130.88L113.823 132.442C113.45 132.573 113.128 132.815 112.9 133.137C112.672 133.459 112.549 133.843 112.549 134.238C112.549 134.632 112.672 135.016 112.9 135.338C113.128 135.66 113.45 135.903 113.823 136.033L118.642 137.602C120.111 138.092 121.445 138.917 122.539 140.013C123.632 141.109 124.455 142.445 124.942 143.914L126.504 148.728C126.635 149.1 126.878 149.422 127.199 149.65C127.521 149.878 127.906 150.001 128.3 150.001C128.694 150.001 129.079 149.878 129.401 149.65C129.722 149.422 129.965 149.1 130.095 148.728L131.664 143.914C132.153 142.449 132.976 141.117 134.068 140.025C135.161 138.933 136.492 138.109 137.958 137.621L142.777 136.058C143.15 135.928 143.472 135.685 143.7 135.363C143.928 135.042 144.051 134.657 144.051 134.263C144.051 133.868 143.928 133.484 143.7 133.162C143.472 132.841 143.15 132.598 142.777 132.467L142.683 132.442Z" fill="url(#paint20_linear_1048_2899)"/>
<path d="M111.781 82.4766L113.974 89.2239C114.654 91.2768 115.806 93.142 117.336 94.6703C118.867 96.1985 120.734 97.3474 122.787 98.025L129.535 100.217L129.667 100.255C130.187 100.438 130.638 100.779 130.957 101.229C131.276 101.679 131.447 102.217 131.447 102.769C131.447 103.321 131.276 103.859 130.957 104.309C130.638 104.759 130.187 105.099 129.667 105.283L122.92 107.475C120.866 108.153 118.999 109.301 117.469 110.83C115.938 112.358 114.787 114.223 114.106 116.276L111.914 123.017C111.73 123.537 111.39 123.988 110.94 124.307C110.49 124.626 109.952 124.797 109.4 124.797C108.848 124.797 108.31 124.626 107.86 124.307C107.41 123.988 107.069 123.537 106.886 123.017L104.688 116.276C103.905 113.891 102.49 111.764 100.593 110.121C99.2138 108.925 97.6124 108.013 95.8802 107.437L89.1329 105.245C88.6125 105.062 88.1617 104.721 87.8429 104.271C87.5241 103.821 87.3528 103.283 87.3528 102.731C87.3528 102.179 87.5241 101.641 87.8429 101.191C88.1617 100.741 88.6125 100.401 89.1329 100.217L95.8802 98.025C97.9084 97.329 99.7476 96.172 101.253 94.6448C102.758 93.1176 103.889 91.262 104.555 89.2239L106.748 82.4829C106.93 81.9603 107.27 81.5073 107.721 81.1867C108.172 80.8661 108.711 80.6938 109.265 80.6938C109.818 80.6938 110.357 80.8661 110.808 81.1867C111.259 81.5073 111.6 81.9603 111.781 82.4829" fill="url(#paint21_linear_1048_2899)"/>
</g>
<defs>
<filter id="filter0_f_1048_2899" x="-22.05" y="-16.1" width="206.2" height="206.2" filterUnits="userSpaceOnUse" color-interpolation-filters="sRGB">
<feFlood flood-opacity="0" result="BackgroundImageFix"/>
<feBlend mode="normal" in="SourceGraphic" in2="BackgroundImageFix" result="shape"/>
<feGaussianBlur stdDeviation="20.05" result="effect1_foregroundBlur_1048_2899"/>
</filter>
<radialGradient id="paint0_radial_1048_2899" cx="0" cy="0" r="1" gradientUnits="userSpaceOnUse" gradientTransform="translate(21.2007 83.8466) rotate(30.403) scale(113.904 181.416)">
<stop stop-color="#F08AF4"/>
<stop offset="0.535" stop-color="#9C6CFE"/>
<stop offset="1" stop-color="#4E44DB"/>
</radialGradient>
<linearGradient id="paint1_linear_1048_2899" x1="81.05" y1="91.574" x2="99.5783" y2="160.798" gradientUnits="userSpaceOnUse">
<stop stop-color="#885EDB" stop-opacity="0"/>
<stop offset="1" stop-color="#E362F8"/>
</linearGradient>
<radialGradient id="paint2_radial_1048_2899" cx="0" cy="0" r="1" gradientUnits="userSpaceOnUse" gradientTransform="translate(109.4 115.35) rotate(-90) scale(18.9 10.7297)">
<stop stop-color="#4E44DB"/>
<stop offset="1" stop-color="#4E44DB" stop-opacity="0"/>
</radialGradient>
<radialGradient id="paint3_radial_1048_2899" cx="0" cy="0" r="1" gradientUnits="userSpaceOnUse" gradientTransform="translate(106.25 109.05) rotate(-135) scale(17.8191 13.3643)">
<stop stop-color="#4E44DB"/>
<stop offset="1" stop-color="#4E44DB" stop-opacity="0"/>
</radialGradient>
<radialGradient id="paint4_radial_1048_2899" cx="0" cy="0" r="1" gradientUnits="userSpaceOnUse" gradientTransform="translate(109.4 105.9) rotate(180) scale(28.35 11.1234)">
<stop stop-color="#4E44DB"/>
<stop offset="1" stop-color="#4E44DB" stop-opacity="0"/>
</radialGradient>
<linearGradient id="paint5_linear_1048_2899" x1="77.7551" y1="36.6001" x2="84.4016" y2="44.3428" gradientUnits="userSpaceOnUse">
<stop stop-color="#8B52F4"/>
<stop offset="1" stop-color="#3D35B1"/>
</linearGradient>
<radialGradient id="paint6_radial_1048_2899" cx="0" cy="0" r="1" gradientUnits="userSpaceOnUse" gradientTransform="translate(27.5011 24.0003) rotate(39.055) scale(106.989 204.386)">
<stop stop-color="#F08AF4"/>
<stop offset="0.535" stop-color="#9C6CFE"/>
<stop offset="1" stop-color="#4E44DB"/>
</radialGradient>
<linearGradient id="paint7_linear_1048_2899" x1="90.3362" y1="59.135" x2="99.887" y2="75.6158" gradientUnits="userSpaceOnUse">
<stop stop-color="#FDFDFD"/>
<stop offset="1" stop-color="#F9DCFA"/>
</linearGradient>
<linearGradient id="paint8_linear_1048_2899" x1="65.1362" y1="59.135" x2="74.687" y2="75.6158" gradientUnits="userSpaceOnUse">
<stop stop-color="#FDFDFD"/>
<stop offset="1" stop-color="#F9DCFA"/>
</linearGradient>
<linearGradient id="paint9_linear_1048_2899" x1="118.85" y1="121.65" x2="137.763" y2="146.844" gradientUnits="userSpaceOnUse">
<stop stop-color="#FFA43D"/>
<stop offset="1" stop-color="#FB5937"/>
</linearGradient>
<linearGradient id="paint10_linear_1048_2899" x1="122" y1="118.5" x2="91.0733" y2="82.9428" gradientUnits="userSpaceOnUse">
<stop stop-color="#FF8A69"/>
<stop offset="1" stop-color="#FFCD0F"/>
</linearGradient>
<radialGradient id="paint11_radial_1048_2899" cx="0" cy="0" r="1" gradientUnits="userSpaceOnUse" gradientTransform="translate(21.2007 83.8466) rotate(30.403) scale(113.904 181.416)">
<stop stop-color="#F08AF4"/>
<stop offset="0.535" stop-color="#9C6CFE"/>
<stop offset="1" stop-color="#4E44DB"/>
</radialGradient>
<linearGradient id="paint12_linear_1048_2899" x1="81.05" y1="91.574" x2="99.5783" y2="160.798" gradientUnits="userSpaceOnUse">
<stop stop-color="#885EDB" stop-opacity="0"/>
<stop offset="1" stop-color="#E362F8"/>
</linearGradient>
<radialGradient id="paint13_radial_1048_2899" cx="0" cy="0" r="1" gradientUnits="userSpaceOnUse" gradientTransform="translate(109.4 115.35) rotate(-90) scale(18.9 10.7297)">
<stop stop-color="#4E44DB"/>
<stop offset="1" stop-color="#4E44DB" stop-opacity="0"/>
</radialGradient>
<radialGradient id="paint14_radial_1048_2899" cx="0" cy="0" r="1" gradientUnits="userSpaceOnUse" gradientTransform="translate(106.25 109.05) rotate(-135) scale(17.8191 13.3643)">
<stop stop-color="#4E44DB"/>
<stop offset="1" stop-color="#4E44DB" stop-opacity="0"/>
</radialGradient>
<radialGradient id="paint15_radial_1048_2899" cx="0" cy="0" r="1" gradientUnits="userSpaceOnUse" gradientTransform="translate(109.4 105.9) rotate(180) scale(28.35 11.1234)">
<stop stop-color="#4E44DB"/>
<stop offset="1" stop-color="#4E44DB" stop-opacity="0"/>
</radialGradient>
<linearGradient id="paint16_linear_1048_2899" x1="77.7551" y1="36.6001" x2="84.4016" y2="44.3428" gradientUnits="userSpaceOnUse">
<stop stop-color="#8B52F4"/>
<stop offset="1" stop-color="#3D35B1"/>
</linearGradient>
<radialGradient id="paint17_radial_1048_2899" cx="0" cy="0" r="1" gradientUnits="userSpaceOnUse" gradientTransform="translate(27.5011 24.0003) rotate(39.055) scale(106.989 204.386)">
<stop stop-color="#F08AF4"/>
<stop offset="0.535" stop-color="#9C6CFE"/>
<stop offset="1" stop-color="#4E44DB"/>
</radialGradient>
<linearGradient id="paint18_linear_1048_2899" x1="90.3362" y1="59.135" x2="99.887" y2="75.6158" gradientUnits="userSpaceOnUse">
<stop stop-color="#FDFDFD"/>
<stop offset="1" stop-color="#F9DCFA"/>
</linearGradient>
<linearGradient id="paint19_linear_1048_2899" x1="65.1362" y1="59.135" x2="74.687" y2="75.6158" gradientUnits="userSpaceOnUse">
<stop stop-color="#FDFDFD"/>
<stop offset="1" stop-color="#F9DCFA"/>
</linearGradient>
<linearGradient id="paint20_linear_1048_2899" x1="118.85" y1="121.65" x2="137.763" y2="146.844" gradientUnits="userSpaceOnUse">
<stop stop-color="#FFA43D"/>
<stop offset="1" stop-color="#FB5937"/>
</linearGradient>
<linearGradient id="paint21_linear_1048_2899" x1="122" y1="118.5" x2="91.0733" y2="82.9428" gradientUnits="userSpaceOnUse">
<stop stop-color="#FF8A69"/>
<stop offset="1" stop-color="#FFCD0F"/>
</linearGradient>
<clipPath id="clip0_1048_2899">
<rect width="126" height="126" fill="white" transform="translate(18.05 24)"/>
</clipPath>
<clipPath id="clip1_1048_2899">
<rect width="126" height="126" fill="white" transform="translate(18.05 24)"/>
</clipPath>
</defs>
</svg>
