<svg width="104" height="114" viewBox="0 0 104 114" fill="none" xmlns="http://www.w3.org/2000/svg">
<path d="M42.525 100.787C59.0058 100.58 68.9535 97.039 74.7936 91.7155C80.3061 86.6755 81.6543 80.5204 81.8685 75.6127H81.9V71.2657C81.8983 68.2425 80.6962 65.3437 78.5579 63.2066C76.4196 61.0695 73.5202 59.869 70.497 59.869H50.4V59.8501H31.5V59.869H11.403C5.103 59.869 0 64.972 0 71.272V75.6127H0.0315007C0.245701 80.5267 1.5939 86.6818 7.1064 91.7092C12.9465 97.039 22.8942 100.58 39.375 100.787V100.8H42.525V100.787Z" fill="url(#paint0_radial_1048_2914)"/>
<path d="M42.525 100.787C59.0058 100.58 68.9535 97.039 74.7936 91.7155C80.3061 86.6755 81.6543 80.5204 81.8685 75.6127H81.9V71.2657C81.8983 68.2425 80.6962 65.3437 78.5579 63.2066C76.4196 61.0695 73.5202 59.869 70.497 59.869H50.4V59.8501H31.5V59.869H11.403C5.103 59.869 0 64.972 0 71.272V75.6127H0.0315007C0.245701 80.5267 1.5939 86.6818 7.1064 91.7092C12.9465 97.039 22.8942 100.58 39.375 100.787V100.8H42.525V100.787Z" fill="url(#paint1_linear_1048_2914)"/>
<path d="M42.525 100.787C59.0058 100.58 68.9535 97.039 74.7936 91.7155C80.3061 86.6755 81.6543 80.5204 81.8685 75.6127H81.9V71.2657C81.8983 68.2425 80.6962 65.3437 78.5579 63.2066C76.4196 61.0695 73.5202 59.869 70.497 59.869H50.4V59.8501H31.5V59.869H11.403C5.103 59.869 0 64.972 0 71.272V75.6127H0.0315007C0.245701 80.5267 1.5939 86.6818 7.1064 91.7092C12.9465 97.039 22.8942 100.58 39.375 100.787V100.8H42.525V100.787Z" fill="url(#paint2_radial_1048_2914)"/>
<path d="M42.525 100.787C59.0058 100.58 68.9535 97.039 74.7936 91.7155C80.3061 86.6755 81.6543 80.5204 81.8685 75.6127H81.9V71.2657C81.8983 68.2425 80.6962 65.3437 78.5579 63.2066C76.4196 61.0695 73.5202 59.869 70.497 59.869H50.4V59.8501H31.5V59.869H11.403C5.103 59.869 0 64.972 0 71.272V75.6127H0.0315007C0.245701 80.5267 1.5939 86.6818 7.1064 91.7092C12.9465 97.039 22.8942 100.58 39.375 100.787V100.8H42.525V100.787Z" fill="url(#paint3_radial_1048_2914)"/>
<path d="M42.525 100.787C59.0058 100.58 68.9535 97.039 74.7936 91.7155C80.3061 86.6755 81.6543 80.5204 81.8685 75.6127H81.9V71.2657C81.8983 68.2425 80.6962 65.3437 78.5579 63.2066C76.4196 61.0695 73.5202 59.869 70.497 59.869H50.4V59.8501H31.5V59.869H11.403C5.103 59.869 0 64.972 0 71.272V75.6127H0.0315007C0.245701 80.5267 1.5939 86.6818 7.1064 91.7092C12.9465 97.039 22.8942 100.58 39.375 100.787V100.8H42.525V100.787Z" fill="url(#paint4_radial_1048_2914)"/>
<path d="M44.1 3.15C44.1 2.31457 43.7681 1.51335 43.1774 0.922614C42.5866 0.331875 41.7854 0 40.95 0C40.1146 0 39.3133 0.331875 38.7226 0.922614C38.1319 1.51335 37.8 2.31457 37.8 3.15V9.45H44.1V3.15Z" fill="url(#paint5_linear_1048_2914)"/>
<path d="M9.45001 15.7498C9.45001 13.2435 10.4456 10.8399 12.2179 9.06765C13.9901 7.29543 16.3937 6.2998 18.9 6.2998H63C65.5063 6.2998 67.91 7.29543 69.6822 9.06765C71.4544 10.8399 72.45 13.2435 72.45 15.7498V40.9498C72.45 43.4561 71.4544 45.8597 69.6822 47.632C67.91 49.4042 65.5063 50.3998 63 50.3998H18.9C16.3937 50.3998 13.9901 49.4042 12.2179 47.632C10.4456 45.8597 9.45001 43.4561 9.45001 40.9498V15.7498Z" fill="url(#paint6_radial_1048_2914)"/>
<path d="M53.55 22.0498C51.8791 22.0498 50.2767 22.7136 49.0952 23.895C47.9137 25.0765 47.25 26.6789 47.25 28.3498C47.25 30.0207 47.9137 31.6231 49.0952 32.8046C50.2767 33.9861 51.8791 34.6498 53.55 34.6498C55.2209 34.6498 56.8233 33.9861 58.0048 32.8046C59.1863 31.6231 59.85 30.0207 59.85 28.3498C59.85 26.6789 59.1863 25.0765 58.0048 23.895C56.8233 22.7136 55.2209 22.0498 53.55 22.0498Z" fill="url(#paint7_linear_1048_2914)"/>
<path d="M22.05 28.3498C22.05 26.6789 22.7137 25.0765 23.8952 23.895C25.0767 22.7136 26.6791 22.0498 28.35 22.0498C30.0209 22.0498 31.6233 22.7136 32.8048 23.895C33.9862 25.0765 34.65 26.6789 34.65 28.3498C34.65 30.0207 33.9862 31.6231 32.8048 32.8046C31.6233 33.9861 30.0209 34.6498 28.35 34.6498C26.6791 34.6498 25.0767 33.9861 23.8952 32.8046C22.7137 31.6231 22.05 30.0207 22.05 28.3498Z" fill="url(#paint8_linear_1048_2914)"/>
<path d="M102.583 95.842L97.7571 94.2796C96.2934 93.7907 94.9635 92.9681 93.8723 91.8769C92.7812 90.7858 91.9586 89.4558 91.4697 87.9922L89.8947 83.1727C89.7643 82.8005 89.5214 82.4781 89.1998 82.25C88.8781 82.0219 88.4935 81.8994 88.0992 81.8994C87.7049 81.8994 87.3203 82.0219 86.9986 82.25C86.677 82.4781 86.4341 82.8005 86.3037 83.1727L84.7413 87.9922C84.2613 89.4464 83.4522 90.7703 82.377 91.8608C81.3018 92.9514 79.9894 93.7791 78.5421 94.2796L73.7226 95.842C73.3505 95.9724 73.0281 96.2153 72.8 96.5369C72.5719 96.8586 72.4493 97.2431 72.4493 97.6375C72.4493 98.0318 72.5719 98.4164 72.8 98.738C73.0281 99.0597 73.3505 99.3025 73.7226 99.433L78.5421 101.002C80.0108 101.491 81.345 102.317 82.4386 103.413C83.5323 104.509 84.3552 105.845 84.8421 107.314L86.4045 112.127C86.5349 112.5 86.7778 112.822 87.0994 113.05C87.4211 113.278 87.8057 113.401 88.2 113.401C88.5943 113.401 88.9789 113.278 89.3006 113.05C89.6222 112.822 89.8651 112.5 89.9955 112.127L91.5642 107.314C92.0529 105.849 92.876 104.517 93.9684 103.425C95.0608 102.332 96.3924 101.509 97.8579 101.021L102.677 99.4582C103.05 99.3277 103.372 99.0849 103.6 98.7632C103.828 98.4416 103.951 98.057 103.951 97.6627C103.951 97.2684 103.828 96.8838 103.6 96.5621C103.372 96.2404 103.05 95.9976 102.677 95.8672L102.583 95.842Z" fill="url(#paint9_linear_1048_2914)"/>
<path d="M71.6814 45.8765L73.8738 52.6238C74.5543 54.6767 75.7059 56.5419 77.2363 58.0702C78.7667 59.5984 80.6336 60.7473 82.6875 61.4249L89.4348 63.6173L89.5671 63.6551C90.0875 63.8383 90.5382 64.1785 90.857 64.6287C91.1759 65.079 91.3471 65.6171 91.3471 66.1688C91.3471 66.7205 91.1759 67.2586 90.857 67.7088C90.5382 68.1591 90.0875 68.4993 89.5671 68.6825L82.8198 70.8749C80.7659 71.5525 78.899 72.7013 77.3686 74.2296C75.8382 75.7578 74.6866 77.623 74.0061 79.676L71.8137 86.417C71.6305 86.9374 71.2903 87.3881 70.8401 87.7069C70.3898 88.0258 69.8517 88.197 69.3 88.197C68.7483 88.197 68.2102 88.0258 67.7599 87.7069C67.3097 87.3881 66.9695 86.9374 66.7863 86.417L64.5876 79.676C63.805 77.2914 62.3897 75.164 60.4926 73.5209C59.1138 72.3247 57.5124 71.4126 55.7802 70.8371L49.0329 68.6447C48.5125 68.4615 48.0618 68.1213 47.7429 67.671C47.4241 67.2208 47.2529 66.6827 47.2529 66.131C47.2529 65.5793 47.4241 65.0412 47.7429 64.5909C48.0618 64.1407 48.5125 63.8005 49.0329 63.6173L55.7802 61.4249C57.8085 60.7289 59.6476 59.5719 61.1529 58.0447C62.6582 56.5175 63.7887 54.6619 64.4553 52.6238L66.6477 45.8828C66.8296 45.3602 67.1696 44.9072 67.6206 44.5866C68.0716 44.266 68.6112 44.0938 69.1645 44.0938C69.7179 44.0938 70.2575 44.266 70.7085 44.5866C71.1595 44.9072 71.4995 45.3602 71.6814 45.8828" fill="url(#paint10_linear_1048_2914)"/>
<defs>
<radialGradient id="paint0_radial_1048_2914" cx="0" cy="0" r="1" gradientUnits="userSpaceOnUse" gradientTransform="translate(-18.8992 47.2466) rotate(30.403) scale(113.904 181.416)">
<stop stop-color="#F08AF4"/>
<stop offset="0.535" stop-color="#9C6CFE"/>
<stop offset="1" stop-color="#4E44DB"/>
</radialGradient>
<linearGradient id="paint1_linear_1048_2914" x1="40.95" y1="54.9739" x2="59.4783" y2="124.198" gradientUnits="userSpaceOnUse">
<stop stop-color="#885EDB" stop-opacity="0"/>
<stop offset="1" stop-color="#E362F8"/>
</linearGradient>
<radialGradient id="paint2_radial_1048_2914" cx="0" cy="0" r="1" gradientUnits="userSpaceOnUse" gradientTransform="translate(69.3 78.7501) rotate(-90) scale(18.9 10.7297)">
<stop stop-color="#4E44DB"/>
<stop offset="1" stop-color="#4E44DB" stop-opacity="0"/>
</radialGradient>
<radialGradient id="paint3_radial_1048_2914" cx="0" cy="0" r="1" gradientUnits="userSpaceOnUse" gradientTransform="translate(66.15 72.4501) rotate(-135) scale(17.8191 13.3643)">
<stop stop-color="#4E44DB"/>
<stop offset="1" stop-color="#4E44DB" stop-opacity="0"/>
</radialGradient>
<radialGradient id="paint4_radial_1048_2914" cx="0" cy="0" r="1" gradientUnits="userSpaceOnUse" gradientTransform="translate(69.3 69.3001) rotate(180) scale(28.35 11.1234)">
<stop stop-color="#4E44DB"/>
<stop offset="1" stop-color="#4E44DB" stop-opacity="0"/>
</radialGradient>
<linearGradient id="paint5_linear_1048_2914" x1="37.6551" y1="-3.9633e-08" x2="44.3016" y2="7.7427" gradientUnits="userSpaceOnUse">
<stop stop-color="#8B52F4"/>
<stop offset="1" stop-color="#3D35B1"/>
</linearGradient>
<radialGradient id="paint6_radial_1048_2914" cx="0" cy="0" r="1" gradientUnits="userSpaceOnUse" gradientTransform="translate(-12.5988 -12.5998) rotate(39.055) scale(106.989 204.386)">
<stop stop-color="#F08AF4"/>
<stop offset="0.535" stop-color="#9C6CFE"/>
<stop offset="1" stop-color="#4E44DB"/>
</radialGradient>
<linearGradient id="paint7_linear_1048_2914" x1="50.2362" y1="22.5349" x2="59.787" y2="39.0157" gradientUnits="userSpaceOnUse">
<stop stop-color="#FDFDFD"/>
<stop offset="1" stop-color="#F9DCFA"/>
</linearGradient>
<linearGradient id="paint8_linear_1048_2914" x1="25.0362" y1="22.5349" x2="34.587" y2="39.0157" gradientUnits="userSpaceOnUse">
<stop stop-color="#FDFDFD"/>
<stop offset="1" stop-color="#F9DCFA"/>
</linearGradient>
<linearGradient id="paint9_linear_1048_2914" x1="78.75" y1="85.0501" x2="97.6626" y2="110.244" gradientUnits="userSpaceOnUse">
<stop stop-color="#FFA43D"/>
<stop offset="1" stop-color="#FB5937"/>
</linearGradient>
<linearGradient id="paint10_linear_1048_2914" x1="81.9" y1="81.8999" x2="50.9733" y2="46.3427" gradientUnits="userSpaceOnUse">
<stop stop-color="#FF8A69"/>
<stop offset="1" stop-color="#FFCD0F"/>
</linearGradient>
</defs>
</svg>
