<svg width="45" height="45" viewBox="0 0 45 45" fill="none" xmlns="http://www.w3.org/2000/svg">
<path d="M18.6749 17.1341L20.3362 11.3235C20.9587 9.1485 24.0412 9.1485 24.6637 11.3235L26.323 17.1341C26.4281 17.5017 26.6251 17.8364 26.8954 18.1068C27.1657 18.3771 27.5005 18.5741 27.868 18.6791L33.6787 20.3385C35.8537 20.961 35.8537 24.0435 33.6787 24.666L27.868 26.3254C27.5005 26.4304 27.1657 26.6274 26.8954 26.8977C26.6251 27.1681 26.4281 27.5028 26.323 27.8704L24.6637 33.681C24.0412 35.856 20.9587 35.856 20.3362 33.681L18.6768 27.8704C18.5717 27.5028 18.3747 27.1681 18.1044 26.8977C17.8341 26.6274 17.4994 26.4304 17.1318 26.3254L11.3212 24.666C9.14617 24.0435 9.14617 20.961 11.3212 20.3385L17.1318 18.6791C17.4994 18.5741 17.8341 18.3771 18.1044 18.1068C18.3747 17.8364 18.5717 17.5017 18.6768 17.1341M33.9449 30.9529C34.4868 29.3722 36.7649 29.3704 37.3049 30.9529L37.3537 31.116L37.9087 33.3435L40.1362 33.9004C41.9362 34.3504 41.9362 36.9041 40.1362 37.3541L37.9087 37.911L37.3537 40.1385C36.9037 41.9366 34.348 41.9366 33.898 40.1385L33.3412 37.911L31.1137 37.3541C29.3137 36.9041 29.3137 34.3485 31.1137 33.9004L33.3412 33.3435L33.898 31.116L33.9449 30.9529ZM35.6249 35.2466C35.517 35.3911 35.3888 35.5193 35.2443 35.6273C35.3888 35.7352 35.517 35.8634 35.6249 36.0079C35.7328 35.8634 35.861 35.7352 36.0055 35.6273C35.8609 35.5188 35.7327 35.3899 35.6249 35.2448M7.69492 4.701C8.25367 3.06788 10.6668 3.12225 11.1037 4.86413L11.6587 7.09163L13.8862 7.6485C15.6862 8.0985 15.6862 10.6523 13.8862 11.1023L11.6587 11.6591L11.1037 13.8866C10.6537 15.6848 8.09805 15.6848 7.64805 13.8866L7.09117 11.6591L4.86367 11.1023C3.06367 10.6523 3.06367 8.09663 4.86367 7.6485L7.09117 7.09163L7.64805 4.86413L7.69492 4.701ZM9.37492 8.99663C9.26687 9.14048 9.13869 9.26804 8.9943 9.37538C9.13895 9.48386 9.26715 9.61269 9.37492 9.75788C9.48269 9.61269 9.61089 9.48386 9.75555 9.37538C9.61102 9.26747 9.48283 9.14115 9.37492 8.99663Z" fill="#F5D26D"/>
</svg>
