<svg width="100" height="100" viewBox="0 0 100 100" fill="none" xmlns="http://www.w3.org/2000/svg">
<mask id="mask0_1724_4441" style="mask-type:luminance" maskUnits="userSpaceOnUse" x="4" y="14" width="91" height="73">
<path d="M95 14H4V87H95V14Z" fill="white"/>
</mask>
<g mask="url(#mask0_1724_4441)">
<path d="M49.3243 40.5517C48.9585 40.7234 48.763 40.8633 48.5422 40.9078C46.915 41.2576 45.9878 42.3195 46.1644 43.9283C46.3725 45.8423 47.8358 46.4591 49.5829 46.4337C54.4142 46.3638 58.4571 48.157 61.7305 51.6989C64.5687 54.7638 66.2086 58.3757 66.0951 62.6171C66.032 64.9699 66.7826 66.4706 69.4568 66.6677C69.4568 71.6976 69.6208 76.6575 69.3937 81.5983C69.255 84.7142 66.5555 86.8635 63.2316 86.9525C60.097 87.0352 56.956 86.9843 53.815 86.9843C39.7689 86.9843 25.7228 86.997 11.683 86.9843C6.18949 86.9843 4.0009 84.7524 3.99459 79.2074C3.98828 69.3257 3.98197 59.4503 4.0009 49.5686C4.01351 44.6023 6.2904 42.3322 11.2037 42.3131C14.3447 42.3004 17.4856 42.2305 20.6203 42.3449C22.153 42.4022 23.1684 41.9125 23.837 40.5454C25.3002 37.5567 27.6591 36.5584 30.9515 36.7491C35.253 36.9971 39.5797 36.8064 43.8938 36.8127C47.0159 36.8127 47.8989 37.4168 49.3117 40.5517H49.3243ZM21.9701 64.0224C21.9827 72.2571 28.6304 78.934 36.7982 78.9212C44.9282 78.9085 51.639 72.149 51.6327 63.9779C51.6264 55.8321 44.8399 49.0281 36.7541 49.0536C28.5926 49.0854 21.9511 55.8067 21.9637 64.0224H21.9701Z" fill="black"/>
<path d="M50.1562 43.6452C61.4587 41.623 66.6054 36.4851 68.794 25.5859C69.4751 27.7988 69.8853 30.088 70.8692 32.0911C71.8973 34.1768 73.2597 36.2116 74.8869 37.8522C76.4574 39.4356 78.4378 40.7455 80.4625 41.6994C82.5249 42.6723 84.8584 43.0665 87.1226 43.7342C76.6969 45.254 70.6357 51.3076 68.8697 62.3339C67.1415 51.3712 61.1371 45.3366 50.1562 43.6515V43.6452Z" fill="black"/>
<path d="M87.0963 16.9922C88.3325 21.5133 89.9282 23.243 94.9992 25.2842C90.8112 26.575 87.9982 29.0232 87.1783 34.1739C86.0934 29.2521 83.5516 26.5114 78.8906 25.2524C83.5012 23.8661 86.1943 21.3162 87.0963 16.9922Z" fill="black"/>
<path d="M65.2302 14C65.7663 15.9522 66.4475 16.6962 68.6361 17.5737C66.8259 18.1269 65.6149 19.1888 65.2617 21.4081C64.795 19.2842 63.6975 18.1015 61.6855 17.561C63.6723 16.9632 64.8328 15.8632 65.2239 14H65.2302Z" fill="black"/>
<path d="M36.8849 51.5158C43.7345 51.554 49.2344 57.2007 49.1587 64.1191C49.083 71.0376 43.4696 76.6143 36.6579 76.5317C29.8461 76.449 24.2832 70.7451 24.3462 63.8902C24.4093 57.0035 30.0038 51.4777 36.8849 51.5158ZM26.7934 63.9474C26.9763 64.1573 27.4304 64.6724 27.8783 65.1874C28.3071 64.7296 29.0388 64.3099 29.1082 63.8012C29.7073 59.3627 32.0915 56.8573 36.5569 56.3041C37.0615 56.2405 37.4841 55.4965 37.9445 55.0704C37.3706 54.6825 36.8029 53.9704 36.2163 53.9513C31.6815 53.7732 26.7367 58.7967 26.7934 63.9538V63.9474Z" fill="black"/>
</g>
</svg>
