<?xml version="1.0" encoding="UTF-8"?>
<svg version="1.1" xmlns="http://www.w3.org/2000/svg" width="512" height="512">
<path d="M0 0 C0.78688202 -0.0049649 1.57376404 -0.00992981 2.38449097 -0.01504517 C4.96174026 -0.02952392 7.53892782 -0.0364483 10.11621094 -0.04199219 C11.45461658 -0.04623325 11.45461658 -0.04623325 12.82006073 -0.05056 C17.5515929 -0.06550216 22.28309503 -0.07476033 27.01464844 -0.07910156 C31.83836346 -0.08454799 36.66179076 -0.10850869 41.48541641 -0.13707352 C45.24872566 -0.15595075 49.01196943 -0.16091882 52.77532196 -0.16243744 C54.54985865 -0.16541347 56.32439568 -0.17326436 58.09888458 -0.18662262 C74.91905255 -0.30410449 91.71019974 1.2186829 107.91308594 5.97363281 C108.82203613 6.23225098 109.73098633 6.49086914 110.66748047 6.75732422 C124.71284579 10.8405956 137.69977984 16.29084192 150.60058594 23.16113281 C151.19581055 23.47276367 151.79103516 23.78439453 152.40429688 24.10546875 C174.87808785 35.95027214 194.86123111 53.34502707 210.60058594 73.16113281 C211.40753906 74.15113281 212.21449219 75.14113281 213.04589844 76.16113281 C233.65392744 102.00192153 244.74230206 131.98886202 251.49511719 163.98925781 C251.88153915 165.80699605 252.26813182 167.624698 252.65487671 169.44236755 C258.14450201 195.29881828 263.49382987 221.18512306 268.86315918 247.06677246 C269.7280227 251.23556597 270.59318893 255.4042966 271.45849609 259.57299805 C271.60122648 260.26063095 271.74395688 260.94826385 271.89101243 261.65673411 C272.60560225 265.09916151 273.3204296 268.54153937 274.03567123 271.98383141 C274.31754622 273.34048777 274.59941803 274.6971448 274.88128662 276.05380249 C275.01976824 276.72029702 275.15824985 277.38679154 275.30092788 278.07348287 C276.2595409 282.68864361 277.21477043 287.30449498 278.16900635 291.92056274 C280.3725477 302.56549938 282.58321716 313.20584978 284.96289062 323.81298828 C285.30226899 325.34172569 285.64153855 326.87048727 285.98068237 328.39927673 C286.55765686 330.99721002 287.15482213 333.58698198 287.76760864 336.17701721 C290.275672 347.41581767 291.97274189 359.8625009 285.98730469 370.20410156 C284.60058594 372.16113281 284.60058594 372.16113281 282.16308594 374.66113281 C280.25211767 377.71868204 280.60249111 378.42649691 281.35058594 381.84863281 C281.6715625 383.15574219 281.6715625 383.15574219 281.99902344 384.48925781 C283.90001985 392.93264448 282.52194695 400.4904003 278.60058594 408.16113281 C276.510447 411.11803553 274.20784084 413.65484223 271.60058594 416.16113281 C270.81683594 416.92425781 270.03308594 417.68738281 269.22558594 418.47363281 C258.89127362 425.1171193 242.31334209 428.14670477 230.30761719 425.69238281 C221.77772681 423.22590849 214.60925872 418.56040721 209.84667969 410.99707031 C208.25636166 407.37772583 207.61183186 403.77413922 206.85058594 399.91113281 C205.79116608 394.46799995 205.79116608 394.46799995 202.34277344 390.26660156 C199.74442612 389.06976176 199.74442612 389.06976176 197.06933594 388.13378906 C192.25271072 386.2360997 189.66011207 382.52179568 187.58349609 377.89501953 C184.74153537 370.20422981 182.96144934 362.44079375 181.35058594 354.41113281 C181.08246094 353.13625 180.81433594 351.86136719 180.53808594 350.54785156 C177.38748662 335.1324192 177.38748662 335.1324192 180.10058594 330.72363281 C183.10230591 328.84755783 185.12863345 328.64750623 188.60058594 328.53222656 C191.76878602 329.52847698 192.76800075 331.43453808 194.60058594 334.16113281 C195.41092877 336.93231622 196.04102155 339.52741342 196.56542969 342.34863281 C196.89401403 343.95023465 197.2227961 345.55179594 197.55175781 347.15332031 C198.04879082 349.66035186 198.53950622 352.16847128 199.02514648 354.67773438 C199.50178864 357.11321586 200.00131995 359.54319046 200.50292969 361.97363281 C200.63956528 362.71959717 200.77620087 363.46556152 200.91697693 364.23413086 C201.96804515 369.27366586 203.42516353 372.10993244 207.60058594 375.16113281 C213.98550816 377.13287235 220.12261317 375.35965397 226.48339844 373.99316406 C227.61582977 373.75707932 228.74826111 373.52099457 229.91500854 373.27775574 C232.30152259 372.7766172 234.68677411 372.26943287 237.07080078 371.7565918 C240.71627918 370.97562659 244.36677058 370.22253448 248.01855469 369.47167969 C250.34052367 368.98051358 252.66215112 368.4877295 254.98339844 367.99316406 C256.07306915 367.77006058 257.16273987 367.54695709 258.28543091 367.3170929 C265.66701519 365.70891133 265.66701519 365.70891133 271.60058594 361.16113281 C275.26192088 353.83846292 271.61437261 343.03417369 270.02124023 335.54052734 C269.74267577 334.19504558 269.46498615 332.84938244 269.18809509 331.5035553 C268.43596633 327.8604436 267.67161054 324.21999595 266.90496039 320.57991648 C266.09154527 316.70733203 265.2894701 312.83239866 264.48603821 308.95773315 C262.95242707 301.57034348 261.4085567 294.18513655 259.86106855 286.80064285 C258.14379524 278.60331916 256.43844662 270.40353099 254.73396659 262.20353937 C252.57852836 251.83468384 250.42011867 241.46647966 248.24435425 231.10186768 C248.08158851 230.32646834 247.91882277 229.551069 247.75112474 228.75217271 C247.10385419 225.66902479 246.45652235 222.5858898 245.80889106 219.50281763 C243.91269049 210.47305802 242.03715303 201.43968701 240.19769955 192.39817238 C239.23480399 187.67008995 238.26141936 182.94419965 237.28660011 178.21856308 C236.85470146 176.11069931 236.42774993 174.00181339 236.00668907 171.89175797 C231.17647264 147.70079691 224.37434209 119.89964388 208.60058594 100.16113281 C207.94058594 100.16113281 207.28058594 100.16113281 206.60058594 100.16113281 C187.33670882 119.94318384 174.15335343 144.75794032 166.60058594 171.16113281 C166.39449707 171.83063965 166.1884082 172.50014648 165.97607422 173.18994141 C163.33992093 182.39230357 164.71812166 191.181826 166.7277832 200.37475586 C166.95372162 201.44761841 167.17966003 202.52048096 167.41244507 203.62585449 C167.90076169 205.93858217 168.39364304 208.25034988 168.89065742 210.56122398 C169.67727373 214.22068284 170.45088609 217.88268062 171.22117615 221.54560852 C173.13543045 230.63614974 175.06989009 239.72236072 177.00732422 248.8079834 C178.64746836 256.50111725 180.27789781 264.19621502 181.89527702 271.89417458 C182.65656039 275.49846234 183.43166541 279.09960083 184.20716858 282.70085144 C184.67309229 284.91231409 185.13833387 287.1239206 185.6027832 289.33569336 C185.82144547 290.33274796 186.04010773 291.32980255 186.26539612 292.35707092 C187.46715164 298.16813835 188.53087338 303.64119688 185.53808594 309.09863281 C182.41030608 310.81386693 179.01353392 310.99307983 175.60058594 310.16113281 C170.49576481 306.61951656 170.14569201 301.20157592 169.02246094 295.48925781 C168.80616028 294.45170349 168.58985962 293.41414917 168.36700439 292.34515381 C167.68064834 289.03655766 167.0153928 285.72411904 166.35058594 282.41113281 C165.88842927 280.16475368 165.42490363 277.91865572 164.95996094 275.67285156 C163.82427455 270.1721071 162.70587332 264.66806128 161.60058594 259.16113281 C161.59700341 260.54377886 161.59700341 260.54377886 161.5933485 261.95435715 C161.53413128 284.4155775 161.45853818 306.87669116 161.36487103 329.33779526 C161.31996579 340.19995908 161.28053898 351.06209051 161.25415039 361.92431641 C161.2311276 371.39530785 161.19768182 380.8661963 161.15188438 390.33710599 C161.12800987 395.34872273 161.10924331 400.36023784 161.10297203 405.3719101 C161.09689501 410.09645196 161.07680118 414.82073397 161.04631042 419.54517937 C161.03757198 421.27200702 161.03379885 422.9988687 161.03557777 424.72571754 C161.04706639 441.03507712 158.84655744 456.05613251 147.35058594 468.54003906 C138.04535614 477.15983899 127.20228443 482.26591163 114.51867676 482.30830383 C113.80502063 482.31198052 113.09136451 482.31565721 112.35608244 482.31944531 C109.964269 482.33045973 107.57249904 482.33432223 105.18066406 482.33813477 C103.46557478 482.3444013 101.75048684 482.35104826 100.03540039 482.35804749 C94.40088849 482.37907427 88.76637638 482.38945113 83.13183594 482.39941406 C81.18932583 482.40346265 79.24681585 482.40757961 77.30430603 482.41176414 C68.17399244 482.43081571 59.04368691 482.44504472 49.91335726 482.45337611 C39.39060796 482.46313755 28.86806962 482.48942864 18.34539461 482.52987701 C10.20251686 482.56009781 2.05969936 482.57485079 -6.08323336 482.57815713 C-10.94172817 482.58050153 -15.7999976 482.58938179 -20.65843201 482.6146183 C-25.23527765 482.63800745 -29.81175129 482.64208895 -34.38864136 482.63185692 C-36.06067649 482.63136401 -37.73273062 482.63761142 -39.40470886 482.65141296 C-53.18392017 482.7587113 -64.21928805 480.68569996 -75.39941406 472.16113281 C-76.97722656 471.01644531 -76.97722656 471.01644531 -78.58691406 469.84863281 C-88.30748944 460.56008301 -93.31905027 447.69237859 -93.64740586 434.38707912 C-93.70270424 430.43270416 -93.71353106 426.47888055 -93.71826172 422.52416992 C-93.72757042 420.73960928 -93.73774049 418.95505296 -93.748703 417.17050171 C-93.77591084 412.34681746 -93.791125 407.52316228 -93.80413103 402.69942164 C-93.81980202 397.65053792 -93.84657954 392.60171318 -93.87216187 387.5528717 C-93.91887951 378.00150731 -93.95565752 368.45013172 -93.98883474 358.89871174 C-94.02710576 348.02080163 -94.07650284 337.14295085 -94.1268189 326.26509082 C-94.23003441 303.89714884 -94.31932848 281.52916872 -94.39941406 259.16113281 C-94.51426273 259.71790364 -94.6291114 260.27467447 -94.74744034 260.84831715 C-97.55170592 274.44013342 -100.36526013 288.02999867 -103.18864822 301.61785603 C-104.55388928 308.18906633 -105.91609525 314.7608777 -107.27099609 321.33422852 C-108.5800316 327.68348333 -109.89712894 334.03101774 -111.21971893 340.37746239 C-111.7217036 342.79322537 -112.22083137 345.2095839 -112.71698761 347.62655067 C-113.41498793 351.02424337 -114.12332302 354.41963343 -114.83398438 357.81469727 C-115.03467026 358.80373047 -115.23535614 359.79276367 -115.44212341 360.81176758 C-119.75208855 381.18260927 -119.75208855 381.18260927 -127.39941406 387.16113281 C-129.09862469 387.83060029 -130.80781442 388.47510324 -132.52441406 389.09863281 C-135.22649807 390.16310294 -135.22649807 390.16310294 -137.39941406 392.16113281 C-138.60655372 395.46333857 -139.33958829 398.56248039 -140.00024414 401.99804688 C-141.5780973 409.95750024 -145.33481445 415.98492086 -151.71191406 421.09863281 C-163.09896476 428.26637455 -175.0239767 426.61024619 -187.49194336 423.9296875 C-196.89045182 421.73804008 -204.42133418 417.97145536 -210.39941406 410.16113281 C-215.64680613 400.73496651 -216.65981455 391.92882821 -214.02441406 381.47363281 C-213.19882072 377.67008474 -213.19882072 377.67008474 -214.49707031 374.15722656 C-216.0330745 372.40206224 -216.0330745 372.40206224 -217.72363281 370.98925781 C-222.79163214 365.46053127 -223.13359679 358.53568801 -222.88320923 351.40124512 C-222.04917073 339.86197082 -219.12816991 328.46677144 -216.70378852 317.17348194 C-215.88579312 313.34595271 -215.08645306 309.51452533 -214.28486633 305.68353271 C-212.75609587 298.39089791 -211.21101745 291.10182099 -209.65989667 283.8139112 C-207.93831958 275.72137859 -206.23469176 267.6251066 -204.53282905 259.528409 C-201.57715843 245.46795064 -198.60256709 231.41159943 -195.61626792 217.35761738 C-193.44161208 207.11999465 -191.29650803 196.8767601 -189.17529297 186.62792969 C-188.44263107 183.10438882 -187.70925448 179.58099761 -186.97556496 176.05767059 C-186.53211581 173.91910324 -186.09164669 171.77991506 -185.65463829 169.64002228 C-178.91625065 136.65214838 -168.29035126 105.05602002 -147.39941406 78.16113281 C-146.74585938 77.29746094 -146.09230469 76.43378906 -145.41894531 75.54394531 C-113.81916911 34.75743005 -66.56282231 7.65930292 -15.3601265 0.89159012 C-10.22089933 0.28403989 -5.17261099 0.00802965 0 0 Z M-30.39941406 21.16113281 C-24.65926324 47.44498132 -9.23065374 69.39018279 13.33105469 84.14941406 C14.41 84.81328125 15.48894531 85.47714844 16.60058594 86.16113281 C17.16342285 86.50966309 17.72625977 86.85819336 18.30615234 87.21728516 C27.29653729 92.7155325 27.29653729 92.7155325 37.60058594 93.16113281 C40.22687315 92.1424862 42.38147545 91.16777755 44.78808594 89.78613281 C45.43245605 89.42672607 46.07682617 89.06731934 46.74072266 88.69702148 C69.48121023 75.64622607 88.62583566 55.06097795 95.62792969 29.39550781 C96.3489118 26.32551945 97.01389789 23.25925739 97.60058594 20.16113281 C95.26797571 19.6782096 92.93459006 19.19973422 90.60058594 18.72363281 C89.9521875 18.58892578 89.30378906 18.45421875 88.63574219 18.31542969 C87.98476563 18.18330078 87.33378906 18.05117188 86.66308594 17.91503906 C86.0765625 17.79459229 85.49003906 17.67414551 84.88574219 17.55004883 C78.72555794 16.50163286 72.71288336 16.00986024 66.46655273 16 C65.6961113 15.9950351 64.92566986 15.99007019 64.13188171 15.98495483 C61.60451326 15.97045684 59.07720775 15.96354866 56.54980469 15.95800781 C55.67618601 15.95518044 54.80256733 15.95235306 53.90247536 15.94944 C49.27051116 15.93449046 44.63857771 15.92523678 40.0065918 15.92089844 C35.27793381 15.91544893 30.54956888 15.89148376 25.82100201 15.86292648 C22.13755034 15.84407362 18.45416573 15.83908244 14.77066994 15.83756256 C13.03076403 15.83458147 11.29085795 15.82671205 9.5510006 15.81337738 C-11.15292023 15.16944197 -11.15292023 15.16944197 -30.39941406 21.16113281 Z M-53.58691406 27.16113281 C-54.93849609 27.71800781 -54.93849609 27.71800781 -56.31738281 28.28613281 C-57.00445312 28.57488281 -57.69152344 28.86363281 -58.39941406 29.16113281 C-57.70616753 48.57203579 -45.61977146 67.73331471 -33.39941406 82.16113281 C-32.96757812 82.67272949 -32.53574219 83.18432617 -32.09082031 83.71142578 C-18.81205668 99.24107776 -3.03711743 110.40310178 15.10058594 119.66113281 C15.73456299 119.98750732 16.36854004 120.31388184 17.02172852 120.65014648 C26.10196673 125.12769669 34.69625761 126.33454417 44.47949219 123.25488281 C77.93850478 110.06730928 106.04641046 82.92078168 120.60058594 50.16113281 C124.61913904 39.95002947 124.61913904 39.95002947 125.60058594 29.16113281 C123.99908708 28.48808264 122.39427564 27.82291055 120.78808594 27.16113281 C119.89476562 26.78988281 119.00144531 26.41863281 118.08105469 26.03613281 C115.56744264 24.99480044 115.56744264 24.99480044 112.60058594 25.16113281 C112.10751953 27.03091797 112.10751953 27.03091797 111.60449219 28.93847656 C102.7482883 61.16601463 82.92134607 85.40546459 54.07080078 102.00366211 C44.65643696 107.32653788 36.51814934 109.88900604 25.60058594 108.16113281 C10.52944308 103.62816697 -3.25349713 91.81336348 -14.39941406 81.16113281 C-15.51896484 80.15373047 -15.51896484 80.15373047 -16.66113281 79.12597656 C-32.1761687 64.63986103 -40.06276248 45.25350306 -45.39941406 25.16113281 C-48.69599262 25.16113281 -50.56305834 25.9044655 -53.58691406 27.16113281 Z M-82.77441406 41.59863281 C-83.49467773 42.05310791 -84.21494141 42.50758301 -84.95703125 42.97583008 C-96.01145051 50.03019816 -105.95540717 58.07758419 -115.39941406 67.16113281 C-116.20572266 67.93457031 -116.20572266 67.93457031 -117.02832031 68.72363281 C-118.66081365 70.29823631 -120.28234664 71.8832012 -121.89941406 73.47363281 C-122.39183594 73.95292236 -122.88425781 74.43221191 -123.39160156 74.92602539 C-126.58669073 78.11394326 -129.01834176 81.35927915 -131.39941406 85.16113281 C-130.21798828 86.36382812 -130.21798828 86.36382812 -129.01269531 87.59082031 C-93.30333581 124.5846095 -77.86489477 170.65658414 -78.01464844 221.39599609 C-78.0105326 223.75707764 -78.0050658 226.11815715 -77.99836731 228.47923279 C-77.98673529 233.52028749 -77.98412417 238.561233 -77.98872375 243.60229874 C-77.99500259 250.90129024 -77.9829058 258.20017254 -77.96521658 265.49913715 C-77.93670805 277.36172387 -77.9190906 289.22429674 -77.91064453 301.08691406 C-77.91013735 301.79371909 -77.90963017 302.50052411 -77.90910763 303.22874747 C-77.90507316 308.96736797 -77.90157639 314.70598878 -77.89811039 320.44460964 C-77.89505041 325.47609411 -77.89177859 330.50757838 -77.88818359 335.5390625 C-77.88768098 336.24801993 -77.88717836 336.95697737 -77.88666052 337.68741836 C-77.87790595 349.52387631 -77.85745747 361.36028654 -77.8287015 373.19671237 C-77.81006016 381.12200208 -77.80643916 389.04715441 -77.81363678 396.97246289 C-77.81516024 401.89940202 -77.80436591 406.82625894 -77.79025841 411.75317574 C-77.78626232 414.03237027 -77.78736953 416.31158051 -77.79403114 418.59076881 C-77.80244307 421.70867204 -77.79238778 424.82600879 -77.7779541 427.94387817 C-77.78484804 428.8388259 -77.79174197 429.73377363 -77.79884481 430.65584099 C-77.71001386 440.54830411 -75.04041687 449.67440731 -68.39941406 457.16113281 C-60.98439167 463.47897303 -54.3675798 466.48784018 -44.55810547 466.38818359 C-43.41562347 466.38862167 -43.41562347 466.38862167 -42.25006104 466.3890686 C-39.75024746 466.38768312 -37.25073762 466.3721591 -34.75097656 466.35644531 C-33.01077436 466.3527124 -31.27057005 466.34986674 -29.53036499 466.34786987 C-24.9633803 466.34025535 -20.39652401 466.32062568 -15.82958984 466.29846191 C-11.16408017 466.27795641 -6.49854962 466.26885811 -1.83300781 466.25878906 C7.31157967 466.23737766 16.4560721 466.20326815 25.60058594 466.16113281 C25.60416847 464.43500952 25.60416847 464.43500952 25.60782337 462.67401505 C25.66516184 435.36814199 25.73787712 408.06234589 25.82957222 380.75656559 C25.84084062 377.39695555 25.85197903 374.0373451 25.86303711 370.67773438 C25.86524079 370.00888591 25.86744448 369.34003744 25.86971494 368.65092084 C25.90510398 357.81573687 25.92995902 346.98055297 25.95093296 336.1453326 C25.97268224 325.03046698 26.00594757 313.915672 26.0492875 302.80086875 C26.07326952 296.55654633 26.09196564 290.31230721 26.09819984 284.06793976 C26.10422818 278.19435811 26.12414631 272.32098973 26.15486145 266.44748688 C26.16367787 264.28835529 26.16735685 262.12919587 26.1655941 259.970047 C26.16395037 257.02846804 26.18056361 254.08754622 26.20185852 251.14605713 C26.19458716 249.85617555 26.19458716 249.85617555 26.1871689 248.54023576 C26.2295876 245.00444811 26.2654975 242.76464207 28.00441265 239.63277817 C29.97288238 237.81788166 30.94731497 237.62093174 33.60058594 237.66113281 C34.62152344 237.64566406 34.62152344 237.64566406 35.66308594 237.62988281 C37.60058594 238.16113281 37.60058594 238.16113281 39.19675922 239.63277817 C41.29456716 243.41102401 41.0233042 246.89027433 40.99931335 251.14605713 C41.00596018 252.06419056 41.01260701 252.98232399 41.01945525 253.92827964 C41.03814039 257.0115432 41.03547623 260.09442057 41.03295898 263.17773438 C41.04197276 265.38519847 41.05229903 267.59265755 41.06384277 269.80010986 C41.0914839 275.79969478 41.10070697 281.79918491 41.10669684 287.79882526 C41.116062 294.06625965 41.14226385 300.33362271 41.16670227 306.60101318 C41.2054517 317.12266693 41.23378334 327.64431232 41.25415039 338.16601562 C41.27515678 349.0032831 41.30242889 359.84050493 41.33813477 370.67773438 C41.34033359 371.34577049 41.34253242 372.01380661 41.34479787 372.70208624 C41.35586744 376.05343601 41.36706026 379.40478536 41.37831438 382.75613451 C41.47123929 410.55776185 41.54288409 438.35941164 41.60058594 466.16113281 C51.61500631 466.25406233 61.62932306 466.32501391 71.64408779 466.3683815 C76.29502599 466.38920224 80.94566786 466.41741836 85.59643555 466.46289062 C90.08981782 466.50654609 94.58291614 466.53031134 99.07649422 466.54064178 C100.78561939 466.54799796 102.49473009 466.56236254 104.20373344 466.58405304 C116.9455554 466.84932134 116.9455554 466.84932134 128.60058594 462.16113281 C129.24873764 461.78305481 129.89688934 461.40497681 130.56468201 461.01544189 C138.09816516 456.46140147 141.56385202 449.07947247 143.95529461 440.91870558 C144.97086728 436.57878124 145.01335278 432.39043077 144.97912598 427.9506073 C144.98592117 426.48381207 144.98592117 426.48381207 144.99285364 424.98738462 C145.00440626 421.73681242 144.99485914 418.48665744 144.98535156 415.23608398 C144.98946021 412.89432512 144.99492282 410.55256829 145.00163269 408.21081543 C145.01333599 403.17833928 145.01584952 398.14597274 145.01127625 393.11348534 C145.00502518 385.81466651 145.01704402 378.51595788 145.03478342 371.2171661 C145.06339656 359.34278108 145.08093398 347.46840996 145.08935547 335.59399414 C145.09011624 334.5296322 145.09011624 334.5296322 145.09089237 333.443768 C145.09441654 328.41205645 145.0975452 323.38034468 145.10058594 318.34863281 C145.10405142 312.61987284 145.10770235 306.89111306 145.11181641 301.16235352 C145.11231902 300.45698828 145.11282164 299.75162305 145.11333948 299.02488311 C145.12212551 287.20563901 145.14264944 275.38644224 145.1712985 263.56723005 C145.18986051 255.65838575 145.19358737 247.74967881 145.18636322 239.8408159 C145.18482846 234.8925792 145.19570662 229.94442286 145.20974159 224.99620819 C145.21370428 222.72325508 145.21268873 220.45028618 145.20596886 218.17733955 C145.15728871 200.32166859 146.08581892 182.45998652 151.41308594 165.28613281 C151.6717041 164.42157471 151.93032227 163.5570166 152.19677734 162.66625977 C161.33180702 132.81833875 177.26157544 107.67662868 198.60058594 85.16113281 C184.76371988 65.52452338 164.33187664 47.65210074 142.60058594 37.16113281 C141.94058594 37.16113281 141.28058594 37.16113281 140.60058594 37.16113281 C140.43042969 37.71349609 140.26027344 38.26585937 140.08496094 38.83496094 C132.65201752 62.69550004 122.24988736 81.44025932 105.60058594 100.16113281 C104.72853516 101.14339844 104.72853516 101.14339844 103.83886719 102.14550781 C92.11488527 114.54871286 76.87376136 123.89717436 61.97558594 131.97363281 C60.99174927 132.51528076 60.99174927 132.51528076 59.98803711 133.06787109 C55.87748607 135.23843579 51.74626069 136.84312941 47.32568359 138.28881836 C46.25162262 138.64163376 45.17756165 138.99444916 44.07095337 139.35795593 C43.25573212 139.6230043 42.44051086 139.88805267 41.60058594 140.16113281 C41.58845566 141.5229644 41.58845566 141.5229644 41.57608032 142.91230774 C41.49819164 151.46157636 41.41091837 160.01068628 41.31305885 168.55975056 C41.26307855 172.9550847 41.21674873 177.3503946 41.17871094 181.74584961 C41.14187995 185.98642937 41.09552609 190.2268072 41.04252243 194.46721458 C41.02396682 196.08632051 41.00886317 197.70546973 40.99724197 199.32464027 C40.98039929 201.58976619 40.95136979 203.85442845 40.91943359 206.11938477 C40.90610992 207.40956009 40.89278625 208.69973541 40.87905884 210.02900696 C40.60058594 213.16113281 40.60058594 213.16113281 38.60058594 216.16113281 C35.1291336 216.99685282 32.64408718 217.51812008 29.22558594 216.34863281 C27.60058594 215.16113281 27.60058594 215.16113281 26.60058594 213.16113281 C26.47938295 210.85389264 26.42305024 208.54316453 26.39526367 206.23291016 C26.38536407 205.52060745 26.37546448 204.80830475 26.36526489 204.07441711 C26.33362736 201.71533555 26.30888364 199.35623384 26.28417969 196.99707031 C26.2636121 195.36324535 26.24261568 193.72942573 26.22120667 192.09561157 C26.16596581 187.79171065 26.11656544 183.48776155 26.06835938 179.18377686 C26.01815904 174.79337263 25.96246532 170.40303852 25.90722656 166.01269531 C25.79962036 157.39556707 25.69818088 148.77838023 25.60058594 140.16113281 C24.4968866 139.7518454 23.39318726 139.34255798 22.25604248 138.92086792 C20.79631129 138.37718879 19.33661677 137.83341123 17.87695312 137.28955078 C16.78784134 136.88611702 16.78784134 136.88611702 15.67672729 136.47453308 C-19.92615422 123.18773937 -49.29341744 94.53238921 -65.53613281 60.49316406 C-68.90915882 52.99462732 -71.13580868 45.0494546 -73.39941406 37.16113281 C-76.95583233 37.16113281 -79.8355997 39.74106118 -82.77441406 41.59863281 Z M-141.39941406 98.16113281 C-146.93035106 106.97137275 -151.98555256 115.86717408 -156.14941406 125.41113281 C-156.48900146 126.16934326 -156.82858887 126.92755371 -157.1784668 127.70874023 C-164.26249585 144.4511097 -167.78141351 162.66295605 -171.41894531 180.39160156 C-171.87945527 182.60606333 -172.34066642 184.82037938 -172.80252075 187.03456116 C-174.02865774 192.9225268 -175.24528268 198.81241691 -176.45957565 204.70283508 C-177.72521753 210.83607806 -178.99834895 216.96776617 -180.27075195 223.09960938 C-181.81749653 230.5560157 -183.36320816 238.0126309 -184.90470886 245.47012329 C-187.92880868 260.097168 -190.98033326 274.71806218 -194.06477547 289.33249855 C-195.26610482 295.0291059 -196.46197503 300.72686166 -197.65768337 306.42465115 C-198.58275993 310.83078395 -199.51111623 315.2361701 -200.44717407 319.63998413 C-201.31302795 323.71428301 -202.16949653 327.79044226 -203.01879501 331.86822319 C-203.32600271 333.33486227 -203.63662536 334.80079135 -203.95111465 336.26588631 C-207.22003023 349.53410203 -207.22003023 349.53410203 -204.83691406 362.53613281 C-197.41588611 369.91867661 -178.98637619 370.87207477 -168.98974609 372.93579102 C-166.37244198 373.47923314 -163.75914881 374.03982432 -161.14550781 374.60058594 C-159.45952859 374.95124842 -157.77333777 375.30089547 -156.08691406 375.64941406 C-154.9320752 375.90081902 -154.9320752 375.90081902 -153.75390625 376.15730286 C-149.03278932 377.10770439 -145.17581389 377.25945134 -140.39941406 376.16113281 C-131.80636456 369.91164227 -131.1718271 357.01059588 -129.18481445 347.30419922 C-128.8760618 345.81638053 -128.56682903 344.32866141 -128.25715637 342.84103394 C-127.42167062 338.82074921 -126.59284677 334.79911732 -125.76522756 330.7772069 C-124.89287961 326.54387998 -124.01427048 322.31185285 -123.13633728 318.0796814 C-121.4723253 310.05345757 -119.81378741 302.02611307 -118.15728134 293.99833715 C-116.10266188 284.04252608 -114.04112303 274.08815014 -111.97949219 264.13378906 C-109.86924724 253.94380913 -107.75962556 243.75370314 -105.65455627 233.56265259 C-105.33054253 231.99448236 -105.00652725 230.42631244 -104.68251038 228.85814285 C-104.06760393 225.88199843 -103.45328835 222.90573287 -102.83932495 219.92939377 C-101.60142279 213.93328248 -100.35812406 207.93867293 -99.07371521 201.95230103 C-98.88301169 201.06153051 -98.69230818 200.17076 -98.49582577 199.25299644 C-98.16273898 197.70414638 -97.82658824 196.15594936 -97.48622227 194.60868263 C-95.4945838 185.35838208 -96.24171108 178.01161923 -98.96191406 169.03613281 C-99.23148926 168.12524902 -99.50106445 167.21436523 -99.77880859 166.27587891 C-102.33314892 157.91235611 -105.54244819 150.00125552 -109.39941406 142.16113281 C-109.7060498 141.53013672 -110.01268555 140.89914063 -110.32861328 140.24902344 C-118.23696491 124.16173895 -128.69067726 110.78115243 -141.39941406 98.16113281 Z M-197.39941406 383.16113281 C-199.66081598 388.34905486 -199.97572034 392.76603691 -198.39941406 398.16113281 C-195.97946931 402.64667327 -192.93885917 405.2667561 -188.14941406 406.97363281 C-186.57382656 407.39925293 -184.98972475 407.79433535 -183.39941406 408.16113281 C-182.57957031 408.37640625 -181.75972656 408.59167969 -180.91503906 408.81347656 C-174.61395586 410.31047304 -168.29211196 411.27755109 -162.38769531 408.06738281 C-157.52284581 404.39579828 -155.57929746 400.06054982 -154.39941406 394.16113281 C-154.39941406 393.17113281 -154.39941406 392.18113281 -154.39941406 391.16113281 C-159.87933237 390.01675665 -165.36029393 388.87756872 -170.84228516 387.74316406 C-172.70683869 387.35656677 -174.57109979 386.96855623 -176.43505859 386.57910156 C-179.11512741 386.01938554 -181.79620862 385.46476912 -184.47753906 384.91113281 C-185.72618744 384.64864746 -185.72618744 384.64864746 -187.00006104 384.38085938 C-188.17082184 384.14061035 -188.17082184 384.14061035 -189.36523438 383.89550781 C-190.04918274 383.75338867 -190.7331311 383.61126953 -191.43780518 383.46484375 C-193.72740089 383.05912984 -193.72740089 383.05912984 -197.39941406 383.16113281 Z M251.58105469 384.81347656 C250.29319817 385.08195152 250.29319817 385.08195152 248.97932434 385.35585022 C246.24689869 385.92765491 243.51756428 386.51293776 240.78808594 387.09863281 C238.93215407 387.48950012 237.07603596 387.87948428 235.21972656 388.26855469 C230.6777912 389.22252606 226.13857988 390.18859251 221.60058594 391.16113281 C221.8628725 392.74657661 222.14066903 394.32945863 222.42480469 395.91113281 C222.57780029 396.79285156 222.7307959 397.67457031 222.88842773 398.58300781 C224.00734845 402.63367725 226.33243815 405.56432013 229.60058594 408.16113281 C237.34269717 412.0575724 246.84245764 409.30696567 254.85839844 407.17285156 C259.84465229 405.3331938 263.36181317 402.56226055 265.80371094 397.82910156 C266.72653052 394.73946542 266.60987149 392.53820293 266.22558594 389.34863281 C266.11472656 388.3728125 266.00386719 387.39699219 265.88964844 386.39160156 C265.79425781 385.65554688 265.69886719 384.91949219 265.60058594 384.16113281 C260.65599971 382.62058653 256.49578137 383.74321601 251.58105469 384.81347656 Z " fill="#000000" transform="translate(222.3994140625,14.8388671875)"/>
<path d="M0 0 C5.55383558 3.85480035 9.13700735 8.8301466 10.4375 15.5 C11.20642244 23.36666805 9.64373702 29.22216214 5.25 35.75 C-0.06694047 40.94878624 -5.63070137 43.13877002 -13.046875 43.59375 C-19.75453646 43.34377504 -25.21401321 40.81911301 -30.0546875 36.21484375 C-35.15270611 30.41683813 -36.17137285 24.97888042 -35.8828125 17.33203125 C-35.14328499 10.79352584 -32.22230957 6.15980957 -27.5625 1.5 C-19.82766124 -4.5639634 -8.43958568 -4.61717243 0 0 Z M-18 15.0625 C-19.87451155 17.51746545 -19.87451155 17.51746545 -19.625 21.0625 C-18.85083299 24.56736246 -18.85083299 24.56736246 -16.375 26.5625 C-13.53731195 27.75646016 -13.53731195 27.75646016 -10.375 26.9375 C-7.54630606 25.7369839 -7.54630606 25.7369839 -6.125 23.6875 C-5.40490346 20.88712457 -5.65010606 19.23718181 -6.5625 16.5 C-7.64583333 14.58333333 -7.64583333 14.58333333 -9.5625 13.5 C-13.17831862 12.96147382 -14.90361489 13.07763775 -18 15.0625 Z " fill="#000000" transform="translate(223.5625,258.5)"/>
<path d="M0 0 C5.59935876 3.30818065 9.66649168 8.0140667 12.125 14 C13.4364055 22.15985646 12.82397704 28.23683295 8.6875 35.5 C4.44961464 40.50364188 -1.09739407 43.93190752 -7.66015625 44.81640625 C-13.91557617 45.11612498 -19.0673802 43.98703335 -24.3125 40.5 C-29.23519131 36.0000589 -32.77642442 31.48953091 -33.68359375 24.73828125 C-33.85197171 17.31974654 -32.934768 11.48238364 -28.3125 5.5 C-20.40432237 -1.30020178 -10.00450425 -4.45298522 0 0 Z M-17.3125 18.5 C-18.0625 21.5 -18.0625 21.5 -17.3125 24.5 C-15.3026643 27.09121904 -15.3026643 27.09121904 -12.3125 28.5 C-8.76915039 28.5 -7.05583217 28.14741834 -4.375 25.8125 C-2.89924409 22.60056066 -3.24805788 20.83525198 -4.3125 17.5 C-6.43681505 15.22394816 -7.75356306 14.59781396 -10.8125 14.0625 C-14.21084723 14.65721076 -15.32491034 15.70265158 -17.3125 18.5 Z " fill="#000000" transform="translate(221.3125,332.5)"/>
<path d="M0 0 C4.93041855 3.77251723 8.00679832 8.86519581 9.234375 14.93359375 C10.01836194 21.65531788 8.96104789 27.23458702 5.234375 32.93359375 C0.64682881 37.96169762 -3.90256135 41.50821158 -10.81640625 42.26953125 C-17.66844575 42.3515916 -23.19096625 42.21058847 -28.765625 37.93359375 C-34.50444392 32.19477483 -36.90229544 26.96807713 -37.203125 18.99609375 C-37.00819055 12.49015638 -35.58323099 8.06505965 -31.22265625 3.21875 C-22.22506967 -5.20233218 -10.63712267 -6.42463383 0 0 Z M-18.453125 13.55859375 C-21.01869673 15.7550585 -21.01869673 15.7550585 -21.328125 18.93359375 C-20.96449878 21.98515362 -20.96449878 21.98515362 -19.140625 24.30859375 C-16.81718487 26.13246753 -16.81718487 26.13246753 -13.765625 26.49609375 C-10.61935467 26.16856373 -10.61935467 26.16856373 -8.328125 23.80859375 C-6.52777543 21.02113627 -6.52777543 21.02113627 -6.703125 17.80859375 C-7.53949734 14.77708298 -7.53949734 14.77708298 -10.140625 13.05859375 C-13.74966194 11.51186363 -15.07183683 11.51409392 -18.453125 13.55859375 Z " fill="#000000" transform="translate(224.765625,184.06640625)"/>
<path d="M0 0 C5.40103383 4.47255422 8.32273033 10.30928042 9.31640625 17.19140625 C9.63566002 23.11304885 8.24621465 28.03573303 5 33 C0.50635571 37.92518424 -4.01449941 41.46446597 -10.76171875 42.37109375 C-18.18025346 42.53947171 -24.01761636 41.622268 -30 37 C-35.68696083 30.38644677 -37.38392705 24.70199531 -37.26953125 16.0703125 C-36.69540647 9.53028236 -33.88050769 5.56285387 -29.1875 1.125 C-20.25689433 -6.12183159 -9.62278298 -5.46419335 0 0 Z M-18.75 13.625 C-21.24937948 15.83338028 -21.24937948 15.83338028 -21.5625 19 C-21.19887378 22.05155987 -21.19887378 22.05155987 -19.375 24.375 C-17.05155987 26.19887378 -17.05155987 26.19887378 -14 26.5625 C-10.85372967 26.23496998 -10.85372967 26.23496998 -8.5625 23.875 C-6.75129515 21.08774307 -6.75129515 21.08774307 -7 17.875 C-8.14329714 14.58802073 -8.93023088 13.5787384 -12 12 C-15.95842116 11.66084713 -15.95842116 11.66084713 -18.75 13.625 Z " fill="#000000" transform="translate(225,410)"/>
</svg>
