<?xml version="1.0" encoding="UTF-8"?>
<svg version="1.1" xmlns="http://www.w3.org/2000/svg" width="512" height="512">
<path d="M0 0 C2.38684793 1.44718359 4.00342702 3.00342702 6 5 C8.1791031 4.02316068 9.76996812 3.25960741 11.3671875 1.45703125 C13.43746949 -0.39037349 14.56631097 -0.46205611 17.3125 -0.5 C18.05113281 -0.5309375 18.78976562 -0.561875 19.55078125 -0.59375 C22 0 22 0 24.68359375 2.41015625 C28.55931603 5.87178723 32.74585978 6.20722403 37.75 6.9375 C50.1578204 9.11189323 58.5903421 13.46143784 66 24 C69.59722968 30.30340246 70.7887272 37.1757349 71.69848633 44.29125977 C72.2599924 48.016362 73.09313524 50.4238194 75.55859375 53.19921875 C78.63092451 56.7237966 78.73423393 58.40695039 78.5078125 62.875 C77.69933375 66.25817261 75.67394151 67.92769533 73 70 C74.03214077 72.22307242 74.94675842 73.94266292 76.625 75.75 C78.67157047 79.09893349 78.81966193 82.1827173 78 86 C75.9375 88.5625 75.9375 88.5625 73 90 C68.37720728 90.08254987 66.56655537 89.49422915 63.0625 86.4375 C62.381875 85.633125 61.70125 84.82875 61 84 C57.78956118 85.38188453 55.95063635 86.92421903 53.75 89.625 C53.22921875 90.25664063 52.7084375 90.88828125 52.171875 91.5390625 C51.78515625 92.02117187 51.3984375 92.50328125 51 93 C51.99 93.825 52.98 94.65 54 95.5 C56.46726157 97.97312205 57.49659986 99.60980441 57.6875 103.125 C57 107 57 107 54.875 109.5 C51.36779048 111.32984844 49.90169037 111.76503733 46 111 C43.11143805 109.19268999 40.63751165 107.18276826 38 105 C35.36 107.64 32.72 110.28 30 113 C31.485 114.794375 31.485 114.794375 33 116.625 C35.03213675 119.3553828 35.96031454 120.79760413 36.625 124.1875 C35.81256629 127.84345168 34.83199812 129.53107856 32 132 C28.25558054 132.79208873 26.06692058 132.64837381 22.76953125 130.64453125 C20.77885807 129.16121548 18.8699962 127.63199668 17 126 C16.11844238 126.92248535 15.23688477 127.8449707 14.32861328 128.79541016 C11.01326316 131.64022918 8.22963544 132.65865174 3.97998047 133.59130859 C-21.16762756 139.19861242 -35.45061432 155.01461319 -52.6550293 173.28173828 C-56.39955925 177.23422904 -60.20442853 181.12777649 -64.00390625 185.02734375 C-71.3945706 192.62982239 -78.71843962 200.29305736 -86 208 C-83.99580684 211.41448612 -81.92011623 214.334634 -79.3125 217.3125 C-65.27707717 234.70815297 -59.43316804 258.2642207 -61.27734375 280.31640625 C-63.52092103 300.80774537 -71.05758966 318.69795745 -85 334 C-85.62390625 334.70511719 -86.2478125 335.41023438 -86.890625 336.13671875 C-97.05047777 347.00093106 -110.48581061 353.6737084 -123.44262695 360.59594727 C-136.41508156 367.6162583 -143.85213682 374.27330384 -148.14648438 388.67944336 C-149.4946908 393.43656986 -150.75505498 398.21494391 -152 403 C-153.1787382 407.51401113 -154.36143612 412.02691984 -155.54962158 416.53845215 C-156.04734643 418.44204385 -156.53434258 420.34843068 -157.02099609 422.25488281 C-161.96256347 441.21488325 -169.65254302 457.79620962 -182 473 C-182.57363281 473.72703125 -183.14726562 474.4540625 -183.73828125 475.203125 C-188.47663702 480.94795729 -194.11387548 485.47473435 -200 490 C-200.78117188 490.6084375 -201.56234375 491.216875 -202.3671875 491.84375 C-226.88257051 510.00329297 -257.01179625 514.95964778 -286.92529297 511.67919922 C-296.66811639 510.15624695 -306.00112521 506.99039832 -315 503 C-315.98097656 502.57074219 -316.96195312 502.14148438 -317.97265625 501.69921875 C-329.00387993 496.53968725 -338.60349258 489.47601568 -347.43359375 481.15625 C-348.06042053 480.5679541 -348.68724731 479.9796582 -349.33306885 479.37353516 C-358.7317889 470.4874928 -367.88179725 461.34235298 -377.03515625 452.20507812 C-379.18095743 450.06368445 -381.33146266 447.92719351 -383.48632812 445.79492188 C-401.40630086 428.05886776 -418.82177045 410.52606543 -427.875 386.5 C-428.28637207 385.41682495 -428.28637207 385.41682495 -428.70605469 384.31176758 C-433.07441005 371.98676494 -434.54050267 359.69608356 -434.4375 346.6875 C-434.43445862 346.01467987 -434.43141724 345.34185974 -434.42828369 344.64865112 C-434.35509558 333.65433337 -433.40632878 323.47217706 -430 313 C-429.79101074 312.32517578 -429.58202148 311.65035156 -429.36669922 310.95507812 C-424.72491615 296.25435992 -416.99310921 283.68722 -407 272 C-406.52304687 271.39027344 -406.04609375 270.78054688 -405.5546875 270.15234375 C-401.11478184 264.58343351 -395.60983141 260.33909612 -390 256 C-389.25234375 255.401875 -388.5046875 254.80375 -387.734375 254.1875 C-373.62571884 243.53201143 -356.89320166 238.30825008 -340 234 C-334.84352746 232.68429596 -329.68923596 231.36072308 -324.53787231 230.02514648 C-322.29932618 229.45016957 -320.05717504 228.89142892 -317.81420898 228.33398438 C-310.31896637 226.43160011 -303.4998583 224.34103358 -297 220 C-295.4840625 219.01 -295.4840625 219.01 -293.9375 218 C-287.65104288 212.3626879 -283.94537298 203.72785754 -279.9140625 196.421875 C-268.65896168 176.07216193 -268.65896168 176.07216193 -261 168 C-260.38253906 167.30519531 -259.76507813 166.61039063 -259.12890625 165.89453125 C-243.05759609 148.62037875 -220.18810726 140.0112434 -197.00805664 139.02124023 C-175.50232627 138.51560932 -153.45763644 144.9260839 -137.11328125 159.23828125 C-134.86571057 161.11194923 -132.51977481 162.5209735 -130 164 C-121.52027669 156.01307411 -113.10288618 147.96564709 -104.75393963 139.84199524 C-100.87251616 136.06886595 -96.97476533 132.3172074 -93.02807617 128.61230469 C-73.48283389 110.23469396 -60.14602176 95.3591315 -53.90103149 68.93115234 C-52.67884877 64.95526051 -51.0146826 62.80864198 -48 60 C-48.433125 59.57589844 -48.86625 59.15179688 -49.3125 58.71484375 C-52.31746215 55.54989519 -53.87017378 53.69634062 -54.6875 49.3125 C-54 46 -54 46 -51.875 43.5625 C-48.36782602 41.65642718 -46.9337932 41.228668 -43 42 C-40.11143805 43.80731001 -37.63751165 45.81723174 -35 48 C-32.36 45.36 -29.72 42.72 -27 40 C-27.99 38.80375 -28.98 37.6075 -30 36.375 C-32.03213675 33.6446172 -32.96031454 32.20239587 -33.625 28.8125 C-32.80364618 25.11640779 -31.90078201 23.46566471 -29 21 C-24.77441481 20.23800923 -22.5408642 19.99306991 -18.92578125 22.35546875 C-17.20965311 23.8209656 -15.59574071 25.40425929 -14 27 C-11.36 24.36 -8.72 21.72 -6 19 C-7.72505378 15.06695297 -7.72505378 15.06695297 -10.1875 12.6875 C-12 10 -12 10 -11.9375 6.375 C-11 3 -11 3 -9.9375 1.0625 C-6.7096929 -0.70758777 -3.5162832 -0.74166425 0 0 Z M14.32658386 20.85095215 C13.34222481 21.77216644 12.37394028 22.71073313 11.41870117 23.66210938 C10.88462143 24.17121857 10.35054169 24.68032776 9.80027771 25.2048645 C8.03114848 26.90147386 6.28605549 28.62041833 4.54296875 30.34375 C3.31395684 31.54582907 2.08473068 32.74768913 0.8553009 33.94934082 C-1.72894562 36.48401636 -4.29961606 39.03167842 -6.86352539 41.58691406 C-9.46739768 44.17797844 -12.09342613 46.74233976 -14.74536133 49.28417969 C-37.16344458 69.91967758 -37.16344458 69.91967758 -47 98 C-46.15579335 104.64983788 -41.44792642 108.29619273 -36.90966797 112.83154297 C-35.3790748 114.37090186 -33.88331799 115.93937969 -32.38671875 117.51171875 C-31.41342928 118.49674304 -30.43822872 119.47988342 -29.4609375 120.4609375 C-28.14295166 121.80357666 -28.14295166 121.80357666 -26.79833984 123.17333984 C-24.09541637 125.31854607 -24.09541637 125.31854607 -20.6965332 124.89648438 C-19.47667725 124.60064453 -18.25682129 124.30480469 -17 124 C-16.35353516 123.89990631 -15.70707031 123.79981262 -15.04101562 123.69668579 C4.5865054 120.50156854 17.28810629 104.42236185 30.39105225 90.85131836 C32.97453858 88.19405565 35.59356695 85.57331483 38.21389484 82.95245171 C40.73896016 80.42188358 43.24787164 77.87581688 45.75145531 75.32400894 C46.94613326 74.10775532 48.14431741 72.8949353 49.34606361 71.68566513 C51.00998536 70.00407467 52.65255688 68.30423005 54.2902832 66.59716797 C54.78609894 66.10250031 55.28191467 65.60783264 55.79275513 65.09817505 C57.31657089 63.54989659 57.31657089 63.54989659 59 61 C58.95716363 58.35223466 58.95716363 58.35223466 58 56 C57.78601563 54.94425781 57.57203125 53.88851562 57.3515625 52.80078125 C56.60006543 49.19278725 55.8048783 45.59643184 55 42 C54.80792969 41.04609375 54.61585938 40.0921875 54.41796875 39.109375 C52.82064203 32.39029745 49.7646569 28.76841529 44 25 C40.33776022 23.59285571 36.66497642 22.82874317 32.8125 22.125 C31.84119141 21.92648438 30.86988281 21.72796875 29.86914062 21.5234375 C27.2499152 20.99205249 24.62672334 20.49265725 22 20 C21.23937256 19.72932709 20.47874512 19.45865417 19.69506836 19.17977905 C16.82938468 18.70767251 16.82938468 18.70767251 14.32658386 20.85095215 Z M-59.9453125 116.75 C-61.02425781 117.86375 -61.02425781 117.86375 -62.125 119 C-62.84945313 119.7425 -63.57390625 120.485 -64.3203125 121.25 C-64.87460937 121.8275 -65.42890625 122.405 -66 123 C-64.54254576 126.36335594 -62.68882146 128.54534005 -60.0859375 131.109375 C-58.94511719 132.24052734 -58.94511719 132.24052734 -57.78125 133.39453125 C-56.9871875 134.17183594 -56.193125 134.94914062 -55.375 135.75 C-54.57320313 136.54277344 -53.77140625 137.33554688 -52.9453125 138.15234375 C-50.96797154 140.10614493 -48.98611091 142.05512103 -47 144 C-44.0590231 142.59321502 -42.01051716 141.23826794 -39.75 138.875 C-38.8425 137.92625 -37.935 136.9775 -37 136 C-38.45241736 132.66765426 -40.2850086 130.45774394 -42.84375 127.890625 C-43.59527344 127.13652344 -44.34679687 126.38242188 -45.12109375 125.60546875 C-45.90613281 124.82816406 -46.69117188 124.05085938 -47.5 123.25 C-48.28503906 122.45722656 -49.07007813 121.66445312 -49.87890625 120.84765625 C-51.00619141 119.72423828 -51.00619141 119.72423828 -52.15625 118.578125 C-52.84525391 117.89137695 -53.53425781 117.20462891 -54.24414062 116.49707031 C-56.80729693 114.31168732 -57.45482027 114.50955719 -59.9453125 116.75 Z M-82.84707642 139.59310913 C-83.64917038 140.38956345 -84.45126434 141.18601776 -85.27766418 142.00660706 C-86.15879379 142.89178513 -87.0399234 143.7769632 -87.94775391 144.68896484 C-88.87463516 145.61234146 -89.80151642 146.53571808 -90.75648499 147.48707581 C-93.30438527 150.02583248 -95.84588735 152.57090652 -98.38605165 155.11740065 C-101.04030114 157.77669994 -103.69941119 160.43113157 -106.35775757 163.08633423 C-110.8218655 167.54679953 -115.28173067 172.01147455 -119.73925781 176.47851562 C-124.89899225 181.64913517 -130.06589246 186.81251001 -135.23657477 191.97217977 C-139.66913505 196.39567561 -144.09780012 200.82304283 -148.52320993 205.25369227 C-151.16924482 207.90285151 -153.81662731 210.55062599 -156.46751785 213.19492722 C-159.42109562 216.14167604 -162.3664632 219.09649813 -165.31103516 222.05224609 C-166.63880226 223.37394051 -166.63880226 223.37394051 -167.99339294 224.72233582 C-168.78984726 225.52442978 -169.58630157 226.32652374 -170.40689087 227.15292358 C-171.1048559 227.85164267 -171.80282093 228.55036175 -172.52193642 229.27025414 C-174.21654376 230.8742107 -174.21654376 230.8742107 -174 233 C-172.516662 233.93715922 -170.9855331 234.79907474 -169.4375 235.625 C-162.53749791 239.62230999 -157.74360061 244.95322237 -154 252 C-148.38023756 247.32250899 -143.19228664 242.32878515 -138.03540039 237.14892578 C-137.16631042 236.27998184 -136.29722046 235.4110379 -135.40179443 234.51576233 C-133.03889655 232.15229056 -130.67822739 229.78663472 -128.31855321 227.41994715 C-125.84466319 224.93977074 -123.36790718 222.46245962 -120.89146423 219.98483276 C-116.21123591 215.30150662 -111.53356074 210.61563911 -106.85681576 205.9288348 C-101.52863564 200.58944522 -96.19758763 195.25292295 -90.86630642 189.91663003 C-79.90769491 178.94758925 -68.95265924 167.97498437 -58 157 C-59.56522636 153.70504076 -61.25799553 151.48484546 -63.84375 148.890625 C-64.59527344 148.13652344 -65.34679687 147.38242188 -66.12109375 146.60546875 C-66.90613281 145.82816406 -67.69117188 145.05085937 -68.5 144.25 C-69.28503906 143.45722656 -70.07007813 142.66445312 -70.87890625 141.84765625 C-72.00619141 140.72423828 -72.00619141 140.72423828 -73.15625 139.578125 C-73.84525391 138.89137695 -74.53425781 138.20462891 -75.24414062 137.49707031 C-78.70759108 134.54408391 -80.08371441 136.83272932 -82.84707642 139.59310913 Z M-248.64648438 178.5703125 C-256.6486372 187.02280293 -261.83477424 196.83137283 -267.13256836 207.1081543 C-275.4010476 222.96524564 -285.12890549 235.30853597 -302.65393066 240.83724976 C-310.30704216 243.03951935 -318.03067443 244.98294785 -325.75 246.9375 C-351.17329042 253.37524131 -371.84042191 260.5571831 -391 279 C-391.65871094 279.58394531 -392.31742187 280.16789062 -392.99609375 280.76953125 C-408.93908541 295.31336891 -416.73740016 318.98481979 -418.875 339.875 C-420.22320475 369.2995686 -409.73195466 393.85709705 -390.16015625 415.3671875 C-381.49446061 424.79241303 -372.37001664 433.78088269 -363.30810547 442.82226562 C-360.7476383 445.37699803 -358.19174211 447.93624935 -355.63711929 450.49682426 C-353.63989953 452.49768134 -351.6402751 454.49612166 -349.63994598 456.49386978 C-348.24513295 457.88770888 -346.85230202 459.2835306 -345.45953369 460.67941284 C-323.12996428 482.92728934 -298.98384713 496.4651124 -267 497 C-240.41823336 496.52971543 -216.04021593 484.68767379 -197.56494141 465.91259766 C-191.02627769 459.0750236 -186.22485739 451.7441785 -181.875 443.375 C-181.56199951 442.78485107 -181.24899902 442.19470215 -180.92651367 441.58666992 C-175.83200451 431.35904675 -173.18031164 419.89877745 -170.31640625 408.890625 C-170.09045776 408.02237091 -169.86450928 407.15411682 -169.63171387 406.259552 C-168.70579404 402.68948986 -167.78236788 399.11896802 -166.87768555 395.54345703 C-162.4450067 378.08158053 -157.48313923 362.35324268 -141.375 352.1875 C-138.92856644 350.7635428 -136.47600212 349.37049523 -134 348 C-131.12075036 346.40333955 -128.24239774 344.805242 -125.36767578 343.20043945 C-123.38352905 342.09610974 -121.39387483 341.00159698 -119.39794922 339.91870117 C-99.76239744 329.0570184 -86.13394598 313.43164232 -79.54296875 291.9375 C-74.18003521 272.80070119 -77.37116507 252.52899731 -86.77758789 235.23583984 C-89.85377444 229.88986656 -93.59538028 225.32261882 -98 221 C-103.55022761 223.33804654 -107.52278192 227.96031338 -111.75610352 232.11083984 C-112.79297929 233.11957765 -113.83961359 234.11838157 -114.89575195 235.10693359 C-121.00381164 240.36811002 -121.00381164 240.36811002 -124.47802734 247.28417969 C-124.2629544 249.64897137 -124.2629544 249.64897137 -123 253 C-119.63887831 271.61916331 -122.81822219 289.94339306 -133 306 C-141.46084749 317.41925703 -152.67157864 326.04407995 -166 331 C-166.85335937 331.3196875 -167.70671875 331.639375 -168.5859375 331.96875 C-185.91640768 337.33176083 -205.64452429 334.82624456 -221.6875 326.9375 C-238.74936593 317.1070146 -249.45502665 301.88555588 -254.8125 283.16015625 C-258.85778022 264.47882746 -255.22595571 245.08556064 -245 229 C-235.69286157 216.64265351 -222.6284169 205.45999455 -206.9375 202.875 C-203 203 -203 203 -200.375 204.4375 C-198.67459736 207.60643219 -198.43037732 209.59491545 -199.07421875 213.11328125 C-200.95035024 216.93678974 -205.21907847 217.64424452 -209 219 C-223.4974524 225.65622163 -233.38724985 237.27976848 -239 252 C-243.04308214 264.04545198 -241.73159823 277.29293747 -236.78125 288.84375 C-230.0083956 302.23895093 -219.3242953 311.95109435 -205.32421875 317.2734375 C-191.86790251 321.4799498 -176.48692073 319.88912069 -164.07421875 313.4921875 C-150.67820445 305.52498674 -141.94913773 294.02136409 -137.78515625 279.00390625 C-136.85685125 274.93952968 -136.80059059 271.16692684 -136.875 267 C-136.88853516 265.98099609 -136.88853516 265.98099609 -136.90234375 264.94140625 C-136.92554507 263.29411259 -136.96139833 261.64700474 -137 260 C-143.81157038 262.95744857 -149.55200234 268.69722184 -152.515625 275.45703125 C-153.29450644 277.8533898 -154.05894603 280.25449233 -154.80859375 282.66015625 C-158.19008588 292.13942108 -165.32674927 297.57914914 -174.01171875 302.03125 C-182.69272754 305.60286504 -194.11544176 305.31614629 -202.9375 302.4375 C-212.10380776 298.52286631 -219.40348193 292.36317752 -223.1875 283.08984375 C-227.28355987 271.15722491 -227.39542265 260.54109639 -222 249 C-216.84425139 240.30468305 -209.91681283 235.31995781 -200.46972656 232.0559082 C-192.62027194 228.81741356 -187.45007707 223.33595664 -181.671875 217.35546875 C-180.54714293 216.2176484 -179.42083109 215.08138771 -178.29302979 213.9466095 C-175.35759989 210.98470844 -172.44382626 208.00239674 -169.53436279 205.01501465 C-166.55025742 201.95874364 -163.54573213 198.92268731 -160.54296875 195.88476562 C-154.67537393 189.94254995 -148.8305478 183.97856995 -143 178 C-147.78567414 167.81408711 -159.98628239 162.85142985 -170 159 C-197.91589228 149.29167058 -228.2298132 157.68397501 -248.64648438 178.5703125 Z M-205.4921875 252.20703125 C-209.70444895 257.21591209 -211.79598288 263.12936436 -211.44140625 269.671875 C-209.99037073 277.3251243 -206.20634324 282.58786155 -199.8671875 286.94140625 C-194.2261033 290.13959416 -186.80694186 289.99119382 -180.64453125 288.38671875 C-174.28644124 285.59506221 -170.9422186 280.44302388 -167.625 274.5625 C-166.00393584 267.91613693 -166.62081277 262.20266359 -169.6796875 256.07421875 C-173.42105503 250.19650822 -178.35247187 247.46477779 -184.88671875 245.4453125 C-192.50499836 243.83998186 -199.97864517 247.01404371 -205.4921875 252.20703125 Z " fill="#000000" transform="translate(434,0)"/>
<path d="M0 0 C1.87492561 1.3316927 1.87492561 1.3316927 3.79153442 3.0896759 C4.84004263 4.04681708 4.84004263 4.04681708 5.90973282 5.02329445 C9.05319099 7.99597243 12.15231564 11.00479221 15.21044922 14.06518555 C15.88140121 14.73277893 16.55235321 15.40037231 17.24363708 16.0881958 C19.43327317 18.26842724 21.61920877 20.45232051 23.8046875 22.63671875 C25.33538698 24.16420119 26.86616006 25.69160987 28.39700317 27.21894836 C31.59098833 30.40697063 34.78292512 33.59702777 37.97363281 36.78833008 C42.06418851 40.87898789 46.16161034 44.96269374 50.26078606 49.04471111 C53.41770604 52.19052862 56.57008687 55.34086429 59.72119522 58.49250221 C61.23068086 60.00080755 62.7417889 61.50749102 64.2545433 63.01251793 C66.36310467 65.11130374 68.46526195 67.21630396 70.56591797 69.32299805 C71.19136002 69.94282059 71.81680206 70.56264313 72.4611969 71.20124817 C73.03296158 71.77720734 73.60472626 72.3531665 74.19381714 72.94657898 C74.69041273 73.4426298 75.18700832 73.93868063 75.69865227 74.4497633 C77.95548422 77.13822514 78.98244258 79.2274736 79.0625 82.75 C76.50551156 90.5713764 68.41745816 96.73940445 62.6875 102.4375 C61.97271484 103.15615234 61.25792969 103.87480469 60.52148438 104.61523438 C59.83763672 105.29779297 59.15378906 105.98035156 58.44921875 106.68359375 C57.83393311 107.29775146 57.21864746 107.91190918 56.5847168 108.54467773 C54.29970756 110.6431125 52.99424209 111.00092127 49.875 111.5 C45.76494741 110.96967063 45.10966887 110.57025951 42.2151947 107.91308594 C41.16661191 106.95589661 41.16661191 106.95589661 40.09684563 105.97937012 C36.92336853 102.98368667 33.78223114 99.9620102 30.68188477 96.890625 C29.99957291 96.21809692 29.31726105 95.54556885 28.61427307 94.85266113 C26.38688833 92.65487952 24.16350882 90.45312162 21.94140625 88.25 C21.17771162 87.4928772 20.41401699 86.73575439 19.6271801 85.95568848 C15.59606574 81.95699215 11.5689122 77.95434743 7.54418945 73.94921875 C4.21857771 70.6414985 0.88463501 67.34252798 -2.45678711 64.05078125 C-6.50579456 60.06187184 -10.5399676 56.05851948 -14.56389046 52.04431152 C-16.09579865 50.52096305 -17.63283684 49.00275521 -19.17507744 47.48986816 C-21.32689755 45.37686475 -23.45911071 43.24579679 -25.58764648 41.109375 C-26.22603455 40.49098755 -26.86442261 39.8726001 -27.52215576 39.23547363 C-31.34527955 35.34832457 -32.9501473 32.69194771 -33 27 C-31.22411191 22.9026771 -28.32502807 20.07939767 -25.18359375 16.953125 C-24.25482422 16.02628906 -23.32605469 15.09945313 -22.36914062 14.14453125 C-21.88807861 13.66967285 -21.4070166 13.19481445 -20.91137695 12.70556641 C-19.43311591 11.24567037 -17.96312253 9.77782061 -16.49414062 8.30859375 C-7.19856238 -0.92884676 -7.19856238 -0.92884676 0 0 Z M-6.06640625 20.96875 C-6.89011719 21.8040625 -7.71382812 22.639375 -8.5625 23.5 C-9.38878906 24.3353125 -10.21507812 25.170625 -11.06640625 26.03125 C-12.02353516 27.00578125 -12.02353516 27.00578125 -13 28 C-11.59155282 31.21524305 -9.89655214 33.32183868 -7.375 35.75 C-6.74335937 36.36359375 -6.11171875 36.9771875 -5.4609375 37.609375 C-4.97882813 38.06828125 -4.49671875 38.5271875 -4 39 C-2.8944811 38.06409496 -1.79064547 37.12620142 -0.6875 36.1875 C-0.07261719 35.66542969 0.54226562 35.14335937 1.17578125 34.60546875 C2.85424679 33.12827531 4.43882034 31.59960869 6 30 C4.59698853 26.81326038 2.92234929 24.67778594 0.4375 22.25 C-0.18253906 21.63640625 -0.80257812 21.0228125 -1.44140625 20.390625 C-3.82908525 18.26026479 -3.63192049 18.64931555 -6.06640625 20.96875 Z M14.8359375 42.96875 C14.02382812 43.8040625 13.21171875 44.639375 12.375 45.5 C11.14910156 46.75296875 11.14910156 46.75296875 9.8984375 48.03125 C9.27195313 48.6809375 8.64546875 49.330625 8 50 C13.82628904 57.15801225 20.4382985 63.52591766 27 70 C30.21524305 68.59155282 32.32183868 66.89655214 34.75 64.375 C35.36359375 63.74335938 35.9771875 63.11171875 36.609375 62.4609375 C37.06828125 61.97882813 37.5271875 61.49671875 38 61 C34.0060348 56.09312847 29.6959047 51.55729437 25.25 47.0625 C24.67096924 46.47057861 24.09193848 45.87865723 23.49536133 45.26879883 C22.03589071 43.80590875 20.52187506 42.39785485 19 41 C16.7589659 40.77568714 16.7589659 40.77568714 14.8359375 42.96875 Z M46.93359375 73.96875 C46.10988281 74.8040625 45.28617187 75.639375 44.4375 76.5 C43.61121094 77.3353125 42.78492188 78.170625 41.93359375 79.03125 C40.97646484 80.00578125 40.97646484 80.00578125 40 81 C41.40844718 84.21524305 43.10344786 86.32183868 45.625 88.75 C46.25664062 89.36359375 46.88828125 89.9771875 47.5390625 90.609375 C48.02117187 91.06828125 48.50328125 91.5271875 49 92 C50.1055189 91.06409496 51.20935453 90.12620142 52.3125 89.1875 C52.92738281 88.66542969 53.54226562 88.14335937 54.17578125 87.60546875 C55.85424679 86.12827531 57.43882034 84.59960869 59 83 C57.59698853 79.81326038 55.92234929 77.67778594 53.4375 75.25 C52.81746094 74.63640625 52.19742188 74.0228125 51.55859375 73.390625 C49.17091475 71.26026479 49.36807951 71.64931555 46.93359375 73.96875 Z " fill="#000000" transform="translate(116,318)"/>
</svg>
