<?xml version="1.0" encoding="UTF-8"?>
<svg version="1.1" xmlns="http://www.w3.org/2000/svg" width="512" height="512">
<path d="M0 0 C4.46353067 3.03259916 8.29189341 6.69760239 12.14453125 10.45703125 C12.881875 11.14410156 13.61921875 11.83117188 14.37890625 12.5390625 C21.15781116 18.99940985 26.18391671 25.35961747 26.43603516 35.00488281 C26.50633733 42.16916447 26.15063698 47.33004602 22.14453125 53.45703125 C20.82018757 55.34497514 20.82018757 55.34497514 20.14453125 57.45703125 C20.79594843 59.50757969 20.79594843 59.50757969 22.14453125 61.58203125 C31.43084434 78.83529054 34.84083563 98.06366493 34.14453125 117.45703125 C35.12679687 117.42561035 35.12679687 117.42561035 36.12890625 117.39355469 C39.13395453 117.30972742 42.13875589 117.2581623 45.14453125 117.20703125 C46.17449219 117.17351562 47.20445312 117.14 48.265625 117.10546875 C56.10590377 117.00559259 61.43645852 118.20762257 67.38671875 123.421875 C68.19496094 124.39833984 68.19496094 124.39833984 69.01953125 125.39453125 C69.57382812 126.04292969 70.128125 126.69132813 70.69921875 127.359375 C74.1397971 132.35286304 74.46354681 137.04381537 74.48046875 142.9765625 C74.48712555 143.79396408 74.49378235 144.61136566 74.50064087 145.45353699 C74.51074003 147.17904419 74.51545874 148.90459023 74.51513672 150.63012695 C74.51950011 153.25082865 74.55581955 155.86983134 74.59375 158.49023438 C74.59962098 160.17317138 74.60358849 161.85611631 74.60546875 163.5390625 C74.6270253 164.70040459 74.6270253 164.70040459 74.64901733 165.88520813 C74.59409787 172.52601395 72.5697267 177.68951199 68.1796875 182.69921875 C67.52871094 183.23804688 66.87773437 183.776875 66.20703125 184.33203125 C65.55863281 184.88632813 64.91023438 185.440625 64.2421875 186.01171875 C59.97851843 188.94944232 56.32422427 189.7050281 51.1875 189.65234375 C50.07568359 189.64589844 48.96386719 189.63945312 47.81835938 189.6328125 C46.09262695 189.60767578 46.09262695 189.60767578 44.33203125 189.58203125 C43.16220703 189.57300781 41.99238281 189.56398437 40.78710938 189.5546875 C37.90604072 189.53116857 35.02539136 189.49829977 32.14453125 189.45703125 C32.09965576 190.1533667 32.05478027 190.84970215 32.00854492 191.56713867 C31.09623226 205.50632173 30.05264837 219.42791236 28.70703125 233.33203125 C28.59705811 234.5543042 28.48708496 235.77657715 28.3737793 237.03588867 C27.23855052 248.29878212 27.23855052 248.29878212 24.14453125 252.45703125 C19.37488491 255.06353214 14.00592576 255.17421001 8.6953125 255.67578125 C7.66376038 255.77868973 6.63220825 255.88159821 5.56939697 255.98762512 C2.19944938 256.32022512 -1.17151264 256.64010648 -4.54296875 256.95703125 C-5.70313507 257.06719574 -6.86330139 257.17736023 -8.05862427 257.29086304 C-15.98850007 258.04073616 -23.92093923 258.7582645 -31.85546875 259.45703125 C-32.68699463 259.53133362 -33.51852051 259.60563599 -34.37524414 259.68218994 C-54.45997109 261.46481599 -74.56870769 261.70239314 -94.72063065 261.81814194 C-96.6977372 261.83180505 -98.67478669 261.85304886 -100.65182495 261.87442017 C-122.65642208 262.08608182 -141.49485637 259.82264316 -161.85546875 251.45703125 C-162.84546875 251.12703125 -163.83546875 250.79703125 -164.85546875 250.45703125 C-166.17546875 252.10703125 -167.49546875 253.75703125 -168.85546875 255.45703125 C-168.46875 256.35421875 -168.08203125 257.25140625 -167.68359375 258.17578125 C-161.11480746 273.77691279 -157.71678617 288.9465972 -157.65234375 305.90234375 C-157.64537476 307.12435486 -157.63840576 308.34636597 -157.63122559 309.60540771 C-157.61372485 313.59765341 -157.60703727 317.58975538 -157.60546875 321.58203125 C-157.60458504 322.60504208 -157.60458504 322.60504208 -157.60368347 323.64871979 C-157.58875684 348.12147126 -158.43270534 372.41979018 -160.61791992 396.80438232 C-160.86405735 399.55293799 -161.1031126 402.30205741 -161.34179688 405.05126953 C-161.81974695 410.50166833 -162.33144435 415.94839307 -162.85546875 421.39453125 C-162.93301392 422.22748718 -163.01055908 423.06044312 -163.0904541 423.91864014 C-163.31159929 426.25458124 -163.54939355 428.58817905 -163.79296875 430.921875 C-163.88671783 431.94040306 -163.88671783 431.94040306 -163.98236084 432.97950745 C-164.46528644 437.35722317 -165.42665655 440.7652503 -167.85546875 444.45703125 C-171.26285389 446.13511827 -174.35567909 446.78944376 -178.1171875 447.14306641 C-179.14175049 447.2430191 -180.16631348 447.3429718 -181.22192383 447.44595337 C-182.31786865 447.54499969 -183.41381348 447.64404602 -184.54296875 447.74609375 C-185.67822998 447.85424408 -186.81349121 447.96239441 -187.9831543 448.07382202 C-190.38004055 448.30077992 -192.7772702 448.52413612 -195.17480469 448.74414062 C-198.84256188 449.08084638 -202.50919888 449.42809858 -206.17578125 449.77734375 C-208.50645247 449.99671023 -210.83717993 450.21548032 -213.16796875 450.43359375 C-214.26391357 450.53668854 -215.3598584 450.63978333 -216.48901367 450.7460022 C-218.02585815 450.88647476 -218.02585815 450.88647476 -219.59375 451.02978516 C-220.9401355 451.15397324 -220.9401355 451.15397324 -222.3137207 451.28067017 C-224.83677675 451.45573429 -227.32725179 451.48812579 -229.85546875 451.45703125 C-229.83452148 452.17246094 -229.81357422 452.88789063 -229.79199219 453.625 C-229.70826042 456.90219777 -229.65662824 460.17916966 -229.60546875 463.45703125 C-229.57195312 464.58238281 -229.5384375 465.70773437 -229.50390625 466.8671875 C-229.40854755 475.02035641 -230.39406037 480.50703441 -235.8203125 486.69921875 C-236.47128906 487.23804688 -237.12226563 487.776875 -237.79296875 488.33203125 C-238.44136719 488.88632812 -239.08976563 489.440625 -239.7578125 490.01171875 C-244.75130054 493.4522971 -249.44225287 493.77604681 -255.375 493.79296875 C-256.19240158 493.79962555 -257.00980316 493.80628235 -257.85197449 493.81314087 C-259.57748169 493.82324003 -261.30302773 493.82795874 -263.02856445 493.82763672 C-265.64926615 493.83200011 -268.26826884 493.86831955 -270.88867188 493.90625 C-272.57160888 493.91212098 -274.25455381 493.91608849 -275.9375 493.91796875 C-276.71172806 493.93233978 -277.48595612 493.94671082 -278.28364563 493.96151733 C-284.92445145 493.90659787 -290.08794949 491.8822267 -295.09765625 487.4921875 C-295.63648438 486.84121094 -296.1753125 486.19023437 -296.73046875 485.51953125 C-297.28476562 484.87113281 -297.8390625 484.22273438 -298.41015625 483.5546875 C-301.23715002 479.45172627 -302.10607285 475.88609863 -302.05078125 470.9375 C-302.04433594 469.91591797 -302.03789062 468.89433594 -302.03125 467.84179688 C-302.01449219 466.78669922 -301.99773437 465.73160156 -301.98046875 464.64453125 C-301.97144531 463.57009766 -301.96242188 462.49566406 -301.953125 461.38867188 C-301.92962181 458.74456271 -301.8967645 456.10091253 -301.85546875 453.45703125 C-302.7784375 453.5034375 -303.70140625 453.54984375 -304.65234375 453.59765625 C-323.55841408 454.1207491 -342.15373127 449.86373518 -358.79296875 440.76953125 C-361.52857282 439.47786407 -362.38540248 439.29556386 -365.2890625 440.29296875 C-367.58422378 441.56357003 -369.69308555 442.97636323 -371.85546875 444.45703125 C-378.49681193 446.67081231 -387.05978565 446.60026652 -393.60546875 444.01953125 C-399.10546441 441.13177842 -403.44461059 436.7611751 -407.85546875 432.45703125 C-408.5928125 431.76996094 -409.33015625 431.08289063 -410.08984375 430.375 C-416.87009814 423.91336659 -421.89110035 417.55562836 -422.14794922 407.90991211 C-422.26845175 395.02642847 -422.26845175 395.02642847 -417.85546875 389.45703125 C-417.30375 388.92722656 -416.75203125 388.39742188 -416.18359375 387.8515625 C-414.36151738 386.09217224 -413.07467768 384.6859781 -411.85546875 382.45703125 C-411.96369269 379.83549758 -411.96369269 379.83549758 -412.66796875 377.01953125 C-415.75096118 361.06136372 -415.24160565 343.83586952 -409.85546875 328.45703125 C-409.50484375 327.420625 -409.15421875 326.38421875 -408.79296875 325.31640625 C-400.37370201 302.98196253 -383.30526164 286.22449405 -361.9140625 276.1875 C-355.36847356 273.28516604 -348.06186452 270.45703125 -340.85546875 270.45703125 C-340.72591797 269.49216797 -340.72591797 269.49216797 -340.59375 268.5078125 C-337.1584922 246.41500777 -324.36200187 227.10849879 -306.85546875 213.45703125 C-285.72046856 199.08970151 -260.86501572 193.66534508 -235.609375 198.2890625 C-229.5584253 199.6023441 -223.71505322 201.46189666 -217.85546875 203.45703125 C-217.19546875 202.46703125 -216.53546875 201.47703125 -215.85546875 200.45703125 C-216.50756712 197.72470957 -217.24353792 195.21986731 -218.16796875 192.58203125 C-218.64550324 191.16873509 -219.1208183 189.75468679 -219.59375 188.33984375 C-219.81071533 187.71480957 -220.02768066 187.08977539 -220.2512207 186.44580078 C-226.56367971 165.66952157 -221.73071973 141.37867011 -212.12890625 122.51171875 C-201.45027903 102.73613653 -183.1161322 88.03952534 -161.8203125 81.0625 C-152.91752705 78.45703125 -152.91752705 78.45703125 -148.85546875 78.45703125 C-148.78070313 77.83699219 -148.7059375 77.21695313 -148.62890625 76.578125 C-145.45572558 55.20581992 -132.90813357 35.56726233 -115.9074707 22.42138672 C-108.15923933 16.73391302 -99.87887225 12.70341782 -90.85546875 9.45703125 C-89.64890625 9.02261719 -88.44234375 8.58820312 -87.19921875 8.140625 C-72.03881444 3.57020899 -54.75544196 3.87072242 -39.39233398 7.2890625 C-36.83008499 7.68889056 -36.83008499 7.68889056 -34.77416992 6.30175781 C-33.65914901 5.28147724 -32.58109973 4.21989035 -31.53515625 3.12890625 C-23.6675219 -4.70213445 -9.45779964 -4.96578348 0 0 Z M-25.85546875 21.45703125 C-28.9209474 24.44587293 -30.13388263 25.36841541 -34.41796875 25.89453125 C-37.80873368 25.73841868 -40.73953373 24.93164336 -43.98046875 23.95703125 C-62.01262287 19.18045303 -81.22322315 22.2252863 -97.42773438 31.04541016 C-114.16668332 40.81568896 -126.25915513 56.9040501 -131.296875 75.5390625 C-131.95813771 78.08582077 -132.58866127 80.63292588 -133.1706543 83.19897461 C-133.35023682 83.96991455 -133.52981934 84.74085449 -133.71484375 85.53515625 C-133.86405273 86.2199707 -134.01326172 86.90478516 -134.16699219 87.61035156 C-135.02353608 89.90783314 -135.92293754 90.94957987 -137.85546875 92.45703125 C-139.97753906 93.22143555 -139.97753906 93.22143555 -142.43359375 93.78125 C-143.34012695 94.00079346 -144.24666016 94.22033691 -145.18066406 94.4465332 C-146.14584961 94.67687256 -147.11103516 94.90721191 -148.10546875 95.14453125 C-162.72216896 98.90355384 -174.21580111 104.45956948 -184.85546875 115.45703125 C-185.57347656 116.18921875 -186.29148438 116.92140625 -187.03125 117.67578125 C-201.30096617 132.93980909 -205.44389602 150.8420825 -205.21484375 171.2109375 C-204.89494646 180.14772906 -202.39580659 187.89045203 -198.69140625 196.0078125 C-197.26672656 200.18199083 -197.28451808 203.22141764 -199.140625 207.23828125 C-207.75730498 220.41896096 -207.75730498 220.41896096 -215.109375 222.28125 C-219.44407806 222.48465108 -222.4400555 221.40848574 -226.29296875 219.64453125 C-244.50939151 211.87618716 -262.63745323 212.15044888 -281.1953125 218.86328125 C-299.37905678 226.78106958 -312.15766933 240.23861357 -320.08984375 258.26171875 C-321.62187005 262.23320232 -322.81617958 266.24800891 -323.875 270.3671875 C-324.0493457 271.04402588 -324.22369141 271.72086426 -324.40332031 272.41821289 C-324.89463452 274.36459095 -325.36199096 276.31696979 -325.828125 278.26953125 C-326.85791612 281.46462462 -327.3403979 282.41740524 -329.85546875 284.45703125 C-331.86987305 285.22143555 -331.86987305 285.22143555 -334.1796875 285.78125 C-335.03570557 286.00063232 -335.89172363 286.22001465 -336.77368164 286.44604492 C-337.68754639 286.67654541 -338.60141113 286.9070459 -339.54296875 287.14453125 C-355.33884608 291.4389635 -367.57885302 297.48932248 -378.85546875 309.45703125 C-379.60441406 310.24851562 -380.35335937 311.04 -381.125 311.85546875 C-394.53907118 327.29575719 -397.87333719 346.09240561 -397.04589844 365.95800781 C-396.72637499 370.15113859 -395.73664212 374.04048266 -394.55078125 378.05859375 C-393.42388787 381.94574283 -393.18109359 384.41078031 -393.85546875 388.45703125 C-395.89154087 391.43325689 -398.29426233 393.92873112 -400.85546875 396.45703125 C-403.90509685 399.58485494 -404.75926903 400.92356006 -405.54296875 405.26953125 C-405.22230372 410.80358909 -401.64037918 413.7655754 -397.85546875 417.45703125 C-396.99050781 418.34519531 -396.12554687 419.23335938 -395.234375 420.1484375 C-389.72671449 426.23738317 -389.72671449 426.23738317 -382.35546875 429.01953125 C-377.01907132 429.02921618 -374.12614051 425.73474661 -370.4453125 422.20703125 C-366.94475291 419.84164558 -365.02089322 419.91081887 -360.85546875 420.45703125 C-358.19542214 421.45131535 -355.77116888 422.76539906 -353.29296875 424.14453125 C-338.98395398 431.67113282 -324.21532222 436.25608414 -308.046875 437.05078125 C-307.21912567 437.09221252 -306.39137634 437.1336438 -305.5385437 437.17633057 C-296.84081641 437.56716782 -288.18021999 437.45918523 -279.48046875 437.20703125 C-278.64373627 437.18469421 -277.80700378 437.16235718 -276.94491577 437.13934326 C-249.83140053 436.39692411 -222.73007578 434.53302032 -195.73046875 431.95703125 C-194.54557861 431.85084473 -193.36068848 431.7446582 -192.13989258 431.63525391 C-191.07407959 431.52487793 -190.0082666 431.41450195 -188.91015625 431.30078125 C-187.54093018 431.16446289 -187.54093018 431.16446289 -186.14404297 431.02539062 C-183.31824133 430.32361271 -182.43565726 429.92139852 -180.85546875 427.45703125 C-180.33655223 424.70859149 -179.99250343 422.12988877 -179.7578125 419.35546875 C-179.67856033 418.54067551 -179.59930817 417.72588226 -179.51765442 416.88639832 C-179.26130722 414.20275323 -179.02588937 411.51780469 -178.79296875 408.83203125 C-178.62232727 406.9439058 -178.45142594 405.05580381 -178.28027344 403.16772461 C-177.85847869 398.44886754 -177.45885203 393.7284328 -177.06829834 389.00689697 C-176.87953383 386.74534978 -176.68323075 384.48466775 -176.48291016 382.22412109 C-174.79111076 362.61290393 -174.62795689 343.00632624 -174.54296875 323.33203125 C-174.53334106 322.06360382 -174.52371338 320.79517639 -174.51379395 319.48831177 C-174.31945039 299.76348029 -174.31945039 299.76348029 -177.85546875 280.45703125 C-178.07017822 279.66296875 -178.2848877 278.86890625 -178.50610352 278.05078125 C-180.20683462 272.17109093 -182.21152872 266.38725215 -185.16796875 261.01953125 C-187.08291627 256.97686427 -188.05773638 253.79173769 -186.85546875 249.45703125 C-183.07562708 242.85658265 -176.73468998 235.89664186 -169.85546875 232.45703125 C-163.88721398 232.03208644 -160.00769133 232.91837033 -154.66796875 235.64453125 C-148.43261198 238.56909887 -142.23157946 240.69086455 -135.54296875 242.33203125 C-134.76348877 242.53465576 -133.98400879 242.73728027 -133.1809082 242.94604492 C-118.38359528 246.37835787 -102.56727203 245.64430783 -87.48046875 245.20703125 C-86.64373627 245.18469421 -85.80700378 245.16235718 -84.94491577 245.13934326 C-57.83140053 244.39692411 -30.73007578 242.53302032 -3.73046875 239.95703125 C-2.54557861 239.85084473 -1.36068848 239.7446582 -0.13989258 239.63525391 C0.92592041 239.52487793 1.9917334 239.41450195 3.08984375 239.30078125 C4.00266113 239.20990234 4.91547852 239.11902344 5.85595703 239.02539062 C8.68175867 238.32361271 9.56434274 237.92139852 11.14453125 235.45703125 C11.66344777 232.70859149 12.00749657 230.12988877 12.2421875 227.35546875 C12.32143967 226.54067551 12.40069183 225.72588226 12.48234558 224.88639832 C12.73869278 222.20275323 12.97411063 219.51780469 13.20703125 216.83203125 C13.37767273 214.9439058 13.54857406 213.05580381 13.71972656 211.16772461 C14.14152131 206.44886754 14.54114797 201.7284328 14.93170166 197.00689697 C15.12046617 194.74534978 15.31676925 192.48466775 15.51708984 190.22412109 C17.20888924 170.61290393 17.37204311 151.00632624 17.45703125 131.33203125 C17.47147278 129.42939011 17.47147278 129.42939011 17.48620605 127.48831177 C17.69335206 107.76133773 17.69335206 107.76133773 14.14453125 88.45703125 C13.91483643 87.62768066 13.6851416 86.79833008 13.44848633 85.94384766 C12.82860373 83.87544294 12.1405284 81.85791034 11.39453125 79.83203125 C11.01917236 78.77846436 11.01917236 78.77846436 10.63623047 77.70361328 C8.48670431 71.89290769 5.70465933 66.67420997 2.46484375 61.38671875 C0.82747004 57.75349307 0.63377844 55.40416482 1.14453125 51.45703125 C2.89453125 48.8671875 2.89453125 48.8671875 5.14453125 46.51953125 C8.72165571 42.42844117 8.72165571 42.42844117 10.08203125 37.33203125 C8.77050975 31.91107574 6.06838658 29.28400126 2.14453125 25.45703125 C1.27957031 24.56886719 0.41460937 23.68070313 -0.4765625 22.765625 C-6.01842693 16.6161171 -6.01842693 16.6161171 -13.48046875 13.95703125 C-19.12151162 13.99798256 -22.09535763 17.64798159 -25.85546875 21.45703125 Z M34.14453125 133.45703125 C33.97368059 137.68603944 33.80864573 141.91525672 33.64453125 146.14453125 C33.59683594 147.32337891 33.54914063 148.50222656 33.5 149.71679688 C33.19630104 157.63466274 33.08502498 165.53360567 33.14453125 173.45703125 C35.85347892 173.53848068 38.55994388 173.59773739 41.26953125 173.64453125 C42.03007812 173.66966797 42.790625 173.69480469 43.57421875 173.72070312 C48.48212105 173.78416738 51.98923179 173.36826689 56.14453125 170.45703125 C58.90414214 164.9779321 58.47500505 159.51918551 58.45703125 153.51953125 C58.47314453 152.44767578 58.48925781 151.37582031 58.50585938 150.27148438 C58.56939191 142.39196782 58.56939191 142.39196782 55.14453125 135.45703125 C51.02945 132.86193496 46.54726618 133.22247262 41.83203125 133.33203125 C40.72118164 133.34556641 40.72118164 133.34556641 39.58789062 133.359375 C37.77329658 133.38278912 35.95887054 133.4186551 34.14453125 133.45703125 Z M-273.16796875 452.95703125 C-274.39708984 453.00472656 -275.62621094 453.05242187 -276.89257812 453.1015625 C-279.88030363 453.21781641 -282.86791998 453.33633518 -285.85546875 453.45703125 C-285.93699219 455.99935467 -285.99620591 458.53902327 -286.04296875 461.08203125 C-286.06810547 461.79488281 -286.09324219 462.50773437 -286.11914062 463.2421875 C-286.1849804 468.02654416 -285.66577599 471.39702123 -282.85546875 475.45703125 C-277.37947735 478.21979452 -271.91559307 477.78749897 -265.91796875 477.76953125 C-264.84611328 477.78564453 -263.77425781 477.80175781 -262.66992188 477.81835938 C-254.79040532 477.88189191 -254.79040532 477.88189191 -247.85546875 474.45703125 C-245.15422673 470.23537587 -245.62490402 465.48832836 -245.73046875 460.64453125 C-245.73949219 459.85626953 -245.74851563 459.06800781 -245.7578125 458.25585938 C-245.78124371 456.32278459 -245.81711037 454.38986745 -245.85546875 452.45703125 C-254.97348822 452.38855337 -264.05778613 452.58843994 -273.16796875 452.95703125 Z " fill="#000000" transform="translate(429.85546875,10.54296875)"/>
<path d="M0 0 C1.50292321 1.13589918 2.98136883 2.30470624 4.4375 3.5 C5.4171875 4.26570312 6.396875 5.03140625 7.40625 5.8203125 C10.55903032 8.46782997 13.01447281 11.51670455 15.375 14.875 C15.80248535 15.48150391 16.2299707 16.08800781 16.67041016 16.71289062 C27.464603 32.49742459 32.56447492 50.13600975 32.640625 69.19140625 C32.64745804 70.34937714 32.65429108 71.50734802 32.66133118 72.70040894 C32.67850895 76.48780188 32.68467545 80.27507023 32.6875 84.0625 C32.69050613 85.99659225 32.69050613 85.99659225 32.693573 87.96975708 C32.70252992 111.56173588 31.63999327 134.98201968 29.60955811 158.48458862 C29.4519881 160.33029295 29.30574175 162.17695493 29.16064453 164.02368164 C29.04052002 165.49695923 29.04052002 165.49695923 28.91796875 167 C28.85375732 167.80308594 28.7895459 168.60617187 28.72338867 169.43359375 C28.28163056 172.62662591 27.3087761 174.89357972 25.4375 177.5 C21.3090508 179.64778392 17.12548827 179.98590835 12.55859375 180.31640625 C11.7918483 180.37779282 11.02510284 180.43917938 10.23512268 180.50242615 C8.60731559 180.63123712 6.97920304 180.7562372 5.35083008 180.87768555 C2.93434201 181.05807027 0.51895891 181.24953823 -1.89648438 181.44335938 C-21.76068265 183.01015848 -41.56281057 183.73139956 -61.49047852 183.79516602 C-64.00225429 183.80674703 -66.51400431 183.82729371 -69.02563477 183.85668945 C-95.33967704 184.16272633 -117.00236173 180.53783292 -138.5625 164.5 C-139.23796875 164.00886719 -139.9134375 163.51773438 -140.609375 163.01171875 C-150.95741883 154.88438344 -158.29373714 140.88727282 -159.88378906 127.86962891 C-160.03473215 125.17614441 -160.08143979 122.51010116 -160.0625 119.8125 C-160.05677979 118.85569336 -160.05105957 117.89888672 -160.04516602 116.91308594 C-159.72159215 103.93091038 -155.78693557 93.66072459 -147.5625 83.5 C-146.799375 82.448125 -146.03625 81.39625 -145.25 80.3125 C-135.15781315 69.75090911 -122.07980678 65.20454037 -108.125 62.1875 C-106.96806641 61.92388672 -105.81113281 61.66027344 -104.61914062 61.38867188 C-100.14600229 60.38916041 -96.16139067 59.5 -91.5625 59.5 C-91.45164062 58.25734375 -91.34078125 57.0146875 -91.2265625 55.734375 C-89.5928599 41.17336018 -85.97505718 25.66183433 -77.5625 13.5 C-77.05332031 12.76265625 -76.54414063 12.0253125 -76.01953125 11.265625 C-58.33972199 -11.25976161 -23.39507787 -15.8393342 0 0 Z M-63.10131836 23.47167969 C-69.6295794 32.53380044 -71.47551896 42.73024526 -73.6875 53.4375 C-74.18628287 55.83768171 -74.68916539 58.23659186 -75.20602417 60.63294983 C-75.52515411 62.1131232 -75.83402783 63.59555618 -76.13113403 65.08030701 C-76.6980255 67.71457175 -77.28575624 70.04964789 -78.7043457 72.3581543 C-81.63682238 74.16017682 -84.82945598 74.70069742 -88.16015625 75.3671875 C-89.69988303 75.69915734 -91.23959612 76.0311907 -92.77929688 76.36328125 C-95.19182428 76.8693581 -97.60522725 77.3709152 -100.01928711 77.86962891 C-114.03876197 80.79053341 -125.79262518 84.2671663 -135.5625 95.5 C-142.4035383 106.54557096 -144.51630947 117.91927163 -141.9140625 130.6796875 C-137.19297057 144.9236657 -126.35860399 153.17812567 -113.453125 159.671875 C-96.36367038 167.90634234 -77.79616393 167.87235294 -59.25 167.3125 C-57.85589401 167.27624512 -57.85589401 167.27624512 -56.43362427 167.23925781 C-41.26707418 166.84281821 -26.13557838 166.03487773 -11 165 C-10.03685883 164.9344693 -9.07371765 164.8689386 -8.08139038 164.80142212 C-5.36496284 164.61345171 -2.64920178 164.41818197 0.06640625 164.21875 C0.87370178 164.16144211 1.68099731 164.10413422 2.51275635 164.04508972 C5.67026624 163.80293951 8.41995991 163.5058467 11.4375 162.5 C15.16315777 138.40212845 15.65287654 113.96582637 15.78997803 89.62991333 C15.80485547 87.19079859 15.82609726 84.75171339 15.85406494 82.31271362 C16.02712366 65.68781513 15.58459162 51.02234793 7.5625 36.0625 C7.21445313 35.39420166 6.86640625 34.72590332 6.5078125 34.03735352 C0.54652487 22.82569467 -6.94543033 14.02386714 -19.0859375 9.3828125 C-35.65899561 5.17437302 -52.38876684 9.82309553 -63.10131836 23.47167969 Z " fill="#000000" transform="translate(207.5625,248.5)"/>
<path d="M0 0 C1.50292321 1.13589918 2.98136883 2.30470624 4.4375 3.5 C5.4171875 4.26570313 6.396875 5.03140625 7.40625 5.8203125 C10.55903032 8.46782997 13.01447281 11.51670455 15.375 14.875 C15.80248535 15.48150391 16.2299707 16.08800781 16.67041016 16.71289062 C27.464603 32.49742459 32.56447492 50.13600975 32.640625 69.19140625 C32.64745804 70.34937714 32.65429108 71.50734802 32.66133118 72.70040894 C32.67850895 76.48780188 32.68467545 80.27507023 32.6875 84.0625 C32.69050613 85.99659225 32.69050613 85.99659225 32.693573 87.96975708 C32.70252992 111.56173588 31.63999327 134.98201968 29.60955811 158.48458862 C29.4519881 160.33029295 29.30574175 162.17695493 29.16064453 164.02368164 C29.04052002 165.49695923 29.04052002 165.49695923 28.91796875 167 C28.85375732 167.80308594 28.7895459 168.60617188 28.72338867 169.43359375 C28.28163056 172.62662591 27.3087761 174.89357972 25.4375 177.5 C21.24125621 179.69954169 16.95117293 179.9914252 12.3046875 180.31640625 C11.51337433 180.37779282 10.72206116 180.43917938 9.9067688 180.50242615 C7.37584846 180.69659072 4.84424569 180.87945019 2.3125 181.0625 C0.6653121 181.18877036 -0.98182404 181.31571786 -2.62890625 181.44335938 C-7.60496706 181.82358 -12.58296973 182.16861018 -17.5625 182.5 C-18.31001526 182.55092804 -19.05753052 182.60185608 -19.82769775 182.65432739 C-33.68037035 183.5747116 -47.53470196 183.75089782 -61.41503906 183.79516602 C-63.93365066 183.80673872 -66.45223674 183.82727267 -68.97070312 183.85668945 C-95.30766282 184.16249613 -116.98266068 180.55248784 -138.5625 164.5 C-139.23796875 164.00886719 -139.9134375 163.51773438 -140.609375 163.01171875 C-150.95741883 154.88438344 -158.29373714 140.88727282 -159.88378906 127.86962891 C-160.03473215 125.17614441 -160.08143979 122.51010116 -160.0625 119.8125 C-160.05677979 118.85569336 -160.05105957 117.89888672 -160.04516602 116.91308594 C-159.72159215 103.93091038 -155.78693557 93.66072459 -147.5625 83.5 C-146.799375 82.448125 -146.03625 81.39625 -145.25 80.3125 C-135.15781315 69.75090911 -122.07980678 65.20454037 -108.125 62.1875 C-106.96806641 61.92388672 -105.81113281 61.66027344 -104.61914062 61.38867188 C-100.14600229 60.38916041 -96.16139067 59.5 -91.5625 59.5 C-91.45164062 58.25734375 -91.34078125 57.0146875 -91.2265625 55.734375 C-89.5928599 41.17336018 -85.97505718 25.66183433 -77.5625 13.5 C-77.05332031 12.76265625 -76.54414063 12.0253125 -76.01953125 11.265625 C-58.33972199 -11.25976161 -23.39507787 -15.8393342 0 0 Z M-63.10131836 23.47167969 C-69.6295794 32.53380044 -71.47551896 42.73024526 -73.6875 53.4375 C-74.18628287 55.83768171 -74.68916539 58.23659186 -75.20602417 60.63294983 C-75.52515411 62.1131232 -75.83402783 63.59555618 -76.13113403 65.08030701 C-76.6980255 67.71457175 -77.28575624 70.04964789 -78.7043457 72.3581543 C-81.63682238 74.16017682 -84.82945598 74.70069742 -88.16015625 75.3671875 C-89.69988303 75.69915734 -91.23959612 76.0311907 -92.77929688 76.36328125 C-95.19182428 76.8693581 -97.60522725 77.3709152 -100.01928711 77.86962891 C-114.03876197 80.79053341 -125.79262518 84.2671663 -135.5625 95.5 C-142.4035383 106.54557096 -144.51630947 117.91927163 -141.9140625 130.6796875 C-137.19297057 144.9236657 -126.35860399 153.17812567 -113.453125 159.671875 C-96.36367038 167.90634234 -77.79616393 167.87235294 -59.25 167.3125 C-57.85589401 167.27624512 -57.85589401 167.27624512 -56.43362427 167.23925781 C-41.26707418 166.84281821 -26.13557838 166.03487773 -11 165 C-10.03685883 164.9344693 -9.07371765 164.8689386 -8.08139038 164.80142212 C-5.36496284 164.61345171 -2.64920178 164.41818197 0.06640625 164.21875 C0.87370178 164.16144211 1.68099731 164.10413422 2.51275635 164.04508972 C5.67026624 163.80293951 8.41995991 163.5058467 11.4375 162.5 C15.16315777 138.40212845 15.65287654 113.96582637 15.78997803 89.62991333 C15.80485547 87.19079859 15.82609726 84.75171339 15.85406494 82.31271362 C16.02712366 65.68781513 15.58459162 51.02234793 7.5625 36.0625 C7.21445312 35.39420166 6.86640625 34.72590332 6.5078125 34.03735352 C0.54652487 22.82569467 -6.94543033 14.02386714 -19.0859375 9.3828125 C-35.65899561 5.17437302 -52.38876684 9.82309553 -63.10131836 23.47167969 Z " fill="#000000" transform="translate(399.5625,56.5)"/>
<path d="M0 0 C5.28 0 10.56 0 16 0 C16 15.84 16 31.68 16 48 C10.72 48 5.44 48 0 48 C0 32.16 0 16.32 0 0 Z " fill="#000000" transform="translate(184,328)"/>
<path d="M0 0 C5.28 0 10.56 0 16 0 C16 15.84 16 31.68 16 48 C10.72 48 5.44 48 0 48 C0 32.16 0 16.32 0 0 Z " fill="#000000" transform="translate(376,136)"/>
<path d="M0 0 C5.28 0 10.56 0 16 0 C16 5.28 16 10.56 16 16 C10.72 16 5.44 16 0 16 C0 10.72 0 5.44 0 0 Z " fill="#000000" transform="translate(184,296)"/>
<path d="M0 0 C5.28 0 10.56 0 16 0 C16 5.28 16 10.56 16 16 C10.72 16 5.44 16 0 16 C0 10.72 0 5.44 0 0 Z " fill="#000000" transform="translate(376,104)"/>
</svg>
