<?xml version="1.0" encoding="UTF-8"?>
<svg version="1.1" xmlns="http://www.w3.org/2000/svg" width="512" height="512">
<path d="M0 0 C0.68666245 -0.0071553 1.37332489 -0.01431061 2.08079529 -0.02168274 C4.34556059 -0.03856121 6.60834372 -0.01917572 8.87304688 0.00219727 C10.44958663 0.00136847 12.02612629 -0.00109131 13.60266113 -0.00511169 C16.90480599 -0.00796907 20.20627234 0.00672451 23.50830078 0.03417969 C27.73884176 0.06826331 31.96816956 0.06224423 36.19876862 0.04351711 C39.45365491 0.03294315 42.70825941 0.04188835 45.96311951 0.05690193 C47.52281355 0.06208136 49.08253705 0.06160481 50.64222717 0.05535698 C52.82332521 0.04989959 55.00269297 0.07029244 57.18359375 0.09765625 C58.42395386 0.10385483 59.66431396 0.11005341 60.94226074 0.11643982 C64.65931919 0.72384198 65.81242604 1.69888882 68.09179688 4.63110352 C69.28431269 7.27167425 69.16049503 8.37504677 68.40429688 11.19360352 C67.09179688 13.63110352 67.09179688 13.63110352 63.09179688 16.63110352 C43.95179688 16.63110352 24.81179687 16.63110352 5.09179688 16.63110352 C5.09179688 74.05110352 5.09179688 131.47110352 5.09179688 190.63110352 C25.48734375 190.56149414 25.48734375 190.56149414 46.29492188 190.49047852 C54.88997698 190.47004931 63.48501457 190.45062891 72.08007812 190.43579102 C85.73362213 190.41203167 99.38706761 190.38406025 113.04052734 190.3293457 C122.98309042 190.28952105 132.92557376 190.26368094 142.86821437 190.25474954 C148.1345257 190.24952739 153.4006089 190.23722418 158.66684723 190.20818329 C163.62114779 190.1810833 168.57512569 190.17264756 173.52949333 190.17867279 C175.35002075 190.17757012 177.17055868 190.16958407 178.99102211 190.15428162 C181.47295002 190.13443808 183.95365284 190.13914314 186.43560791 190.15008545 C187.5212147 190.1326084 187.5212147 190.1326084 188.62875295 190.11477828 C192.05501113 190.15573029 193.79804859 190.40272257 196.53930283 192.53396988 C199.14265006 196.0506127 198.56831045 198.34248138 198.09179688 202.63110352 C196.28016421 205.30541841 195.21418611 205.59030711 192.09179688 206.63110352 C190.70078871 206.72028755 189.30587902 206.75486651 187.91201496 206.75415134 C187.0560933 206.75614239 186.20017163 206.75813344 185.31831294 206.76018482 C184.37766008 206.75727198 183.43700722 206.75435914 182.46784973 206.75135803 C181.46889968 206.75221246 180.46994963 206.75306688 179.44072837 206.7539472 C176.078062 206.75560033 172.71544501 206.75008331 169.3527832 206.74462891 C166.94843039 206.74434697 164.54407749 206.74450489 162.13972473 206.74507141 C156.9554121 206.74529947 151.77111073 206.74245462 146.58680153 206.73683357 C139.09113087 206.72871174 131.59546631 206.72610265 124.09979173 206.72484558 C111.93900158 206.72265614 99.77821814 206.71599897 87.61743164 206.70654297 C75.80330438 206.69736607 63.98917893 206.69028659 52.17504883 206.68603516 C51.44701008 206.68577243 50.71897133 206.68550971 49.9688708 206.68523902 C46.31656932 206.683934 42.66426784 206.68267029 39.01196635 206.68142712 C8.70523825 206.67105786 -21.60148115 206.65316755 -51.90820312 206.63110352 C-51.90820312 220.49110352 -51.90820312 234.35110352 -51.90820312 248.63110352 C-47.20183594 248.59629883 -42.49546875 248.56149414 -37.64648438 248.52563477 C-34.66144589 248.51030262 -31.67645609 248.49586056 -28.69140625 248.48461914 C-23.95538221 248.46669909 -19.2195325 248.44552005 -14.48364258 248.40478516 C-10.66460957 248.37214274 -6.84576356 248.35424027 -3.02660179 248.34647179 C-1.57096603 248.340937 -0.11534028 248.3301288 1.34021568 248.31391335 C3.3822259 248.2920733 5.42346758 248.28913921 7.46557617 248.29052734 C8.62695602 248.28386551 9.78833588 248.27720367 10.98490906 248.27033997 C14.44439773 248.67204659 16.31799742 249.56051083 19.09179688 251.63110352 C20.53610542 254.51972061 20.46868193 256.42758053 20.09179688 259.63110352 C17.3445325 263.27125441 15.8479547 264.50357492 11.30155945 265.27033997 C9.80577845 265.30238133 8.30926208 265.30734097 6.81323242 265.29052734 C5.99320236 265.30101105 5.1731723 265.31149475 4.32829285 265.32229614 C1.62798053 265.35101111 -1.07104695 265.34475903 -3.77148438 265.33813477 C-5.64765528 265.35125199 -7.52381206 265.3665563 -9.39994812 265.38395691 C-14.33028611 265.42381696 -19.26025475 265.43399801 -24.19073486 265.43798828 C-29.22492687 265.44731781 -34.2589017 265.48473024 -39.29296875 265.51977539 C-49.16470339 265.58436149 -59.0362757 265.61759321 -68.90820312 265.63110352 C-69.61075643 268.00108437 -70.31324595 270.37108404 -71.01556396 272.74113464 C-71.65032325 274.88203414 -72.28572032 277.02274462 -72.92169189 279.1632843 C-74.72105028 285.22361207 -76.50778481 291.28725327 -78.27368164 297.35742188 C-84.61159338 319.06653938 -84.61159338 319.06653938 -87.78430176 327.91983032 C-99.96954106 362.28762428 -98.25866666 385.00937895 -98.90820312 424.63110352 C60.15179688 424.63110352 219.21179688 424.63110352 383.09179688 424.63110352 C383.2627082 373.51156867 383.2627082 373.51156867 372.23278809 326.53790283 C370.91989835 322.73407943 369.70373633 318.89941961 368.47851562 315.06665039 C367.08478651 310.7240465 365.68636715 306.38453917 364.21347046 302.06803894 C361.39367319 293.80178487 358.84389441 285.48631865 356.41690063 277.09675598 C355.93503784 275.43758455 355.93503784 275.43758455 355.44344044 273.7448945 C354.65826829 271.04066908 353.87441816 268.33606806 353.09179688 265.63110352 C352.43736516 265.63088615 351.78293345 265.63066878 351.10867047 265.63044482 C312.34557541 265.61693711 273.58258465 265.57749598 234.8195544 265.50424789 C230.16811474 265.49548085 225.51667469 265.4869311 220.86523438 265.47851562 C219.93919304 265.47683656 219.0131517 265.4751575 218.0590485 265.47342756 C203.05293723 265.44673756 188.04686415 265.43766105 173.04073158 265.43506209 C157.64988982 265.43200563 142.25915874 265.41009465 126.86836696 265.37057894 C117.36680499 265.34678112 107.86546377 265.33779538 98.36387607 265.34759041 C91.85355483 265.3528948 85.34343189 265.33993107 78.83316711 265.31244061 C75.07363345 265.29711 71.31454342 265.28998859 67.55499649 265.3045063 C63.48347184 265.32001885 59.41307924 265.29714162 55.34161377 265.27033997 C54.14707116 265.28101322 52.95252856 265.29168648 51.72178769 265.30268317 C43.76014236 265.20432685 43.76014236 265.20432685 40.35352707 262.28255749 C38.82449401 259.0693818 38.5677987 257.14937697 39.09179688 253.63110352 C40.87164092 250.49518781 41.61487894 249.79007616 45.09179688 248.63110352 C46.72772706 248.54033718 48.36714912 248.50735098 50.00559521 248.50805569 C51.02523647 248.50606464 52.04487772 248.50407359 53.0954172 248.50202221 C54.21894463 248.50493505 55.34247206 248.50784789 56.50004578 248.510849 C57.69092279 248.50999457 58.8817998 248.50914015 60.10876399 248.50825983 C63.41986586 248.50689463 66.73090897 248.51003085 70.04200375 248.51503789 C73.61049152 248.51934777 77.1789774 248.51789559 80.74746704 248.51713562 C86.93198262 248.51661073 93.11648767 248.51975392 99.3010006 248.52537346 C108.24281836 248.53349313 117.18463102 248.53610416 126.12645207 248.53736145 C140.63321377 248.53955123 155.13996986 248.54620933 169.64672852 248.55566406 C183.74047823 248.56484008 197.83422642 248.57191999 211.92797852 248.57617188 C212.79640606 248.5764346 213.6648336 248.57669732 214.55957713 248.57696801 C218.91612995 248.57827302 223.27268279 248.57953674 227.62923563 248.58077991 C263.78342683 248.59115023 299.93761105 248.60904135 336.09179688 248.63110352 C336.09179688 234.77110352 336.09179688 220.91110352 336.09179688 206.63110352 C332.72516846 206.64681396 329.35854004 206.66252441 325.88989258 206.67871094 C314.77392312 206.72839187 303.6579488 206.76154657 292.54189777 206.78654003 C285.80139313 206.80200346 279.06099373 206.82308283 272.32055664 206.85742188 C265.81723105 206.89053714 259.31397379 206.90795075 252.81056786 206.91573524 C250.32782456 206.92128376 247.84508733 206.93211846 245.36239052 206.94829369 C241.88835273 206.97003011 238.41476854 206.97307196 234.94067383 206.97167969 C233.39671432 206.98785843 233.39671432 206.98785843 231.82156372 207.00436401 C226.24384671 206.98013198 222.24516101 206.78446765 218.09179688 202.63110352 C217.62518729 196.93846653 217.62518729 196.93846653 218.09179688 194.63110352 C219.41179687 193.31110352 220.73179687 191.99110352 222.09179688 190.63110352 C241.23179687 190.63110352 260.37179687 190.63110352 280.09179688 190.63110352 C280.09179688 133.21110352 280.09179688 75.79110352 280.09179688 16.63110352 C266.65074219 16.67750977 253.2096875 16.72391602 239.36132812 16.77172852 C230.86197611 16.7921591 222.36264182 16.81157966 213.86328125 16.82641602 C200.36346372 16.85016999 186.86374589 16.87812647 173.36401367 16.93286133 C163.53314236 16.97270178 153.70235177 16.99852986 143.87140197 17.00745749 C138.66486125 17.01267696 133.4585515 17.02496318 128.25208473 17.05402374 C123.35277208 17.08114865 118.45378582 17.0895544 113.55440521 17.08353424 C111.75526087 17.08463579 109.95610576 17.09260706 108.15702629 17.10792542 C105.70171961 17.12780793 103.24764747 17.12304961 100.79231262 17.11212158 C100.0792695 17.12377295 99.36622637 17.13542431 98.63157588 17.14742875 C93.86651228 17.09004631 91.4253994 16.0244963 88.09179688 12.63110352 C87.46289062 10.63110352 87.46289062 10.63110352 87.52929688 8.63110352 C87.52800781 7.97110352 87.52671875 7.31110352 87.52539062 6.63110352 C88.37328804 3.63714849 89.62836412 2.53510376 92.09179688 0.63110352 C94.90456513 0.23612283 97.326704 0.08610141 100.13867188 0.11643982 C101.36463074 0.10602153 101.36463074 0.10602153 102.61535645 0.09539276 C105.35777972 0.07707621 108.09934248 0.08739978 110.84179688 0.09765625 C112.80632171 0.09060017 114.7708411 0.08185647 116.73535156 0.07154846 C122.07414476 0.04901109 127.41264213 0.0520042 132.75146484 0.06086993 C137.20501731 0.06597279 141.65851384 0.05869306 146.11206055 0.05139786 C156.6157722 0.03438537 167.11933862 0.03797873 177.62304688 0.0546875 C188.46816632 0.07161597 199.31288348 0.05576721 210.15795898 0.02346462 C219.46251408 -0.00320203 228.76694372 -0.01051536 238.0715332 -0.0020203 C243.63176399 0.00291675 249.19175258 0.00065108 254.75195312 -0.01980782 C259.97892304 -0.0381193 265.20531255 -0.0322617 270.43225098 -0.00760841 C272.35273954 -0.00258637 274.27327199 -0.00612622 276.19372559 -0.01875687 C278.81146459 -0.03461419 281.42727511 -0.0198073 284.04492188 0.00291443 C284.80873169 -0.0089213 285.5725415 -0.02075703 286.35949707 -0.03295141 C290.05693705 0.03245912 291.76915287 0.34308772 294.56466293 2.83856583 C296.21825714 5.86235045 296.58666082 7.52342414 296.57281494 10.93989563 C296.58106293 12.51523827 296.58106293 12.51523827 296.58947754 14.12240601 C296.56790588 15.8346788 296.56790588 15.8346788 296.54589844 17.58154297 C296.54648254 18.79171585 296.54706665 20.00188873 296.54766846 21.24873352 C296.54536241 24.55864283 296.52533125 27.86754889 296.49737263 31.17728066 C296.47233323 34.63924965 296.47001499 38.10123263 296.465271 41.5632782 C296.4528486 48.11519408 296.42003723 54.66684236 296.37987304 61.21864051 C296.33513219 68.67927798 296.31316252 76.13992837 296.2930913 83.60066664 C296.25130372 98.94430048 296.1809663 114.28766746 296.09179688 129.63110352 C296.8678125 129.61015625 297.64382813 129.58920898 298.44335938 129.56762695 C301.99270435 129.48397592 305.54184122 129.43228722 309.09179688 129.38110352 C310.31253906 129.34758789 311.53328125 129.31407227 312.79101562 129.27954102 C320.07878925 129.20075427 324.93775403 129.61408509 331.09179688 133.63110352 C335.34872213 138.00005312 337.35173606 142.41238424 337.31884766 148.51318359 C337.31869659 149.45378128 337.31854553 150.39437897 337.31838989 151.36347961 C337.30806732 152.36574081 337.29774475 153.36800201 337.28710938 154.40063477 C337.28286453 155.95484383 337.28286453 155.95484383 337.27853394 157.54045105 C337.26736141 160.84162058 337.24226192 164.14251633 337.21679688 167.44360352 C337.2067633 169.68513605 337.19763811 171.92667285 337.18945312 174.16821289 C337.16743166 179.65593612 337.13398309 185.14350025 337.09179688 190.63110352 C337.85468018 190.60717529 338.61756348 190.58324707 339.40356445 190.55859375 C340.89859497 190.53067749 340.89859497 190.53067749 342.42382812 190.50219727 C343.41358643 190.47826904 344.40334473 190.45434082 345.4230957 190.4296875 C348.09179688 190.63110352 348.09179688 190.63110352 350.77929688 192.69360352 C352.3460421 196.20012854 352.18583475 198.82928658 352.09179688 202.63110352 C352.8584668 202.61015625 353.62513672 202.58920898 354.41503906 202.56762695 C357.89049148 202.48445193 361.3657345 202.43243777 364.84179688 202.38110352 C366.04835938 202.34758789 367.25492187 202.31407227 368.49804688 202.27954102 C369.65820312 202.26665039 370.81835938 202.25375977 372.01367188 202.24047852 C373.08198242 202.21953125 374.15029297 202.19858398 375.25097656 202.17700195 C378.86174058 202.75417805 379.82327377 203.81092074 382.09179688 206.63110352 C382.59973145 209.13525391 382.59973145 209.13525391 382.609375 211.97875977 C382.62198364 213.04666748 382.63459229 214.1145752 382.64758301 215.21484375 C382.63543762 216.93682983 382.63543762 216.93682983 382.62304688 218.69360352 C382.62687378 219.87704346 382.63070068 221.0604834 382.63464355 222.27978516 C382.63736497 224.78134003 382.62998791 227.28292326 382.61328125 229.78442383 C382.59187691 233.616774 382.61307732 237.44724926 382.63867188 241.27954102 C382.63602864 243.70923266 382.63090376 246.13892314 382.62304688 248.56860352 C382.6311438 249.71659424 382.63924072 250.86458496 382.64758301 252.04736328 C382.62867004 253.64922485 382.62867004 253.64922485 382.609375 255.28344727 C382.60619263 256.2218042 382.60301025 257.16016113 382.59973145 258.12695312 C381.93044643 261.42657169 380.75812179 262.62367201 378.09179688 264.63110352 C375.31037644 265.13866199 372.94607398 264.82138866 370.09179688 264.63110352 C370.28209976 265.21364899 370.47240265 265.79619446 370.66847229 266.39639282 C376.55006177 284.4569102 382.01877654 302.62402187 387.39050293 320.84082031 C388.68375334 325.22447705 389.98055373 329.60708479 391.27719212 333.98974037 C392.2815151 337.38438651 393.28521999 340.77921028 394.28684998 344.1746521 C394.6413472 345.37506134 394.99584442 346.57547058 395.36108398 347.81225586 C395.67226669 348.86714203 395.9834494 349.9220282 396.30406189 351.00888062 C396.86984573 352.89226954 397.46992348 354.76548333 398.09179688 356.63110352 C398.20815968 359.17985974 398.26980982 361.70235728 398.28466797 364.25195312 C398.29284546 365.02625168 398.30102295 365.80055023 398.30944824 366.59831238 C398.33425732 369.16001617 398.35080365 371.72166486 398.36523438 374.28344727 C398.37321989 375.59573901 398.37321989 375.59573901 398.38136673 376.9345417 C398.40807442 381.56214649 398.42745988 386.18972448 398.44189453 390.81738281 C398.45525449 394.64998125 398.48314773 398.48204988 398.52392578 402.31445312 C398.57315349 406.94099567 398.59800277 411.56705627 398.60512161 416.19384956 C398.61184607 417.95735498 398.62709913 419.72084915 398.65101242 421.48420525 C398.68255731 423.95033075 398.68271808 426.41458594 398.67529297 428.88085938 C398.69990097 429.97430664 398.69990097 429.97430664 398.7250061 431.08984375 C398.67832006 434.87421074 398.37932367 436.33728999 395.68833923 439.08711243 C393.07588151 440.64056733 391.86515555 441.11273279 388.88476562 441.02172852 C387.75844727 441.00239258 387.75844727 441.00239258 386.609375 440.98266602 C385.45598633 440.93239258 385.45598633 440.93239258 384.27929688 440.88110352 C383.49103516 440.86305664 382.70277344 440.84500977 381.890625 440.82641602 C379.95715427 440.779544 378.02431403 440.70780761 376.09179688 440.63110352 C376.11274414 441.39777344 376.13369141 442.16444336 376.15527344 442.9543457 C376.23844846 446.42979812 376.29046262 449.90504114 376.34179688 453.38110352 C376.39207031 455.19094727 376.39207031 455.19094727 376.44335938 457.03735352 C376.45625 458.19750977 376.46914063 459.35766602 376.48242188 460.55297852 C376.50336914 461.62128906 376.52431641 462.68959961 376.54589844 463.7902832 C376.09179688 466.63110352 376.09179688 466.63110352 374.60253906 468.97558594 C371.02996148 471.33124994 367.67108925 471.22325223 363.52929688 471.19750977 C362.70099365 471.20370834 361.87269043 471.20990692 361.01928711 471.21629333 C359.27100803 471.22338568 357.52266134 471.22022762 355.77441406 471.20751953 C353.10029863 471.19364762 350.42967955 471.22773497 347.75585938 471.26586914 C346.05533769 471.26682033 344.35481162 471.26496154 342.65429688 471.26000977 C341.85628662 471.27326797 341.05827637 471.28652618 340.23608398 471.30018616 C337.97070313 471.26220703 337.97070313 471.26220703 334.09179688 470.63110352 C330.09179688 465.63110352 330.09179688 465.63110352 322.09179688 441.63110352 C203.29179687 441.63110352 84.49179687 441.63110352 -37.90820312 441.63110352 C-40.87820312 450.21110352 -43.84820312 458.79110352 -46.90820312 467.63110352 C-50.2614608 470.98436119 -51.39355493 470.99647473 -55.93919373 471.07359314 C-57.14395103 471.06918968 -57.14395103 471.06918968 -58.37304688 471.06469727 C-59.20276505 471.06993912 -60.03248322 471.07518097 -60.88734436 471.08058167 C-62.64160036 471.08700298 -64.3958994 471.08566342 -66.15014648 471.07714844 C-68.83265013 471.06864489 -71.51301968 471.09738542 -74.1953125 471.12915039 C-75.90038999 471.13076269 -77.60547124 471.13018433 -79.31054688 471.12719727 C-80.11169418 471.13843124 -80.91284149 471.14966522 -81.73826599 471.16123962 C-85.21103131 471.11784898 -87.4875335 470.90750385 -90.42114258 468.97998047 C-92.32696811 465.96964596 -92.36843029 464.10268911 -92.29882812 460.55297852 C-92.27949219 458.81274414 -92.27949219 458.81274414 -92.25976562 457.03735352 C-92.22625 455.83079102 -92.19273438 454.62422852 -92.15820312 453.38110352 C-92.14015625 452.15907227 -92.12210938 450.93704102 -92.10351562 449.67797852 C-92.05638413 446.66156273 -91.99059725 443.6467286 -91.90820312 440.63110352 C-93.07738281 440.67750977 -94.2465625 440.72391602 -95.45117188 440.77172852 C-96.99932333 440.80925946 -98.54750252 440.8456582 -100.09570312 440.88110352 C-100.86462891 440.91461914 -101.63355469 440.94813477 -102.42578125 440.98266602 C-103.17666016 440.99555664 -103.92753906 441.00844727 -104.70117188 441.02172852 C-105.38719482 441.04267578 -106.07321777 441.06362305 -106.7800293 441.08520508 C-110.00514988 440.39704123 -111.57732258 438.93809989 -113.90820312 436.63110352 C-114.6373291 433.53691101 -114.6373291 433.53691101 -114.77734375 429.83300781 C-114.80814026 429.15205709 -114.83893677 428.47110636 -114.8706665 427.76952076 C-114.96333135 425.49812989 -115.01658044 423.22807467 -115.06445312 420.95532227 C-115.08690598 420.16438675 -115.10935883 419.37345123 -115.13249207 418.55854797 C-115.30367968 412.47868264 -115.37048363 406.40058957 -115.40820312 400.31860352 C-115.41634033 399.42393497 -115.42447754 398.52926643 -115.43286133 397.60748672 C-115.71935405 362.55890916 -109.45902877 333.23849739 -97.34570312 300.46850586 C-93.56610985 290.10904242 -90.59779217 279.49571339 -87.59741211 268.88935852 C-86.90820312 266.63110352 -86.90820312 266.63110352 -85.90820312 264.63110352 C-87.14570312 264.71360352 -88.38320312 264.79610352 -89.65820312 264.88110352 C-92.67006919 265.08189459 -93.61373988 264.86793988 -96.00964355 262.94091797 C-98.30865857 260.14390375 -98.41364887 258.86081048 -98.42578125 255.28344727 C-98.43838989 254.21553955 -98.45099854 253.14763184 -98.46398926 252.04736328 C-98.45589233 250.89937256 -98.44779541 249.75138184 -98.43945312 248.56860352 C-98.44328003 247.38516357 -98.44710693 246.20172363 -98.4510498 244.98242188 C-98.45377122 242.480867 -98.44639416 239.97928377 -98.4296875 237.4777832 C-98.40828316 233.64543303 -98.42948357 229.81495777 -98.45507812 225.98266602 C-98.45243489 223.55297437 -98.44731001 221.12328389 -98.43945312 218.69360352 C-98.45159851 216.97161743 -98.45159851 216.97161743 -98.46398926 215.21484375 C-98.45138062 214.14693604 -98.43877197 213.07902832 -98.42578125 211.97875977 C-98.42259888 211.04040283 -98.4194165 210.1020459 -98.4161377 209.13525391 C-97.75425081 205.8721086 -96.49033643 204.67031807 -93.90820312 202.63110352 C-91.06738281 202.17700195 -91.06738281 202.17700195 -87.83007812 202.24047852 C-86.66992188 202.25336914 -85.50976562 202.26625977 -84.31445312 202.27954102 C-82.50460938 202.32981445 -82.50460938 202.32981445 -80.65820312 202.38110352 C-79.43617187 202.39915039 -78.21414062 202.41719727 -76.95507812 202.43579102 C-73.93866234 202.48292251 -70.92382821 202.54870939 -67.90820312 202.63110352 C-67.93527344 201.36266602 -67.96234375 200.09422852 -67.99023438 198.78735352 C-68.05223191 195.88232613 -67.98348353 194.77449477 -66.59570312 192.13110352 C-63.45864726 190.38018861 -61.79210482 190.47490305 -58.24023438 190.53735352 C-57.24354736 190.55088867 -56.24686035 190.56442383 -55.2199707 190.57836914 C-54.07564575 190.60447266 -54.07564575 190.60447266 -52.90820312 190.63110352 C-52.91708557 190.06004883 -52.92596802 189.48899414 -52.93511963 188.90063477 C-53.02395353 182.93052225 -53.08408618 176.96059902 -53.12792969 170.98999023 C-53.14798359 168.76497769 -53.17523377 166.54001745 -53.20996094 164.31518555 C-53.25875247 161.10785987 -53.28123474 157.901234 -53.29882812 154.69360352 C-53.31947327 153.70682617 -53.34011841 152.72004883 -53.36138916 151.70336914 C-53.3633859 145.48844369 -52.48101442 140.80851592 -48.90820312 135.63110352 C-43.86931232 130.72141504 -39.23439013 129.37241688 -32.29492188 129.43579102 C-31.04775391 129.44223633 -29.80058594 129.44868164 -28.515625 129.45532227 C-27.22205078 129.47208008 -25.92847656 129.48883789 -24.59570312 129.50610352 C-23.28279297 129.51512695 -21.96988281 129.52415039 -20.6171875 129.53344727 C-17.38067399 129.55698555 -14.14453164 129.58986832 -10.90820312 129.63110352 C-10.9118903 128.99664968 -10.91557747 128.36219584 -10.91937637 127.70851612 C-11.00772822 112.26817389 -11.07391298 96.82791962 -11.11545181 81.38738728 C-11.13607383 73.92043795 -11.1641873 66.4536574 -11.20996094 58.98681641 C-11.24984003 52.4784206 -11.27563857 45.97014702 -11.2845571 39.46163243 C-11.28977013 36.0156171 -11.30201443 32.56995145 -11.33112335 29.12404823 C-11.36336142 25.27648 -11.36416184 21.42925331 -11.36230469 17.58154297 C-11.37668579 16.44002777 -11.39106689 15.29851257 -11.40588379 14.12240601 C-11.38238391 9.63399347 -11.32998057 6.47841521 -9.31158447 2.42364502 C-6.07178237 0.00726622 -4.02768464 0.00312302 0 0 Z M-36.90820312 146.63110352 C-37.00098643 148.01270466 -37.02567355 149.39898389 -37.02172852 150.78369141 C-37.02165298 151.66452896 -37.02157745 152.54536652 -37.02149963 153.45289612 C-37.01633835 154.41018112 -37.01117706 155.36746613 -37.00585938 156.35375977 C-37.00444443 157.32897079 -37.00302948 158.30418182 -37.00157166 159.3089447 C-36.99595445 162.43719494 -36.98339905 165.56537475 -36.97070312 168.69360352 C-36.96569034 170.80883686 -36.96112705 172.92407132 -36.95703125 175.03930664 C-36.94682843 180.23662152 -36.92725644 185.43378327 -36.90820312 190.63110352 C-28.32820313 190.63110352 -19.74820313 190.63110352 -10.90820312 190.63110352 C-10.90820312 175.78110352 -10.90820312 160.93110352 -10.90820312 145.63110352 C-17.06476563 145.60016602 -17.06476563 145.60016602 -23.34570312 145.56860352 C-24.6417749 145.55949951 -25.93784668 145.55039551 -27.27319336 145.54101562 C-28.28583252 145.53851807 -29.29847168 145.53602051 -30.34179688 145.53344727 C-31.38392334 145.52821045 -32.4260498 145.52297363 -33.49975586 145.51757812 C-35.8594906 145.35804796 -35.8594906 145.35804796 -36.90820312 146.63110352 Z M296.09179688 145.63110352 C296.09179688 160.48110352 296.09179688 175.33110352 296.09179688 190.63110352 C304.34179688 190.63110352 312.59179688 190.63110352 321.09179688 190.63110352 C321.11470201 184.38309266 321.13463027 178.13522636 321.14672852 171.88720703 C321.15176986 169.75992338 321.15860279 167.6326432 321.16723633 165.50537109 C321.17931067 162.45482526 321.18502702 159.40432506 321.18945312 156.35375977 C321.19719505 154.91783226 321.19719505 154.91783226 321.20509338 153.45289612 C321.20516891 152.57205856 321.20524445 151.69122101 321.20532227 150.78369141 C321.20865318 149.61453941 321.20865318 149.61453941 321.21205139 148.42176819 C321.28751074 146.60743816 321.28751074 146.60743816 320.09179688 145.63110352 C318.31108441 145.54384129 316.52696547 145.5241131 314.74414062 145.53344727 C313.28609009 145.5371936 313.28609009 145.5371936 311.79858398 145.54101562 C309.93278687 145.55467163 309.93278687 145.55467163 308.02929688 145.56860352 C304.08992188 145.58922852 300.15054687 145.60985352 296.09179688 145.63110352 Z M-81.90820312 218.63110352 C-81.90820312 228.53110352 -81.90820312 238.43110352 -81.90820312 248.63110352 C-77.28820312 248.63110352 -72.66820312 248.63110352 -67.90820312 248.63110352 C-67.90820312 238.73110352 -67.90820312 228.83110352 -67.90820312 218.63110352 C-72.52820313 218.63110352 -77.14820313 218.63110352 -81.90820312 218.63110352 Z M352.09179688 218.63110352 C352.09179688 228.53110352 352.09179688 238.43110352 352.09179688 248.63110352 C356.71179688 248.63110352 361.33179688 248.63110352 366.09179688 248.63110352 C366.09179688 238.73110352 366.09179688 228.83110352 366.09179688 218.63110352 C361.47179687 218.63110352 356.85179687 218.63110352 352.09179688 218.63110352 Z M-75.90820312 440.63110352 C-75.90820312 445.25110352 -75.90820312 449.87110352 -75.90820312 454.63110352 C-70.62820312 454.63110352 -65.34820312 454.63110352 -59.90820312 454.63110352 C-58.94914062 452.27985352 -58.94914062 452.27985352 -57.97070312 449.88110352 C-57.61105469 448.99938477 -57.25140625 448.11766602 -56.88085938 447.20922852 C-55.77702055 444.43369271 -55.77702055 444.43369271 -54.90820312 440.63110352 C-61.83820312 440.63110352 -68.76820312 440.63110352 -75.90820312 440.63110352 Z M339.09179688 440.63110352 C339.73117187 442.75547852 340.37054688 444.87985352 341.02929688 447.06860352 C341.38894531 448.26356445 341.74859375 449.45852539 342.11914062 450.68969727 C342.8006883 453.48977897 342.8006883 453.48977897 344.09179688 454.63110352 C346.78834541 454.70429973 349.45871145 454.72352889 352.15429688 454.69360352 C352.91291016 454.6890918 353.67152344 454.68458008 354.453125 454.67993164 C356.33271559 454.66811032 358.21226586 454.65017429 360.09179688 454.63110352 C360.09179688 450.01110352 360.09179688 445.39110352 360.09179688 440.63110352 C353.16179687 440.63110352 346.23179687 440.63110352 339.09179688 440.63110352 Z " fill="#000000" transform="translate(113.908203125,20.368896484375)"/>
<path d="M0 0 C1.01975329 -0.00570851 1.01975329 -0.00570851 2.06010765 -0.01153234 C4.36080109 -0.02192019 6.6612511 -0.01792886 8.96196175 -0.01409245 C10.6190093 -0.01854096 12.27605473 -0.02385372 13.933097 -0.02996117 C18.50430478 -0.04419801 23.07544476 -0.04580339 27.64667153 -0.04536426 C32.56974536 -0.04700747 37.49279083 -0.06006462 42.41584969 -0.07155704 C53.18838312 -0.09444428 63.96089691 -0.10233156 74.73345137 -0.10738349 C81.45499116 -0.11063601 88.17652521 -0.11715575 94.89806175 -0.12438488 C113.49430025 -0.14395519 132.09053338 -0.16035703 150.68678284 -0.16326141 C151.87768607 -0.16344898 153.0685893 -0.16363655 154.29558051 -0.16382981 C156.71001506 -0.16419607 159.1244496 -0.16455976 161.53888415 -0.16492092 C162.73747467 -0.16510373 163.93606519 -0.16528654 165.17097664 -0.16547489 C166.37102353 -0.16565544 167.57107043 -0.16583599 168.80748238 -0.16602201 C188.26248072 -0.16956536 207.71736848 -0.19659591 227.17232846 -0.23397278 C247.12843603 -0.27200685 267.08448867 -0.29141853 287.04063332 -0.29172093 C298.2525921 -0.29230658 309.46441898 -0.30086809 320.67634392 -0.32971859 C330.2216722 -0.35416697 339.76682048 -0.36155976 349.31217156 -0.34647106 C354.18560399 -0.3392754 359.05868051 -0.34027327 363.93207359 -0.36288166 C368.38946826 -0.38336274 372.84623097 -0.3809741 377.30361797 -0.36000682 C378.92004324 -0.35649095 380.53651311 -0.36150986 382.15287982 -0.37571125 C384.34339891 -0.39372369 386.53165906 -0.38119538 388.72210693 -0.36076355 C390.54997327 -0.36198523 390.54997327 -0.36198523 392.41476619 -0.3632316 C395.48689461 0.26006222 395.48689461 0.26006222 397.83818257 2.61168236 C399.69304236 5.59120407 400.62527036 8.23361126 401.5457325 11.6199255 C401.89612083 12.88539211 402.24650917 14.15085873 402.60751534 15.45467281 C402.97511477 16.82983884 403.34245334 18.20507462 403.70955086 19.58037472 C404.09914895 21.00448377 404.48982809 22.42829748 404.88153267 23.85182858 C405.90875303 27.59625803 406.9213113 31.34449954 407.9308033 35.09374142 C408.95178126 38.8755405 409.98649145 42.65357409 411.02009773 46.43193722 C412.18569324 50.6974989 413.34966158 54.96347941 414.50522041 59.23177242 C414.68124322 59.88185489 414.85726603 60.53193735 415.03862286 61.20171928 C415.5448351 63.0770925 416.04698411 64.953561 416.5490284 66.83005428 C417.13753628 68.98237271 417.74897598 71.12868977 418.39351082 73.26489925 C420.29082193 79.63396692 420.92936519 85.40275952 420.88533211 92.03740597 C420.88820229 93.01117687 420.89107246 93.98494778 420.89402962 94.98822689 C420.89605346 97.02423854 420.89064262 99.0602704 420.87800789 101.09624386 C420.86180693 104.2144375 420.87797657 107.33135912 420.89705086 110.44951534 C420.89507052 112.4371484 420.89123118 114.42478067 420.88533211 116.41240597 C420.8914048 117.3415733 420.89747749 118.27074062 420.90373421 119.22806454 C420.83411426 125.59725172 420.83411426 125.59725172 419.14949226 128.81304073 C415.65048897 131.85835535 411.62925477 131.40258835 407.26007462 131.39148998 C406.14280266 131.39456893 406.14280266 131.39456893 405.00295955 131.39771008 C402.48718172 131.40340035 399.97145829 131.40192035 397.45567513 131.40050411 C395.64173662 131.40308658 393.82779868 131.40609941 392.01386154 131.40950751 C387.01359733 131.41759454 382.01334747 131.41936803 377.0130775 131.42010498 C371.62647728 131.42195255 366.23988455 131.42949833 360.85328865 131.4362402 C349.06838347 131.44983558 337.28348168 131.45584996 325.49856997 131.46025085 C318.14467007 131.46301094 310.79077149 131.46724783 303.43687248 131.47175503 C283.08889346 131.48394869 262.74091549 131.49424819 242.39293289 131.49763012 C241.09004711 131.49784969 239.78716134 131.49806925 238.44479417 131.49829547 C237.13873865 131.49851375 235.83268313 131.49873203 234.48705018 131.49895692 C231.84035118 131.49940039 229.19365219 131.49984695 226.5469532 131.50029659 C225.23409076 131.50051802 223.92122832 131.50073945 222.56858216 131.50096759 C201.28432879 131.50491759 180.00011305 131.52237731 158.71587254 131.54565611 C136.88052244 131.56934558 115.04518952 131.58183085 93.20982635 131.58299804 C80.94321702 131.58391609 68.67665225 131.58970122 56.41005516 131.60781765 C45.96707164 131.62318614 35.52414644 131.62835834 25.08115377 131.62007955 C19.74996804 131.61616164 14.4188999 131.61715808 9.0877285 131.63113689 C4.21103631 131.64380749 -0.66544911 131.6427389 -5.54214074 131.63054618 C-7.30996339 131.62857727 -9.07780036 131.63172224 -10.84560286 131.64039055 C-13.24219016 131.65140163 -15.63803716 131.64405349 -18.03460312 131.63199902 C-18.7265225 131.63959421 -19.41844189 131.6471894 -20.13132852 131.65501475 C-24.41321281 131.60827986 -27.10083804 130.86883 -30.51310539 128.26006222 C-42.27504304 104.73618692 -28.36695758 65.77412793 -21.70060539 42.32256222 C-21.46761868 41.50023476 -21.23463196 40.6779073 -20.99458504 39.83066082 C-19.42058237 34.28892669 -17.81601229 28.75677724 -16.18107414 23.23271847 C-15.96749134 22.5102002 -15.75390854 21.78768192 -15.53385353 21.04326916 C-14.92656864 19.0025941 -14.31021725 16.96493635 -13.68961906 14.92827511 C-13.34098305 13.78049084 -12.99234703 12.63270657 -12.63314629 11.45014095 C-9.91541201 3.70954292 -8.50600467 0.0136216 0 0 Z M3.48689461 15.26006222 C-15.26938346 73.15558174 -15.26938346 73.15558174 -15.51310539 115.26006222 C123.08689461 115.26006222 261.68689461 115.26006222 404.48689461 115.26006222 C405.06715291 90.22057071 405.06715291 90.22057071 400.58455086 66.90068722 C400.17986593 65.4734365 399.77879792 64.04515611 399.38104439 62.61595821 C398.35640615 58.97007268 397.28514489 55.33981739 396.20106697 51.71123409 C395.094412 47.97325482 394.03648076 44.22150487 392.97322273 40.47099972 C389.41616153 27.8084155 389.41616153 27.8084155 385.48689461 15.26006222 C259.42689461 15.26006222 133.36689461 15.26006222 3.48689461 15.26006222 Z " fill="#000000" transform="translate(61.513105392456055,299.7399377822876)"/>
<path d="M0 0 C0.70957356 -0.00297112 1.41914711 -0.00594224 2.1502229 -0.0090034 C4.53384577 -0.01769239 6.91741844 -0.01919881 9.30105591 -0.02069092 C11.00765083 -0.02531891 12.71424472 -0.03034354 14.4208374 -0.03573608 C19.06134295 -0.0488629 23.70183403 -0.05530545 28.34235525 -0.05974674 C31.24049799 -0.06267668 34.13863676 -0.06678131 37.0367775 -0.07125092 C46.10140842 -0.08492585 55.16603029 -0.09459284 64.23067081 -0.09845281 C74.70026143 -0.10293537 85.16972162 -0.12049247 95.63927257 -0.1494534 C103.72851895 -0.1710546 111.8177286 -0.18115623 119.90700352 -0.18249393 C124.7400947 -0.18354297 129.57306326 -0.18947192 134.40612411 -0.20731354 C138.95170134 -0.22376749 143.49706341 -0.22596278 148.04265976 -0.21717453 C149.71117732 -0.21640275 151.37970632 -0.22076541 153.04819489 -0.23063278 C155.32584432 -0.24331303 157.60272722 -0.23749742 159.88037109 -0.22705078 C161.15500151 -0.22851734 162.42963192 -0.2299839 163.7428875 -0.2314949 C167.35428349 0.17256564 169.19996099 0.94699403 172.06716919 3.14044189 C174.06716919 6.14044189 174.06716919 6.14044189 173.87966919 9.64044189 C172.80884011 14.25324406 172.80884011 14.25324406 170.06716919 16.14044189 C166.89807224 16.52355194 166.89807224 16.52355194 162.89982605 16.53485107 C162.16504561 16.54094218 161.43026518 16.54703328 160.67321867 16.55330896 C158.20420062 16.56999528 155.73569512 16.56515529 153.26663208 16.56036377 C151.49929771 16.56770084 149.73196813 16.57628601 147.96464539 16.58602905 C143.15888035 16.60829168 138.35328653 16.61117338 133.54747701 16.60928154 C129.53885347 16.60916206 125.53026651 16.61771696 121.52165312 16.62605906 C112.06650423 16.64531014 102.61144364 16.6481707 93.15628052 16.64141846 C83.39442626 16.63477562 73.63294966 16.6576479 63.87117201 16.69473219 C55.49657382 16.72539508 47.12209732 16.73679295 38.74744409 16.73289537 C33.7427337 16.73082438 28.73831712 16.73636097 23.73365974 16.76078796 C19.02789536 16.78299639 14.3227464 16.78122677 9.6169796 16.76086044 C7.8883784 16.75743992 6.15973625 16.7625842 4.43119049 16.77684402 C2.07390162 16.79495121 -0.28128036 16.78235419 -2.63850403 16.76190186 C-3.9583023 16.76261436 -5.27810057 16.76332687 -6.63789272 16.76406097 C-9.93283081 16.14044189 -9.93283081 16.14044189 -12.39263248 13.82816315 C-13.93283081 11.14044189 -13.93283081 11.14044189 -13.87033081 7.51544189 C-12.61537049 2.99758475 -12.61537049 2.99758475 -9.93283081 1.14044189 C-6.43501057 -0.02549818 -3.69266042 0.00862283 0 0 Z " fill="#000000" transform="translate(175.93283081054688,386.85955810546875)"/>
<path d="M0 0 C1.175625 -0.02384766 2.35125 -0.04769531 3.5625 -0.07226562 C13.1491953 -0.05592467 13.1491953 -0.05592467 16.2734375 2.91015625 C18.41763338 6.20406803 18.80283718 7.70888152 18 11.5625 C16.34616411 14.15592857 15.63422773 15.13993744 13 16.5625 C8.47072753 17.29508599 4.0153427 17.21391348 -0.5625 17.125 C-1.79419922 17.13595703 -3.02589844 17.14691406 -4.29492188 17.15820312 C-13.35913787 17.08410872 -13.35913787 17.08410872 -16.34716797 14.65209961 C-18.13525239 12.39150661 -18.5680492 11.40369236 -18.5625 8.5625 C-18.58441406 7.9025 -18.60632813 7.2425 -18.62890625 6.5625 C-16.10160193 -1.47464169 -6.64739632 -0.0619549 0 0 Z " fill="#000000" transform="translate(433,354.4375)"/>
<path d="M0 0 C1.7634375 -0.01643555 1.7634375 -0.01643555 3.5625 -0.03320312 C13.32618024 0.05001006 13.32618024 0.05001006 18 4.5625 C18.62890625 6.5625 18.62890625 6.5625 18.5625 8.5625 C18.56443359 9.5525 18.56443359 9.5525 18.56640625 10.5625 C17.73974597 13.48146595 16.34007812 14.65787016 14 16.5625 C9.56105922 17.39240379 5.07032628 17.16510102 0.5625 17.125 C-0.66533203 17.14884766 -1.89316406 17.17269531 -3.15820312 17.19726562 C-13.18550179 17.18089007 -13.18550179 17.18089007 -16.30859375 14.21484375 C-18.41078263 10.9183397 -18.79897205 9.39756583 -18 5.5625 C-13.6106882 -1.18035682 -7.43518987 -0.15082348 0 0 Z " fill="#000000" transform="translate(180,354.4375)"/>
<path d="M0 0 C1.7634375 -0.01643555 1.7634375 -0.01643555 3.5625 -0.03320312 C13.32618024 0.05001006 13.32618024 0.05001006 18 4.5625 C18.62890625 6.5625 18.62890625 6.5625 18.5625 8.5625 C18.56443359 9.5525 18.56443359 9.5525 18.56640625 10.5625 C17.73974597 13.48146595 16.34007812 14.65787016 14 16.5625 C9.56105922 17.39240379 5.07032628 17.16510102 0.5625 17.125 C-0.66533203 17.14884766 -1.89316406 17.17269531 -3.15820312 17.19726562 C-13.18550179 17.18089007 -13.18550179 17.18089007 -16.30859375 14.21484375 C-18.41078263 10.9183397 -18.79897205 9.39756583 -18 5.5625 C-13.6106882 -1.18035682 -7.43518987 -0.15082348 0 0 Z " fill="#000000" transform="translate(79,354.4375)"/>
<path d="M0 0 C1.18013672 -0.01998047 2.36027344 -0.03996094 3.57617188 -0.06054688 C5.28450195 -0.05958008 5.28450195 -0.05958008 7.02734375 -0.05859375 C8.0649585 -0.06044678 9.10257324 -0.0622998 10.17163086 -0.06420898 C13.77546364 0.56123451 15.46038603 1.9173632 18.0625 4.4375 C18.69140625 6.4375 18.69140625 6.4375 18.625 8.4375 C18.62693359 9.4275 18.62693359 9.4275 18.62890625 10.4375 C17.80224597 13.35646595 16.40257812 14.53287016 14.0625 16.4375 C9.62355922 17.26740379 5.13282628 17.04010102 0.625 17 C-0.60283203 17.02384766 -1.83066406 17.04769531 -3.09570312 17.07226562 C-13.12322993 17.0558897 -13.12322993 17.0558897 -16.28125 14.16015625 C-17.94391924 11.42694762 -18.53989437 10.40627671 -18 7.3125 C-17.90847656 6.64992188 -17.81695312 5.98734375 -17.72265625 5.3046875 C-14.76999337 -1.71706802 -6.25891269 -0.03747852 0 0 Z " fill="#000000" transform="translate(381.9375,354.5625)"/>
<path d="M0 0 C1.13888672 -0.00064453 2.27777344 -0.00128906 3.45117188 -0.00195312 C5.22137695 0.02801758 5.22137695 0.02801758 7.02734375 0.05859375 C8.80334961 0.04795898 8.80334961 0.04795898 10.61523438 0.03710938 C20.3848222 0.10906668 20.3848222 0.10906668 23.96484375 3.49609375 C24.75 5.36328125 24.75 5.36328125 25.02734375 7.37109375 C25.14207031 8.02851563 25.25679688 8.6859375 25.375 9.36328125 C24.86925252 11.99316814 23.9023789 13.67428117 21.92407227 15.48828125 C17.24802555 17.89360472 11.52224904 17.15803548 6.40234375 17.05859375 C5.17064453 17.06955078 3.93894531 17.08050781 2.66992188 17.09179688 C-6.39429412 17.01770247 -6.39429412 17.01770247 -9.38232422 14.58569336 C-11.17040864 12.32510036 -11.60320545 11.33728611 -11.59765625 8.49609375 C-11.61957031 7.83609375 -11.64148438 7.17609375 -11.6640625 6.49609375 C-9.96682716 1.09867453 -5.066811 -0.00904858 0 0 Z " fill="#000000" transform="translate(325.03515625,354.50390625)"/>
<path d="M0 0 C1.18013672 -0.01998047 2.36027344 -0.03996094 3.57617188 -0.06054688 C5.28450195 -0.05958008 5.28450195 -0.05958008 7.02734375 -0.05859375 C8.0649585 -0.06044678 9.10257324 -0.0622998 10.17163086 -0.06420898 C13.77546364 0.56123451 15.46038603 1.9173632 18.0625 4.4375 C18.69140625 6.4375 18.69140625 6.4375 18.625 8.4375 C18.62693359 9.4275 18.62693359 9.4275 18.62890625 10.4375 C17.80224597 13.35646595 16.40257812 14.53287016 14.0625 16.4375 C9.62355922 17.26740379 5.13282628 17.04010102 0.625 17 C-0.60283203 17.02384766 -1.83066406 17.04769531 -3.09570312 17.07226562 C-13.12322993 17.0558897 -13.12322993 17.0558897 -16.28125 14.16015625 C-17.94391924 11.42694762 -18.53989437 10.40627671 -18 7.3125 C-17.90847656 6.64992188 -17.81695312 5.98734375 -17.72265625 5.3046875 C-14.76999337 -1.71706802 -6.25891269 -0.03747852 0 0 Z " fill="#000000" transform="translate(280.9375,354.5625)"/>
<path d="M0 0 C1.13888672 -0.00064453 2.27777344 -0.00128906 3.45117188 -0.00195312 C5.22137695 0.02801758 5.22137695 0.02801758 7.02734375 0.05859375 C8.80334961 0.04795898 8.80334961 0.04795898 10.61523438 0.03710938 C20.3848222 0.10906668 20.3848222 0.10906668 23.96484375 3.49609375 C24.75 5.36328125 24.75 5.36328125 25.02734375 7.37109375 C25.14207031 8.02851563 25.25679687 8.6859375 25.375 9.36328125 C24.86925252 11.99316814 23.9023789 13.67428117 21.92407227 15.48828125 C17.24802555 17.89360472 11.52224904 17.15803548 6.40234375 17.05859375 C5.17064453 17.06955078 3.93894531 17.08050781 2.66992188 17.09179688 C-6.39429412 17.01770247 -6.39429412 17.01770247 -9.38232422 14.58569336 C-11.17040864 12.32510036 -11.60320545 11.33728611 -11.59765625 8.49609375 C-11.61957031 7.83609375 -11.64148438 7.17609375 -11.6640625 6.49609375 C-9.96682716 1.09867453 -5.066811 -0.00904858 0 0 Z " fill="#000000" transform="translate(224.03515625,354.50390625)"/>
<path d="M0 0 C1.13888672 -0.00064453 2.27777344 -0.00128906 3.45117188 -0.00195312 C5.22137695 0.02801758 5.22137695 0.02801758 7.02734375 0.05859375 C8.80334961 0.04795898 8.80334961 0.04795898 10.61523438 0.03710938 C20.3848222 0.10906668 20.3848222 0.10906668 23.96484375 3.49609375 C24.75 5.36328125 24.75 5.36328125 25.02734375 7.37109375 C25.14207031 8.02851563 25.25679687 8.6859375 25.375 9.36328125 C24.86925252 11.99316814 23.9023789 13.67428117 21.92407227 15.48828125 C17.24802555 17.89360472 11.52224904 17.15803548 6.40234375 17.05859375 C5.17064453 17.06955078 3.93894531 17.08050781 2.66992188 17.09179688 C-6.39429412 17.01770247 -6.39429412 17.01770247 -9.38232422 14.58569336 C-11.17040864 12.32510036 -11.60320545 11.33728611 -11.59765625 8.49609375 C-11.61957031 7.83609375 -11.64148438 7.17609375 -11.6640625 6.49609375 C-9.96682716 1.09867453 -5.066811 -0.00904858 0 0 Z " fill="#000000" transform="translate(123.03515625,354.50390625)"/>
<path d="M0 0 C1.23234375 -0.00515625 2.4646875 -0.0103125 3.734375 -0.015625 C5.66023438 0.00757813 5.66023438 0.00757813 7.625 0.03125 C8.90890625 0.01578125 10.1928125 0.0003125 11.515625 -0.015625 C12.74796875 -0.01046875 13.9803125 -0.0053125 15.25 0 C16.93996094 0.00676758 16.93996094 0.00676758 18.6640625 0.01367188 C22.26836827 0.64371213 23.45875785 1.62474525 25.625 4.53125 C26.09418683 8.28474462 26.15636381 10.56973453 24.3125 13.90625 C20.06310574 17.99825928 13.24795707 16.75540766 7.75 16.78125 C6.11611328 16.8121875 6.11611328 16.8121875 4.44921875 16.84375 C3.39605469 16.84890625 2.34289062 16.8540625 1.2578125 16.859375 C0.29762207 16.8687207 -0.66256836 16.87806641 -1.65185547 16.88769531 C-4.88131927 16.46497547 -6.75406308 15.43370167 -9.375 13.53125 C-10.92086876 10.43951248 -10.66859521 7.93695448 -10.375 4.53125 C-7.3370931 0.42092536 -4.98589462 0.0199664 0 0 Z " fill="#000000" transform="translate(349.375,323.46875)"/>
<path d="M0 0 C1.23234375 -0.00515625 2.4646875 -0.0103125 3.734375 -0.015625 C5.66023437 0.00757813 5.66023437 0.00757813 7.625 0.03125 C8.90890625 0.01578125 10.1928125 0.0003125 11.515625 -0.015625 C12.74796875 -0.01046875 13.9803125 -0.0053125 15.25 0 C16.93996094 0.00676758 16.93996094 0.00676758 18.6640625 0.01367188 C22.26836827 0.64371213 23.45875785 1.62474525 25.625 4.53125 C26.09418683 8.28474462 26.15636381 10.56973453 24.3125 13.90625 C20.06310574 17.99825928 13.24795707 16.75540766 7.75 16.78125 C6.11611328 16.8121875 6.11611328 16.8121875 4.44921875 16.84375 C3.39605469 16.84890625 2.34289062 16.8540625 1.2578125 16.859375 C0.29762207 16.8687207 -0.66256836 16.87806641 -1.65185547 16.88769531 C-4.88131927 16.46497547 -6.75406308 15.43370167 -9.375 13.53125 C-10.92086876 10.43951248 -10.66859521 7.93695448 -10.375 4.53125 C-7.3370931 0.42092536 -4.98589462 0.0199664 0 0 Z " fill="#000000" transform="translate(248.375,323.46875)"/>
<path d="M0 0 C1.23234375 -0.00515625 2.4646875 -0.0103125 3.734375 -0.015625 C5.66023437 0.00757813 5.66023437 0.00757813 7.625 0.03125 C8.90890625 0.01578125 10.1928125 0.0003125 11.515625 -0.015625 C12.74796875 -0.01046875 13.9803125 -0.0053125 15.25 0 C16.93996094 0.00676758 16.93996094 0.00676758 18.6640625 0.01367188 C22.26836827 0.64371213 23.45875785 1.62474525 25.625 4.53125 C26.09418683 8.28474462 26.15636381 10.56973453 24.3125 13.90625 C20.06310574 17.99825928 13.24795707 16.75540766 7.75 16.78125 C6.11611328 16.8121875 6.11611328 16.8121875 4.44921875 16.84375 C3.39605469 16.84890625 2.34289062 16.8540625 1.2578125 16.859375 C0.29762207 16.8687207 -0.66256836 16.87806641 -1.65185547 16.88769531 C-4.88131927 16.46497547 -6.75406308 15.43370167 -9.375 13.53125 C-10.92086876 10.43951248 -10.66859521 7.93695448 -10.375 4.53125 C-7.3370931 0.42092536 -4.98589462 0.0199664 0 0 Z " fill="#000000" transform="translate(147.375,323.46875)"/>
<path d="M0 0 C1.24072266 -0.01611328 2.48144531 -0.03222656 3.75976562 -0.04882812 C4.95150391 -0.04947266 6.14324219 -0.05011719 7.37109375 -0.05078125 C8.46220459 -0.05376221 9.55331543 -0.05674316 10.67749023 -0.05981445 C13.91022149 0.35737393 15.26500676 1.03513961 17.5625 3.3125 C18.73657634 6.91300078 18.89009676 8.59178713 17.3125 12.0625 C15.5625 14.3125 15.5625 14.3125 12.5625 16.3125 C8.45275226 16.779606 4.32092854 16.68284524 0.1875 16.6875 C-1.51792969 16.72423828 -1.51792969 16.72423828 -3.2578125 16.76171875 C-11.6111356 16.79113186 -11.6111356 16.79113186 -15.66796875 14.44140625 C-17.75573444 11.92963516 -18.357901 10.57605902 -18.4375 7.3125 C-15.86918357 -1.89063387 -7.95568311 -0.0205999 0 0 Z " fill="#000000" transform="translate(306.4375,323.6875)"/>
<path d="M0 0 C1.24523437 -0.020625 2.49046875 -0.04125 3.7734375 -0.0625 C5.5678125 -0.07023437 5.5678125 -0.07023437 7.3984375 -0.078125 C8.49591309 -0.0874707 9.59338867 -0.09681641 10.72412109 -0.10644531 C13.97530758 0.29304402 15.31968994 0.95884949 17.625 3.25 C18.79907634 6.85050078 18.95259676 8.52928713 17.375 12 C15.625 14.25 15.625 14.25 12.625 16.25 C8.51525226 16.717106 4.38342854 16.62034524 0.25 16.625 C-1.45542969 16.66173828 -1.45542969 16.66173828 -3.1953125 16.69921875 C-11.55133797 16.72864137 -11.55133797 16.72864137 -15.6015625 14.375 C-17.72595039 11.82947795 -18.375 10.57493651 -18.375 7.25 C-14.69292552 -1.86751777 -8.85468099 0.03643902 0 0 Z " fill="#000000" transform="translate(407.375,323.75)"/>
<path d="M0 0 C1.24523437 -0.02900391 2.49046875 -0.05800781 3.7734375 -0.08789062 C5.5678125 -0.10045898 5.5678125 -0.10045898 7.3984375 -0.11328125 C8.49591309 -0.12786377 9.59338867 -0.14244629 10.72412109 -0.1574707 C14.2941634 0.420911 15.42089848 1.50596126 17.625 4.3125 C18.5625 6.75 18.5625 6.75 18.625 9.3125 C17.00344371 12.79884601 15.86046708 14.15552194 12.625 16.3125 C8.51525226 16.779606 4.38342854 16.68284524 0.25 16.6875 C-1.45542969 16.72423828 -1.45542969 16.72423828 -3.1953125 16.76171875 C-11.53569579 16.7910863 -11.53569579 16.7910863 -15.6015625 14.47265625 C-17.90640111 11.66522067 -18.375 9.9395716 -18.375 6.3125 C-14.5919898 -1.79395043 -7.98268325 0.06159478 0 0 Z " fill="#000000" transform="translate(205.375,323.6875)"/>
<path d="M0 0 C1.24523437 -0.02900391 2.49046875 -0.05800781 3.7734375 -0.08789062 C5.5678125 -0.10045898 5.5678125 -0.10045898 7.3984375 -0.11328125 C8.49591309 -0.12786377 9.59338867 -0.14244629 10.72412109 -0.1574707 C14.2941634 0.420911 15.42089848 1.50596126 17.625 4.3125 C18.5625 6.75 18.5625 6.75 18.625 9.3125 C17.00344371 12.79884601 15.86046708 14.15552194 12.625 16.3125 C8.51525226 16.779606 4.38342854 16.68284524 0.25 16.6875 C-1.45542969 16.72423828 -1.45542969 16.72423828 -3.1953125 16.76171875 C-11.53569579 16.7910863 -11.53569579 16.7910863 -15.6015625 14.47265625 C-17.90640111 11.66522067 -18.375 9.9395716 -18.375 6.3125 C-14.5919898 -1.79395043 -7.98268325 0.06159478 0 0 Z " fill="#000000" transform="translate(104.375,323.6875)"/>
<path d="M0 0 C1.0415625 -0.020625 2.083125 -0.04125 3.15625 -0.0625 C12.80755258 -0.11186728 12.80755258 -0.11186728 16.625 3.25 C18.625 6.25 18.625 6.25 18.4375 9.75 C17.38353105 14.29017395 17.38353105 14.29017395 14.625 16.25 C10.00915494 16.90499645 5.34449666 16.71304961 0.6875 16.6875 C-1.24512695 16.7174707 -1.24512695 16.7174707 -3.21679688 16.74804688 C-4.45365234 16.74740234 -5.69050781 16.74675781 -6.96484375 16.74609375 C-8.09784912 16.74794678 -9.23085449 16.7497998 -10.39819336 16.75170898 C-14.02183023 16.14098367 -15.20313794 15.17091489 -17.375 12.25 C-17.84418683 8.49650538 -17.90636381 6.21151547 -16.0625 2.875 C-11.89732524 -1.13590903 -5.39349584 0.02650367 0 0 Z " fill="#000000" transform="translate(129.375,386.75)"/>
<path d="M0 0 C1.49080078 -0.01836914 1.49080078 -0.01836914 3.01171875 -0.03710938 C3.97464844 -0.03904297 4.93757813 -0.04097656 5.9296875 -0.04296875 C6.80608887 -0.04707764 7.68249023 -0.05118652 8.58544922 -0.05541992 C11.46622178 0.22013946 13.54860111 0.87359672 16.125 2.1875 C18.60538907 5.9080836 18.58837203 7.78546571 18.125 12.1875 C15.96468019 15.09529826 14.76088517 16.0729379 11.1640625 16.72094727 C7.48308551 16.75648301 3.80612278 16.7814152 0.125 16.75 C-1.15890625 16.77384766 -2.4428125 16.79769531 -3.765625 16.82226562 C-4.99796875 16.82033203 -6.2303125 16.81839844 -7.5 16.81640625 C-8.62664062 16.81713135 -9.75328125 16.81785645 -10.9140625 16.81860352 C-13.875 16.1875 -13.875 16.1875 -16.27734375 13.87475586 C-17.875 11.1875 -17.875 11.1875 -17.8125 7.5625 C-16.55753968 3.04464286 -16.55753968 3.04464286 -13.875 1.1875 C-9.31231889 -0.3333937 -4.77884735 0.00307519 0 0 Z " fill="#000000" transform="translate(78.875,386.8125)"/>
<path d="M0 0 C0.98935547 -0.020625 1.97871094 -0.04125 2.99804688 -0.0625 C12.17435806 -0.11186818 12.17435806 -0.11186818 16.0625 3.25 C18.0625 6.25 18.0625 6.25 17.875 9.75 C16.82103105 14.29017395 16.82103105 14.29017395 14.0625 16.25 C9.44665494 16.90499645 4.78199666 16.71304961 0.125 16.6875 C-1.80762695 16.7174707 -1.80762695 16.7174707 -3.77929688 16.74804688 C-5.01615234 16.74740234 -6.25300781 16.74675781 -7.52734375 16.74609375 C-8.66034912 16.74794678 -9.79335449 16.7497998 -10.96069336 16.75170898 C-14.58433023 16.14098367 -15.76563794 15.17091489 -17.9375 12.25 C-18.40267421 8.52860636 -18.44604958 6.21624421 -16.6875 2.875 C-12.39101435 -1.11459382 -5.49055508 0.02850386 0 0 Z " fill="#000000" transform="translate(432.9375,386.75)"/>
<path d="M0 0 C1.49080078 -0.01836914 1.49080078 -0.01836914 3.01171875 -0.03710938 C3.97464844 -0.03904297 4.93757813 -0.04097656 5.9296875 -0.04296875 C6.80608887 -0.04707764 7.68249023 -0.05118652 8.58544922 -0.05541992 C11.46622178 0.22013946 13.54860111 0.87359672 16.125 2.1875 C18.60538907 5.9080836 18.58837203 7.78546571 18.125 12.1875 C15.96468019 15.09529826 14.76088517 16.0729379 11.1640625 16.72094727 C7.48308551 16.75648301 3.80612278 16.7814152 0.125 16.75 C-1.15890625 16.77384766 -2.4428125 16.79769531 -3.765625 16.82226562 C-4.99796875 16.82033203 -6.2303125 16.81839844 -7.5 16.81640625 C-8.62664062 16.81713135 -9.75328125 16.81785645 -10.9140625 16.81860352 C-13.875 16.1875 -13.875 16.1875 -16.27734375 13.87475586 C-17.875 11.1875 -17.875 11.1875 -17.8125 7.5625 C-16.55753968 3.04464286 -16.55753968 3.04464286 -13.875 1.1875 C-9.31231889 -0.3333937 -4.77884735 0.00307519 0 0 Z " fill="#000000" transform="translate(381.875,386.8125)"/>
</svg>
