<svg width="13" height="19" viewBox="0 0 13 19" fill="none" xmlns="http://www.w3.org/2000/svg">
<path d="M6.49993 13C7.48502 13 8.42976 12.6087 9.12633 11.9121C9.82289 11.2155 10.2142 10.2708 10.2142 9.28571V3.71429C10.2142 2.7292 9.82289 1.78445 9.12633 1.08789C8.42976 0.391325 7.48502 0 6.49993 0C5.51484 0 4.5701 0.391325 3.87353 1.08789C3.17697 1.78445 2.78564 2.7292 2.78564 3.71429V9.28571C2.78564 10.2708 3.17697 11.2155 3.87353 11.9121C4.5701 12.6087 5.51484 13 6.49993 13Z" fill="white"/>
<path d="M12.0714 7.42871C11.8252 7.42871 11.589 7.52654 11.4148 7.70068C11.2407 7.87482 11.1429 8.11101 11.1429 8.35728V9.28585C11.1429 10.5172 10.6537 11.6981 9.783 12.5688C8.91229 13.4396 7.73136 13.9287 6.5 13.9287C5.26864 13.9287 4.08771 13.4396 3.217 12.5688C2.3463 11.6981 1.85714 10.5172 1.85714 9.28585V8.35728C1.85714 8.11101 1.75931 7.87482 1.58517 7.70068C1.41103 7.52654 1.17484 7.42871 0.928571 7.42871C0.682299 7.42871 0.446113 7.52654 0.271972 7.70068C0.0978315 7.87482 0 8.11101 0 8.35728V9.28585C0.00183031 10.8476 0.565878 12.3564 1.58895 13.5364C2.18617 14.2251 2.91649 14.775 3.72847 15.1577C4.73128 15.6305 5.57143 16.5344 5.57143 17.643C5.57143 17.8893 5.66926 18.1255 5.8434 18.2996C6.01754 18.4737 6.25373 18.5716 6.5 18.5716C6.74627 18.5716 6.98246 18.4737 7.1566 18.2996C7.33074 18.1255 7.42857 17.8893 7.42857 17.643C7.42857 16.5344 8.26872 15.6305 9.27153 15.1577C10.0835 14.775 10.8138 14.2251 11.411 13.5364C12.4341 12.3564 12.9982 10.8476 13 9.28585V8.35728C13 8.11101 12.9022 7.87482 12.728 7.70068C12.5539 7.52654 12.3177 7.42871 12.0714 7.42871Z" fill="white"/>
</svg>
