<svg width="267" height="22" viewBox="0 0 267 22" fill="none" xmlns="http://www.w3.org/2000/svg">
<path fill-rule="evenodd" clip-rule="evenodd" d="M4.5247 9.53689H0V20.9762H1.39117V16.4711H4.3491C5.3921 16.4711 6.08844 16.2977 6.78478 15.6026C7.48112 14.9105 7.82778 14.0451 7.82778 13.0047C7.82929 11.2708 6.78629 9.53689 4.5247 9.53689ZM5.91587 14.7356C5.5677 15.0824 5.04544 15.2573 4.3491 15.2573H1.39117V10.7506H4.52319C5.91435 10.7506 6.6107 11.9659 6.6107 13.0047C6.61221 13.6968 6.26404 14.2185 5.91587 14.7356ZM27.1437 19.7625V15.6026H32.0165V14.2185H27.1437V10.9225H33.0595V9.53689H25.9251V20.9762H33.0595V19.7625H27.1437ZM152.597 19.7625V15.6026H157.468V14.2185H152.597V10.9225H158.513V9.53689H151.378V20.9762H158.687V19.7625H152.597ZM177.653 19.7625V9.53689H176.436V20.9762H183.221V19.7625H177.653ZM202.537 19.7625V9.53689H201.315V20.9762H208.104V19.7625H202.537ZM225.852 20.9762H227.242V9.53689H225.852V20.9762ZM59.5068 20.9762L57.0712 15.9494C57.4178 15.776 57.766 15.6026 58.1142 15.2573C58.6364 14.5622 59.1572 13.6968 58.9846 12.8313C58.9846 11.0974 57.5934 9.53689 55.6785 9.53689H51.1553V20.9762H52.3739V16.2962H55.8541L58.1157 20.9762H59.5068ZM52.3739 15.0839V10.7506H55.68C57.2468 10.7506 57.7675 11.9659 57.7675 12.8313C57.7675 13.5234 57.5934 14.0451 57.2453 14.3888C56.8971 14.7356 56.3748 15.0839 55.5059 15.0839H52.3739ZM86.3038 20.9762L83.8682 15.9494C84.2148 15.776 84.563 15.6026 84.9112 15.2573C85.4334 14.5622 85.7816 13.6968 85.7816 12.8313C85.7816 11.0974 84.3904 9.53689 82.4755 9.53689H77.9523V20.9762H79.1709V16.2962H82.6511L84.9127 20.9762H86.3038ZM79.1694 15.0839V10.7506H82.4755C84.0423 10.7506 84.563 11.9659 84.563 12.8313C84.563 13.5234 84.3889 14.0451 84.0408 14.3888C83.6926 14.7356 83.1703 15.0839 82.3014 15.0839H79.1694ZM253.863 12.8313C253.692 10.7506 251.776 9.36501 249.514 9.36501C247.426 9.36501 245.339 10.4054 245.339 12.4846C245.339 13.8717 246.382 14.9105 247.95 15.2588C247.95 15.2588 250.559 15.9509 251.256 16.1243C251.726 16.1843 252.159 16.4091 252.478 16.7583C252.796 17.1076 252.979 17.5585 252.994 18.0301C252.994 19.4172 251.43 20.2826 249.688 20.2826C247.95 20.2826 246.382 19.0689 246.208 17.6848H244.815C245.163 19.764 247.251 21.4949 249.688 21.4949C251.255 21.4949 252.473 20.9762 253.342 20.1078C253.863 19.5891 254.211 18.897 254.211 18.0286C254.211 16.8148 253.342 15.2573 251.6 14.9105L248.12 14.0451C247.425 13.8717 246.556 13.35 246.556 12.4846C246.556 12.1378 246.73 11.6191 247.077 11.4457C247.601 10.924 248.469 10.5803 249.512 10.5803C251.079 10.5803 252.298 11.4457 252.646 12.6594L253.863 12.8313ZM112.925 9.53689H111.534L108.228 15.0839L104.922 9.53689H103.529L107.532 16.4711V20.9762H108.749V16.4711L112.925 9.53689ZM262.216 0.00488281C260.303 0.00488281 258.565 1.5639 258.565 3.6446C258.565 5.72379 260.303 7.28432 262.216 7.28432C264.307 7.28432 266.044 5.72379 266.044 3.6446C266.044 1.56541 264.307 0.00488281 262.216 0.00488281ZM262.216 0.698448H262.39C263.957 0.698448 265.176 1.91068 265.176 3.6446C265.176 5.37701 263.957 6.59075 262.216 6.59075C260.652 6.59075 259.26 5.37701 259.26 3.6446C259.26 1.91219 260.477 0.698448 262.216 0.698448ZM260.826 1.56541V5.7253H261.521V3.9929H262.216L263.435 5.7253H264.133L262.914 3.8195C263.609 3.8195 263.957 3.29933 263.957 2.77915C263.957 1.9122 263.433 1.56541 262.564 1.56541H260.826ZM261.521 3.29781V2.08558H262.39C263.088 2.08558 263.259 2.25897 263.259 2.77764C263.259 3.12442 263.088 3.29781 262.564 3.29781H261.521Z" fill="black"/>
</svg>
