<svg width="53" height="25" viewBox="0 0 53 25" fill="none" xmlns="http://www.w3.org/2000/svg">
<path d="M26.5 24.1739C18.3598 24.4799 8.01086e-05 1.83627 8.01086e-05 1.83627C20.6978 1.83627 32.3022 1.83627 53 1.83627C53 1.83627 34.6403 23.8679 26.5 24.1739Z" fill="#D9D9D9"/>
<path d="M26.5 24.1739C18.3598 24.4799 8.01086e-05 1.83627 8.01086e-05 1.83627C20.6978 1.83627 32.3022 1.83627 53 1.83627C53 1.83627 34.6403 23.8679 26.5 24.1739Z" fill="#D9D9D9"/>
<path d="M26.5 22.3377C18.3598 22.6437 8.01086e-05 8.96454e-05 8.01086e-05 8.96454e-05C20.6978 8.96454e-05 32.3022 8.96454e-05 53 8.96454e-05C53 8.96454e-05 34.6403 22.0318 26.5 22.3377Z" fill="#B9BCC0"/>
<path d="M26.5 22.3377C18.3598 22.6437 8.01086e-05 8.96454e-05 8.01086e-05 8.96454e-05C20.6978 8.96454e-05 32.3022 8.96454e-05 53 8.96454e-05C53 8.96454e-05 34.6403 22.0318 26.5 22.3377Z" fill="#B9BCC0"/>
</svg>
