<svg width="48" height="25" viewBox="0 0 48 25" fill="none" xmlns="http://www.w3.org/2000/svg">
<path d="M10.3468 24.0575C8.6833 23.8048 6.64078 23.0046 5.2405 22.0571C3.62965 20.9621 2.12408 19.2039 1.2397 17.3824C-2.29786 10.1073 2.07144 1.60032 10.0836 0.147398C10.7258 0.0315853 13.3579 0 23.9285 0C37.9418 0 37.8786 0 39.5421 0.53695C40.595 0.884388 42.3427 1.75825 43.1113 2.33731C45.7013 4.26402 47.4911 7.27515 47.9333 10.4021C48.0596 11.3181 47.9965 13.4659 47.828 14.3081C47.4806 15.9927 46.7962 17.6667 45.954 18.888C44.2694 21.3517 41.7952 23.0362 38.6683 23.8785C37.826 24.0996 37.7734 24.0996 24.3496 24.1206C16.9376 24.1312 10.6416 24.0996 10.3468 24.0575ZM14.0949 19.2039C15.2425 18.888 16.2111 18.33 17.1376 17.4561C18.0641 16.5823 18.6643 15.6558 19.1064 14.4134C19.3802 13.6449 19.4012 13.4659 19.4012 11.9498C19.4012 10.6548 19.3591 10.1915 19.2012 9.68616C18.4432 7.24356 16.6007 5.39056 14.1897 4.63251C13.8212 4.5167 13.0947 4.43247 12.2419 4.40089C10.5784 4.33771 9.82037 4.48511 8.44114 5.15893C5.21944 6.71714 3.64018 10.381 4.61932 14.0344C5.2405 16.3822 6.94611 18.2247 9.28342 19.0775C10.6205 19.5618 12.6104 19.6145 14.0949 19.2039ZM37.1732 16.3191C38.0576 16.0874 38.7315 15.7084 39.3737 15.0872C39.9528 14.5292 40.4476 13.6659 40.5739 13.0131C40.6476 12.6657 40.6476 12.6657 40.3949 12.8026C40.2265 12.8973 39.7738 12.95 39.0368 12.95C38.0366 12.9394 37.8681 12.9079 37.3312 12.6446C36.3941 12.1919 35.8361 11.6234 35.3834 10.7074C35.0149 9.97043 34.9833 9.83356 34.9833 9.01234C34.9833 8.50698 35.0254 7.92791 35.0781 7.71734C35.1939 7.20145 35.0886 7.20145 34.1095 7.69629C31.7406 8.87547 30.8562 11.5286 32.0248 13.8975C32.467 14.7924 33.0461 15.3926 33.9094 15.8558C35.0465 16.4559 36.0783 16.6033 37.1732 16.3191Z" fill="black"/>
</svg>
