<svg width="100%" height="100%" viewBox="0 0 23 23" xmlns="http://www.w3.org/2000/svg">
<path d="M15.8125 13.9475H14.825L14.475 13.6064C15.7 12.1664 16.4375 10.2969 16.4375 8.26326C16.4375 3.72852 12.8 0.0527344 8.3125 0.0527344C3.825 0.0527344 0.1875 3.72852 0.1875 8.26326C0.1875 12.798 3.825 16.4738 8.3125 16.4738C10.325 16.4738 12.175 15.7285 13.6 14.4906L13.9375 14.8443V15.8422L20.1875 22.1454L22.05 20.2633L15.8125 13.9475ZM8.3125 13.9475C5.2 13.9475 2.6875 11.4085 2.6875 8.26326C2.6875 5.118 5.2 2.57905 8.3125 2.57905C11.425 2.57905 13.9375 5.118 13.9375 8.26326C13.9375 11.4085 11.425 13.9475 8.3125 13.9475Z" fill="currentColor"/>
</svg>
