<svg width="17" height="20" viewBox="0 0 17 20" fill="currentColor" xmlns="http://www.w3.org/2000/svg">
<path d="M0.288105 19.3348C0.288105 19.1325 0.4695 15.7767 0.685779 11.8837L1.08345 4.80229L1.57183 4.78136L2.0602 4.76043L4.41136 2.40927L6.7695 0.0581055L8.2695 1.55811L9.7695 3.05811L10.5579 2.26973L11.3393 1.48834L12.9788 3.12787L14.6114 4.76043L15.2811 4.78136L15.9439 4.80229L16.3416 11.8837C16.5579 15.7767 16.7393 19.1325 16.7393 19.3348L16.7462 19.6976H8.51369H0.281128L0.288105 19.3348ZM15.2393 17.9395C15.2183 17.7372 15.0858 15.2604 14.9323 12.4418C14.7788 9.62322 14.6323 7.06973 14.6114 6.76973L14.5695 6.23252H8.51369H2.45787L2.41601 6.76973C2.39508 7.06973 2.24857 9.62322 2.09508 12.4418C1.94159 15.2604 1.80903 17.7372 1.7881 17.9395L1.75322 18.3023H8.51369H15.2741L15.2393 17.9395ZM8.3881 4.4395C8.5695 4.25811 8.72299 4.07671 8.72299 4.04183C8.72299 3.94415 6.89508 2.11624 6.80438 2.11624C6.76252 2.11624 6.13462 2.71624 5.40903 3.44183L4.08345 4.76741H6.07183H8.05322L8.3881 4.4395ZM11.9672 4.1395C11.6253 3.79764 11.3393 3.51159 11.3393 3.51159C11.3393 3.51159 11.0532 3.79764 10.7114 4.1395L10.0835 4.76741H11.3393H12.5951L11.9672 4.1395Z"/>
<path d="M7.74627 15.1208C6.41371 14.8348 5.26953 13.7325 4.92069 12.4069C4.83697 12.079 4.81604 11.5557 4.81604 9.88129V7.76733H5.50674H6.20441L6.22534 9.88129C6.24627 11.6952 6.2672 12.0371 6.37883 12.3162C6.53929 12.7557 7.0486 13.3069 7.49511 13.5441C7.80906 13.7115 7.92767 13.7325 8.51371 13.7325C9.09976 13.7325 9.21836 13.7115 9.53232 13.5441C9.97883 13.3069 10.4881 12.7557 10.6486 12.3162C10.7602 12.0371 10.7812 11.6952 10.8021 9.88129L10.823 7.76733H11.5207H12.2114V9.88129C12.2114 12.2185 12.1765 12.4697 11.7788 13.2371C11.4788 13.8092 10.7463 14.5278 10.1812 14.8069C9.69976 15.0441 8.92534 15.2325 8.47883 15.2255C8.32534 15.2255 7.99743 15.1766 7.74627 15.1208Z"/>
</svg>
