<svg viewBox="0 0 43 43" fill="none" xmlns="http://www.w3.org/2000/svg">
<ellipse cx="20.813" cy="21.6678" rx="17.9348" ry="18.1236" fill="#CBD5E1" fill-opacity="0.24"/>
<path d="M18.6417 34.1776L16.5721 34.1455L16.4007 33.9851C15.8801 33.4911 15.9563 32.7726 16.5594 32.4647C16.826 32.3235 16.9086 32.3171 18.3497 32.3171H19.8607V31.2906V30.2642L19.6893 30.2321C16.9784 29.6739 15.0675 27.8648 14.3247 25.1447C14.1977 24.6892 14.185 24.4646 14.166 22.0845L14.1406 19.5183L14.2866 19.2681C14.6612 18.6202 15.5436 18.6394 15.8738 19.3002C15.9753 19.4927 15.988 19.7493 15.988 21.706C15.988 24.1503 16.0452 24.6828 16.3753 25.4911C16.9975 26.9987 18.3497 28.0893 19.9559 28.3716C20.2606 28.4229 20.6479 28.4679 20.813 28.4679C20.978 28.4679 21.3653 28.4229 21.67 28.3716C23.2762 28.0893 24.6285 26.9987 25.2506 25.4911C25.5871 24.6763 25.6379 24.1567 25.6379 21.6675C25.6379 19.467 25.6379 19.4414 25.7839 19.2296C26.1966 18.6202 27.0727 18.6651 27.3774 19.3195C27.4663 19.5055 27.479 19.8455 27.479 21.8086C27.479 23.4895 27.4536 24.2208 27.3837 24.6507C27.0409 26.7998 25.695 28.6411 23.765 29.6098C23.2508 29.8664 22.3049 30.2 22.0827 30.2C21.7716 30.2 21.7652 30.2128 21.7652 31.297V32.3171H23.2762C24.7173 32.3171 24.7999 32.3235 25.0665 32.4647C25.6696 32.7726 25.7458 33.4911 25.2252 33.9851C25.0411 34.1647 25.3966 34.1391 21.816 34.1968C21.2129 34.2032 19.7845 34.1968 18.6417 34.1776Z" fill="#6D28D9"/>
<path d="M20.2416 26.4151C19.4988 26.2547 18.6862 25.6388 18.318 24.9524C17.9561 24.2788 17.9561 24.2852 17.9561 17.812C17.9561 14.1232 17.9815 11.7366 18.0196 11.5249C18.1846 10.6268 18.8258 9.79275 19.6512 9.39499C20.0575 9.20253 20.121 9.1897 20.8129 9.1897C21.4986 9.1897 21.5684 9.20253 21.9684 9.39499C22.6985 9.74142 23.2064 10.306 23.4857 11.0822L23.6381 11.4992V17.7864C23.6381 24.8626 23.6698 24.4135 23.1492 25.1962C22.8445 25.6581 22.3112 26.0879 21.7906 26.2868C21.378 26.4408 20.6542 26.4985 20.2416 26.4151Z" fill="url(#paint0_linear_31_377)"/>
<path d="M40.4375 21.6678C40.4375 32.6362 31.6412 41.5099 20.8125 41.5099C9.98376 41.5099 1.1875 32.6362 1.1875 21.6678C1.1875 10.6994 9.98376 1.82568 20.8125 1.82568C31.6412 1.82568 40.4375 10.6994 40.4375 21.6678Z" stroke="url(#paint1_linear_31_377)" stroke-width="2"/>
<defs>
<linearGradient id="paint0_linear_31_377" x1="20.7973" y1="9.1897" x2="20.7973" y2="26.4533" gradientUnits="userSpaceOnUse">
<stop stop-color="#D48AE6"/>
<stop offset="0.492158" stop-color="#B09ED3"/>
<stop offset="0.893556" stop-color="#4D44BF"/>
</linearGradient>
<linearGradient id="paint1_linear_31_377" x1="20.8125" y1="0.825684" x2="20.8125" y2="42.5099" gradientUnits="userSpaceOnUse">
<stop stop-color="#D18DE4"/>
<stop offset="0.494792" stop-color="#B19ED4"/>
<stop offset="1" stop-color="#4E45BF"/>
</linearGradient>
</defs>
</svg>
