<svg width="22" height="14" viewBox="0 0 22 14" fill="currentColor" xmlns="http://www.w3.org/2000/svg">
<path d="M0.482385 13.1716C0.286976 13.0519 0.261762 12.9983 0.252306 12.661C0.214485 11.5989 0.643125 10.5588 1.44052 9.78664C2.01729 9.22878 2.62874 8.90415 3.42928 8.73395C3.76022 8.66461 4.68369 8.65516 5.02093 8.71819C5.53782 8.81275 6.05155 9.01446 6.45813 9.27605C6.58105 9.35485 6.68506 9.41788 6.68821 9.41158C6.69136 9.40528 6.77961 9.30442 6.88047 9.18465C7.50452 8.45975 8.62024 7.81364 9.60674 7.60877C9.95028 7.53628 10.7036 7.48585 11.1038 7.50792C11.4946 7.52998 12.0809 7.64029 12.4591 7.76321C12.7522 7.85776 13.3699 8.16348 13.6505 8.35259C13.953 8.5543 14.3092 8.86002 14.5802 9.14998L14.8261 9.41473L14.9963 9.30127C15.2642 9.12162 15.7747 8.89154 16.0962 8.80644C16.9031 8.58897 17.9053 8.62679 18.6586 8.89784C19.4276 9.1752 20.1431 9.73621 20.5875 10.4075C21.035 11.0852 21.2399 11.747 21.2494 12.5539C21.2525 12.9037 21.2462 12.9416 21.18 13.0361C21.139 13.0928 21.0666 13.159 21.0161 13.1842C20.9342 13.2252 19.6861 13.2315 10.7508 13.2315C0.90157 13.2315 0.573786 13.2284 0.482385 13.1716ZM5.61346 11.9235C5.64813 11.5894 5.77735 11.0978 5.91918 10.7353L6.0484 10.4107L5.94439 10.3224C5.7868 10.1901 5.3361 9.96944 5.03668 9.87804C4.50404 9.7173 4.02812 9.7173 3.49232 9.87804C2.50897 10.1775 1.74939 10.937 1.44367 11.9298C1.409 12.0433 1.38064 12.141 1.38064 12.1473C1.38064 12.1536 2.32617 12.1568 3.48602 12.1536L5.58824 12.1442L5.61346 11.9235ZM14.7914 12.0591C14.6117 11.145 14.202 10.3823 13.5685 9.77403C12.7963 9.03337 11.7594 8.59843 10.7603 8.59843C9.40818 8.59843 8.06238 9.34854 7.31541 10.5147C7.04751 10.9307 6.767 11.6273 6.71973 11.996L6.69766 12.1599H10.7571H14.8135L14.7914 12.0591ZM20.0864 12.0433C20.0548 11.87 19.8909 11.4791 19.7554 11.2491C19.2165 10.335 18.2457 9.76458 17.234 9.76458C16.6793 9.76458 16.1057 9.94423 15.6298 10.2657L15.4375 10.3981L15.4879 10.5147C15.6329 10.8425 15.7905 11.372 15.8535 11.7439L15.926 12.1599H18.0156H20.1084L20.0864 12.0433Z"/>
<path d="M3.61829 8.29881C2.97533 8.15698 2.40486 7.79453 2.03295 7.2934C1.80917 6.98768 1.72408 6.82694 1.59485 6.44558C1.5003 6.16507 1.494 6.1367 1.494 5.60405C1.49085 5.12183 1.5003 5.01783 1.56334 4.78775C1.81863 3.85167 2.49941 3.16459 3.45124 2.87147C3.70654 2.79583 3.77272 2.78638 4.2644 2.78638C4.75607 2.78638 4.82226 2.79583 5.07755 2.87147C5.98526 3.14883 6.63137 3.77288 6.92764 4.65537C7.06947 5.08401 7.06947 6.06106 6.92764 6.48655C6.70071 7.15787 6.19328 7.75356 5.58184 8.06243C5.18156 8.26099 4.91681 8.32088 4.34319 8.33348C3.96813 8.34294 3.76642 8.33348 3.61829 8.29881ZM4.50708 7.23037C4.79705 7.17363 4.93888 7.11375 5.17841 6.95301C5.55032 6.70402 5.8655 6.23126 5.93799 5.81837C6.10503 4.86654 5.24775 3.87058 4.2581 3.87058C3.6435 3.87058 3.03206 4.28031 2.73264 4.89491L2.59396 5.17857V5.54102C2.59396 5.87826 2.60027 5.91923 2.69797 6.15246C2.9249 6.70087 3.34408 7.05387 3.94292 7.21145C4.22658 7.28395 4.22658 7.28395 4.50708 7.23037Z"/>
<path d="M16.6193 8.30184C16.3735 8.25141 16.0015 8.12534 15.9385 8.07176C15.9133 8.04969 15.8786 8.03078 15.866 8.03078C15.8534 8.03078 15.7431 7.96144 15.617 7.87635C15.2672 7.63996 14.9299 7.26175 14.7535 6.91506C14.1924 5.80879 14.3784 4.44092 15.2042 3.5994C15.6139 3.18022 16.1213 2.91232 16.6823 2.81461C17.7823 2.62236 18.8413 3.01002 19.459 3.82948C19.6513 4.08477 19.8625 4.50081 19.916 4.73719C19.9349 4.82544 19.9633 4.91684 19.9759 4.94521C20.0547 5.10595 20.0358 5.95377 19.9444 6.34459C19.8877 6.58097 19.6797 7.00331 19.5063 7.23969C19.0588 7.84168 18.482 8.19467 17.7539 8.31444C17.4986 8.35541 16.8525 8.34911 16.6193 8.30184ZM17.5175 7.22393C18.1574 7.0758 18.5923 6.68183 18.8507 6.01996C18.9043 5.87813 18.9201 5.78042 18.9169 5.54089C18.9169 5.27614 18.9043 5.21311 18.8129 4.99563C18.5765 4.44092 18.1416 4.05956 17.5743 3.91458C16.903 3.74123 16.0961 4.1352 15.7431 4.80653C15.4657 5.33287 15.4626 5.76151 15.7336 6.28155C15.9889 6.77953 16.4617 7.13883 16.9817 7.23024C17.256 7.28066 17.2812 7.28066 17.5175 7.22393Z"/>
<path d="M10.1266 7.04116C9.84604 6.99388 9.36698 6.8363 9.10223 6.70707C8.74923 6.53057 8.39938 6.25952 8.04954 5.88761C7.76273 5.58504 7.4444 4.97045 7.31833 4.47878C7.22062 4.09741 7.1828 3.42924 7.23953 3.01005C7.34354 2.24417 7.64296 1.62013 8.18191 1.05911C8.90682 0.30584 9.79877 -0.0377023 10.9145 0.00327067C11.8096 0.0410918 12.544 0.334206 13.1901 0.923586C13.6124 1.30495 14.0347 2.0141 14.1766 2.57826C14.3058 3.0983 14.3152 3.89885 14.1923 4.41889C13.9528 5.45897 13.1491 6.41711 12.2004 6.79217C11.6867 6.99704 11.403 7.05692 10.8672 7.06953C10.5457 7.07898 10.2936 7.06953 10.1266 7.04116ZM11.2171 5.92228C11.7308 5.78991 12.1153 5.57874 12.4557 5.23835C13.0325 4.65843 13.2972 3.86103 13.1554 3.14558C12.8812 1.77771 11.5511 0.857399 10.2652 1.14736C9.77986 1.25452 9.34807 1.50981 8.96985 1.91324C8.55067 2.35764 8.30168 2.96908 8.30798 3.53955C8.31113 4.01862 8.47503 4.51344 8.76814 4.92317C9.33231 5.71112 10.3755 6.13976 11.2171 5.92228Z"/>
</svg>
