<svg width="31" height="26" viewBox="0 0 31 26" fill="none" xmlns="http://www.w3.org/2000/svg">
<path d="M3.26764 26H3.43013C6.24673 25.675 8.90084 24.7 11.1755 23.0209L11.2838 22.9667C12.8004 23.3459 14.3171 23.5084 15.8337 23.5084C24.1752 23.5084 31 18.2544 31 11.7542C31 5.25404 24.229 0 15.8882 0C13.8841 0 11.9341 0.270827 10.0383 0.920811C9.49666 1.08331 9.17166 1.62496 9.27999 2.22078C9.38832 2.8166 9.98414 3.19576 10.58 3.03326C10.6341 3.03326 10.6341 3.03326 10.6883 2.9791C12.3674 2.43744 14.1549 2.16662 15.8882 2.16662C23.038 2.16662 28.8879 6.44568 28.8879 11.7542C28.8879 17.0627 23.038 21.3418 15.8882 21.3418C14.3715 21.3418 12.9091 21.1793 11.4466 20.746C10.8508 20.5835 10.4716 20.8543 9.98414 21.2334C8.84667 22.0459 7.5467 22.6959 6.19257 23.1292C5.92174 23.2376 5.59675 23.0751 5.48842 22.8042C5.43425 22.6959 5.43425 22.5334 5.48842 22.4251C6.3009 20.5835 6.62589 18.5793 5.75924 17.7669C3.97179 16.2502 2.88848 14.0836 2.83431 11.7545C2.88848 9.58789 3.80929 7.47544 5.43425 6.01298C5.86757 5.57965 5.92174 4.8755 5.48842 4.44218C5.0551 4.00886 4.40511 4.00886 3.97179 4.44218C1.9135 6.33797 0.721865 8.99207 0.6677 11.7542C0.77603 14.625 2.02183 17.3332 4.18845 19.229C4.24261 19.9332 3.59263 22.0998 2.29266 23.7247C1.80517 24.2664 1.80517 25.133 2.34683 25.6205C2.61765 25.8914 2.94265 25.9997 3.26764 25.9997V26Z" fill="white"/>
<path d="M22.2262 14.8412C23.8512 15.2204 25.422 14.2454 25.8011 12.6205C26.1803 10.9955 25.2053 9.42469 23.5804 9.04554C21.9554 8.66638 20.3846 9.64136 20.0054 11.2663C19.8971 11.6996 19.8971 12.1871 20.0054 12.6205C20.2763 13.7038 21.1429 14.5704 22.2262 14.8412ZM22.9304 11.1038C23.3637 11.1038 23.7429 11.483 23.7429 11.9163C23.7429 12.3496 23.3637 12.7288 22.9304 12.7288C22.4971 12.7288 22.1179 12.3496 22.1179 11.9163C22.1179 11.483 22.4971 11.1038 22.9304 11.1038Z" fill="white"/>
<path d="M15.1837 14.8412C16.8087 15.2204 18.3795 14.2454 18.7587 12.6205C19.1378 10.9955 18.1628 9.42469 16.5379 9.04554C14.9129 8.66638 13.3421 9.64136 12.963 11.2663C12.8546 11.6996 12.8546 12.1871 12.963 12.6205C13.2338 13.7038 14.1004 14.5704 15.1837 14.8412ZM15.8879 11.1038C16.3212 11.1038 16.7004 11.483 16.7004 11.9163C16.7004 12.3496 16.3212 12.7288 15.8879 12.7288C15.4546 12.7288 15.0754 12.3496 15.0754 11.9163C15.0754 11.483 15.4546 11.1038 15.8879 11.1038Z" fill="white"/>
<path d="M8.14322 14.8412C9.76818 15.2204 11.339 14.2454 11.7181 12.6205C12.0973 10.9955 11.1223 9.42469 9.49735 9.04554C7.87239 8.66638 6.3016 9.64136 5.92244 11.2663C5.81411 11.6996 5.81411 12.1871 5.92244 12.6205C6.19327 13.7038 7.05991 14.5704 8.14322 14.8412ZM8.84737 11.1038C9.28069 11.1038 9.65985 11.483 9.65985 11.9163C9.65985 12.3496 9.28069 12.7288 8.84737 12.7288C8.41405 12.7288 8.03489 12.3496 8.03489 11.9163C8.03489 11.483 8.41405 11.1038 8.84737 11.1038Z" fill="white"/>
</svg>
