<svg width="17" height="25" viewBox="0 0 17 25" fill="none" xmlns="http://www.w3.org/2000/svg">
<path d="M8.49996 17C9.78816 17 11.0236 16.4883 11.9345 15.5774C12.8454 14.6665 13.3571 13.4311 13.3571 12.1429V4.85714C13.3571 3.56895 12.8454 2.33352 11.9345 1.42262C11.0236 0.511733 9.78816 0 8.49996 0C7.21177 0 5.97634 0.511733 5.06545 1.42262C4.15456 2.33352 3.64282 3.56895 3.64282 4.85714V12.1429C3.64282 13.4311 4.15456 14.6665 5.06545 15.5774C5.97634 16.4883 7.21177 17 8.49996 17Z" fill="white"/>
<path d="M15.7857 9.71387C15.4637 9.71387 15.1548 9.8418 14.9271 10.0695C14.6994 10.2972 14.5714 10.6061 14.5714 10.9282V12.1424C14.5714 13.7527 13.9318 15.297 12.7931 16.4356C11.6545 17.5742 10.1102 18.2139 8.5 18.2139C6.88976 18.2139 5.34547 17.5742 4.20685 16.4356C3.06824 15.297 2.42857 13.7527 2.42857 12.1424V10.9282C2.42857 10.6061 2.30064 10.2972 2.07292 10.0695C1.84519 9.8418 1.53633 9.71387 1.21429 9.71387C0.892237 9.71387 0.583379 9.8418 0.355656 10.0695C0.127934 10.2972 0 10.6061 0 10.9282V12.1424C0.00239349 14.1847 0.739994 16.1578 2.07786 17.7008C2.85883 18.6015 3.81387 19.3205 4.87569 19.8211C6.18705 20.4393 7.28571 21.6212 7.28571 23.071C7.28571 23.3931 7.41365 23.7019 7.64137 23.9296C7.86909 24.1574 8.17795 24.2853 8.5 24.2853C8.82205 24.2853 9.13091 24.1574 9.35863 23.9296C9.58635 23.7019 9.71429 23.3931 9.71429 23.071C9.71429 21.6212 10.8129 20.4393 12.1243 19.8211C13.1861 19.3205 14.1412 18.6015 14.9221 17.7008C16.26 16.1578 16.9976 14.1847 17 12.1424V10.9282C17 10.6061 16.8721 10.2972 16.6443 10.0695C16.4166 9.8418 16.1078 9.71387 15.7857 9.71387Z" fill="white"/>
</svg>
