<svg width="819" height="1024" viewBox="0 0 819 1024" fill="none" xmlns="http://www.w3.org/2000/svg">
<g opacity="0.5">
<path d="M346.52 438.5C395.185 333.77 557.408 133.915 816.982 172.338" stroke="black" stroke-opacity="0.2"/>
<ellipse cx="156.095" cy="310.5" rx="22.4029" ry="22" fill="#DF5A43"/>
<ellipse cx="334.81" cy="442" rx="13.7473" ry="13.5" fill="#DF5A43"/>
<path d="M216.444 786C216.444 799.656 205.167 810.75 191.227 810.75C177.287 810.75 166.01 799.656 166.01 786C166.01 772.344 177.287 761.25 191.227 761.25C205.167 761.25 216.444 772.344 216.444 786Z" stroke="#DF5A43" stroke-width="1.5"/>
<ellipse cx="335.828" cy="702" rx="14.7656" ry="14.5" fill="#F7C950"/>
<ellipse cx="92.9598" cy="598.5" rx="22.4029" ry="22" fill="#F7C950"/>
<ellipse cx="85.3224" cy="83" rx="14.7656" ry="14.5" fill="#F7C950"/>
<path d="M333.55 129C333.55 140.447 324.097 149.75 312.406 149.75C300.716 149.75 291.263 140.447 291.263 129C291.263 117.553 300.716 108.25 312.406 108.25C324.097 108.25 333.55 117.553 333.55 129Z" stroke="#F7C954" stroke-width="1.5"/>
<path d="M101.106 84.5242C146.252 83.0242 214.648 77.5234 291.022 122.524" stroke="black" stroke-opacity="0.2"/>
<path d="M300.187 149C263.528 165.833 186.543 218.5 171.879 294.5" stroke="black" stroke-opacity="0.2"/>
<path d="M176.461 325.5C214.648 329.667 297.641 356.9 324.117 432.5" stroke="black" stroke-opacity="0.2"/>
<path d="M133.692 305.5C125.474 284.833 84.0297 242.7 -16 239.5" stroke="black" stroke-opacity="0.2"/>
<path d="M87.8682 96.5C114.005 118.5 162.918 187.9 149.476 289.5" stroke="black" stroke-opacity="0.2"/>
<path d="M69.5385 82.5C49.6814 86.6667 7.31948 107.6 -3.271 158" stroke="black" stroke-opacity="0.2"/>
<path d="M333.791 688C308.842 649.333 273.914 548.4 333.791 454" stroke="black" stroke-opacity="0.2"/>
<path d="M321.571 446.5C270.656 456.333 157.113 497.9 110.271 585.5" stroke="black" stroke-opacity="0.2"/>
<path d="M71.5751 600C63.9378 588.834 39.2945 567.3 1.82056 570.5" stroke="black" stroke-opacity="0.2"/>
<path d="M321.571 438.5C255.551 416 98.5605 381.4 -1.23438 423" stroke="black" stroke-opacity="0.2"/>
<path d="M145.403 331.5C112.987 361.333 57.0136 452 92.4509 576" stroke="black" stroke-opacity="0.2"/>
<path d="M85.8307 69C81.9272 55.1667 78.7025 22 97.0322 0" stroke="black" stroke-opacity="0.2"/>
<path d="M317.498 110.5C337.695 76 387.864 5.9 426.967 1.5" stroke="black" stroke-opacity="0.2"/>
<path d="M323.099 149C338.883 188 364.035 298.8 338.374 430" stroke="black" stroke-opacity="0.2"/>
<path d="M102.634 615C124.018 639.5 168.824 703.5 176.971 763.5" stroke="black" stroke-opacity="0.2"/>
<path d="M217.703 778.5C234.845 761.667 279.311 724.5 320.044 710.5" stroke="black" stroke-opacity="0.2"/>
<path d="M166.278 794.999C132.844 787.333 51.9217 776.599 -4.28931 794.999" stroke="black" stroke-opacity="0.2"/>
<path d="M347.539 709.5C366.717 730.833 402.833 876.8 404.055 922" stroke="black" stroke-opacity="0.2"/>
<path d="M394.381 944C327.002 928.667 153.244 912.4 -2.76196 970" stroke="black" stroke-opacity="0.2"/>
<path d="M407.11 953.5C381.992 976.167 329.107 1036.2 318.517 1095" stroke="black" stroke-opacity="0.2"/>
<path d="M176.462 809C131.656 873.667 64.8541 1025.1 80.7398 1099.5" stroke="black" stroke-opacity="0.2"/>
<path d="M419.089 937.5C419.089 945.357 412.599 951.75 404.564 951.75C396.529 951.75 390.039 945.357 390.039 937.5C390.039 929.643 396.529 923.25 404.564 923.25C412.599 923.25 419.089 929.643 419.089 937.5Z" stroke="#F7C954" stroke-width="1.5"/>
<ellipse cx="692.747" cy="124" rx="26.9853" ry="26.5" fill="#DF5A43"/>
<path d="M762.77 383.5C762.77 390.253 757.192 395.75 750.282 395.75C743.372 395.75 737.794 390.253 737.794 383.5C737.794 376.747 743.372 371.25 750.282 371.25C757.192 371.25 762.77 376.747 762.77 383.5Z" stroke="#DF5A43" stroke-width="1.5"/>
<path d="M589.657 846.5C589.657 853.253 584.078 858.75 577.169 858.75C570.259 858.75 564.68 853.253 564.68 846.5C564.68 839.747 570.259 834.25 577.169 834.25C584.078 834.25 589.657 839.747 589.657 846.5Z" stroke="#DF5A43" stroke-width="1.5"/>
<ellipse cx="631.648" cy="603" rx="21.8938" ry="21.5" fill="#F7C950"/>
<ellipse cx="750.791" cy="769" rx="21.8938" ry="21.5" fill="#DF5A43"/>
<path d="M749.532 994.5C749.532 1004.01 741.674 1011.75 731.952 1011.75C722.23 1011.75 714.373 1004.01 714.373 994.5C714.373 984.986 722.23 977.25 731.952 977.25C741.674 977.25 749.532 984.986 749.532 994.5Z" stroke="#F7C954" stroke-width="1.5"/>
<path d="M483.483 165C523.537 147.167 562.403 122 665.253 130" stroke="black" stroke-opacity="0.2"/>
<path d="M480.428 168.5C547.468 179.333 694.173 235.4 744.681 373" stroke="black" stroke-opacity="0.2"/>
<path d="M720.242 136C754.695 150.167 822.175 192.3 816.472 247.5" stroke="black" stroke-opacity="0.2"/>
<path d="M703.439 149.5C725.673 191.667 767.186 294.7 755.374 369.5" stroke="black" stroke-opacity="0.2"/>
<path d="M764.029 383C771.497 376.833 792.135 363.6 814.945 360" stroke="black" stroke-opacity="0.2"/>
<path d="M474.319 406C514.881 393 676.454 364.8 737.553 390" stroke="black" stroke-opacity="0.2"/>
<path d="M754.864 396.5C754.525 432.333 733.073 521.1 649.978 589.5" stroke="black" stroke-opacity="0.2"/>
<path d="M647.432 619C670.514 634.167 722.889 681.1 747.736 747.5" stroke="black" stroke-opacity="0.2"/>
<path d="M653.033 605.5C687.147 601.167 767.084 595.1 813.927 605.5" stroke="black" stroke-opacity="0.2"/>
<path d="M765.557 787.5C779.511 816.617 809.231 881.181 816.472 906.5" stroke="black" stroke-opacity="0.2"/>
<path d="M483.993 438.5C528.171 461.291 617.921 521.797 623.502 581.5" stroke="black" stroke-opacity="0.2"/>
<path d="M629.103 624.5C631.988 662.167 626.15 756.7 579.714 833.5" stroke="black" stroke-opacity="0.2"/>
<path d="M607.209 606.5C523.782 617.977 428.529 653.892 350.594 702.5" stroke="black" stroke-opacity="0.2"/>
<path d="M589.388 856C620.786 871.5 690.609 918.1 718.714 980.5" stroke="black" stroke-opacity="0.2"/>
<path d="M718.714 1008.5C694.444 1020.83 640.813 1055.7 620.447 1096.5" stroke="black" stroke-opacity="0.2"/>
<path d="M749.772 793C741.965 813.667 726.962 879.3 729.406 976.5" stroke="black" stroke-opacity="0.2"/>
<ellipse cx="483.484" cy="170" rx="14.7656" ry="14.5" fill="#F7C950"/>
<path d="M334.3 127.5C365.189 121.667 435.317 120.9 468.718 164.5" stroke="black" stroke-opacity="0.2"/>
<path d="M487.048 156.5C489.763 118.167 504.766 33.3 543.055 0.5" stroke="black" stroke-opacity="0.2"/>
<path d="M700.893 98.5C698.857 76.5 704.355 26.1 742.644 0.5" stroke="black" stroke-opacity="0.2"/>
<path d="M573.095 857.5C545.94 891 495.805 986 512.506 1098" stroke="black" stroke-opacity="0.2"/>
<path d="M749.264 1007.5C762.162 1015.83 793.968 1045.8 818 1099" stroke="black" stroke-opacity="0.2"/>
<path d="M566.476 856C530.156 865.5 450.388 894.2 421.875 933" stroke="black" stroke-opacity="0.2"/>
</g>
</svg>
