<svg xmlns="http://www.w3.org/2000/svg" xmlns:xlink="http://www.w3.org/1999/xlink" width="100" zoomAndPan="magnify" viewBox="0 0 75 74.999997" height="100" preserveAspectRatio="xMidYMid meet" version="1.0"><defs><g/></defs><g fill="#ffffff" fill-opacity="1"><g transform="translate(11.700001, 30.455514)"><g><path d="M 0.328125 -0.5625 L 0.578125 -0.28125 L 1.046875 -0.71875 L 2.34375 0.1875 L 4.046875 -1 L 3.8125 -1.3125 L 3.09375 -0.8125 L 2.34375 -1.34375 L 2.34375 -4.34375 L 2.75 -4.90625 C 3.113281 -4.507812 3.445312 -4.3125 3.75 -4.3125 C 3.988281 -4.3125 4.238281 -4.441406 4.5 -4.703125 C 4.5 -4.703125 4.671875 -4.945312 5.015625 -5.4375 L 4.703125 -5.671875 C 4.671875 -5.628906 4.640625 -5.582031 4.609375 -5.53125 C 4.578125 -5.488281 4.546875 -5.445312 4.515625 -5.40625 C 4.429688 -5.289062 4.351562 -5.234375 4.28125 -5.234375 C 4.125 -5.234375 3.796875 -5.585938 3.296875 -6.296875 L 2.34375 -4.984375 C 2.28125 -5.390625 2.046875 -5.828125 1.640625 -6.296875 L 0.09375 -4.96875 L 0.34375 -4.671875 L 0.828125 -5.078125 C 1.054688 -4.804688 1.171875 -4.421875 1.171875 -3.921875 L 1.171875 -1.328125 Z M 0.328125 -0.5625 "/></g></g></g><g fill="#ffffff" fill-opacity="1"><g transform="translate(16.63748, 30.455514)"><g><path d="M 0.375 -0.5625 L 0.625 -0.25 L 1.03125 -0.625 L 2.359375 0.1875 L 4.8125 -1.421875 L 4.59375 -1.75 L 3.109375 -0.765625 L 2.359375 -1.234375 L 2.359375 -2.15625 L 5.3125 -4.109375 L 3.546875 -6.296875 C 2.691406 -5.578125 1.660156 -5.21875 0.453125 -5.21875 L 0.453125 -4.84375 C 0.585938 -4.832031 0.6875 -4.820312 0.75 -4.8125 C 0.820312 -4.8125 0.859375 -4.8125 0.859375 -4.8125 C 0.859375 -4.8125 0.882812 -4.8125 0.9375 -4.8125 C 1 -4.8125 1.082031 -4.816406 1.1875 -4.828125 L 1.1875 -1.3125 Z M 4.015625 -3.734375 L 2.359375 -2.609375 L 2.359375 -5.0625 L 2.796875 -5.203125 Z M 4.015625 -3.734375 "/></g></g></g><g fill="#ffffff" fill-opacity="1"><g transform="translate(21.773773, 30.455514)"><g><path d="M 0.296875 3.5625 L 0.546875 3.84375 L 2.328125 2.25 L 2.328125 -0.5625 C 2.535156 -0.425781 2.722656 -0.296875 2.890625 -0.171875 C 3.066406 -0.0546875 3.226562 0.0546875 3.375 0.171875 C 3.550781 -0.0234375 3.71875 -0.191406 3.875 -0.328125 C 4.039062 -0.472656 4.207031 -0.585938 4.375 -0.671875 C 4.550781 -0.753906 4.742188 -0.8125 4.953125 -0.84375 C 5.160156 -0.882812 5.40625 -0.90625 5.6875 -0.90625 L 5.6875 -1.296875 C 5.625 -1.304688 5.570312 -1.3125 5.53125 -1.3125 C 5.5 -1.3125 5.484375 -1.3125 5.484375 -1.3125 C 5.484375 -1.3125 5.46875 -1.3125 5.4375 -1.3125 C 5.40625 -1.3125 5.351562 -1.304688 5.28125 -1.296875 L 5.28125 -4.8125 L 6.125 -5.53125 L 5.859375 -5.8125 L 5.359375 -5.390625 L 4.09375 -6.296875 L 2.328125 -4.703125 C 2.328125 -5.035156 2.257812 -5.332031 2.125 -5.59375 C 2.082031 -5.664062 2.015625 -5.757812 1.921875 -5.875 C 1.835938 -6 1.722656 -6.140625 1.578125 -6.296875 L 0.09375 -4.96875 L 0.34375 -4.6875 L 0.78125 -5.078125 C 1.03125 -4.785156 1.15625 -4.398438 1.15625 -3.921875 L 1.15625 -1.296875 L 0.328125 -0.5625 L 0.59375 -0.265625 L 1.15625 -0.765625 L 1.15625 2.78125 Z M 2.484375 -1.671875 C 2.484375 -1.671875 2.46875 -1.671875 2.4375 -1.671875 C 2.414062 -1.671875 2.378906 -1.664062 2.328125 -1.65625 L 2.328125 -4.1875 L 3.46875 -5.203125 L 4.125 -4.71875 L 4.125 -1.03125 C 4.0625 -1.007812 3.988281 -0.957031 3.90625 -0.875 C 3.582031 -1.40625 3.109375 -1.671875 2.484375 -1.671875 Z M 2.484375 -1.671875 "/></g></g></g><g fill="#ffffff" fill-opacity="1"><g transform="translate(28.26871, 30.455514)"><g><path d="M 6.078125 -5.546875 L 5.828125 -5.859375 L 5.265625 -5.40625 L 4.359375 -6.296875 L 3.015625 -5.125 L 3.265625 -4.84375 L 3.703125 -5.1875 L 4.046875 -4.84375 L 4.046875 -2.171875 L 2.65625 -0.96875 L 2.25 -1.296875 L 2.25 -4.46875 C 2.25 -5.269531 2.023438 -5.878906 1.578125 -6.296875 L 0.09375 -5 L 0.34375 -4.71875 L 0.796875 -5.109375 C 0.992188 -4.890625 1.09375 -4.515625 1.09375 -3.984375 L 1.09375 -1.234375 L 0.234375 -0.5 L 0.484375 -0.203125 L 1 -0.625 L 1.90625 0.1875 L 4.046875 -1.640625 C 4.046875 -1.171875 4.078125 -0.832031 4.140625 -0.625 C 4.222656 -0.332031 4.410156 -0.0625 4.703125 0.1875 L 6.25 -1.09375 L 6 -1.390625 L 5.484375 -0.96875 C 5.296875 -1.15625 5.203125 -1.535156 5.203125 -2.109375 L 5.203125 -4.828125 Z M 6.078125 -5.546875 "/></g></g></g><g fill="#ffffff" fill-opacity="1"><g transform="translate(34.69737, 30.455514)"><g><path d="M 0.359375 -0.5625 L 0.609375 -0.265625 L 1.140625 -0.71875 L 2.125 0.1875 L 3.625 -1.078125 L 3.375 -1.375 L 2.796875 -0.875 L 2.453125 -1.203125 L 2.453125 -5.328125 L 2.90625 -5.328125 C 3.269531 -5.328125 3.507812 -5.46875 3.625 -5.75 L 4 -6.671875 L 3.640625 -6.8125 L 3.421875 -6.296875 L 2.453125 -6.296875 L 2.453125 -8.96875 L 3.15625 -9.578125 L 2.90625 -9.875 L 1.296875 -8.515625 L 1.296875 -6.296875 L 0.921875 -6.296875 C 0.703125 -6.296875 0.515625 -6.117188 0.359375 -5.765625 L 0.015625 -4.890625 L 0.359375 -4.734375 L 0.609375 -5.328125 L 1.296875 -5.328125 L 1.296875 -1.34375 Z M 0.359375 -0.5625 "/></g></g></g><g fill="#ffffff" fill-opacity="1"><g transform="translate(38.591013, 30.455514)"><g><path d="M 3.578125 -1.328125 C 3.578125 -0.773438 3.785156 -0.269531 4.203125 0.1875 L 5.765625 -1.0625 L 5.515625 -1.359375 L 5.0625 -0.984375 C 4.84375 -1.265625 4.734375 -1.648438 4.734375 -2.140625 L 4.734375 -4.8125 L 5.625 -5.515625 L 5.375 -5.8125 L 4.8125 -5.390625 L 3.890625 -6.296875 C 3.390625 -5.546875 2.648438 -5.046875 1.671875 -4.796875 L 1.59375 -4.890625 C 2.019531 -4.929688 2.234375 -5.15625 2.234375 -5.5625 C 2.234375 -5.769531 2.164062 -5.9375 2.03125 -6.0625 C 1.894531 -6.1875 1.734375 -6.25 1.546875 -6.25 C 1.066406 -6.25 0.828125 -6.007812 0.828125 -5.53125 C 0.828125 -5.226562 1.265625 -4.625 2.140625 -3.71875 L 1.125 -2.765625 C 0.625 -2.304688 0.375 -1.804688 0.375 -1.265625 C 0.375 -0.503906 0.859375 -0.0195312 1.828125 0.1875 Z M 3.578125 -1.84375 L 2.484375 -0.890625 C 2.347656 -0.890625 2.210938 -0.921875 2.078125 -0.984375 C 1.941406 -1.046875 1.816406 -1.128906 1.703125 -1.234375 C 1.597656 -1.335938 1.507812 -1.457031 1.4375 -1.59375 C 1.363281 -1.726562 1.328125 -1.859375 1.328125 -1.984375 C 1.328125 -2.234375 1.457031 -2.5 1.71875 -2.78125 C 1.832031 -2.894531 1.941406 -3 2.046875 -3.09375 C 2.160156 -3.195312 2.273438 -3.304688 2.390625 -3.421875 L 2.8125 -2.9375 L 3.109375 -3.203125 L 1.96875 -4.46875 C 2.4375 -4.601562 2.859375 -4.796875 3.234375 -5.046875 L 3.578125 -4.71875 Z M 3.578125 -1.84375 "/></g></g></g><g fill="#ffffff" fill-opacity="1"><g transform="translate(44.655167, 30.455514)"><g><path d="M 0.359375 -0.5625 L 0.609375 -0.265625 L 1.140625 -0.71875 L 2.125 0.1875 L 3.625 -1.078125 L 3.375 -1.375 L 2.796875 -0.875 L 2.453125 -1.203125 L 2.453125 -5.328125 L 2.90625 -5.328125 C 3.269531 -5.328125 3.507812 -5.46875 3.625 -5.75 L 4 -6.671875 L 3.640625 -6.8125 L 3.421875 -6.296875 L 2.453125 -6.296875 L 2.453125 -8.96875 L 3.15625 -9.578125 L 2.90625 -9.875 L 1.296875 -8.515625 L 1.296875 -6.296875 L 0.921875 -6.296875 C 0.703125 -6.296875 0.515625 -6.117188 0.359375 -5.765625 L 0.015625 -4.890625 L 0.359375 -4.734375 L 0.609375 -5.328125 L 1.296875 -5.328125 L 1.296875 -1.34375 Z M 0.359375 -0.5625 "/></g></g></g><g fill="#ffffff" fill-opacity="1"><g transform="translate(48.54881, 30.455514)"><g><path d="M 1.125 -4.765625 L 1.125 -1.578125 C 1.125 -0.753906 1.367188 -0.164062 1.859375 0.1875 L 3.34375 -1.109375 L 3.09375 -1.40625 L 2.671875 -1.03125 C 2.410156 -1.21875 2.28125 -1.570312 2.28125 -2.09375 L 2.28125 -4.84375 L 3.109375 -5.59375 L 2.875 -5.875 L 2.359375 -5.453125 L 1.421875 -6.296875 L -0.0625 -4.984375 L 0.171875 -4.6875 L 0.6875 -5.140625 Z M 0.71875 -8.046875 L 1.65625 -7.1875 L 2.96875 -8.359375 L 2.71875 -8.65625 L 2.390625 -8.375 L 1.453125 -9.203125 L 0.109375 -8.046875 L 0.359375 -7.734375 Z M 0.71875 -8.046875 "/></g></g></g><g fill="#ffffff" fill-opacity="1"><g transform="translate(52.111085, 30.455514)"><g><path d="M 0.390625 -0.578125 L 0.65625 -0.28125 L 1.125 -0.703125 L 2.375 0.1875 C 3.289062 -0.53125 4.40625 -0.890625 5.71875 -0.890625 L 5.71875 -1.28125 L 5.328125 -1.28125 L 5.328125 -4.875 L 6.140625 -5.609375 L 5.890625 -5.90625 L 5.359375 -5.4375 L 4.171875 -6.296875 C 3.679688 -5.847656 3.15625 -5.550781 2.59375 -5.40625 C 2.132812 -5.269531 1.535156 -5.203125 0.796875 -5.203125 L 0.796875 -4.828125 L 1.203125 -4.828125 L 1.203125 -1.296875 Z M 4.15625 -1.171875 C 3.96875 -1.128906 3.796875 -1.078125 3.640625 -1.015625 C 3.492188 -0.960938 3.359375 -0.910156 3.234375 -0.859375 L 2.375 -1.484375 L 2.375 -4.890625 C 2.75 -4.960938 3.109375 -5.085938 3.453125 -5.265625 L 4.15625 -4.765625 Z M 4.15625 -1.171875 "/></g></g></g><g fill="#ffffff" fill-opacity="1"><g transform="translate(58.622582, 30.455514)"><g><path d="M 0.359375 -0.546875 L 0.609375 -0.25 L 1.15625 -0.703125 L 2.09375 0.1875 L 3.4375 -0.96875 L 3.1875 -1.265625 L 2.75 -0.90625 L 2.40625 -1.265625 L 2.40625 -3.921875 L 3.796875 -5.140625 L 4.1875 -4.8125 L 4.1875 -1.609375 C 4.1875 -0.816406 4.414062 -0.21875 4.875 0.1875 L 6.34375 -1.078125 L 6.09375 -1.375 L 5.65625 -1 C 5.457031 -1.195312 5.359375 -1.570312 5.359375 -2.125 L 5.359375 -4.875 L 6.21875 -5.609375 L 5.96875 -5.90625 L 5.453125 -5.46875 L 4.546875 -6.296875 L 2.40625 -4.4375 C 2.40625 -4.90625 2.378906 -5.25 2.328125 -5.46875 C 2.234375 -5.78125 2.03125 -6.054688 1.71875 -6.296875 L 0.203125 -5 L 0.453125 -4.703125 L 0.9375 -5.140625 C 1.144531 -4.941406 1.25 -4.5625 1.25 -4 L 1.25 -1.28125 Z M 0.359375 -0.546875 "/></g></g></g><g fill="#ffffff" fill-opacity="1"><g transform="translate(24.438079, 47.476852)"><g><path d="M 0.296875 -3.09375 C 0.296875 -1.21875 0.757812 0.398438 1.6875 1.765625 C 1.863281 2.035156 2.019531 2.269531 2.15625 2.46875 C 2.300781 2.675781 2.421875 2.847656 2.515625 2.984375 L 2.75 2.828125 C 1.789062 1.203125 1.3125 -0.769531 1.3125 -3.09375 C 1.3125 -4.519531 1.484375 -5.753906 1.828125 -6.796875 C 2.160156 -7.835938 2.46875 -8.582031 2.75 -9.03125 L 2.515625 -9.1875 L 1.6875 -7.96875 C 0.757812 -6.582031 0.296875 -4.957031 0.296875 -3.09375 Z M 0.296875 -3.09375 "/></g></g></g><g fill="#ffffff" fill-opacity="1"><g transform="translate(27.192935, 47.476852)"><g><path d="M 3.359375 -5.75 C 3.367188 -5.675781 3.375 -5.613281 3.375 -5.5625 C 3.382812 -5.519531 3.390625 -5.488281 3.390625 -5.46875 C 3.390625 -5.019531 3.160156 -4.523438 2.703125 -3.984375 C 2.492188 -3.742188 2.179688 -3.394531 1.765625 -2.9375 C 1.671875 -2.832031 1.585938 -2.738281 1.515625 -2.65625 C 1.453125 -2.582031 1.398438 -2.519531 1.359375 -2.46875 C 0.816406 -1.820312 0.46875 -0.988281 0.3125 0.03125 L 0.546875 0.140625 C 0.753906 -0.273438 1.085938 -0.484375 1.546875 -0.484375 C 2.128906 -0.484375 2.769531 -0.273438 3.46875 0.140625 L 4.5 -1.0625 L 4.265625 -1.25 L 3.890625 -0.8125 C 3.566406 -0.945312 3.320312 -1.046875 3.15625 -1.109375 C 2.988281 -1.171875 2.898438 -1.207031 2.890625 -1.21875 C 2.785156 -1.25 2.617188 -1.265625 2.390625 -1.265625 C 1.773438 -1.265625 1.265625 -1.050781 0.859375 -0.625 C 1.003906 -1.1875 1.363281 -1.707031 1.9375 -2.1875 C 2.0625 -2.300781 2.21875 -2.429688 2.40625 -2.578125 C 2.59375 -2.734375 2.8125 -2.914062 3.0625 -3.125 C 3.1875 -3.21875 3.285156 -3.300781 3.359375 -3.375 C 3.441406 -3.445312 3.515625 -3.503906 3.578125 -3.546875 C 4.097656 -4.035156 4.359375 -4.601562 4.359375 -5.25 C 4.359375 -5.269531 4.359375 -5.304688 4.359375 -5.359375 C 4.359375 -5.410156 4.359375 -5.484375 4.359375 -5.578125 L 4.640625 -5.59375 L 4.65625 -5.890625 C 4.550781 -5.890625 4.472656 -5.890625 4.421875 -5.890625 C 4.359375 -5.890625 4.316406 -5.890625 4.296875 -5.890625 C 3.859375 -5.890625 3.441406 -6.003906 3.046875 -6.234375 C 2.648438 -6.472656 2.332031 -6.773438 2.09375 -7.140625 C 1.707031 -6.160156 1.140625 -5.671875 0.390625 -5.671875 L 0.375 -5.4375 C 0.632812 -5.351562 0.882812 -5.3125 1.125 -5.3125 C 1.425781 -5.3125 1.722656 -5.375 2.015625 -5.5 C 2.347656 -5.644531 2.582031 -5.828125 2.71875 -6.046875 C 2.875 -5.941406 3.085938 -5.84375 3.359375 -5.75 Z M 3.359375 -5.75 "/></g></g></g><g fill="#ffffff" fill-opacity="1"><g transform="translate(32.342218, 47.476852)"><g><path d="M 0.328125 -0.46875 L 0.53125 -0.25 L 0.90625 -0.625 L 1.953125 0.140625 C 2.515625 -0.441406 3.253906 -0.734375 4.171875 -0.734375 C 4.210938 -0.734375 4.269531 -0.726562 4.34375 -0.71875 C 4.425781 -0.71875 4.523438 -0.710938 4.640625 -0.703125 L 4.640625 -1.015625 L 4.28125 -1.03125 L 4.28125 -6.015625 L 4.84375 -6.53125 L 4.640625 -6.75 L 4.28125 -6.40625 L 3.28125 -7.140625 C 2.695312 -6.546875 1.804688 -6.25 0.609375 -6.25 L 0.609375 -5.96875 C 0.648438 -5.957031 0.695312 -5.945312 0.75 -5.9375 C 0.800781 -5.9375 0.859375 -5.9375 0.921875 -5.9375 L 0.921875 -1.03125 Z M 2.515625 -0.640625 L 1.8125 -1.15625 L 1.8125 -6 C 2.238281 -6.09375 2.546875 -6.203125 2.734375 -6.328125 L 3.390625 -5.875 L 3.390625 -0.953125 C 3.035156 -0.898438 2.742188 -0.796875 2.515625 -0.640625 Z M 2.515625 -0.640625 "/></g></g></g><g fill="#ffffff" fill-opacity="1"><g transform="translate(37.491501, 47.476852)"><g><path d="M 1.328125 -0.53125 L 1.5625 -0.3125 L 1.984375 -0.71875 L 2.859375 0.140625 L 4.171875 -1.15625 L 3.953125 -1.375 L 3.484375 -0.90625 L 3.109375 -1.3125 L 3.109375 -5.453125 C 3.109375 -6.285156 2.863281 -6.847656 2.375 -7.140625 L 1 -5.78125 L 1.203125 -5.578125 L 1.6875 -6.046875 C 2.007812 -5.828125 2.171875 -5.519531 2.171875 -5.125 L 2.171875 -1.375 Z M 1.328125 -0.53125 "/></g></g></g><g fill="#ffffff" fill-opacity="1"><g transform="translate(42.640785, 47.476852)"><g><path d="M 1.4375 -1.4375 C 1.4375 -0.800781 1.695312 -0.273438 2.21875 0.140625 L 3.46875 -1.078125 L 3.265625 -1.296875 L 2.8125 -0.84375 C 2.5625 -1.09375 2.4375 -1.367188 2.4375 -1.671875 C 2.4375 -2.015625 2.613281 -2.546875 2.96875 -3.265625 C 3.101562 -3.535156 3.238281 -3.800781 3.375 -4.0625 C 3.507812 -4.320312 3.644531 -4.585938 3.78125 -4.859375 C 4.207031 -5.703125 4.503906 -6.429688 4.671875 -7.046875 L 4.40625 -7.140625 C 4.21875 -6.722656 3.882812 -6.515625 3.40625 -6.515625 C 2.6875 -6.515625 2.050781 -6.722656 1.5 -7.140625 L 0.59375 -5.21875 L 0.859375 -5.078125 L 1.296875 -6.03125 C 1.835938 -5.832031 2.285156 -5.734375 2.640625 -5.734375 C 3.109375 -5.734375 3.59375 -5.929688 4.09375 -6.328125 C 3.675781 -5.441406 3.101562 -4.488281 2.375 -3.46875 C 2.207031 -3.25 2.066406 -3.0625 1.953125 -2.90625 C 1.847656 -2.75 1.773438 -2.625 1.734375 -2.53125 C 1.535156 -2.144531 1.4375 -1.78125 1.4375 -1.4375 Z M 1.4375 -1.4375 "/></g></g></g><g fill="#ffffff" fill-opacity="1"><g transform="translate(47.790068, 47.476852)"><g><path d="M 2.453125 -3.09375 C 2.453125 -4.957031 1.988281 -6.582031 1.0625 -7.96875 C 0.882812 -8.238281 0.726562 -8.472656 0.59375 -8.671875 C 0.457031 -8.878906 0.34375 -9.050781 0.25 -9.1875 L 0 -9.03125 C 0.957031 -7.5 1.4375 -5.519531 1.4375 -3.09375 C 1.4375 -1.664062 1.269531 -0.445312 0.9375 0.5625 C 0.769531 1.082031 0.609375 1.523438 0.453125 1.890625 C 0.296875 2.265625 0.144531 2.578125 0 2.828125 L 0.25 2.984375 L 1.0625 1.765625 C 1.988281 0.398438 2.453125 -1.21875 2.453125 -3.09375 Z M 2.453125 -3.09375 "/></g></g></g></svg>