<?xml version="1.0" encoding="UTF-8"?>
<svg version="1.1" xmlns="http://www.w3.org/2000/svg" width="512" height="512">
<path d="M0 0 C2.27681048 -0.00645255 4.55362018 -0.01318257 6.83042908 -0.02017212 C11.54362924 -0.03199914 16.2567568 -0.03586691 20.9699707 -0.03466797 C26.99628643 -0.03446252 33.02214251 -0.06206007 39.04834843 -0.09621239 C43.72470746 -0.1184444 48.40095368 -0.12250708 53.07736015 -0.12144852 C55.30084291 -0.12379862 57.52432906 -0.13258858 59.74775887 -0.14811325 C62.8426727 -0.16775158 65.93656317 -0.16194942 69.03149414 -0.14990234 C69.93593262 -0.16114136 70.84037109 -0.17238037 71.7722168 -0.18395996 C77.62637065 -0.12617901 82.24764904 0.90819605 87.08984375 4.3359375 C91.25899032 9.57409601 92.63711799 13.65919172 92.08984375 20.3359375 C90.27991763 25.60833097 87.85531993 29.28114507 83.08984375 32.3359375 C80.33763839 33.25333929 78.69644573 33.46609834 75.85968018 33.48069763 C74.56550171 33.49104538 74.56550171 33.49104538 73.24517822 33.50160217 C72.3009198 33.50421555 71.35666138 33.50682892 70.38378906 33.50952148 C69.38641724 33.5162085 68.38904541 33.52289551 67.3614502 33.52978516 C65.1892749 33.54385354 63.01708466 33.55574187 60.84488678 33.56573296 C57.38536841 33.5821863 53.9259568 33.60543685 50.4664917 33.63063049 C40.62713002 33.70120961 30.78771984 33.76089907 20.94824219 33.81274414 C14.92759053 33.84494732 8.90705406 33.88634062 2.8864975 33.93293953 C0.61125565 33.94874291 -1.66401276 33.96116143 -3.93929291 33.96984673 C-41.66026371 34.11566561 -85.41088266 36.12412056 -113.91015625 64.3359375 C-143.01783001 97.18602646 -142.24434771 143.57643361 -142.17880726 184.88383102 C-142.17364623 189.1726377 -142.17846611 193.46143701 -142.18157959 197.75024414 C-142.18519045 204.94451462 -142.18049673 212.13874367 -142.17089844 219.33300781 C-142.16001952 227.58096545 -142.16354716 235.82882411 -142.17455125 244.07677937 C-142.18370721 251.23342627 -142.18486932 258.39004387 -142.17967391 265.54669476 C-142.17659932 269.78815513 -142.17601717 274.02956943 -142.18274689 278.27102661 C-142.95058244 315.77792033 -142.95058244 315.77792033 -135.91015625 352.3359375 C-134.77489502 351.50437134 -134.77489502 351.50437134 -133.61669922 350.65600586 C-122.66548557 342.7021961 -111.35800196 335.30873175 -100.03515625 327.8984375 C-87.2309524 319.51130516 -74.4801365 311.07083707 -61.91015625 302.3359375 C-60.55859544 301.3985805 -59.20662205 300.46181814 -57.85424805 299.52563477 C-57.24775925 299.10548599 -56.64127045 298.68533722 -56.0164032 298.25245667 C-38.37129749 286.16258351 -20.99859468 281.80541156 0.38818359 284.640625 C12.67740725 286.99919326 22.24308543 293.34530289 31.4453125 301.42553711 C39.02930665 308.02384045 46.10405369 310.79741061 56.109375 310.5859375 C67.84513859 309.60154842 74.91272182 302.68008638 83.19335938 295.06298828 C86.12083393 292.3970569 89.13526087 289.83689709 92.15234375 287.2734375 C93.31153032 286.28163838 94.47038499 285.2894512 95.62890625 284.296875 C97.35895663 282.81662321 99.0891462 281.33653422 100.81933594 279.85644531 C107.42695547 274.20288703 114.02214456 268.53585295 120.58984375 262.8359375 C126.57694405 257.63990696 132.5849049 252.469048 138.609375 247.31640625 C140.98660831 245.28290168 143.35839573 243.24327395 145.7265625 241.19921875 C148.65026306 238.67644012 151.58576282 236.16805669 154.52929688 233.66845703 C155.92870722 232.47352874 157.31486797 231.26312438 158.69921875 230.05078125 C172.47521044 218.36820006 188.97632817 212.56432383 207.01953125 213.55078125 C222.13862486 214.90619825 235.2235667 220.50558523 246.75439453 230.45727539 C247.38032501 230.99663223 248.00625549 231.53598907 248.65115356 232.09169006 C249.12592133 232.50229172 249.60068909 232.91289337 250.08984375 233.3359375 C250.09348938 232.71032928 250.09713501 232.08472107 250.10089111 231.44015503 C250.14275849 224.9183867 250.2121342 218.39731934 250.29736328 211.87597656 C250.32555826 209.44343075 250.34678007 207.01079358 250.36083984 204.578125 C250.38228883 201.07764968 250.42895218 197.57827119 250.48046875 194.078125 C250.48169739 192.99352997 250.48292603 191.90893494 250.48419189 190.79147339 C250.60253627 184.66615446 250.98491731 180.99051303 255.08984375 176.3359375 C260.11819408 171.9062003 262.97149666 171.03577162 269.55078125 171.12109375 C274.31936547 171.52458934 277.10414578 173.29547854 280.33984375 176.7109375 C283.15886792 180.93947375 284.3394818 184.43505406 284.34381104 189.51446533 C284.34945068 190.53697891 284.35509033 191.55949249 284.36090088 192.61299133 C284.35482819 194.28037605 284.35482819 194.28037605 284.34863281 195.98144531 C284.35388977 197.75109901 284.35388977 197.75109901 284.35925293 199.5565033 C284.36654618 202.79130914 284.36483247 206.02595121 284.35849476 209.26075459 C284.35340503 212.67235452 284.3581366 216.08394403 284.36126709 219.49554443 C284.36490798 225.24558448 284.36011474 230.99557322 284.35058594 236.74560547 C284.33980466 243.32596642 284.34315019 249.90620242 284.35423875 256.48656011 C284.36343345 262.17703646 284.36453553 267.86747599 284.35936141 273.55795741 C284.35629404 276.93734555 284.35650421 280.3166306 284.36243439 283.69602203 C284.42518887 329.58670559 281.0858046 378.80053786 250.08984375 415.3359375 C249.31253906 416.33173828 249.31253906 416.33173828 248.51953125 417.34765625 C227.02442994 443.97349782 188.87897411 454.85877351 156.31831551 458.65944672 C137.3482013 460.55793916 118.41188819 460.63493293 99.37209392 460.60458851 C95.09177474 460.59941774 90.81146283 460.60424983 86.53114319 460.60736084 C79.35302154 460.61096862 72.17494146 460.60628592 64.99682617 460.59667969 C56.7715681 460.58579721 48.54640926 460.58933228 40.32115358 460.6003325 C33.1780387 460.60949247 26.03495319 460.61064879 18.89183432 460.60545516 C14.66099114 460.60238325 10.43019413 460.60179066 6.19935417 460.60852814 C-41.47585164 460.67390527 -92.77699755 458.68740775 -130.91015625 426.3359375 C-131.90595703 425.55863281 -131.90595703 425.55863281 -132.921875 424.765625 C-159.54753394 403.27067113 -170.43376726 365.1245157 -174.23366547 332.56384277 C-176.13059729 313.60471381 -176.20916311 294.67985006 -176.17880726 275.65111923 C-176.17363569 271.37393725 -176.17846887 267.09676252 -176.18157959 262.81958008 C-176.18518754 255.64565459 -176.18050462 248.47177069 -176.17089844 241.29785156 C-176.1600201 233.08056587 -176.16354796 224.86337953 -176.17455125 216.64609623 C-176.18371576 209.50806122 -176.18486527 202.37005558 -176.17967391 195.23201656 C-176.17660388 191.00505389 -176.17600377 186.77813742 -176.18274689 182.55117798 C-176.2483549 134.78852316 -174.33605826 83.55683003 -141.91015625 45.3359375 C-141.39195312 44.67207031 -140.87375 44.00820312 -140.33984375 43.32421875 C-118.54627655 16.32866943 -79.98178825 5.68463327 -47.0151844 2.01356125 C-31.33887263 0.50611328 -15.74041843 0.01073072 0 0 Z M181.08984375 255.3359375 C180.05508939 256.21684924 179.01846559 257.09556752 177.98046875 257.97265625 C174.94947751 260.5428578 171.940771 263.13788472 168.93652344 265.73925781 C165.99621686 268.28151125 163.04261869 270.80818948 160.08984375 273.3359375 C158.92310809 274.335857 157.75644154 275.33585715 156.58984375 276.3359375 C135.58984375 294.3359375 135.58984375 294.3359375 133.84008789 295.83569336 C132.67256147 296.83645356 131.50508105 297.83726742 130.33764648 298.83813477 C127.43450746 301.32694426 124.53059426 303.81483841 121.625 306.30078125 C121.05233398 306.79102783 120.47966797 307.28127441 119.88964844 307.78637695 C118.73316157 308.7762816 117.57626156 309.76570379 116.41894531 310.75463867 C113.33584487 313.39354172 110.27073863 316.05062323 107.2265625 318.734375 C89.13018435 334.66308776 71.97140916 344.87368779 47.10302734 343.49560547 C30.88547395 342.20937215 18.04894174 334.10942858 6.12109375 323.6015625 C-0.96551585 317.73477915 -9.02228202 315.74213227 -18.16015625 316.5234375 C-26.93214561 318.2819731 -33.69093476 323.35056009 -40.91015625 328.3359375 C-42.59782635 329.47823672 -44.28669095 330.61877255 -45.9765625 331.7578125 C-49.45890264 334.11165879 -52.93460796 336.47478364 -56.40342712 338.84851074 C-66.01723941 345.42690638 -75.67523364 351.93959381 -85.33432007 358.45126343 C-88.16761226 360.36132955 -91.00045168 362.27206574 -93.83325195 364.18286133 C-94.73134079 364.78825241 -95.62942963 365.39364349 -96.55473328 366.01737976 C-98.30487263 367.197588 -100.05433048 368.37880757 -101.80305481 369.56111145 C-105.44758125 372.02188804 -109.09589902 374.47029455 -112.79833984 376.84326172 C-113.88066895 377.54080566 -114.96299805 378.23834961 -116.078125 378.95703125 C-116.98199951 379.52736084 -117.88587402 380.09769043 -118.81713867 380.68530273 C-121.02012964 382.42266677 -121.90010863 383.74740344 -122.91015625 386.3359375 C-103.47023136 411.09505444 -77.35514076 421.72216593 -46.6802063 425.61923981 C-28.49591657 427.71158015 -10.29952934 427.6331193 7.97313309 427.60458851 C12.32380652 427.59943421 16.67447261 427.60424558 21.02514648 427.60736084 C28.32374615 427.61097357 35.62230501 427.60627293 42.92089844 427.59667969 C51.29325476 427.5858004 59.66551358 427.58932791 68.03786755 427.6003325 C75.29723778 427.60948299 82.5565791 427.61065317 89.81595325 427.60545516 C94.12055363 427.60237765 98.42510857 427.60180697 102.72970581 427.60852814 C166.85539195 427.77434494 166.85539195 427.77434494 221.66455078 397.7890625 C243.60058204 375.42468119 249.186602 342.86911359 250.87597656 312.84472656 C251.02660665 310.37343011 251.20854901 307.90394318 251.41308594 305.43652344 C253.48625113 288.83317057 253.48625113 288.83317057 248.26953125 273.93359375 C245.2374981 271.02486107 241.8416233 268.84546547 238.23730469 266.71044922 C234.51321663 264.32679577 231.39199728 261.2648433 228.15234375 258.2734375 C214.11048236 245.45853487 196.18608989 241.95517388 181.08984375 255.3359375 Z " fill="#000000" transform="translate(201.91015625,25.6640625)"/>
<path d="M0 0 C12.72203609 9.30646682 21.45400432 23.41919924 24 39 C25.76498782 56.13055774 22.29660851 72.48478394 11.5546875 86.27734375 C1.82380962 97.90631225 -10.74673737 104.58858658 -25.5 107.75 C-43.27730924 109.0198078 -59.96328091 105.91549774 -73.8918457 94.13916016 C-85.31230945 83.87499356 -93.42397573 69.45298156 -94.2734375 53.91796875 C-94.75810108 38.0034406 -91.79426714 24.94620192 -82 12 C-81.45472656 11.27296875 -80.90945312 10.5459375 -80.34765625 9.796875 C-60.91478012 -14.16271816 -24.77399065 -16.42984477 0 0 Z M-50 27 C-51.24136719 27.88751953 -51.24136719 27.88751953 -52.5078125 28.79296875 C-57.45065877 33.17025424 -60.36648518 39.44660108 -61.51953125 45.9140625 C-61.856578 54.77714362 -58.64547151 62.00425578 -52.7109375 68.49609375 C-47.2721464 73.27676629 -40.4546771 75.39763425 -33.27734375 75.27734375 C-25.84363519 74.3720379 -18.86504526 70.68019912 -14 65 C-9.57774726 57.89473416 -8.18666799 51.33386773 -9 43 C-11.44124561 34.75289047 -15.81683228 29.43163339 -23.09765625 25.015625 C-31.2287457 20.67459162 -42.60772229 21.64183898 -50 27 Z " fill="#000000" transform="translate(227,122)"/>
<path d="M0 0 C1.90249634 1.29415894 1.90249634 1.29415894 3.70166016 2.96044922 C4.38963684 3.5937616 5.07761353 4.22707397 5.78643799 4.87957764 C9.8605969 8.7823089 13.89926113 12.71564633 17.8984375 16.6953125 C18.81460846 17.60578339 19.73077942 18.51625427 20.67471313 19.45431519 C22.59770671 21.36689567 24.51843775 23.28171829 26.43798828 25.19775391 C28.8924436 27.64668486 31.35607658 30.08616604 33.82187462 32.52366829 C36.18729286 34.86598059 38.54212135 37.21884436 40.8984375 39.5703125 C41.78171722 40.44124542 42.66499695 41.31217834 43.57504272 42.20950317 C44.38994171 43.02740326 45.2048407 43.84530334 46.04443359 44.68798828 C46.76198822 45.40189728 47.47954285 46.11580627 48.21884155 46.85134888 C51.80860569 51.18176134 52.39474859 55.34289697 52.25 60.7890625 C51.73366065 65.35543863 49.90351783 68.14403574 46.625 71.25 C41.41721814 74.72185457 37.73662479 75.47112276 31.5390625 74.6484375 C24.67291539 72.89492916 20.08070067 67.14416801 15.24609375 62.2734375 C14.73977417 61.76514404 14.23345459 61.25685059 13.71179199 60.7331543 C12.47352204 59.48977054 11.23662072 58.24502403 10 57 C9.99635437 58.15178741 9.99270874 59.30357483 9.98895264 60.49026489 C9.95199843 71.34907964 9.89422087 82.20761091 9.81609726 93.06620979 C9.77660183 98.64864395 9.74442336 104.23091987 9.72900391 109.81347656 C9.71385112 115.2017972 9.67942959 120.58968288 9.63169098 125.97780991 C9.61686305 128.03263441 9.60895818 130.087521 9.60811615 132.14239883 C9.60574904 135.02264941 9.57868954 137.90169548 9.54589844 140.78173828 C9.55344398 142.05380882 9.55344398 142.05380882 9.56114197 143.35157776 C9.46711237 148.69595063 8.55585065 151.76775544 5 156 C0.2375342 159.619474 -3.51419735 160.70861658 -9.5 160.453125 C-14.58672575 159.53115596 -18.42597323 157.02383563 -21.57868958 152.97016907 C-23.53352211 148.88507758 -23.43991338 145.37001486 -23.43237305 140.89526367 C-23.4425647 139.98745148 -23.45275635 139.07963928 -23.46325684 138.14431763 C-23.49338289 135.15213852 -23.50265227 132.16027959 -23.51171875 129.16796875 C-23.5285657 127.09002112 -23.54671597 125.01208368 -23.56611633 122.93415833 C-23.61362052 117.47127466 -23.6434273 112.00843231 -23.66955566 106.54541016 C-23.69935896 100.96834147 -23.74589013 95.39141515 -23.79101562 89.81445312 C-23.87705359 78.87637654 -23.9443968 67.93827067 -24 57 C-24.38220703 57.4031543 -24.76441406 57.80630859 -25.15820312 58.22167969 C-26.92776551 60.07535485 -28.7135958 61.91255568 -30.5 63.75 C-31.10070312 64.38421875 -31.70140625 65.0184375 -32.3203125 65.671875 C-37.33383579 70.792069 -42.28628068 74.46946867 -49.5 75.5 C-55.2419804 74.67971709 -59.43311932 72.64723354 -63.4375 68.4375 C-65.54310548 65.15275546 -66.17057106 62.51994622 -66.25 58.6875 C-66.28867187 57.57955078 -66.28867187 57.57955078 -66.328125 56.44921875 C-65.57633285 50.83762738 -62.31738394 46.93918739 -58.44018555 43.03613281 C-57.51880295 42.10206604 -56.59742035 41.16799927 -55.64811707 40.20562744 C-54.64477402 39.20433575 -53.64096307 38.20351275 -52.63671875 37.203125 C-51.60126335 36.16310361 -50.56617912 35.12271256 -49.53144836 34.08197021 C-47.36686289 31.90847519 -45.19672576 29.74071615 -43.02270508 27.57666016 C-40.2434355 24.80889367 -37.48036351 22.02556494 -34.72146893 19.23750687 C-32.58975577 17.08741394 -30.44877191 14.94674361 -28.30500221 12.80867767 C-27.28250288 11.78633125 -26.26308429 10.76089358 -25.24689293 9.73227692 C-23.82356915 8.2940089 -22.38604137 6.86983985 -20.94799805 5.44628906 C-20.13542038 4.63387756 -19.32284271 3.82146606 -18.48564148 2.98443604 C-12.82086106 -1.53809647 -6.77421373 -1.80890086 0 0 Z " fill="#000000" transform="translate(391,27)"/>
</svg>
