<svg width="20" height="18" viewBox="0 0 20 18" fill="currentColor" xmlns="http://www.w3.org/2000/svg">
<path d="M9.32345 17.4485C6.50485 15.3346 3.80485 12.7323 2.18625 10.5765C0.693224 8.58808 -0.0602638 6.68343 0.051364 5.1625C0.253689 2.27413 2.59787 0.0694767 5.46531 0.0625C7.0281 0.0625 8.34671 0.578779 9.49787 1.63924L10.0002 2.10669L10.4397 1.70203C11.6258 0.592733 12.9514 0.0625 14.5351 0.0625C16.6281 0.0625 18.47 1.22064 19.3839 3.10436C20.5769 5.56715 19.956 7.92529 17.2002 11.3718C16.1467 12.6834 13.7537 14.9997 11.9118 16.4858C11.0746 17.1625 10.063 17.9299 10.0072 17.9299C9.98624 17.9299 9.67229 17.7137 9.32345 17.4485ZM10.6909 15.0206C13.0909 13.0881 15.1839 10.9672 16.5234 9.10436C17.0816 8.32994 17.7793 6.95552 17.9188 6.34855C18.2955 4.69506 17.5351 3.05552 16.056 2.3439C14.7723 1.72994 13.5444 1.87645 12.1421 2.81831C11.556 3.20901 10.8095 3.88576 10.2932 4.48576L10.0072 4.82762L9.78392 4.55552C8.64671 3.20901 7.32113 2.29506 6.14206 2.0439C4.04904 1.59738 1.97694 3.30669 1.97694 5.48343C1.97694 7.72297 4.69787 11.2672 9.26764 14.9858C9.65136 15.2997 9.97927 15.5578 9.99322 15.5578C10.0072 15.5578 10.3211 15.3137 10.6909 15.0206Z"/>
</svg>
