<svg width="48" height="24" viewBox="0 0 48 24" fill="none" xmlns="http://www.w3.org/2000/svg">
<path d="M10.5234 23.3099C7.78773 22.9404 5.40843 21.861 3.57418 20.1691C2.38977 19.0897 0.943332 17.0088 0.702258 16.0559C0.670814 15.9295 0.57648 15.6377 0.482147 15.4141C0.14674 14.5681 0 13.5957 0 12.1469C0 11.3495 0.0419258 10.523 0.104815 10.2993C0.157222 10.0757 0.272518 9.59921 0.366851 9.24915C0.607925 8.27676 1.26826 6.8668 1.73992 6.27364C1.87618 6.10834 1.99148 5.94303 1.99148 5.90414C1.99148 5.75828 2.87192 4.76644 3.52177 4.20246C4.50703 3.34675 5.01014 2.93835 5.09399 2.93835C5.13592 2.93835 5.3141 2.84111 5.49229 2.7147C6.23647 2.20906 8.04976 1.46032 8.96165 1.28529C9.19224 1.2464 9.74776 1.13943 10.1985 1.05192C10.9322 0.915784 12.5044 0.896336 23.9816 0.90606C37.3245 0.90606 37.1882 0.90606 39.012 1.27557C39.6723 1.4117 41.1607 1.94652 41.6324 2.22851C41.8525 2.34519 42.0516 2.45216 42.0936 2.45216C42.2613 2.45216 43.6553 3.47317 44.3995 4.15384C46.2757 5.85552 47.4181 7.89753 47.8898 10.3868C48.0575 11.2328 48.0261 13.2651 47.8479 14.15C47.2819 16.8921 45.6048 19.4495 43.3408 21.0442C42.67 21.511 41.3494 22.2889 41.2131 22.2889C41.1712 22.2889 40.8043 22.4153 40.3956 22.5806C39.4103 22.9598 38.6347 23.1446 37.314 23.3196C35.7627 23.5141 11.9803 23.5044 10.5234 23.3099ZM38.1525 18.7008C40.4375 17.9909 41.9468 16.7463 42.8377 14.8501C43.3094 13.8388 43.4142 13.1873 43.3618 11.7385C43.3094 10.2799 43.2255 9.87148 42.8168 9.09357C41.7372 7.01266 40.0077 5.69021 37.7018 5.18457C36.9472 5.01926 34.5783 5.04843 33.8761 5.23319C31.1719 5.93331 29.0965 7.97532 28.562 10.4744C28.3419 11.5148 28.3943 13.1776 28.6668 14.0236C29.128 15.453 30.2495 16.9018 31.5387 17.7284C32.3772 18.2729 32.9747 18.5257 34.1172 18.798C35.1548 19.0508 37.1882 19.0022 38.1525 18.7008ZM11.8545 16.1628C12.0746 16.0461 12.1166 15.6572 11.9489 15.2391C11.865 15.0251 11.7916 14.9862 11.5086 15.0154C11.1732 15.0446 11.1628 15.064 11.1313 15.5113C11.0894 16.1823 11.3409 16.4157 11.8545 16.1628ZM9.10839 14.8307C9.28658 14.6362 9.43332 14.4514 9.43332 14.4223C9.42283 14.3445 9.0455 13.9263 8.97213 13.9263C8.82539 13.9263 8.17554 14.5487 8.17554 14.6848C8.17554 14.8696 8.4795 15.1904 8.64721 15.1904C8.72058 15.1904 8.93021 15.0349 9.10839 14.8307ZM14.7998 15.0251C14.9046 14.9376 14.9885 14.8209 14.9885 14.7529C14.9885 14.6167 14.3177 13.9263 14.1814 13.9263C14.129 13.9263 13.9718 14.0333 13.8355 14.1694L13.584 14.4125L13.9928 14.8015C14.4539 15.2391 14.5273 15.2585 14.7998 15.0251ZM12.6931 13.8097C12.9236 13.693 13.2486 13.3915 13.4163 13.1484C14.2653 11.9232 13.6783 10.4549 12.169 9.98817C11.6973 9.84231 11.5506 9.84231 11.1313 9.93955C10.3662 10.134 10.0936 10.2993 9.76872 10.7466C9.33898 11.3398 9.19224 11.894 9.3285 12.3705C9.4962 12.954 9.82113 13.4013 10.3033 13.7319C10.6911 13.9944 10.8064 14.0236 11.5086 14.0236C12.1166 14.0236 12.3786 13.975 12.6931 13.8097ZM8.25939 12.0691C8.30132 11.7287 8.06024 11.5732 7.52569 11.6121C7.08547 11.6412 7.07499 11.651 7.04354 12.0107L7.0121 12.3802L7.62002 12.3511C8.18602 12.3219 8.22795 12.3025 8.25939 12.0691ZM16.089 11.9816C16.089 11.6412 16.089 11.6412 15.5859 11.6121C15.0199 11.5732 14.7789 11.6996 14.7789 12.0302C14.7789 12.3413 14.8732 12.3802 15.5126 12.3511L16.089 12.3219V11.9816ZM9.24465 9.87148C9.4962 9.66728 9.48572 9.59921 9.1608 9.21026C8.82539 8.80185 8.61576 8.72406 8.37469 8.92826C8.09169 9.16164 8.12313 9.34639 8.51095 9.7159C8.88828 10.0854 8.97213 10.0951 9.24465 9.87148ZM14.6112 9.69645C15.0619 9.29777 15.0828 9.14219 14.716 8.92826C14.4539 8.76296 14.4435 8.76296 14.0242 9.16164L13.5945 9.56032L13.8355 9.79369C13.9718 9.92982 14.1185 10.0368 14.1605 10.0368C14.2024 10.0368 14.4015 9.8812 14.6112 9.69645ZM11.7916 8.96716C11.9593 8.96716 12.0642 8.48097 11.9803 8.09201C11.9384 7.88781 11.8441 7.78085 11.6763 7.74195C11.2781 7.64471 11.1103 7.85864 11.1103 8.43235C11.1103 8.94771 11.2152 9.09357 11.5086 9.00605C11.5925 8.98661 11.7078 8.96716 11.7916 8.96716Z" fill="white"/>
</svg>
