<svg width="20" height="19" viewBox="0 0 20 19" fill="currentColor" xmlns="http://www.w3.org/2000/svg">
<path d="M2.59767 18.9303C1.98372 18.8256 1.45349 18.414 1.18139 17.821C1.04186 17.507 1.03488 17.4024 1.01395 13.7535L0.993022 10H0.50465H0.0232544V7.00004V4.00004H2.12325H4.21628L4.16744 3.84655C4.06977 3.52562 4.03488 2.97446 4.08372 2.56981C4.3 0.97213 5.90465 -0.199963 7.46744 0.0860836C8.13023 0.204688 8.67442 0.525619 9.38604 1.20236L10 1.78143L10.614 1.20236C11.3256 0.525619 11.8698 0.204688 12.5326 0.0860836C14.0953 -0.199963 15.7 0.97213 15.9163 2.56981C15.9651 2.97446 15.9302 3.52562 15.8326 3.84655L15.7837 4.00004H17.8767H19.9767V7.00004V10H19.4953H19.007L18.986 13.7535C18.9651 17.4024 18.9581 17.507 18.8186 17.821C18.6302 18.2256 18.2256 18.6303 17.8209 18.8186C17.5 18.9652 17.486 18.9652 10.2093 18.9721C6.19767 18.9791 2.77209 18.9582 2.59767 18.9303ZM9.02325 13.5233V10H5.98837H2.95349V13.5233V17.0466H5.98837H9.02325V13.5233ZM17.0465 13.5233V10H14.0116H10.9767V13.5233V17.0466H14.0116H17.0465V13.5233ZM18.0233 7.00004V5.95353H10H1.97674V7.00004V8.04655H10H18.0233V7.00004ZM7.56511 3.83957C8.06744 3.50469 8.17209 2.8419 7.80232 2.35353C7.50232 1.96283 6.83256 1.86515 6.4 2.1512C6.14884 2.31167 5.92558 2.8419 5.97442 3.1419C6.09302 3.87446 6.95116 4.2512 7.56511 3.83957ZM13.5651 3.83957C14.0674 3.50469 14.1721 2.8419 13.8023 2.35353C13.5023 1.96283 12.8326 1.86515 12.4 2.1512C12.1488 2.31167 11.9256 2.8419 11.9744 3.1419C12.093 3.87446 12.9512 4.2512 13.5651 3.83957Z"/>
</svg>
