<svg width="22" height="9" viewBox="0 0 22 9" fill="none" xmlns="http://www.w3.org/2000/svg">
<path d="M5.14672 5.57327C5.14672 6.99454 3.99472 8.14672 2.57345 8.14672C1.15218 8.14672 0 6.99454 0 5.57327C0 4.15199 1.15218 3 2.57345 3C3.99472 3 5.14672 4.15199 5.14672 5.57327Z" fill="url(#paint0_linear_1047_3751)"/>
<path d="M13.5734 2.57327C13.5734 3.99454 12.4212 5.14672 10.9999 5.14672C9.57863 5.14672 8.42645 3.99454 8.42645 2.57327C8.42645 1.15199 9.57863 0 10.9999 0C12.4212 0 13.5734 1.15199 13.5734 2.57327Z" fill="url(#paint1_linear_1047_3751)"/>
<path d="M22 5.57327C22 6.99454 20.8478 8.14672 19.4265 8.14672C18.0052 8.14672 16.8532 6.99454 16.8532 5.57327C16.8532 4.15199 18.0052 3 19.4265 3C20.8478 3 22 4.15199 22 5.57327Z" fill="url(#paint2_linear_1047_3751)"/>
<defs>
<linearGradient id="paint0_linear_1047_3751" x1="2.57336" y1="3" x2="2.57336" y2="8.14672" gradientUnits="userSpaceOnUse">
<stop stop-color="#F7C954"/>
<stop offset="1" stop-color="#E15C42"/>
</linearGradient>
<linearGradient id="paint1_linear_1047_3751" x1="10.9999" y1="0" x2="10.9999" y2="5.14672" gradientUnits="userSpaceOnUse">
<stop stop-color="#F7C954"/>
<stop offset="1" stop-color="#E15C42"/>
</linearGradient>
<linearGradient id="paint2_linear_1047_3751" x1="19.4266" y1="3" x2="19.4266" y2="8.14672" gradientUnits="userSpaceOnUse">
<stop stop-color="#F7C954"/>
<stop offset="1" stop-color="#E15C42"/>
</linearGradient>
</defs>
</svg>
