<svg width="120" height="23" viewBox="0 0 120 23" fill="none" xmlns="http://www.w3.org/2000/svg">
<path fill-rule="evenodd" clip-rule="evenodd" d="M4.44416 20.5644C6.15711 21.7128 8.44908 22.3642 11.3394 22.533C12.0101 22.5716 14.635 22.5137 15.3926 22.4462C17.231 22.2773 18.5675 22.0167 19.9765 21.5487C21.6894 20.9841 22.9343 20.2941 24.1262 19.2615C25.4242 18.1324 26.2203 16.7621 26.5195 15.1553C26.6353 14.5184 26.6256 13.4134 26.5002 12.8054C26.1479 11.1745 25.1829 9.8524 23.4989 8.71847C21.4723 7.35777 18.7412 6.57126 15.2526 6.34447C14.1139 6.27209 11.6964 6.3107 10.8086 6.41685C8.24642 6.72566 6.35494 7.33364 4.65647 8.40001C4.38143 8.57372 4.13535 8.71365 4.10639 8.71365C4.06779 8.71365 4.05332 7.6714 4.05332 5.07062L4.05333 4.72341V4.72341C4.05356 1.60078 4.05359 1.19939 3.86757 1.074C3.84013 1.0555 3.80865 1.04301 3.77252 1.02868L3.7445 1.01745C3.60457 0.959544 3.28128 0.945068 2.06533 0.945068C1.15337 0.945068 0.482665 0.964369 0.371686 0.998146C0.24623 1.03192 0.159377 1.09947 0.0966489 1.2008C0.00014476 1.35039 0.000144756 1.53857 0.000144756 11.5509L6.63836e-05 13.1971C-0.000544268 21.5029 -0.000581898 22.0147 0.175427 22.0849C0.186985 22.0895 0.199301 22.0922 0.212426 22.095L0.212486 22.0951C0.223187 22.0974 0.234427 22.0999 0.24623 22.1036C0.304133 22.1229 1.05686 22.1374 1.91575 22.1374C3.33919 22.1374 3.48877 22.1325 3.5708 22.0553C3.72038 21.9202 3.76381 21.6693 3.76381 20.9118C3.76381 20.3327 3.77828 20.1976 3.83136 20.1976C3.86996 20.1976 4.145 20.3617 4.44416 20.5644ZM20.2178 18.5185C18.9198 19.498 17.1055 20.0915 14.7894 20.2893C14.1283 20.3472 12.1307 20.3472 11.4118 20.2893C9.65056 20.1494 7.74942 19.6669 6.52382 19.0444C5.36095 18.4557 4.50206 17.6113 4.10639 16.6608C3.61422 15.4689 3.76381 13.534 4.46829 12.1347C5.2934 10.4845 6.90984 9.42295 9.38517 8.91148C11.4359 8.48686 14.6398 8.48686 16.8401 8.91148C19.8414 9.49051 21.5736 10.8078 22.1285 12.9357C22.2974 13.5775 22.3408 14.6969 22.225 15.3531C22.0851 16.1638 21.7425 16.931 21.26 17.5196C20.8788 17.9877 20.7196 18.1373 20.2178 18.5185ZM65.9123 20.4823C67.6108 21.6548 69.8111 22.3207 72.6435 22.5089C74.0138 22.6006 76.0308 22.5523 77.5411 22.3883C81.4109 21.9733 84.335 20.7477 86.2554 18.7404C87.0419 17.9153 87.5389 17.1047 87.8622 16.1155C88.1276 15.2952 88.1807 14.9478 88.1758 13.9731C88.1758 13.259 88.1565 13.0563 88.0648 12.6703C87.949 12.2023 87.6933 11.5219 87.5196 11.2227C86.1251 8.85356 83.201 7.22747 79.1816 6.59537C77.7679 6.36859 77.0779 6.32516 75.0561 6.32516C72.9813 6.32516 72.4119 6.36859 71.027 6.6195C69.0921 6.97174 67.3744 7.63279 66.0474 8.53028C65.8979 8.63161 65.7386 8.71363 65.7 8.71363C65.6325 8.71363 65.6228 8.32762 65.6228 5.00305C65.6228 1.3359 65.6228 1.29247 65.5215 1.17184C65.3574 0.954705 65.1837 0.940229 63.5142 0.954705C62.028 0.96918 61.9557 0.974005 61.8254 1.07051C61.753 1.12359 61.6661 1.24422 61.6324 1.3359C61.56 1.53855 61.5455 21.457 61.6179 21.761C61.642 21.8623 61.6999 21.9926 61.753 22.0457C61.8447 22.1374 61.9219 22.1422 63.4756 22.1422C65.0727 22.1422 65.1017 22.1374 65.203 22.036C65.3044 21.9395 65.3092 21.8768 65.3237 21.0662C65.3381 20.2893 65.3478 20.1976 65.4202 20.1976C65.4636 20.1976 65.6855 20.3231 65.9123 20.4823ZM80.7016 19.1843C79.6545 19.7055 78.5495 20.0287 77.1068 20.2266C76.4554 20.3134 73.734 20.3617 73.0054 20.2941C69.6663 19.9853 67.1331 18.9093 66.0619 17.3363C65.6083 16.6704 65.425 16.0142 65.425 15.0443C65.4298 13.5967 65.7965 12.3374 66.4914 11.4109C67.5722 9.96819 69.4058 9.08035 72.0066 8.74259C73.9849 8.48202 76.7063 8.56405 78.5302 8.93077C81.0345 9.43742 82.6075 10.4362 83.3796 12.0189C83.6691 12.6124 83.7994 13.0949 83.8717 13.8573C84.0937 16.1975 82.9936 18.0456 80.7016 19.1843ZM41.9072 22.3883C38.6068 22.1904 36.2907 21.6838 34.2351 20.7091C32.0976 19.6958 30.6886 18.311 30.1144 16.6656C29.8732 15.9756 29.8008 15.4882 29.8008 14.6486C29.8056 13.8332 29.8828 13.2541 30.0903 12.5834C31.0216 9.50496 34.2062 7.406 39.1955 6.56641C42.3318 6.04529 46.4477 6.03082 49.4828 6.54229C53.4974 7.21782 56.4552 8.83909 57.8063 11.1069C58.2984 11.9417 58.4625 12.5062 58.3853 13.1287C58.2791 13.9779 57.676 14.7065 56.8412 14.996L56.5276 15.107L45.3717 15.1215L34.211 15.1312V15.4014C34.211 16.0431 34.4812 16.8634 34.8817 17.4328C36.1266 19.194 38.9204 20.0818 43.5478 20.1831C46.6359 20.2459 49.4201 19.9467 51.2681 19.3436C51.7748 19.1795 52.6481 18.7694 53.0341 18.5088C53.425 18.2434 53.9751 17.8091 54.1343 17.6306C54.3514 17.3893 54.4817 17.399 55.7604 17.7802C56.7592 18.0794 56.9329 18.1421 57.0487 18.2675C57.2128 18.4509 57.2321 18.7694 57.0825 18.9575C56.8557 19.2471 55.6687 20.0577 54.9208 20.4341C52.7929 21.5052 50.472 22.0553 46.9013 22.3255C46.2547 22.3738 42.4621 22.422 41.9072 22.3883ZM54.0909 12.9695C54.0909 12.9164 54.0474 12.7137 53.9992 12.5159C53.4443 10.3445 51.3019 9.07069 47.3983 8.59782C45.9266 8.41447 43.3065 8.38069 42.0037 8.52062C38.6068 8.88251 35.6586 10.1757 34.5922 11.768C34.3847 12.0816 34.211 12.5786 34.211 12.8681V13.0563H44.1509C53.7724 13.0563 54.0909 13.0515 54.0909 12.9695ZM92.3304 17.9057C94.0096 20.4341 97.9421 22.0554 103.144 22.3642C104.065 22.4221 106.478 22.4221 107.578 22.369C111.014 22.2002 113.33 21.7755 115.376 20.9456C117.026 20.2749 118.691 19.1892 118.777 18.7308C118.816 18.5185 118.695 18.2435 118.522 18.1566C118.449 18.118 117.89 17.9395 117.286 17.761C116.037 17.3942 115.94 17.3894 115.689 17.6741C115.511 17.8719 114.797 18.4172 114.377 18.6681C113.257 19.3388 111.54 19.8069 109.388 20.024C107.617 20.2073 104.818 20.2411 103.259 20.1012C98.994 19.72 96.6731 18.5475 95.9831 16.434C95.8769 16.1156 95.7853 15.5751 95.7804 15.2905V15.1312H106.724C113.47 15.1312 117.803 15.1119 118.02 15.083C119.337 14.9093 120.225 13.6402 119.95 12.323C119.882 12.0045 119.501 11.2325 119.173 10.7499C118.845 10.2722 117.875 9.29756 117.349 8.92119C115.665 7.71971 113.335 6.86565 110.642 6.46999C108.9 6.20942 106.801 6.11292 104.794 6.19495C102.893 6.27698 101.855 6.37831 100.485 6.61957C96.2823 7.36265 93.2954 9.12867 92.094 11.5847C91.6211 12.5449 91.4522 13.2301 91.404 14.3447C91.3461 15.7826 91.6211 16.8394 92.3304 17.9057ZM115.308 11.7295C115.424 11.9562 115.636 12.6173 115.675 12.8779L115.704 13.0564H105.735H95.766L95.7997 12.8055C95.9445 11.715 96.8468 10.7644 98.5308 9.92001C100.195 9.09007 101.986 8.6365 104.297 8.46762C105.238 8.40007 107.448 8.43867 108.519 8.54482C112.176 8.90671 114.411 9.95378 115.308 11.7295Z" fill="currentColor" fill-opacity="0.7"/>
</svg>
