<svg width="34" height="65" viewBox="0 0 34 65" fill="none" xmlns="http://www.w3.org/2000/svg">
<path d="M1.99993 30L0.50862 29.8388L1.99993 30ZM33.2764 57.7834C33.9852 57.3546 34.2122 56.4324 33.7834 55.7236L26.7958 44.1727C26.3671 43.4639 25.4448 43.2369 24.736 43.6657C24.0272 44.0944 23.8002 45.0167 24.229 45.7255L30.4402 55.993L20.1727 62.2042C19.4639 62.6329 19.2369 63.5552 19.6656 64.264C20.0944 64.9728 21.0167 65.1998 21.7255 64.771L33.2764 57.7834ZM30.5 2C29.9938 0.58799 29.9933 0.588174 29.9927 0.588393C29.9923 0.588515 29.9916 0.588772 29.991 0.589016C29.9896 0.589503 29.9878 0.590137 29.9857 0.590917C29.9814 0.592476 29.9754 0.594619 29.968 0.597345C29.953 0.602798 29.9317 0.610584 29.9043 0.620703C29.8495 0.640941 29.7702 0.670512 29.6681 0.709404C29.4638 0.787181 29.168 0.902279 28.793 1.05459C28.0431 1.35914 26.9758 1.81298 25.6912 2.41535C23.1256 3.61849 19.6763 5.42226 16.1549 7.82316C9.18571 12.5749 1.58212 19.9086 0.50862 29.8388L3.49124 30.1612C4.41768 21.5914 11.0641 14.9251 17.8449 10.3018C21.1986 8.01524 24.4993 6.28776 26.965 5.13153C28.1961 4.55421 29.2147 4.12133 29.9219 3.83408C30.2754 3.69049 30.5508 3.58342 30.7357 3.51301C30.8282 3.4778 30.898 3.45177 30.9436 3.43493C30.9664 3.42651 30.9831 3.42039 30.9936 3.41657C30.9989 3.41466 31.0026 3.41332 31.0047 3.41256C31.0057 3.41218 31.0064 3.41195 31.0066 3.41185C31.0068 3.41181 31.0066 3.41185 31.0067 3.41182C31.0065 3.4119 31.0062 3.41201 30.5 2ZM0.50862 29.8388C-0.0449462 34.9595 1.80904 39.3179 4.76489 42.9C7.69967 46.4566 11.7569 49.3003 15.7795 51.5031C19.815 53.713 23.8992 55.323 26.9645 56.3791C28.4999 56.9082 29.7864 57.3006 30.6922 57.5615C31.1452 57.692 31.5034 57.7897 31.7503 57.8554C31.8738 57.8882 31.9695 57.9129 32.0354 57.9298C32.0683 57.9382 32.0938 57.9446 32.1116 57.9491C32.1204 57.9513 32.1274 57.953 32.1324 57.9543C32.1349 57.9549 32.1369 57.9554 32.1384 57.9558C32.1392 57.956 32.1399 57.9561 32.1403 57.9562C32.141 57.9564 32.1415 57.9565 32.5 56.5C32.8585 55.0435 32.8588 55.0435 32.8589 55.0436C32.8588 55.0436 32.8588 55.0436 32.8586 55.0435C32.8582 55.0434 32.8572 55.0431 32.8558 55.0428C32.8529 55.0421 32.8481 55.0409 32.8413 55.0392C32.8279 55.0358 32.8068 55.0305 32.7783 55.0232C32.7213 55.0086 32.6347 54.9862 32.5206 54.9559C32.2925 54.8953 31.9544 54.8031 31.5227 54.6787C30.6589 54.4299 29.422 54.0528 27.9418 53.5428C24.9758 52.5208 21.06 50.9745 17.2205 48.8719C13.3681 46.7622 9.67529 44.1372 7.07881 40.9906C4.50338 37.8696 3.04485 34.2905 3.49124 30.1612L0.50862 29.8388Z" fill="#475569" fill-opacity="0.3"/>
</svg>
