<svg width="100" height="100" viewBox="0 0 100 100" fill="none" xmlns="http://www.w3.org/2000/svg">
<mask id="mask0_410_290" style="mask-type:luminance" maskUnits="userSpaceOnUse" x="4" y="14" width="91" height="73">
<path d="M95 14H4V87H95V14Z" fill="white"/>
</mask>
<g mask="url(#mask0_410_290)">
<path d="M49.3243 40.5556C48.9585 40.7273 48.763 40.8672 48.5422 40.9117C46.915 41.2615 45.9878 42.3234 46.1644 43.9322C46.3725 45.8462 47.8358 46.463 49.5829 46.4376C54.4142 46.3677 58.4571 48.1609 61.7305 51.7028C64.5687 54.7677 66.2086 58.3796 66.0951 62.621C66.032 64.9738 66.7826 66.4745 69.4568 66.6716C69.4568 71.7015 69.6208 76.6614 69.3937 81.6022C69.255 84.7181 66.5555 86.8674 63.2316 86.9564C60.097 87.0391 56.956 86.9882 53.815 86.9882C39.7689 86.9882 25.7228 87.0009 11.683 86.9882C6.18949 86.9882 4.0009 84.7563 3.99459 79.2113C3.98828 69.3296 3.98197 59.4542 4.0009 49.5725C4.01351 44.6062 6.2904 42.3361 11.2037 42.317C14.3447 42.3043 17.4856 42.2344 20.6203 42.3488C22.153 42.4061 23.1684 41.9164 23.837 40.5493C25.3002 37.5606 27.6591 36.5623 30.9515 36.753C35.253 37.001 39.5797 36.8103 43.8938 36.8166C47.0159 36.8166 47.8989 37.4207 49.3117 40.5556H49.3243ZM21.9701 64.0263C21.9827 72.261 28.6304 78.9379 36.7982 78.9251C44.9282 78.9124 51.639 72.1529 51.6327 63.9818C51.6264 55.836 44.8399 49.032 36.7541 49.0575C28.5926 49.0893 21.9511 55.8106 21.9637 64.0263H21.9701Z" fill="#9A9B9B"/>
<path d="M50.1562 43.6452C61.4587 41.623 66.6054 36.4851 68.794 25.5859C69.4751 27.7988 69.8852 30.088 70.8691 32.0911C71.8972 34.1768 73.2596 36.2116 74.8868 37.8522C76.4573 39.4356 78.4377 40.7455 80.4624 41.6994C82.5248 42.6723 84.8584 43.0665 87.1226 43.7342C76.6969 45.254 70.6357 51.3076 68.8697 62.3339C67.1415 51.3712 61.1371 45.3366 50.1562 43.6515V43.6452Z" fill="#9A9B9B"/>
<path d="M87.0963 16.9883C88.3325 21.5094 89.9282 23.2391 94.9992 25.2803C90.8112 26.5711 87.9982 29.0193 87.1783 34.17C86.0934 29.2482 83.5516 26.5075 78.8906 25.2485C83.5012 23.8622 86.1943 21.3123 87.0963 16.9883Z" fill="#9A9B9B"/>
<path d="M65.2302 14C65.7663 15.9522 66.4475 16.6962 68.6361 17.5737C66.8259 18.1269 65.6149 19.1888 65.2617 21.4081C64.795 19.2842 63.6975 18.1015 61.6855 17.561C63.6723 16.9632 64.8328 15.8632 65.2239 14H65.2302Z" fill="#9A9B9B"/>
<path d="M36.8849 51.5158C43.7345 51.554 49.2344 57.2007 49.1587 64.1191C49.083 71.0376 43.4696 76.6143 36.6579 76.5317C29.8461 76.449 24.2832 70.7451 24.3462 63.8902C24.4093 57.0035 30.0038 51.4777 36.8849 51.5158ZM26.7934 63.9474C26.9763 64.1573 27.4304 64.6724 27.8783 65.1874C28.3071 64.7296 29.0388 64.3099 29.1082 63.8012C29.7073 59.3627 32.0915 56.8573 36.5569 56.3041C37.0615 56.2405 37.4841 55.4965 37.9445 55.0704C37.3706 54.6825 36.8029 53.9704 36.2163 53.9513C31.6815 53.7732 26.7367 58.7967 26.7934 63.9538V63.9474Z" fill="#9A9B9B"/>
</g>
</svg>
