<svg viewBox="0 0 43 43" fill="none" xmlns="http://www.w3.org/2000/svg">
<ellipse cx="20.8132" cy="21.6679" rx="17.9348" ry="18.1236" fill="#28292B" fill-opacity="0.24"/>
<path d="M18.6418 34.1778L16.5721 34.1457L16.4007 33.9853C15.8801 33.4913 15.9563 32.7728 16.5594 32.4648C16.8261 32.3237 16.9086 32.3173 18.3497 32.3173H19.8607V31.2908V30.2643L19.6893 30.2323C16.9784 29.6741 15.0675 27.865 14.3247 25.1448C14.1978 24.6894 14.1851 24.4648 14.166 22.0847L14.1406 19.5185L14.2866 19.2683C14.6612 18.6204 15.5437 18.6396 15.8738 19.3004C15.9754 19.4929 15.9881 19.7495 15.9881 21.7062C15.9881 24.1505 16.0452 24.6829 16.3753 25.4913C16.9975 26.9989 18.3497 28.0895 19.9559 28.3718C20.2607 28.4231 20.6479 28.468 20.813 28.468C20.9781 28.468 21.3653 28.4231 21.67 28.3718C23.2762 28.0895 24.6285 26.9989 25.2507 25.4913C25.5871 24.6765 25.6379 24.1569 25.6379 21.6677C25.6379 19.4672 25.6379 19.4415 25.7839 19.2298C26.1966 18.6204 27.0727 18.6653 27.3774 19.3196C27.4663 19.5057 27.479 19.8457 27.479 21.8088C27.479 23.4897 27.4536 24.221 27.3838 24.6509C27.041 26.8 25.6951 28.6412 23.7651 29.61C23.2508 29.8666 22.3049 30.2002 22.0827 30.2002C21.7716 30.2002 21.7653 30.213 21.7653 31.2972V32.3173H23.2762C24.7174 32.3173 24.7999 32.3237 25.0665 32.4648C25.6697 32.7728 25.7458 33.4913 25.2253 33.9853C25.0412 34.1649 25.3967 34.1393 21.8161 34.197C21.213 34.2034 19.7845 34.197 18.6418 34.1778Z" fill="#E2E8F0"/>
<path d="M20.2415 26.4152C19.4988 26.2548 18.6861 25.639 18.3179 24.9525C17.9561 24.2789 17.9561 24.2853 17.9561 17.8121C17.9561 14.1233 17.9814 11.7367 18.0195 11.525C18.1846 10.6269 18.8258 9.79287 19.6511 9.39511C20.0574 9.20265 20.1209 9.18982 20.8129 9.18982C21.4986 9.18982 21.5684 9.20265 21.9684 9.39511C22.6984 9.74155 23.2063 10.3061 23.4857 11.0824L23.638 11.4994V17.7865C23.638 24.8627 23.6698 24.4136 23.1492 25.1963C22.8445 25.6582 22.3112 26.088 21.7906 26.2869C21.3779 26.4409 20.6542 26.4986 20.2415 26.4152Z" fill="url(#paint0_linear_1847_3171)"/>
<path d="M40.4375 21.6678C40.4375 32.6362 31.6412 41.51 20.8125 41.51C9.98376 41.51 1.1875 32.6362 1.1875 21.6678C1.1875 10.6995 9.98376 1.82574 20.8125 1.82574C31.6412 1.82574 40.4375 10.6995 40.4375 21.6678Z" stroke="url(#paint1_linear_1847_3171)" stroke-width="2"/>
<defs>
<linearGradient id="paint0_linear_1847_3171" x1="20.7972" y1="9.18982" x2="20.7972" y2="26.4534" gradientUnits="userSpaceOnUse">
<stop stop-color="#D48AE6"/>
<stop offset="0.492158" stop-color="#B09ED3"/>
<stop offset="0.893556" stop-color="#4D44BF"/>
</linearGradient>
<linearGradient id="paint1_linear_1847_3171" x1="20.8125" y1="0.825745" x2="20.8125" y2="42.51" gradientUnits="userSpaceOnUse">
<stop stop-color="#D18DE4"/>
<stop offset="0.494792" stop-color="#B19ED4"/>
<stop offset="1" stop-color="#4E45BF"/>
</linearGradient>
</defs>
</svg>
