<svg width="18" height="17" viewBox="0 0 18 17" fill="none" xmlns="http://www.w3.org/2000/svg">
<path d="M11.9669 16.6818C11.8122 16.6115 11.647 16.4111 11.5978 16.2353C11.5521 16.056 11.5767 15.722 11.654 15.5779C11.7314 15.4267 11.9001 15.3001 12.2201 15.1525C13.6966 14.4704 14.9904 13.2118 15.7463 11.7282C16.8326 9.59775 16.8467 7.26335 15.7884 5.11528C15.24 4.00082 14.5017 3.11136 13.5173 2.37307C13.1165 2.07424 12.7685 1.8633 12.2095 1.58556C11.64 1.30431 11.5486 1.17423 11.5732 0.689069C11.5943 0.221486 11.8333 0.00351566 12.3185 0C12.5259 0 12.6033 0.0210939 12.881 0.144142C15.0959 1.13556 16.8994 3.14651 17.6412 5.44927C17.9893 6.53209 17.9998 6.61295 17.9998 8.36375C17.9998 9.98798 17.9963 10.0407 17.7889 10.8106C17.1349 13.254 15.458 15.3037 13.1552 16.4638C12.663 16.7099 12.6455 16.717 12.3642 16.724C12.1779 16.731 12.0372 16.7134 11.9669 16.6818Z" fill="#64748B"/>
<path d="M7.75203 15.6306C7.69578 15.6025 6.736 14.6708 5.62505 13.5564L3.60355 11.5313H2.10236C1.19181 11.5313 0.53438 11.5173 0.42891 11.4962C0.333988 11.4751 0.200393 11.4118 0.130079 11.352L0 11.2466V8.3989V5.55121L0.0984384 5.45981C0.295315 5.27348 0.298831 5.27348 2.00744 5.27348H3.60003L5.59341 3.25549C6.82389 2.01446 7.64304 1.21289 7.7239 1.17422C7.82234 1.125 7.93484 1.10742 8.13875 1.10742C8.38484 1.10742 8.43758 1.11797 8.56766 1.20586C8.65203 1.2586 8.75047 1.36406 8.79618 1.44844L8.87704 1.59961V8.40241C8.87704 15.1419 8.87704 15.2052 8.80672 15.3247C8.76805 15.3915 8.67664 15.4935 8.60282 15.5533C8.47625 15.6552 8.44461 15.6622 8.16336 15.6728C7.95593 15.6763 7.82234 15.6658 7.75203 15.6306Z" fill="#64748B"/>
<path d="M10.8319 14.0696C10.7651 14.038 10.6632 13.9501 10.6034 13.8763C10.5015 13.7497 10.4944 13.7181 10.4839 13.4192C10.4733 13.1134 10.4769 13.0888 10.5753 12.9376C10.6597 12.804 10.73 12.7513 11.0112 12.6142C12.0378 12.1009 12.762 11.3907 13.2507 10.4204C13.8097 9.30944 13.9011 8.14576 13.5179 6.97504C13.1101 5.7305 12.2452 4.74963 11.0183 4.13791C10.8425 4.05001 10.6562 3.92697 10.6069 3.8672C10.4839 3.72306 10.4312 3.5086 10.4523 3.26602C10.4769 2.98828 10.5648 2.82305 10.7546 2.70352C10.8952 2.61211 10.9444 2.60156 11.1941 2.60156C11.4402 2.60156 11.514 2.61914 11.7355 2.72109C12.748 3.18516 13.641 3.95509 14.2843 4.91487C14.4882 5.22073 14.8503 5.96956 14.9699 6.33871C15.3039 7.35825 15.3742 8.68365 15.1527 9.73132C14.9171 10.8387 14.3828 11.8583 13.6093 12.6634C13.0433 13.254 12.6109 13.581 11.9218 13.929C11.5316 14.1294 11.514 14.1329 11.2362 14.1329C11.0359 14.1329 10.9163 14.1153 10.8319 14.0696Z" fill="#64748B"/>
<path d="M9.86142 11.4647C9.66806 11.4154 9.52744 11.3205 9.429 11.1729C9.34462 11.0428 9.33408 10.9971 9.33408 10.7229C9.33408 10.315 9.41494 10.1885 9.79814 9.97753C10.3466 9.68222 10.7298 9.17245 10.8317 8.60643C10.9548 7.93845 10.5118 7.13688 9.82627 6.77829C9.41142 6.56383 9.3165 6.41617 9.3165 6.01187C9.3165 5.73062 9.35517 5.61109 9.48525 5.47398C9.64697 5.30171 9.7665 5.25952 10.0724 5.25952C10.322 5.25952 10.3782 5.27358 10.5821 5.37554C11.454 5.82203 12.0517 6.56735 12.2872 7.50603C12.3611 7.7908 12.3751 7.93142 12.3751 8.3533C12.3751 9.26034 12.1747 9.85449 11.6509 10.5154C11.3696 10.8705 10.9126 11.2256 10.5259 11.3943C10.336 11.4752 10.0267 11.5104 9.86142 11.4647Z" fill="#64748B"/>
</svg>
