<svg width="19" height="19" viewBox="0 0 19 19" fill="none" xmlns="http://www.w3.org/2000/svg">
<path opacity="0.2" d="M18.6575 16.9779L14.3981 12.7334C15.3779 11.412 15.9579 9.77028 15.9579 7.98841C15.9579 3.58377 12.3783 0 7.97893 0C3.57952 0 0 3.58377 0 7.98841C0 12.393 3.57952 15.9768 7.97893 15.9768C9.75869 15.9768 11.3785 15.3962 12.7183 14.4152L16.9577 18.6596C17.1977 18.8999 17.4977 19 17.7976 19C18.0976 19 18.4175 18.8799 18.6375 18.6596C19.1174 18.1992 19.1174 17.4384 18.6575 16.9779ZM2.37968 7.98841C2.37968 4.90516 4.89934 2.38251 7.97893 2.38251C11.0585 2.38251 13.5782 4.90516 13.5782 7.98841C13.5782 11.0717 11.0585 13.5943 7.97893 13.5943C4.89934 13.5943 2.37968 11.0917 2.37968 7.98841Z" fill="black"/>
</svg>
