<svg width="120" height="29" viewBox="0 0 120 29" fill="none" xmlns="http://www.w3.org/2000/svg">
<g clip-path="url(#clip0_2428_13133)">
<path d="M108.141 28.5592C107.991 28.5405 107.7 28.4842 107.513 28.4374L107.156 28.3342V27.2655C107.156 26.6749 107.184 26.1874 107.231 26.1874C107.269 26.1874 107.503 26.253 107.756 26.328C108.9 26.6749 109.875 26.328 110.475 25.3436C110.794 24.8374 111.684 22.4655 111.628 22.278C111.609 22.1842 110.334 18.9686 108.797 15.1249C107.269 11.2811 105.938 7.9436 105.834 7.69048L105.656 7.24048L107.034 7.2686L108.413 7.29673L110.634 13.5311C111.853 16.9624 112.884 19.7655 112.922 19.7655C112.959 19.7655 113.953 16.9624 115.125 13.5311L117.263 7.29673L118.547 7.2686C119.559 7.24985 119.822 7.2686 119.784 7.36235C119.766 7.42798 118.256 11.3655 116.447 16.1092C114.628 20.853 112.894 25.2499 112.594 25.8686C111.975 27.153 111.431 27.7905 110.653 28.1936C109.978 28.5311 109.041 28.6717 108.141 28.5592Z" fill="black"/>
<path d="M5.10957 22.9062C2.5502 22.6156 0.881445 21.2187 0.29082 18.875C0.19707 18.4812 0.0845703 17.6 0.0470703 16.8875L-0.0185547 15.5937H1.34082H2.7002L2.76582 16.6531C2.8877 18.5937 3.21582 19.4937 4.04082 20.0937C4.66895 20.5437 5.30645 20.6844 6.46895 20.6375C7.32207 20.6 7.55645 20.5531 7.99707 20.3375C8.8877 19.9062 9.3752 19.1094 9.55332 17.8156C9.61895 17.3469 9.65645 14.2812 9.65645 9.25625V1.4375H11.0158H12.3846L12.3564 9.89375C12.3189 19.2969 12.3564 18.7531 11.6721 20.1406C11.0533 21.425 9.6752 22.4375 8.10957 22.7656C7.26582 22.9437 5.93457 23.0094 5.10957 22.9062Z" fill="black"/>
<path d="M22.275 22.9061C17.0531 22.3061 13.875 18.1999 13.875 12.0311C13.875 7.86864 15.4406 4.42801 18.1875 2.56239C19.8375 1.44676 21.5625 0.959263 23.8594 0.968638C26.6719 0.968638 28.7906 1.79364 30.4406 3.53739C31.4156 4.55926 32.1281 5.97489 32.3813 7.37176L32.4469 7.71864H31.0969H29.7469L29.5031 6.96864C29.1938 6.04989 28.7813 5.38426 28.1156 4.75614C27.0563 3.76239 25.8656 3.31239 24.1313 3.23739C22.6594 3.18114 21.7313 3.35926 20.5406 3.94051C18.0563 5.14051 16.5938 8.04676 16.5938 11.7968C16.5938 16.3436 18.3563 19.3905 21.5625 20.3936C22.1719 20.5811 22.4625 20.6093 23.7188 20.6093C25.0031 20.6093 25.2563 20.5811 25.8656 20.3843C26.7656 20.0843 27.825 19.3811 28.3688 18.7061C29.1281 17.7686 29.7281 16.3436 29.8688 15.1343L29.9344 14.5624H31.275C32.8313 14.5624 32.7094 14.4499 32.475 15.6874C31.7531 19.5218 29.3906 22.0155 25.7719 22.7561C24.8719 22.9343 23.2125 23.0093 22.275 22.9061Z" fill="black"/>
<path d="M54.9189 22.7187C52.0408 22.1937 50.1752 20.3937 49.4064 17.3937C48.9845 15.7437 48.9752 13.9249 49.3689 12.3593C49.5845 11.5155 50.3627 9.99678 50.9158 9.35928C52.3502 7.6999 54.047 6.93115 56.2502 6.93115C58.0502 6.93115 59.3345 7.40928 60.5345 8.50615C62.0158 9.86553 62.8877 11.9655 63.0564 14.5905L63.122 15.5937H57.3845H51.6564V16.1093C51.6564 17.8343 52.5845 19.4187 54.0095 20.1312C54.8814 20.5718 55.5283 20.6843 56.7189 20.6374C58.0595 20.5718 58.6408 20.3468 59.4002 19.5874C59.9158 19.0624 60.1314 18.6968 60.4127 17.8249C60.4595 17.6749 60.6002 17.6562 61.6408 17.6562H62.8314L62.7658 17.9655C62.7283 18.1249 62.5877 18.5655 62.447 18.9312C61.7627 20.703 60.3377 22.0062 58.5002 22.5312C57.7127 22.7562 55.697 22.8593 54.9189 22.7187ZM60.4689 13.1749C60.4689 13.0343 60.4033 12.6687 60.3283 12.378C59.4564 9.04053 55.2752 7.8874 52.9314 10.3343C52.2283 11.0749 51.6658 12.3499 51.6564 13.1843V13.4374H56.0627H60.4689V13.1749Z" fill="black"/>
<path d="M97.8564 22.6343C95.4283 22.0999 93.6939 20.4499 92.9158 17.9374C92.5595 16.7843 92.4845 16.2218 92.4939 14.703C92.4939 13.4562 92.5314 13.0718 92.7002 12.453C93.3095 10.2405 94.6314 8.54365 96.422 7.6624C97.5939 7.09053 98.2595 6.93115 99.5627 6.93115C102.15 6.93115 104.006 8.01865 105.272 10.2687C105.928 11.4312 106.406 13.3718 106.406 14.8718V15.5937H100.688H94.9689V15.9968C94.9689 16.6249 95.222 17.6562 95.5314 18.2749C96.3002 19.8499 97.7345 20.6562 99.7595 20.6562C101.325 20.6562 102.413 20.178 103.125 19.1749C103.331 18.8937 103.575 18.4343 103.66 18.153L103.819 17.6562H105.01H106.21L106.06 18.1437C105.666 19.4843 105.038 20.553 104.222 21.2655C103.66 21.7624 102.488 22.3624 101.672 22.5874C100.781 22.8218 98.8502 22.8499 97.8564 22.6343ZM103.819 12.9968C103.35 9.85615 100.247 8.1499 97.4064 9.48115C96.197 10.053 95.2595 11.4405 95.0158 13.0437L94.9502 13.4374H99.422H103.885L103.819 12.9968Z" fill="black"/>
<path d="M33.9375 11.928V1.42798L39.3563 1.4561C44.1562 1.48423 44.8313 1.51235 45.3281 1.65298C47.475 2.2811 48.8719 3.67798 49.3781 5.7311C49.5938 6.5936 49.5938 8.6561 49.3781 9.5186C48.9844 11.1217 47.9906 12.4061 46.65 13.0624C45.2438 13.7561 45.2438 13.7561 40.7156 13.7936L36.6562 13.8217V18.1342V22.4374H35.2969H33.9375V11.928ZM44.1281 11.3467C45.7688 10.8592 46.575 9.94985 46.8094 8.3186C47.0719 6.5186 46.35 4.87798 45.0469 4.25923C44.025 3.7811 43.7625 3.75298 40.1063 3.7061L36.6562 3.6686V7.62485V11.5811L40.1531 11.5342C42.9469 11.5061 43.7344 11.4686 44.1281 11.3467Z" fill="black"/>
<path d="M64.3125 14.8437V7.2499H65.4375H66.5625V8.46865C66.5625 9.14365 66.5906 9.6874 66.6375 9.6874C66.675 9.6874 66.8156 9.4999 66.9563 9.28428C67.2844 8.75928 68.175 7.91553 68.7188 7.60615C69.5156 7.14678 70.4344 6.93115 71.625 6.93115C74.475 6.93115 75.9469 7.94365 76.6594 10.3905C76.8 10.8874 76.8188 11.5905 76.8563 16.6999L76.8844 22.4374H75.6656H74.4469L74.4188 16.8405L74.3906 11.2343L74.175 10.7655C73.8938 10.1468 73.3031 9.55615 72.7125 9.30303C71.6813 8.8624 69.8344 9.02178 68.775 9.64053C67.8656 10.1749 67.1063 11.2999 66.8531 12.4812C66.7875 12.8093 66.75 14.5718 66.75 17.703V22.4374H65.5312H64.3125V14.8437Z" fill="black"/>
<path d="M78.5625 14.8437V7.24991H79.7344H80.8969L80.925 8.48741L80.9531 9.73429L81.4031 9.09679C81.9375 8.34679 82.6125 7.78429 83.3906 7.43741C84.2531 7.04366 84.8813 6.92179 86.0625 6.93116C87.7125 6.94054 88.8656 7.31554 89.7094 8.12179C90.2531 8.64679 90.5156 9.07804 90.825 9.94054L91.0781 10.6718L91.1063 16.5593L91.1344 22.4374H89.9531H88.7812V17.3093C88.7812 14.2249 88.7438 11.9374 88.6875 11.5718C88.3969 9.80929 87.1594 8.91866 85.1813 9.05929C82.8469 9.22804 81.4406 10.578 81.0938 12.9874C81.0469 13.3062 81 15.5749 81 18.0124V22.4374H79.7812H78.5625V14.8437Z" fill="black"/>
</g>
<defs>
<clipPath id="clip0_2428_13133">
<rect width="120" height="27.75" fill="white" transform="translate(0 0.875)"/>
</clipPath>
</defs>
</svg>
