<svg width="161" height="177" viewBox="0 0 161 177" fill="none" xmlns="http://www.w3.org/2000/svg">
<path d="M30.2278 53.2736C30.893 53.1677 31.4307 53.2104 31.8408 53.4017C32.271 53.5856 32.5591 53.8781 32.705 54.279C32.9458 54.9406 32.9305 55.491 32.659 55.9303C32.4076 56.3624 31.8701 56.6942 31.0463 56.926C29.191 57.4423 27.7449 57.8665 26.7079 58.1985C25.6837 58.5032 24.346 58.9447 22.6949 59.5229C23.2957 63.4815 23.9639 67.4382 24.6996 71.3931C24.9753 72.8366 25.3211 74.5042 25.7373 76.3959C26.1461 78.2677 26.511 79.7694 26.8322 80.9012C27.0037 81.4971 26.9273 82.0357 26.603 82.517C26.2714 82.9782 25.7949 83.3219 25.1734 83.5481C24.5119 83.7889 23.9423 83.8146 23.4647 83.6252C22.9872 83.4358 22.6535 83.0804 22.4638 82.5592C22.2887 82.0781 22.0706 81.2607 21.8097 80.1071C21.5614 78.9261 21.315 77.6877 21.0704 76.3919C20.8458 75.0887 20.6295 73.9642 20.4215 73.0184C20.0875 71.4145 19.7872 69.8098 19.5206 68.2041C19.254 66.5985 19.0166 65.073 18.8084 63.6277C18.7591 63.3051 18.7052 62.9388 18.6468 62.5287C18.581 62.0986 18.5107 61.6247 18.4359 61.1071C16.4932 61.8823 15.0079 62.6045 13.9802 63.2737C12.9524 63.943 12.2855 64.6057 11.9795 65.2619C11.6862 65.8908 11.6746 66.5761 11.9446 67.3178C12.1926 67.9994 12.6302 68.578 13.2574 69.0535C13.3886 69.1647 13.4834 69.3004 13.5418 69.4608C13.6805 69.8417 13.5812 70.2864 13.2442 70.795C12.9199 71.2763 12.5172 71.6045 12.0361 71.7796C11.6953 71.9037 11.3782 71.9056 11.0847 71.7854C10.5597 71.5905 10.0538 71.2298 9.56703 70.7032C9.07294 70.1565 8.67996 69.4823 8.3881 68.6804C7.76791 66.9764 7.82304 65.4126 8.55349 63.9889C9.2967 62.5379 10.7134 61.1595 12.8036 59.8539C14.9138 58.541 17.753 57.2352 21.3214 55.9364C23.5265 55.1338 25.2952 54.5355 26.6274 54.1414C27.9797 53.74 29.1798 53.4508 30.2278 53.2736ZM37.7125 78.9843C36.9507 79.2615 36.2635 79.0576 35.6509 78.3725C35.0583 77.6801 34.441 76.4518 33.7989 74.6877C32.8504 72.0816 32.3201 69.4708 32.2082 66.8554C32.177 66.2084 32.3145 65.6816 32.6205 65.275C32.9394 64.8412 33.4697 64.4892 34.2114 64.2193C34.6123 64.0733 34.9112 64.0213 35.1081 64.0632C35.3049 64.105 35.4544 64.2663 35.5566 64.547C35.6733 64.8677 35.7857 65.6441 35.8936 66.8762C35.9849 67.751 36.0799 68.511 36.1786 69.1562C36.2772 69.8014 36.4469 70.5796 36.6878 71.4908C36.7218 69.526 36.9528 67.8528 37.3807 66.4711C37.8086 65.0894 38.3296 64.0258 38.9436 63.2801C39.5776 62.5272 40.2254 62.0303 40.887 61.7896C42.19 61.3153 43.0787 61.7297 43.5529 63.0327C43.6478 63.2933 43.7874 63.9576 43.9718 65.0256C44.1033 65.8859 44.2055 66.4162 44.2785 66.6167C44.5339 67.3183 44.9121 67.578 45.4133 67.3956C45.9746 67.1913 46.5358 66.4876 47.0968 65.2844C47.2625 64.929 47.4857 64.7002 47.7664 64.598C48.027 64.5032 48.2713 64.5505 48.4991 64.74C48.7398 64.9021 48.9294 65.1736 49.068 65.5545C49.338 66.2963 49.3491 66.9506 49.1014 67.5175C48.7517 68.3031 48.2726 69.0451 47.664 69.7433C47.0682 70.4142 46.3493 70.9029 45.5074 71.2094C44.4449 71.5961 43.5345 71.621 42.7762 71.284C42.0379 70.9397 41.501 70.3065 41.1653 69.3844C41.0559 69.0837 40.9765 68.772 40.9272 68.4494C40.8214 68.0339 40.7429 67.756 40.6918 67.6157C40.5751 67.2949 40.4065 67.1747 40.186 67.2549C39.8853 67.3644 39.6084 67.8511 39.3553 68.7151C39.1149 69.5518 38.9548 70.6089 38.875 71.8866C38.7952 73.1643 38.8275 74.4693 38.9719 75.8016C39.0943 76.8241 39.0672 77.5604 38.8905 78.0106C38.7266 78.4335 38.3339 78.7581 37.7125 78.9843ZM54.6314 56.787C55.0925 56.6192 55.4351 56.5626 55.6593 56.6172C55.8835 56.6718 56.0467 56.8394 56.1488 57.1201C56.3239 57.6012 56.6872 59.4101 57.2385 62.5467C57.8063 65.5411 58.1449 67.3135 58.2544 67.8639C59.3878 73.2859 59.8503 77.7375 59.6417 81.2188C59.4331 84.7001 58.2463 86.8347 56.0813 87.6227C55.0589 87.9949 54.1102 87.9769 53.2352 87.5689C52.3675 87.1809 51.7476 86.4758 51.3755 85.4534C51.0326 84.5112 50.8928 83.4723 50.9563 82.3368C51.0398 81.194 51.4294 79.7695 52.1252 78.0633C52.8482 76.3699 53.9831 74.3109 55.5298 71.8863L55.3683 71.1619C55.2387 70.3691 55.0123 69.2482 54.6893 67.7993C54.8137 69.3886 54.6537 70.6955 54.2093 71.7199C53.7576 72.7243 53.1308 73.3725 52.3289 73.6643C51.4268 73.9927 50.5355 73.8517 49.655 73.2414C48.7872 72.6037 48.1272 71.6634 47.6748 70.4205C47.1275 68.917 46.728 67.5073 46.4761 66.1914C46.2169 64.8555 46.0624 63.402 46.0127 61.8309C45.9943 61.1566 46.1181 60.6234 46.3841 60.2315C46.6501 59.8395 47.174 59.5013 47.9558 59.2167C48.3968 59.0562 48.7231 59.0169 48.9345 59.0989C49.166 59.1735 49.3328 59.3512 49.435 59.6318C49.4934 59.7922 49.5801 60.3736 49.6952 61.376C49.7647 62.1907 49.8488 62.9207 49.9474 63.5658C50.0862 64.4461 50.2341 65.289 50.391 66.0946C50.5407 66.8801 50.7031 67.5134 50.8782 67.9946C51.1555 68.7563 51.5046 69.0606 51.9256 68.9074C52.2263 68.7979 52.4877 68.3622 52.7099 67.6003C52.9521 66.8311 53.1012 65.7439 53.1573 64.3386C53.2334 62.926 53.1874 61.2401 53.0191 59.2808C52.9606 58.6211 53.0443 58.1025 53.2702 57.7252C53.5161 57.3405 53.9698 57.0278 54.6314 56.787ZM55.3504 84.5855C55.8516 84.4031 56.2013 83.6175 56.3995 82.2286C56.5978 80.8397 56.5151 78.679 56.1516 75.7465C55.0822 77.6113 54.3901 79.2027 54.0752 80.5205C53.7876 81.8511 53.7897 82.9174 54.0816 83.7193C54.2056 84.0601 54.3679 84.3188 54.5685 84.4956C54.7891 84.665 55.0497 84.695 55.3504 84.5855ZM68.7898 49.3862C67.9478 49.6927 67.247 49.7321 66.6874 49.5044C66.1205 49.2567 65.7094 48.782 65.454 48.0804C65.1986 47.3788 65.2576 46.6989 65.6311 46.0408C66.0173 45.3554 66.6213 44.8631 67.4433 44.564C68.185 44.294 68.8521 44.2555 69.4445 44.4485C70.0369 44.6416 70.4535 45.0688 70.6943 45.7304C70.9861 46.5323 70.959 47.2686 70.6129 47.9394C70.2595 48.5902 69.6518 49.0725 68.7898 49.3862ZM74.4265 65.6215C73.1234 66.0957 72.0034 65.9812 71.0664 65.278C70.1494 64.5674 69.4136 63.4504 68.8591 61.9268C68.5307 61.0247 68.2215 59.8319 67.9312 58.3484C67.6537 56.8375 67.4729 55.4049 67.3886 54.0508C67.3356 53.3436 67.4156 52.815 67.6288 52.465C67.8419 52.115 68.2792 51.8196 68.9408 51.5788C69.9632 51.2067 70.5984 51.3614 70.8465 52.043C71.0289 52.5442 71.2616 53.7762 71.5447 55.7391C71.8662 58.1194 72.1692 59.7004 72.4538 60.4822C72.6727 61.0836 72.9207 61.5155 73.1978 61.7779C73.4749 62.0403 73.8039 62.1022 74.1848 61.9635C74.5457 61.8322 74.9055 61.4174 75.2644 60.7193C75.6232 60.0211 76.0567 58.9666 76.5648 57.5557C76.7032 57.1875 76.9228 56.9487 77.2235 56.8392C77.4841 56.7444 77.7283 56.7917 77.9562 56.9812C78.2041 57.1634 78.4047 57.4649 78.5579 57.8859C78.8498 58.6878 78.8855 59.3786 78.6652 59.9582C77.5634 63.1062 76.1505 64.994 74.4265 65.6215ZM78.9743 51.162C79.2991 52.1789 79.5636 52.9681 79.7679 53.5294C80.2932 54.9727 80.7756 56.0798 81.2151 56.8507C81.6673 57.5942 82.1295 58.0843 82.6016 58.3211C83.0865 58.5306 83.6397 58.5222 84.2611 58.296C84.5819 58.1793 84.9263 57.9404 85.2944 57.5794C85.6624 57.2185 85.9685 56.8119 86.2126 56.3598C86.3602 56.0791 86.5442 55.8986 86.7647 55.8183C87.0053 55.7308 87.2468 55.8018 87.4893 56.0314C87.7445 56.2336 87.9414 56.5252 88.0801 56.9061C88.2187 57.287 88.2735 57.687 88.2444 58.1062C88.2355 58.5181 88.1244 58.8991 87.9112 59.2491C87.1826 60.4905 86.1567 61.352 84.8336 61.8336C82.9291 62.5268 81.2477 62.242 79.7892 60.9794C78.3234 59.6967 77.1236 57.7723 76.1896 55.2063C75.8686 54.3243 75.574 53.4212 75.3058 52.4972L74.133 52.9241C73.5316 53.143 73.0805 53.1823 72.7798 53.042C72.499 52.8945 72.2711 52.5802 72.096 52.099C71.6874 50.9764 71.9342 50.2509 72.8363 49.9226L74.5503 49.2988C74.0884 46.9696 73.8764 44.7652 73.914 42.6855C73.9517 40.6059 74.2647 38.8461 74.853 37.406C75.4613 35.9587 76.3368 35.027 77.4794 34.6111C78.3214 34.3047 79.1179 34.4348 79.869 35.0014C80.6201 35.568 81.2 36.4126 81.6086 37.5352C82.7395 40.6425 82.4215 43.8231 80.6545 47.077L84.0224 45.8512C84.3431 45.7344 84.5992 45.7207 84.7906 45.81C84.982 45.8992 85.147 46.1343 85.2856 46.5152C85.7891 47.8984 84.9082 49.0023 82.6429 49.8268L78.9743 51.162ZM77.7182 37.7934C77.4175 37.9028 77.2154 38.4078 77.1118 39.3082C77.0209 40.1812 77.0495 41.3514 77.1975 42.8185C77.3584 44.2584 77.624 45.8303 77.9945 47.5343C78.8051 46.0815 79.2713 44.6178 79.393 43.1432C79.5274 41.6413 79.4049 40.3692 79.0255 39.3267C78.595 38.144 78.1593 37.6329 77.7182 37.7934ZM110.429 41.893C110.689 41.7982 110.937 41.8555 111.172 42.065C111.407 42.2746 111.598 42.5798 111.744 42.9808C112.094 43.943 112.011 44.6201 111.496 45.0121C110.446 45.8709 109.211 46.593 107.789 47.1785C108.021 49.0011 107.762 50.6279 107.011 52.0588C106.254 53.4698 105.163 54.4343 103.74 54.9523C102.537 55.3901 101.399 55.4752 100.325 55.2076C99.2715 54.9327 98.3491 54.3944 97.5579 53.5926C96.7666 52.7909 96.1667 51.8287 95.7581 50.7061C95.2036 49.1826 95.0017 47.7236 95.1526 46.3293C95.2962 44.9149 95.7588 43.6908 96.5404 42.6572C97.3147 41.6035 98.3233 40.8504 99.5662 40.398C101.09 39.8435 102.506 39.9297 103.815 40.6565C105.136 41.356 106.158 42.4484 106.881 43.9336C107.801 43.5305 108.85 42.9215 110.029 42.1064C110.175 42.0079 110.308 41.9368 110.429 41.893ZM102.82 51.6773C103.462 51.4438 103.918 50.9826 104.189 50.2935C104.481 49.5972 104.528 48.7287 104.331 47.6881C103.556 47.4933 102.874 47.1171 102.286 46.5595C101.717 45.9947 101.294 45.3314 101.016 44.5696C100.9 44.2489 100.813 43.9172 100.756 43.5745L100.606 43.6292C99.8042 43.9211 99.2749 44.5564 99.0182 45.5353C98.7742 46.4868 98.9076 47.6641 99.4184 49.0674C99.8197 50.17 100.337 50.9353 100.969 51.3635C101.622 51.7843 102.239 51.8889 102.82 51.6773ZM115.141 50.8024C114.239 51.1308 113.348 50.9898 112.468 50.3794C111.6 49.7418 110.94 48.8015 110.487 47.5586C109.94 46.0551 109.541 44.6454 109.289 43.3295C109.029 41.9936 108.875 40.5401 108.825 38.969C108.807 38.2947 108.931 37.7615 109.197 37.3696C109.463 36.9776 109.987 36.6394 110.768 36.3548C111.209 36.1943 111.536 36.155 111.747 36.237C111.979 36.3116 112.145 36.4893 112.248 36.7699C112.306 36.9303 112.393 37.5117 112.508 38.5141C112.577 39.3288 112.661 40.0587 112.76 40.7039C113.125 42.9548 113.435 44.431 113.691 45.1326C113.844 45.5536 114.004 45.8361 114.17 45.98C114.328 46.1039 114.518 46.1257 114.738 46.0455C115.039 45.936 115.3 45.5003 115.522 44.7384C115.765 43.9692 115.914 42.882 115.97 41.4767C116.046 40.0641 116 38.3782 115.832 36.4189C115.773 35.7592 115.857 35.2406 116.083 34.8632C116.329 34.4786 116.782 34.1659 117.444 33.9251C117.905 33.7573 118.248 33.7007 118.472 33.7553C118.689 33.7899 118.852 33.9575 118.961 34.2582C119.144 34.7594 119.393 36.2238 119.709 38.6514C120.082 41.4217 120.377 43.1076 120.596 43.709C120.735 44.0898 120.925 44.3614 121.165 44.5235C121.399 44.6656 121.646 44.6892 121.906 44.5944C122.307 44.4484 122.691 44.0364 123.057 43.3583C123.436 42.6528 123.886 41.581 124.406 40.1428C124.545 39.7746 124.764 39.5357 125.065 39.4263C125.326 39.3314 125.57 39.3787 125.798 39.5682C126.046 39.7504 126.246 40.052 126.4 40.473C126.691 41.2749 126.727 41.9656 126.507 42.5453C126.031 43.9215 125.417 45.1328 124.662 46.1792C123.928 47.2184 122.93 47.9678 121.667 48.4274C120.704 48.7777 119.858 48.6658 119.127 48.0919C118.416 47.5107 117.816 46.5485 117.327 45.2054C117.482 46.6926 117.354 47.9311 116.943 48.9209C116.524 49.8907 115.923 50.5179 115.141 50.8024ZM126.811 33.751C127.135 34.768 127.4 35.5571 127.604 36.1184C128.129 37.5618 128.612 38.6689 129.051 39.4397C129.504 40.1832 129.966 40.6734 130.438 40.9102C130.923 41.1196 131.476 41.1113 132.097 40.8851C132.418 40.7683 132.763 40.5295 133.131 40.1685C133.499 39.8075 133.805 39.401 134.049 38.9489C134.196 38.6681 134.38 38.4876 134.601 38.4074C134.841 38.3198 135.083 38.3908 135.325 38.6204C135.581 38.8227 135.778 39.1142 135.916 39.4951C136.055 39.876 136.11 40.276 136.081 40.6953C136.072 41.1072 135.961 41.4881 135.747 41.8381C135.019 43.0796 133.993 43.9411 132.67 44.4226C130.765 45.1158 129.084 44.831 127.625 43.5684C126.16 42.2857 124.96 40.3614 124.026 37.7954C123.705 36.9133 123.41 36.0103 123.142 35.0863L121.969 35.5131C121.368 35.732 120.917 35.7713 120.616 35.6311C120.335 35.4835 120.107 35.1692 119.932 34.6881C119.524 33.5655 119.77 32.84 120.672 32.5116L122.386 31.8878C121.925 29.5586 121.713 27.3542 121.75 25.2746C121.788 23.1949 122.101 21.4351 122.689 19.995C123.298 18.5477 124.173 17.6161 125.316 17.2002C126.158 16.8937 126.954 17.0238 127.705 17.5904C128.456 18.157 129.036 19.0017 129.445 20.1243C130.576 23.2315 130.258 26.4121 128.491 29.666L131.859 28.4402C132.179 28.3235 132.435 28.3097 132.627 28.399C132.818 28.4882 132.983 28.7233 133.122 29.1042C133.625 30.4874 132.744 31.5913 130.479 32.4158L126.811 33.751ZM125.554 20.3824C125.254 20.4919 125.052 20.9968 124.948 21.8972C124.857 22.7703 124.886 23.9404 125.034 25.4076C125.195 26.8474 125.46 28.4193 125.831 30.1234C126.641 28.6705 127.108 27.2068 127.229 25.7323C127.364 24.2304 127.241 22.9582 126.862 21.9158C126.431 20.733 125.995 20.2219 125.554 20.3824ZM139.725 33.7159C139.324 33.8618 138.961 33.892 138.634 33.8064C138.308 33.7209 138.076 33.4876 137.937 33.1067L137.879 32.8552C137.403 30.486 136.934 27.7622 136.472 24.6839C136.01 21.6056 135.65 18.9328 135.392 16.6655C135.246 15.2658 135.885 14.3069 137.308 13.7889C138.591 13.3219 139.382 13.4994 139.681 14.3213C139.747 14.5017 139.79 14.7131 139.81 14.9555C140.062 17.2702 140.308 20.0979 140.548 23.4387C140.78 26.7595 140.91 29.6748 140.939 32.1845C140.952 32.9063 140.547 33.4167 139.725 33.7159ZM141.198 41.3185C140.316 41.6396 139.557 41.6435 138.921 41.3302C138.305 41.0095 137.854 40.4583 137.57 39.6765C137.241 38.7744 137.229 37.9615 137.534 37.2378C137.858 36.5069 138.481 35.9736 139.403 35.6379C140.285 35.3169 141.027 35.2966 141.628 35.5771C142.243 35.8303 142.703 36.3779 143.01 37.2198C143.345 38.142 143.355 38.9786 143.038 39.7296C142.713 40.4605 142.1 40.9902 141.198 41.3185Z" fill="#94A3B8"/>
<path d="M132.5 127L131.208 127.762L132.5 127ZM146.757 175.899C147.397 176.424 148.342 176.331 148.868 175.69L157.428 165.251C157.953 164.61 157.86 163.665 157.219 163.14C156.578 162.615 155.633 162.708 155.108 163.349L147.499 172.628L138.22 165.019C137.579 164.494 136.634 164.587 136.109 165.228C135.583 165.868 135.677 166.813 136.317 167.339L146.757 175.899ZM88 91.3013C87.3847 92.6692 87.3845 92.6692 87.3845 92.6692C87.3846 92.6692 87.3847 92.6693 87.385 92.6694C87.3856 92.6697 87.3867 92.6702 87.3883 92.6709C87.3914 92.6723 87.3965 92.6746 87.4034 92.6777C87.4173 92.684 87.4388 92.6938 87.4676 92.707C87.5253 92.7334 87.6126 92.7736 87.7278 92.8273C87.9582 92.9346 88.3004 93.0961 88.742 93.3098C89.6252 93.7372 90.9053 94.3735 92.4826 95.2043C95.6385 96.8665 99.9773 99.3035 104.704 102.4C114.198 108.619 125.087 117.39 131.208 127.762L133.792 126.238C127.315 115.262 115.955 106.183 106.348 99.8903C101.524 96.7305 97.1 94.2456 93.8806 92.5499C92.2702 91.7018 90.9595 91.0502 90.0489 90.6094C89.5935 90.389 89.238 90.2213 88.9949 90.108C88.8734 90.0514 88.78 90.0084 88.7162 89.9792C88.6843 89.9646 88.6598 89.9534 88.6429 89.9458C88.6345 89.942 88.628 89.939 88.6234 89.9369C88.6211 89.9359 88.6192 89.9351 88.6179 89.9345C88.6172 89.9342 88.6166 89.9339 88.6163 89.9337C88.6158 89.9335 88.6154 89.9333 88 91.3013ZM131.208 127.762C137.402 138.259 141.161 150.035 143.37 159.225C144.472 163.813 145.185 167.739 145.621 170.515C145.839 171.902 145.988 173.001 146.083 173.75C146.13 174.125 146.163 174.412 146.185 174.604C146.195 174.7 146.203 174.772 146.208 174.82C146.211 174.843 146.212 174.861 146.213 174.872C146.214 174.878 146.214 174.882 146.215 174.884C146.215 174.885 146.215 174.886 146.215 174.886C146.215 174.887 146.215 174.887 146.215 174.887C146.215 174.887 146.215 174.887 147.708 174.739C149.2 174.591 149.2 174.591 149.2 174.59C149.2 174.59 149.2 174.59 149.2 174.589C149.2 174.588 149.2 174.586 149.2 174.584C149.199 174.58 149.199 174.575 149.198 174.567C149.197 174.553 149.194 174.532 149.192 174.506C149.186 174.452 149.177 174.373 149.166 174.271C149.143 174.066 149.108 173.765 149.059 173.376C148.961 172.599 148.808 171.469 148.585 170.049C148.138 167.209 147.411 163.203 146.286 158.524C144.041 149.182 140.196 137.089 133.792 126.238L131.208 127.762Z" fill="#64748B"/>
</svg>
