<svg xmlns="http://www.w3.org/2000/svg" xmlns:xlink="http://www.w3.org/1999/xlink" width="100" zoomAndPan="magnify" viewBox="0 0 75 74.999997" height="100" preserveAspectRatio="xMidYMid meet" version="1.0"><defs><g/><clipPath id="d3769bff1d"><path d="M 22.71875 41.101562 L 51.832031 41.101562 L 51.832031 41.359375 L 22.71875 41.359375 Z M 22.71875 41.101562 " clip-rule="nonzero"/></clipPath></defs><g fill="#ffffff" fill-opacity="1"><g transform="translate(14.126954, 31.035319)"><g><path d="M 4.625 -17.15625 C 4.6875 -17.175781 4.75 -17.1875 4.8125 -17.1875 C 4.875 -17.1875 4.925781 -17.1875 4.96875 -17.1875 C 5.132812 -17.1875 5.25 -17.144531 5.3125 -17.0625 C 5.382812 -16.976562 5.445312 -16.820312 5.5 -16.59375 C 5.59375 -16.175781 5.640625 -15.734375 5.640625 -15.265625 C 5.679688 -14.722656 5.664062 -14.175781 5.59375 -13.625 C 5.53125 -13.082031 5.460938 -12.535156 5.390625 -11.984375 C 5.265625 -10.878906 5.101562 -9.78125 4.90625 -8.6875 C 4.707031 -7.601562 4.585938 -6.5 4.546875 -5.375 C 4.535156 -4.707031 4.523438 -4.035156 4.515625 -3.359375 C 4.503906 -2.691406 4.507812 -2.03125 4.53125 -1.375 C 4.53125 -0.988281 4.457031 -0.679688 4.3125 -0.453125 C 4.175781 -0.234375 3.90625 -0.125 3.5 -0.125 C 2.90625 -0.125 2.539062 -0.421875 2.40625 -1.015625 C 2.375 -1.148438 2.351562 -1.289062 2.34375 -1.4375 C 2.34375 -1.59375 2.332031 -1.734375 2.3125 -1.859375 C 2.28125 -3.359375 2.328125 -4.847656 2.453125 -6.328125 C 2.585938 -7.816406 2.789062 -9.296875 3.0625 -10.765625 C 3.144531 -11.285156 3.222656 -11.800781 3.296875 -12.3125 C 3.367188 -12.820312 3.4375 -13.335938 3.5 -13.859375 C 3.539062 -14.140625 3.585938 -14.425781 3.640625 -14.71875 C 3.703125 -15.007812 3.765625 -15.316406 3.828125 -15.640625 C 3.410156 -15.128906 2.988281 -14.613281 2.5625 -14.09375 C 2.132812 -13.570312 1.695312 -13.0625 1.25 -12.5625 C 1.175781 -12.5 1.023438 -12.367188 0.796875 -12.171875 C 0.566406 -11.984375 0.394531 -11.890625 0.28125 -11.890625 C 0.15625 -11.890625 0.0625 -11.945312 0 -12.0625 C 0.0820312 -12.144531 0.164062 -12.234375 0.25 -12.328125 C 0.332031 -12.421875 0.40625 -12.507812 0.46875 -12.59375 C 1.070312 -13.21875 1.640625 -13.875 2.171875 -14.5625 C 2.710938 -15.25 3.179688 -15.984375 3.578125 -16.765625 C 3.660156 -16.898438 3.75 -17.007812 3.84375 -17.09375 C 3.9375 -17.1875 4.054688 -17.234375 4.203125 -17.234375 C 4.234375 -17.234375 4.269531 -17.226562 4.3125 -17.21875 C 4.351562 -17.21875 4.398438 -17.207031 4.453125 -17.1875 C 4.484375 -17.164062 4.539062 -17.15625 4.625 -17.15625 Z M 4.625 -17.15625 "/></g></g></g><g fill="#ffffff" fill-opacity="1"><g transform="translate(23.228313, 31.035319)"><g><path d="M 7.734375 -17.265625 C 7.960938 -17.265625 8.128906 -17.21875 8.234375 -17.125 C 8.347656 -17.03125 8.421875 -16.867188 8.453125 -16.640625 C 8.484375 -16.472656 8.507812 -16.296875 8.53125 -16.109375 C 8.5625 -15.929688 8.5625 -15.753906 8.53125 -15.578125 C 8.269531 -14.109375 8.132812 -12.632812 8.125 -11.15625 C 8.113281 -9.675781 8.132812 -8.195312 8.1875 -6.71875 C 8.21875 -5.988281 8.234375 -5.253906 8.234375 -4.515625 C 8.234375 -3.773438 8.242188 -3.039062 8.265625 -2.3125 C 8.273438 -2.050781 8.285156 -1.789062 8.296875 -1.53125 C 8.304688 -1.269531 8.316406 -1.007812 8.328125 -0.75 C 8.347656 -0.507812 8.320312 -0.34375 8.25 -0.25 C 8.1875 -0.164062 8.039062 -0.09375 7.8125 -0.03125 C 7.75 -0.0078125 7.675781 0.00390625 7.59375 0.015625 C 7.507812 0.0234375 7.425781 0.03125 7.34375 0.03125 C 6.875 0.03125 6.5625 -0.03125 6.40625 -0.15625 C 6.257812 -0.28125 6.179688 -0.578125 6.171875 -1.046875 C 6.148438 -1.921875 6.128906 -2.800781 6.109375 -3.6875 C 6.097656 -4.582031 6.078125 -5.46875 6.046875 -6.34375 C 6.023438 -6.6875 6.007812 -7.035156 6 -7.390625 C 6 -7.753906 5.988281 -8.125 5.96875 -8.5 C 5.820312 -8.425781 5.710938 -8.351562 5.640625 -8.28125 C 5.359375 -7.914062 5.023438 -7.671875 4.640625 -7.546875 C 4.265625 -7.421875 3.863281 -7.359375 3.4375 -7.359375 C 3.363281 -7.359375 3.28125 -7.363281 3.1875 -7.375 C 3.101562 -7.382812 3.019531 -7.390625 2.9375 -7.390625 C 2.632812 -7.421875 2.367188 -7.492188 2.140625 -7.609375 C 1.910156 -7.722656 1.675781 -7.878906 1.4375 -8.078125 C 0.445312 -8.960938 -0.0195312 -10.082031 0.03125 -11.4375 C 0.0625 -11.882812 0.0820312 -12.332031 0.09375 -12.78125 C 0.113281 -13.226562 0.207031 -13.671875 0.375 -14.109375 C 0.550781 -14.554688 0.789062 -15.03125 1.09375 -15.53125 C 1.394531 -16.039062 1.75 -16.472656 2.15625 -16.828125 C 2.570312 -17.179688 3.054688 -17.359375 3.609375 -17.359375 C 4.109375 -17.359375 4.59375 -17.304688 5.0625 -17.203125 C 5.53125 -17.109375 5.96875 -16.890625 6.375 -16.546875 C 6.40625 -16.523438 6.429688 -16.515625 6.453125 -16.515625 C 6.484375 -16.515625 6.519531 -16.5 6.5625 -16.46875 C 6.632812 -16.550781 6.695312 -16.628906 6.75 -16.703125 C 6.8125 -16.773438 6.875 -16.847656 6.9375 -16.921875 C 7.039062 -17.066406 7.15625 -17.160156 7.28125 -17.203125 C 7.414062 -17.242188 7.566406 -17.265625 7.734375 -17.265625 Z M 6.3125 -15.125 C 6.351562 -15.375 6.289062 -15.566406 6.125 -15.703125 C 5.851562 -15.941406 5.570312 -16.148438 5.28125 -16.328125 C 4.988281 -16.503906 4.65625 -16.617188 4.28125 -16.671875 C 4.207031 -16.679688 4.113281 -16.6875 4 -16.6875 C 3.769531 -16.6875 3.539062 -16.566406 3.3125 -16.328125 C 3.09375 -16.085938 2.90625 -15.816406 2.75 -15.515625 C 2.601562 -15.222656 2.515625 -14.976562 2.484375 -14.78125 C 2.421875 -14.257812 2.363281 -13.742188 2.3125 -13.234375 C 2.257812 -12.722656 2.203125 -12.203125 2.140625 -11.671875 C 2.171875 -11.335938 2.191406 -11.007812 2.203125 -10.6875 C 2.210938 -10.363281 2.300781 -10.039062 2.46875 -9.71875 C 2.5625 -9.519531 2.65625 -9.320312 2.75 -9.125 C 2.84375 -8.925781 2.929688 -8.71875 3.015625 -8.5 C 3.097656 -8.320312 3.179688 -8.191406 3.265625 -8.109375 C 3.347656 -8.023438 3.460938 -7.984375 3.609375 -7.984375 C 3.703125 -7.984375 3.773438 -7.992188 3.828125 -8.015625 C 4.046875 -8.054688 4.265625 -8.144531 4.484375 -8.28125 C 4.773438 -8.5 5.082031 -8.8125 5.40625 -9.21875 C 5.726562 -9.625 5.914062 -10.015625 5.96875 -10.390625 C 5.96875 -11.171875 5.988281 -11.957031 6.03125 -12.75 C 6.070312 -13.550781 6.164062 -14.34375 6.3125 -15.125 Z M 6.3125 -15.125 "/></g></g></g><g fill="#ffffff" fill-opacity="1"><g transform="translate(35.164534, 31.035319)"><g><path d="M 11.5625 -4.84375 C 11.8125 -4.113281 11.820312 -3.429688 11.59375 -2.796875 C 11.363281 -2.160156 10.941406 -1.601562 10.328125 -1.125 C 9.722656 -0.65625 9.066406 -0.320312 8.359375 -0.125 C 7.660156 0.0703125 6.9375 0.210938 6.1875 0.296875 C 6.039062 0.316406 5.890625 0.328125 5.734375 0.328125 C 5.585938 0.328125 5.441406 0.332031 5.296875 0.34375 C 5.234375 0.363281 5.160156 0.375 5.078125 0.375 C 4.992188 0.375 4.910156 0.375 4.828125 0.375 C 4.242188 0.375 3.679688 0.273438 3.140625 0.078125 C 2.609375 -0.109375 2.078125 -0.316406 1.546875 -0.546875 C 1.023438 -0.773438 0.664062 -1.164062 0.46875 -1.71875 C 0.269531 -2.28125 0.128906 -2.8125 0.046875 -3.3125 C -0.00390625 -3.601562 0 -3.894531 0.0625 -4.1875 C 0.125 -4.476562 0.242188 -4.75 0.421875 -5 C 0.523438 -5.144531 0.609375 -5.285156 0.671875 -5.421875 C 0.972656 -6.054688 1.335938 -6.640625 1.765625 -7.171875 C 2.191406 -7.710938 2.664062 -8.222656 3.1875 -8.703125 C 3.519531 -9.035156 3.847656 -9.378906 4.171875 -9.734375 C 4.503906 -10.085938 4.847656 -10.453125 5.203125 -10.828125 C 5.066406 -11.003906 4.921875 -11.191406 4.765625 -11.390625 C 4.617188 -11.585938 4.460938 -11.78125 4.296875 -11.96875 C 3.847656 -12.507812 3.570312 -13.113281 3.46875 -13.78125 C 3.363281 -14.445312 3.507812 -15.101562 3.90625 -15.75 C 3.988281 -15.875 4.070312 -15.992188 4.15625 -16.109375 C 4.238281 -16.234375 4.335938 -16.328125 4.453125 -16.390625 C 4.816406 -16.671875 5.203125 -16.898438 5.609375 -17.078125 C 6.015625 -17.265625 6.453125 -17.359375 6.921875 -17.359375 C 7.484375 -17.359375 8.007812 -17.316406 8.5 -17.234375 C 8.988281 -17.148438 9.457031 -16.921875 9.90625 -16.546875 C 10.1875 -16.304688 10.359375 -16.03125 10.421875 -15.71875 C 10.484375 -15.414062 10.472656 -15.09375 10.390625 -14.75 C 10.210938 -14.039062 9.875 -13.457031 9.375 -13 C 8.875 -12.539062 8.34375 -12.113281 7.78125 -11.71875 C 7.6875 -11.644531 7.585938 -11.570312 7.484375 -11.5 C 7.390625 -11.425781 7.289062 -11.347656 7.1875 -11.265625 C 7.300781 -11.085938 7.410156 -10.914062 7.515625 -10.75 C 7.628906 -10.59375 7.726562 -10.441406 7.8125 -10.296875 C 8.007812 -9.910156 8.265625 -9.570312 8.578125 -9.28125 C 8.890625 -9 9.179688 -8.703125 9.453125 -8.390625 C 9.929688 -7.867188 10.347656 -7.3125 10.703125 -6.71875 C 11.066406 -6.132812 11.351562 -5.507812 11.5625 -4.84375 Z M 5.421875 -15.921875 C 5.203125 -15.453125 5.101562 -14.992188 5.125 -14.546875 C 5.144531 -14.097656 5.3125 -13.671875 5.625 -13.265625 C 5.820312 -12.992188 6.03125 -12.726562 6.25 -12.46875 C 6.476562 -12.21875 6.703125 -11.953125 6.921875 -11.671875 C 7.347656 -11.929688 7.78125 -12.226562 8.21875 -12.5625 C 8.65625 -12.90625 9.019531 -13.296875 9.3125 -13.734375 C 9.601562 -14.179688 9.75 -14.675781 9.75 -15.21875 C 9.769531 -15.6875 9.570312 -16.078125 9.15625 -16.390625 C 8.644531 -16.753906 8.070312 -16.9375 7.4375 -16.9375 C 7.050781 -16.9375 6.664062 -16.859375 6.28125 -16.703125 C 5.894531 -16.554688 5.609375 -16.296875 5.421875 -15.921875 Z M 8.265625 -1.3125 C 8.785156 -1.695312 9.175781 -2.226562 9.4375 -2.90625 C 9.695312 -3.59375 9.660156 -4.289062 9.328125 -5 C 9.160156 -5.363281 8.976562 -5.726562 8.78125 -6.09375 C 8.582031 -6.457031 8.359375 -6.796875 8.109375 -7.109375 C 7.722656 -7.609375 7.316406 -8.085938 6.890625 -8.546875 C 6.460938 -9.015625 6.03125 -9.488281 5.59375 -9.96875 C 5.507812 -9.90625 5.425781 -9.832031 5.34375 -9.75 C 5.257812 -9.664062 5.175781 -9.582031 5.09375 -9.5 C 4.863281 -9.25 4.628906 -8.988281 4.390625 -8.71875 C 4.160156 -8.445312 3.914062 -8.191406 3.65625 -7.953125 C 3.125 -7.472656 2.703125 -6.914062 2.390625 -6.28125 C 2.085938 -5.65625 1.796875 -5.03125 1.515625 -4.40625 C 1.503906 -4.351562 1.492188 -4.300781 1.484375 -4.25 C 1.472656 -4.195312 1.46875 -4.148438 1.46875 -4.109375 C 1.445312 -3.691406 1.476562 -3.28125 1.5625 -2.875 C 1.644531 -2.476562 1.769531 -2.09375 1.9375 -1.71875 C 2.25 -1.195312 2.722656 -0.828125 3.359375 -0.609375 C 4.003906 -0.398438 4.609375 -0.296875 5.171875 -0.296875 C 6.296875 -0.296875 7.328125 -0.632812 8.265625 -1.3125 Z M 8.265625 -1.3125 "/></g></g></g><g fill="#ffffff" fill-opacity="1"><g transform="translate(48.916052, 31.035319)"><g><path d="M 7.734375 -17.265625 C 7.960938 -17.265625 8.128906 -17.21875 8.234375 -17.125 C 8.347656 -17.03125 8.421875 -16.867188 8.453125 -16.640625 C 8.484375 -16.472656 8.507812 -16.296875 8.53125 -16.109375 C 8.5625 -15.929688 8.5625 -15.753906 8.53125 -15.578125 C 8.269531 -14.109375 8.132812 -12.632812 8.125 -11.15625 C 8.113281 -9.675781 8.132812 -8.195312 8.1875 -6.71875 C 8.21875 -5.988281 8.234375 -5.253906 8.234375 -4.515625 C 8.234375 -3.773438 8.242188 -3.039062 8.265625 -2.3125 C 8.273438 -2.050781 8.285156 -1.789062 8.296875 -1.53125 C 8.304688 -1.269531 8.316406 -1.007812 8.328125 -0.75 C 8.347656 -0.507812 8.320312 -0.34375 8.25 -0.25 C 8.1875 -0.164062 8.039062 -0.09375 7.8125 -0.03125 C 7.75 -0.0078125 7.675781 0.00390625 7.59375 0.015625 C 7.507812 0.0234375 7.425781 0.03125 7.34375 0.03125 C 6.875 0.03125 6.5625 -0.03125 6.40625 -0.15625 C 6.257812 -0.28125 6.179688 -0.578125 6.171875 -1.046875 C 6.148438 -1.921875 6.128906 -2.800781 6.109375 -3.6875 C 6.097656 -4.582031 6.078125 -5.46875 6.046875 -6.34375 C 6.023438 -6.6875 6.007812 -7.035156 6 -7.390625 C 6 -7.753906 5.988281 -8.125 5.96875 -8.5 C 5.820312 -8.425781 5.710938 -8.351562 5.640625 -8.28125 C 5.359375 -7.914062 5.023438 -7.671875 4.640625 -7.546875 C 4.265625 -7.421875 3.863281 -7.359375 3.4375 -7.359375 C 3.363281 -7.359375 3.28125 -7.363281 3.1875 -7.375 C 3.101562 -7.382812 3.019531 -7.390625 2.9375 -7.390625 C 2.632812 -7.421875 2.367188 -7.492188 2.140625 -7.609375 C 1.910156 -7.722656 1.675781 -7.878906 1.4375 -8.078125 C 0.445312 -8.960938 -0.0195312 -10.082031 0.03125 -11.4375 C 0.0625 -11.882812 0.0820312 -12.332031 0.09375 -12.78125 C 0.113281 -13.226562 0.207031 -13.671875 0.375 -14.109375 C 0.550781 -14.554688 0.789062 -15.03125 1.09375 -15.53125 C 1.394531 -16.039062 1.75 -16.472656 2.15625 -16.828125 C 2.570312 -17.179688 3.054688 -17.359375 3.609375 -17.359375 C 4.109375 -17.359375 4.59375 -17.304688 5.0625 -17.203125 C 5.53125 -17.109375 5.96875 -16.890625 6.375 -16.546875 C 6.40625 -16.523438 6.429688 -16.515625 6.453125 -16.515625 C 6.484375 -16.515625 6.519531 -16.5 6.5625 -16.46875 C 6.632812 -16.550781 6.695312 -16.628906 6.75 -16.703125 C 6.8125 -16.773438 6.875 -16.847656 6.9375 -16.921875 C 7.039062 -17.066406 7.15625 -17.160156 7.28125 -17.203125 C 7.414062 -17.242188 7.566406 -17.265625 7.734375 -17.265625 Z M 6.3125 -15.125 C 6.351562 -15.375 6.289062 -15.566406 6.125 -15.703125 C 5.851562 -15.941406 5.570312 -16.148438 5.28125 -16.328125 C 4.988281 -16.503906 4.65625 -16.617188 4.28125 -16.671875 C 4.207031 -16.679688 4.113281 -16.6875 4 -16.6875 C 3.769531 -16.6875 3.539062 -16.566406 3.3125 -16.328125 C 3.09375 -16.085938 2.90625 -15.816406 2.75 -15.515625 C 2.601562 -15.222656 2.515625 -14.976562 2.484375 -14.78125 C 2.421875 -14.257812 2.363281 -13.742188 2.3125 -13.234375 C 2.257812 -12.722656 2.203125 -12.203125 2.140625 -11.671875 C 2.171875 -11.335938 2.191406 -11.007812 2.203125 -10.6875 C 2.210938 -10.363281 2.300781 -10.039062 2.46875 -9.71875 C 2.5625 -9.519531 2.65625 -9.320312 2.75 -9.125 C 2.84375 -8.925781 2.929688 -8.71875 3.015625 -8.5 C 3.097656 -8.320312 3.179688 -8.191406 3.265625 -8.109375 C 3.347656 -8.023438 3.460938 -7.984375 3.609375 -7.984375 C 3.703125 -7.984375 3.773438 -7.992188 3.828125 -8.015625 C 4.046875 -8.054688 4.265625 -8.144531 4.484375 -8.28125 C 4.773438 -8.5 5.082031 -8.8125 5.40625 -9.21875 C 5.726562 -9.625 5.914062 -10.015625 5.96875 -10.390625 C 5.96875 -11.171875 5.988281 -11.957031 6.03125 -12.75 C 6.070312 -13.550781 6.164062 -14.34375 6.3125 -15.125 Z M 6.3125 -15.125 "/></g></g></g><g fill="#ffffff" fill-opacity="1"><g transform="translate(26.245132, 44.383527)"><g><path d="M 1.25 -0.5625 C 1.257812 -0.53125 1.269531 -0.503906 1.28125 -0.484375 C 1.300781 -0.460938 1.316406 -0.4375 1.328125 -0.40625 C 1.359375 -0.332031 1.363281 -0.28125 1.34375 -0.25 C 1.332031 -0.21875 1.289062 -0.191406 1.21875 -0.171875 C 1.144531 -0.148438 1.082031 -0.140625 1.03125 -0.140625 C 0.820312 -0.140625 0.664062 -0.242188 0.5625 -0.453125 C 0.4375 -0.671875 0.328125 -0.890625 0.234375 -1.109375 C 0.148438 -1.335938 0.0820312 -1.570312 0.03125 -1.8125 C 0.0078125 -1.914062 0 -2.015625 0 -2.109375 C 0 -2.203125 0 -2.300781 0 -2.40625 C 0.0078125 -2.632812 0.015625 -2.859375 0.015625 -3.078125 C 0.0234375 -3.304688 0.0507812 -3.535156 0.09375 -3.765625 C 0.15625 -4.066406 0.242188 -4.363281 0.359375 -4.65625 C 0.472656 -4.945312 0.628906 -5.203125 0.828125 -5.421875 C 1.023438 -5.648438 1.285156 -5.804688 1.609375 -5.890625 C 1.640625 -5.898438 1.660156 -5.90625 1.671875 -5.90625 C 1.691406 -5.90625 1.707031 -5.90625 1.71875 -5.90625 C 1.75 -5.90625 1.804688 -5.890625 1.890625 -5.859375 C 1.878906 -5.847656 1.875 -5.835938 1.875 -5.828125 C 1.875 -5.816406 1.875 -5.8125 1.875 -5.8125 C 1.726562 -5.707031 1.601562 -5.582031 1.5 -5.4375 C 1.394531 -5.300781 1.3125 -5.15625 1.25 -5 C 1.144531 -4.738281 1.046875 -4.476562 0.953125 -4.21875 C 0.859375 -3.957031 0.800781 -3.6875 0.78125 -3.40625 C 0.75 -3.125 0.722656 -2.835938 0.703125 -2.546875 C 0.691406 -2.265625 0.722656 -1.984375 0.796875 -1.703125 C 0.859375 -1.503906 0.929688 -1.3125 1.015625 -1.125 C 1.097656 -0.9375 1.175781 -0.75 1.25 -0.5625 Z M 1.25 -0.5625 "/></g></g></g><g fill="#ffffff" fill-opacity="1"><g transform="translate(28.605218, 44.383527)"><g><path d="M 2.484375 -5.890625 C 2.691406 -5.890625 2.890625 -5.832031 3.078125 -5.71875 C 3.265625 -5.613281 3.414062 -5.484375 3.53125 -5.328125 C 3.632812 -5.210938 3.695312 -5.085938 3.71875 -4.953125 C 3.738281 -4.828125 3.738281 -4.691406 3.71875 -4.546875 C 3.675781 -4.328125 3.59375 -4.117188 3.46875 -3.921875 C 3.21875 -3.578125 2.96875 -3.234375 2.71875 -2.890625 C 2.476562 -2.546875 2.238281 -2.203125 2 -1.859375 C 1.832031 -1.640625 1.660156 -1.421875 1.484375 -1.203125 C 1.316406 -0.992188 1.148438 -0.78125 0.984375 -0.5625 C 0.941406 -0.507812 0.898438 -0.453125 0.859375 -0.390625 C 0.816406 -0.335938 0.769531 -0.28125 0.71875 -0.21875 C 0.75 -0.207031 0.773438 -0.203125 0.796875 -0.203125 C 0.816406 -0.203125 0.84375 -0.203125 0.875 -0.203125 C 0.914062 -0.203125 0.960938 -0.207031 1.015625 -0.21875 C 1.066406 -0.226562 1.109375 -0.234375 1.140625 -0.234375 C 1.472656 -0.265625 1.804688 -0.296875 2.140625 -0.328125 C 2.472656 -0.359375 2.804688 -0.390625 3.140625 -0.421875 C 3.148438 -0.421875 3.160156 -0.421875 3.171875 -0.421875 C 3.191406 -0.421875 3.207031 -0.421875 3.21875 -0.421875 C 3.25 -0.421875 3.273438 -0.414062 3.296875 -0.40625 C 3.328125 -0.394531 3.351562 -0.367188 3.375 -0.328125 C 3.351562 -0.316406 3.332031 -0.304688 3.3125 -0.296875 C 3.289062 -0.285156 3.269531 -0.28125 3.25 -0.28125 C 2.757812 -0.238281 2.269531 -0.203125 1.78125 -0.171875 C 1.300781 -0.140625 0.820312 -0.109375 0.34375 -0.078125 C 0.257812 -0.078125 0.1875 -0.09375 0.125 -0.125 C 0 -0.15625 -0.03125 -0.226562 0.03125 -0.34375 C 0.0820312 -0.425781 0.148438 -0.519531 0.234375 -0.625 C 0.453125 -0.90625 0.671875 -1.179688 0.890625 -1.453125 C 1.109375 -1.734375 1.320312 -2.015625 1.53125 -2.296875 C 1.738281 -2.578125 1.941406 -2.859375 2.140625 -3.140625 C 2.335938 -3.429688 2.539062 -3.71875 2.75 -4 C 2.851562 -4.144531 2.925781 -4.300781 2.96875 -4.46875 C 3.007812 -4.644531 3.035156 -4.820312 3.046875 -5 C 3.046875 -5.101562 3 -5.210938 2.90625 -5.328125 C 2.820312 -5.421875 2.726562 -5.5 2.625 -5.5625 C 2.53125 -5.625 2.414062 -5.65625 2.28125 -5.65625 C 2.269531 -5.65625 2.253906 -5.65625 2.234375 -5.65625 C 2.222656 -5.65625 2.207031 -5.65625 2.1875 -5.65625 C 2.070312 -5.644531 1.957031 -5.628906 1.84375 -5.609375 C 1.726562 -5.597656 1.613281 -5.578125 1.5 -5.546875 C 1.175781 -5.460938 0.960938 -5.304688 0.859375 -5.078125 C 0.753906 -4.859375 0.757812 -4.582031 0.875 -4.25 C 0.882812 -4.207031 0.894531 -4.171875 0.90625 -4.140625 C 0.925781 -4.117188 0.945312 -4.085938 0.96875 -4.046875 C 0.875 -4.046875 0.800781 -4.085938 0.75 -4.171875 C 0.644531 -4.304688 0.582031 -4.460938 0.5625 -4.640625 C 0.550781 -4.816406 0.582031 -4.984375 0.65625 -5.140625 C 0.726562 -5.304688 0.835938 -5.4375 0.984375 -5.53125 C 1.273438 -5.71875 1.59375 -5.820312 1.9375 -5.84375 C 2.03125 -5.851562 2.117188 -5.859375 2.203125 -5.859375 C 2.296875 -5.867188 2.390625 -5.878906 2.484375 -5.890625 Z M 2.484375 -5.890625 "/></g></g></g><g fill="#ffffff" fill-opacity="1"><g transform="translate(33.519244, 44.383527)"><g><path d="M 3.53125 -4.375 C 3.539062 -4.300781 3.554688 -4.226562 3.578125 -4.15625 C 3.597656 -4.082031 3.617188 -4.007812 3.640625 -3.9375 C 3.722656 -3.695312 3.757812 -3.457031 3.75 -3.21875 C 3.75 -2.976562 3.726562 -2.738281 3.6875 -2.5 C 3.644531 -2.300781 3.601562 -2.109375 3.5625 -1.921875 C 3.53125 -1.734375 3.488281 -1.539062 3.4375 -1.34375 C 3.394531 -1.207031 3.34375 -1.066406 3.28125 -0.921875 C 3.226562 -0.785156 3.171875 -0.648438 3.109375 -0.515625 C 3.035156 -0.335938 2.921875 -0.207031 2.765625 -0.125 C 2.617188 -0.0507812 2.457031 -0.00390625 2.28125 0.015625 C 2.257812 0.015625 2.238281 0.015625 2.21875 0.015625 C 2.207031 0.015625 2.191406 0.015625 2.171875 0.015625 C 2.140625 0.015625 2.101562 0.015625 2.0625 0.015625 C 2.03125 0.015625 2 0.015625 1.96875 0.015625 C 1.945312 0.015625 1.925781 0.015625 1.90625 0.015625 C 1.882812 0.0234375 1.863281 0.03125 1.84375 0.03125 C 1.507812 0.03125 1.234375 -0.0351562 1.015625 -0.171875 C 0.804688 -0.316406 0.609375 -0.523438 0.421875 -0.796875 C 0.296875 -0.972656 0.210938 -1.160156 0.171875 -1.359375 C 0.128906 -1.554688 0.0859375 -1.757812 0.046875 -1.96875 C 0.00390625 -2.21875 -0.0078125 -2.460938 0 -2.703125 C 0.0195312 -2.953125 0.03125 -3.203125 0.03125 -3.453125 C 0.0390625 -3.660156 0.0664062 -3.867188 0.109375 -4.078125 C 0.148438 -4.285156 0.195312 -4.488281 0.25 -4.6875 C 0.34375 -5.019531 0.503906 -5.273438 0.734375 -5.453125 C 0.972656 -5.640625 1.253906 -5.769531 1.578125 -5.84375 C 1.640625 -5.851562 1.707031 -5.859375 1.78125 -5.859375 C 1.851562 -5.859375 1.925781 -5.863281 2 -5.875 C 2.007812 -5.875 2.023438 -5.875 2.046875 -5.875 C 2.066406 -5.875 2.082031 -5.875 2.09375 -5.875 C 2.101562 -5.875 2.109375 -5.875 2.109375 -5.875 C 2.117188 -5.875 2.128906 -5.875 2.140625 -5.875 C 2.203125 -5.882812 2.269531 -5.890625 2.34375 -5.890625 C 2.5 -5.890625 2.644531 -5.835938 2.78125 -5.734375 C 2.914062 -5.628906 3.035156 -5.492188 3.140625 -5.328125 C 3.253906 -5.171875 3.34375 -5.003906 3.40625 -4.828125 C 3.46875 -4.660156 3.507812 -4.507812 3.53125 -4.375 Z M 3.515625 -2.765625 C 3.546875 -2.960938 3.554688 -3.160156 3.546875 -3.359375 C 3.535156 -3.566406 3.5 -3.769531 3.4375 -3.96875 C 3.414062 -4.039062 3.390625 -4.109375 3.359375 -4.171875 C 3.335938 -4.242188 3.316406 -4.316406 3.296875 -4.390625 C 3.265625 -4.597656 3.195312 -4.785156 3.09375 -4.953125 C 2.988281 -5.128906 2.875 -5.296875 2.75 -5.453125 C 2.664062 -5.566406 2.578125 -5.640625 2.484375 -5.671875 C 2.390625 -5.703125 2.269531 -5.71875 2.125 -5.71875 C 1.9375 -5.71875 1.75 -5.671875 1.5625 -5.578125 C 1.375 -5.492188 1.242188 -5.351562 1.171875 -5.15625 C 1.015625 -4.78125 0.90625 -4.429688 0.84375 -4.109375 C 0.789062 -3.796875 0.753906 -3.4375 0.734375 -3.03125 C 0.722656 -2.8125 0.722656 -2.59375 0.734375 -2.375 C 0.753906 -2.164062 0.785156 -1.945312 0.828125 -1.71875 C 0.859375 -1.507812 0.925781 -1.289062 1.03125 -1.0625 C 1.144531 -0.84375 1.289062 -0.65625 1.46875 -0.5 C 1.65625 -0.351562 1.867188 -0.28125 2.109375 -0.28125 C 2.316406 -0.28125 2.488281 -0.328125 2.625 -0.421875 C 2.757812 -0.523438 2.875 -0.660156 2.96875 -0.828125 C 3.125 -1.128906 3.238281 -1.441406 3.3125 -1.765625 C 3.382812 -2.085938 3.453125 -2.421875 3.515625 -2.765625 Z M 3.515625 -2.765625 "/></g></g></g><g fill="#ffffff" fill-opacity="1"><g transform="translate(38.424845, 44.383527)"><g><path d="M 1.5625 -5.8125 C 1.582031 -5.8125 1.601562 -5.8125 1.625 -5.8125 C 1.644531 -5.8125 1.664062 -5.8125 1.6875 -5.8125 C 1.738281 -5.8125 1.773438 -5.796875 1.796875 -5.765625 C 1.828125 -5.742188 1.847656 -5.695312 1.859375 -5.625 C 1.890625 -5.476562 1.90625 -5.328125 1.90625 -5.171875 C 1.914062 -4.984375 1.910156 -4.796875 1.890625 -4.609375 C 1.867188 -4.429688 1.847656 -4.25 1.828125 -4.0625 C 1.785156 -3.6875 1.726562 -3.3125 1.65625 -2.9375 C 1.59375 -2.570312 1.554688 -2.195312 1.546875 -1.8125 C 1.535156 -1.59375 1.53125 -1.367188 1.53125 -1.140625 C 1.53125 -0.910156 1.53125 -0.6875 1.53125 -0.46875 C 1.53125 -0.332031 1.503906 -0.226562 1.453125 -0.15625 C 1.410156 -0.0820312 1.320312 -0.046875 1.1875 -0.046875 C 0.988281 -0.046875 0.863281 -0.144531 0.8125 -0.34375 C 0.800781 -0.382812 0.796875 -0.429688 0.796875 -0.484375 C 0.796875 -0.535156 0.789062 -0.582031 0.78125 -0.625 C 0.769531 -1.132812 0.785156 -1.640625 0.828125 -2.140625 C 0.878906 -2.640625 0.945312 -3.140625 1.03125 -3.640625 C 1.0625 -3.816406 1.085938 -3.992188 1.109375 -4.171875 C 1.140625 -4.347656 1.164062 -4.519531 1.1875 -4.6875 C 1.195312 -4.78125 1.210938 -4.875 1.234375 -4.96875 C 1.253906 -5.070312 1.273438 -5.179688 1.296875 -5.296875 C 1.160156 -5.117188 1.019531 -4.941406 0.875 -4.765625 C 0.726562 -4.585938 0.578125 -4.414062 0.421875 -4.25 C 0.398438 -4.226562 0.347656 -4.1875 0.265625 -4.125 C 0.191406 -4.0625 0.132812 -4.03125 0.09375 -4.03125 C 0.0507812 -4.03125 0.0195312 -4.046875 0 -4.078125 C 0.03125 -4.109375 0.0546875 -4.140625 0.078125 -4.171875 C 0.109375 -4.203125 0.132812 -4.234375 0.15625 -4.265625 C 0.363281 -4.472656 0.554688 -4.691406 0.734375 -4.921875 C 0.921875 -5.160156 1.082031 -5.410156 1.21875 -5.671875 C 1.238281 -5.722656 1.265625 -5.765625 1.296875 -5.796875 C 1.328125 -5.828125 1.367188 -5.84375 1.421875 -5.84375 C 1.429688 -5.84375 1.441406 -5.835938 1.453125 -5.828125 C 1.472656 -5.828125 1.488281 -5.820312 1.5 -5.8125 C 1.519531 -5.8125 1.539062 -5.8125 1.5625 -5.8125 Z M 1.5625 -5.8125 "/></g></g></g><g fill="#ffffff" fill-opacity="1"><g transform="translate(41.509807, 44.383527)"><g><path d="M 3.921875 -0.828125 C 3.941406 -0.828125 3.96875 -0.816406 4 -0.796875 C 4.03125 -0.785156 4.0625 -0.773438 4.09375 -0.765625 C 4.082031 -0.710938 4.054688 -0.675781 4.015625 -0.65625 C 3.984375 -0.644531 3.953125 -0.632812 3.921875 -0.625 C 3.722656 -0.613281 3.53125 -0.597656 3.34375 -0.578125 C 3.15625 -0.566406 2.960938 -0.550781 2.765625 -0.53125 C 2.765625 -0.5 2.765625 -0.46875 2.765625 -0.4375 C 2.765625 -0.414062 2.757812 -0.390625 2.75 -0.359375 C 2.75 -0.210938 2.742188 -0.0664062 2.734375 0.078125 C 2.722656 0.234375 2.707031 0.390625 2.6875 0.546875 C 2.6875 0.597656 2.675781 0.664062 2.65625 0.75 C 2.632812 0.832031 2.597656 0.898438 2.546875 0.953125 C 2.503906 1.015625 2.453125 1.050781 2.390625 1.0625 C 2.359375 1.0625 2.320312 1.0625 2.28125 1.0625 C 2.25 1.070312 2.222656 1.078125 2.203125 1.078125 C 2.109375 1.078125 2.023438 1.054688 1.953125 1.015625 C 1.910156 0.984375 1.890625 0.953125 1.890625 0.921875 C 1.890625 0.890625 1.890625 0.851562 1.890625 0.8125 C 1.898438 0.65625 1.910156 0.5 1.921875 0.34375 C 1.941406 0.1875 1.957031 0.03125 1.96875 -0.125 C 1.96875 -0.175781 1.96875 -0.234375 1.96875 -0.296875 C 1.96875 -0.359375 1.96875 -0.421875 1.96875 -0.484375 C 1.695312 -0.460938 1.425781 -0.441406 1.15625 -0.421875 C 0.894531 -0.398438 0.628906 -0.378906 0.359375 -0.359375 C 0.347656 -0.359375 0.335938 -0.359375 0.328125 -0.359375 C 0.316406 -0.359375 0.304688 -0.359375 0.296875 -0.359375 C 0.285156 -0.359375 0.269531 -0.359375 0.25 -0.359375 C 0.238281 -0.359375 0.222656 -0.359375 0.203125 -0.359375 C 0.117188 -0.367188 0.0625 -0.390625 0.03125 -0.421875 C 0 -0.460938 -0.00390625 -0.53125 0.015625 -0.625 C 0.046875 -0.738281 0.0703125 -0.851562 0.09375 -0.96875 C 0.125 -1.082031 0.148438 -1.203125 0.171875 -1.328125 C 0.234375 -1.617188 0.296875 -1.90625 0.359375 -2.1875 C 0.429688 -2.476562 0.5 -2.769531 0.5625 -3.0625 C 0.625 -3.375 0.671875 -3.671875 0.703125 -3.953125 C 0.734375 -4.234375 0.753906 -4.507812 0.765625 -4.78125 C 0.773438 -5.0625 0.78125 -5.359375 0.78125 -5.671875 C 0.78125 -5.722656 0.78125 -5.765625 0.78125 -5.796875 C 0.789062 -5.835938 0.820312 -5.863281 0.875 -5.875 C 0.894531 -5.875 0.921875 -5.875 0.953125 -5.875 C 1.023438 -5.875 1.082031 -5.835938 1.125 -5.765625 C 1.1875 -5.660156 1.222656 -5.550781 1.234375 -5.4375 C 1.253906 -5.332031 1.269531 -5.222656 1.28125 -5.109375 C 1.300781 -4.960938 1.316406 -4.8125 1.328125 -4.65625 C 1.335938 -4.5 1.347656 -4.34375 1.359375 -4.1875 C 1.378906 -3.914062 1.367188 -3.640625 1.328125 -3.359375 C 1.296875 -3.085938 1.25 -2.816406 1.1875 -2.546875 C 1.113281 -2.234375 1.039062 -1.914062 0.96875 -1.59375 C 0.90625 -1.28125 0.832031 -0.957031 0.75 -0.625 C 0.945312 -0.644531 1.144531 -0.660156 1.34375 -0.671875 C 1.550781 -0.691406 1.757812 -0.707031 1.96875 -0.71875 C 1.96875 -0.925781 1.960938 -1.128906 1.953125 -1.328125 C 1.953125 -1.535156 1.941406 -1.742188 1.921875 -1.953125 C 1.910156 -2.023438 1.941406 -2.082031 2.015625 -2.125 C 2.085938 -2.175781 2.164062 -2.203125 2.25 -2.203125 C 2.375 -2.203125 2.46875 -2.175781 2.53125 -2.125 C 2.59375 -2.082031 2.628906 -2.015625 2.640625 -1.921875 C 2.648438 -1.835938 2.65625 -1.753906 2.65625 -1.671875 C 2.664062 -1.585938 2.675781 -1.503906 2.6875 -1.421875 C 2.6875 -1.359375 2.6875 -1.300781 2.6875 -1.25 C 2.6875 -1.195312 2.691406 -1.144531 2.703125 -1.09375 C 2.710938 -1.039062 2.722656 -0.988281 2.734375 -0.9375 C 2.742188 -0.882812 2.753906 -0.828125 2.765625 -0.765625 C 2.796875 -0.765625 2.828125 -0.765625 2.859375 -0.765625 C 2.890625 -0.765625 2.921875 -0.769531 2.953125 -0.78125 C 3.085938 -0.789062 3.21875 -0.800781 3.34375 -0.8125 C 3.46875 -0.820312 3.59375 -0.832031 3.71875 -0.84375 C 3.726562 -0.84375 3.742188 -0.84375 3.765625 -0.84375 C 3.785156 -0.84375 3.800781 -0.84375 3.8125 -0.84375 C 3.832031 -0.84375 3.847656 -0.84375 3.859375 -0.84375 C 3.878906 -0.84375 3.898438 -0.835938 3.921875 -0.828125 Z M 3.921875 -0.828125 "/></g></g></g><g fill="#ffffff" fill-opacity="1"><g transform="translate(46.280546, 44.383527)"><g><path d="M 0.828125 -0.5625 C 0.898438 -0.75 0.976562 -0.9375 1.0625 -1.125 C 1.15625 -1.3125 1.226562 -1.503906 1.28125 -1.703125 C 1.351562 -1.984375 1.378906 -2.265625 1.359375 -2.546875 C 1.347656 -2.835938 1.332031 -3.125 1.3125 -3.40625 C 1.28125 -3.6875 1.21875 -3.957031 1.125 -4.21875 C 1.039062 -4.476562 0.941406 -4.738281 0.828125 -5 C 0.765625 -5.15625 0.679688 -5.300781 0.578125 -5.4375 C 0.472656 -5.582031 0.347656 -5.707031 0.203125 -5.8125 C 0.203125 -5.8125 0.203125 -5.816406 0.203125 -5.828125 C 0.203125 -5.835938 0.195312 -5.847656 0.1875 -5.859375 C 0.269531 -5.890625 0.328125 -5.90625 0.359375 -5.90625 C 0.367188 -5.90625 0.382812 -5.90625 0.40625 -5.90625 C 0.425781 -5.90625 0.445312 -5.898438 0.46875 -5.890625 C 0.789062 -5.804688 1.050781 -5.648438 1.25 -5.421875 C 1.445312 -5.203125 1.601562 -4.945312 1.71875 -4.65625 C 1.832031 -4.363281 1.921875 -4.066406 1.984375 -3.765625 C 2.035156 -3.535156 2.0625 -3.304688 2.0625 -3.078125 C 2.070312 -2.859375 2.078125 -2.632812 2.078125 -2.40625 C 2.078125 -2.300781 2.078125 -2.203125 2.078125 -2.109375 C 2.078125 -2.015625 2.066406 -1.914062 2.046875 -1.8125 C 1.992188 -1.570312 1.921875 -1.335938 1.828125 -1.109375 C 1.742188 -0.890625 1.644531 -0.671875 1.53125 -0.453125 C 1.414062 -0.242188 1.253906 -0.140625 1.046875 -0.140625 C 0.992188 -0.140625 0.9375 -0.148438 0.875 -0.171875 C 0.800781 -0.191406 0.753906 -0.21875 0.734375 -0.25 C 0.710938 -0.28125 0.71875 -0.332031 0.75 -0.40625 C 0.757812 -0.4375 0.769531 -0.460938 0.78125 -0.484375 C 0.800781 -0.503906 0.816406 -0.53125 0.828125 -0.5625 Z M 0.828125 -0.5625 "/></g></g></g><g fill="#ffffff" fill-opacity="1"><g transform="translate(25.509807, 55.62193)"><g><path d="M 1.25 -0.5625 C 1.257812 -0.53125 1.269531 -0.503906 1.28125 -0.484375 C 1.300781 -0.460938 1.316406 -0.4375 1.328125 -0.40625 C 1.359375 -0.332031 1.363281 -0.28125 1.34375 -0.25 C 1.332031 -0.21875 1.289062 -0.191406 1.21875 -0.171875 C 1.144531 -0.148438 1.082031 -0.140625 1.03125 -0.140625 C 0.820312 -0.140625 0.664062 -0.242188 0.5625 -0.453125 C 0.4375 -0.671875 0.328125 -0.890625 0.234375 -1.109375 C 0.148438 -1.335938 0.0820312 -1.570312 0.03125 -1.8125 C 0.0078125 -1.914062 0 -2.015625 0 -2.109375 C 0 -2.203125 0 -2.300781 0 -2.40625 C 0.0078125 -2.632812 0.015625 -2.859375 0.015625 -3.078125 C 0.0234375 -3.304688 0.0507812 -3.535156 0.09375 -3.765625 C 0.15625 -4.066406 0.242188 -4.363281 0.359375 -4.65625 C 0.472656 -4.945312 0.628906 -5.203125 0.828125 -5.421875 C 1.023438 -5.648438 1.285156 -5.804688 1.609375 -5.890625 C 1.640625 -5.898438 1.660156 -5.90625 1.671875 -5.90625 C 1.691406 -5.90625 1.707031 -5.90625 1.71875 -5.90625 C 1.75 -5.90625 1.804688 -5.890625 1.890625 -5.859375 C 1.878906 -5.847656 1.875 -5.835938 1.875 -5.828125 C 1.875 -5.816406 1.875 -5.8125 1.875 -5.8125 C 1.726562 -5.707031 1.601562 -5.582031 1.5 -5.4375 C 1.394531 -5.300781 1.3125 -5.15625 1.25 -5 C 1.144531 -4.738281 1.046875 -4.476562 0.953125 -4.21875 C 0.859375 -3.957031 0.800781 -3.6875 0.78125 -3.40625 C 0.75 -3.125 0.722656 -2.835938 0.703125 -2.546875 C 0.691406 -2.265625 0.722656 -1.984375 0.796875 -1.703125 C 0.859375 -1.503906 0.929688 -1.3125 1.015625 -1.125 C 1.097656 -0.9375 1.175781 -0.75 1.25 -0.5625 Z M 1.25 -0.5625 "/></g></g></g><g fill="#ffffff" fill-opacity="1"><g transform="translate(27.869893, 55.62193)"><g><path d="M 2.484375 -5.890625 C 2.691406 -5.890625 2.890625 -5.832031 3.078125 -5.71875 C 3.265625 -5.613281 3.414062 -5.484375 3.53125 -5.328125 C 3.632812 -5.210938 3.695312 -5.085938 3.71875 -4.953125 C 3.738281 -4.828125 3.738281 -4.691406 3.71875 -4.546875 C 3.675781 -4.328125 3.59375 -4.117188 3.46875 -3.921875 C 3.21875 -3.578125 2.96875 -3.234375 2.71875 -2.890625 C 2.476562 -2.546875 2.238281 -2.203125 2 -1.859375 C 1.832031 -1.640625 1.660156 -1.421875 1.484375 -1.203125 C 1.316406 -0.992188 1.148438 -0.78125 0.984375 -0.5625 C 0.941406 -0.507812 0.898438 -0.453125 0.859375 -0.390625 C 0.816406 -0.335938 0.769531 -0.28125 0.71875 -0.21875 C 0.75 -0.207031 0.773438 -0.203125 0.796875 -0.203125 C 0.816406 -0.203125 0.84375 -0.203125 0.875 -0.203125 C 0.914062 -0.203125 0.960938 -0.207031 1.015625 -0.21875 C 1.066406 -0.226562 1.109375 -0.234375 1.140625 -0.234375 C 1.472656 -0.265625 1.804688 -0.296875 2.140625 -0.328125 C 2.472656 -0.359375 2.804688 -0.390625 3.140625 -0.421875 C 3.148438 -0.421875 3.160156 -0.421875 3.171875 -0.421875 C 3.191406 -0.421875 3.207031 -0.421875 3.21875 -0.421875 C 3.25 -0.421875 3.273438 -0.414062 3.296875 -0.40625 C 3.328125 -0.394531 3.351562 -0.367188 3.375 -0.328125 C 3.351562 -0.316406 3.332031 -0.304688 3.3125 -0.296875 C 3.289062 -0.285156 3.269531 -0.28125 3.25 -0.28125 C 2.757812 -0.238281 2.269531 -0.203125 1.78125 -0.171875 C 1.300781 -0.140625 0.820312 -0.109375 0.34375 -0.078125 C 0.257812 -0.078125 0.1875 -0.09375 0.125 -0.125 C 0 -0.15625 -0.03125 -0.226562 0.03125 -0.34375 C 0.0820312 -0.425781 0.148438 -0.519531 0.234375 -0.625 C 0.453125 -0.90625 0.671875 -1.179688 0.890625 -1.453125 C 1.109375 -1.734375 1.320312 -2.015625 1.53125 -2.296875 C 1.738281 -2.578125 1.941406 -2.859375 2.140625 -3.140625 C 2.335938 -3.429688 2.539062 -3.71875 2.75 -4 C 2.851562 -4.144531 2.925781 -4.300781 2.96875 -4.46875 C 3.007812 -4.644531 3.035156 -4.820312 3.046875 -5 C 3.046875 -5.101562 3 -5.210938 2.90625 -5.328125 C 2.820312 -5.421875 2.726562 -5.5 2.625 -5.5625 C 2.53125 -5.625 2.414062 -5.65625 2.28125 -5.65625 C 2.269531 -5.65625 2.253906 -5.65625 2.234375 -5.65625 C 2.222656 -5.65625 2.207031 -5.65625 2.1875 -5.65625 C 2.070312 -5.644531 1.957031 -5.628906 1.84375 -5.609375 C 1.726562 -5.597656 1.613281 -5.578125 1.5 -5.546875 C 1.175781 -5.460938 0.960938 -5.304688 0.859375 -5.078125 C 0.753906 -4.859375 0.757812 -4.582031 0.875 -4.25 C 0.882812 -4.207031 0.894531 -4.171875 0.90625 -4.140625 C 0.925781 -4.117188 0.945312 -4.085938 0.96875 -4.046875 C 0.875 -4.046875 0.800781 -4.085938 0.75 -4.171875 C 0.644531 -4.304688 0.582031 -4.460938 0.5625 -4.640625 C 0.550781 -4.816406 0.582031 -4.984375 0.65625 -5.140625 C 0.726562 -5.304688 0.835938 -5.4375 0.984375 -5.53125 C 1.273438 -5.71875 1.59375 -5.820312 1.9375 -5.84375 C 2.03125 -5.851562 2.117188 -5.859375 2.203125 -5.859375 C 2.296875 -5.867188 2.390625 -5.878906 2.484375 -5.890625 Z M 2.484375 -5.890625 "/></g></g></g><g fill="#ffffff" fill-opacity="1"><g transform="translate(32.783918, 55.62193)"><g><path d="M 3.53125 -4.375 C 3.539062 -4.300781 3.554688 -4.226562 3.578125 -4.15625 C 3.597656 -4.082031 3.617188 -4.007812 3.640625 -3.9375 C 3.722656 -3.695312 3.757812 -3.457031 3.75 -3.21875 C 3.75 -2.976562 3.726562 -2.738281 3.6875 -2.5 C 3.644531 -2.300781 3.601562 -2.109375 3.5625 -1.921875 C 3.53125 -1.734375 3.488281 -1.539062 3.4375 -1.34375 C 3.394531 -1.207031 3.34375 -1.066406 3.28125 -0.921875 C 3.226562 -0.785156 3.171875 -0.648438 3.109375 -0.515625 C 3.035156 -0.335938 2.921875 -0.207031 2.765625 -0.125 C 2.617188 -0.0507812 2.457031 -0.00390625 2.28125 0.015625 C 2.257812 0.015625 2.238281 0.015625 2.21875 0.015625 C 2.207031 0.015625 2.191406 0.015625 2.171875 0.015625 C 2.140625 0.015625 2.101562 0.015625 2.0625 0.015625 C 2.03125 0.015625 2 0.015625 1.96875 0.015625 C 1.945312 0.015625 1.925781 0.015625 1.90625 0.015625 C 1.882812 0.0234375 1.863281 0.03125 1.84375 0.03125 C 1.507812 0.03125 1.234375 -0.0351562 1.015625 -0.171875 C 0.804688 -0.316406 0.609375 -0.523438 0.421875 -0.796875 C 0.296875 -0.972656 0.210938 -1.160156 0.171875 -1.359375 C 0.128906 -1.554688 0.0859375 -1.757812 0.046875 -1.96875 C 0.00390625 -2.21875 -0.0078125 -2.460938 0 -2.703125 C 0.0195312 -2.953125 0.03125 -3.203125 0.03125 -3.453125 C 0.0390625 -3.660156 0.0664062 -3.867188 0.109375 -4.078125 C 0.148438 -4.285156 0.195312 -4.488281 0.25 -4.6875 C 0.34375 -5.019531 0.503906 -5.273438 0.734375 -5.453125 C 0.972656 -5.640625 1.253906 -5.769531 1.578125 -5.84375 C 1.640625 -5.851562 1.707031 -5.859375 1.78125 -5.859375 C 1.851562 -5.859375 1.925781 -5.863281 2 -5.875 C 2.007812 -5.875 2.023438 -5.875 2.046875 -5.875 C 2.066406 -5.875 2.082031 -5.875 2.09375 -5.875 C 2.101562 -5.875 2.109375 -5.875 2.109375 -5.875 C 2.117188 -5.875 2.128906 -5.875 2.140625 -5.875 C 2.203125 -5.882812 2.269531 -5.890625 2.34375 -5.890625 C 2.5 -5.890625 2.644531 -5.835938 2.78125 -5.734375 C 2.914062 -5.628906 3.035156 -5.492188 3.140625 -5.328125 C 3.253906 -5.171875 3.34375 -5.003906 3.40625 -4.828125 C 3.46875 -4.660156 3.507812 -4.507812 3.53125 -4.375 Z M 3.515625 -2.765625 C 3.546875 -2.960938 3.554688 -3.160156 3.546875 -3.359375 C 3.535156 -3.566406 3.5 -3.769531 3.4375 -3.96875 C 3.414062 -4.039062 3.390625 -4.109375 3.359375 -4.171875 C 3.335938 -4.242188 3.316406 -4.316406 3.296875 -4.390625 C 3.265625 -4.597656 3.195312 -4.785156 3.09375 -4.953125 C 2.988281 -5.128906 2.875 -5.296875 2.75 -5.453125 C 2.664062 -5.566406 2.578125 -5.640625 2.484375 -5.671875 C 2.390625 -5.703125 2.269531 -5.71875 2.125 -5.71875 C 1.9375 -5.71875 1.75 -5.671875 1.5625 -5.578125 C 1.375 -5.492188 1.242188 -5.351562 1.171875 -5.15625 C 1.015625 -4.78125 0.90625 -4.429688 0.84375 -4.109375 C 0.789062 -3.796875 0.753906 -3.4375 0.734375 -3.03125 C 0.722656 -2.8125 0.722656 -2.59375 0.734375 -2.375 C 0.753906 -2.164062 0.785156 -1.945312 0.828125 -1.71875 C 0.859375 -1.507812 0.925781 -1.289062 1.03125 -1.0625 C 1.144531 -0.84375 1.289062 -0.65625 1.46875 -0.5 C 1.65625 -0.351562 1.867188 -0.28125 2.109375 -0.28125 C 2.316406 -0.28125 2.488281 -0.328125 2.625 -0.421875 C 2.757812 -0.523438 2.875 -0.660156 2.96875 -0.828125 C 3.125 -1.128906 3.238281 -1.441406 3.3125 -1.765625 C 3.382812 -2.085938 3.453125 -2.421875 3.515625 -2.765625 Z M 3.515625 -2.765625 "/></g></g></g><g fill="#ffffff" fill-opacity="1"><g transform="translate(37.68952, 55.62193)"><g><path d="M 2.484375 -5.890625 C 2.691406 -5.890625 2.890625 -5.832031 3.078125 -5.71875 C 3.265625 -5.613281 3.414062 -5.484375 3.53125 -5.328125 C 3.632812 -5.210938 3.695312 -5.085938 3.71875 -4.953125 C 3.738281 -4.828125 3.738281 -4.691406 3.71875 -4.546875 C 3.675781 -4.328125 3.59375 -4.117188 3.46875 -3.921875 C 3.21875 -3.578125 2.96875 -3.234375 2.71875 -2.890625 C 2.476562 -2.546875 2.238281 -2.203125 2 -1.859375 C 1.832031 -1.640625 1.660156 -1.421875 1.484375 -1.203125 C 1.316406 -0.992188 1.148438 -0.78125 0.984375 -0.5625 C 0.941406 -0.507812 0.898438 -0.453125 0.859375 -0.390625 C 0.816406 -0.335938 0.769531 -0.28125 0.71875 -0.21875 C 0.75 -0.207031 0.773438 -0.203125 0.796875 -0.203125 C 0.816406 -0.203125 0.84375 -0.203125 0.875 -0.203125 C 0.914062 -0.203125 0.960938 -0.207031 1.015625 -0.21875 C 1.066406 -0.226562 1.109375 -0.234375 1.140625 -0.234375 C 1.472656 -0.265625 1.804688 -0.296875 2.140625 -0.328125 C 2.472656 -0.359375 2.804688 -0.390625 3.140625 -0.421875 C 3.148438 -0.421875 3.160156 -0.421875 3.171875 -0.421875 C 3.191406 -0.421875 3.207031 -0.421875 3.21875 -0.421875 C 3.25 -0.421875 3.273438 -0.414062 3.296875 -0.40625 C 3.328125 -0.394531 3.351562 -0.367188 3.375 -0.328125 C 3.351562 -0.316406 3.332031 -0.304688 3.3125 -0.296875 C 3.289062 -0.285156 3.269531 -0.28125 3.25 -0.28125 C 2.757812 -0.238281 2.269531 -0.203125 1.78125 -0.171875 C 1.300781 -0.140625 0.820312 -0.109375 0.34375 -0.078125 C 0.257812 -0.078125 0.1875 -0.09375 0.125 -0.125 C 0 -0.15625 -0.03125 -0.226562 0.03125 -0.34375 C 0.0820312 -0.425781 0.148438 -0.519531 0.234375 -0.625 C 0.453125 -0.90625 0.671875 -1.179688 0.890625 -1.453125 C 1.109375 -1.734375 1.320312 -2.015625 1.53125 -2.296875 C 1.738281 -2.578125 1.941406 -2.859375 2.140625 -3.140625 C 2.335938 -3.429688 2.539062 -3.71875 2.75 -4 C 2.851562 -4.144531 2.925781 -4.300781 2.96875 -4.46875 C 3.007812 -4.644531 3.035156 -4.820312 3.046875 -5 C 3.046875 -5.101562 3 -5.210938 2.90625 -5.328125 C 2.820312 -5.421875 2.726562 -5.5 2.625 -5.5625 C 2.53125 -5.625 2.414062 -5.65625 2.28125 -5.65625 C 2.269531 -5.65625 2.253906 -5.65625 2.234375 -5.65625 C 2.222656 -5.65625 2.207031 -5.65625 2.1875 -5.65625 C 2.070312 -5.644531 1.957031 -5.628906 1.84375 -5.609375 C 1.726562 -5.597656 1.613281 -5.578125 1.5 -5.546875 C 1.175781 -5.460938 0.960938 -5.304688 0.859375 -5.078125 C 0.753906 -4.859375 0.757812 -4.582031 0.875 -4.25 C 0.882812 -4.207031 0.894531 -4.171875 0.90625 -4.140625 C 0.925781 -4.117188 0.945312 -4.085938 0.96875 -4.046875 C 0.875 -4.046875 0.800781 -4.085938 0.75 -4.171875 C 0.644531 -4.304688 0.582031 -4.460938 0.5625 -4.640625 C 0.550781 -4.816406 0.582031 -4.984375 0.65625 -5.140625 C 0.726562 -5.304688 0.835938 -5.4375 0.984375 -5.53125 C 1.273438 -5.71875 1.59375 -5.820312 1.9375 -5.84375 C 2.03125 -5.851562 2.117188 -5.859375 2.203125 -5.859375 C 2.296875 -5.867188 2.390625 -5.878906 2.484375 -5.890625 Z M 2.484375 -5.890625 "/></g></g></g><g fill="#ffffff" fill-opacity="1"><g transform="translate(42.603545, 55.62193)"><g><path d="M 3.515625 -2.84375 C 3.671875 -2.507812 3.738281 -2.179688 3.71875 -1.859375 C 3.707031 -1.535156 3.59375 -1.21875 3.375 -0.90625 C 3.25 -0.71875 3.066406 -0.5625 2.828125 -0.4375 C 2.597656 -0.320312 2.351562 -0.234375 2.09375 -0.171875 C 1.832031 -0.117188 1.59375 -0.09375 1.375 -0.09375 C 1.269531 -0.09375 1.15625 -0.0976562 1.03125 -0.109375 C 0.914062 -0.128906 0.800781 -0.144531 0.6875 -0.15625 C 0.53125 -0.175781 0.394531 -0.238281 0.28125 -0.34375 C 0.164062 -0.445312 0.0820312 -0.570312 0.03125 -0.71875 C -0.0078125 -0.875 -0.0078125 -1.03125 0.03125 -1.1875 C 0.0703125 -1.363281 0.144531 -1.519531 0.25 -1.65625 C 0.363281 -1.800781 0.519531 -1.875 0.71875 -1.875 C 0.625 -1.800781 0.550781 -1.707031 0.5 -1.59375 C 0.457031 -1.488281 0.421875 -1.378906 0.390625 -1.265625 C 0.359375 -1.117188 0.363281 -0.976562 0.40625 -0.84375 C 0.457031 -0.707031 0.535156 -0.59375 0.640625 -0.5 C 0.753906 -0.40625 0.894531 -0.359375 1.0625 -0.359375 C 1.3125 -0.359375 1.550781 -0.378906 1.78125 -0.421875 C 2.019531 -0.460938 2.234375 -0.546875 2.421875 -0.671875 C 2.609375 -0.804688 2.75 -1.003906 2.84375 -1.265625 C 2.988281 -1.628906 3.023438 -2.007812 2.953125 -2.40625 C 2.921875 -2.507812 2.863281 -2.632812 2.78125 -2.78125 C 2.707031 -2.9375 2.613281 -3.070312 2.5 -3.1875 C 2.382812 -3.3125 2.265625 -3.375 2.140625 -3.375 C 2.128906 -3.375 2.113281 -3.367188 2.09375 -3.359375 C 2.082031 -3.359375 2.070312 -3.359375 2.0625 -3.359375 C 1.9375 -3.335938 1.8125 -3.328125 1.6875 -3.328125 C 1.570312 -3.328125 1.457031 -3.328125 1.34375 -3.328125 C 1.300781 -3.328125 1.257812 -3.34375 1.21875 -3.375 C 1.1875 -3.414062 1.175781 -3.453125 1.1875 -3.484375 C 1.207031 -3.523438 1.242188 -3.554688 1.296875 -3.578125 C 1.359375 -3.609375 1.414062 -3.625 1.46875 -3.625 C 1.582031 -3.625 1.710938 -3.644531 1.859375 -3.6875 C 2.015625 -3.726562 2.15625 -3.796875 2.28125 -3.890625 C 2.40625 -3.984375 2.484375 -4.09375 2.515625 -4.21875 C 2.578125 -4.425781 2.59375 -4.625 2.5625 -4.8125 C 2.53125 -5.007812 2.460938 -5.195312 2.359375 -5.375 C 2.304688 -5.476562 2.226562 -5.546875 2.125 -5.578125 C 2.019531 -5.609375 1.914062 -5.625 1.8125 -5.625 C 1.65625 -5.625 1.507812 -5.582031 1.375 -5.5 C 1.238281 -5.414062 1.109375 -5.316406 0.984375 -5.203125 C 0.671875 -4.898438 0.578125 -4.546875 0.703125 -4.140625 C 0.617188 -4.140625 0.5625 -4.171875 0.53125 -4.234375 C 0.488281 -4.359375 0.457031 -4.484375 0.4375 -4.609375 C 0.425781 -4.734375 0.457031 -4.859375 0.53125 -4.984375 C 0.695312 -5.296875 0.925781 -5.535156 1.21875 -5.703125 C 1.332031 -5.773438 1.445312 -5.816406 1.5625 -5.828125 C 1.6875 -5.847656 1.8125 -5.859375 1.9375 -5.859375 C 2.195312 -5.859375 2.441406 -5.8125 2.671875 -5.71875 C 2.910156 -5.632812 3.082031 -5.453125 3.1875 -5.171875 C 3.300781 -4.898438 3.332031 -4.609375 3.28125 -4.296875 C 3.25 -4.140625 3.1875 -4.003906 3.09375 -3.890625 C 3.007812 -3.773438 2.894531 -3.675781 2.75 -3.59375 C 2.800781 -3.5625 2.847656 -3.535156 2.890625 -3.515625 C 3.035156 -3.441406 3.15625 -3.347656 3.25 -3.234375 C 3.351562 -3.117188 3.441406 -2.988281 3.515625 -2.84375 Z M 3.515625 -2.84375 "/></g></g></g><g fill="#ffffff" fill-opacity="1"><g transform="translate(47.011842, 55.62193)"><g><path d="M 0.828125 -0.5625 C 0.898438 -0.75 0.976562 -0.9375 1.0625 -1.125 C 1.15625 -1.3125 1.226562 -1.503906 1.28125 -1.703125 C 1.351562 -1.984375 1.378906 -2.265625 1.359375 -2.546875 C 1.347656 -2.835938 1.332031 -3.125 1.3125 -3.40625 C 1.28125 -3.6875 1.21875 -3.957031 1.125 -4.21875 C 1.039062 -4.476562 0.941406 -4.738281 0.828125 -5 C 0.765625 -5.15625 0.679688 -5.300781 0.578125 -5.4375 C 0.472656 -5.582031 0.347656 -5.707031 0.203125 -5.8125 C 0.203125 -5.8125 0.203125 -5.816406 0.203125 -5.828125 C 0.203125 -5.835938 0.195312 -5.847656 0.1875 -5.859375 C 0.269531 -5.890625 0.328125 -5.90625 0.359375 -5.90625 C 0.367188 -5.90625 0.382812 -5.90625 0.40625 -5.90625 C 0.425781 -5.90625 0.445312 -5.898438 0.46875 -5.890625 C 0.789062 -5.804688 1.050781 -5.648438 1.25 -5.421875 C 1.445312 -5.203125 1.601562 -4.945312 1.71875 -4.65625 C 1.832031 -4.363281 1.921875 -4.066406 1.984375 -3.765625 C 2.035156 -3.535156 2.0625 -3.304688 2.0625 -3.078125 C 2.070312 -2.859375 2.078125 -2.632812 2.078125 -2.40625 C 2.078125 -2.300781 2.078125 -2.203125 2.078125 -2.109375 C 2.078125 -2.015625 2.066406 -1.914062 2.046875 -1.8125 C 1.992188 -1.570312 1.921875 -1.335938 1.828125 -1.109375 C 1.742188 -0.890625 1.644531 -0.671875 1.53125 -0.453125 C 1.414062 -0.242188 1.253906 -0.140625 1.046875 -0.140625 C 0.992188 -0.140625 0.9375 -0.148438 0.875 -0.171875 C 0.800781 -0.191406 0.753906 -0.21875 0.734375 -0.25 C 0.710938 -0.28125 0.71875 -0.332031 0.75 -0.40625 C 0.757812 -0.4375 0.769531 -0.460938 0.78125 -0.484375 C 0.800781 -0.503906 0.816406 -0.53125 0.828125 -0.5625 Z M 0.828125 -0.5625 "/></g></g></g><g clip-path="url(#d3769bff1d)"><path fill="#ffffff" d="M 51.703125 41.359375 L 22.847656 41.359375 C 22.773438 41.359375 22.71875 41.300781 22.71875 41.230469 C 22.71875 41.15625 22.773438 41.101562 22.847656 41.101562 L 51.703125 41.101562 C 51.773438 41.101562 51.832031 41.15625 51.832031 41.230469 C 51.832031 41.300781 51.773438 41.359375 51.703125 41.359375 " fill-opacity="1" fill-rule="nonzero"/></g></svg>