<?xml version="1.0" encoding="UTF-8"?>
<svg version="1.1" xmlns="http://www.w3.org/2000/svg" width="512" height="512">
<path d="M0 0 C5.70070187 3.99049131 8.31581481 10.75534924 11 17 C11 17.66 11 18.32 11 19 C12.75376953 19.16435547 12.75376953 19.16435547 14.54296875 19.33203125 C16.09121194 19.49154721 17.63938558 19.65173914 19.1875 19.8125 C19.95642578 19.88275391 20.72535156 19.95300781 21.51757812 20.02539062 C26.0215699 20.50865155 29.30760654 21.15363068 33 24 C34.63023814 27.26047629 34.4673535 29.37801035 34 33 C31.17470199 37.31143742 27.84879668 40.51693545 23.4375 43.125 C20.64334364 45.77530697 20.64334364 45.77530697 21.07421875 49.171875 C21.43560189 51.60159994 21.85964474 54.0229931 22.3515625 56.4296875 C23.01375422 60.07573109 23.24968032 63.30383962 23 67 C20.875 69.9375 20.875 69.9375 18 72 C12.08170614 72.75983801 8.06025987 70.22241441 3.12304688 67.40039062 C0.43405714 65.94250462 -1.50498502 64.9821348 -4.59765625 65.09375 C-7.40095395 66.15125417 -9.81287687 67.50980934 -12.375 69.0625 C-16.78056453 71.52321235 -19.85941434 73.04909911 -25 72 C-27.4375 70.6875 -27.4375 70.6875 -29 68 C-29.54398731 63.36833659 -29.43246517 58.79639379 -28.33984375 54.2578125 C-27.66119983 51.15672437 -27.36936101 49.13159771 -28 46 C-30.14008527 43.04683237 -32.79674076 40.6460463 -35.59277344 38.32250977 C-38.74920301 35.64216097 -39.87401963 34.4790302 -40.96875 30.31640625 C-41 27 -41 27 -39.625 24.1875 C-35.51905687 20.76588072 -30.7674039 20.03421829 -25.47265625 19.96875 C-22.44653061 19.78223995 -20.66598758 19.49398338 -18 18 C-15.32384991 14.50120251 -13.58912969 10.49889092 -11.7890625 6.50390625 C-8.9881563 1.01828866 -6.23763034 -1.01838863 0 0 Z M-4 27 C-4.33 27.763125 -4.66 28.52625 -5 29.3125 C-7.82650065 33.11061025 -10.52593414 33.6064385 -15 35 C-14.34 35.825 -13.68 36.65 -13 37.5 C-10.38765874 41.34492481 -10.68665866 44.45655064 -11 49 C-9.824375 48.62875 -8.64875 48.2575 -7.4375 47.875 C-2.96736563 46.72758583 -0.2720246 47.39799077 4 49 C4.03738281 48.40832031 4.07476562 47.81664062 4.11328125 47.20703125 C4.51376901 42.39332549 5.0385035 38.99158223 8 35 C6.948125 34.608125 5.89625 34.21625 4.8125 33.8125 C1.08341068 32.23597443 -1.29663487 30.03104575 -4 27 Z " fill="#000000" transform="translate(71,331)"/>
<path d="M0 0 C5.70070187 3.99049131 8.31581481 10.75534924 11 17 C11 17.66 11 18.32 11 19 C12.75376953 19.16435547 12.75376953 19.16435547 14.54296875 19.33203125 C16.09121194 19.49154721 17.63938558 19.65173914 19.1875 19.8125 C19.95642578 19.88275391 20.72535156 19.95300781 21.51757812 20.02539062 C26.42338682 20.55176495 30.35859645 21.35859645 34 25 C34.79627016 28.73634462 35.11676235 30.42009827 34 34 C32.5819692 35.30360756 31.15430959 36.60051669 29.65307617 37.80737305 C24.08588406 42.20587416 24.08588406 42.20587416 21.59423828 48.62353516 C21.55587453 52.61538435 21.86542074 56.47820082 22.38647461 60.43432617 C23.30395249 67.46175079 23.30395249 67.46175079 21.5 70.65625 C18.02493544 72.5240972 15.90951464 72.50472041 12 72 C8.89983063 70.59550338 6.07299251 69.05454667 3.16210938 67.3125 C0.02601692 65.57216012 -1.55623367 64.91124673 -5.125 65.625 C-7.77519238 66.89248331 -10.36833957 68.20092728 -12.9375 69.625 C-17.15182938 71.76068271 -20.20663877 72.86280502 -25 72 C-27.4375 70.5625 -27.4375 70.5625 -29 68 C-29.33969516 63.71984102 -29.24679584 60.14197836 -28.33984375 55.9453125 C-27.11746145 49.92607626 -27.11746145 49.92607626 -29.11425781 44.34277344 C-31.13046043 42.08316608 -33.2652491 40.06973024 -35.59277344 38.13354492 C-38.39322247 35.79113263 -39.88858244 34.3697244 -40.95703125 30.82421875 C-41.0111727 27.26564893 -40.21858881 25.75411025 -38 23 C-34.18370961 20.39236018 -29.72253307 20.3274453 -25.25 19.875 C-24.06083984 19.74544922 -24.06083984 19.74544922 -22.84765625 19.61328125 C-20.89916859 19.40199946 -18.94967024 19.20007533 -17 19 C-16.73058594 18.12859375 -16.46117187 17.2571875 -16.18359375 16.359375 C-15.04301164 13.12207923 -13.69802088 10.26302065 -12.0625 7.25 C-11.55847656 6.30640625 -11.05445313 5.3628125 -10.53515625 4.390625 C-7.73113482 0.02405727 -4.95511102 -0.69371554 0 0 Z M-4 27 C-4.556875 27.94875 -5.11375 28.8975 -5.6875 29.875 C-8.50206309 33.67846364 -10.44939075 34.12488284 -15 35 C-14.360625 35.639375 -13.72125 36.27875 -13.0625 36.9375 C-10.38087365 40.91930882 -10.20501996 44.294792 -10 49 C-9.01 48.67 -8.02 48.34 -7 48 C-5.0625 47.8671875 -5.0625 47.8671875 -3 47.875 C-2.319375 47.87242187 -1.63875 47.86984375 -0.9375 47.8671875 C1 48 1 48 4 49 C4.02578125 48.40832031 4.0515625 47.81664062 4.078125 47.20703125 C4.45704414 41.9279987 5.10636661 38.89363339 9 35 C7.741875 34.608125 6.48375 34.21625 5.1875 33.8125 C1.22841724 32.36013807 -0.12998067 30.84392862 -2 27 C-2.66 27 -3.32 27 -4 27 Z " fill="#000000" transform="translate(171,132)"/>
<path d="M0 0 C2.36193139 2.22299425 3.74281752 4.13925631 4.67578125 7.26171875 C5.51942718 9.94840656 6.20689472 11.81135679 8 14 C11.32043072 14.98739124 14.35298505 15.30809308 17.80859375 15.48828125 C21.64762755 16.10384236 23.30432421 17.23533068 26 20 C26.87864977 24.39324886 26.97999628 26.49491288 24.52734375 30.26171875 C19.94 35.68666667 19.94 35.68666667 16 37 C16.17917969 38.09699219 16.35835937 39.19398438 16.54296875 40.32421875 C16.75876601 41.77850466 16.97355691 43.23294016 17.1875 44.6875 C17.36829102 45.7693457 17.36829102 45.7693457 17.55273438 46.87304688 C18.0557391 50.42653189 18.15686884 52.64970585 16.67578125 55.95703125 C14.45359889 58.66612536 13.49527763 58.9380903 10 59.375 C5.49554582 59.375 2.19968283 57.17488836 -1.5703125 54.8984375 C-4.01217119 53.72352912 -4.01217119 53.72352912 -6.62890625 54.75 C-8.37673248 55.67142404 -10.10169461 56.63653466 -11.8125 57.625 C-16.04883264 59.45243761 -18.40635448 59.59272845 -23 59 C-26.18149735 56.37526469 -26.91832922 54.84937613 -27.3125 50.75 C-27 47 -27 47 -26.4453125 44.8671875 C-25.8736502 42.34307858 -25.59054874 40.56876789 -26 38 C-28.09785991 35.43259855 -30.41311723 33.34092011 -32.8828125 31.1328125 C-35 29 -35 29 -36.25 25.25 C-35.95382143 21.39967855 -35.70984808 19.78954949 -33 17 C-28.89165777 15.57599293 -24.61444764 15.07290057 -20.3125 14.5625 C-15.67902571 12.37689892 -14.60772058 9.19052709 -12.5546875 4.62890625 C-9.48958904 -0.55403662 -5.64820653 -1.92279371 0 0 Z M-5 26 C-7.475 27.485 -7.475 27.485 -10 29 C-9.34 31.31 -8.68 33.62 -8 36 C-5.69 36 -3.38 36 -1 36 C-0.67 33.69 -0.34 31.38 0 29 C-1.65 28.01 -3.3 27.02 -5 26 Z " fill="#000000" transform="translate(131,426)"/>
<path d="M0 0 C2.28726975 2.15656862 3.64831594 4.11740827 4.8125 7.0390625 C6.44606343 11.31682474 6.44606343 11.31682474 10.0078125 13.88671875 C12.33533918 14.37983881 14.6392156 14.70986993 17 15 C23.60557185 16.40835777 23.60557185 16.40835777 26 20 C26.34014734 23.01273355 26.56370788 25.09605032 26 28 C23.8076362 30.67955575 21.56135833 32.58022761 18.80078125 34.64453125 C16.60424568 37.51765695 16.78356875 39.2754147 17.15039062 42.79492188 C17.24513672 43.50197266 17.33988281 44.20902344 17.4375 44.9375 C18.37351604 52.18000707 18.37351604 52.18000707 16.66015625 55.94140625 C14.4337361 58.70216724 13.48098902 58.94110338 9.9375 59.375 C5.38006032 58.94095813 2.95793438 57.49183716 -0.7890625 54.99609375 C-3.65962066 53.70282108 -5.0319108 54.0622151 -8 55 C-9.33586995 55.64090871 -10.65057442 56.32824184 -11.9375 57.0625 C-15.48209555 58.87477442 -17.96685346 59.80662931 -22 59 C-24.875 56.9375 -24.875 56.9375 -27 54 C-27.37576934 50.74333243 -27.27375391 48.04524219 -26.44140625 44.8671875 C-25.87433977 42.34396145 -25.59083362 40.56698064 -26 38 C-28.09785991 35.43259855 -30.41311723 33.34092011 -32.8828125 31.1328125 C-35 29 -35 29 -36.25 25.25 C-35.95971005 21.4762306 -35.56157376 19.8017213 -33 17 C-29.90815559 15.82509912 -27.06458998 15.06480113 -23.75390625 14.86328125 C-21.10660462 14.59096186 -19.35134877 14.27865317 -17 13 C-15.0650785 10.01200176 -13.70857142 7.05264691 -12.38671875 3.75 C-11 1 -11 1 -9.05078125 -0.37890625 C-5.71944055 -1.38782658 -3.32754899 -0.89130776 0 0 Z M-5 26 C-7.87391821 27.17274994 -7.87391821 27.17274994 -10 29 C-9.34 31.31 -8.68 33.62 -8 36 C-5.69 36 -3.38 36 -1 36 C-0.34 33.69 0.32 31.38 1 29 C-1.69871355 27.1915405 -1.69871355 27.1915405 -5 26 Z " fill="#000000" transform="translate(486,175)"/>
<path d="M0 0 C4.47158452 3.40692154 6.96215005 7.84275963 9 13 C9 13.66 9 14.32 9 15 C10.55460937 15.12955078 10.55460937 15.12955078 12.140625 15.26171875 C13.51053868 15.40246331 14.88032449 15.54445625 16.25 15.6875 C16.93191406 15.74099609 17.61382812 15.79449219 18.31640625 15.84960938 C22.02016603 16.26313595 23.75771351 16.76120244 26.44140625 19.40625 C28.46427643 22.77263045 28.83454586 24.13074191 28 28 C26.41041527 30.185679 24.693096 32.11915763 22.82421875 34.0703125 C21.02753111 35.97087715 19.42666926 37.80649601 18 40 C18.29241674 42.7633037 18.29241674 42.7633037 19 46 C19.77126487 54.70427501 19.77126487 54.70427501 17.4375 58.625 C13.90774271 60.61614514 12.03517924 60.58575182 8 60 C6.29070583 59.16837827 4.60385962 58.28961844 2.9375 57.375 C-0.91116005 55.2434063 -0.91116005 55.2434063 -5.25 55.5 C-7.14902702 56.53583292 -9.04466292 57.57789864 -10.9375 58.625 C-14.62119024 60.27890174 -17.00273485 60.518164 -21 60 C-23.4375 58.625 -23.4375 58.625 -25 56 C-25.57737466 51.25727962 -25.30212955 47.0130226 -23.9375 42.4375 C-24.01795522 38.01246302 -25.29340071 37.24475806 -28.375 34.1875 C-29.20773437 33.43855469 -30.04046875 32.68960938 -30.8984375 31.91796875 C-33.48273568 29.5594364 -33.92642717 28.6621555 -34.3125 25.1875 C-33.91374174 21.12016575 -32.92692699 19.82951737 -30 17 C-27.26283843 16.30988586 -25.01601614 15.90449371 -22.25 15.6875 C-21.20392578 15.57825195 -21.20392578 15.57825195 -20.13671875 15.46679688 C-18.42642647 15.29108191 -16.71335618 15.14277968 -15 15 C-14.7215625 14.09894531 -14.443125 13.19789063 -14.15625 12.26953125 C-13.15460792 9.43718524 -12.10290066 7.20424952 -10.5 4.6875 C-10.0771875 4.01074219 -9.654375 3.33398438 -9.21875 2.63671875 C-6.75500271 -0.67196751 -3.87260935 -0.4556011 0 0 Z M-9 31 C-8.34 32.98 -7.68 34.96 -7 37 C-4.36 37 -1.72 37 1 37 C1.66 34.69 2.32 32.38 3 30 C-2.77817804 26.3506244 -3.76118175 26.58836358 -9 31 Z " fill="#000000" transform="translate(384,351)"/>
<path d="M0 0 C4.47158452 3.40692154 6.96215005 7.84275963 9 13 C9 13.66 9 14.32 9 15 C9.72445312 15.04898438 10.44890625 15.09796875 11.1953125 15.1484375 C21.55792846 15.94981313 21.55792846 15.94981313 26 18 C28.56205842 21.84308764 28.67366765 23.4340304 28 28 C26.43657533 30.24063 24.72684574 32.14699946 22.82421875 34.10546875 C21.01151401 35.98804219 19.42354601 37.80684943 18 40 C18.29241674 42.7633037 18.29241674 42.7633037 19 46 C19.90360137 54.78578566 19.90360137 54.78578566 17 58.6875 C13.06980441 60.40696057 10.0104809 60.2398815 6 59 C4.76860499 58.33256321 3.55860689 57.62391941 2.375 56.875 C-0.78449595 54.76223731 -0.78449595 54.76223731 -3.9375 55 C-6.54787784 55.85236827 -8.5545649 56.8143857 -10.9375 58.125 C-14.9404795 60.23384935 -17.57561406 60.30128998 -22 59 C-24.21029914 57.34355772 -24.92255609 56.52735614 -25.328125 53.765625 C-25.30234375 52.93546875 -25.2765625 52.1053125 -25.25 51.25 C-25.23582031 50.35925781 -25.22164063 49.46851563 -25.20703125 48.55078125 C-25 46 -25 46 -23.9375 42.4375 C-24.01795522 38.01246302 -25.29340071 37.24475806 -28.375 34.1875 C-29.20773437 33.43855469 -30.04046875 32.68960938 -30.8984375 31.91796875 C-33.72279526 29.34034857 -33.95468498 28.48940221 -34.3125 24.625 C-34 21 -34 21 -32.6875 18.6875 C-27.44779493 15.39745263 -21.08353154 15 -15 15 C-14.773125 14.175 -14.54625 13.35 -14.3125 12.5 C-11.50408 5.01088001 -8.82256068 -1.03794832 0 0 Z M-9 31 C-8.34 32.98 -7.68 34.96 -7 37 C-4.36 37 -1.72 37 1 37 C1.66 34.69 2.32 32.38 3 30 C-2.77817804 26.3506244 -3.76118175 26.58836358 -9 31 Z " fill="#000000" transform="translate(384,38)"/>
<path d="M0 0 C2.5 2.125 2.5 2.125 4 5 C3.9920841 10.69842309 2.31044458 13.39194375 -1.48895264 17.30212402 C-2.12891174 17.92993774 -2.76887085 18.55775146 -3.42822266 19.20458984 C-4.43570053 20.22783859 -4.43570053 20.22783859 -5.46353149 21.27175903 C-7.68220991 23.5167901 -9.92205364 25.739223 -12.1640625 27.9609375 C-13.7161603 29.51707816 -15.26736658 31.07410848 -16.81771851 32.63198853 C-20.06819181 35.89130207 -23.32925562 39.13953069 -26.59814453 42.38037109 C-30.78505843 46.53310112 -34.94445822 50.71218668 -39.0962925 54.89995384 C-42.2939509 58.11930504 -45.50577739 61.32421398 -48.72205734 64.52495193 C-50.26143155 66.06032684 -51.79636992 67.60016258 -53.32674026 69.14451218 C-55.46876876 71.30179835 -57.6291284 73.43888351 -59.79541016 75.57177734 C-60.42322388 76.21173645 -61.0510376 76.85169556 -61.69787598 77.51104736 C-65.60637725 81.30881315 -68.30265627 82.99897705 -74 83 C-77.50949663 81.09266488 -78.71110949 79.84861588 -80 76.0625 C-80 70.33442353 -76.1587394 66.9267723 -72.33358765 63.07363892 C-71.71166534 62.45733612 -71.08974304 61.84103333 -70.44897461 61.20605469 C-69.78850632 60.54368805 -69.12803802 59.88132141 -68.44755554 59.19888306 C-66.27066905 57.018302 -64.08668407 54.84498733 -61.90234375 52.671875 C-60.38648124 51.15720487 -58.87098851 49.64216459 -57.35585022 48.12677002 C-54.18392223 44.95640448 -51.00866706 41.78942277 -47.83081055 38.625 C-43.75107007 34.56228521 -39.67797969 30.49298231 -35.60712337 26.42136765 C-32.48054889 23.29506457 -29.35137894 20.17137058 -26.22131538 17.0485611 C-24.71796127 15.5483953 -23.21521747 14.04761763 -21.71308708 12.5462265 C-19.6184411 10.45374028 -17.52054071 8.36457527 -15.42163086 6.27636719 C-14.79768433 5.65196747 -14.17373779 5.02756775 -13.53088379 4.38424683 C-8.6294425 -0.48055682 -6.91489288 -1.66911208 0 0 Z " fill="#000000" transform="translate(126,207)"/>
<path d="M0 0 C2.70664252 1.84833215 4.91731317 4.10684286 7.20458984 6.4440918 C7.88675568 7.11735001 8.56892151 7.79060822 9.27175903 8.48426819 C11.51665935 10.70790436 13.73906446 12.95259097 15.9609375 15.19921875 C17.51700518 16.75378388 19.07403656 18.30738491 20.63198853 19.86006165 C23.89114913 23.11489198 27.13948135 26.38005545 30.38037109 29.65307617 C34.53477813 33.84727872 38.71328019 38.01645842 42.89995384 42.17842388 C46.11766859 45.38195608 49.32314074 48.59751418 52.52495193 51.81693459 C54.06120748 53.3590391 55.60104871 54.89758011 57.14451218 56.43247032 C59.29938026 58.57934716 61.43745033 60.7416622 63.57177734 62.90893555 C64.21173645 63.54034454 64.85169556 64.17175354 65.51104736 64.82229614 C68.9707078 68.37463731 70.95417666 70.79386915 71 76 C69.76356597 78.86332091 68.66847461 80.49288133 66.1875 82.375 C63.00030509 83.28562712 61.21131897 82.91375127 58 82 C55.37795834 80.11599896 53.17266869 77.86616442 50.90893555 75.57177734 C50.22691574 74.90012543 49.54489594 74.22847351 48.84220886 73.53646851 C46.59417947 71.31551466 44.36501339 69.07667846 42.13671875 66.8359375 C40.57893067 65.28405788 39.02047469 63.73284843 37.46138 62.18228149 C34.19758915 58.93037253 30.94326642 55.669337 27.69506836 52.40185547 C23.53276302 48.21666859 19.34614169 44.05681592 15.15185833 39.9037075 C11.92842613 36.70585718 8.71919922 33.49404503 5.51398659 30.27794266 C3.97595577 28.73842527 2.43332818 27.20348599 0.88605309 25.67325974 C-1.27601876 23.53116074 -3.41800704 21.37077677 -5.5559082 19.20458984 C-6.19743835 18.57677612 -6.83896851 17.9489624 -7.49993896 17.30212402 C-11.29918146 13.40181703 -13.0282989 10.6986063 -13 5 C-9.29127263 -0.88280893 -6.70267324 -1.69132251 0 0 Z " fill="#000000" transform="translate(219,207)"/>
<path d="M0 0 C2.62204166 1.88400104 4.82733131 4.13383558 7.09106445 6.42822266 C7.77308426 7.09987457 8.45510406 7.77152649 9.15779114 8.46353149 C11.40582053 10.68448534 13.63498661 12.92332154 15.86328125 15.1640625 C17.42106933 16.71594212 18.97952531 18.26715157 20.53862 19.81771851 C23.80241085 23.06962747 27.05673358 26.330663 30.30493164 29.59814453 C34.46723698 33.78333141 38.65385831 37.94318408 42.84814167 42.0962925 C46.07157387 45.29414282 49.28080078 48.50595497 52.48601341 51.72205734 C54.02404423 53.26157473 55.56667182 54.79651401 57.11394691 56.32674026 C59.27601876 58.46883926 61.41800704 60.62922323 63.5559082 62.79541016 C64.51820343 63.73713074 64.51820343 63.73713074 65.49993896 64.69787598 C69.32659058 68.6263212 70.9028686 71.28358351 71 77 C70.21270916 79.64816011 69.47719891 80.62884529 67.3125 82.3125 C63.80755173 83.35451165 61.55510898 82.88343918 58 82 C55.29314299 80.15211941 53.08260942 77.89307804 50.79541016 75.5559082 C50.11324432 74.88264999 49.43107849 74.20939178 48.72824097 73.51573181 C46.48334065 71.29209564 44.26093554 69.04740903 42.0390625 66.80078125 C40.48299482 65.24621612 38.92596344 63.69261509 37.36801147 62.13993835 C34.10885087 58.88510802 30.86051865 55.61994455 27.61962891 52.34692383 C23.46522187 48.15272128 19.28671981 43.98354158 15.10004616 39.82157612 C11.88233141 36.61804392 8.67685926 33.40248582 5.47504807 30.18306541 C3.93879252 28.6409609 2.39895129 27.10241989 0.85548782 25.56752968 C-1.29938026 23.42065284 -3.43745033 21.2583378 -5.57177734 19.09106445 C-6.531716 18.14395096 -6.531716 18.14395096 -7.51104736 17.17770386 C-10.9707078 13.62536269 -12.95417666 11.20613085 -13 6 C-11.76356597 3.13667909 -10.66847461 1.50711867 -8.1875 -0.375 C-5.00030509 -1.28562712 -3.21131897 -0.91375127 0 0 Z " fill="#000000" transform="translate(59,47)"/>
<path d="M0 0 C0.66 -0.0103125 1.32 -0.020625 2 -0.03125 C5.08639727 0.78857427 6.08668043 1.91785618 8 4.5 C8.61356198 7.73943504 8.55648816 10.94905602 8.53344727 14.23803711 C8.54206284 15.22545395 8.55067841 16.21287079 8.55955505 17.23020935 C8.58226889 20.49618702 8.57546573 23.76131037 8.56640625 27.02734375 C8.57163961 29.29651648 8.57791503 31.56568702 8.58518982 33.83485413 C8.59560422 38.59207389 8.59101772 43.34899472 8.57641602 48.10620117 C8.55923168 54.20419871 8.58271458 60.30125374 8.61790562 66.39914608 C8.63986132 71.08576203 8.6384424 75.77215187 8.6301403 80.45880318 C8.6293197 82.70708817 8.63620389 84.95538959 8.65091133 87.20362663 C8.66832163 90.34719715 8.65384251 93.48906646 8.63110352 96.63256836 C8.64279572 97.56208313 8.65448792 98.4915979 8.66653442 99.44927979 C8.60017168 103.95600492 8.46181946 105.89568306 5.64805603 109.57765198 C3 111.5 3 111.5 0 112.125 C-4.1595854 111.25841971 -5.42225149 109.87313001 -8 106.5 C-8.72994707 103.21080231 -8.67334576 99.99077248 -8.63110352 96.63256836 C-8.63825882 95.6433992 -8.64541412 94.65423004 -8.65278625 93.63508606 C-8.66967786 90.36953375 -8.65026845 87.10535319 -8.62890625 83.83984375 C-8.62973483 81.56970608 -8.63219381 79.29956846 -8.63621521 77.0294342 C-8.63907346 72.27391482 -8.62436754 67.51886635 -8.59692383 62.76342773 C-8.56282218 56.66432171 -8.56886577 50.56605678 -8.5875864 44.46691036 C-8.59814806 39.78032912 -8.58922637 35.09394405 -8.57420158 30.40738106 C-8.56901453 28.15828598 -8.56950789 25.90917046 -8.57574654 23.66007805 C-8.58118925 20.5189485 -8.56085356 17.37902885 -8.53344727 14.23803711 C-8.53997314 13.30649811 -8.54649902 12.37495911 -8.55322266 11.41519165 C-8.45970694 5.12040312 -8.45970694 5.12040312 -6.09165955 1.92457581 C-3.83084946 0.3847959 -2.70964114 -0.04233814 0 0 Z " fill="#000000" transform="translate(168,-0.5)"/>
<path d="M0 0 C1.2828186 -0.01073296 1.2828186 -0.01073296 2.59155273 -0.02168274 C3.53185333 -0.02437164 4.47215393 -0.02706055 5.44094849 -0.02983093 C6.42967957 -0.03640213 7.41841064 -0.04297333 8.43710327 -0.04974365 C11.71849639 -0.0695017 14.99984373 -0.08114375 18.28128052 -0.09111023 C19.39977512 -0.09518576 20.51826973 -0.09926128 21.67065811 -0.10346031 C27.58855252 -0.12432998 33.50642366 -0.13862883 39.42434692 -0.147995 C45.54697681 -0.15907199 51.6692445 -0.19348447 57.79174614 -0.23316669 C62.4911366 -0.25926643 67.19043982 -0.26768084 71.88989639 -0.27127647 C74.14739559 -0.27615824 76.40489049 -0.28781709 78.66231918 -0.30631447 C81.81799087 -0.33056826 84.97271284 -0.32976609 88.12844849 -0.32279968 C89.06470062 -0.33560974 90.00095276 -0.3484198 90.96557617 -0.36161804 C97.29434245 -0.31056886 97.29434245 -0.31056886 100.49249268 2.05154419 C102.02742098 4.31423142 102.45641449 5.43859699 102.41409302 8.14717102 C102.42956177 9.13717102 102.42956177 9.13717102 102.44534302 10.14717102 C101.62517042 13.23487962 100.49878829 14.23468817 97.91409302 16.14717102 C94.66808143 16.75175596 91.45382602 16.68300546 88.16018677 16.64888 C86.67665207 16.65698448 86.67665207 16.65698448 85.16314697 16.66525269 C81.89232504 16.67776491 78.62237901 16.66123183 75.35159302 16.64326477 C73.08002679 16.6434197 70.8084603 16.64490767 68.53689575 16.64767456 C63.77546508 16.64905968 59.01433522 16.6364813 54.25296021 16.61372375 C48.146091 16.58533911 42.03972175 16.5880751 35.93281555 16.60081387 C31.24197104 16.60776495 26.55124233 16.59998823 21.8604126 16.58755684 C19.60852502 16.58303681 17.35662504 16.58271034 15.10473633 16.58662224 C11.95889759 16.58952879 8.81375066 16.57305346 5.66799927 16.55122375 C4.73488922 16.5557254 3.80177917 16.56022705 2.84039307 16.56486511 C-3.41535545 16.4926464 -3.41535545 16.4926464 -6.63693237 14.83285522 C-8.99373385 12.09103836 -9.0248802 9.68672446 -9.08590698 6.14717102 C-6.87618804 1.3068343 -5.19042865 0.02976766 0 0 Z " fill="#000000" transform="translate(234.08590698242188,159.8528289794922)"/>
<path d="M0 0 C0.98902313 -0.00540298 1.97804626 -0.01080597 2.99703979 -0.01637268 C6.26786173 -0.0288849 9.53780776 -0.01235183 12.80859375 0.00561523 C15.08015998 0.00546031 17.35172647 0.00397234 19.62329102 0.00120544 C24.38472169 -0.00017967 29.14585155 0.0123987 33.90722656 0.03515625 C40.01409577 0.06354089 46.12046502 0.0608049 52.22737122 0.04806614 C56.91821573 0.04111506 61.60894444 0.04889178 66.29977417 0.06132317 C68.55166174 0.0658432 70.80356173 0.06616967 73.05545044 0.06225777 C76.20128918 0.05935121 79.34643611 0.07582655 82.4921875 0.09765625 C83.89185257 0.09090378 83.89185257 0.09090378 85.3197937 0.08401489 C91.57554222 0.1562336 91.57554222 0.1562336 94.79711914 1.81602478 C97.15392062 4.55784165 97.18506697 6.96215554 97.24609375 10.50170898 C95.90046976 13.4492663 95.16054831 15.04448171 92.24609375 16.50170898 C90.88690091 16.60151363 89.52301656 16.64106403 88.16018677 16.64888 C87.30497437 16.65603531 86.44976196 16.66319061 85.56863403 16.67056274 C84.62833344 16.67325165 83.68803284 16.67594055 82.71923828 16.67871094 C81.7305072 16.68528214 80.74177612 16.69185333 79.7230835 16.69862366 C76.44169038 16.71838171 73.16034303 16.73002376 69.87890625 16.73999023 C68.76041164 16.74406576 67.64191704 16.74814129 66.48952866 16.75234032 C60.57163425 16.77320999 54.65376311 16.78750884 48.73583984 16.796875 C42.61320996 16.80795199 36.49094226 16.84236447 30.36844063 16.8820467 C25.66905017 16.90814644 20.96974695 16.91656084 16.27029037 16.92015648 C14.01279118 16.92503825 11.75529628 16.9366971 9.49786758 16.95519447 C6.3421959 16.97944826 3.18747392 16.9786461 0.03173828 16.97167969 C-0.90451385 16.98448975 -1.84076599 16.9972998 -2.8053894 17.01049805 C-9.13415569 16.95944886 -9.13415569 16.95944886 -12.33230591 14.59733582 C-13.86723422 12.33464858 -14.29622772 11.21028302 -14.25390625 8.50170898 C-14.269375 7.51170898 -14.269375 7.51170898 -14.28515625 6.50170898 C-12.36593295 -0.72360227 -6.14559397 -0.0636746 0 0 Z " fill="#000000" transform="translate(13.75390625,159.498291015625)"/>
<path d="M0 0 C0.66 -0.0103125 1.32 -0.020625 2 -0.03125 C5.08741227 0.78884388 6.0870444 1.91601018 8 4.5 C8.60913111 7.74535634 8.54616056 10.95999346 8.51757812 14.25390625 C8.5245874 15.24292938 8.53159668 16.23195251 8.53881836 17.25094604 C8.5564304 20.52174923 8.5447638 23.79168794 8.53125 27.0625 C8.53394398 29.33406745 8.53782561 31.60563377 8.54284668 33.87719727 C8.5487461 38.63862077 8.54016419 43.39974418 8.52148438 48.16113281 C8.49869494 54.26809068 8.5118156 60.37434541 8.53577423 66.48127747 C8.55022 71.17213246 8.54563175 75.86282043 8.53526306 80.55368042 C8.53259242 82.80557335 8.53587735 85.05748139 8.54518127 87.30935669 C8.55532642 90.45534505 8.53987336 93.60019063 8.51757812 96.74609375 C8.52567505 97.6792038 8.53377197 98.61231384 8.54211426 99.57369995 C8.45926213 105.87586154 8.45926213 105.87586154 6.11999512 109.05493164 C3.61310867 110.76371967 2.03439952 111.35198051 -1 111.5 C-4.81263347 110.43600927 -5.75011007 109.8748349 -8 106.5 C-8.25726891 104.54905796 -8.25726891 104.54905796 -8.26742554 102.2938385 C-8.27595551 101.43725143 -8.28448547 100.58066437 -8.29327393 99.69812012 C-8.29236755 98.76141479 -8.29146118 97.82470947 -8.29052734 96.85961914 C-8.29724457 95.87074203 -8.30396179 94.88186493 -8.31088257 93.86302185 C-8.32991455 90.58701585 -8.33378927 87.31121412 -8.3359375 84.03515625 C-8.34236135 81.76216039 -8.3490894 79.48916536 -8.35610962 77.21617126 C-8.36809509 72.44886355 -8.37178909 67.68162837 -8.37060547 62.91430664 C-8.37040211 56.7995247 -8.3977168 50.68520663 -8.43214989 44.57053471 C-8.4543639 39.87542068 -8.45844471 35.18041931 -8.45738602 30.4852581 C-8.45974979 28.23055865 -8.46861671 25.97585644 -8.48405075 23.72120857 C-8.50360097 20.57039818 -8.49791572 17.42060138 -8.48583984 14.26977539 C-8.49707886 13.3350943 -8.50831787 12.40041321 -8.51989746 11.43740845 C-8.45822954 5.11985206 -8.45822954 5.11985206 -6.09463501 1.92259216 C-3.83239504 0.38616943 -2.7089982 -0.0423281 0 0 Z " fill="#000000" transform="translate(168,225.5)"/>
<path d="M0 0 C3.12989149 0.98420416 4.12436319 2.9681799 6 5.62890625 C7.3765001 8.35559416 8.51552847 11.16243919 9.65234375 13.99609375 C9.98924225 14.81579147 10.32614075 15.6354892 10.67324829 16.48002625 C11.76931778 19.15146601 12.85373749 21.82745272 13.9375 24.50390625 C15.07166561 27.28452557 16.20811507 30.06420248 17.34501648 32.84370422 C18.11118736 34.71692533 18.87641241 36.59053356 19.64070129 38.46452332 C22.03483734 44.32168229 24.49099791 50.14771387 27.0078125 55.953125 C27.61740414 57.36794303 28.22686456 58.78281761 28.83618164 60.19775391 C29.68773609 62.17414172 30.54332369 64.14809178 31.41452026 66.11590576 C36.88486004 78.4819598 36.88486004 78.4819598 36 85.62890625 C34.9375 87.56640625 34.9375 87.56640625 33 88.62890625 C29.37569156 89.56854177 27.02754027 90.03591961 23.50561523 88.64086914 C19.98783251 85.8161544 18.89856516 82.6995502 17.28515625 78.5625 C16.95240692 77.74812973 16.61965759 76.93375946 16.27682495 76.0947113 C15.18989099 73.42458918 14.12594808 70.74595906 13.0625 68.06640625 C12.31663432 66.21767655 11.56930574 64.36953643 10.82055664 62.52197266 C9.67461274 59.69208085 8.53052007 56.86153292 7.39311218 54.02819824 C4.91465954 47.85642039 2.37107065 41.71623579 -0.2265625 35.59375 C-1.19693126 33.29378034 -2.1665134 30.99348027 -3.13601685 28.69314575 C-3.74941089 27.24372224 -4.36644913 25.79583508 -4.98727417 24.34957886 C-5.84811986 22.34056804 -6.69322162 20.32558799 -7.53515625 18.30859375 C-8.25264038 16.61839111 -8.25264038 16.61839111 -8.98461914 14.89404297 C-10.11125244 11.27115436 -10.28904257 8.40212208 -10 4.62890625 C-7.41070178 0.42129664 -4.59743872 0.15264933 0 0 Z " fill="#000000" transform="translate(332,249.37109375)"/>
<path d="M0 0 C1.9375 1.625 1.9375 1.625 3 4 C3.52125411 10.00878379 2.08176579 14.14587404 -0.26171875 19.52734375 C-0.77528427 20.74881607 -0.77528427 20.74881607 -1.29922485 21.9949646 C-2.41718006 24.64749863 -3.5520673 27.29240612 -4.6875 29.9375 C-5.85716089 32.69612024 -7.02289066 35.45637952 -8.18833923 38.21678162 C-8.97599381 40.08162573 -9.76511414 41.94585142 -10.55567932 43.8094635 C-13.06681881 49.73988853 -15.50719183 55.6937587 -17.8828125 61.6796875 C-18.32639854 62.79341484 -18.32639854 62.79341484 -18.77894592 63.92964172 C-19.89654896 66.73778019 -21.01356787 69.54595204 -22.11166382 72.36178589 C-22.85321458 74.26165055 -23.60793628 76.15635858 -24.36328125 78.05078125 C-24.77876221 79.10950439 -25.19424316 80.16822754 -25.62231445 81.2590332 C-27.07286183 84.14496186 -28.54527448 85.91949095 -31 88 C-33.74659576 88.7295645 -36.22200688 88.55218306 -39 88 C-41.5 86.4375 -41.5 86.4375 -43 84 C-43.4979301 78.40670028 -42.23025976 74.23259474 -39.9921875 69.19921875 C-39.67469543 68.45709641 -39.35720337 67.71497406 -39.03009033 66.95036316 C-37.98964359 64.52438828 -36.93228955 62.10617549 -35.875 59.6875 C-34.78000346 57.14498984 -33.68945824 54.60059823 -32.59896851 52.05615234 C-31.85242284 50.31528218 -31.10438202 48.57505246 -30.35488892 46.83544922 C-26.19076588 37.16094915 -22.20488705 27.41482083 -18.22210693 17.66464233 C-17.64790895 16.25977339 -17.07314499 14.8551356 -16.4977417 13.45075989 C-15.74979292 11.62516353 -15.00396339 9.79869931 -14.25830078 7.97216797 C-11.45705421 1.35548661 -11.45705421 1.35548661 -9.3125 -0.3125 C-5.89259577 -1.32922829 -3.42890226 -0.87281149 0 0 Z " fill="#000000" transform="translate(365,424)"/>
<path d="M0 0 C1.94140625 0.34375 1.94140625 0.34375 4.44140625 1.90625 C6.50581046 5.26090684 6.21485466 7.43185579 5.94140625 11.34375 C5.11878999 13.89200884 4.25920409 16.20264536 3.1875 18.63671875 C2.89498352 19.32888992 2.60246704 20.0210611 2.30108643 20.73420715 C1.33849265 23.00496582 0.3587752 25.26789909 -0.62109375 27.53125 C-1.29646031 29.11598549 -1.97051254 30.7012817 -2.64331055 32.28710938 C-4.05220114 35.60548059 -5.4668216 38.92132799 -6.88476562 42.23583984 C-9.06246528 47.33837157 -11.19897902 52.45746151 -13.32421875 57.58203125 C-13.66609726 58.40616013 -14.00797577 59.230289 -14.36021423 60.07939148 C-15.3642003 62.50069545 -16.36766687 64.92221425 -17.37109375 67.34375 C-18.61499002 70.34466862 -19.86119577 73.34461052 -21.109375 76.34375 C-21.51467438 77.32260918 -21.51467438 77.32260918 -21.92816162 78.32124329 C-25.50879958 86.91613231 -25.50879958 86.91613231 -27.74609375 88.65625 C-31.13021293 89.66233949 -33.65526149 89.14817399 -37.05859375 88.34375 C-38.99609375 87.28125 -38.99609375 87.28125 -40.05859375 85.34375 C-40.69678208 78.32219767 -38.84742704 73.36573901 -36.0703125 66.9765625 C-35.4483902 65.4990023 -35.4483902 65.4990023 -34.81390381 63.99159241 C-33.47154345 60.81135769 -32.10933683 57.64008201 -30.74609375 54.46875 C-29.82243572 52.29389057 -28.89999294 50.11851462 -27.97875977 47.94262695 C-26.16921398 43.67343552 -24.35229319 39.40750714 -22.52929688 35.14404297 C-20.4508376 30.27650534 -18.40611581 25.39619588 -16.38671875 20.50390625 C-15.88438721 19.2926709 -15.38205566 18.08143555 -14.86450195 16.83349609 C-13.97881621 14.69615704 -13.0968913 12.55725404 -12.21948242 10.41650391 C-11.8351001 9.4991748 -11.45071777 8.5818457 -11.0546875 7.63671875 C-10.73685303 6.8686792 -10.41901855 6.10063965 -10.09155273 5.30932617 C-7.63406112 0.63306405 -5.36633588 -0.23718612 0 0 Z " fill="#000000" transform="translate(434.05859375,249.65625)"/>
<path d="M0 0 C1.92041016 2.45703125 1.92041016 2.45703125 3.4140625 5.8125 C3.83686996 6.73760376 3.83686996 6.73760376 4.26821899 7.68139648 C5.21141355 9.77480247 6.10799646 11.88430719 7 14 C7.32464233 14.75345703 7.64928467 15.50691406 7.98376465 16.28320312 C10.51527067 22.16133759 12.95326574 28.07596869 15.375 34 C16.12592044 35.8293876 16.87714308 37.65865119 17.62866211 39.48779297 C18.7391312 42.19123297 19.84903473 44.89489317 20.95646667 47.59957886 C22.97309547 52.52119312 25.01838606 57.42816252 27.10546875 62.3203125 C27.53230957 63.32964844 27.95915039 64.33898437 28.39892578 65.37890625 C29.14435269 67.13815128 29.89845955 68.89375888 30.66357422 70.64453125 C32.60096917 75.26213621 33.50861784 78.89450702 33 84 C31.5 86.4375 31.5 86.4375 29 88 C26.19531045 88.60921535 23.75263191 88.86557371 21 88 C17.63542716 84.34365195 15.68601539 80.46264297 13.85546875 75.90234375 C13.56852142 75.20747864 13.2815741 74.51261353 12.9859314 73.79669189 C12.04511308 71.51348992 11.11603085 69.2257236 10.1875 66.9375 C9.19883352 64.52214867 8.20795096 62.10771397 7.21696472 59.6933136 C6.53104555 58.02144517 5.84617405 56.34914656 5.16230774 54.67643738 C2.72056843 48.7144457 0.21490481 42.78214074 -2.3203125 36.859375 C-3.35784152 34.42214147 -4.39434678 31.98447521 -5.43051147 29.54666138 C-6.09796915 27.98294906 -6.76949579 26.42096685 -7.44522095 24.86080933 C-8.39036243 22.67624012 -9.31972011 20.48554907 -10.24609375 18.29296875 C-10.52659576 17.65586975 -10.80709778 17.01877075 -11.09609985 16.36236572 C-12.87266927 12.10248296 -13.41652995 8.59659257 -13 4 C-9.04694991 -1.00719678 -6.1561266 -1.58824548 0 0 Z " fill="#000000" transform="translate(407,424)"/>
<path d="M0 0 C2.35835101 0.90394604 4.67013436 1.88231733 6.98382568 2.8951416 C7.85078064 3.2624942 8.7177356 3.6298468 9.61096191 4.0083313 C12.42527571 5.20374847 15.23182346 6.41632081 18.03851318 7.6295166 C19.97434813 8.45643204 21.91071254 9.28210904 23.84759521 10.10656738 C26.76274778 11.34768643 29.67746083 12.589736 32.59011841 13.83670044 C38.37995363 16.31366993 44.186178 18.74175283 50.02288818 21.1060791 C50.69967621 21.38109253 51.37646423 21.65610596 52.07376099 21.93945312 C55.1603945 23.19281253 58.2496004 24.43854619 61.34368896 25.67346191 C62.41602783 26.11013184 63.4883667 26.54680176 64.59320068 26.9967041 C65.50827393 27.36392578 66.42334717 27.73114746 67.3661499 28.10949707 C70.25152591 29.54803704 72.51449469 31.23130821 74.91351318 33.3795166 C75.77908689 36.13214851 75.52272854 38.57482705 74.91351318 41.3795166 C73.35101318 43.8795166 73.35101318 43.8795166 70.91351318 45.3795166 C64.94915479 45.94355518 60.79772858 44.47596217 55.45648193 42.1529541 C54.64759018 41.81335663 53.83869843 41.47375916 53.0052948 41.12387085 C50.365358 40.01256824 47.73319572 38.88404877 45.10101318 37.7545166 C42.34832339 36.58667145 39.59418431 35.42229126 36.83996582 34.25805664 C34.96858383 33.46655208 33.09785945 32.67349096 31.2277832 31.87890625 C25.09854221 29.27991502 18.94104582 26.76547596 12.75335693 24.3092041 C11.17945141 23.68004385 9.60563719 23.05065514 8.03192139 22.42102051 C5.80159146 21.52893652 3.57000134 20.64176705 1.33132935 19.77081299 C-0.71768483 18.97253669 -2.75791682 18.1548421 -4.79742432 17.3326416 C-5.94517334 16.88050293 -7.09292236 16.42836426 -8.27545166 15.96252441 C-11.50987995 14.14108677 -12.61959443 12.76005745 -14.08648682 9.3795166 C-14.02199673 5.63909151 -13.89729698 3.3462518 -11.46148682 0.4420166 C-7.64847488 -1.26380453 -4.0098927 -1.19246948 0 0 Z " fill="#000000" transform="translate(437.08648681640625,394.6204833984375)"/>
<path d="M0 0 C2.4375 1.5 2.4375 1.5 4 4 C4.60921535 6.80468955 4.86557371 9.24736809 4 12 C-0.11912052 15.90376485 -4.70311177 17.80026056 -9.875 19.90625 C-10.74469421 20.26812408 -11.61438843 20.62999817 -12.51043701 21.00283813 C-15.33700324 22.17669018 -18.1682269 23.33877145 -21 24.5 C-22.94718389 25.30393454 -24.89412283 26.1084626 -26.84082031 26.91357422 C-29.77114968 28.12498559 -32.70185819 29.33541613 -35.63409424 30.54220581 C-41.45569988 32.93927593 -47.25885609 35.37460765 -53.046875 37.8515625 C-55.00660606 38.68460396 -56.96680585 39.51652945 -58.92724609 40.34790039 C-60.70614214 41.10630196 -62.48010021 41.8762531 -64.25390625 42.64648438 C-74.16363206 46.82246919 -74.16363206 46.82246919 -80 46 C-83.04332421 43.91772554 -83.84308189 42.53800495 -84.875 39 C-85.01023295 35.75440911 -84.74427412 34.66830225 -83 32 C-81.09692383 30.79003906 -81.09692383 30.79003906 -78.70703125 29.765625 C-77.78559326 29.36424316 -76.86415527 28.96286133 -75.91479492 28.54931641 C-74.8910376 28.12054199 -73.86728027 27.69176758 -72.8125 27.25 C-71.73911377 26.78899902 -70.66572754 26.32799805 -69.55981445 25.85302734 C-54.94079641 19.61858029 -40.2121365 13.63426788 -25.48829651 7.65257263 C-22.08479531 6.26811743 -18.68667339 4.87493522 -15.30712891 3.43286133 C-14.24284668 2.97935303 -13.17856445 2.52584473 -12.08203125 2.05859375 C-11.18331299 1.66986084 -10.28459473 1.28112793 -9.35864258 0.88061523 C-5.87881455 -0.41860221 -3.66158929 -0.68654799 0 0 Z " fill="#000000" transform="translate(508,322)"/>
<path d="M0 0 C2.7152814 0.90420836 5.20106318 1.85185735 7.80078125 3.0078125 C8.91396477 3.4840506 8.91396477 3.4840506 10.04963684 3.96990967 C12.47561172 5.01035641 14.89382451 6.06771045 17.3125 7.125 C19.85501016 8.21999654 22.39940177 9.31054176 24.94384766 10.40103149 C26.68471782 11.14757716 28.42494754 11.89561798 30.16455078 12.64511108 C39.83905085 16.80923412 49.58517917 20.79511295 59.33535767 24.77789307 C60.74022661 25.35209105 62.1448644 25.92685501 63.54924011 26.5022583 C65.37483647 27.25020708 67.20130069 27.99603661 69.02783203 28.74169922 C75.66311609 31.55082145 75.66311609 31.55082145 77.3125 33.75 C78.27169252 36.88917552 77.91533918 38.86169424 77 42 C75.375 44.375 75.375 44.375 73 46 C67.01485279 46.58674235 62.83078693 45.07160228 57.47265625 42.73828125 C56.65834137 42.39590424 55.84402649 42.05352722 55.0050354 41.70077515 C52.35250137 40.58281994 49.70759388 39.4479327 47.0625 38.3125 C44.30387976 37.14283911 41.54362048 35.97710934 38.78321838 34.81166077 C36.91837427 34.02400619 35.05414858 33.23488586 33.1905365 32.44432068 C27.26011147 29.93318119 21.3062413 27.49280817 15.3203125 25.1171875 C14.57782761 24.82146347 13.83534271 24.52573944 13.07035828 24.22105408 C10.26221981 23.10345104 7.45404796 21.98643213 4.63821411 20.88833618 C2.73834945 20.14678542 0.84364142 19.39206372 -1.05078125 18.63671875 C-2.10950439 18.22123779 -3.16822754 17.80575684 -4.2590332 17.37768555 C-7.14496186 15.92713817 -8.91949095 14.45472552 -11 12 C-11.7295645 9.25340424 -11.55218306 6.77799312 -11 4 C-8.08811572 -0.65901484 -5.18914148 -0.3811999 0 0 Z " fill="#000000" transform="translate(261,322)"/>
<path d="M0 0 C2.5 1.875 2.5 1.875 4 5 C4.3080206 8.36255818 4.23524404 11.6347033 4 15 C4.66386719 14.94199219 5.32773437 14.88398438 6.01171875 14.82421875 C13.20127796 14.45686901 13.20127796 14.45686901 17.125 17.125 C19.32778892 20.50260967 19.67296739 22.04631659 19 26 C17.22015595 29.1359157 16.47691793 29.84102736 13 31 C11.43881572 31.06740865 9.8749748 31.08514456 8.3125 31.0625 C7.10013672 31.04896484 7.10013672 31.04896484 5.86328125 31.03515625 C5.24839844 31.02355469 4.63351562 31.01195312 4 31 C4.05220703 31.88751953 4.05220703 31.88751953 4.10546875 32.79296875 C4.27423044 37.71920277 4.24691546 41.00379636 1 45 C-1.85324437 46.42662219 -3.83454549 46.31033868 -7 46 C-9.875 44.6875 -9.875 44.6875 -12 42 C-12.42089162 38.2972193 -12.2878234 34.70972387 -12 31 C-12.66386719 31.04640625 -13.32773437 31.0928125 -14.01171875 31.140625 C-18.26518048 31.31448913 -21.23767032 31.36591825 -25.125 29.5 C-27.40468273 26.46042303 -27.69079802 24.63732716 -27.3984375 20.90625 C-27 19 -27 19 -25.6875 16.5 C-21.35603598 14.08243869 -16.85001072 14.69896485 -12 15 C-12.04640625 14.25234375 -12.0928125 13.5046875 -12.140625 12.734375 C-12.43234391 4.77461617 -12.43234391 4.77461617 -10.5 1.3125 C-6.930506 -0.56148435 -3.93866806 -0.89588556 0 0 Z " fill="#000000" transform="translate(402,148)"/>
<path d="M0 0 C2.875 1.3125 2.875 1.3125 5 4 C5.42089162 7.7027807 5.2878234 11.29027613 5 15 C5.66386719 14.95359375 6.32773437 14.9071875 7.01171875 14.859375 C11.26518048 14.68551087 14.23767032 14.63408175 18.125 16.5 C20.40468273 19.53957697 20.69079802 21.36267284 20.3984375 25.09375 C20 27 20 27 18.6875 29.5 C14.35603598 31.91756131 9.85001072 31.30103515 5 31 C5.04640625 31.74765625 5.0928125 32.4953125 5.140625 33.265625 C5.43234391 41.22538383 5.43234391 41.22538383 3.5 44.6875 C-0.069494 46.56148435 -3.06133194 46.89588556 -7 46 C-9.5 44.125 -9.5 44.125 -11 41 C-11.3080206 37.63744182 -11.23524404 34.3652967 -11 31 C-11.66386719 31.05800781 -12.32773437 31.11601563 -13.01171875 31.17578125 C-20.20127796 31.54313099 -20.20127796 31.54313099 -24.125 28.875 C-26.32778892 25.49739033 -26.67296739 23.95368341 -26 20 C-24.22015595 16.8640843 -23.47691793 16.15897264 -20 15 C-18.43881572 14.93259135 -16.8749748 14.91485544 -15.3125 14.9375 C-14.10013672 14.95103516 -14.10013672 14.95103516 -12.86328125 14.96484375 C-11.94095703 14.98224609 -11.94095703 14.98224609 -11 15 C-11.03480469 14.40832031 -11.06960938 13.81664063 -11.10546875 13.20703125 C-11.27423044 8.28079723 -11.24691546 4.99620364 -8 1 C-5.14675563 -0.42662219 -3.16545451 -0.31033868 0 0 Z " fill="#000000" transform="translate(475,65)"/>
<path d="M0 0 C2.90717073 2.21863029 3.83981643 3.51944929 5 7 C5.12781786 9.67394964 5.04391871 12.32095857 5 15 C5.67546875 14.95359375 6.3509375 14.9071875 7.046875 14.859375 C14.31452456 14.56530825 14.31452456 14.56530825 17.5625 16.625 C19.3457723 19.57127597 19.92955543 21.54821594 20 25 C17.86956522 29.56521739 17.86956522 29.56521739 15 31 C13.29297265 31.06996014 11.58331997 31.08440154 9.875 31.0625 C8.96492188 31.05347656 8.05484375 31.04445313 7.1171875 31.03515625 C6.06917969 31.01775391 6.06917969 31.01775391 5 31 C5.061875 32.19625 5.12375 33.3925 5.1875 34.625 C5.19481625 38.7440472 4.23250847 41.47950587 2 45 C-1.09173752 46.54586876 -3.59429552 46.29359521 -7 46 C-9.4375 44.6875 -9.4375 44.6875 -11 42 C-11.32396453 38.30892873 -11.22932784 34.69472631 -11 31 C-11.74765625 31.04640625 -12.4953125 31.0928125 -13.265625 31.140625 C-21.32195927 31.43588332 -21.32195927 31.43588332 -24.625 29.3125 C-26.17247438 26.70992945 -26.85217288 25.03045593 -27 22 C-26.25710717 19.09596438 -25.79596758 17.51587209 -23.24609375 15.86328125 C-20.59753182 14.84531223 -18.57816435 14.80057462 -15.75 14.875 C-14.85796875 14.89304687 -13.9659375 14.91109375 -13.046875 14.9296875 C-12.03367188 14.96449219 -12.03367188 14.96449219 -11 15 C-11.04640625 14.25234375 -11.0928125 13.5046875 -11.140625 12.734375 C-11.43341214 4.74546887 -11.43341214 4.74546887 -9.4375 1.3125 C-6.03362851 -0.52035388 -3.80853299 -0.54407614 0 0 Z " fill="#000000" transform="translate(201,372)"/>
<path d="M0 0 C2.5 2.125 2.5 2.125 4 5 C4.14038027 10.0403946 3.01638975 12.37570503 -0.38647461 16.08349609 C-1.87626685 17.57907571 -3.38265323 19.05824809 -4.90234375 20.5234375 C-5.69524307 21.31021881 -6.4881424 22.09700012 -7.30506897 22.90762329 C-9.83547867 25.41113642 -12.3862525 27.89274412 -14.9375 30.375 C-16.65170603 32.06767932 -18.3646125 33.7616758 -20.07617188 35.45703125 C-23.20464085 38.5433782 -26.33458675 41.6280208 -29.48413086 44.69287109 C-30.43224892 45.61717422 -30.43224892 45.61717422 -31.39952087 46.56015015 C-33.60314839 48.54261447 -34.84030285 48.97870705 -37.8125 49.375 C-41 49 -41 49 -43.875 46.875 C-46 44 -46 44 -46.75 41.1875 C-45.02182238 33.8427451 -37.06339416 27.91330385 -31.82421875 22.69140625 C-31.17298538 22.03921616 -30.52175201 21.38702606 -29.8507843 20.71507263 C-28.48988465 19.35349864 -27.1277462 17.99316176 -25.7644043 16.6340332 C-23.67183675 14.54687726 -21.58473176 12.45436368 -19.49804688 10.36132812 C-18.16959181 9.03353295 -16.84082707 7.70604753 -15.51171875 6.37890625 C-14.88778732 5.75295059 -14.2638559 5.12699493 -13.62101746 4.48207092 C-8.67692658 -0.43505133 -6.97901062 -1.68458877 0 0 Z " fill="#000000" transform="translate(252,81)"/>
<path d="M0 0 C3.38121991 2.44598887 4.76936783 3.89296559 5.625 8 C4.77623777 12.07405871 3.14835302 13.29730544 0 16 C-2.61715619 17.48444429 -5.33432384 18.63221679 -8.1171875 19.76953125 C-8.89256866 20.09539719 -9.66794983 20.42126312 -10.46682739 20.75700378 C-12.0998569 21.43940857 -13.73549333 22.11560467 -15.37353516 22.78588867 C-17.86782014 23.80955335 -20.34994145 24.85927283 -22.83203125 25.91210938 C-24.42642177 26.57451128 -26.02145409 27.23537094 -27.6171875 27.89453125 C-28.35282928 28.20695267 -29.08847107 28.51937408 -29.84640503 28.84126282 C-34.3763895 30.66960428 -38.03075689 31.47021046 -43 31 C-46.00342896 28.94502229 -46.83287356 27.52366286 -47.9375 24.0625 C-48.01633841 20.19941813 -47.39869641 19.02784847 -45 16 C-42.34656264 14.34721363 -39.52977662 13.19165666 -36.640625 12.01171875 C-35.40672028 11.48962578 -35.40672028 11.48962578 -34.14788818 10.95698547 C-32.40942565 10.2259161 -30.66764036 9.5027049 -28.92285156 8.78686523 C-26.26466843 7.69353324 -23.62051294 6.57060789 -20.9765625 5.44335938 C-19.28200482 4.73517032 -17.58671429 4.02873177 -15.890625 3.32421875 C-15.10496155 2.98992355 -14.3192981 2.65562836 -13.50982666 2.311203 C-8.85836374 0.42605926 -5.1075518 -0.55612198 0 0 Z " fill="#000000" transform="translate(334,394)"/>
<path d="M0 0 C3.4375 1.0625 3.4375 1.0625 5.9375 3.1875 C7.91934367 6.98603369 7.27118903 8.90363432 6.4375 13.0625 C5.71171872 15.16621146 4.90945872 17.24485479 4.0390625 19.29296875 C3.55953125 20.42541016 3.08 21.55785156 2.5859375 22.72460938 C2.08320313 23.88798828 1.58046875 25.05136719 1.0625 26.25 C0.5675 27.42498047 0.0725 28.59996094 -0.4375 29.81054688 C-4.80767386 40.04072659 -4.80767386 40.04072659 -7.5625 43.0625 C-11.3525467 44.11529075 -13.68497365 44.3486499 -17.4375 43.125 C-19.88407466 40.75038342 -20.42652172 39.05750734 -20.76318359 35.69506836 C-20.34796135 30.24818097 -17.92661359 25.25854815 -15.78564453 20.28857422 C-14.93752047 18.31254769 -14.12540217 16.32434928 -13.31640625 14.33203125 C-12.78332721 13.059024 -12.24823797 11.78685627 -11.7109375 10.515625 C-11.22802246 9.37254883 -10.74510742 8.22947266 -10.24755859 7.05175781 C-7.65562603 2.45372503 -5.37188789 0.09424365 0 0 Z " fill="#000000" transform="translate(134.5625,247.9375)"/>
<path d="M0 0 C2.96932111 1.78159267 4.63068334 2.93070484 5.77441406 6.2421875 C6.06870105 9.83987779 5.13777537 12.09249981 3.796875 15.4375 C3.31089844 16.66210938 2.82492188 17.88671875 2.32421875 19.1484375 C1.9362915 20.09734863 1.9362915 20.09734863 1.54052734 21.06542969 C0.75447793 22.98904166 -0.01298062 24.91924463 -0.77734375 26.8515625 C-6.50570703 41.13488302 -6.50570703 41.13488302 -10.375 43.375 C-13.43652037 44.10393342 -15.03907136 44.06289746 -18 43 C-20.375 41.5 -20.375 41.5 -22 39 C-21.93456268 31.13934195 -19.087391 24.56216438 -15.96240234 17.46801758 C-15.11881834 15.54843357 -14.29860143 13.62000204 -13.48046875 11.68945312 C-8.01281334 -0.9615376 -8.01281334 -0.9615376 0 0 Z " fill="#000000" transform="translate(218,46)"/>
<path d="M0 0 C3.2956543 1.05395508 3.2956543 1.05395508 6.82421875 2.51953125 C7.45229935 2.77876877 8.08037994 3.03800629 8.72749329 3.30509949 C10.04645001 3.85235077 11.36326248 4.40479608 12.67797852 4.9621582 C14.68674749 5.81218157 16.70285116 6.64250777 18.72070312 7.47070312 C29.68177818 12.04250648 29.68177818 12.04250648 32 15 C33.00192482 17.92870332 33.09374971 19.6062512 32.375 22.625 C30.62007871 25.65622768 29.23784907 26.67542538 26 28 C19.46190087 27.36418273 13.71437017 24.58314107 7.74926758 22.01733398 C5.81281974 21.187637 3.86888405 20.37763413 1.92382812 19.56835938 C0.68439285 19.04024138 -0.5545573 18.5109831 -1.79296875 17.98046875 C-2.9121167 17.50504639 -4.03126465 17.02962402 -5.18432617 16.53979492 C-8.07717375 14.95779634 -9.43194896 13.87596936 -11 11 C-10.93044263 7.10478751 -10.54011724 4.78016934 -8.3125 1.5625 C-5.26506332 -0.49657884 -3.64928445 -0.28367941 0 0 Z " fill="#000000" transform="translate(259,196)"/>
<path d="M0 0 C4.50497559 1.59230093 8.87021479 3.46862028 13.25 5.375 C14.42046875 5.87 15.5909375 6.365 16.796875 6.875 C27.14981074 11.31536464 27.14981074 11.31536464 30 14 C30.72084915 18.9658497 30.75377517 20.88075808 27.9375 25.0625 C25 27 25 27 21.71948242 26.76879883 C15.61501782 25.50703585 10.06120537 23.05245437 4.3125 20.6875 C3.08982422 20.20087891 1.86714844 19.71425781 0.60742188 19.21289062 C-0.56626953 18.73400391 -1.73996094 18.25511719 -2.94921875 17.76171875 C-4.01487061 17.32819092 -5.08052246 16.89466309 -6.1784668 16.44799805 C-9.10089858 14.9482193 -10.92280481 13.53291737 -13 11 C-13.54109093 7.36696087 -13.24054224 5.49201821 -11.625 2.1875 C-8.42619734 -2.11858051 -4.76963384 -1.11267016 0 0 Z " fill="#000000" transform="translate(59,115)"/>
<path d="M0 0 C3.08352211 0.96962316 4.13591608 3.04170164 6 5.62890625 C8.16955548 9.97887222 9.92785624 14.49876342 11.75 19.00390625 C12.25660156 20.21046875 12.76320312 21.41703125 13.28515625 22.66015625 C13.76339844 23.83320313 14.24164063 25.00625 14.734375 26.21484375 C15.16975586 27.27751465 15.60513672 28.34018555 16.05371094 29.43505859 C17.11763035 33.02592385 17.31448473 35.9026539 17 39.62890625 C14.4511805 42.55255215 12.80484394 43.47799801 9 44.19140625 C4.94313466 43.430744 3.69535423 41.70878326 1 38.62890625 C-0.57739258 35.69384766 -0.57739258 35.69384766 -1.89453125 32.48046875 C-2.61479492 30.72476562 -2.61479492 30.72476562 -3.34960938 28.93359375 C-3.83236328 27.71929687 -4.31511719 26.505 -4.8125 25.25390625 C-5.31458984 24.04734375 -5.81667969 22.84078125 -6.33398438 21.59765625 C-8.72569796 15.67531785 -10.46483321 11.11126097 -10 4.62890625 C-7.41070178 0.42129664 -4.59743872 0.15264933 0 0 Z " fill="#000000" transform="translate(208,247.37109375)"/>
<path d="M0 0 C2.4375 1.5625 2.4375 1.5625 4 4 C4.5625 7.4375 4.5625 7.4375 4 11 C0.68839717 14.91340489 -2.4353296 16.96266549 -7.1484375 18.89453125 C-8.90414062 19.61479492 -8.90414062 19.61479492 -10.6953125 20.34960938 C-11.90960938 20.83236328 -13.12390625 21.31511719 -14.375 21.8125 C-16.18484375 22.56563477 -16.18484375 22.56563477 -18.03125 23.33398438 C-23.9535884 25.72569796 -28.51764528 27.46483321 -35 27 C-37.4375 25.5 -37.4375 25.5 -39 23 C-39.60921535 20.19531045 -39.86557371 17.75263191 -39 15 C-33.62112145 10.13237999 -27.26667857 7.93628401 -20.625 5.25 C-19.4184375 4.74339844 -18.211875 4.23679688 -16.96875 3.71484375 C-15.79570313 3.23660156 -14.62265625 2.75835937 -13.4140625 2.265625 C-12.3513916 1.83024414 -11.2887207 1.39486328 -10.19384766 0.94628906 C-6.61412228 -0.11432977 -3.71521399 -0.27338262 0 0 Z " fill="#000000" transform="translate(86,198)"/>
<path d="M0 0 C4.68314557 3.37800664 6.22326562 10.05807046 8.35327148 15.23193359 C9.18139343 17.23522771 10.03026397 19.22881924 10.88085938 21.22265625 C11.41535582 22.50727515 11.94859979 23.79241602 12.48046875 25.078125 C12.96410889 26.23731445 13.44774902 27.39650391 13.94604492 28.59082031 C15.08930705 32.28887737 15.34226709 35.15190243 15 39 C12.28148463 42.21279089 10.59276322 42.90640581 6.4375 43.5625 C3 43 3 43 0.95996094 40.83325195 C-2.39729071 35.98012473 -4.46061587 30.60450732 -6.75 25.1875 C-7.25660156 24.03701172 -7.76320313 22.88652344 -8.28515625 21.70117188 C-10.89660374 15.55969497 -12.84779307 10.69599523 -12 4 C-8.99732176 -1.00446374 -5.31746703 -0.59082967 0 0 Z " fill="#000000" transform="translate(125,47)"/>
<path d="M0 0 C3.03727005 2.58167954 3.87499856 4.12498993 4.4375 8.0625 C3.93321089 11.44844116 3.31709481 12.51852079 1 15 C-1.89160156 16.55566406 -1.89160156 16.55566406 -5.390625 18.015625 C-6.01346375 18.27631775 -6.63630249 18.5370105 -7.27801514 18.80560303 C-8.59358664 19.35245208 -9.91163473 19.89337629 -11.23193359 20.42871094 C-13.23673452 21.24460137 -15.22959862 22.08558056 -17.22265625 22.9296875 C-18.50717355 23.45988399 -19.79231175 23.98857919 -21.078125 24.515625 C-22.23731445 24.99290039 -23.39650391 25.47017578 -24.59082031 25.96191406 C-28.27482482 27.08368341 -31.17048059 27.29618667 -35 27 C-37.4375 25.5 -37.4375 25.5 -39 23 C-39.5149217 20.09186268 -39.33536988 18.01832892 -39 15 C-35.6586933 10.43200226 -29.30167951 8.81053031 -24.25024414 6.64672852 C-22.32949203 5.81981533 -20.41987458 4.97029642 -18.50976562 4.11914062 C-6.73113925 -1.02377807 -6.73113925 -1.02377807 0 0 Z " fill="#000000" transform="translate(287,113)"/>
<path d="M0 0 C2.96117815 2.02606926 3.81960928 3.39054911 4.8359375 6.82421875 C5.05072794 10.98194795 3.96432002 12.09411115 1.25 15.1875 C0.42628906 16.12851562 -0.39742188 17.06953125 -1.24609375 18.0390625 C-2.15961047 19.03016376 -3.07772018 20.0170481 -4 21 C-4.47711426 21.50885742 -4.95422852 22.01771484 -5.44580078 22.54199219 C-14.87929566 32.4882112 -14.87929566 32.4882112 -19 34 C-22.5012527 33.85411447 -24.47615008 33.35842363 -27.375 31.375 C-29.70690593 27.9668298 -29.54284429 26.08385934 -29 22 C-27.17949695 19.15158879 -24.89809901 16.86894648 -22.5 14.5 C-21.85796631 13.84507568 -21.21593262 13.19015137 -20.55444336 12.51538086 C-18.7200602 10.65875994 -16.86231345 8.8285204 -15 7 C-14.18660156 6.16597656 -13.37320312 5.33195312 -12.53515625 4.47265625 C-8.52347676 0.58807948 -5.82648173 -1.23252498 0 0 Z " fill="#000000" transform="translate(457,299)"/>
<path d="M0 0 C2.20408399 1.59134269 3.92225992 3.03661421 5.8125 4.9375 C6.32659424 5.43241943 6.84068848 5.92733887 7.37036133 6.43725586 C8.92800486 7.94419328 10.46453039 9.47051662 12 11 C13.35738281 12.31871094 13.35738281 12.31871094 14.7421875 13.6640625 C21.87603306 20.66115702 21.87603306 20.66115702 22.3125 25.375 C22 29 22 29 20.375 31.375 C17.26207288 33.5048975 15.81525697 34.22011098 12 34 C8.99620558 32.02552306 6.56152094 29.50730886 4 27 C2.27464744 25.47484102 0.54538448 23.95409578 -1.1875 22.4375 C-10.0667015 14.39157741 -10.0667015 14.39157741 -12 9.4375 C-12 6.15803114 -10.95936374 4.58915922 -9 2 C-5.46353748 -0.35764168 -4.1661936 -0.5688161 0 0 Z " fill="#000000" transform="translate(441,428)"/>
<path d="M0 0 C3.54296875 0.671875 3.54296875 0.671875 6.04296875 2.234375 C8.22368538 5.77803952 8.29628598 7.56287194 7.54296875 11.671875 C5.61607694 14.73064732 3.10127067 17.13427132 0.54296875 19.671875 C-0.55437047 20.79200459 -1.65064412 21.91317864 -2.74609375 23.03515625 C-13.0814897 33.54451004 -13.0814897 33.54451004 -17.83203125 33.984375 C-21.45703125 33.671875 -21.45703125 33.671875 -23.83203125 31.984375 C-25.67624932 29.35991083 -26.37872148 27.88257553 -26.45703125 24.671875 C-23.42091366 18.84860026 -18.81920207 14.51315728 -14.26953125 9.859375 C-13.44388672 8.97572266 -12.61824219 8.09207031 -11.76757812 7.18164062 C-4.82964124 0.10155531 -4.82964124 0.10155531 0 0 Z " fill="#000000" transform="translate(326.45703125,429.328125)"/>
<path d="M0 0 C5.00170092 1.44818479 8.4045514 5.70255887 11.90112305 9.38671875 C13.31777105 10.87660376 14.76408989 12.33172233 16.21826172 13.78491211 C24.08763827 21.85535151 24.08763827 21.85535151 24.38037109 26.68920898 C22.99479322 29.52634462 21.61035405 31.45922603 19.38037109 33.68920898 C16.02241133 34.29364174 13.57698092 34.43446598 10.59912109 32.57983398 C8.41529625 30.71062797 6.40537637 28.73073143 4.38037109 26.68920898 C3.26024151 25.59186977 2.13906746 24.49559611 1.01708984 23.40014648 C-9.49226395 13.06475053 -9.49226395 13.06475053 -9.93212891 8.31420898 C-9.61962891 4.68920898 -9.61962891 4.68920898 -8.11962891 2.25170898 C-5.36714007 0.53140346 -3.25381685 -0.06845078 0 0 Z " fill="#000000" transform="translate(308.61962890625,300.310791015625)"/>
<path d="M0 0 C3.4375 0.625 3.4375 0.625 5.62133789 2.70263672 C7.90554038 6.3781178 7.93975781 8.69886943 7.93359375 13.0078125 C7.93504898 13.70389618 7.93650421 14.39997986 7.93800354 15.11715698 C7.93635047 16.58123991 7.92485553 18.04534128 7.90405273 19.50927734 C7.87499452 21.75042256 7.88347381 23.98921451 7.89648438 26.23046875 C7.89024925 27.65626149 7.88186006 29.08204678 7.87109375 30.5078125 C7.86134521 31.80090332 7.85159668 33.09399414 7.84155273 34.42626953 C7.4375 37.625 7.4375 37.625 6.08618164 39.51513672 C3.51709759 41.2445986 1.51962043 41.50413253 -1.5625 41.625 C-4.875 40.375 -4.875 40.375 -7.5625 38.625 C-9.25437722 33.54936835 -8.86657658 28.1682817 -8.91259766 22.85595703 C-8.92915888 21.45539739 -8.95645225 20.05492234 -8.99462891 18.65478516 C-9.04958507 16.62618605 -9.07129305 14.59955703 -9.0859375 12.5703125 C-9.1156665 10.75297607 -9.1156665 10.75297607 -9.14599609 8.89892578 C-8.17719301 3.46308922 -5.35803195 0.94000561 0 0 Z " fill="#000000" transform="translate(382.5625,451.375)"/>
<path d="M0 0 C0.67151596 -0.00004028 1.34303192 -0.00008057 2.03489685 -0.00012207 C3.4477581 0.00521657 4.86062026 0.02272902 6.27319336 0.05175781 C8.43110132 0.09370155 10.5858927 0.09281638 12.74414062 0.0859375 C23.11756218 0.16497252 23.11756218 0.16497252 26.24975586 1.94726562 C28.66361427 4.39856229 28.80442265 6.19352374 28.87109375 9.59375 C26.64756434 15.20551471 26.64756434 15.20551471 23.87109375 16.59375 C19.50130463 16.87530398 15.12787488 16.90739613 10.75024414 16.94384766 C9.29435217 16.96039004 7.83854085 16.98765836 6.38305664 17.02587891 C4.27838252 17.08083123 2.17560868 17.10254616 0.0703125 17.1171875 C-1.18950439 17.13700684 -2.44932129 17.15682617 -3.74731445 17.17724609 C-8.02842407 16.43853755 -9.47692177 14.96381886 -12.12890625 11.59375 C-12.75390625 8.59375 -12.75390625 8.59375 -12.12890625 5.59375 C-8.3845987 0.8534348 -5.97016077 -0.03394109 0 0 Z " fill="#000000" transform="translate(464.12890625,371.40625)"/>
<path d="M0 0 C1.99301736 1.58066894 2.86543351 2.73086702 4 5 C4.25789144 9.22764104 4.27101954 13.45909944 4.29516602 17.69360352 C4.31235234 19.79445052 4.35623599 21.89371201 4.40039062 23.99414062 C4.41052052 25.33592595 4.4190357 26.67772464 4.42578125 28.01953125 C4.44036377 29.23745361 4.45494629 30.45537598 4.4699707 31.71020508 C3.90972301 35.63193892 2.83885979 37.27706375 0 40 C-4.04606167 40.66208282 -6.13960609 40.50726527 -9.68334961 38.41796875 C-12.81690197 35.14737094 -12.63141603 33.22968176 -12.62890625 28.75 C-12.63131821 28.05487305 -12.63373016 27.35974609 -12.63621521 26.64355469 C-12.63523815 25.17767619 -12.62187751 23.71176016 -12.59692383 22.24609375 C-12.56260013 20.00653341 -12.57626839 17.77091874 -12.59570312 15.53125 C-12.58880433 14.10414993 -12.57913161 12.67706001 -12.56640625 11.25 C-12.55552979 9.95578125 -12.54465332 8.6615625 -12.53344727 7.328125 C-11.91816249 3.48942386 -11.03417681 2.33687271 -8 0 C-5.06317146 -1.46841427 -3.13175678 -0.76696084 0 0 Z " fill="#000000" transform="translate(384,270)"/>
<path d="M0 0 C2.07519483 0.01388335 4.14588762 -0.02024577 6.22070312 -0.05834961 C7.53554688 -0.05641602 8.85039062 -0.05448242 10.20507812 -0.05249023 C11.40390625 -0.05321533 12.60273438 -0.05394043 13.83789062 -0.0546875 C18.00248807 0.75596645 19.49121841 2.27700077 22.08007812 5.57641602 C22.69445003 9.46743805 22.84121701 11.5267961 20.49804688 14.75805664 C17.18840624 17.24697056 14.94476856 17.09332198 10.83007812 17.10766602 C10.13495117 17.11149292 9.43982422 17.11531982 8.72363281 17.1192627 C7.25779772 17.12197781 5.79191385 17.11464437 4.32617188 17.09790039 C2.08678838 17.0764802 -0.14938774 17.09771044 -2.38867188 17.12329102 C-3.81576226 17.12064766 -5.24285066 17.11552252 -6.66992188 17.10766602 C-7.96414063 17.1031543 -9.25835937 17.09864258 -10.59179688 17.09399414 C-14.42981996 16.49711848 -15.6084594 15.63221149 -17.91992188 12.57641602 C-18.48632812 10.57641602 -18.48632812 10.57641602 -18.48242188 8.57641602 C-18.50433594 7.91641602 -18.52625 7.25641602 -18.54882812 6.57641602 C-16.03690843 -1.41180065 -6.64697096 -0.06221691 0 0 Z " fill="#000000" transform="translate(287.919921875,373.423583984375)"/>
<path d="M0 0 C2.59191186 1.69814915 2.96408796 2.8820033 3.875 5.875 C4.06834194 10.70854838 1.77743961 13.14821851 -1.41015625 16.640625 C-2.72306641 17.93226562 -2.72306641 17.93226562 -4.0625 19.25 C-4.94035156 20.12140625 -5.81820313 20.9928125 -6.72265625 21.890625 C-9.32575238 24.30172605 -10.31431047 24.90857473 -13.8125 25.375 C-17 25 -17 25 -19.875 22.875 C-22 20 -22 20 -22.75 17.1875 C-21.59729806 12.28851677 -18.47441678 9.50930048 -15 6 C-14.44054687 5.40316406 -13.88109375 4.80632813 -13.3046875 4.19140625 C-8.84232279 -0.48398592 -6.31033899 -1.57758475 0 0 Z " fill="#000000" transform="translate(286,47)"/>
<path d="M0 0 C2.59191186 1.69814915 2.96408796 2.8820033 3.875 5.875 C4.03279848 9.81996201 3.63885311 11.05069358 1 14 C-4.0189236 17.06934173 -9.07314909 19.04591487 -15 18 C-18.21279089 15.28148463 -18.90640581 13.59276322 -19.5625 9.4375 C-19 6 -19 6 -17 3.75 C-11.40399131 0.4856616 -6.51466151 -2.12105258 0 0 Z " fill="#000000" transform="translate(269,422)"/>
</svg>
