<svg width="128" height="32" viewBox="0 0 128 32" fill="none" xmlns="http://www.w3.org/2000/svg">
<path d="M14.6542 31.9012C13.9514 31.6963 13.3383 31.096 13.1589 30.4665C12.9196 29.632 12.9794 28.6657 13.3084 28.0362C13.6822 27.3335 13.6822 27.3335 13.2934 26.4111C13.0093 25.7523 12.9046 25.6352 12.456 25.5766C12.0374 25.5034 11.7832 25.5913 11.1252 26.0012C10.3626 26.4843 10.3177 26.5429 10.3177 27.1285C10.3177 27.9191 9.92895 28.6804 9.28596 29.0903C8.88222 29.3538 8.56821 29.427 7.74578 29.427C6.54952 29.427 6.02616 29.2074 5.44298 28.4754C4.36635 27.0846 5.15887 24.5372 6.77382 24.2444C7.25232 24.1565 7.29718 24.0979 7.46167 23.3513C7.62615 22.6193 7.62615 22.5168 7.29718 21.9751C6.98316 21.4481 6.89344 21.3895 6.16073 21.3016C5.71214 21.2431 5.33831 21.2284 5.32335 21.2577C5.3084 21.287 5.12896 21.5213 4.93457 21.7994C4.50093 22.429 3.82803 22.6925 2.70654 22.6925C1.70467 22.6925 1.13645 22.5022 0.628036 21.9751C0.149532 21.492 0 21.0528 0 20.1158C0 19.0763 0.284112 18.4321 0.986914 17.9197C1.51028 17.5245 1.64486 17.4952 2.87102 17.4805H4.18691L4.78504 16.9096C5.60746 16.119 5.59251 15.6358 4.71027 14.9038C4.05233 14.3768 4.03737 14.3768 2.96074 14.4353C2.13831 14.4939 1.77944 14.45 1.49532 14.2889C1.28598 14.1572 1.00187 14.0254 0.867288 13.9669C0.717755 13.9229 0.46355 13.5862 0.284112 13.2202C-0.149532 12.3564 -0.059813 10.7899 0.433644 10.1604C1.03177 9.41372 1.48037 9.22339 2.61682 9.22339C3.85794 9.22339 4.57569 9.5162 5.00934 10.2043C5.29345 10.6581 5.35326 10.6728 5.9813 10.5996C6.92335 10.4825 7.17755 10.3946 7.17755 10.2189C7.17755 10.1311 7.28223 9.92613 7.41681 9.77973C7.64111 9.56012 7.64111 9.41372 7.47662 8.66706C7.29718 7.83257 7.28223 7.81792 6.63924 7.6276C5.74204 7.36408 5.14391 6.67598 5.00934 5.72436C4.81494 4.28961 5.26354 3.22087 6.29531 2.70846C6.83363 2.43029 8.55325 2.41565 9.09157 2.69382C9.76447 3.03054 10.2131 3.7772 10.2878 4.64098C10.3476 5.40227 10.3775 5.43155 11.1551 5.90004C11.8131 6.30997 12.0523 6.38317 12.5009 6.30997C12.9944 6.23677 13.0691 6.14893 13.3682 5.43155L13.6972 4.64098L13.3383 3.96752C13.0392 3.39655 12.9944 3.13303 13.0542 2.31317C13.1738 0.585612 13.8617 0 15.7458 0C17.1663 0 17.6747 0.234245 18.0934 1.09802C18.5121 1.93252 18.4972 3.35263 18.0785 4.08465L17.7794 4.62634L18.1383 5.4462C18.4673 6.14893 18.5719 6.26605 19.0056 6.33925C19.4093 6.39782 19.6785 6.30997 20.3065 5.91468C21.0093 5.46084 21.0841 5.35835 21.0841 4.86058C21.099 3.38191 22.1009 2.48885 23.7757 2.48885C25.57 2.48885 26.4672 3.36727 26.4672 5.10947C26.4672 5.5926 26.4074 6.14893 26.3327 6.33925C26.1233 6.8663 25.4355 7.45192 24.7775 7.64224C24.299 7.78864 24.1943 7.89113 24.0598 8.40354C23.985 8.74026 23.8803 9.10627 23.8355 9.23804C23.8056 9.3698 23.8654 9.56012 23.9999 9.6626C24.1196 9.76509 24.2242 9.92613 24.2242 10.0286C24.2242 10.3361 24.5682 10.5117 25.3756 10.6289C26.1084 10.7167 26.1532 10.7021 26.3626 10.3068C26.7214 9.61868 27.6037 9.22339 28.7999 9.22339C30.6093 9.22339 31.4018 9.99933 31.4018 11.7562C31.4018 13.0152 31.1476 13.6301 30.4149 14.0693C29.9214 14.3621 29.6373 14.4207 28.6355 14.4207C27.4541 14.4207 27.4093 14.4353 26.7214 14.9917C25.7644 15.753 25.7644 16.1775 26.6915 16.9388C27.3644 17.4805 27.4093 17.4952 28.6055 17.4952C29.6224 17.4952 29.9214 17.5537 30.37 17.8319C31.1177 18.2711 31.4018 18.9299 31.4018 20.1597C31.4018 21.9019 30.6093 22.6925 28.8298 22.6925C27.4541 22.6925 27.0355 22.5022 26.2728 21.492C26.0037 21.126 24.5233 21.3163 24.299 21.7555C24.2093 21.9312 24.0598 22.1801 23.9551 22.2972C23.8056 22.4582 23.8056 22.6778 23.9551 23.2781C24.0897 23.8783 24.2093 24.0687 24.5084 24.1858C25.7794 24.6689 25.8841 24.7568 26.1981 25.4156C26.4373 25.9426 26.4822 26.3233 26.4373 27.0992C26.3476 28.7682 25.57 29.427 23.7308 29.427C22.056 29.427 21.3084 28.8121 21.114 27.2895C21.0093 26.4697 20.9943 26.4404 20.2317 25.9865C19.6785 25.6645 19.3196 25.5473 18.9906 25.5913C18.4673 25.6645 18.3626 25.7816 18.0336 26.66C17.7794 27.3188 17.7794 27.3481 18.0785 27.9044C18.7514 29.1342 18.3626 31.0814 17.3458 31.667C16.8224 31.9744 15.342 32.1062 14.6542 31.9012ZM16.0897 25.7962C16.3588 25.196 16.3738 25.0496 16.2093 24.6689C15.9402 24.0687 15.9551 22.9121 16.2243 22.3997C16.613 21.653 17.1364 21.3749 18.1233 21.3749C18.6168 21.3749 19.2 21.4773 19.4392 21.5945C19.9626 21.858 20.3364 22.5022 20.3364 23.1024C20.3364 23.4831 20.456 23.6148 21.2336 24.054C21.7271 24.3468 22.1308 24.5372 22.1308 24.4786C22.1308 24.42 22.0411 24.054 21.9364 23.6441C21.7719 23.0292 21.6523 22.8828 21.1439 22.6193C20.8 22.4436 20.456 22.1215 20.3065 21.8141C19.7981 20.8185 20.0822 19.3252 20.8747 18.8128C21.742 18.2711 23.5065 18.4321 24.0448 19.1056C24.299 19.413 24.4785 19.4716 25.0915 19.4716C25.5102 19.4716 25.8841 19.413 25.9289 19.3545C25.9738 19.2813 25.7046 18.9885 25.3457 18.6957C24.7775 18.2272 24.5831 18.154 23.9252 18.154C22.2953 18.154 21.6822 17.5391 21.6822 15.8994C21.6822 15.021 21.7271 14.9185 22.1906 14.4353C22.6542 13.9376 22.7439 13.9083 23.6112 13.9083C24.4934 13.9083 24.5831 13.8644 25.2859 13.2934C26.1084 12.6053 26.0635 12.4735 24.942 12.4589C24.5233 12.4443 24.299 12.5467 23.8803 12.9567C23.4018 13.4252 23.2822 13.4691 22.4448 13.4691C20.77 13.4691 20.1869 12.9128 20.1869 11.3023C20.1869 10.1457 20.4859 9.63332 21.3084 9.28196C21.6971 9.12091 21.8018 8.97451 21.9514 8.33034C22.056 7.90577 22.1009 7.53976 22.071 7.49584C22.0261 7.46656 21.6672 7.6276 21.2785 7.86185C20.6654 8.22785 20.5457 8.37426 20.456 8.90131C20.2317 10.1897 19.5887 10.6142 18.0037 10.5117C17.1065 10.4532 16.957 10.4093 16.5831 9.98469C16.1944 9.56012 16.1495 9.41372 16.1495 8.47674C16.1495 7.90577 16.2093 7.32015 16.299 7.17375C16.4037 6.98343 16.3439 6.70526 16.0897 6.11965L15.7308 5.34371L15.4018 6.04645C15.1177 6.66134 15.1028 6.82238 15.2523 7.18839C15.357 7.43728 15.4168 8.03753 15.3719 8.63778C15.3271 9.5162 15.2523 9.72116 14.9084 10.0579C14.5794 10.3946 14.3551 10.4678 13.5028 10.5117C12.7402 10.5703 12.3962 10.5117 12.0224 10.3214C11.499 10.0433 11.0654 9.34052 11.0654 8.74026C11.0654 8.4621 10.871 8.27177 10.2131 7.86185C9.73456 7.58368 9.33082 7.34943 9.31587 7.37872C9.30091 7.39336 9.37568 7.75936 9.4654 8.19857C9.62989 8.91595 9.71961 9.03307 10.1981 9.25268C11.0953 9.67724 11.3645 10.1311 11.3645 11.3023C11.3645 12.2686 11.3346 12.3564 10.871 12.8103C10.0187 13.6448 8.17942 13.6448 7.44671 12.7956C7.17755 12.5028 6.98316 12.4443 6.35513 12.4443C5.93644 12.4443 5.54765 12.4882 5.50279 12.5321C5.45793 12.576 5.71214 12.8835 6.08597 13.2202C6.72896 13.7912 6.81868 13.8351 7.50653 13.7912C8.95699 13.6887 9.77942 14.4207 9.79437 15.8115C9.79437 16.2507 9.74951 16.7924 9.67475 17.012C9.51026 17.6123 8.71774 18.0076 7.68596 18.0076C6.84858 18.0076 6.75886 18.0515 6.08597 18.6518L5.38317 19.2813L5.84672 19.3838C6.62428 19.5302 7.14765 19.4863 7.23737 19.252C7.28223 19.1349 7.53643 18.9006 7.80559 18.7396C8.37381 18.4029 9.71961 18.3443 10.3177 18.6371C11.7682 19.3545 11.7233 21.9165 10.243 22.5607C9.70465 22.795 9.59998 22.9121 9.51026 23.3806C9.4654 23.688 9.37568 24.0979 9.33082 24.2736C9.2411 24.5957 9.28596 24.5957 10.1532 24.054C11.0056 23.5416 11.0654 23.4684 11.0654 22.956C11.0654 22.5607 11.185 22.2679 11.499 21.9312C11.9327 21.4627 11.9775 21.4481 13.1439 21.4481C14.2953 21.4481 14.3701 21.4627 14.8187 21.9019C15.1925 22.2826 15.2972 22.5022 15.357 23.2342C15.4168 23.8637 15.3719 24.2444 15.2224 24.5518C15.0131 24.9471 15.028 25.0496 15.3121 25.7377C15.4916 26.1622 15.656 26.499 15.7159 26.499C15.7607 26.499 15.9252 26.1915 16.0897 25.7962Z" fill="white"/>
<path d="M60.1719 26.7332C59.3345 26.4697 58.7214 26.0012 58.3027 25.2838C57.9438 24.6835 57.9438 24.5957 57.9438 20.9356V17.2023L59.3345 17.1584L60.7102 17.1145V20.3647V23.6002L61.2186 24.0979C61.7868 24.6543 62.37 24.7421 62.9233 24.3615C63.6261 23.8783 63.7008 23.5123 63.7008 20.2036V17.1291H65.0466H66.3924V20.8478C66.3924 24.8885 66.3326 25.2106 65.5401 25.928C64.7177 26.6893 64.1943 26.8503 62.4298 26.8942C61.3532 26.9235 60.5756 26.8649 60.1719 26.7332Z" fill="white"/>
<path d="M39.3573 22.0044L39.4022 17.2024H42.9162H46.4302L46.475 18.2126C46.5049 18.9299 46.4601 19.2667 46.3255 19.3399C46.2208 19.4131 45.2339 19.4716 44.1573 19.4716H42.1685V20.1158V20.7453L42.8564 20.8478C43.2451 20.8918 44.0825 20.9357 44.7405 20.9357H45.9218L45.8769 22.0044L45.8321 23.0585L44.0078 23.1024L42.1685 23.1464V24.9618V26.7918H40.748H39.3274L39.3573 22.0044Z" fill="white"/>
<path d="M67.738 21.9602V17.1289H69.2035H70.6689L72.0894 19.5006L73.495 21.8577L73.5399 19.5006L73.5698 17.1289H74.9156H76.2614V21.9602V26.7915H74.781H73.3156L71.91 24.4637L70.5044 22.1213L70.4296 24.4198L70.3549 26.7183L69.0539 26.7622L67.738 26.8062V21.9602Z" fill="white"/>
<path d="M98.1977 26.689C98.1379 26.6451 98.093 24.9908 98.093 23.0436V19.486L96.6425 19.4421L95.1771 19.3982L95.1323 18.2709L95.0874 17.1289H99.5136H103.94L103.895 18.2709L103.85 19.3982L102.4 19.4421L100.934 19.486V23.1314V26.7915H99.6182C98.8855 26.7915 98.2425 26.7476 98.1977 26.689Z" fill="white"/>
<path d="M104.672 21.9602V17.1289H106.018H107.364V21.9602V26.7915H106.018H104.672V21.9602Z" fill="white"/>
<path d="M119.477 21.9604V17.1291H120.957H122.438L123.454 18.8567C124.008 19.7937 124.666 20.8624 124.89 21.2138L125.294 21.858L125.338 19.5302L125.383 17.2023L126.699 17.1584L128 17.1145V21.9604V26.7917H126.535H125.069L124.142 25.2106C123.634 24.3322 122.976 23.2634 122.692 22.8242L122.183 22.0336L122.168 24.42V26.7917H120.823H119.477V21.9604Z" fill="white"/>
<path d="M41.8241 14.5528C41.7643 14.4942 41.7194 12.8106 41.7194 10.8049V7.17407H40.2241H38.7288V6.07605V4.97803H43.14H47.5512V6.07605V7.17407H46.0558H44.5605L44.5306 10.8781L44.4858 14.5674L43.2147 14.6114C42.5119 14.626 41.8839 14.6114 41.8241 14.5528Z" fill="white"/>
<path d="M48.2541 14.5523C48.1943 14.4937 48.1494 12.3123 48.1494 9.70635V4.97753H49.57H50.9756L51.0204 6.76365L51.0653 8.56441L52.441 8.60833L53.8167 8.65225L53.8616 6.85149L53.9064 5.05073L55.2971 5.00681L56.6728 4.96289L56.6429 9.76491L56.598 14.5669H55.2522H53.9064L53.8616 12.693L53.8167 10.819L52.441 10.8629L51.0653 10.9069L50.9905 12.7369L50.9158 14.5669L49.6447 14.6109C48.9419 14.6255 48.3139 14.6109 48.2541 14.5523Z" fill="white"/>
<path d="M58.0038 14.3917C58.0038 14.2453 57.9888 12.0932 57.9888 9.58973L57.9739 5.05123L61.6673 5.00731L65.3458 4.97803V6.07605V7.15943L63.0729 7.20335L60.7851 7.24728L60.7402 7.87681L60.6954 8.4917H62.4898C63.4617 8.4917 64.3739 8.53562 64.5084 8.57954C64.8524 8.71131 64.8524 10.6145 64.5084 10.7463C64.3739 10.7902 63.4767 10.8342 62.4898 10.8342H60.7103V11.5662V12.2835L63.0729 12.3275L65.4206 12.3714V13.4694V14.5674L61.7271 14.6114C58.2729 14.6406 58.0187 14.626 58.0038 14.3917Z" fill="white"/>
<path d="M70.2355 14.5523C70.1757 14.4937 70.1309 12.3123 70.1309 9.70635V4.96289L71.5215 5.00681L72.8972 5.05073L72.9421 6.85149L72.9869 8.65225L74.3626 8.60833L75.7383 8.56441L75.7832 6.77829L75.828 4.97753H77.2336H78.6542L78.6243 9.77955L78.5794 14.5669H77.2336H75.8879L75.843 12.7076L75.7981 10.8337H74.3925H72.9869L72.9421 12.7076L72.8972 14.5669L71.6262 14.6109C70.9234 14.6255 70.2953 14.6109 70.2355 14.5523Z" fill="white"/>
<path fill-rule="evenodd" clip-rule="evenodd" d="M47.2969 24.6247C47.7604 25.5617 48.7772 26.3962 49.8389 26.7329C50.2576 26.8647 51.0352 26.9232 52.1866 26.894C53.7118 26.85 53.9959 26.8061 54.6539 26.4694C55.5959 25.9863 56.2688 25.3128 56.7025 24.3758C57.0015 23.7463 57.0464 23.4096 57.0464 21.9602C57.0464 20.4083 57.0165 20.2033 56.6277 19.442C55.7753 17.7584 54.3997 17.0557 51.9623 17.0557C49.5249 17.0703 48.2389 17.6852 47.3866 19.2224C46.8931 20.1155 46.8782 20.1594 46.8782 21.9602C46.8782 23.6731 46.9081 23.8488 47.2969 24.6247ZM49.1964 21.9897C49.1964 23.6587 49.8244 24.6396 51.1403 25.0056C51.8281 25.1959 51.858 25.1959 52.6057 25.0348C53.5029 24.8299 54.0562 24.376 54.415 23.5562C55.0132 22.2093 54.7291 20.3499 53.8169 19.5154C52.7702 18.5785 50.901 18.6809 49.9141 19.7058C49.3459 20.306 49.1964 20.8038 49.1964 21.9897Z" fill="white"/>
<path fill-rule="evenodd" clip-rule="evenodd" d="M108.68 24.3758C109.234 25.547 110.221 26.3962 111.551 26.8061C111.761 26.8647 112.673 26.9086 113.57 26.894C114.991 26.8647 115.335 26.8061 116.037 26.484C117.039 26.0302 117.682 25.4153 118.146 24.4929C118.46 23.878 118.505 23.5852 118.505 22.0334C118.505 20.5547 118.46 20.1741 118.191 19.6031C117.727 18.6368 117.024 17.9194 116.067 17.4656C115.29 17.0996 115.065 17.0557 113.57 17.0557C110.968 17.0557 109.652 17.6852 108.74 19.3835C108.366 20.0716 108.336 20.2765 108.336 21.887C108.336 23.4096 108.381 23.7463 108.68 24.3758ZM111.013 23.7608C111.342 24.405 111.895 24.8295 112.688 25.0198C113.869 25.298 115.095 24.8734 115.708 23.9657C116.082 23.4241 116.112 23.2484 116.112 21.9454C116.112 20.5838 116.097 20.496 115.648 19.9543C115.394 19.6469 114.96 19.2808 114.676 19.1491C114.063 18.827 112.747 18.7977 112.179 19.0905C110.669 19.8665 110.146 21.9747 111.013 23.7608Z" fill="white"/>
<path fill-rule="evenodd" clip-rule="evenodd" d="M77.6072 17.0996V21.9602V26.8208L80.5679 26.7622C83.2595 26.7183 83.5735 26.6744 84.2016 26.3816C85.024 25.9863 85.6819 25.3275 86.1604 24.449C86.4595 23.8634 86.5044 23.5999 86.5044 21.9602C86.5044 20.3644 86.4595 20.057 86.1754 19.5299C85.652 18.5636 85.1287 18.0512 84.2165 17.612C83.3941 17.2167 83.2894 17.2021 80.4932 17.1582L77.6072 17.0996ZM79.9696 21.7106C79.9397 23.1747 79.9547 24.5216 79.9846 24.7119C80.0294 25.0047 80.1191 25.034 80.8818 25.034C83.1098 25.034 84.2014 24.0384 84.2014 22.0181C84.2014 20.8908 84.1117 20.5687 83.6332 19.9245C83.1098 19.2657 82.4668 19.0314 81.136 19.0314H80.0145L79.9696 21.7106Z" fill="white"/>
<path fill-rule="evenodd" clip-rule="evenodd" d="M87.6708 22.5458C87.1325 24.0391 86.654 25.6056 86.6091 26.0302L86.5493 26.7915H87.9549H89.3605L89.6596 25.8838L89.9437 24.9615L91.2446 24.9175L92.5306 24.8736L92.8596 25.8399L93.1886 26.7915H94.5942H95.9998V26.2937C95.9998 26.0156 95.7007 24.9761 95.3418 23.9806C94.968 22.985 94.2652 21.0671 93.7867 19.691L92.8895 17.2021L91.2596 17.1582L89.6147 17.1143L89.1362 18.4758C89.0247 18.7851 88.8465 19.2802 88.6378 19.8604C88.3425 20.6808 87.9861 21.6711 87.6708 22.5458ZM90.0782 22.7511C90.0034 22.9268 90.1828 22.9854 91.0202 23.0293C91.5735 23.0439 92.1268 23.0878 92.2314 23.1025C92.3212 23.1171 92.4109 23.0146 92.4109 22.8829C92.4109 22.4583 91.3342 19.4717 91.2146 19.5449C91.1399 19.5888 90.8856 20.2769 90.6314 21.0821C90.3772 21.8873 90.123 22.634 90.0782 22.7511Z" fill="white"/>
<path fill-rule="evenodd" clip-rule="evenodd" d="M79.9548 14.5525C79.895 14.494 79.8501 12.3126 79.8501 9.7066V4.97778H82.9604C86.3697 4.97778 86.9379 5.09491 87.5959 5.9294C88.0594 6.50038 88.0744 8.47682 87.6108 9.20883L87.3118 9.69196L87.6557 10.058C87.9697 10.3801 87.9996 10.5557 87.9996 11.7855C87.9996 13.352 87.8052 13.7473 86.7884 14.2597C86.265 14.5379 85.8912 14.5672 83.1398 14.6111C81.4501 14.6404 80.0146 14.6111 79.9548 14.5525ZM82.3028 12.7514C82.2729 12.7222 82.243 12.1658 82.243 11.5363V10.3944H83.4243C84.8748 10.3944 85.458 10.5847 85.6823 11.1117C85.8767 11.5802 85.757 12.1951 85.4281 12.4733C85.2038 12.649 82.4524 12.8978 82.3028 12.7514ZM82.3177 6.80756L82.2729 7.9495L82.228 9.07681H83.4392C84.8149 9.07681 85.4729 8.82792 85.6224 8.27159C85.8916 7.20285 85.1588 6.69044 83.3944 6.76364L82.3177 6.80756Z" fill="white"/>
<path fill-rule="evenodd" clip-rule="evenodd" d="M89.7645 9.29618C88.3589 13.2198 88.0598 14.2885 88.329 14.5374C88.5084 14.7277 90.871 14.6545 91.0205 14.4642C91.1103 14.3617 91.2897 13.9372 91.4243 13.5126C91.6785 12.7806 91.7084 12.7513 92.3514 12.6488C92.7103 12.6049 93.2934 12.6049 93.6523 12.6488C94.2654 12.7513 94.2803 12.7659 94.5794 13.659L94.8934 14.5667L96.2691 14.6106L97.6448 14.6545V14.0836C97.6448 13.7615 97.3458 12.6927 96.9869 11.6972C96.6131 10.7016 95.9252 8.76913 95.4617 7.42222L94.6243 4.96265L92.9495 5.00657L91.2897 5.05049L89.7645 9.29618ZM92.7399 7.7292C92.4109 8.54905 91.8128 10.4377 91.8128 10.628C91.8128 10.789 92.0969 10.8329 93.024 10.8329C93.9361 10.8329 94.2202 10.789 94.1604 10.6573C94.1305 10.5548 93.8763 9.7642 93.5922 8.90042C93.3231 8.022 93.0539 7.31927 92.9941 7.31927C92.9343 7.31927 92.8296 7.49495 92.7399 7.7292Z" fill="white"/>
<path fill-rule="evenodd" clip-rule="evenodd" d="M98.3926 9.7066C98.3926 12.3126 98.4374 14.494 98.4973 14.5379C98.5421 14.5965 99.1552 14.6404 99.843 14.6404H101.084V12.9568C101.084 11.2878 101.084 11.2731 101.428 11.2731C101.712 11.2731 101.907 11.5074 102.475 12.4883C102.849 13.1471 103.267 13.9084 103.402 14.1719L103.641 14.6404H105.062H106.467V14.0548C106.467 13.6156 106.288 13.1617 105.794 12.3272C105.421 11.7123 105.122 11.156 105.122 11.0828C105.122 11.0242 105.361 10.7607 105.66 10.4972C105.974 10.2483 106.303 9.82373 106.408 9.5602C106.722 8.84282 106.677 7.12991 106.333 6.47109C105.645 5.15347 105.092 4.99242 101.353 4.97778H98.3926V9.7066ZM100.71 6.80667L100.666 8.09502L100.621 9.36872H102.026C103.223 9.36872 103.492 9.3248 103.836 9.06128C104.389 8.63671 104.389 7.67045 103.836 7.15804C103.492 6.85059 103.327 6.80667 102.086 6.80667H100.71Z" fill="white"/>
</svg>
