<svg width="114" height="28" viewBox="0 0 114 28" fill="none" xmlns="http://www.w3.org/2000/svg">
<path d="M85.0157 27.1998C84.9438 27.106 84.922 27.0404 84.9126 26.8873C84.897 26.6467 84.9345 26.5685 85.222 26.2654C85.4188 26.0592 85.8438 25.6873 85.8813 25.6873C85.8907 25.6873 85.9688 25.6217 86.0563 25.5404C86.1438 25.456 86.3001 25.3123 86.4032 25.2185C86.5063 25.1248 86.5907 25.0342 86.5938 25.0185C86.5938 25.0029 86.6876 24.8935 86.8063 24.7748C87.0376 24.5404 87.1251 24.4404 87.497 23.9967C87.6376 23.831 87.7501 23.681 87.7501 23.6623C87.7501 23.6467 87.772 23.6248 87.797 23.6123C87.8251 23.6029 87.8563 23.5685 87.8688 23.5373C87.8813 23.5029 87.9282 23.431 87.9751 23.3717C88.1751 23.1185 88.3438 22.8779 88.3438 22.8498C88.3438 22.8342 88.3782 22.7873 88.422 22.7467C88.4626 22.706 88.5001 22.6592 88.5001 22.6435C88.5001 22.6279 88.5563 22.5342 88.6251 22.4342C88.6938 22.3342 88.7501 22.2404 88.7501 22.2248C88.7501 22.2123 88.8001 22.1279 88.8595 22.0404C88.9188 21.9529 88.9907 21.8217 89.0188 21.7529C89.047 21.681 89.0782 21.6248 89.0907 21.6248C89.1032 21.6248 89.147 21.5498 89.1907 21.4623C89.2313 21.3717 89.2751 21.2904 89.2845 21.281C89.2938 21.2717 89.3438 21.1748 89.3938 21.0623C89.4407 20.9498 89.4907 20.8529 89.5032 20.8435C89.5313 20.8217 89.6563 20.531 89.6563 20.481C89.6563 20.4592 89.6751 20.4217 89.7001 20.3998C89.722 20.3748 89.7782 20.256 89.822 20.1373C89.8657 20.0185 89.9282 19.8654 89.9626 19.7967C89.9938 19.7279 90.0407 19.606 90.0626 19.5248C90.0845 19.4404 90.1126 19.3748 90.1282 19.3748C90.1438 19.3748 90.147 19.3529 90.1376 19.3279C90.1251 19.3029 90.1313 19.281 90.147 19.281C90.1626 19.281 90.2095 19.156 90.2501 18.9998C90.2907 18.8467 90.3376 18.7185 90.3532 18.7185C90.3688 18.7185 90.3751 18.6904 90.3657 18.656C90.3563 18.6217 90.3595 18.5873 90.3751 18.5779C90.3876 18.5685 90.4313 18.4248 90.4688 18.2592C90.5095 18.0904 90.5501 17.9404 90.5626 17.9217C90.5907 17.8873 90.7501 17.0779 90.7501 16.9748C90.7501 16.9404 90.7626 16.906 90.7751 16.8998C90.8095 16.8873 90.9313 15.906 90.9563 15.431C90.9688 15.2279 90.9907 15.0623 91.0063 15.0623C91.0407 15.0623 91.0407 13.0717 91.0063 13.0498C90.9907 13.0404 90.9688 12.856 90.9563 12.6373C90.9282 12.0623 90.8126 11.0185 90.7782 11.006C90.7626 10.9998 90.7501 10.9623 90.7501 10.9248C90.7501 10.7998 90.5938 9.89667 90.5657 9.86229C90.5407 9.83417 90.4845 9.58729 90.4157 9.20917C90.4063 9.16229 90.3876 9.12479 90.372 9.12479C90.3563 9.12479 90.3532 9.10292 90.3626 9.07792C90.3751 9.05292 90.3688 9.01229 90.3501 8.99042C90.3345 8.97167 90.2876 8.83417 90.2501 8.68729C90.2126 8.54354 90.1688 8.40604 90.1501 8.38417C90.1313 8.36229 90.1282 8.34354 90.1407 8.34354C90.1532 8.34354 90.1501 8.32479 90.1313 8.30292C90.1157 8.28417 90.0688 8.15292 90.0313 8.01542C89.9938 7.88104 89.9438 7.74042 89.922 7.70292C89.9001 7.66854 89.847 7.54354 89.8095 7.42167C89.7688 7.30292 89.7188 7.18417 89.697 7.16229C89.6751 7.14042 89.6563 7.10292 89.6563 7.08104C89.6563 6.97792 88.9438 5.53417 88.8563 5.45292C88.8376 5.43729 88.7876 5.35292 88.747 5.26542C88.7063 5.18104 88.6595 5.10292 88.647 5.09979C88.6345 5.09354 88.5876 5.01854 88.547 4.93417C88.5032 4.84979 88.4532 4.78104 88.4376 4.78104C88.4188 4.78104 88.4063 4.76542 88.4063 4.74979C88.4063 4.71229 88.2595 4.47792 88.1782 4.39042C88.147 4.35604 88.1001 4.28104 88.072 4.22479C88.0438 4.16854 87.997 4.10917 87.9657 4.09042C87.9313 4.07479 87.9063 4.04354 87.9063 4.02479C87.9063 3.99354 87.7657 3.80604 87.5532 3.55917C87.5157 3.51229 87.4345 3.41542 87.3751 3.34042C87.3157 3.26542 87.2282 3.16542 87.1813 3.12167C87.1313 3.07479 87.0938 3.02167 87.0938 3.00604C87.0938 2.99042 87.047 2.93417 86.9938 2.88417C86.9376 2.83417 86.8282 2.72167 86.7532 2.63104C86.6813 2.54042 86.4063 2.27167 86.1438 2.03104C85.8845 1.79354 85.6282 1.55292 85.572 1.49979C85.5188 1.44979 85.4626 1.40604 85.447 1.40604C85.4345 1.40604 85.3095 1.28729 85.1688 1.14042C84.9751 0.937291 84.9063 0.843541 84.8751 0.731041C84.747 0.277916 85.122 0.0966659 85.7563 0.302916C85.9001 0.349791 86.022 0.396666 86.0313 0.409166C86.047 0.427916 86.297 0.493541 86.6407 0.565416C86.7438 0.587291 86.8345 0.615416 86.8438 0.624791C86.8657 0.652916 87.1501 0.709166 87.4688 0.749791C87.6157 0.768541 87.7626 0.796666 87.797 0.812291C87.8688 0.843541 88.6001 0.918541 89.3626 0.974791C89.6532 0.993541 89.897 1.01854 89.9063 1.03104C89.9157 1.04042 90.2532 1.07479 90.6595 1.10292C91.4813 1.16542 91.9751 1.21854 92.0001 1.24979C92.0095 1.26229 92.0938 1.28104 92.1876 1.29354C92.522 1.33417 93.0938 1.44979 93.0938 1.47479C93.0938 1.48729 93.1126 1.49979 93.1376 1.49979C93.2095 1.49979 93.7313 1.65917 93.7501 1.68417C93.7595 1.69667 93.8376 1.73417 93.9251 1.76229C94.0126 1.79042 94.1595 1.86229 94.2532 1.92167C94.347 1.98104 94.4345 2.03104 94.4501 2.03104C94.4782 2.03104 94.6376 2.15292 94.7845 2.29042C94.8376 2.33729 94.8907 2.37479 94.9032 2.37479C94.9345 2.37479 95.2501 2.69979 95.2501 2.73417C95.2501 2.75292 95.2782 2.78417 95.3126 2.80292C95.347 2.82479 95.397 2.88729 95.4251 2.94354C95.4532 2.99979 95.497 3.05917 95.5188 3.07167C95.5438 3.08417 95.5626 3.10917 95.5626 3.12479C95.5626 3.14042 95.622 3.24979 95.697 3.36542C95.8345 3.59042 95.9876 3.89042 96.0813 4.12479C96.1126 4.20292 96.147 4.27167 96.1595 4.28104C96.172 4.29042 96.2126 4.39667 96.2532 4.51542C96.2938 4.63729 96.3376 4.74354 96.3532 4.75292C96.3657 4.76229 96.3751 4.78417 96.372 4.79979C96.3657 4.81542 96.3845 4.87792 96.4126 4.93729C96.4376 4.99667 96.4782 5.12167 96.5001 5.21229C96.5251 5.29979 96.5532 5.37479 96.5657 5.37479C96.5782 5.37479 96.597 5.42167 96.6095 5.47479C96.647 5.65292 96.7563 6.04354 96.797 6.14042C96.8188 6.19354 96.8688 6.37479 96.9095 6.54667C96.9501 6.71854 96.9907 6.86542 97.0001 6.87479C97.0095 6.88417 97.0595 7.05917 97.1063 7.26542C97.1563 7.47167 97.2063 7.65604 97.2188 7.67167C97.2313 7.69042 97.2782 7.86542 97.3251 8.06229C97.3688 8.25917 97.422 8.44979 97.4376 8.48417C97.472 8.55604 97.6251 9.19354 97.6251 9.26542C97.6251 9.29042 97.6376 9.31229 97.6501 9.31229C97.6626 9.31229 97.7095 9.49042 97.7501 9.71229C97.7907 9.93104 97.8376 10.1185 97.8532 10.1279C97.872 10.1404 97.8751 10.1717 97.8657 10.1967C97.8563 10.2217 97.8595 10.2529 97.8751 10.2685C97.8876 10.2842 97.9313 10.4998 97.972 10.7498C98.0095 10.9998 98.0532 11.2092 98.0657 11.2185C98.1095 11.2529 98.2501 12.606 98.2501 13.0248C98.2501 13.2092 98.2626 13.281 98.2907 13.281C98.3157 13.281 98.3126 13.2935 98.2813 13.3123C98.2501 13.331 98.247 13.3435 98.2751 13.3435C98.3032 13.3435 98.3126 13.4498 98.3126 13.7654C98.3126 14.081 98.3032 14.1873 98.2751 14.1873C98.247 14.1873 98.2501 14.1998 98.2813 14.2185C98.3126 14.2373 98.3157 14.2498 98.2907 14.2498C98.2626 14.2498 98.2501 14.3185 98.2501 14.4935C98.2501 14.8779 98.1063 16.3154 98.0657 16.3435C98.0532 16.3529 98.0126 16.5685 97.972 16.8279C97.9345 17.0842 97.8907 17.3092 97.8813 17.3279C97.8688 17.3435 97.8657 17.3842 97.872 17.4185C97.8751 17.4498 97.8688 17.4873 97.8532 17.4967C97.8376 17.506 97.7907 17.6967 97.7532 17.9217C97.7157 18.1435 97.672 18.3342 97.6595 18.3435C97.647 18.3529 97.597 18.556 97.5501 18.7967C97.5032 19.0373 97.4532 19.2467 97.4376 19.2654C97.4251 19.281 97.4032 19.3467 97.3907 19.406C97.3313 19.706 97.2376 20.081 97.2188 20.1092C97.2063 20.1279 97.1845 20.1904 97.172 20.2498C97.1188 20.5217 97.0251 20.8904 97.0063 20.906C96.9938 20.9154 96.9438 21.0904 96.8938 21.2967C96.8407 21.5029 96.7907 21.6779 96.7782 21.6873C96.7657 21.6967 96.7251 21.8154 96.6876 21.9529C96.6501 22.0904 96.6001 22.2373 96.5751 22.281C96.5501 22.3248 96.4938 22.4717 96.4501 22.6092C96.4063 22.7467 96.3563 22.8748 96.3438 22.8904C96.3282 22.9092 96.2876 23.0029 96.2501 23.1029C96.2126 23.1998 96.1688 23.281 96.1532 23.281C96.1376 23.281 96.1251 23.3029 96.1251 23.3279C96.1251 23.3935 95.9782 23.7185 95.947 23.7185C95.9313 23.7185 95.8938 23.7873 95.8626 23.8717C95.8345 23.9529 95.7845 24.0498 95.7563 24.0842C95.6876 24.1592 95.5938 24.3123 95.572 24.3842C95.5626 24.4123 95.5438 24.4373 95.5313 24.4373C95.5188 24.4373 95.4688 24.4967 95.422 24.5717C95.3157 24.731 95.2907 24.7592 94.9751 25.0779C94.7032 25.3529 94.5532 25.481 94.4157 25.5529C94.3688 25.5779 94.3063 25.6154 94.2813 25.6404C94.1282 25.7748 93.3501 26.0623 93.1345 26.0623C93.0938 26.0623 93.0626 26.0748 93.0626 26.0873C93.0626 26.1248 92.422 26.2123 91.8438 26.256C91.5782 26.2748 91.3532 26.3029 91.3438 26.3123C91.3345 26.3248 91.1751 26.3435 90.9845 26.356C90.422 26.3904 89.3938 26.4998 89.3282 26.531C89.2938 26.5467 89.097 26.581 88.8907 26.6092C88.2345 26.6904 87.9845 26.7279 87.9688 26.7498C87.9595 26.7592 87.7501 26.7998 87.5001 26.8404C87.2501 26.881 87.0345 26.9248 87.0157 26.9373C87.0001 26.9498 86.7813 26.9998 86.5313 27.0467C86.2813 27.0967 86.072 27.1467 86.0626 27.156C86.0345 27.1967 85.5845 27.2904 85.3407 27.3029L85.1032 27.3154L85.0157 27.1998Z" fill="black" fill-opacity="0.6"/>
<path d="M112.781 27.2999C112.772 27.2905 112.65 27.2593 112.515 27.2312C112.378 27.1999 112.259 27.1655 112.25 27.1562C112.24 27.1437 112.031 27.0937 111.781 27.0468C111.531 26.9999 111.312 26.9468 111.294 26.9312C111.275 26.9187 111.062 26.8749 110.825 26.8374C110.587 26.7999 110.384 26.7593 110.375 26.7499C110.365 26.7374 110.065 26.6905 109.703 26.6437C109.344 26.5937 109.019 26.5437 108.984 26.5312C108.9 26.4937 108.459 26.453 107.5 26.3874C107.062 26.3593 106.697 26.3249 106.687 26.3124C106.678 26.2999 106.531 26.2812 106.359 26.2687C105.987 26.2437 105.237 26.1249 105.225 26.0874C105.219 26.0749 105.187 26.0624 105.156 26.0624C105.084 26.0624 104.615 25.9093 104.594 25.878C104.584 25.8655 104.5 25.8155 104.406 25.7687C104.147 25.6405 104.034 25.5749 103.909 25.478C103.74 25.3468 103.031 24.6343 103.031 24.5968C103.031 24.578 103.003 24.5312 102.965 24.4937C102.872 24.3905 102.687 24.103 102.637 23.9812C102.612 23.9218 102.581 23.8749 102.565 23.8749C102.553 23.8749 102.5 23.778 102.453 23.6562C102.406 23.5374 102.356 23.4374 102.344 23.4374C102.331 23.4374 102.287 23.3499 102.25 23.2437C102.209 23.1343 102.14 22.9624 102.094 22.8593C102.047 22.7562 101.997 22.6249 101.984 22.5655C101.972 22.5062 101.944 22.4405 101.925 22.4187C101.903 22.3999 101.853 22.2655 101.815 22.1218C101.775 21.978 101.734 21.8468 101.719 21.828C101.706 21.8124 101.656 21.6343 101.606 21.4374C101.556 21.2405 101.503 21.0687 101.487 21.0593C101.472 21.0468 101.469 21.0155 101.478 20.9905C101.487 20.9655 101.481 20.9312 101.469 20.9187C101.453 20.903 101.409 20.7437 101.372 20.5624C101.334 20.3812 101.29 20.228 101.281 20.2187C101.269 20.2093 101.219 20.0062 101.172 19.7655C101.125 19.5249 101.075 19.3155 101.062 19.2968C101.034 19.2624 100.875 18.503 100.875 18.4062C100.875 18.3749 100.862 18.3437 100.85 18.3374C100.834 18.3343 100.784 18.0968 100.737 17.8124C100.69 17.528 100.64 17.2687 100.625 17.2343C100.594 17.1655 100.515 16.5687 100.484 16.1874C100.472 16.0593 100.456 15.9312 100.447 15.9062C100.437 15.8812 100.431 15.7999 100.434 15.7249C100.44 15.6499 100.428 15.5749 100.412 15.553C100.312 15.4249 100.303 12.2312 100.403 12.0155C100.419 11.9812 100.44 11.828 100.453 11.6718C100.481 11.2249 100.594 10.3655 100.631 10.2905C100.65 10.253 100.656 10.1937 100.647 10.1593C100.637 10.1249 100.64 10.0937 100.653 10.0874C100.665 10.0812 100.706 9.88741 100.744 9.65616C100.784 9.42491 100.828 9.20616 100.844 9.17179C100.859 9.13741 100.909 8.91241 100.956 8.67179C101 8.43116 101.05 8.22804 101.059 8.21866C101.072 8.20929 101.122 8.02804 101.172 7.81241C101.219 7.59679 101.272 7.39991 101.284 7.37491C101.3 7.34991 101.347 7.16554 101.394 6.96866C101.44 6.77179 101.487 6.59679 101.503 6.57804C101.515 6.56241 101.556 6.42179 101.594 6.26554C101.631 6.11241 101.675 5.96866 101.69 5.94991C101.706 5.93116 101.709 5.90616 101.697 5.89366C101.684 5.88116 101.687 5.86241 101.706 5.84991C101.722 5.83741 101.769 5.71554 101.809 5.57804C101.85 5.44054 101.894 5.31241 101.912 5.29054C101.928 5.26866 101.934 5.24054 101.925 5.22179C101.915 5.20616 101.915 5.18741 101.931 5.18116C101.944 5.17804 101.987 5.06866 102.028 4.94679C102.069 4.82179 102.109 4.71866 102.122 4.71866C102.134 4.71866 102.162 4.65304 102.184 4.57179C102.209 4.48741 102.265 4.34366 102.312 4.24991C102.547 3.77179 102.744 3.40304 102.797 3.34366C102.819 3.31866 102.865 3.24366 102.903 3.18116C102.969 3.06241 103 3.01866 103.159 2.84366C103.209 2.79054 103.25 2.73429 103.25 2.72179C103.25 2.69679 103.737 2.22179 103.925 2.07179C103.99 2.01554 104.062 1.96866 104.084 1.96866C104.106 1.96866 104.134 1.94991 104.147 1.92804C104.159 1.90929 104.256 1.84991 104.359 1.79679C104.462 1.74679 104.553 1.69679 104.562 1.68741C104.587 1.66241 104.778 1.59366 104.969 1.53741C105.062 1.50929 105.15 1.47491 105.159 1.46241C105.178 1.43429 106.05 1.28116 106.19 1.28116C106.24 1.28116 106.281 1.26866 106.281 1.25304C106.281 1.22804 106.409 1.21554 107.587 1.14054C108.675 1.07179 108.844 1.05616 108.844 1.02804C108.844 1.01241 108.887 0.999911 108.937 0.999911C109.094 0.999911 110.165 0.843661 110.234 0.812411C110.269 0.796786 110.469 0.753036 110.681 0.718661C110.894 0.684286 111.09 0.640536 111.119 0.628036C111.169 0.599911 111.625 0.499911 111.922 0.449911C111.99 0.437411 112.053 0.418661 112.062 0.406161C112.072 0.396786 112.253 0.349911 112.469 0.303036C112.903 0.209286 113.547 0.184286 113.619 0.256161C113.662 0.299911 113.672 0.906161 113.628 0.906161C113.612 0.906161 113.581 0.956161 113.559 1.01554C113.537 1.07491 113.509 1.12491 113.5 1.12491C113.478 1.12491 113.209 1.32804 112.906 1.57179C112.847 1.62179 112.744 1.70616 112.675 1.75929C112.609 1.81554 112.3 2.11554 111.987 2.42491C111.412 2.99991 111.278 3.14991 110.962 3.53741C110.915 3.59366 110.812 3.71866 110.734 3.81554C110.656 3.91241 110.594 4.00616 110.594 4.02491C110.594 4.04366 110.553 4.09679 110.5 4.14679C110.45 4.19366 110.406 4.24991 110.406 4.26866C110.406 4.28741 110.375 4.33741 110.337 4.38116C110.262 4.46241 110.206 4.55304 110.131 4.69366C110.109 4.74366 110.078 4.78116 110.062 4.78116C110.05 4.78116 110.012 4.83429 109.984 4.89991C109.953 4.96241 109.89 5.07179 109.844 5.14054C109.797 5.20929 109.75 5.29366 109.737 5.33116C109.728 5.36554 109.694 5.42179 109.662 5.45616C109.634 5.48741 109.569 5.59991 109.519 5.70304C109.469 5.80616 109.419 5.89679 109.406 5.90616C109.397 5.91554 109.353 6.00304 109.312 6.10304C109.272 6.19991 109.228 6.28116 109.219 6.28116C109.206 6.28116 109.156 6.38429 109.106 6.50616C109.059 6.63116 109.009 6.74054 109 6.74991C108.978 6.76866 108.884 6.99054 108.859 7.08429C108.847 7.12491 108.822 7.17491 108.803 7.19366C108.781 7.21554 108.722 7.36241 108.672 7.51554C108.619 7.67179 108.569 7.80304 108.556 7.81554C108.544 7.82491 108.494 7.96554 108.447 8.12804C108.403 8.28741 108.353 8.42804 108.344 8.43741C108.331 8.44679 108.281 8.60929 108.234 8.79679C108.187 8.98741 108.14 9.14679 108.128 9.15616C108.115 9.16554 108.069 9.36241 108.022 9.59366C107.972 9.82491 107.922 10.0437 107.906 10.078C107.875 10.1468 107.75 10.8718 107.75 10.9874C107.75 11.028 107.737 11.0624 107.725 11.0624C107.69 11.0624 107.6 11.953 107.559 12.7187C107.519 13.4249 107.54 14.6749 107.609 15.453C107.669 16.1499 107.694 16.3562 107.719 16.3749C107.728 16.3843 107.772 16.6155 107.809 16.8905C107.85 17.1655 107.89 17.3968 107.903 17.4062C107.915 17.4155 107.962 17.6249 108.012 17.8749C108.059 18.1249 108.109 18.3437 108.125 18.3593C108.137 18.378 108.187 18.5468 108.234 18.7343C108.281 18.9249 108.331 19.0843 108.34 19.0937C108.353 19.103 108.403 19.2499 108.453 19.4218C108.503 19.5937 108.553 19.7405 108.565 19.7499C108.578 19.7593 108.625 19.878 108.672 20.0124C108.719 20.1499 108.772 20.2874 108.794 20.3249C108.815 20.3624 108.869 20.4812 108.906 20.5937C108.947 20.7062 108.99 20.803 109.003 20.8124C109.015 20.8218 109.062 20.9187 109.109 21.0312C109.156 21.1437 109.206 21.2405 109.219 21.2499C109.231 21.2593 109.275 21.3437 109.315 21.4374C109.356 21.5312 109.406 21.628 109.425 21.6499C109.447 21.6687 109.475 21.7187 109.487 21.7593C109.5 21.7968 109.556 21.903 109.612 21.9905C109.672 22.0812 109.74 22.203 109.765 22.2562C109.819 22.3687 110 22.6655 110.078 22.7655C110.134 22.8374 110.375 23.1968 110.422 23.278C110.44 23.3062 110.49 23.3718 110.54 23.4218C110.587 23.4749 110.625 23.5312 110.625 23.553C110.625 23.5749 110.653 23.6093 110.687 23.6312C110.722 23.653 110.75 23.6843 110.75 23.6968C110.75 23.728 111.112 24.178 111.344 24.4405C111.797 24.9499 112.415 25.5937 112.45 25.5937C112.465 25.5937 112.556 25.678 112.656 25.7812C112.756 25.8843 112.85 25.9687 112.865 25.9687C112.881 25.9687 112.937 26.0155 112.99 26.0718C113.081 26.1687 113.147 26.2249 113.494 26.5062L113.662 26.6405L113.65 26.9124C113.637 27.2874 113.628 27.2937 113.162 27.3062C112.962 27.3124 112.787 27.3093 112.781 27.2999Z" fill="black" fill-opacity="0.6"/>
<path d="M68.9688 26.9281C68.9688 26.9062 68.9969 26.8125 69.0344 26.7188C69.0719 26.625 69.1063 26.5156 69.1156 26.4781C69.125 26.4375 69.1438 26.4062 69.1562 26.4062C69.1688 26.4062 69.2188 26.3 69.2656 26.1719C69.3125 26.0438 69.3656 25.9375 69.3781 25.9375C69.3938 25.9375 69.4062 25.9188 69.4062 25.8938C69.4062 25.8469 69.4906 25.6406 69.6094 25.3906C69.65 25.3062 69.725 25.1438 69.775 25.0312C69.825 24.9188 69.8969 24.7594 69.9375 24.6719C69.9781 24.5875 70.0094 24.5063 70.0062 24.4937C70.0031 24.4781 70.0156 24.4688 70.0312 24.4688C70.0469 24.4688 70.0625 24.4469 70.0625 24.4219C70.0625 24.3656 70.1906 24.0875 70.2313 24.0594C70.2469 24.0469 70.2469 24.0219 70.2375 24.0031C70.225 23.9844 70.2281 23.9688 70.2406 23.9688C70.2562 23.9688 70.3 23.8813 70.3438 23.775C70.3844 23.6656 70.4281 23.5719 70.4375 23.5625C70.4469 23.5531 70.4875 23.4688 70.5281 23.375C70.6094 23.1844 70.7406 22.8969 70.9688 22.4219C71.1656 22.0063 71.2781 21.7531 71.2781 21.7281C71.275 21.7188 71.2906 21.7 71.3094 21.6906C71.3344 21.675 71.325 21.6281 71.2844 21.5437C71.2531 21.4781 71.2031 21.3469 71.1688 21.2594C71.1375 21.1687 71.1 21.0938 71.0875 21.0938C71.075 21.0938 71.0625 21.0719 71.0625 21.0469C71.0625 21 71.0156 20.8813 70.8719 20.575C70.825 20.4719 70.7625 20.3188 70.7313 20.2312C70.7031 20.1469 70.6688 20.0719 70.6562 20.0625C70.6438 20.0531 70.5938 19.9375 70.5469 19.8063C70.5 19.6719 70.4469 19.5625 70.4344 19.5625C70.4188 19.5625 70.4062 19.5469 70.4062 19.525C70.4062 19.4781 70.2531 19.0906 70.2156 19.0437C70.2 19.025 70.1656 18.95 70.1406 18.875C70.1125 18.8 70.0594 18.6656 70.0188 18.5781C69.9781 18.4938 69.9188 18.3594 69.8875 18.2812C69.8563 18.2031 69.8219 18.1344 69.8094 18.125C69.8 18.1156 69.7531 18 69.7031 17.8688C69.6562 17.7344 69.6031 17.625 69.5906 17.625C69.575 17.625 69.5625 17.6094 69.5625 17.5875C69.5625 17.5406 69.4094 17.1625 69.3594 17.0781C69.3375 17.0437 69.2875 16.9219 69.25 16.8063C69.2094 16.6875 69.1688 16.5938 69.1562 16.5938C69.1438 16.5938 69.1031 16.5063 69.0625 16.4C69.025 16.2906 68.9625 16.1344 68.9219 16.0469C68.7094 15.5969 68.6313 15.4094 68.5938 15.2969C68.5719 15.2281 68.5438 15.1656 68.5312 15.1562C68.5031 15.1375 68.3438 14.7438 68.3438 14.6937C68.3438 14.6719 68.3312 14.6562 68.3156 14.6562C68.3031 14.6562 68.25 14.5469 68.2 14.4156C68.1531 14.2812 68.0875 14.1312 68.0594 14.0781C68.0281 14.0281 67.9813 13.9156 67.95 13.8281C67.9219 13.7438 67.8875 13.6656 67.875 13.6562C67.8625 13.6469 67.8125 13.5312 67.7656 13.4C67.7188 13.2656 67.6656 13.1562 67.6531 13.1562C67.6375 13.1562 67.625 13.1344 67.625 13.1094C67.625 13.0656 67.5719 12.9375 67.4188 12.6094C67.3781 12.5219 67.3438 12.4406 67.3438 12.4281C67.3438 12.4125 67.3031 12.3156 67.2531 12.2094C67.1094 11.9031 67.0625 11.7812 67.0625 11.7344C67.0625 11.7094 67.05 11.6875 67.0344 11.6875C67.0219 11.6875 66.9688 11.5781 66.9188 11.4469C66.8719 11.3125 66.8094 11.1625 66.7781 11.1094C66.75 11.0594 66.7 10.9375 66.6688 10.8438C66.6375 10.75 66.6 10.6625 66.5844 10.6531C66.5625 10.6375 66.4531 10.3688 66.4156 10.2344C66.4031 10.2 66.3844 10.1656 66.3687 10.1531C66.3563 10.1437 66.3062 10.0312 66.2625 9.90313C66.2188 9.77813 66.1688 9.65937 66.1562 9.64062C66.1406 9.625 66.0938 9.5125 66.05 9.39375C66.0031 9.275 65.9563 9.1625 65.9406 9.14375C65.925 9.125 65.8813 9.01875 65.8406 8.90625C65.8031 8.79375 65.7625 8.69687 65.7469 8.6875C65.7344 8.67813 65.6938 8.58125 65.6531 8.46875C65.6156 8.35625 65.5688 8.2375 65.5531 8.20312C65.5344 8.16875 65.5156 8.13437 65.5156 8.125C65.5125 8.11563 65.4938 8.06875 65.4719 8.01562C65.45 7.96562 65.4125 7.875 65.3875 7.81875C65.3625 7.7625 65.3438 7.69688 65.3438 7.67188C65.3438 7.64688 65.3313 7.625 65.3156 7.625C65.2906 7.625 65.2313 7.475 65.1531 7.22813C65.1375 7.17188 65.1094 7.125 65.0938 7.125C65.075 7.125 65.0625 7.10938 65.0625 7.09375C65.0625 7.07188 65.7937 7.06563 67.2375 7.06875L69.4125 7.07812L69.4906 7.29688C69.5344 7.41875 69.5813 7.52187 69.5906 7.53125C69.6031 7.54063 69.6438 7.6375 69.6844 7.75C69.725 7.8625 69.7875 8.025 69.8281 8.10938C69.9469 8.37188 70 8.5 70 8.53438C70 8.55313 70.0188 8.58438 70.0406 8.60938C70.0656 8.63125 70.1156 8.74688 70.1562 8.86563C70.1937 8.98125 70.2375 9.08438 70.25 9.09375C70.2625 9.10313 70.3031 9.19375 70.3406 9.29375C70.3781 9.39688 70.4188 9.49375 70.4313 9.5125C70.4437 9.53125 70.4531 9.55313 70.4563 9.5625C70.4563 9.58125 70.5312 9.74375 70.6562 10.0156C70.7063 10.1188 70.7688 10.275 70.8 10.3594C70.8313 10.4469 70.875 10.5344 70.8969 10.5563C70.9188 10.5781 70.9375 10.6156 70.9375 10.6375C70.9375 10.6781 71.0125 10.8656 71.125 11.1094C71.2969 11.4813 71.3781 11.6656 71.4406 11.8313C71.4781 11.9313 71.5188 12.0219 71.5344 12.0312C71.5563 12.0469 71.6312 12.2375 71.6906 12.4313C71.7094 12.4844 71.7313 12.5312 71.7438 12.5312C71.7594 12.5312 71.7938 12.6063 71.825 12.6969C71.8594 12.7844 71.9 12.8875 71.9188 12.9219C71.9344 12.9563 71.9531 12.9906 71.9531 13C71.9594 13.0188 72.0469 13.2156 72.1594 13.4531C72.2063 13.5563 72.2688 13.7156 72.3 13.8063C72.3281 13.8938 72.3625 13.9688 72.3781 13.9688C72.3906 13.9688 72.4156 14.0156 72.4344 14.0719C72.4906 14.2562 72.5625 14.4406 72.6063 14.5094C72.6312 14.5469 72.6813 14.6688 72.7219 14.7812C72.7625 14.8938 72.8031 14.9906 72.8156 15C72.8281 15.0094 72.875 15.1219 72.9188 15.2469C72.9625 15.375 73.0094 15.4875 73.025 15.4969C73.05 15.5156 73.0969 15.6406 73.1813 15.8906C73.2094 15.9781 73.25 16.0625 73.2688 16.0844C73.2906 16.1062 73.3313 16.2031 73.3625 16.3031C73.3938 16.4031 73.4375 16.5031 73.4594 16.525C73.4812 16.5469 73.5 16.5906 73.5 16.6219C73.5 16.65 73.5188 16.7 73.5406 16.7312C73.5844 16.7906 73.5719 16.8094 74.4719 15.0312C74.5875 14.8 74.6969 14.5969 74.7094 14.5781C74.725 14.5625 74.7625 14.4844 74.7937 14.4062C74.825 14.3281 75.0156 13.9344 75.2156 13.5312C75.4125 13.1281 75.5781 12.7906 75.5781 12.7812C75.5781 12.7719 75.6656 12.5875 75.775 12.3688C75.8813 12.1531 75.9688 11.9531 75.9688 11.925C75.9688 11.8969 75.9844 11.875 76.0031 11.875C76.0188 11.875 76.0281 11.8625 76.0188 11.8469C76.0063 11.8313 76.0094 11.8125 76.0219 11.8063C76.0375 11.8031 76.0813 11.7188 76.125 11.625C76.1687 11.5312 76.2125 11.4469 76.225 11.4375C76.2375 11.4281 76.2844 11.3219 76.3281 11.2031C76.375 11.0813 76.4219 10.9781 76.4313 10.9688C76.4656 10.9438 76.5938 10.6594 76.5938 10.6094C76.5938 10.5875 76.6125 10.5469 76.6344 10.525C76.6562 10.5031 76.7156 10.3906 76.7625 10.275C76.8125 10.1562 76.8656 10.0625 76.8813 10.0625C76.8938 10.0625 76.9062 10.0406 76.9062 10.0125C76.9062 9.95625 76.9438 9.87188 77.4844 8.73438C77.5406 8.61563 77.6125 8.45312 77.6438 8.375C77.675 8.29688 77.7125 8.22812 77.7219 8.21875C77.7344 8.20938 77.7812 8.10625 77.8281 7.98438C77.8719 7.86563 77.9187 7.75938 77.9344 7.75C77.9469 7.74063 77.9969 7.63125 78.0437 7.50938C78.0906 7.38438 78.1406 7.28125 78.1531 7.28125C78.1656 7.28125 78.1938 7.23125 78.2156 7.17188L78.2531 7.0625H80.4094C81.5938 7.0625 82.5625 7.06875 82.5625 7.07812C82.5625 7.10938 82.45 7.33125 82.4156 7.36875C82.3938 7.39062 82.375 7.42812 82.375 7.45C82.375 7.50625 82.2469 7.79063 82.2156 7.8125C82.2 7.82188 82.1531 7.92813 82.1094 8.04688C82.0688 8.16562 82.0219 8.26875 82.0063 8.27813C81.9906 8.2875 81.9469 8.37813 81.9062 8.47812C81.8656 8.575 81.8219 8.65625 81.8062 8.65625C81.7938 8.65625 81.7812 8.675 81.7812 8.7C81.7812 8.75 81.6281 9.10313 81.5969 9.125C81.5844 9.13438 81.5562 9.19062 81.5344 9.25C81.4937 9.35938 81.4062 9.54688 81.0844 10.2188C80.9906 10.4156 80.875 10.6688 80.825 10.7812C80.775 10.8937 80.7281 10.9906 80.7156 11C80.7031 11.0094 80.6562 11.1125 80.6094 11.2344C80.5656 11.3531 80.5188 11.4594 80.5031 11.4688C80.4906 11.4781 80.4469 11.5687 80.4031 11.6719C80.3625 11.775 80.3188 11.8656 80.3094 11.875C80.2969 11.8844 80.25 11.9813 80.2031 12.0906C80.1594 12.2 80.1 12.3094 80.075 12.3344C80.05 12.3594 80.0312 12.3969 80.0312 12.4219C80.0312 12.4719 79.9125 12.7594 79.8813 12.7812C79.8688 12.7906 79.8313 12.8594 79.8 12.9375C79.7406 13.0781 79.525 13.5438 79.2656 14.0781C79.1906 14.2344 79.1125 14.4125 79.0906 14.4781C79.0688 14.5406 79.0406 14.5938 79.0281 14.5938C79.0188 14.5938 78.9688 14.6875 78.9219 14.8063C78.8719 14.9219 78.825 15.0219 78.8125 15.0312C78.8031 15.0406 78.7531 15.15 78.7063 15.275C78.6562 15.3969 78.6031 15.5 78.5906 15.5C78.5781 15.5 78.5375 15.5906 78.5 15.7031C78.4625 15.8156 78.4156 15.925 78.3938 15.9469C78.375 15.9656 78.3156 16.0844 78.2656 16.2031C78.2156 16.325 78.1625 16.4281 78.15 16.4313C78.1344 16.4375 78.125 16.4563 78.125 16.475C78.125 16.5031 78.0594 16.6469 77.7344 17.3281C77.4375 17.95 77.2563 18.3375 77.1844 18.5C77.1438 18.5938 77.1 18.6781 77.0906 18.6875C77.0625 18.7125 76.9375 19.0031 76.9375 19.05C76.9375 19.0719 76.9187 19.1094 76.8938 19.1344C76.8688 19.1594 76.8094 19.2688 76.7656 19.3781C76.7188 19.4875 76.6719 19.5844 76.6594 19.5938C76.6469 19.6031 76.6 19.7125 76.55 19.8375C76.5031 19.9594 76.4531 20.0625 76.4438 20.0625C76.4313 20.0625 76.3969 20.1281 76.3625 20.2125C76.2781 20.4219 76.0563 20.8875 76.0312 20.9062C76.0188 20.9156 75.9844 20.9906 75.9563 21.075C75.9281 21.1594 75.8625 21.3063 75.8125 21.4031C75.6531 21.7031 75.2906 22.4781 75.2344 22.6344C75.2031 22.7156 75.1687 22.7812 75.1562 22.7812C75.1438 22.7812 75.0938 22.8844 75.0437 23.0094C74.9969 23.1313 74.9469 23.2406 74.9375 23.25C74.925 23.2594 74.8781 23.3594 74.8281 23.4781C74.7812 23.5938 74.7312 23.6875 74.7188 23.6875C74.7063 23.6875 74.6719 23.7656 74.6406 23.8594C74.6125 23.9563 74.5719 24.05 74.55 24.0719C74.5281 24.0938 74.4719 24.2031 74.425 24.3219C74.375 24.4375 74.3219 24.5312 74.3063 24.5312C74.2937 24.5312 74.2812 24.55 74.2812 24.575C74.2812 24.625 74.1281 24.9781 74.0969 25C74.0875 25.0094 74.05 25.0781 74.0188 25.1562C73.9875 25.2344 73.8813 25.4656 73.7812 25.6719C73.6844 25.8781 73.5688 26.125 73.5281 26.2188C73.4875 26.3125 73.4438 26.3969 73.4344 26.4062C73.4031 26.4312 73.2812 26.7219 73.2812 26.7688C73.2812 26.7938 73.2688 26.8125 73.25 26.8125C73.2344 26.8125 73.2125 26.8469 73.2 26.8906L73.1813 26.9688H71.075C69.3969 26.9688 68.9688 26.9594 68.9688 26.9281Z" fill="black" fill-opacity="0.6"/>
<path d="M57.0469 23.1999C56.9781 23.1936 56.7438 23.1717 56.525 23.153C56.3031 23.1342 56.125 23.1061 56.125 23.0905C56.125 23.0749 56.0875 23.0624 56.0406 23.0624C55.9 23.0624 55.0938 22.8999 55.0938 22.8686C55.0938 22.8561 55.0719 22.8436 55.0438 22.8436C54.9625 22.8436 54.4531 22.6905 54.3156 22.6249C54.2469 22.5905 54.175 22.5624 54.1562 22.5624C54.1344 22.5624 54.0344 22.5217 53.9281 22.4717C53.8219 22.4217 53.6719 22.3561 53.5938 22.3249C53.5156 22.2936 53.4406 22.2561 53.4219 22.2405C53.4062 22.228 53.3281 22.1842 53.25 22.1436C52.9594 21.9936 52.7438 21.8686 52.5969 21.7655C52.5125 21.7061 52.4313 21.6561 52.4125 21.6561C52.3937 21.6561 52.3656 21.6374 52.3531 21.6155C52.3406 21.5936 52.2687 21.5374 52.1969 21.4905C52.1219 21.4436 52.0625 21.3905 52.0625 21.3749C52.0625 21.3561 52.0438 21.3436 52.0219 21.3436C52.0031 21.3436 51.8937 21.2655 51.7812 21.1686C51.5594 20.9811 50.9062 20.3467 50.9062 20.3217C50.9062 20.3124 50.8281 20.2186 50.7344 20.1155C50.6406 20.0092 50.5625 19.9061 50.5625 19.8905C50.5625 19.8717 50.5375 19.8436 50.5063 19.8217C50.4719 19.803 50.4219 19.7374 50.3938 19.6749C50.3656 19.6124 50.3281 19.5624 50.3125 19.5624C50.2938 19.5624 50.2812 19.5467 50.2812 19.5311C50.2812 19.5124 50.2188 19.4061 50.1438 19.2967C49.9844 19.0655 49.5875 18.2686 49.5281 18.0624C49.5063 17.9842 49.4719 17.9061 49.4531 17.8874C49.4344 17.8686 49.3875 17.7217 49.3469 17.5592C49.3031 17.3967 49.2594 17.2592 49.25 17.2499C49.2219 17.2311 49.1063 16.653 49.075 16.3905C49.0625 16.2874 49.0438 16.1967 49.0312 16.1874C48.9938 16.1624 48.9375 15.3749 48.9375 14.8686C48.9375 14.3749 48.9906 13.6624 49.0312 13.6092C49.0438 13.5936 49.0625 13.4936 49.075 13.3905C49.1031 13.1467 49.2188 12.5874 49.25 12.5467C49.2625 12.5311 49.3125 12.3811 49.3594 12.2186C49.4062 12.0561 49.4531 11.9092 49.4688 11.8905C49.4812 11.8749 49.5312 11.753 49.575 11.628C49.6188 11.4999 49.6687 11.3874 49.6813 11.378C49.6969 11.3655 49.7469 11.2655 49.7969 11.1499C49.8438 11.0311 49.8938 10.9374 49.9031 10.9374C49.9125 10.9374 49.9563 10.8592 50 10.7655C50.0438 10.6717 50.0875 10.5936 50.1 10.5936C50.1125 10.5936 50.15 10.5405 50.1844 10.478C50.2188 10.4124 50.2656 10.3311 50.2938 10.2967C50.5094 10.0155 50.6562 9.80924 50.6562 9.78424C50.6562 9.76862 50.7 9.72487 50.75 9.68737C50.8031 9.64987 50.8438 9.60299 50.8438 9.58424C50.8438 9.54674 51.6594 8.73737 51.8469 8.58737C52.125 8.36549 52.4625 8.12487 52.4938 8.12487C52.5125 8.12487 52.5312 8.10924 52.5375 8.08737C52.55 8.05299 52.6688 7.98112 53.0156 7.79362C53.1031 7.74674 53.1781 7.69987 53.1875 7.69049C53.1969 7.67799 53.2938 7.62799 53.4062 7.58112C53.5188 7.53112 53.6156 7.48112 53.625 7.47174C53.6438 7.44674 53.975 7.31237 54.0156 7.31237C54.0344 7.31237 54.0969 7.28737 54.1594 7.25299C54.2188 7.22174 54.3812 7.16237 54.5156 7.12487C54.6531 7.08737 54.7812 7.04362 54.7969 7.03112C54.8406 6.99987 55.1844 6.91862 55.4844 6.87174C55.6219 6.84987 55.7406 6.82174 55.75 6.80924C55.7812 6.76237 56.6219 6.68424 57.25 6.66549C58.05 6.64362 59.4688 6.74049 59.4688 6.81862C59.4688 6.83112 59.5063 6.84362 59.55 6.84362C59.6844 6.84362 60.3969 6.99674 60.4906 7.04674C60.5375 7.07174 60.6 7.09362 60.6281 7.09362C60.7 7.09362 61.1062 7.22174 61.125 7.24987C61.1344 7.26237 61.2438 7.30299 61.3688 7.34049C61.4938 7.38112 61.6125 7.42799 61.6344 7.44987C61.6562 7.47174 61.7438 7.51237 61.8281 7.54362C61.9156 7.57174 62.0469 7.63737 62.1219 7.68737C62.1969 7.74049 62.2781 7.78112 62.3 7.78112C62.3219 7.78112 62.3781 7.81237 62.4281 7.85299C62.475 7.89049 62.5656 7.94987 62.625 7.98112C62.6844 8.01549 62.7844 8.07799 62.8438 8.12174C62.9031 8.16862 62.9906 8.22487 63.0406 8.24674C63.0875 8.27174 63.125 8.30299 63.125 8.31549C63.125 8.33112 63.1594 8.35924 63.2 8.38112C63.2969 8.43424 63.775 8.84674 63.9688 9.04674C64.1219 9.20299 64.3438 9.45612 64.5156 9.66862C64.5688 9.73112 64.6469 9.82799 64.6938 9.88424C64.7406 9.94049 64.7812 9.99987 64.7812 10.0186C64.7812 10.0374 64.8125 10.0874 64.8531 10.1311C64.8906 10.1749 64.9563 10.2749 65 10.353C65.0406 10.4342 65.0875 10.4999 65.0969 10.4999C65.1094 10.4999 65.1344 10.5467 65.1562 10.603C65.1781 10.6561 65.2344 10.7655 65.2844 10.8436C65.3313 10.9217 65.4031 11.0686 65.4406 11.1717C65.4781 11.2749 65.5219 11.3655 65.5344 11.3749C65.55 11.3842 65.5938 11.4967 65.6375 11.6249C65.6781 11.753 65.7344 11.8999 65.7625 11.9499C65.7875 11.9999 65.8406 12.178 65.8813 12.3405C65.9188 12.5061 65.9594 12.6467 65.9719 12.6561C65.9969 12.6749 66.125 13.3124 66.125 13.4186C66.125 13.4592 66.1375 13.4999 66.1531 13.5061C66.2281 13.5311 66.3594 15.7405 66.3 15.978L66.2812 16.0624H59.6625H53.0438L53.0563 16.1874C53.0625 16.2561 53.0844 16.3124 53.1 16.3124C53.1188 16.3124 53.125 16.3467 53.1188 16.3905C53.1094 16.4342 53.1125 16.4749 53.125 16.4842C53.1375 16.4905 53.1656 16.5874 53.1875 16.6936C53.2094 16.803 53.2562 16.953 53.2938 17.0311C53.3313 17.1092 53.3969 17.2592 53.4375 17.3686C53.4813 17.4749 53.525 17.5624 53.5375 17.5624C53.55 17.5624 53.5906 17.6217 53.6281 17.6967C53.8156 18.0655 54.4906 18.7405 54.8688 18.9342C54.9375 18.9686 55 19.0092 55.0062 19.0249C55.0094 19.0374 55.1094 19.0905 55.2281 19.1405C55.3438 19.1874 55.4375 19.2374 55.4375 19.2499C55.4375 19.2592 55.5188 19.2936 55.6188 19.3249C55.7156 19.3561 55.8531 19.4061 55.925 19.4405C56.0563 19.4999 56.625 19.6249 56.7594 19.6249C56.8031 19.6249 56.8438 19.6436 56.8531 19.6655C56.8688 19.7155 58.5312 19.7217 58.5969 19.6686C58.6219 19.6499 58.7531 19.6155 58.8906 19.5967C59.1813 19.553 59.5344 19.4717 59.5781 19.4374C59.5969 19.4249 59.6938 19.3874 59.7969 19.3561C59.9 19.3249 60.0656 19.2592 60.1625 19.2124C60.2594 19.1655 60.3531 19.1249 60.3656 19.1249C60.3813 19.1249 60.4406 19.0874 60.4969 19.0405C60.6188 18.9405 61.2094 18.428 61.2844 18.3592C61.3281 18.3186 61.6438 18.3124 63.625 18.3124H65.9125L65.8969 18.3842C65.8687 18.4999 65.7781 18.7311 65.7531 18.7499C65.7406 18.7592 65.7031 18.8342 65.6688 18.9155C65.6375 18.9967 65.5875 19.0905 65.5625 19.1186C65.5344 19.1467 65.4813 19.2405 65.4406 19.3217C65.4 19.4061 65.3344 19.5092 65.2938 19.553C65.2531 19.5967 65.2188 19.6499 65.2188 19.6717C65.2188 19.6936 65.1844 19.7467 65.1406 19.7936C65.0969 19.8405 65.0625 19.8874 65.0625 19.8967C65.0625 19.978 64.0125 21.128 63.8406 21.2342C63.8125 21.253 63.6781 21.3561 63.5437 21.4624C63.4062 21.5717 63.2438 21.6905 63.1813 21.7217C63.1156 21.7561 63.0625 21.7936 63.0625 21.8092C63.0625 21.8249 63.0375 21.8436 63.0094 21.853C62.9406 21.8749 62.7156 22.003 62.6687 22.0467C62.65 22.0655 62.5594 22.1124 62.4656 22.1561C62.3719 22.1999 62.2937 22.2436 62.2875 22.2561C62.2812 22.2686 62.175 22.3155 62.0531 22.3624C61.9281 22.4092 61.8219 22.4561 61.8125 22.4686C61.8031 22.4811 61.7 22.5217 61.5781 22.5624C61.4594 22.603 61.3531 22.6436 61.3438 22.6561C61.325 22.678 60.8688 22.8124 60.8063 22.8124C60.7844 22.8124 60.7281 22.8342 60.6813 22.8561C60.5969 22.903 60.0938 23.0092 59.7969 23.0467C59.7125 23.0592 59.6125 23.078 59.5781 23.0936C59.45 23.1499 58.8656 23.1905 58.0312 23.203C57.5594 23.2061 57.1156 23.2061 57.0469 23.1999ZM62.1687 12.853C62.1562 12.7874 62.1219 12.6749 62.0906 12.603C62.0563 12.5311 62.0312 12.4592 62.0312 12.4436C62.0312 12.3936 61.9 12.1124 61.8562 12.0686C61.8344 12.0467 61.7906 11.9749 61.7594 11.9124C61.6906 11.7624 60.9875 11.0624 60.8375 10.9905C60.7719 10.9592 60.7188 10.9217 60.7188 10.9061C60.7188 10.8905 60.6875 10.8686 60.65 10.8592C60.6156 10.8467 60.5125 10.7936 60.425 10.7405C60.3375 10.6905 60.1687 10.6124 60.0469 10.5717C59.9281 10.528 59.8219 10.4842 59.8125 10.4686C59.7969 10.4436 59.5312 10.3749 59.1969 10.3092C59.0875 10.2874 59 10.2592 59 10.2467C59 10.1999 58.3188 10.1405 57.7344 10.1405C57.1125 10.1405 56.4625 10.1967 56.4437 10.253C56.4375 10.2686 56.4094 10.2811 56.3844 10.2811C56.3063 10.2811 55.6719 10.4436 55.6562 10.4655C55.6469 10.478 55.5375 10.5217 55.4094 10.5655C55.2812 10.6061 55.1625 10.653 55.1438 10.6717C55.125 10.6874 55.0219 10.7467 54.9156 10.7967C54.8063 10.8499 54.7188 10.8999 54.7188 10.9124C54.7188 10.9249 54.6719 10.9592 54.6188 10.9874C54.5625 11.0155 54.45 11.0936 54.3688 11.1592C54.2875 11.228 54.2156 11.2811 54.2094 11.2811C54.1531 11.2811 53.7031 11.8186 53.6188 11.978C53.5844 12.0499 53.5438 12.1155 53.5312 12.1249C53.5188 12.1342 53.4719 12.2405 53.425 12.3592C53.3781 12.4811 53.3219 12.6217 53.3 12.6717C53.275 12.7249 53.25 12.8124 53.2406 12.8686L53.2219 12.9686H57.7063H62.1906L62.1687 12.853Z" fill="black" fill-opacity="0.6"/>
<path d="M24.5938 23.1531C24.3969 23.1375 24.2063 23.1125 24.1719 23.0969C24.1375 23.0813 24.025 23.0563 23.9219 23.0469C23.675 23.0188 23.1 22.9094 23.0344 22.875C23.0063 22.8625 22.8438 22.8094 22.6719 22.7625C22.5 22.7156 22.3532 22.6688 22.3438 22.6563C22.3344 22.6469 22.2313 22.6063 22.1094 22.5656C21.9907 22.525 21.8844 22.4844 21.875 22.4719C21.8657 22.4594 21.7688 22.4125 21.6563 22.3625C21.5438 22.3156 21.4469 22.2656 21.4375 22.2563C21.4282 22.2438 21.3407 22.1938 21.2438 22.1469C21.1438 22.1 21.0625 22.0469 21.0625 22.0313C21.0625 22.0156 21.0407 22 21.0157 21.9938C20.8688 21.9625 20.1625 21.35 19.9125 21.0406C19.7282 20.8094 19.5657 20.575 19.5625 20.5406C19.5625 20.5188 19.5438 20.4906 19.5219 20.4781C19.4969 20.4656 19.4375 20.3688 19.3875 20.2656C19.3375 20.1625 19.2813 20.0625 19.2625 20.0406C19.2438 20.0219 19.1969 19.9156 19.1563 19.8063C19.1157 19.6969 19.0719 19.6031 19.0563 19.5938C19.0438 19.5844 18.9938 19.45 18.9469 19.2969C18.9 19.1406 18.8532 19.0094 18.8407 19C18.8188 18.9844 18.7282 18.625 18.6719 18.3438C18.6594 18.2844 18.6375 18.2188 18.6219 18.2C18.6063 18.1813 18.5625 17.9625 18.525 17.7156C18.4844 17.4688 18.4469 17.2625 18.4344 17.2563C18.425 17.2531 18.4219 17.2125 18.4313 17.1688C18.4375 17.125 18.4313 17.0594 18.4125 17.0219C18.3688 16.9375 18.2875 16.0844 18.2625 15.4156C18.25 15.1344 18.2282 14.9063 18.2125 14.9063C18.1969 14.9063 18.1907 14.6 18.1938 14.2188C18.2 13.8406 18.1938 13.5313 18.1813 13.5313C18.1532 13.5313 18.1469 12.2375 18.1719 12.2125C18.1813 12.2031 18.1907 11.5688 18.1875 10.8031C18.1875 9.8875 18.1969 9.40313 18.2188 9.39063C18.2625 9.36563 18.2625 7.79375 18.2188 7.76563C18.2 7.75625 18.1875 7.60625 18.1875 7.42188C18.1875 7.15625 18.1969 7.09688 18.2375 7.08125C18.2657 7.07188 19.2219 7.0625 20.3657 7.0625H22.4469L22.4282 11.4938C22.4125 15.675 22.425 16.7313 22.4969 16.7813C22.5094 16.7906 22.5375 16.9156 22.5594 17.0625C22.6094 17.3938 22.6657 17.6031 22.7469 17.7719C22.7844 17.8438 22.8125 17.9219 22.8125 17.9438C22.8157 17.9906 23.0157 18.3094 23.1469 18.4656C23.375 18.7469 23.7719 19.0563 24.0469 19.1688C24.1125 19.1969 24.1782 19.2313 24.1875 19.2469C24.2063 19.2719 24.4938 19.3656 24.6563 19.3938C24.7157 19.4063 24.7813 19.4281 24.8 19.4438C24.9438 19.5531 26.1188 19.5531 26.3594 19.4406C26.3938 19.4219 26.5063 19.3875 26.6094 19.3594C26.8438 19.2969 27.2125 19.1156 27.4282 18.9625C27.5188 18.8969 27.5969 18.8438 27.6032 18.8438C27.6282 18.8438 27.8594 18.6031 27.9813 18.4531C28.1219 18.2844 28.3313 17.8875 28.3969 17.6719C28.4219 17.5875 28.4563 17.5 28.475 17.4781C28.4907 17.4563 28.4969 17.4281 28.4875 17.4094C28.4782 17.3938 28.4813 17.375 28.4969 17.3688C28.5344 17.3563 28.6563 16.55 28.6563 16.3219C28.6563 16.2313 28.6719 16.1563 28.6875 16.1563C28.7063 16.1563 28.7188 15.7438 28.7188 14.9844C28.7188 14.225 28.7063 13.8125 28.6875 13.8125C28.6657 13.8125 28.6563 12.6656 28.6563 10.4375V7.0625H30.7438H32.8313L32.8188 7.69688C32.8094 8.04375 32.8219 9.48125 32.8407 10.8906C32.8688 12.8156 32.8688 13.7406 32.8438 14.6094C32.825 15.2438 32.7969 15.7719 32.7844 15.7813C32.7719 15.7906 32.7438 16.0219 32.725 16.2969C32.6782 16.9344 32.5938 17.575 32.5594 17.5875C32.5438 17.5938 32.5313 17.6344 32.5313 17.675C32.5313 17.7781 32.3719 18.5438 32.3469 18.5625C32.3375 18.5719 32.2969 18.7031 32.2563 18.8563C32.2157 19.0125 32.1563 19.1938 32.125 19.2656C32.0938 19.3344 32.0344 19.4844 31.9969 19.5938C31.9594 19.7063 31.9188 19.8031 31.9063 19.8125C31.8969 19.8219 31.8563 19.9063 31.8157 20C31.775 20.0938 31.7282 20.1875 31.7063 20.2031C31.6875 20.2219 31.6375 20.2969 31.5969 20.375C31.5563 20.4531 31.4844 20.5656 31.4407 20.625C31.3938 20.6844 31.3438 20.7594 31.3344 20.7906C31.3219 20.8188 31.3 20.8438 31.2844 20.8438C31.2657 20.8438 31.2313 20.8844 31.2032 20.9344C31.15 21.0406 30.6594 21.5625 30.6157 21.5625C30.6 21.5625 30.5594 21.5969 30.525 21.6406C30.4907 21.6844 30.4438 21.7188 30.4219 21.7188C30.3969 21.7188 30.3594 21.7438 30.3375 21.775C30.2907 21.8375 30.0469 22 30 22C29.9844 22 29.9688 22.0125 29.9688 22.0281C29.9688 22.0438 29.9063 22.0875 29.8282 22.125C29.75 22.1625 29.6688 22.2094 29.6469 22.2313C29.625 22.2531 29.5125 22.3094 29.3907 22.3594C29.2719 22.4094 29.1313 22.475 29.0782 22.5063C29.0282 22.5375 28.9688 22.5625 28.9469 22.5625C28.925 22.5625 28.8344 22.5969 28.7438 22.6375C28.6532 22.6781 28.4532 22.7438 28.2969 22.7844C28.1438 22.8219 28.0094 22.8656 28 22.875C27.9782 22.9031 27.5469 22.9875 27.1875 23.0344C27.025 23.0563 26.8844 23.0844 26.875 23.0969C26.8219 23.1688 25.3188 23.2063 24.5938 23.1531Z" fill="black" fill-opacity="0.6"/>
<path d="M0.78125 12.1719V1.53125H2.95312H5.125V5.53125V9.53125H8.82812H12.5312L12.5375 9.38438C12.5406 9.3 12.5437 7.69375 12.5437 5.8125C12.5469 3.93125 12.5594 2.19688 12.575 1.95937L12.6031 1.53125H14.725H16.8438V12.1719V22.8125H14.6875H12.5312V18.1562V13.5H8.82812H5.125V18.1562V22.8125H2.95312H0.78125V12.1719Z" fill="black" fill-opacity="0.6"/>
<path d="M33.7188 14.9374V7.0624H35.5469H37.375L37.3781 7.93115C37.3781 8.5499 37.3875 8.77178 37.4125 8.7124C37.4281 8.6624 37.4562 8.6249 37.4688 8.6249C37.4844 8.6249 37.5187 8.57803 37.5469 8.51865C37.625 8.35303 37.9688 7.97178 38.2594 7.7249C38.4031 7.5999 38.5375 7.4999 38.5563 7.4999C38.575 7.4999 38.5938 7.48428 38.6 7.4624C38.6312 7.36865 39.6438 6.87803 39.8125 6.8749C39.8375 6.8749 39.9 6.85303 39.95 6.82803C40.2688 6.6624 41.6031 6.64365 41.9531 6.79678C42.0063 6.82178 42.15 6.87178 42.275 6.90928C42.4 6.94365 42.5219 6.99678 42.5469 7.02178C42.5875 7.05928 42.5938 7.3499 42.5938 9.03428V10.9999H42.525C42.4156 10.9999 42.2188 10.9374 42.2188 10.9062C42.2188 10.8874 42.2031 10.8749 42.1813 10.8749C42.1625 10.8749 42.1 10.8405 42.0437 10.7968C41.9875 10.753 41.9344 10.7187 41.925 10.7187C41.9156 10.7187 41.8813 10.6968 41.8531 10.6687C41.7094 10.5374 41.3563 10.3468 41.1875 10.3093C41.0844 10.2874 41 10.2593 41 10.2468C41 10.2124 40.55 10.1562 40.2812 10.1562C40.0125 10.1562 39.7188 10.2062 39.7188 10.253C39.7188 10.2687 39.7 10.2812 39.675 10.2812C39.6031 10.2812 39.2812 10.4343 39.2812 10.4687C39.2812 10.4843 39.2656 10.4999 39.2438 10.4999C39.1937 10.4999 38.8438 10.8468 38.8438 10.8937C38.8438 10.9155 38.8094 10.9624 38.7656 11.003C38.725 11.0437 38.6875 11.0874 38.6875 11.0999C38.6875 11.1124 38.6406 11.203 38.5813 11.303C38.5219 11.403 38.45 11.5624 38.4219 11.6562C38.3906 11.7499 38.3531 11.8343 38.3406 11.8437C38.3125 11.8624 38.1562 12.5187 38.1562 12.6218C38.1562 12.653 38.1438 12.6874 38.1281 12.6937C38.0844 12.7093 37.9719 13.6593 37.9469 14.1937C37.9375 14.4468 37.9156 14.6562 37.9 14.6562C37.8656 14.6562 37.8688 17.0187 37.9031 17.0874C37.9563 17.1812 38.0062 20.7562 37.9688 21.7499C37.95 22.2405 37.9219 22.653 37.9031 22.6687C37.8875 22.6874 37.875 22.7249 37.875 22.7562C37.875 22.8093 37.7781 22.8124 35.7969 22.8124H33.7188V14.9374Z" fill="black" fill-opacity="0.6"/>
<path d="M43.6563 15.4156C43.6563 11.3438 43.6406 6.58125 43.6219 4.82812C43.6063 3.07812 43.6 1.60938 43.6094 1.57188C43.6188 1.53125 43.6469 1.5 43.6719 1.5C43.6969 1.5 43.7188 1.4875 43.7188 1.46875C43.7188 1.44688 44.4031 1.4375 45.7063 1.4375C47.325 1.4375 47.7 1.44375 47.7344 1.47813C47.8156 1.55938 47.85 7.125 47.825 15.3531L47.8031 22.8125H45.7313H43.6563V15.4156Z" fill="black" fill-opacity="0.6"/>
</svg>
