<svg width="30" height="30" viewBox="0 0 30 30" fill="none" xmlns="http://www.w3.org/2000/svg">
<path d="M17.8643 4.92773H11.7042L8.6242 8.62379H4.92815C4.27464 8.62379 3.64791 8.88339 3.18581 9.34549C2.72371 9.80758 2.46411 10.4343 2.46411 11.0878V22.176C2.46411 22.8295 2.72371 23.4562 3.18581 23.9183C3.64791 24.3804 4.27464 24.64 4.92815 24.64H24.6404C25.2939 24.64 25.9207 24.3804 26.3828 23.9183C26.8449 23.4562 27.1045 22.8295 27.1045 22.176V11.0878C27.1045 10.4343 26.8449 9.80758 26.3828 9.34549C25.9207 8.88339 25.2939 8.62379 24.6404 8.62379H20.9444L17.8643 4.92773Z" stroke="#9690F0" stroke-width="2.46403" stroke-linecap="round" stroke-linejoin="round"/>
<path d="M14.7842 19.7123C16.8255 19.7123 18.4802 18.0575 18.4802 16.0162C18.4802 13.975 16.8255 12.3202 14.7842 12.3202C12.7429 12.3202 11.0881 13.975 11.0881 16.0162C11.0881 18.0575 12.7429 19.7123 14.7842 19.7123Z" stroke="#9690F0" stroke-width="2.46403" stroke-linecap="round" stroke-linejoin="round"/>
</svg>
